<?xml version="1.0" encoding="UTF-8" standalone="no"?>
<!-- Generator: Adobe Illustrator 12.0.0, SVG Export Plug-In . SVG Version: 6.00 Build 51448)  -->

<svg
   xmlns:ns="http://ns.adobe.com/SaveForWeb/1.0/"
   xmlns:dc="http://purl.org/dc/elements/1.1/"
   xmlns:cc="http://creativecommons.org/ns#"
   xmlns:rdf="http://www.w3.org/1999/02/22-rdf-syntax-ns#"
   xmlns:svg="http://www.w3.org/2000/svg"
   xmlns="http://www.w3.org/2000/svg"
   xmlns:xlink="http://www.w3.org/1999/xlink"
   xmlns:sodipodi="http://sodipodi.sourceforge.net/DTD/sodipodi-0.dtd"
   xmlns:inkscape="http://www.inkscape.org/namespaces/inkscape"
   version="1.1"
   id="Layer_1"
   width="128"
   height="128"
   viewBox="0 0 128 128"
   overflow="visible"
   enable-background="new 0 0 128 128"
   xml:space="preserve"
   sodipodi:version="0.32"
   inkscape:version="0.48.1 r9760"
   sodipodi:docname="archive-extract.svgz"
   inkscape:output_extension="org.inkscape.output.svgz.inkscape"
   inkscape:export-filename="/home/pinheiro/pics/oxygen/scalable/actions/small/32x32/archive-extract.png"
   inkscape:export-xdpi="90"
   inkscape:export-ydpi="90"><defs
   id="defs105"><linearGradient
     y2="95.293"
     x2="87.293"
     y1="103"
     x1="95"
     gradientUnits="userSpaceOnUse"
     id="linearGradient4175">
	<stop
   id="stop4177"
   style="stop-color:#000000;stop-opacity:1"
   offset="0" />
	<stop
   id="stop4179"
   style="stop-color:#393B38"
   offset="1" />
</linearGradient><linearGradient
     inkscape:collect="always"
     xlink:href="#XMLID_9_"
     id="linearGradient2291"
     gradientUnits="userSpaceOnUse"
     x1="88.591797"
     y1="96.592697"
     x2="71.262016"
     y2="79.262917" /><linearGradient
     inkscape:collect="always"
     xlink:href="#linearGradient4175"
     id="linearGradient2295"
     gradientUnits="userSpaceOnUse"
     x1="85.219681"
     y1="93.219681"
     x2="61.336319"
     y2="69.336319" /><linearGradient
     inkscape:collect="always"
     xlink:href="#XMLID_12_"
     id="linearGradient2297"
     gradientUnits="userSpaceOnUse"
     x1="96"
     y1="104"
     x2="88.0002"
     y2="96.0002" /><radialGradient
     inkscape:collect="always"
     xlink:href="#XMLID_8_"
     id="radialGradient2272"
     gradientUnits="userSpaceOnUse"
     gradientTransform="matrix(0.9787234,0,0,0.9818182,-2.638296,1.1636364)"
     cx="102"
     cy="112.3047"
     r="139.55859" /><radialGradient
     inkscape:collect="always"
     xlink:href="#XMLID_7_"
     id="radialGradient2275"
     gradientUnits="userSpaceOnUse"
     gradientTransform="translate(-3.999998,0)"
     cx="102"
     cy="112.3047"
     r="139.5585" /><filter
     inkscape:collect="always"
     id="filter3241"><feGaussianBlur
       inkscape:collect="always"
       stdDeviation="1.0394514"
       id="feGaussianBlur3243" /></filter><linearGradient
     id="linearGradient2399"><stop
       style="stop-color:#0968ef;stop-opacity:1;"
       offset="0"
       id="stop2401" /><stop
       style="stop-color:#aecffc;stop-opacity:1;"
       offset="1"
       id="stop2403" /></linearGradient><filter
     inkscape:collect="always"
     id="filter3772"><feGaussianBlur
       inkscape:collect="always"
       stdDeviation="0.50063244"
       id="feGaussianBlur3774" /></filter><filter
     inkscape:collect="always"
     id="filter4107"><feGaussianBlur
       inkscape:collect="always"
       stdDeviation="0.40750996"
       id="feGaussianBlur4109" /></filter><filter
     inkscape:collect="always"
     id="filter4171"><feGaussianBlur
       inkscape:collect="always"
       stdDeviation="0.4901192"
       id="feGaussianBlur4173" /></filter><filter
     inkscape:collect="always"
     id="filter4209"><feGaussianBlur
       inkscape:collect="always"
       stdDeviation="0.90565481"
       id="feGaussianBlur4211" /></filter><linearGradient
     y2="56.231236"
     x2="5.1264462"
     y1="56.231236"
     x1="64.129814"
     gradientTransform="matrix(0,-1.0293895,1.0293895,0,11.93834,80.22496)"
     gradientUnits="userSpaceOnUse"
     id="linearGradient3755"
     xlink:href="#linearGradient3757"
     inkscape:collect="always" /><linearGradient
     y2="56.231236"
     x2="5.1264462"
     y1="56.231236"
     x1="64.129814"
     gradientTransform="matrix(0,-1.0293895,1.0293895,0,11.93834,80.22496)"
     gradientUnits="userSpaceOnUse"
     id="linearGradient3730"
     xlink:href="#linearGradient2880"
     inkscape:collect="always" /><radialGradient
     r="139.5585"
     cy="112.3047"
     cx="102"
     gradientTransform="translate(2.4e-6,0)"
     gradientUnits="userSpaceOnUse"
     id="radialGradient2713"
     xlink:href="#XMLID_7_"
     inkscape:collect="always" /><linearGradient
     y2="96.0002"
     x2="88.0002"
     y1="104"
     x1="96"
     gradientUnits="userSpaceOnUse"
     id="linearGradient2711"
     xlink:href="#XMLID_12_"
     inkscape:collect="always" /><linearGradient
     y2="95.293"
     x2="87.293"
     y1="103"
     x1="95"
     gradientUnits="userSpaceOnUse"
     id="linearGradient2709"
     xlink:href="#XMLID_11_"
     inkscape:collect="always" /><linearGradient
     y2="94.5366"
     x2="86.5356"
     y1="102.3447"
     x1="94.3438"
     gradientUnits="userSpaceOnUse"
     id="linearGradient2706"
     xlink:href="#XMLID_9_"
     inkscape:collect="always" /><linearGradient
     id="linearGradient2880"><stop
       style="stop-color:#000000;stop-opacity:1;"
       offset="0"
       id="stop2882" /><stop
       id="stop2884"
       offset="0"
       style="stop-color:#000000;stop-opacity:1;" /><stop
       id="stop2886"
       offset="0.56999999"
       style="stop-color:#000000;stop-opacity:0.58823532;" /><stop
       style="stop-color:#3b3b3b;stop-opacity:0.72000003;"
       offset="0.82800001"
       id="stop2888" /><stop
       style="stop-color:white;stop-opacity:0;"
       offset="1"
       id="stop2890" /></linearGradient><linearGradient
     id="linearGradient3716"><stop
       id="stop3718"
       offset="0"
       style="stop-color:#fefefe;stop-opacity:1" /><stop
       style="stop-color:#e9eaea;stop-opacity:1"
       offset="0.23920465"
       id="stop3732" /><stop
       id="stop3720"
       offset="1"
       style="stop-color:#fdfdfd;stop-opacity:1" /></linearGradient><linearGradient
     id="linearGradient3757"><stop
       id="stop3759"
       offset="0"
       style="stop-color:#000000;stop-opacity:1;" /><stop
       style="stop-color:#000000;stop-opacity:1;"
       offset="0"
       id="stop3761" /><stop
       style="stop-color:#000000;stop-opacity:0.58823532;"
       offset="0.56999999"
       id="stop3763" /><stop
       id="stop3765"
       offset="0.74199998"
       style="stop-color:#3b3b3b;stop-opacity:0.72000003;" /><stop
       id="stop3767"
       offset="1"
       style="stop-color:white;stop-opacity:0;" /></linearGradient><inkscape:perspective
     id="perspective2687"
     inkscape:persp3d-origin="64 : 42.666667 : 1"
     inkscape:vp_z="128 : 64 : 1"
     inkscape:vp_y="0 : 1000 : 0"
     inkscape:vp_x="0 : 64 : 1"
     sodipodi:type="inkscape:persp3d" /><linearGradient
     inkscape:collect="always"
     xlink:href="#linearGradient3716"
     id="linearGradient2773"
     gradientUnits="userSpaceOnUse"
     gradientTransform="matrix(0,0.9124731,-0.9124731,0,126.08176,-11.832173)"
     x1="63.998402"
     y1="2.0128229"
     x2="63.998402"
     y2="74.721313" /><linearGradient
     inkscape:collect="always"
     xlink:href="#linearGradient3757"
     id="linearGradient2791"
     gradientUnits="userSpaceOnUse"
     gradientTransform="matrix(0,-1.0293895,1.0293895,0,11.93834,80.22496)"
     x1="64.129814"
     y1="56.231236"
     x2="5.1264462"
     y2="56.231236" /><linearGradient
     inkscape:collect="always"
     xlink:href="#linearGradient3757"
     id="linearGradient2793"
     gradientUnits="userSpaceOnUse"
     gradientTransform="matrix(0,-1.0293895,1.0293895,0,11.93834,80.22496)"
     x1="64.129814"
     y1="56.231236"
     x2="5.1264462"
     y2="56.231236" /><filter
     inkscape:collect="always"
     id="filter3565"><feGaussianBlur
       inkscape:collect="always"
       stdDeviation="1.8227906"
       id="feGaussianBlur3567" /></filter><filter
     inkscape:collect="always"
     id="filter3569"><feGaussianBlur
       inkscape:collect="always"
       stdDeviation="1.0669687"
       id="feGaussianBlur3571" /></filter></defs><sodipodi:namedview
   inkscape:window-height="687"
   inkscape:window-width="1022"
   inkscape:pageshadow="2"
   inkscape:pageopacity="0.0"
   guidetolerance="10.0"
   gridtolerance="10.0"
   objecttolerance="10.0"
   borderopacity="1.0"
   bordercolor="#666666"
   pagecolor="#ffffff"
   id="base"
   inkscape:zoom="3.6093751"
   inkscape:cx="81.196456"
   inkscape:cy="42.396707"
   inkscape:window-x="404"
   inkscape:window-y="248"
   inkscape:current-layer="Layer_1"
   showgrid="true"
   showguides="true"
   inkscape:guide-bbox="true"
   inkscape:window-maximized="0"><inkscape:grid
     id="GridFromPre046Settings"
     type="xygrid"
     originx="0px"
     originy="0px"
     spacingx="4px"
     spacingy="4px"
     color="#0000ff"
     empcolor="#0000ff"
     opacity="0.2"
     empopacity="0.4"
     empspacing="2"
     enabled="true"
     visible="true" /></sodipodi:namedview>
<metadata
   id="metadata3">
	<ns:sfw>
		<ns:slices>
			<ns:slice
   y="0"
   x="0"
   height="128"
   width="128"
   sliceID="1316743234" />
		</ns:slices>
		<ns:sliceSourceBounds
   y="0"
   x="0"
   height="128"
   width="128"
   bottomLeftOrigin="true" />
		<ns:optimizationSettings>
			<ns:targetSettings
   targetSettingsID="0"
   fileFormat="PNG24Format">
				<ns:PNG24Format
   transparency="true"
   filtered="false"
   matteColor="#FFFFFF"
   noMatteColor="false"
   interlaced="false">
					</ns:PNG24Format>
			</ns:targetSettings>
			<ns:targetSettings
   targetSettingsID="1696735251"
   fileFormat="PNG24Format">
				<ns:PNG24Format
   transparency="true"
   filtered="false"
   matteColor="#FFFFFF"
   noMatteColor="false"
   interlaced="false">
					</ns:PNG24Format>
			</ns:targetSettings>
		</ns:optimizationSettings>
	</ns:sfw>
<rdf:RDF><cc:Work
     rdf:about=""><dc:format>image/svg+xml</dc:format><dc:type
       rdf:resource="http://purl.org/dc/dcmitype/StillImage" /><dc:title></dc:title></cc:Work></rdf:RDF></metadata>

<radialGradient
   id="XMLID_7_"
   cx="102"
   cy="112.3047"
   r="139.5585"
   gradientUnits="userSpaceOnUse">
	<stop
   offset="0"
   style="stop-color:#00537D"
   id="stop16" />
	<stop
   offset="0.0151"
   style="stop-color:#186389"
   id="stop18" />
	<stop
   offset="0.0558"
   style="stop-color:#558CA8"
   id="stop20" />
	<stop
   offset="0.0964"
   style="stop-color:#89AFC3"
   id="stop22" />
	<stop
   offset="0.1357"
   style="stop-color:#B3CCD8"
   id="stop24" />
	<stop
   offset="0.1737"
   style="stop-color:#D4E2E9"
   id="stop26" />
	<stop
   offset="0.2099"
   style="stop-color:#ECF2F5"
   id="stop28" />
	<stop
   offset="0.2435"
   style="stop-color:#FAFCFD"
   id="stop30" />
	<stop
   offset="0.2722"
   style="stop-color:#FFFFFF"
   id="stop32" />
</radialGradient>

<radialGradient
   id="XMLID_8_"
   cx="102"
   cy="112.3047"
   r="139.55859"
   gradientUnits="userSpaceOnUse">
	<stop
   offset="0"
   style="stop-color:#535557"
   id="stop37" />
	
	<stop
   offset="0.11366145"
   style="stop-color:#898A8C"
   id="stop41" />
	
	
	<stop
   offset="0.20296688"
   style="stop-color:#ECECEC"
   id="stop47" />
	<stop
   offset="0.2363"
   style="stop-color:#FAFAFA"
   id="stop49" />
	<stop
   offset="0.2722"
   style="stop-color:#FFFFFF"
   id="stop51" />
	<stop
   offset="0.5313"
   style="stop-color:#FAFAFA"
   id="stop53" />
	<stop
   offset="0.8449"
   style="stop-color:#EBECEC"
   id="stop55" />
	<stop
   offset="1"
   style="stop-color:#E1E2E3"
   id="stop57" />
</radialGradient>

<linearGradient
   id="XMLID_9_"
   gradientUnits="userSpaceOnUse"
   x1="94.3438"
   y1="102.3447"
   x2="86.5356"
   y2="94.5366">
	<stop
   offset="0"
   style="stop-color:#FFFFFF"
   id="stop62" />
	<stop
   offset="1"
   style="stop-color:#555753"
   id="stop64" />
</linearGradient>

<linearGradient
   id="XMLID_10_"
   gradientUnits="userSpaceOnUse"
   x1="95"
   y1="103"
   x2="86.5865"
   y2="94.5865">
	<stop
   offset="0"
   style="stop-color:#FFFFFF"
   id="stop69" />
	<stop
   offset="1"
   style="stop-color:#555753"
   id="stop71" />
</linearGradient>

<linearGradient
   id="XMLID_11_"
   gradientUnits="userSpaceOnUse"
   x1="95"
   y1="103"
   x2="87.293"
   y2="95.293">
	<stop
   offset="0"
   style="stop-color:#FFFFFF"
   id="stop76" />
	<stop
   offset="1"
   style="stop-color:#393B38"
   id="stop78" />
</linearGradient>

<linearGradient
   id="XMLID_12_"
   gradientUnits="userSpaceOnUse"
   x1="96"
   y1="104"
   x2="88.0002"
   y2="96.0002">
	<stop
   offset="0"
   style="stop-color:#888A85"
   id="stop83" />
	<stop
   offset="0.0072"
   style="stop-color:#8C8E89"
   id="stop85" />
	<stop
   offset="0.0673"
   style="stop-color:#ABACA9"
   id="stop87" />
	<stop
   offset="0.1347"
   style="stop-color:#C5C6C4"
   id="stop89" />
	<stop
   offset="0.2115"
   style="stop-color:#DBDBDA"
   id="stop91" />
	<stop
   offset="0.3012"
   style="stop-color:#EBEBEB"
   id="stop93" />
	<stop
   offset="0.4122"
   style="stop-color:#F7F7F6"
   id="stop95" />
	<stop
   offset="0.5679"
   style="stop-color:#FDFDFD"
   id="stop97" />
	<stop
   offset="1"
   style="stop-color:#FFFFFF"
   id="stop99" />
</linearGradient>
<path
   sodipodi:nodetypes="cccccccc"
   transform="matrix(1.0416667,0,0,1.0357143,-13.958333,-3.3215342)"
   style="opacity:0.30684934;fill:#000000;fill-opacity:1;filter:url(#filter3241)"
   d="m 23,9 0.04082,112 61.131184,0 c 0.53,0 1.039,-0.211 1.414,-0.586 L 118.414,87.586 C 118.789,87.211 119,86.702 119,86.172 L 119,9 23,9 z"
   id="path4081"
   inkscape:connector-curvature="0" /><path
   sodipodi:nodetypes="cccccccc"
   transform="matrix(1.0416667,0,0,1.0357143,-13.958333,-3.3215342)"
   style="opacity:0.89589042;fill:#000000;fill-opacity:1;filter:url(#filter3772)"
   d="m 24.919999,10.931136 0,108.137934 58.676001,-1e-4 c 0.53,0 1.039,-0.211 1.414,-0.586 l 31.484,-31.765936 c 0.375,-0.375 0.586,-0.884 0.586,-1.414 l 0,-74.371898 -92.160001,0 z"
   id="path3726"
   inkscape:connector-curvature="0" /><path
   id="path6594"
   d="M 23,9.9655172 23.040816,121 84.172,121 c 0.53,0 1.039,-0.211 1.414,-0.586 L 118.414,87.586 C 118.789,87.211 119,86.702 119,86.172 l 0,-76.2064828 -96,0 z"
   style="opacity:0.30684934;fill:#000000;fill-opacity:1;filter:url(#filter3241)"
   transform="matrix(1.0416667,0,0,1.0357143,-13.958333,-3.3215342)"
   sodipodi:nodetypes="cccccccc"
   inkscape:connector-curvature="0" /><path
   style="fill:url(#radialGradient2275)"
   d="m 12.000002,8 0,112 61.172,0 c 0.53,0 1.039,-0.211 1.414,-0.586 L 107.414,86.586 C 107.789,86.211 108,85.702 108,85.172 L 108,8 12.000002,8 z"
   id="path34"
   sodipodi:nodetypes="cccccccc"
   inkscape:connector-curvature="0" /><path
   style="fill:url(#radialGradient2272);fill-opacity:1"
   d="m 15.678725,10.7 c -0.539276,0 -0.978723,0.440836 -0.978723,0.981818 l -0.7,105.336362 c 0,0.54197 0.439447,0.98182 0.978723,0.98182 l 57.913022,0 c 0.257404,0 0.509915,-0.10407 0.691957,-0.28767 L 105.71323,85.4812 C 105.89626,85.2976 106,85.045273 106,84.787055 l 0,-73.805237 C 106,10.440836 105.56153,10 105.02128,10 l -89.342555,0.7 z"
   id="path59"
   sodipodi:nodetypes="ccccccccccc"
   inkscape:connector-curvature="0" /><g
   id="g1973"
   transform="translate(-3.999998,0)"><path
     style="opacity:0.1;fill:url(#linearGradient2291);filter:url(#filter4107)"
     id="path66"
     d="M 111.414,86.586 C 111.664,86.336 85.035,85 80,85 c -1.654,0 -3,1.346 -3,3 0,5.035 1.336,31.664 1.586,31.414 l 32.828,-32.828 z"
     sodipodi:nodetypes="csscc"
     inkscape:connector-curvature="0" /><path
     style="opacity:0.2;fill:#000000;fill-opacity:1;filter:url(#filter4209)"
     id="path73"
     d="M 111.414,86.586 C 111.789,86.211 89.444,86 80,86 c -1.103,0 -2,0.897 -2,2 0,9.444 0.211,31.789 0.586,31.414 l 32.828,-32.828 z"
     sodipodi:nodetypes="csscc"
     inkscape:connector-curvature="0" /><path
     style="opacity:0.1;fill:url(#linearGradient2295);filter:url(#filter4171)"
     id="path80"
     d="M 111.414,86.586 C 111.653,86.347 89.807,87 80,87 c -0.553,0 -1,0.447 -1,1 0,9.807 -0.653,31.653 -0.414,31.414 l 32.828,-32.828 z"
     sodipodi:nodetypes="csscc"
     inkscape:connector-curvature="0" /><path
     style="fill:url(#linearGradient2297)"
     id="path101"
     d="m 78.586,119.414 c 0,0 11.914,-9.914 17.414,-15.414 5.5,-5.5 15.414,-17.414 15.414,-17.414 0,0 -21.164,1.414 -31.414,1.414 0,10.25 -1.414,31.414 -1.414,31.414 z"
     sodipodi:nodetypes="csccc"
     inkscape:connector-curvature="0" /></g>

<path
   sodipodi:type="inkscape:offset"
   inkscape:radius="-1.9951481"
   inkscape:original="M 62.6875 3.21875 C 62.209361 3.3251895 61.823747 3.7277733 61.46875 4.0625 L 61.375 3.96875 L 26.40625 36.40625 C 25.944476 36.842055 25.46876 37.372515 25.46875 38.53125 C 25.46875 39.690023 25.94457 40.220514 26.40625 40.65625 L 34.5625 48.84375 C 34.572825 48.85426 34.583242 48.864675 34.59375 48.875 C 35.688109 49.933529 37.244424 50.003065 38.4375 49.09375 C 38.448008 49.083427 38.458425 49.073008 38.46875 49.0625 L 54.3125 36.40625 L 55.3125 74.59375 C 55.319633 76.084319 55.500393 77.522997 57.21875 77.53125 L 68.5625 77.53125 C 70.279853 77.523029 71.491782 76.311095 71.5 74.59375 L 72.5 36.40625 L 88.34375 49.0625 C 88.354075 49.07301 88.364492 49.083425 88.375 49.09375 C 89.446736 49.910588 91.218935 49.811821 92.1875 48.875 C 92.198008 48.864677 92.208425 48.854258 92.21875 48.84375 L 100.46875 40.625 C 101.15606 39.976349 101.31251 39.23812 101.3125 38.53125 C 101.3125 37.824378 101.09357 37.054917 100.40625 36.40625 L 65.40625 3.96875 C 64.973706 3.5572792 64.408622 3.3135174 63.8125 3.28125 C 63.537956 3.2172038 63.21617 3.1010615 62.6875 3.21875 z "
   style="fill:url(#linearGradient2793);fill-opacity:1;stroke:none;filter:url(#filter3569)"
   id="path3769"
   d="M 63.125,5.15625 C 63.466318,5.0802685 63.25501,5.1122227 62.84375,5.5 a 1.9953476,1.9953476 0 0 1 -0.625,0.40625 1.9953476,1.9953476 0 0 1 -0.0625,0.03125 L 27.78125,37.84375 27.75,37.875 c -0.307849,0.269477 -0.281245,0.07715 -0.28125,0.65625 0,0.612603 -0.05897,0.336906 0.3125,0.6875 A 1.9953476,1.9953476 0 0 1 27.8125,39.25 l 8.15625,8.1875 a 1.9953476,1.9953476 0 0 1 0.03125,0 c 0.419505,0.394913 0.732683,0.426122 1.1875,0.09375 A 1.9953476,1.9953476 0 0 1 37.21875,47.5 L 53.0625,34.84375 a 1.9953476,1.9953476 0 0 1 3.25,1.5 l 1,38.1875 a 1.9953476,1.9953476 0 0 1 0,0.0625 c 0.0026,0.540917 0.06438,0.789622 0.09375,0.9375 l 11.15625,0 c 0.783229,-0.0037 0.933752,-0.154281 0.9375,-0.9375 a 1.9953476,1.9953476 0 0 1 0,-0.0625 l 1,-38.1875 a 1.9953476,1.9953476 0 0 1 3.25,-1.5 L 89.59375,47.5 c 0.162465,0.123825 1.009528,0.06954 1.1875,-0.0625 0.0047,-0.0035 0.02755,0.0036 0.03125,0 l 8.25,-8.21875 a 1.9953476,1.9953476 0 0 1 0.03125,-0.03125 c 0.247682,-0.233751 0.218756,-0.243788 0.21875,-0.65625 0,-0.278737 -0.02225,-0.429259 -0.25,-0.65625 L 99.03125,37.84375 64.0625,5.4375 A 1.9953476,1.9953476 0 0 1 64.03125,5.40625 c -0.08893,-0.084596 -0.189941,-0.118366 -0.3125,-0.125 a 1.9953476,1.9953476 0 0 1 -0.375,-0.0625 C 62.885411,5.1118278 63.2143,5.1363707 63.125,5.15625 z"
   transform="matrix(0,0.9124731,-0.9124731,0,127.4547,-11.832173)"
   inkscape:transform-center-x="121.93675"
   inkscape:transform-center-y="-13.638176" /><path
   transform="matrix(0,0.9124731,-0.9124731,0,127.4547,-11.832173)"
   d="m 62.9375,4.3125 c -0.02357,0.00525 -0.332542,0.1983448 -0.71875,0.5625 A 1.1068677,1.1068677 0 0 1 61.75,5.125 L 27.15625,37.21875 c -0.411685,0.388533 -0.593743,0.45668 -0.59375,1.3125 0,0.855799 0.182112,0.923994 0.59375,1.3125 A 1.1068677,1.1068677 0 0 1 27.1875,39.875 l 8.15625,8.1875 c 0.0057,0.0058 0.02531,0.02542 0.03125,0.03125 0.715642,0.692211 1.559238,0.718836 2.34375,0.15625 a 1.1068677,1.1068677 0 0 1 0.0625,-0.03125 1.1068677,1.1068677 0 0 1 0,-0.03125 L 53.625,35.53125 a 1.1068677,1.1068677 0 0 1 1.78125,0.84375 l 1,38.1875 a 1.1068677,1.1068677 0 0 1 0,0.03125 c 0.0034,0.702251 0.100855,1.31529 0.21875,1.5625 0.117895,0.24721 0.04325,0.278606 0.59375,0.28125 l 11.34375,0 c 1.199172,-0.0057 1.838012,-0.644587 1.84375,-1.84375 a 1.1068677,1.1068677 0 0 1 0,-0.03125 l 1,-38.1875 A 1.1068677,1.1068677 0 0 1 73.1875,35.53125 L 89.03125,48.1875 a 1.1068677,1.1068677 0 0 1 0,0.03125 c 0.0069,0.0053 0.0241,-0.0051 0.03125,0 0.579895,0.416729 1.838395,0.363792 2.34375,-0.125 0.0058,-0.0057 0.02542,-0.02531 0.03125,-0.03125 l 8.25,-8.21875 a 1.1068677,1.1068677 0 0 1 0.03125,-0.03125 c 0.44344,-0.418496 0.50001,-0.737695 0.5,-1.28125 0,-0.478351 -0.10759,-0.883175 -0.5625,-1.3125 l -35,-32.4375 C 64.414318,4.5511047 64.083425,4.3930479 63.75,4.375 A 1.1068677,1.1068677 0 0 1 63.5625,4.34375 C 63.186001,4.2559194 63.222441,4.2490686 62.9375,4.3125 z"
   id="path3801"
   style="opacity:0.5;fill:url(#linearGradient2791);fill-opacity:1;stroke:none;filter:url(#filter3565)"
   inkscape:original="M 62.6875 3.21875 C 62.209361 3.3251895 61.823747 3.7277733 61.46875 4.0625 L 61.375 3.96875 L 26.40625 36.40625 C 25.944476 36.842055 25.46876 37.372515 25.46875 38.53125 C 25.46875 39.690023 25.94457 40.220514 26.40625 40.65625 L 34.5625 48.84375 C 34.572825 48.85426 34.583242 48.864675 34.59375 48.875 C 35.688109 49.933529 37.244424 50.003065 38.4375 49.09375 C 38.448008 49.083427 38.458425 49.073008 38.46875 49.0625 L 54.3125 36.40625 L 55.3125 74.59375 C 55.319633 76.084319 55.500393 77.522997 57.21875 77.53125 L 68.5625 77.53125 C 70.279853 77.523029 71.491782 76.311095 71.5 74.59375 L 72.5 36.40625 L 88.34375 49.0625 C 88.354075 49.07301 88.364492 49.083425 88.375 49.09375 C 89.446736 49.910588 91.218935 49.811821 92.1875 48.875 C 92.198008 48.864677 92.208425 48.854258 92.21875 48.84375 L 100.46875 40.625 C 101.15606 39.976349 101.31251 39.23812 101.3125 38.53125 C 101.3125 37.824378 101.09357 37.054917 100.40625 36.40625 L 65.40625 3.96875 C 64.973706 3.5572792 64.408622 3.3135174 63.8125 3.28125 C 63.537956 3.2172038 63.21617 3.1010615 62.6875 3.21875 z "
   inkscape:radius="-1.106757"
   sodipodi:type="inkscape:offset"
   inkscape:transform-center-x="121.96118"
   inkscape:transform-center-y="-13.637088" /><path
   style="fill:url(#linearGradient2773);fill-opacity:1;stroke:none"
   d="M 122.62902,46.281503 92.57173,78.217371 c -0.0724,0.07676 -0.17331,0.12026 -0.27885,0.12026 -0.10554,0 -0.20641,-0.0435 -0.27885,-0.12026 L 84.499707,70.70305 c -0.13176,-0.136222 -0.144233,-0.348269 -0.02935,-0.498999 L 99,52.034655 l -40.536245,0 c -0.210325,-10e-4 -0.380578,-0.171259 -0.381585,-0.381586 l 0,-11.271486 C 58.08317,40.171259 58.25343,40.001003 58.463755,40 L 99,40 84.470353,21.830604 c -0.114879,-0.150732 -0.102406,-0.362781 0.02935,-0.498994 l 7.514317,-7.514328 c 0.0724,-0.07675 0.17332,-0.120258 0.27886,-0.120258 0.10554,0 0.20641,0.04351 0.27885,0.120258 l 30.05729,31.935872 c 0.21583,0.152893 0,0.36819 0,0.528349 z"
   id="path2842"
   sodipodi:nodetypes="ccsccccccccccccsccc"
   inkscape:connector-curvature="0"
   inkscape:transform-center-x="122.19039"
   inkscape:transform-center-y="-13.629828" /><path
   style="fill:#ffffff;fill-opacity:1;stroke:none"
   d="m 122.71955,45.878363 c -0.0101,-0.04419 -0.0516,-0.102555 -0.10558,-0.140778 L 92.55804,13.816361 c -0.0724,-0.07676 -0.17601,-0.105586 -0.28156,-0.105586 -0.10554,0 -0.17391,0.02883 -0.24636,0.105586 l -2.30451,2.041269 28.12024,29.879955 c 0.21582,0.152893 0,0.367755 0,0.527915 l -28.12024,29.915151 2.30451,2.041269 c 0.0725,0.07675 0.14083,0.10558 0.24636,0.105583 0.10555,0 0.20912,-0.02883 0.28156,-0.105583 L 122.61397,46.2655 c 0,-0.12012 0.13593,-0.254575 0.10558,-0.387137 z"
   id="path2861"
   sodipodi:nodetypes="cccsccccccsccc"
   inkscape:connector-curvature="0"
   inkscape:transform-center-x="106.36916"
   inkscape:transform-center-y="-13.628016" /></svg>