<?xml version="1.0" encoding="UTF-8" standalone="no"?>
<!-- Created with Inkscape (http://www.inkscape.org/) -->

<svg
   xmlns:dc="http://purl.org/dc/elements/1.1/"
   xmlns:cc="http://creativecommons.org/ns#"
   xmlns:rdf="http://www.w3.org/1999/02/22-rdf-syntax-ns#"
   xmlns:svg="http://www.w3.org/2000/svg"
   xmlns="http://www.w3.org/2000/svg"
   xmlns:xlink="http://www.w3.org/1999/xlink"
   xmlns:sodipodi="http://sodipodi.sourceforge.net/DTD/sodipodi-0.dtd"
   xmlns:inkscape="http://www.inkscape.org/namespaces/inkscape"
   width="128"
   height="128"
   id="svg2606"
   sodipodi:version="0.32"
   inkscape:version="0.48.1 r9760"
   version="1.0"
   sodipodi:docname="edit-select-all.svgz"
   inkscape:output_extension="org.inkscape.output.svgz.inkscape"
   inkscape:export-filename="/home/pinheiro/pics/oxygen-icons/scalable/actions/small/48x48/edit-select-all.png"
   inkscape:export-xdpi="135"
   inkscape:export-ydpi="135">
  <defs
     id="defs2608">
    <linearGradient
       id="linearGradient6131">
      <stop
         id="stop6133"
         offset="0"
         style="stop-color:#fcfcfc;stop-opacity:1" />
      <stop
         style="stop-color:#f8f8f8;stop-opacity:1"
         offset="0.52275378"
         id="stop6135" />
      <stop
         id="stop6141"
         offset="0.77457333"
         style="stop-color:#f0efef;stop-opacity:1;" />
      <stop
         id="stop6139"
         offset="0.90122044"
         style="stop-color:#e3e1e1;stop-opacity:1;" />
      <stop
         id="stop6137"
         offset="1"
         style="stop-color:#cecbcb;stop-opacity:1" />
    </linearGradient>
    <linearGradient
       inkscape:collect="always"
       xlink:href="#linearGradient6131"
       id="linearGradient3893"
       gradientUnits="userSpaceOnUse"
       gradientTransform="matrix(1.0119858,0,0,1.0119858,-0.89554075,-0.9871566)"
       x1="86.73793"
       y1="93.621468"
       x2="95.460213"
       y2="102.34375" />
    <radialGradient
       inkscape:collect="always"
       xlink:href="#linearGradient3913-5"
       id="radialGradient3919-5"
       cx="90.75"
       cy="110.25299"
       fx="90.75"
       fy="110.25299"
       r="18.750002"
       gradientTransform="matrix(1.3067347,0,0,1.3067347,-27.83617,-33.818441)"
       gradientUnits="userSpaceOnUse" />
    <linearGradient
       inkscape:collect="always"
       id="linearGradient3913-5">
      <stop
         style="stop-color:#ffffff;stop-opacity:1;"
         offset="0"
         id="stop3915-4" />
      <stop
         style="stop-color:#ffffff;stop-opacity:0;"
         offset="1"
         id="stop3917-7" />
    </linearGradient>
    <clipPath
       clipPathUnits="userSpaceOnUse"
       id="clipPath3889-6">
      <path
         sodipodi:nodetypes="cscscssc"
         inkscape:connector-curvature="0"
         id="path3891-5"
         d="m 112,82.502986 c 0,4.465301 -2.79749,6.409952 -5.27972,8.093625 -5.10854,3.46508 -14.939114,3.32536 -20.720284,3.40638 -0.081,5.781159 0.16586,15.504599 -3.29922,20.613139 -1.68367,2.48224 -5.29051,5.38687 -8.20078,5.38687 2.31803,0 4.74284,-1.33476 7.58402,-4.08481 9.14197,-8.84873 17.36714,-16.13535 25.673154,-25.297529 C 109.67612,88.503916 112,86.97878 112,82.502986 z"
         style="fill:url(#linearGradient3893);fill-opacity:1;stroke:none" />
    </clipPath>
    <filter
       color-interpolation-filters="sRGB"
       inkscape:collect="always"
       id="filter3909-6">
      <feGaussianBlur
         inkscape:collect="always"
         stdDeviation="0.43040059"
         id="feGaussianBlur3911-9" />
    </filter>
    <linearGradient
       inkscape:collect="always"
       xlink:href="#linearGradient3897-7"
       id="linearGradient3895-3"
       gradientUnits="userSpaceOnUse"
       gradientTransform="matrix(1.3459172,0,0,1.3459172,-38.154591,-38.469319)"
       x1="86.73793"
       y1="93.621468"
       x2="95.18235"
       y2="102.06589" />
    <linearGradient
       id="linearGradient3897-7">
      <stop
         style="stop-color:#fcfcfc;stop-opacity:1"
         offset="0"
         id="stop3899-4" />
      <stop
         id="stop3901-5"
         offset="0.52275378"
         style="stop-color:#f8f8f8;stop-opacity:1" />
      <stop
         style="stop-color:#f0efef;stop-opacity:1;"
         offset="0.72337759"
         id="stop3903-2" />
      <stop
         style="stop-color:#e3e1e1;stop-opacity:1;"
         offset="0.89024991"
         id="stop3905-5" />
      <stop
         style="stop-color:#cecbcb;stop-opacity:1"
         offset="1"
         id="stop3907-4" />
    </linearGradient>
    <clipPath
       clipPathUnits="userSpaceOnUse"
       id="clipPath6093-7">
      <path
         inkscape:connector-curvature="0"
         sodipodi:nodetypes="cccssccc"
         id="path6095-4"
         d="m 17.000001,8 0.782827,110 57.5,0 c 1.675283,0 3.119418,0.18058 4.9,-1.6 C 88.980763,107.60206 99.94047,96.548195 107.19904,89.224043 109.6396,86.761431 110,84.752873 110,82.5 L 110,8 z"
         style="fill:#ffffff;fill-opacity:1" />
    </clipPath>
    <filter
       color-interpolation-filters="sRGB"
       inkscape:collect="always"
       id="filter6118-4"
       x="-0.1126375"
       width="1.225275"
       y="-0.12064722"
       height="1.2412944">
      <feGaussianBlur
         inkscape:collect="always"
         stdDeviation="2.3860572"
         id="feGaussianBlur6120-3" />
    </filter>
    <radialGradient
       inkscape:collect="always"
       xlink:href="#linearGradient5982-7"
       id="radialGradient5988-0"
       cx="64"
       cy="64.004021"
       fx="63.793392"
       fy="47.274845"
       r="47.5"
       gradientTransform="matrix(1.6842105,-0.08429519,0.06886339,1.3758846,-48.197001,-18.66323)"
       gradientUnits="userSpaceOnUse" />
    <linearGradient
       inkscape:collect="always"
       id="linearGradient5982-7">
      <stop
         style="stop-color:#ffffff;stop-opacity:1;"
         offset="0"
         id="stop5984-8" />
      <stop
         style="stop-color:#ffffff;stop-opacity:0;"
         offset="1"
         id="stop5986-6" />
    </linearGradient>
    <filter
       color-interpolation-filters="sRGB"
       inkscape:collect="always"
       id="filter6171-8"
       x="-0.47870937"
       width="1.9574188"
       y="-0.51275069"
       height="2.0255013">
      <feGaussianBlur
         inkscape:collect="always"
         stdDeviation="10.140743"
         id="feGaussianBlur6173-8" />
    </filter>
    <linearGradient
       inkscape:collect="always"
       xlink:href="#linearGradient4518-3"
       id="linearGradient4524-4"
       x1="72"
       y1="0"
       x2="72"
       y2="116.40091"
       gradientUnits="userSpaceOnUse"
       gradientTransform="translate(3.9208985e-7,2.7836914e-6)" />
    <linearGradient
       id="linearGradient4518-3">
      <stop
         style="stop-color:#eeecec;stop-opacity:1"
         offset="0"
         id="stop4520-1" />
      <stop
         id="stop5969-4"
         offset="0.40000001"
         style="stop-color:#f4f4f4;stop-opacity:1" />
      <stop
         style="stop-color:#f6f5f5;stop-opacity:1"
         offset="1"
         id="stop4522-9" />
    </linearGradient>
    <filter
       inkscape:collect="always"
       id="filter4111">
      <feGaussianBlur
         inkscape:collect="always"
         stdDeviation="1.5615"
         id="feGaussianBlur4113" />
    </filter>
    <filter
       inkscape:collect="always"
       id="filter4123">
      <feGaussianBlur
         inkscape:collect="always"
         stdDeviation="2.028"
         id="feGaussianBlur4125" />
    </filter>
  </defs>
  <sodipodi:namedview
     id="base"
     pagecolor="#ffffff"
     bordercolor="#666666"
     borderopacity="1.0"
     inkscape:pageopacity="0.0"
     inkscape:pageshadow="2"
     inkscape:zoom="2.8284271"
     inkscape:cx="-16.955723"
     inkscape:cy="74.371604"
     inkscape:document-units="px"
     inkscape:current-layer="layer1"
     width="128px"
     height="128px"
     showgrid="true"
     inkscape:grid-points="true"
     showguides="true"
     inkscape:guide-bbox="true"
     inkscape:window-width="1224"
     inkscape:window-height="757"
     inkscape:window-x="0"
     inkscape:window-y="383"
     inkscape:snap-global="true"
     inkscape:window-maximized="0"
     inkscape:snap-page="true">
    <inkscape:grid
       id="GridFromPre046Settings"
       type="xygrid"
       originx="0px"
       originy="0px"
       spacingx="2.6666px"
       spacingy="2.6666px"
       color="#0000ff"
       empcolor="#0000ff"
       opacity="0.2"
       empopacity="0.4"
       empspacing="2"
       visible="true"
       enabled="true"
       snapvisiblegridlinesonly="true" />
    <sodipodi:guide
       orientation="1,0"
       position="-121.62237,135.0574"
       id="guide3859" />
    <sodipodi:guide
       orientation="0,1"
       position="38.581514,-74.688154"
       id="guide4360" />
  </sodipodi:namedview>
  <metadata
     id="metadata2611">
    <rdf:RDF>
      <cc:Work
         rdf:about="">
        <dc:format>image/svg+xml</dc:format>
        <dc:type
           rdf:resource="http://purl.org/dc/dcmitype/StillImage" />
        <dc:title></dc:title>
      </cc:Work>
    </rdf:RDF>
  </metadata>
  <g
     inkscape:label="Livello 1"
     inkscape:groupmode="layer"
     id="layer1">
    <path
       style="opacity:0.45606695;fill:#000000;fill-opacity:1;filter:url(#filter4123)"
       d="m 13.333,5.3364 0,117.8304 49.8545,0.4332 c 2.115476,0.0184 4.528919,-1.77169 7,-4.25 0.71234,-0.71442 1.440746,-1.39395 2.15625,-2.09375 0.415612,-0.40649 0.832187,-0.81443 1.25,-1.21875 7.773958,-7.40962 26.98341,-25.122599 34.21875,-33.099999 0.42065,-0.42064 0.81207,-0.8111 1.15625,-1.1875 1.46444,-1.49766 2.76158,-2.8378 2.99375,-5.8625 L 112,75.156251 111.9972,5.3364 z"
       id="path5990"
       inkscape:connector-curvature="0"
       sodipodi:nodetypes="ccsssccccccc" />
    <path
       sodipodi:nodetypes="cccccccc"
       id="path3722"
       d="m 13.333,5.3364 0,118.3304 49.3318,0.3 c 1.527964,0 3.65713,-0.98408 6.387944,-2.83388 C 82.175824,111.57445 97.49744,91.890146 108.75009,80.500071 110.49334,78.756821 112,77.462561 112,73.300001 L 111.9972,5.3364 z"
       style="fill:#000000;fill-opacity:0.84716159;filter:url(#filter4111)"
       inkscape:connector-curvature="0" />
    <path
       style="fill:#ffffff;fill-opacity:1"
       d="m 13.333,5.3364 0,117.3304 49.3318,0 c 1.675283,0 3.914297,-0.56468 7,-3.6 8.870045,-8.72523 32.07567,-31.518599 39.33424,-38.842759 C 111.4396,77.761431 112,75.752871 112,73.500001 L 111.9972,5.3364 z"
       id="path34"
       sodipodi:nodetypes="cccssccc"
       inkscape:connector-curvature="0" />
    <path
       style="fill:url(#linearGradient4524-4);fill-opacity:1"
       d="m 16.5,8.000003 c -0.339844,0 -0.5,0.234618 -0.5,0.5 l 0,109.968747 c 0,0.82158 0.679323,1.5 1.5,1.5 l 48.6875,0 c 0.05308,0 0.810384,0.0234 1.5,0.0313 1.777664,-0.0401 3.131974,-0.75374 4.356035,-1.59328 1.051866,-0.29103 25.980435,-26.619589 35.101555,-35.809239 1.36239,-1.37262 2.18546,-3.94817 2.18546,-4.89561 l 5e-5,-69.201918 c 0,-0.322717 -0.16322,-0.5 -0.5,-0.5 z"
       id="path3967"
       inkscape:connector-curvature="0"
       sodipodi:nodetypes="ccsssccscccc" />
    <path
       sodipodi:nodetypes="ccssscccccc"
       inkscape:connector-curvature="0"
       id="path5980"
       d="m 16.5,8.000003 c -0.339844,0 -0.5,0.234618 -0.5,0.5 l 0,109.968747 c 0,0.82158 0.679323,1.49946 1.5,1.5 l 47.5,0.0313 c 0.05308,3e-5 3.273884,-0.008 3.9635,5e-5 6.540972,-4.50366 29.9679,-28.953329 38.91313,-37.955139 1.47685,-1.65649 0.4576,-0.37007 1.45391,-1.60746 l 6e-5,-71.937498 c 0,-0.322717 -0.16322,-0.5 -0.5,-0.5 z"
       style="opacity:0.84653476;fill:url(#radialGradient5988-0);fill-opacity:1" />
    <path
       style="fill:#000000"
       d=""
       id="path2197" />
    <path
       clip-path="url(#clipPath6093-7)"
       style="opacity:0.34728035;fill:#000000;fill-opacity:1;stroke:none;filter:url(#filter6171-8)"
       d="m 114.4,82.502986 c 0,4.465301 -4.99749,5.909952 -7.47972,7.593625 -5.10854,3.46508 -18.362065,-1.446073 -24.143235,-1.365053 -0.081,5.781159 3.371639,20.976032 -0.09344,26.084572 -1.68367,2.48224 -5.573338,8.68687 -8.483608,8.68687 -2.091359,1.5337 3.488204,8.21101 6.734971,5.31989 9.501888,-8.46107 35.131683,-30.022704 43.350823,-39.262889 2.04044,-2.29392 -4.90514,-9.844666 -9.88579,-7.057015 z"
       id="path6153"
       inkscape:connector-curvature="0"
       sodipodi:nodetypes="cscscssc"
       transform="matrix(1.2774204,0,0,1.2774204,-31.076286,-28.013102)" />
    <rect
       style="fill:#5fbaff;fill-opacity:1;stroke:none"
       id="rect6682"
       width="53.333599"
       height="10.6664"
       x="26.6644"
       y="13.3362" />
    <rect
       style="fill:#5fbaff;fill-opacity:1;stroke:none"
       id="rect7659"
       width="58.665199"
       height="10.666401"
       x="26.666"
       y="74.667999" />
    <rect
       y="26.669201"
       x="26.666"
       height="10.666399"
       width="61.331799"
       id="rect7653"
       style="fill:#5fbaff;fill-opacity:1;stroke:none" />
    <rect
       style="fill:#5fbaff;fill-opacity:1;stroke:none"
       id="rect7655"
       width="63.998409"
       height="10.667584"
       x="26.666"
       y="53.335201" />
    <rect
       y="40.002796"
       x="26.6644"
       height="10.665804"
       width="53.333599"
       id="rect7657"
       style="opacity:1;fill:#5fbaff;fill-opacity:1;stroke:none" />
    <path
       inkscape:connector-curvature="0"
       style="fill:#5fbaff;fill-opacity:1;stroke:none"
       d="m 26.664397,88.001 60,0 0,3.335201 -7.5,7.331199 -52.5,0 z"
       id="rect7661"
       sodipodi:nodetypes="cccccc" />
    <path
       d="m 30.640398,20.500197 c -0.075,0.225 -0.164,0.389 -0.267,0.492 -0.103,0.103 -0.362,0.191 -0.778,0.269 -0.416,0.076 -0.854,0.114 -1.317,0.114 -0.728,0 -1.091,-0.248 -1.091,-0.745 0,-0.14 0.039,-0.402 0.116,-0.79 l 0.669,-3.356 c 0.039,-0.194 0.059,-0.333 0.059,-0.417 0,-0.078 -0.028,-0.149 -0.085,-0.216 0.306,-0.114 0.518,-0.171 0.637,-0.171 0.143,0 0.214,0.081 0.214,0.243 0,0.041 -0.038,0.241 -0.113,0.602 l -0.6,3 c -0.087,0.431 -0.131,0.731 -0.131,0.899 0,0.285 0.315,0.428 0.947,0.428 0.563,0 1.143,-0.117 1.74,-0.352 z"
       id="path9570"
       style="fill:#ffffff;fill-opacity:1"
       inkscape:connector-curvature="0" />
    <path
       d="m 34.933398,18.735197 c 0.006,0.055 0.01,0.104 0.01,0.146 0,0.658 -0.224,1.231 -0.67,1.721 -0.446,0.49 -0.969,0.734 -1.568,0.734 -0.457,0 -0.83,-0.146 -1.119,-0.438 -0.287,-0.292 -0.432,-0.672 -0.432,-1.138 0,-0.531 0.187,-0.99 0.56,-1.379 0.372,-0.39 0.812,-0.584 1.318,-0.584 0.077,0 0.16,0.01 0.246,0.03 -0.057,-0.103 -0.085,-0.19 -0.085,-0.261 0,-0.11 0.037,-0.216 0.112,-0.316 0.556,0.046 1.017,0.331 1.386,0.855 0.379,0.258 0.773,0.387 1.184,0.387 0.268,0 0.556,-0.09 0.866,-0.271 l 0.171,0.291 c -0.363,0.252 -0.735,0.378 -1.116,0.378 -0.253,10e-4 -0.541,-0.052 -0.863,-0.155 z m -0.774,-0.29 c -0.188,-0.058 -0.363,-0.148 -0.522,-0.274 -0.115,-0.023 -0.212,-0.036 -0.289,-0.037 -0.386,0.001 -0.729,0.175 -1.026,0.522 -0.297,0.347 -0.447,0.744 -0.448,1.189 0.001,0.323 0.092,0.589 0.271,0.796 0.179,0.207 0.412,0.312 0.696,0.312 0.384,-10e-4 0.714,-0.195 0.991,-0.582 0.276,-0.387 0.415,-0.849 0.416,-1.385 -0.001,-0.186 -0.03,-0.367 -0.089,-0.541 z"
       id="path9577"
       style="fill:#ffffff;fill-opacity:1"
       inkscape:connector-curvature="0" />
    <path
       d="m 36.797398,21.227197 c -0.155,0.072 -0.28,0.109 -0.373,0.109 -0.233,0 -0.35,-0.103 -0.35,-0.308 0,-0.105 0.041,-0.366 0.123,-0.784 l 0.172,-0.852 c 0.105,-0.506 0.158,-0.881 0.158,-1.125 0,-0.133 -0.038,-0.243 -0.113,-0.332 0.242,-0.082 0.438,-0.123 0.59,-0.123 0.162,0 0.242,0.102 0.242,0.305 0,0.125 -0.059,0.455 -0.174,0.988 l -0.199,0.995 c 0.431,-0.837 0.864,-1.487 1.301,-1.951 0.437,-0.464 0.833,-0.696 1.188,-0.696 0.126,0 0.233,0.036 0.325,0.107 0.091,0.072 0.137,0.159 0.137,0.262 0,0.159 -0.173,0.371 -0.519,0.636 -0.087,-0.181 -0.21,-0.271 -0.369,-0.271 -0.29,0 -0.66,0.309 -1.109,0.924 -0.278,0.383 -0.521,0.779 -0.726,1.186 -0.206,0.408 -0.309,0.698 -0.309,0.871 l 0.005,0.059 z"
       id="path9584"
       style="fill:#ffffff;fill-opacity:1"
       inkscape:connector-curvature="0" />
    <path
       d="m 40.447398,19.826197 c 0,0.668 0.282,1.002 0.848,1.002 0.489,0 1.028,-0.233 1.618,-0.701 0.59,-0.467 1.122,-1.082 1.596,-1.846 l 0.29,0.16 c -0.446,0.836 -1.027,1.526 -1.741,2.074 -0.714,0.547 -1.391,0.82 -2.031,0.82 -0.41,0 -0.734,-0.133 -0.972,-0.396 -0.238,-0.265 -0.357,-0.627 -0.357,-1.085 0,-0.661 0.216,-1.227 0.647,-1.696 0.433,-0.471 0.952,-0.705 1.562,-0.705 0.294,0 0.529,0.074 0.706,0.223 0.177,0.149 0.265,0.346 0.265,0.595 0,0.408 -0.245,0.77 -0.736,1.084 -0.493,0.315 -1.057,0.471 -1.695,0.471 z m 0.027,-0.328 c 0.477,-0.024 0.886,-0.161 1.227,-0.41 0.341,-0.248 0.512,-0.535 0.512,-0.861 0,-0.291 -0.13,-0.438 -0.391,-0.438 -0.31,0 -0.596,0.166 -0.858,0.499 -0.262,0.333 -0.426,0.737 -0.49,1.21 z"
       id="path9591"
       style="fill:#ffffff;fill-opacity:1"
       inkscape:connector-curvature="0" />
    <path
       d="m 44.983398,20.047197 c 0.823,-1.729 1.551,-2.594 2.182,-2.594 0.276,0 0.415,0.199 0.415,0.598 0,0.17 -0.061,0.555 -0.183,1.153 l -0.21,1.034 c 0.398,-0.838 0.813,-1.512 1.246,-2.021 0.433,-0.509 0.806,-0.764 1.12,-0.764 0.346,0 0.519,0.203 0.519,0.607 0,0.146 -0.051,0.48 -0.152,1.002 l -0.104,0.532 c -0.063,0.321 -0.095,0.56 -0.095,0.714 0,0.273 0.097,0.41 0.29,0.41 0.438,0 1.109,-0.812 2.017,-2.434 l 0.287,0.16 c -0.988,1.927 -1.852,2.891 -2.59,2.891 -0.472,0 -0.707,-0.308 -0.707,-0.923 0,-0.205 0.045,-0.534 0.134,-0.988 l 0.093,-0.472 c 0.062,-0.319 0.094,-0.518 0.094,-0.596 0,-0.098 -0.05,-0.146 -0.15,-0.146 -0.246,0 -0.687,0.488 -1.321,1.467 -0.576,0.891 -0.864,1.4 -0.864,1.527 0,0.014 0.005,0.038 0.014,0.072 -0.031,0.006 -0.088,0.021 -0.167,0.043 -0.034,0.01 -0.086,0.016 -0.153,0.016 -0.213,0 -0.318,-0.102 -0.318,-0.304 0,-0.062 0.034,-0.247 0.104,-0.557 0.025,-0.111 0.051,-0.23 0.076,-0.358 l 0.146,-0.724 c 0.106,-0.521 0.159,-0.833 0.159,-0.938 0,-0.152 -0.056,-0.229 -0.168,-0.229 -0.246,0 -0.607,0.44 -1.086,1.322 -0.477,0.874 -0.715,1.396 -0.715,1.564 0,0.048 0.018,0.094 0.054,0.14 -0.126,0.056 -0.241,0.083 -0.346,0.083 -0.237,0 -0.356,-0.127 -0.356,-0.383 0,-0.031 0.033,-0.363 0.101,-0.994 l 0.078,-0.728 c 0.026,-0.255 0.04,-0.49 0.04,-0.707 0,-0.272 -0.055,-0.474 -0.165,-0.601 0.264,-0.096 0.45,-0.143 0.56,-0.143 0.2,0 0.301,0.118 0.301,0.354 0,0.084 -0.027,0.396 -0.081,0.937 l -0.099,0.978 z"
       id="path9598"
       style="fill:#ffffff;fill-opacity:1"
       inkscape:connector-curvature="0" />
    <path
       d="m 57.777398,18.453197 c -0.515,0.902 -1.035,1.609 -1.561,2.118 -0.526,0.51 -0.998,0.765 -1.417,0.765 -0.255,0 -0.461,-0.083 -0.616,-0.25 -0.156,-0.166 -0.234,-0.385 -0.234,-0.656 0,-0.103 0.022,-0.266 0.068,-0.489 l 0.076,-0.376 c 0.111,-0.543 0.168,-0.924 0.168,-1.143 0,-0.13 -0.039,-0.236 -0.117,-0.318 0.297,-0.068 0.483,-0.102 0.559,-0.102 0.169,0 0.254,0.118 0.254,0.355 0,0.175 -0.033,0.427 -0.101,0.755 l -0.135,0.667 c -0.067,0.32 -0.101,0.529 -0.101,0.625 0,0.283 0.119,0.424 0.358,0.424 0.285,0 0.664,-0.24 1.138,-0.72 0.474,-0.48 0.933,-1.087 1.377,-1.823 l 0.284,0.168 z m -3.038,-1.722 0.048,0.003 c 0.152,-0.007 0.371,-0.083 0.658,-0.23 0.285,-0.146 0.51,-0.296 0.671,-0.448 -0.1,0.314 -0.278,0.577 -0.533,0.789 -0.388,0.322 -0.65,0.484 -0.787,0.484 -0.091,0 -0.137,-0.056 -0.137,-0.168 0,-0.16 0.026,-0.303 0.08,-0.43 z"
       id="path9605"
       style="fill:#ffffff;fill-opacity:1"
       inkscape:connector-curvature="0" />
    <path
       d="m 57.484398,21.039197 -0.252,1.263 c -0.058,0.284 -0.086,0.532 -0.086,0.744 0,0.134 0.03,0.256 0.09,0.364 -0.229,0.076 -0.405,0.113 -0.525,0.113 -0.188,0 -0.283,-0.107 -0.283,-0.32 0,-0.167 0.038,-0.438 0.113,-0.816 l 1.004,-5.012 c -0.199,0.042 -0.366,0.062 -0.502,0.062 -0.199,0 -0.347,-0.048 -0.441,-0.144 -0.095,-0.095 -0.171,-0.272 -0.229,-0.533 0.167,0.112 0.421,0.169 0.762,0.169 0.424,0 0.831,-0.078 1.223,-0.234 l -0.266,1.318 c 0.387,-0.373 0.787,-0.561 1.202,-0.561 0.361,0 0.663,0.138 0.904,0.412 0.241,0.275 0.362,0.617 0.362,1.027 0,0.642 -0.223,1.194 -0.667,1.66 -0.445,0.465 -0.973,0.697 -1.584,0.697 -0.331,0.002 -0.606,-0.068 -0.825,-0.209 z m 0.108,-0.529 c 0.23,0.27 0.514,0.404 0.849,0.404 0.401,0 0.743,-0.169 1.025,-0.507 0.282,-0.338 0.423,-0.749 0.423,-1.232 0,-0.35 -0.08,-0.633 -0.239,-0.85 -0.159,-0.217 -0.367,-0.325 -0.622,-0.325 -0.319,0 -0.665,0.181 -1.039,0.541 l -0.397,1.969 z"
       id="path9612"
       style="fill:#ffffff;fill-opacity:1"
       inkscape:connector-curvature="0" />
    <path
       d="m 63.145398,20.049197 c 0.077,0.174 0.116,0.339 0.116,0.496 0,0.349 -0.146,0.652 -0.437,0.911 -0.291,0.259 -0.633,0.388 -1.023,0.388 -0.229,0 -0.426,-0.06 -0.587,-0.178 -0.161,-0.119 -0.242,-0.261 -0.242,-0.428 0,-0.178 0.11,-0.357 0.332,-0.539 0.222,-0.183 0.593,-0.398 1.112,-0.65 l -0.273,-0.441 c -0.333,-0.535 -0.499,-0.954 -0.499,-1.256 0,-0.434 0.252,-0.782 0.756,-1.047 0.31,0.119 0.465,0.268 0.465,0.448 0,0.256 -0.196,0.501 -0.588,0.735 l 0.388,0.719 0.303,0.555 c 0.436,-0.26 0.765,-0.482 0.985,-0.669 0.222,-0.186 0.502,-0.473 0.84,-0.86 l 0.273,0.168 c -0.491,0.656 -1.131,1.207 -1.921,1.648 z m -0.581,0.309 c -0.666,0.36 -0.998,0.641 -0.998,0.838 0,0.188 0.135,0.281 0.404,0.281 0.2,0 0.362,-0.068 0.486,-0.203 0.125,-0.137 0.188,-0.312 0.188,-0.525 0,-0.129 -0.027,-0.259 -0.08,-0.391 z"
       id="path9619"
       style="fill:#ffffff;fill-opacity:1"
       inkscape:connector-curvature="0" />
    <path
       d="m 67.216398,19.140197 c -0.314,0.651 -0.666,1.181 -1.053,1.587 -0.388,0.406 -0.735,0.609 -1.043,0.609 -0.249,0 -0.45,-0.088 -0.605,-0.264 -0.155,-0.175 -0.232,-0.402 -0.232,-0.684 0,-0.359 0.12,-1.021 0.362,-1.982 0.065,-0.26 0.099,-0.424 0.099,-0.492 0,-0.068 -0.021,-0.143 -0.064,-0.223 l 0.476,-0.003 c 0.205,0 0.308,0.078 0.308,0.235 0,0.098 -0.067,0.379 -0.2,0.843 -0.042,0.139 -0.068,0.234 -0.08,0.286 l -0.052,0.209 c -0.102,0.416 -0.152,0.733 -0.152,0.952 0,0.337 0.116,0.505 0.349,0.505 0.381,0 0.863,-0.471 1.449,-1.412 0.479,-0.768 0.718,-1.313 0.718,-1.639 0,-0.045 -0.014,-0.091 -0.041,-0.137 0.187,-0.052 0.345,-0.078 0.475,-0.078 0.2,0 0.301,0.062 0.301,0.184 0,0.029 -0.009,0.073 -0.027,0.13 -0.01,0.034 -0.031,0.117 -0.065,0.249 -0.005,0.025 -0.027,0.117 -0.069,0.275 -0.029,0.111 -0.052,0.2 -0.065,0.266 l -0.034,0.164 c -0.075,0.375 -0.113,0.727 -0.113,1.053 0,0.5 0.121,0.75 0.362,0.75 0.533,0 1.21,-0.75 2.03,-2.249 l 0.287,0.171 c -0.934,1.797 -1.787,2.695 -2.562,2.695 -0.521,0 -0.782,-0.453 -0.782,-1.357 -0.005,-0.171 0.004,-0.385 0.023,-0.643 z"
       id="path9626"
       style="fill:#ffffff;fill-opacity:1"
       inkscape:connector-curvature="0" />
    <path
       d="m 70.722398,20.047197 c 0.823,-1.729 1.551,-2.594 2.182,-2.594 0.276,0 0.415,0.199 0.415,0.598 0,0.17 -0.061,0.555 -0.183,1.153 l -0.21,1.034 c 0.398,-0.838 0.813,-1.512 1.246,-2.021 0.433,-0.509 0.806,-0.764 1.12,-0.764 0.346,0 0.519,0.203 0.519,0.607 0,0.146 -0.051,0.48 -0.152,1.002 l -0.104,0.532 c -0.063,0.321 -0.095,0.56 -0.095,0.714 0,0.273 0.097,0.41 0.29,0.41 0.438,0 1.109,-0.812 2.017,-2.434 l 0.287,0.16 c -0.988,1.927 -1.852,2.891 -2.59,2.891 -0.472,0 -0.707,-0.308 -0.707,-0.923 0,-0.205 0.045,-0.534 0.134,-0.988 l 0.093,-0.472 c 0.062,-0.319 0.094,-0.518 0.094,-0.596 0,-0.098 -0.05,-0.146 -0.15,-0.146 -0.246,0 -0.687,0.488 -1.321,1.467 -0.576,0.891 -0.864,1.4 -0.864,1.527 0,0.014 0.005,0.038 0.014,0.072 -0.031,0.006 -0.088,0.021 -0.167,0.043 -0.034,0.01 -0.086,0.016 -0.153,0.016 -0.213,0 -0.318,-0.102 -0.318,-0.304 0,-0.062 0.034,-0.247 0.104,-0.557 0.025,-0.111 0.051,-0.23 0.076,-0.358 l 0.146,-0.724 c 0.106,-0.521 0.159,-0.833 0.159,-0.938 0,-0.152 -0.056,-0.229 -0.168,-0.229 -0.246,0 -0.607,0.44 -1.086,1.322 -0.477,0.874 -0.715,1.396 -0.715,1.564 0,0.048 0.018,0.094 0.054,0.14 -0.126,0.056 -0.241,0.083 -0.346,0.083 -0.237,0 -0.356,-0.127 -0.356,-0.383 0,-0.031 0.033,-0.363 0.101,-0.994 l 0.078,-0.728 c 0.026,-0.255 0.04,-0.49 0.04,-0.707 0,-0.272 -0.055,-0.474 -0.165,-0.601 0.264,-0.096 0.45,-0.143 0.56,-0.143 0.2,0 0.301,0.118 0.301,0.354 0,0.084 -0.027,0.396 -0.081,0.937 l -0.099,0.978 z"
       id="path9633"
       style="fill:#ffffff;fill-opacity:1"
       inkscape:connector-curvature="0" />
    <path
       d="m 29.883397,33.915797 c -0.355,0.641 -0.728,1.149 -1.116,1.524 -0.388,0.375 -0.735,0.562 -1.04,0.562 -0.244,0 -0.438,-0.106 -0.582,-0.32 -0.143,-0.213 -0.215,-0.498 -0.215,-0.856 0,-0.721 0.214,-1.352 0.643,-1.894 0.429,-0.541 0.927,-0.812 1.495,-0.812 0.339,0 0.71,0.108 1.111,0.326 l 0.368,-1.841 c -0.201,0.041 -0.368,0.062 -0.501,0.062 -0.202,0 -0.35,-0.047 -0.443,-0.142 -0.093,-0.095 -0.169,-0.271 -0.227,-0.53 0.165,0.109 0.417,0.164 0.759,0.164 0.423,0 0.831,-0.078 1.225,-0.234 l -0.748,3.748 c -0.085,0.419 -0.127,0.775 -0.127,1.07 0,0.392 0.111,0.588 0.334,0.588 0.219,0 0.582,-0.256 1.091,-0.77 0.509,-0.512 0.933,-1.049 1.271,-1.609 l 0.28,0.178 c -0.405,0.743 -0.912,1.408 -1.52,1.994 -0.608,0.586 -1.092,0.879 -1.454,0.879 -0.46,0 -0.69,-0.369 -0.69,-1.108 0,-0.306 0.028,-0.632 0.086,-0.979 z m 0.181,-0.905 c -0.475,-0.312 -0.869,-0.469 -1.184,-0.469 -0.343,0 -0.639,0.209 -0.889,0.629 -0.25,0.419 -0.375,0.914 -0.375,1.486 0,0.459 0.15,0.689 0.452,0.689 0.323,0 0.946,-0.715 1.869,-2.145 0.017,-0.024 0.059,-0.088 0.127,-0.19 z"
       id="path9640"
       style="fill:#ffffff;fill-opacity:1"
       inkscape:connector-curvature="0" />
    <path
       d="m 36.174397,33.401797 c 0.006,0.055 0.01,0.104 0.01,0.146 0,0.658 -0.224,1.231 -0.67,1.721 -0.446,0.49 -0.969,0.734 -1.568,0.734 -0.457,0 -0.83,-0.146 -1.119,-0.438 -0.287,-0.292 -0.432,-0.672 -0.432,-1.138 0,-0.531 0.187,-0.99 0.56,-1.379 0.372,-0.39 0.812,-0.584 1.318,-0.584 0.077,0 0.16,0.01 0.246,0.03 -0.057,-0.103 -0.085,-0.19 -0.085,-0.261 0,-0.11 0.037,-0.216 0.112,-0.316 0.556,0.046 1.017,0.331 1.386,0.855 0.379,0.258 0.773,0.387 1.184,0.387 0.268,0 0.556,-0.09 0.866,-0.271 l 0.171,0.291 c -0.363,0.252 -0.735,0.378 -1.116,0.378 -0.254,10e-4 -0.542,-0.052 -0.863,-0.155 z m -0.775,-0.29 c -0.188,-0.058 -0.363,-0.148 -0.522,-0.274 -0.115,-0.023 -0.212,-0.036 -0.289,-0.037 -0.386,10e-4 -0.729,0.175 -1.026,0.522 -0.297,0.347 -0.447,0.744 -0.448,1.189 0.001,0.323 0.092,0.589 0.271,0.796 0.179,0.207 0.412,0.312 0.696,0.312 0.384,-10e-4 0.714,-0.195 0.991,-0.582 0.276,-0.387 0.415,-0.849 0.416,-1.385 -10e-4,-0.186 -0.03,-0.367 -0.089,-0.541 z"
       id="path9647"
       style="fill:#ffffff;fill-opacity:1"
       inkscape:connector-curvature="0" />
    <path
       d="m 40.994397,33.135797 c -0.472,0.895 -0.945,1.596 -1.422,2.104 -0.477,0.508 -0.897,0.763 -1.265,0.763 -0.267,0 -0.481,-0.104 -0.646,-0.309 -0.164,-0.207 -0.246,-0.477 -0.246,-0.809 0,-0.187 0.034,-0.451 0.103,-0.793 l 0.679,-3.423 c -0.089,0.014 -0.166,0.021 -0.231,0.021 -0.522,0 -0.784,-0.221 -0.784,-0.663 l 0,-0.079 c 0.273,0.156 0.582,0.234 0.926,0.234 0.344,0 0.645,-0.086 0.902,-0.258 l -0.793,4.119 c -0.07,0.369 -0.105,0.624 -0.105,0.764 0,0.385 0.141,0.578 0.424,0.578 0.273,0 0.548,-0.154 0.824,-0.463 0.277,-0.31 0.73,-0.968 1.361,-1.976 l 0.273,0.19 z"
       id="path9654"
       style="fill:#ffffff;fill-opacity:1"
       inkscape:connector-curvature="0" />
    <path
       d="m 43.711397,33.401797 c 0.006,0.055 0.01,0.104 0.01,0.146 0,0.658 -0.224,1.231 -0.67,1.721 -0.446,0.49 -0.969,0.734 -1.568,0.734 -0.457,0 -0.83,-0.146 -1.119,-0.438 -0.287,-0.292 -0.432,-0.672 -0.432,-1.138 0,-0.531 0.187,-0.99 0.56,-1.379 0.372,-0.39 0.812,-0.584 1.318,-0.584 0.077,0 0.16,0.01 0.246,0.03 -0.057,-0.103 -0.085,-0.19 -0.085,-0.261 0,-0.11 0.037,-0.216 0.112,-0.316 0.556,0.046 1.017,0.331 1.386,0.855 0.379,0.258 0.773,0.387 1.184,0.387 0.268,0 0.556,-0.09 0.866,-0.271 l 0.171,0.291 c -0.363,0.252 -0.735,0.378 -1.116,0.378 -0.254,10e-4 -0.542,-0.052 -0.863,-0.155 z m -0.775,-0.29 c -0.188,-0.058 -0.363,-0.148 -0.522,-0.274 -0.115,-0.023 -0.212,-0.036 -0.289,-0.037 -0.386,10e-4 -0.729,0.175 -1.026,0.522 -0.297,0.347 -0.447,0.744 -0.448,1.189 10e-4,0.323 0.092,0.589 0.271,0.796 0.179,0.207 0.412,0.312 0.696,0.312 0.384,-10e-4 0.714,-0.195 0.991,-0.582 0.276,-0.387 0.415,-0.849 0.416,-1.385 -10e-4,-0.186 -0.03,-0.367 -0.089,-0.541 z"
       id="path9661"
       style="fill:#ffffff;fill-opacity:1"
       inkscape:connector-curvature="0" />
    <path
       d="m 45.574397,35.893797 c -0.155,0.072 -0.28,0.109 -0.373,0.109 -0.233,0 -0.35,-0.103 -0.35,-0.308 0,-0.105 0.041,-0.366 0.123,-0.784 l 0.172,-0.852 c 0.105,-0.506 0.158,-0.881 0.158,-1.125 0,-0.133 -0.038,-0.243 -0.113,-0.332 0.242,-0.082 0.438,-0.123 0.59,-0.123 0.162,0 0.242,0.102 0.242,0.305 0,0.125 -0.059,0.455 -0.174,0.988 l -0.199,0.995 c 0.431,-0.837 0.864,-1.487 1.301,-1.951 0.437,-0.464 0.833,-0.696 1.188,-0.696 0.126,0 0.233,0.036 0.325,0.107 0.091,0.072 0.137,0.159 0.137,0.262 0,0.159 -0.173,0.371 -0.519,0.636 -0.087,-0.181 -0.21,-0.271 -0.369,-0.271 -0.29,0 -0.66,0.309 -1.109,0.924 -0.278,0.383 -0.521,0.779 -0.726,1.186 -0.206,0.408 -0.309,0.698 -0.309,0.871 l 0.005,0.059 z"
       id="path9668"
       style="fill:#ffffff;fill-opacity:1"
       inkscape:connector-curvature="0" />
    <path
       d="m 52.923397,34.715797 c 0.077,0.174 0.116,0.339 0.116,0.496 0,0.349 -0.146,0.652 -0.437,0.911 -0.291,0.259 -0.633,0.388 -1.023,0.388 -0.229,0 -0.426,-0.06 -0.587,-0.178 -0.161,-0.119 -0.242,-0.261 -0.242,-0.428 0,-0.178 0.11,-0.357 0.332,-0.539 0.222,-0.183 0.593,-0.398 1.112,-0.65 l -0.273,-0.441 c -0.333,-0.535 -0.499,-0.954 -0.499,-1.256 0,-0.434 0.252,-0.782 0.756,-1.047 0.31,0.119 0.465,0.268 0.465,0.448 0,0.256 -0.196,0.501 -0.588,0.735 l 0.388,0.719 0.303,0.555 c 0.436,-0.26 0.765,-0.482 0.985,-0.669 0.222,-0.186 0.502,-0.473 0.84,-0.86 l 0.273,0.168 c -0.492,0.656 -1.131,1.207 -1.921,1.648 z m -0.581,0.309 c -0.666,0.36 -0.998,0.641 -0.998,0.838 0,0.188 0.135,0.281 0.404,0.281 0.2,0 0.362,-0.068 0.486,-0.203 0.125,-0.137 0.188,-0.312 0.188,-0.525 0,-0.129 -0.028,-0.259 -0.08,-0.391 z"
       id="path9675"
       style="fill:#ffffff;fill-opacity:1"
       inkscape:connector-curvature="0" />
    <path
       d="m 57.941397,33.119797 c -0.515,0.902 -1.035,1.609 -1.561,2.118 -0.526,0.51 -0.998,0.765 -1.417,0.765 -0.255,0 -0.461,-0.083 -0.616,-0.25 -0.156,-0.166 -0.234,-0.385 -0.234,-0.656 0,-0.103 0.022,-0.266 0.068,-0.489 l 0.076,-0.376 c 0.111,-0.543 0.168,-0.924 0.168,-1.143 0,-0.13 -0.039,-0.236 -0.117,-0.318 0.297,-0.068 0.483,-0.102 0.559,-0.102 0.169,0 0.254,0.118 0.254,0.355 0,0.175 -0.033,0.427 -0.101,0.755 l -0.135,0.667 c -0.067,0.32 -0.101,0.529 -0.101,0.625 0,0.283 0.119,0.424 0.358,0.424 0.285,0 0.664,-0.24 1.138,-0.72 0.474,-0.48 0.933,-1.087 1.377,-1.823 l 0.284,0.168 z m -3.038,-1.722 0.048,0.003 c 0.152,-0.007 0.371,-0.083 0.658,-0.23 0.285,-0.146 0.51,-0.296 0.671,-0.448 -0.1,0.314 -0.278,0.577 -0.533,0.789 -0.388,0.322 -0.65,0.484 -0.787,0.484 -0.091,0 -0.137,-0.056 -0.137,-0.168 0,-0.16 0.026,-0.303 0.08,-0.43 z"
       id="path9682"
       style="fill:#ffffff;fill-opacity:1"
       inkscape:connector-curvature="0" />
    <path
       d="m 59.583397,34.570797 c 0.062,0.111 0.092,0.209 0.092,0.292 0,0.223 -0.188,0.469 -0.565,0.737 -0.377,0.268 -0.72,0.403 -1.029,0.403 -0.273,0 -0.496,-0.122 -0.668,-0.365 -0.172,-0.244 -0.258,-0.559 -0.258,-0.943 0,-0.428 0.111,-1.037 0.334,-1.828 l 0.155,-0.574 -0.573,0 c -0.239,0 -0.43,0.034 -0.572,0.103 0.131,-0.238 0.239,-0.388 0.325,-0.448 0.086,-0.062 0.231,-0.092 0.437,-0.092 l 0.512,0 0.068,-0.238 c 0.105,-0.354 0.232,-0.596 0.379,-0.728 0.147,-0.132 0.367,-0.198 0.661,-0.198 0.034,0 0.089,0.002 0.165,0.007 -0.178,0.229 -0.363,0.615 -0.555,1.157 l 1.806,0 c 0.317,0 0.56,-0.041 0.726,-0.124 -0.057,0.232 -0.133,0.384 -0.228,0.455 -0.095,0.071 -0.271,0.106 -0.528,0.106 l -1.924,0 c -0.022,0.075 -0.04,0.131 -0.052,0.168 -0.278,0.941 -0.417,1.651 -0.417,2.131 0,0.53 0.19,0.795 0.572,0.795 0.196,0 0.41,-0.084 0.643,-0.25 0.23,-0.168 0.395,-0.357 0.494,-0.566 z"
       id="path9689"
       style="fill:#ffffff;fill-opacity:1"
       inkscape:connector-curvature="0" />
    <path
       d="m 65.371397,33.828797 c -0.292,0.604 -0.652,1.117 -1.081,1.54 -0.428,0.423 -0.801,0.634 -1.118,0.634 -0.242,0 -0.436,-0.107 -0.58,-0.323 -0.146,-0.216 -0.218,-0.503 -0.218,-0.86 0,-0.714 0.216,-1.342 0.648,-1.885 0.432,-0.543 0.934,-0.814 1.502,-0.814 0.345,0 0.718,0.107 1.119,0.322 0.06,-0.213 0.301,-0.318 0.724,-0.318 0.027,0 0.071,10e-4 0.133,0.003 -0.13,0.198 -0.229,0.47 -0.297,0.815 l -0.059,0.291 c -0.065,0.324 -0.099,0.703 -0.099,1.137 0,0.5 0.116,0.75 0.349,0.75 0.246,0 0.582,-0.206 1.009,-0.618 0.427,-0.411 0.847,-0.937 1.259,-1.573 l 0.267,0.186 c -0.421,0.753 -0.902,1.381 -1.444,1.884 -0.542,0.503 -1.007,0.755 -1.396,0.755 -0.491,0 -0.737,-0.41 -0.737,-1.232 -0.002,-0.173 0.005,-0.404 0.019,-0.694 z m 0.16,-0.818 c -0.48,-0.312 -0.879,-0.469 -1.197,-0.469 -0.346,0 -0.644,0.209 -0.896,0.627 -0.251,0.418 -0.377,0.914 -0.377,1.488 0,0.459 0.151,0.689 0.453,0.689 0.327,0 0.952,-0.715 1.876,-2.145 0.012,-0.016 0.059,-0.081 0.141,-0.19 z"
       id="path9696"
       style="fill:#ffffff;fill-opacity:1"
       inkscape:connector-curvature="0" />
    <path
       d="m 69.114397,34.713797 c 0.823,-1.729 1.551,-2.594 2.182,-2.594 0.276,0 0.415,0.199 0.415,0.598 0,0.17 -0.061,0.555 -0.183,1.153 l -0.21,1.034 c 0.398,-0.838 0.813,-1.512 1.246,-2.021 0.433,-0.509 0.806,-0.764 1.12,-0.764 0.346,0 0.519,0.203 0.519,0.607 0,0.146 -0.051,0.48 -0.152,1.002 l -0.104,0.532 c -0.063,0.321 -0.095,0.56 -0.095,0.714 0,0.273 0.097,0.41 0.29,0.41 0.438,0 1.109,-0.812 2.017,-2.434 l 0.287,0.16 c -0.988,1.927 -1.852,2.891 -2.59,2.891 -0.472,0 -0.707,-0.308 -0.707,-0.923 0,-0.205 0.045,-0.534 0.134,-0.988 l 0.093,-0.472 c 0.062,-0.319 0.094,-0.518 0.094,-0.596 0,-0.098 -0.05,-0.146 -0.15,-0.146 -0.246,0 -0.687,0.488 -1.321,1.467 -0.576,0.891 -0.864,1.4 -0.864,1.527 0,0.014 0.005,0.038 0.014,0.072 -0.031,0.006 -0.088,0.021 -0.167,0.043 -0.034,0.01 -0.086,0.016 -0.153,0.016 -0.213,0 -0.318,-0.102 -0.318,-0.304 0,-0.062 0.034,-0.247 0.104,-0.557 0.025,-0.111 0.051,-0.23 0.076,-0.358 l 0.146,-0.724 c 0.106,-0.521 0.159,-0.833 0.159,-0.938 0,-0.152 -0.056,-0.229 -0.168,-0.229 -0.246,0 -0.607,0.44 -1.086,1.322 -0.477,0.874 -0.715,1.396 -0.715,1.564 0,0.048 0.018,0.094 0.054,0.14 -0.126,0.056 -0.241,0.083 -0.346,0.083 -0.237,0 -0.356,-0.127 -0.356,-0.383 0,-0.031 0.033,-0.363 0.101,-0.994 l 0.078,-0.728 c 0.026,-0.255 0.04,-0.49 0.04,-0.707 0,-0.272 -0.055,-0.474 -0.165,-0.601 0.264,-0.096 0.45,-0.143 0.56,-0.143 0.2,0 0.301,0.118 0.301,0.354 0,0.084 -0.027,0.396 -0.081,0.937 l -0.099,0.978 z"
       id="path9703"
       style="fill:#ffffff;fill-opacity:1"
       inkscape:connector-curvature="0" />
    <path
       d="m 76.195397,34.492797 c 0,0.668 0.282,1.002 0.848,1.002 0.489,0 1.028,-0.233 1.618,-0.701 0.59,-0.467 1.122,-1.082 1.596,-1.846 l 0.29,0.16 c -0.446,0.836 -1.027,1.526 -1.741,2.074 -0.714,0.547 -1.391,0.82 -2.031,0.82 -0.41,0 -0.734,-0.133 -0.972,-0.396 -0.238,-0.265 -0.357,-0.627 -0.357,-1.085 0,-0.661 0.216,-1.227 0.647,-1.696 0.433,-0.471 0.952,-0.705 1.562,-0.705 0.294,0 0.529,0.074 0.706,0.223 0.177,0.149 0.265,0.346 0.265,0.595 0,0.408 -0.245,0.77 -0.736,1.084 -0.493,0.315 -1.057,0.471 -1.695,0.471 z m 0.027,-0.328 c 0.477,-0.024 0.886,-0.161 1.227,-0.41 0.341,-0.248 0.512,-0.535 0.512,-0.861 0,-0.291 -0.13,-0.438 -0.391,-0.438 -0.31,0 -0.596,0.166 -0.858,0.499 -0.262,0.333 -0.426,0.737 -0.49,1.21 z"
       id="path9710"
       style="fill:#ffffff;fill-opacity:1"
       inkscape:connector-curvature="0" />
    <path
       d="m 82.180397,34.570797 c 0.062,0.111 0.092,0.209 0.092,0.292 0,0.223 -0.188,0.469 -0.565,0.737 -0.377,0.268 -0.72,0.403 -1.029,0.403 -0.273,0 -0.496,-0.122 -0.668,-0.365 -0.172,-0.244 -0.258,-0.559 -0.258,-0.943 0,-0.428 0.111,-1.037 0.334,-1.828 l 0.155,-0.574 -0.573,0 c -0.239,0 -0.43,0.034 -0.572,0.103 0.131,-0.238 0.239,-0.388 0.325,-0.448 0.086,-0.062 0.231,-0.092 0.437,-0.092 l 0.512,0 0.069,-0.238 c 0.105,-0.354 0.231,-0.596 0.378,-0.728 0.147,-0.132 0.367,-0.198 0.661,-0.198 0.034,0 0.09,0.002 0.165,0.007 -0.178,0.229 -0.363,0.615 -0.555,1.157 l 1.806,0 c 0.317,0 0.559,-0.041 0.726,-0.124 -0.058,0.232 -0.133,0.384 -0.228,0.455 -0.095,0.071 -0.271,0.106 -0.529,0.106 l -1.923,0 c -0.022,0.075 -0.04,0.131 -0.052,0.168 -0.278,0.941 -0.417,1.651 -0.417,2.131 0,0.53 0.19,0.795 0.572,0.795 0.196,0 0.41,-0.084 0.643,-0.25 0.23,-0.168 0.395,-0.357 0.494,-0.566 z"
       id="path9717"
       style="fill:#ffffff;fill-opacity:1"
       inkscape:connector-curvature="0" />
    <path
       d="m 82.421397,36.635797 c 0.075,0.016 0.138,0.023 0.188,0.023 0.162,0 0.3,-0.069 0.414,-0.207 0.113,-0.139 0.171,-0.305 0.171,-0.498 0,-0.286 -0.142,-0.525 -0.425,-0.721 0.239,-0.164 0.454,-0.246 0.646,-0.246 0.316,0 0.475,0.184 0.475,0.551 0,0.352 -0.126,0.682 -0.378,0.992 -0.251,0.31 -0.52,0.465 -0.804,0.465 -0.159,0 -0.255,-0.12 -0.287,-0.359 z"
       id="path9724"
       style="fill:#ffffff;fill-opacity:1"
       inkscape:connector-curvature="0" />
    <path
       d="m 31.937397,45.125797 c -0.552,0.926 -1.136,1.655 -1.754,2.188 -0.617,0.533 -1.19,0.799 -1.719,0.799 -0.44,0 -0.797,-0.15 -1.07,-0.452 -0.273,-0.301 -0.41,-0.692 -0.41,-1.175 0,-0.634 0.235,-1.187 0.707,-1.658 0.472,-0.471 1.025,-0.707 1.661,-0.707 0.258,0 0.469,0.05 0.634,0.149 0.165,0.099 0.248,0.226 0.248,0.379 0,0.252 -0.212,0.44 -0.636,0.566 0.022,-0.055 0.034,-0.107 0.034,-0.157 0,-0.37 -0.196,-0.555 -0.59,-0.555 -0.34,0 -0.654,0.189 -0.941,0.57 -0.286,0.379 -0.43,0.795 -0.43,1.246 0,0.368 0.096,0.668 0.285,0.898 0.191,0.232 0.438,0.348 0.744,0.348 0.84,0 1.822,-0.87 2.949,-2.611 l 0.288,0.172 z"
       id="path9731"
       style="fill:#ffffff;fill-opacity:1"
       inkscape:connector-curvature="0" />
    <path
       d="m 34.652397,45.401797 c 0.008,0.055 0.011,0.104 0.011,0.146 0,0.658 -0.224,1.231 -0.67,1.721 -0.446,0.49 -0.969,0.734 -1.568,0.734 -0.458,0 -0.831,-0.146 -1.118,-0.438 -0.289,-0.292 -0.433,-0.672 -0.433,-1.138 0,-0.531 0.187,-0.99 0.56,-1.379 0.373,-0.39 0.812,-0.584 1.318,-0.584 0.078,0 0.16,0.01 0.246,0.03 -0.057,-0.103 -0.085,-0.19 -0.085,-0.261 0,-0.11 0.037,-0.216 0.112,-0.316 0.556,0.046 1.017,0.331 1.386,0.855 0.378,0.258 0.773,0.387 1.184,0.387 0.267,0 0.556,-0.09 0.866,-0.271 l 0.171,0.291 c -0.363,0.252 -0.735,0.378 -1.116,0.378 -0.254,10e-4 -0.542,-0.052 -0.864,-0.155 z m -0.773,-0.29 c -0.188,-0.058 -0.363,-0.148 -0.522,-0.274 -0.115,-0.023 -0.212,-0.036 -0.289,-0.037 -0.386,10e-4 -0.729,0.175 -1.026,0.522 -0.297,0.347 -0.447,0.744 -0.448,1.189 10e-4,0.323 0.091,0.589 0.271,0.796 0.18,0.207 0.412,0.312 0.696,0.312 0.384,-10e-4 0.714,-0.195 0.991,-0.582 0.276,-0.387 0.415,-0.849 0.416,-1.385 -0.001,-0.186 -0.031,-0.367 -0.089,-0.541 z"
       id="path9738"
       style="fill:#ffffff;fill-opacity:1"
       inkscape:connector-curvature="0" />
    <path
       d="m 36.816397,46.684797 c 0.812,-1.709 1.541,-2.564 2.188,-2.564 0.505,0 0.758,0.5 0.758,1.501 l 0.007,0.413 c 0,0.478 0.024,0.808 0.073,0.991 0.049,0.183 0.139,0.274 0.269,0.274 0.196,0 0.419,-0.155 0.669,-0.466 0.249,-0.31 0.655,-0.935 1.219,-1.872 l 0.287,0.166 c -0.502,0.945 -0.951,1.646 -1.349,2.104 -0.396,0.457 -0.753,0.686 -1.067,0.686 -0.29,0 -0.493,-0.14 -0.611,-0.42 -0.117,-0.279 -0.176,-0.764 -0.176,-1.453 l 0,-0.293 c 0,-0.373 -0.024,-0.636 -0.072,-0.787 -0.048,-0.15 -0.132,-0.227 -0.251,-0.227 -0.302,0 -0.789,0.6 -1.46,1.798 -0.165,0.294 -0.271,0.482 -0.319,0.566 -0.177,0.305 -0.265,0.525 -0.265,0.662 0,0.055 0.016,0.106 0.045,0.157 -0.131,0.055 -0.242,0.082 -0.334,0.082 -0.229,0 -0.344,-0.127 -0.344,-0.383 0,-0.072 0.03,-0.4 0.09,-0.983 l 0.077,-0.741 c 0.034,-0.314 0.052,-0.559 0.052,-0.731 0,-0.241 -0.056,-0.432 -0.167,-0.57 0.048,-0.017 0.128,-0.044 0.24,-0.084 0.142,-0.052 0.255,-0.077 0.339,-0.077 0.179,0 0.268,0.13 0.268,0.389 0,0.137 -0.018,0.371 -0.053,0.703 -0.007,0.072 -0.014,0.143 -0.021,0.208 l -0.092,0.951 z"
       id="path9745"
       style="fill:#ffffff;fill-opacity:1"
       inkscape:connector-curvature="0" />
    <path
       d="m 43.362397,46.715797 c 0.077,0.174 0.116,0.339 0.116,0.496 0,0.349 -0.146,0.652 -0.437,0.911 -0.291,0.259 -0.633,0.388 -1.023,0.388 -0.229,0 -0.426,-0.06 -0.587,-0.178 -0.161,-0.119 -0.242,-0.261 -0.242,-0.428 0,-0.178 0.11,-0.357 0.332,-0.539 0.222,-0.183 0.593,-0.398 1.112,-0.65 l -0.273,-0.441 c -0.333,-0.535 -0.499,-0.954 -0.499,-1.256 0,-0.434 0.252,-0.782 0.756,-1.047 0.31,0.119 0.465,0.268 0.465,0.448 0,0.256 -0.196,0.501 -0.588,0.735 l 0.388,0.719 0.303,0.555 c 0.436,-0.26 0.765,-0.482 0.985,-0.669 0.222,-0.186 0.502,-0.473 0.84,-0.86 l 0.273,0.168 c -0.491,0.656 -1.131,1.207 -1.921,1.648 z m -0.581,0.309 c -0.666,0.36 -0.998,0.641 -0.998,0.838 0,0.188 0.135,0.281 0.404,0.281 0.2,0 0.362,-0.068 0.486,-0.203 0.125,-0.137 0.188,-0.312 0.188,-0.525 0,-0.129 -0.027,-0.259 -0.08,-0.391 z"
       id="path9752"
       style="fill:#ffffff;fill-opacity:1"
       inkscape:connector-curvature="0" />
    <path
       d="m 45.030397,46.492797 c 0,0.668 0.282,1.002 0.847,1.002 0.49,0 1.029,-0.233 1.619,-0.701 0.59,-0.467 1.122,-1.082 1.596,-1.846 l 0.29,0.16 c -0.446,0.836 -1.026,1.526 -1.741,2.074 -0.714,0.547 -1.391,0.82 -2.031,0.82 -0.41,0 -0.734,-0.133 -0.972,-0.396 -0.238,-0.265 -0.357,-0.627 -0.357,-1.085 0,-0.661 0.216,-1.227 0.647,-1.696 0.433,-0.471 0.953,-0.705 1.562,-0.705 0.294,0 0.529,0.074 0.706,0.223 0.176,0.148 0.265,0.346 0.265,0.595 0,0.408 -0.245,0.77 -0.736,1.084 -0.493,0.315 -1.057,0.471 -1.695,0.471 z m 0.027,-0.328 c 0.477,-0.024 0.886,-0.161 1.227,-0.41 0.341,-0.248 0.512,-0.535 0.512,-0.861 0,-0.291 -0.13,-0.438 -0.39,-0.438 -0.311,0 -0.597,0.166 -0.859,0.499 -0.262,0.333 -0.426,0.737 -0.49,1.21 z"
       id="path9759"
       style="fill:#ffffff;fill-opacity:1"
       inkscape:connector-curvature="0" />
    <path
       d="m 53.375397,45.125797 c -0.552,0.926 -1.136,1.655 -1.754,2.188 -0.617,0.533 -1.19,0.799 -1.719,0.799 -0.44,0 -0.797,-0.15 -1.07,-0.452 -0.273,-0.301 -0.41,-0.692 -0.41,-1.175 0,-0.634 0.235,-1.187 0.707,-1.658 0.472,-0.471 1.025,-0.707 1.661,-0.707 0.258,0 0.469,0.05 0.634,0.149 0.165,0.099 0.248,0.226 0.248,0.379 0,0.252 -0.212,0.44 -0.636,0.566 0.022,-0.055 0.034,-0.107 0.034,-0.157 0,-0.37 -0.196,-0.555 -0.59,-0.555 -0.34,0 -0.654,0.189 -0.941,0.57 -0.286,0.379 -0.43,0.795 -0.43,1.246 0,0.368 0.096,0.668 0.285,0.898 0.191,0.232 0.438,0.348 0.744,0.348 0.84,0 1.822,-0.87 2.949,-2.611 l 0.288,0.172 z"
       id="path9766"
       style="fill:#ffffff;fill-opacity:1"
       inkscape:connector-curvature="0" />
    <path
       d="m 55.013397,46.570797 c 0.062,0.111 0.092,0.209 0.092,0.292 0,0.223 -0.188,0.469 -0.565,0.737 -0.377,0.268 -0.72,0.403 -1.029,0.403 -0.273,0 -0.496,-0.122 -0.668,-0.365 -0.172,-0.244 -0.258,-0.559 -0.258,-0.943 0,-0.428 0.111,-1.037 0.334,-1.828 l 0.155,-0.574 -0.573,0 c -0.239,0 -0.43,0.034 -0.572,0.103 0.131,-0.238 0.239,-0.388 0.325,-0.448 0.086,-0.062 0.231,-0.092 0.437,-0.092 l 0.512,0 0.069,-0.238 c 0.105,-0.354 0.231,-0.596 0.378,-0.728 0.147,-0.132 0.367,-0.198 0.661,-0.198 0.034,0 0.09,0.002 0.165,0.007 -0.178,0.229 -0.363,0.615 -0.555,1.157 l 1.806,0 c 0.317,0 0.559,-0.041 0.726,-0.124 -0.058,0.232 -0.133,0.384 -0.228,0.455 -0.095,0.071 -0.271,0.106 -0.529,0.106 l -1.923,0 c -0.022,0.075 -0.04,0.131 -0.052,0.168 -0.278,0.941 -0.417,1.651 -0.417,2.131 0,0.53 0.19,0.795 0.572,0.795 0.196,0 0.41,-0.084 0.643,-0.25 0.231,-0.168 0.396,-0.357 0.494,-0.566 z"
       id="path9773"
       style="fill:#ffffff;fill-opacity:1"
       inkscape:connector-curvature="0" />
    <path
       d="m 56.200397,46.492797 c 0,0.668 0.282,1.002 0.847,1.002 0.49,0 1.029,-0.233 1.619,-0.701 0.59,-0.467 1.122,-1.082 1.596,-1.846 l 0.29,0.16 c -0.446,0.836 -1.026,1.526 -1.741,2.074 -0.714,0.547 -1.391,0.82 -2.031,0.82 -0.41,0 -0.734,-0.133 -0.972,-0.396 -0.238,-0.265 -0.357,-0.627 -0.357,-1.085 0,-0.661 0.216,-1.227 0.647,-1.696 0.433,-0.471 0.953,-0.705 1.562,-0.705 0.294,0 0.529,0.074 0.706,0.223 0.176,0.148 0.265,0.346 0.265,0.595 0,0.408 -0.245,0.77 -0.736,1.084 -0.493,0.315 -1.057,0.471 -1.695,0.471 z m 0.027,-0.328 c 0.477,-0.024 0.886,-0.161 1.227,-0.41 0.341,-0.248 0.512,-0.535 0.512,-0.861 0,-0.291 -0.13,-0.438 -0.39,-0.438 -0.311,0 -0.597,0.166 -0.859,0.499 -0.262,0.333 -0.426,0.737 -0.49,1.21 z"
       id="path9780"
       style="fill:#ffffff;fill-opacity:1"
       inkscape:connector-curvature="0" />
    <path
       d="m 62.184397,46.570797 c 0.062,0.111 0.092,0.209 0.092,0.292 0,0.223 -0.188,0.469 -0.565,0.737 -0.377,0.268 -0.72,0.403 -1.029,0.403 -0.273,0 -0.496,-0.122 -0.668,-0.365 -0.172,-0.244 -0.258,-0.559 -0.258,-0.943 0,-0.428 0.111,-1.037 0.334,-1.828 l 0.155,-0.574 -0.573,0 c -0.239,0 -0.43,0.034 -0.572,0.103 0.131,-0.238 0.239,-0.388 0.325,-0.448 0.086,-0.062 0.231,-0.092 0.437,-0.092 l 0.512,0 0.068,-0.238 c 0.105,-0.354 0.232,-0.596 0.379,-0.728 0.147,-0.132 0.367,-0.198 0.661,-0.198 0.034,0 0.089,0.002 0.165,0.007 -0.178,0.229 -0.363,0.615 -0.555,1.157 l 1.806,0 c 0.317,0 0.56,-0.041 0.726,-0.124 -0.057,0.232 -0.133,0.384 -0.228,0.455 -0.095,0.071 -0.271,0.106 -0.528,0.106 l -1.924,0 c -0.022,0.075 -0.04,0.131 -0.052,0.168 -0.278,0.941 -0.417,1.651 -0.417,2.131 0,0.53 0.19,0.795 0.572,0.795 0.196,0 0.41,-0.084 0.643,-0.25 0.231,-0.168 0.396,-0.357 0.494,-0.566 z"
       id="path9787"
       style="fill:#ffffff;fill-opacity:1"
       inkscape:connector-curvature="0" />
    <path
       d="m 65.773397,45.806797 c -0.314,0.651 -0.666,1.181 -1.053,1.587 -0.388,0.406 -0.735,0.609 -1.043,0.609 -0.249,0 -0.45,-0.088 -0.605,-0.264 -0.155,-0.175 -0.232,-0.402 -0.232,-0.684 0,-0.359 0.121,-1.021 0.362,-1.982 0.065,-0.26 0.099,-0.424 0.099,-0.492 0,-0.068 -0.021,-0.143 -0.064,-0.223 l 0.476,-0.003 c 0.205,0 0.308,0.078 0.308,0.235 0,0.098 -0.066,0.379 -0.201,0.843 -0.041,0.139 -0.067,0.234 -0.079,0.286 l -0.052,0.209 c -0.102,0.416 -0.152,0.733 -0.152,0.952 0,0.337 0.116,0.505 0.349,0.505 0.381,0 0.863,-0.471 1.449,-1.412 0.479,-0.768 0.718,-1.313 0.718,-1.639 0,-0.045 -0.014,-0.091 -0.041,-0.137 0.187,-0.052 0.345,-0.078 0.475,-0.078 0.2,0 0.301,0.062 0.301,0.184 0,0.029 -0.009,0.073 -0.027,0.13 -0.01,0.034 -0.031,0.117 -0.065,0.249 -0.005,0.025 -0.027,0.117 -0.069,0.275 -0.029,0.111 -0.051,0.2 -0.064,0.266 l -0.035,0.164 c -0.075,0.375 -0.113,0.727 -0.113,1.053 0,0.5 0.121,0.75 0.362,0.75 0.533,0 1.21,-0.75 2.03,-2.249 l 0.287,0.171 c -0.934,1.797 -1.787,2.695 -2.562,2.695 -0.521,0 -0.782,-0.453 -0.782,-1.357 -0.004,-0.171 0.005,-0.385 0.023,-0.643 z"
       id="path9794"
       style="fill:#ffffff;fill-opacity:1"
       inkscape:connector-curvature="0" />
    <path
       d="m 68.836397,46.492797 c 0,0.668 0.282,1.002 0.848,1.002 0.489,0 1.028,-0.233 1.618,-0.701 0.59,-0.467 1.122,-1.082 1.596,-1.846 l 0.29,0.16 c -0.446,0.836 -1.027,1.526 -1.741,2.074 -0.714,0.547 -1.391,0.82 -2.031,0.82 -0.41,0 -0.734,-0.133 -0.972,-0.396 -0.238,-0.265 -0.357,-0.627 -0.357,-1.085 0,-0.661 0.216,-1.227 0.647,-1.696 0.433,-0.471 0.952,-0.705 1.562,-0.705 0.294,0 0.529,0.074 0.706,0.223 0.177,0.149 0.265,0.346 0.265,0.595 0,0.408 -0.245,0.77 -0.736,1.084 -0.493,0.315 -1.058,0.471 -1.695,0.471 z m 0.027,-0.328 c 0.477,-0.024 0.886,-0.161 1.227,-0.41 0.341,-0.248 0.512,-0.535 0.512,-0.861 0,-0.291 -0.13,-0.438 -0.391,-0.438 -0.31,0 -0.596,0.166 -0.858,0.499 -0.262,0.333 -0.426,0.737 -0.49,1.21 z"
       id="path9801"
       style="fill:#ffffff;fill-opacity:1"
       inkscape:connector-curvature="0" />
    <path
       d="m 73.068397,47.893797 c -0.155,0.072 -0.28,0.109 -0.373,0.109 -0.233,0 -0.35,-0.103 -0.35,-0.308 0,-0.105 0.041,-0.366 0.123,-0.784 l 0.172,-0.852 c 0.105,-0.506 0.158,-0.881 0.158,-1.125 0,-0.133 -0.038,-0.243 -0.113,-0.332 0.242,-0.082 0.438,-0.123 0.59,-0.123 0.162,0 0.242,0.102 0.242,0.305 0,0.125 -0.059,0.455 -0.174,0.988 l -0.199,0.995 c 0.431,-0.837 0.864,-1.487 1.301,-1.951 0.437,-0.464 0.833,-0.696 1.188,-0.696 0.126,0 0.233,0.036 0.325,0.107 0.091,0.072 0.137,0.159 0.137,0.262 0,0.159 -0.173,0.371 -0.519,0.636 -0.087,-0.181 -0.21,-0.271 -0.369,-0.271 -0.29,0 -0.66,0.309 -1.109,0.924 -0.278,0.383 -0.521,0.779 -0.726,1.186 -0.206,0.408 -0.309,0.698 -0.309,0.871 l 0.005,0.059 z"
       id="path9808"
       style="fill:#ffffff;fill-opacity:1"
       inkscape:connector-curvature="0" />
    <path
       d="m 29.927397,57.828797 c -0.292,0.604 -0.652,1.117 -1.081,1.54 -0.428,0.423 -0.801,0.634 -1.118,0.634 -0.242,0 -0.436,-0.107 -0.58,-0.323 -0.146,-0.216 -0.218,-0.503 -0.218,-0.86 0,-0.714 0.216,-1.342 0.648,-1.885 0.432,-0.543 0.934,-0.814 1.502,-0.814 0.345,0 0.718,0.107 1.119,0.322 0.06,-0.213 0.301,-0.318 0.724,-0.318 0.027,0 0.071,10e-4 0.133,0.003 -0.13,0.198 -0.229,0.47 -0.297,0.815 l -0.059,0.291 c -0.065,0.324 -0.099,0.703 -0.099,1.137 0,0.5 0.116,0.75 0.349,0.75 0.245,0 0.582,-0.206 1.009,-0.618 0.428,-0.411 0.847,-0.937 1.259,-1.573 l 0.267,0.186 c -0.421,0.753 -0.902,1.381 -1.444,1.884 -0.542,0.503 -1.007,0.755 -1.396,0.755 -0.491,0 -0.737,-0.41 -0.737,-1.232 -0.002,-0.173 0.005,-0.404 0.019,-0.694 z m 0.16,-0.818 c -0.48,-0.312 -0.879,-0.469 -1.197,-0.469 -0.345,0 -0.644,0.209 -0.896,0.627 -0.251,0.418 -0.377,0.914 -0.377,1.488 0,0.459 0.15,0.689 0.453,0.689 0.326,0 0.952,-0.715 1.876,-2.145 0.012,-0.016 0.059,-0.081 0.141,-0.19 z"
       id="path9815"
       style="fill:#ffffff;fill-opacity:1"
       inkscape:connector-curvature="0" />
    <path
       d="m 35.424397,57.915797 c -0.355,0.641 -0.728,1.149 -1.116,1.524 -0.388,0.375 -0.735,0.562 -1.04,0.562 -0.244,0 -0.438,-0.106 -0.582,-0.32 -0.143,-0.213 -0.215,-0.498 -0.215,-0.856 0,-0.721 0.214,-1.352 0.643,-1.894 0.429,-0.541 0.927,-0.812 1.495,-0.812 0.339,0 0.71,0.108 1.111,0.326 l 0.368,-1.841 c -0.201,0.041 -0.368,0.062 -0.501,0.062 -0.202,0 -0.35,-0.047 -0.443,-0.142 -0.093,-0.095 -0.169,-0.271 -0.227,-0.53 0.165,0.109 0.417,0.164 0.759,0.164 0.423,0 0.831,-0.078 1.225,-0.234 l -0.748,3.748 c -0.085,0.419 -0.127,0.775 -0.127,1.07 0,0.392 0.111,0.588 0.334,0.588 0.219,0 0.582,-0.256 1.091,-0.77 0.509,-0.512 0.933,-1.049 1.271,-1.609 l 0.28,0.178 c -0.405,0.743 -0.912,1.408 -1.52,1.994 -0.608,0.586 -1.092,0.879 -1.454,0.879 -0.46,0 -0.69,-0.369 -0.69,-1.108 0,-0.306 0.028,-0.632 0.086,-0.979 z m 0.181,-0.905 c -0.475,-0.312 -0.869,-0.469 -1.184,-0.469 -0.343,0 -0.639,0.209 -0.889,0.629 -0.25,0.419 -0.375,0.914 -0.375,1.486 0,0.459 0.15,0.689 0.452,0.689 0.323,0 0.946,-0.715 1.869,-2.145 0.017,-0.024 0.059,-0.088 0.127,-0.19 z"
       id="path9822"
       style="fill:#ffffff;fill-opacity:1"
       inkscape:connector-curvature="0" />
    <path
       d="m 42.099397,57.119797 c -0.515,0.902 -1.035,1.609 -1.561,2.118 -0.526,0.51 -0.998,0.765 -1.417,0.765 -0.255,0 -0.461,-0.083 -0.616,-0.25 -0.156,-0.166 -0.234,-0.385 -0.234,-0.656 0,-0.103 0.022,-0.266 0.068,-0.489 l 0.076,-0.376 c 0.111,-0.543 0.168,-0.924 0.168,-1.143 0,-0.13 -0.039,-0.236 -0.117,-0.318 0.297,-0.068 0.483,-0.102 0.559,-0.102 0.169,0 0.254,0.118 0.254,0.355 0,0.175 -0.033,0.427 -0.101,0.755 l -0.135,0.667 c -0.067,0.32 -0.101,0.529 -0.101,0.625 0,0.283 0.119,0.424 0.358,0.424 0.285,0 0.664,-0.24 1.138,-0.72 0.474,-0.48 0.933,-1.087 1.377,-1.823 l 0.284,0.168 z m -3.038,-1.722 0.048,0.003 c 0.152,-0.007 0.371,-0.083 0.658,-0.23 0.285,-0.146 0.51,-0.296 0.671,-0.448 -0.1,0.314 -0.278,0.577 -0.533,0.789 -0.388,0.322 -0.65,0.484 -0.787,0.484 -0.091,0 -0.137,-0.056 -0.137,-0.168 0,-0.16 0.027,-0.303 0.08,-0.43 z"
       id="path9829"
       style="fill:#ffffff;fill-opacity:1"
       inkscape:connector-curvature="0" />
    <path
       d="m 41.806397,59.705797 -0.252,1.263 c -0.058,0.284 -0.086,0.532 -0.086,0.744 0,0.134 0.03,0.256 0.09,0.364 -0.229,0.076 -0.405,0.113 -0.525,0.113 -0.188,0 -0.283,-0.107 -0.283,-0.32 0,-0.167 0.038,-0.438 0.113,-0.816 l 1.004,-5.012 c -0.199,0.042 -0.366,0.062 -0.502,0.062 -0.199,0 -0.347,-0.048 -0.441,-0.144 -0.095,-0.095 -0.171,-0.272 -0.229,-0.533 0.167,0.112 0.421,0.169 0.762,0.169 0.424,0 0.831,-0.078 1.223,-0.234 l -0.266,1.318 c 0.387,-0.373 0.787,-0.561 1.202,-0.561 0.361,0 0.663,0.138 0.904,0.412 0.241,0.275 0.362,0.617 0.362,1.027 0,0.642 -0.223,1.194 -0.667,1.66 -0.445,0.465 -0.973,0.697 -1.584,0.697 -0.33,0.002 -0.606,-0.068 -0.825,-0.209 z m 0.108,-0.529 c 0.23,0.27 0.514,0.404 0.849,0.404 0.401,0 0.743,-0.169 1.025,-0.507 0.282,-0.338 0.423,-0.749 0.423,-1.232 0,-0.35 -0.08,-0.633 -0.239,-0.85 -0.159,-0.217 -0.367,-0.325 -0.622,-0.325 -0.319,0 -0.665,0.181 -1.039,0.541 l -0.397,1.969 z"
       id="path9836"
       style="fill:#ffffff;fill-opacity:1"
       inkscape:connector-curvature="0" />
    <path
       d="m 49.482397,57.119797 c -0.515,0.902 -1.035,1.609 -1.561,2.118 -0.526,0.51 -0.998,0.765 -1.417,0.765 -0.255,0 -0.461,-0.083 -0.616,-0.25 -0.156,-0.166 -0.234,-0.385 -0.234,-0.656 0,-0.103 0.022,-0.266 0.068,-0.489 l 0.076,-0.376 c 0.111,-0.543 0.168,-0.924 0.168,-1.143 0,-0.13 -0.039,-0.236 -0.117,-0.318 0.297,-0.068 0.483,-0.102 0.559,-0.102 0.169,0 0.254,0.118 0.254,0.355 0,0.175 -0.033,0.427 -0.101,0.755 l -0.135,0.667 c -0.067,0.32 -0.101,0.529 -0.101,0.625 0,0.283 0.119,0.424 0.358,0.424 0.285,0 0.664,-0.24 1.138,-0.72 0.474,-0.48 0.933,-1.087 1.377,-1.823 l 0.284,0.168 z m -3.038,-1.722 0.048,0.003 c 0.152,-0.007 0.371,-0.083 0.658,-0.23 0.285,-0.146 0.51,-0.296 0.671,-0.448 -0.1,0.314 -0.278,0.577 -0.533,0.789 -0.388,0.322 -0.65,0.484 -0.787,0.484 -0.091,0 -0.137,-0.056 -0.137,-0.168 0,-0.16 0.026,-0.303 0.08,-0.43 z"
       id="path9843"
       style="fill:#ffffff;fill-opacity:1"
       inkscape:connector-curvature="0" />
    <path
       d="m 50.571397,58.715797 c 0.077,0.174 0.116,0.339 0.116,0.496 0,0.349 -0.146,0.652 -0.437,0.911 -0.291,0.259 -0.633,0.388 -1.023,0.388 -0.229,0 -0.426,-0.06 -0.587,-0.178 -0.161,-0.119 -0.242,-0.261 -0.242,-0.428 0,-0.178 0.11,-0.357 0.332,-0.539 0.222,-0.183 0.593,-0.398 1.112,-0.65 l -0.273,-0.441 c -0.333,-0.535 -0.499,-0.954 -0.499,-1.256 0,-0.434 0.252,-0.782 0.756,-1.047 0.31,0.119 0.465,0.268 0.465,0.448 0,0.256 -0.196,0.501 -0.588,0.735 l 0.388,0.719 0.303,0.555 c 0.436,-0.26 0.765,-0.482 0.985,-0.669 0.222,-0.186 0.502,-0.473 0.84,-0.86 l 0.273,0.168 c -0.491,0.656 -1.131,1.207 -1.921,1.648 z m -0.581,0.309 c -0.666,0.36 -0.998,0.641 -0.998,0.838 0,0.188 0.135,0.281 0.404,0.281 0.2,0 0.362,-0.068 0.486,-0.203 0.125,-0.137 0.188,-0.312 0.188,-0.525 0,-0.129 -0.027,-0.259 -0.08,-0.391 z"
       id="path9850"
       style="fill:#ffffff;fill-opacity:1"
       inkscape:connector-curvature="0" />
    <path
       d="m 56.488397,57.125797 c -0.552,0.926 -1.136,1.655 -1.754,2.188 -0.617,0.533 -1.19,0.799 -1.719,0.799 -0.44,0 -0.797,-0.15 -1.07,-0.452 -0.273,-0.301 -0.41,-0.692 -0.41,-1.175 0,-0.634 0.235,-1.187 0.707,-1.658 0.472,-0.471 1.025,-0.707 1.661,-0.707 0.258,0 0.469,0.05 0.634,0.149 0.165,0.099 0.248,0.226 0.248,0.379 0,0.252 -0.212,0.44 -0.636,0.566 0.022,-0.055 0.034,-0.107 0.034,-0.157 0,-0.37 -0.196,-0.555 -0.59,-0.555 -0.34,0 -0.654,0.189 -0.941,0.57 -0.286,0.379 -0.43,0.795 -0.43,1.246 0,0.368 0.096,0.668 0.285,0.898 0.191,0.232 0.438,0.348 0.744,0.348 0.84,0 1.822,-0.87 2.949,-2.611 l 0.288,0.172 z"
       id="path9857"
       style="fill:#ffffff;fill-opacity:1"
       inkscape:connector-curvature="0" />
    <path
       d="m 59.590397,57.119797 c -0.515,0.902 -1.035,1.609 -1.561,2.118 -0.526,0.51 -0.998,0.765 -1.417,0.765 -0.255,0 -0.461,-0.083 -0.616,-0.25 -0.156,-0.166 -0.234,-0.385 -0.234,-0.656 0,-0.103 0.022,-0.266 0.068,-0.489 l 0.076,-0.376 c 0.111,-0.543 0.168,-0.924 0.168,-1.143 0,-0.13 -0.039,-0.236 -0.117,-0.318 0.297,-0.068 0.483,-0.102 0.559,-0.102 0.169,0 0.254,0.118 0.254,0.355 0,0.175 -0.033,0.427 -0.101,0.755 l -0.135,0.667 c -0.067,0.32 -0.101,0.529 -0.101,0.625 0,0.283 0.119,0.424 0.358,0.424 0.285,0 0.664,-0.24 1.138,-0.72 0.474,-0.48 0.933,-1.087 1.377,-1.823 l 0.284,0.168 z m -3.038,-1.722 0.048,0.003 c 0.152,-0.007 0.371,-0.083 0.658,-0.23 0.285,-0.146 0.51,-0.296 0.671,-0.448 -0.1,0.314 -0.278,0.577 -0.533,0.789 -0.388,0.322 -0.65,0.484 -0.787,0.484 -0.091,0 -0.137,-0.056 -0.137,-0.168 0,-0.16 0.026,-0.303 0.08,-0.43 z"
       id="path9864"
       style="fill:#ffffff;fill-opacity:1"
       inkscape:connector-curvature="0" />
    <path
       d="m 59.779397,58.684797 c 0.812,-1.709 1.541,-2.564 2.188,-2.564 0.505,0 0.758,0.5 0.758,1.501 l 0.007,0.413 c 0,0.478 0.024,0.808 0.073,0.991 0.049,0.183 0.139,0.274 0.269,0.274 0.196,0 0.419,-0.155 0.669,-0.466 0.249,-0.31 0.655,-0.935 1.219,-1.872 l 0.287,0.166 c -0.502,0.945 -0.951,1.646 -1.349,2.104 -0.396,0.457 -0.753,0.686 -1.067,0.686 -0.29,0 -0.493,-0.14 -0.611,-0.42 -0.117,-0.279 -0.176,-0.764 -0.176,-1.453 l 0,-0.293 c 0,-0.373 -0.024,-0.636 -0.072,-0.787 -0.048,-0.15 -0.132,-0.227 -0.251,-0.227 -0.302,0 -0.789,0.6 -1.46,1.798 -0.165,0.294 -0.271,0.482 -0.319,0.566 -0.177,0.305 -0.265,0.525 -0.265,0.662 0,0.055 0.016,0.106 0.045,0.157 -0.131,0.055 -0.242,0.082 -0.334,0.082 -0.229,0 -0.344,-0.127 -0.344,-0.383 0,-0.072 0.03,-0.4 0.09,-0.983 l 0.077,-0.741 c 0.034,-0.314 0.052,-0.559 0.052,-0.731 0,-0.241 -0.056,-0.432 -0.167,-0.57 0.048,-0.017 0.128,-0.044 0.24,-0.084 0.142,-0.052 0.255,-0.077 0.339,-0.077 0.179,0 0.268,0.13 0.268,0.389 0,0.137 -0.018,0.371 -0.053,0.703 -0.007,0.072 -0.014,0.143 -0.021,0.208 l -0.092,0.951 z"
       id="path9871"
       style="fill:#ffffff;fill-opacity:1"
       inkscape:connector-curvature="0" />
    <path
       d="m 67.087397,57.861797 c -0.221,0.454 -0.541,0.854 -0.961,1.197 -0.42,0.343 -0.796,0.515 -1.129,0.515 -0.248,0 -0.451,-0.084 -0.608,-0.253 -0.158,-0.168 -0.236,-0.387 -0.236,-0.655 0,-0.629 0.239,-1.21 0.719,-1.744 0.479,-0.533 1,-0.801 1.566,-0.801 0.291,0 0.605,0.084 0.943,0.252 0.046,-0.22 0.111,-0.358 0.198,-0.416 0.087,-0.057 0.306,-0.104 0.659,-0.141 -0.176,0.357 -0.345,1.21 -0.505,2.557 l -0.044,0.35 c 0.975,-0.588 1.726,-1.188 2.255,-1.799 l 0.286,0.181 c -0.5,0.653 -1.354,1.364 -2.564,2.136 -0.007,0.089 -0.012,0.155 -0.014,0.198 -0.034,0.572 -0.095,0.994 -0.182,1.266 -0.087,0.271 -0.243,0.528 -0.469,0.772 -0.443,0.477 -0.982,0.715 -1.616,0.715 -0.341,0 -0.616,-0.08 -0.829,-0.241 -0.212,-0.161 -0.318,-0.368 -0.318,-0.624 0,-0.248 0.092,-0.466 0.275,-0.652 0.184,-0.188 0.528,-0.416 1.035,-0.685 0.335,-0.175 0.808,-0.438 1.419,-0.786 l 0.12,-1.342 z m 0.175,-0.888 c -0.297,-0.313 -0.623,-0.471 -0.979,-0.471 -0.338,0 -0.656,0.211 -0.955,0.633 -0.299,0.422 -0.448,0.871 -0.448,1.347 0,0.337 0.124,0.505 0.373,0.505 0.242,0 0.563,-0.201 0.964,-0.603 0.401,-0.402 0.748,-0.872 1.045,-1.411 z m -0.329,2.681 c -0.132,0.08 -0.398,0.232 -0.8,0.458 -0.784,0.444 -1.177,0.836 -1.177,1.175 0,0.15 0.063,0.274 0.19,0.373 0.127,0.098 0.289,0.146 0.486,0.146 0.868,10e-4 1.301,-0.717 1.301,-2.152 z"
       id="path9878"
       style="fill:#ffffff;fill-opacity:1"
       inkscape:connector-curvature="0" />
    <path
       d="m 72.347397,58.492797 c 0,0.668 0.282,1.002 0.847,1.002 0.49,0 1.029,-0.233 1.619,-0.701 0.59,-0.467 1.122,-1.082 1.596,-1.846 l 0.29,0.16 c -0.446,0.836 -1.026,1.526 -1.741,2.074 -0.714,0.547 -1.391,0.82 -2.031,0.82 -0.41,0 -0.734,-0.133 -0.972,-0.396 -0.238,-0.265 -0.357,-0.627 -0.357,-1.085 0,-0.661 0.216,-1.227 0.647,-1.696 0.433,-0.471 0.953,-0.705 1.562,-0.705 0.294,0 0.529,0.074 0.706,0.223 0.176,0.148 0.265,0.346 0.265,0.595 0,0.408 -0.245,0.77 -0.736,1.084 -0.493,0.315 -1.058,0.471 -1.695,0.471 z m 0.027,-0.328 c 0.477,-0.024 0.886,-0.161 1.227,-0.41 0.341,-0.248 0.512,-0.535 0.512,-0.861 0,-0.291 -0.13,-0.438 -0.39,-0.438 -0.311,0 -0.597,0.166 -0.859,0.499 -0.262,0.333 -0.427,0.737 -0.49,1.21 z"
       id="path9885"
       style="fill:#ffffff;fill-opacity:1"
       inkscape:connector-curvature="0" />
    <path
       d="m 79.535397,57.135797 c -0.472,0.895 -0.945,1.596 -1.422,2.104 -0.477,0.508 -0.897,0.763 -1.265,0.763 -0.267,0 -0.481,-0.104 -0.646,-0.309 -0.164,-0.207 -0.246,-0.477 -0.246,-0.809 0,-0.187 0.034,-0.451 0.103,-0.793 l 0.679,-3.423 c -0.089,0.014 -0.166,0.021 -0.231,0.021 -0.522,0 -0.784,-0.221 -0.784,-0.663 l 0,-0.079 c 0.273,0.156 0.582,0.234 0.926,0.234 0.344,0 0.645,-0.086 0.902,-0.258 l -0.793,4.119 c -0.07,0.369 -0.105,0.624 -0.105,0.764 0,0.385 0.141,0.578 0.424,0.578 0.273,0 0.548,-0.154 0.824,-0.463 0.277,-0.31 0.73,-0.968 1.361,-1.976 l 0.273,0.19 z"
       id="path9892"
       style="fill:#ffffff;fill-opacity:1"
       inkscape:connector-curvature="0" />
    <path
       d="m 82.637397,57.119797 c -0.515,0.902 -1.035,1.609 -1.561,2.118 -0.526,0.51 -0.998,0.765 -1.417,0.765 -0.255,0 -0.461,-0.083 -0.616,-0.25 -0.156,-0.166 -0.234,-0.385 -0.234,-0.656 0,-0.103 0.022,-0.266 0.068,-0.489 l 0.076,-0.376 c 0.111,-0.543 0.168,-0.924 0.168,-1.143 0,-0.13 -0.039,-0.236 -0.117,-0.318 0.297,-0.068 0.483,-0.102 0.559,-0.102 0.169,0 0.254,0.118 0.254,0.355 0,0.175 -0.033,0.427 -0.101,0.755 l -0.135,0.667 c -0.067,0.32 -0.101,0.529 -0.101,0.625 0,0.283 0.119,0.424 0.358,0.424 0.285,0 0.664,-0.24 1.138,-0.72 0.474,-0.48 0.933,-1.087 1.377,-1.823 l 0.284,0.168 z m -3.039,-1.722 0.048,0.003 c 0.152,-0.007 0.371,-0.083 0.658,-0.23 0.285,-0.146 0.51,-0.296 0.671,-0.448 -0.1,0.314 -0.278,0.577 -0.533,0.789 -0.388,0.322 -0.65,0.484 -0.787,0.484 -0.091,0 -0.137,-0.056 -0.137,-0.168 0,-0.16 0.027,-0.303 0.08,-0.43 z"
       id="path9899"
       style="fill:#ffffff;fill-opacity:1"
       inkscape:connector-curvature="0" />
    <path
       d="m 84.278397,58.570797 c 0.062,0.111 0.092,0.209 0.092,0.292 0,0.223 -0.188,0.469 -0.565,0.737 -0.377,0.268 -0.72,0.403 -1.029,0.403 -0.273,0 -0.496,-0.122 -0.668,-0.365 -0.172,-0.244 -0.258,-0.559 -0.258,-0.943 0,-0.428 0.111,-1.037 0.334,-1.828 l 0.155,-0.574 -0.573,0 c -0.239,0 -0.43,0.034 -0.572,0.103 0.131,-0.238 0.239,-0.388 0.325,-0.448 0.086,-0.062 0.231,-0.092 0.437,-0.092 l 0.512,0 0.068,-0.238 c 0.105,-0.354 0.232,-0.596 0.379,-0.728 0.147,-0.132 0.367,-0.198 0.661,-0.198 0.034,0 0.089,0.002 0.165,0.007 -0.178,0.229 -0.363,0.615 -0.555,1.157 l 1.806,0 c 0.317,0 0.56,-0.041 0.726,-0.124 -0.057,0.232 -0.133,0.384 -0.228,0.455 -0.095,0.071 -0.271,0.106 -0.528,0.106 l -1.924,0 c -0.022,0.075 -0.04,0.131 -0.052,0.168 -0.278,0.941 -0.417,1.651 -0.417,2.131 0,0.53 0.19,0.795 0.572,0.795 0.196,0 0.41,-0.084 0.643,-0.25 0.23,-0.168 0.396,-0.357 0.494,-0.566 z"
       id="path9906"
       style="fill:#ffffff;fill-opacity:1"
       inkscape:connector-curvature="0" />
    <path
       d="m 84.957397,59.098797 0.247,-0.048 c 0.165,-0.032 0.285,-0.048 0.36,-0.048 0.199,0 0.299,0.104 0.299,0.311 0,0.082 -0.012,0.182 -0.034,0.298 l -0.044,0.232 -0.156,0.027 c -0.223,0.041 -0.355,0.062 -0.398,0.062 -0.162,0 -0.242,-0.084 -0.242,-0.253 0,-0.046 0.005,-0.09 0.014,-0.134 l 0.018,-0.088 c 0.009,-0.039 0.014,-0.08 0.014,-0.123 -0.002,-0.094 -0.027,-0.172 -0.078,-0.236 z"
       id="path9913"
       style="fill:#ffffff;fill-opacity:1"
       inkscape:connector-curvature="0" />
    <path
       d="m 26.746397,80.683797 c -0.055,-0.118 -0.082,-0.24 -0.082,-0.366 0,-0.409 0.313,-0.776 0.939,-1.102 0.627,-0.324 1.336,-0.486 2.129,-0.486 0.834,0 1.49,0.185 1.97,0.555 0.479,0.369 0.72,0.875 0.72,1.519 0,0.854 -0.372,1.608 -1.117,2.261 -0.395,0.345 -0.887,0.627 -1.478,0.846 -0.591,0.219 -1.157,0.328 -1.696,0.328 -0.52,0 -0.779,-0.195 -0.779,-0.586 0,-0.141 0.044,-0.434 0.133,-0.876 l 0.442,-2.235 c 0.038,-0.191 0.058,-0.33 0.058,-0.414 0,-0.08 -0.027,-0.153 -0.082,-0.22 0.305,-0.114 0.516,-0.171 0.635,-0.171 0.142,0 0.213,0.082 0.213,0.246 0,0.039 -0.037,0.238 -0.109,0.6 l -0.375,1.872 c -0.094,0.478 -0.141,0.777 -0.141,0.9 0,0.137 0.046,0.229 0.139,0.278 0.092,0.049 0.266,0.073 0.521,0.074 0.828,-10e-4 1.521,-0.254 2.079,-0.758 0.558,-0.504 0.838,-1.129 0.839,-1.875 -0.001,-0.577 -0.204,-1.039 -0.609,-1.385 -0.405,-0.347 -0.945,-0.521 -1.619,-0.521 -0.55,0.001 -1.062,0.134 -1.537,0.398 -0.477,0.263 -0.874,0.636 -1.193,1.118 z"
       id="path9920"
       style="fill:#ffffff;fill-opacity:1"
       inkscape:connector-curvature="0" />
    <path
       d="m 36.715397,81.401797 c 0.006,0.055 0.01,0.104 0.01,0.146 0,0.658 -0.224,1.231 -0.67,1.721 -0.446,0.49 -0.969,0.734 -1.568,0.734 -0.457,0 -0.83,-0.146 -1.119,-0.438 -0.287,-0.292 -0.432,-0.672 -0.432,-1.138 0,-0.531 0.187,-0.99 0.56,-1.379 0.372,-0.39 0.812,-0.584 1.318,-0.584 0.077,0 0.16,0.01 0.246,0.03 -0.057,-0.103 -0.085,-0.19 -0.085,-0.261 0,-0.11 0.037,-0.216 0.112,-0.316 0.556,0.046 1.017,0.331 1.386,0.855 0.379,0.258 0.773,0.387 1.184,0.387 0.268,0 0.556,-0.09 0.866,-0.271 l 0.171,0.291 c -0.363,0.252 -0.735,0.378 -1.116,0.378 -0.254,10e-4 -0.542,-0.052 -0.863,-0.155 z m -0.775,-0.29 c -0.188,-0.058 -0.363,-0.148 -0.522,-0.274 -0.115,-0.023 -0.212,-0.036 -0.289,-0.037 -0.386,10e-4 -0.729,0.175 -1.026,0.522 -0.297,0.347 -0.447,0.744 -0.448,1.189 10e-4,0.323 0.092,0.589 0.271,0.796 0.179,0.207 0.412,0.312 0.696,0.312 0.384,-0.001 0.714,-0.195 0.991,-0.582 0.276,-0.387 0.415,-0.849 0.416,-1.385 -0.001,-0.186 -0.03,-0.367 -0.089,-0.541 z"
       id="path9927"
       style="fill:#ffffff;fill-opacity:1"
       inkscape:connector-curvature="0" />
    <path
       d="m 38.878397,82.684797 c 0.812,-1.709 1.54,-2.564 2.188,-2.564 0.505,0 0.758,0.5 0.758,1.501 l 0.007,0.413 c 0,0.478 0.024,0.808 0.073,0.991 0.049,0.183 0.139,0.274 0.269,0.274 0.196,0 0.419,-0.155 0.669,-0.466 0.249,-0.31 0.655,-0.935 1.219,-1.872 l 0.287,0.166 c -0.502,0.945 -0.951,1.646 -1.349,2.104 -0.396,0.457 -0.753,0.686 -1.067,0.686 -0.29,0 -0.493,-0.14 -0.61,-0.42 -0.118,-0.279 -0.177,-0.764 -0.177,-1.453 l 0,-0.293 c 0,-0.373 -0.024,-0.636 -0.072,-0.787 -0.048,-0.15 -0.132,-0.227 -0.251,-0.227 -0.302,0 -0.789,0.6 -1.46,1.798 -0.165,0.294 -0.271,0.482 -0.319,0.566 -0.177,0.305 -0.265,0.525 -0.265,0.662 0,0.055 0.015,0.106 0.046,0.157 -0.133,0.055 -0.244,0.082 -0.334,0.082 -0.23,0 -0.345,-0.127 -0.345,-0.383 0,-0.072 0.03,-0.4 0.091,-0.983 l 0.076,-0.741 c 0.034,-0.314 0.052,-0.559 0.052,-0.731 0,-0.241 -0.056,-0.432 -0.167,-0.57 0.048,-0.017 0.128,-0.044 0.24,-0.084 0.142,-0.052 0.255,-0.077 0.339,-0.077 0.179,0 0.268,0.13 0.268,0.389 0,0.137 -0.018,0.371 -0.053,0.703 -0.007,0.072 -0.014,0.143 -0.021,0.208 l -0.092,0.951 z"
       id="path9934"
       style="fill:#ffffff;fill-opacity:1"
       inkscape:connector-curvature="0" />
    <path
       d="m 44.087397,82.492797 c 0,0.668 0.282,1.002 0.847,1.002 0.49,0 1.029,-0.233 1.619,-0.701 0.59,-0.467 1.122,-1.082 1.596,-1.846 l 0.29,0.16 c -0.446,0.836 -1.026,1.526 -1.741,2.074 -0.714,0.547 -1.391,0.82 -2.031,0.82 -0.41,0 -0.734,-0.133 -0.972,-0.396 -0.238,-0.265 -0.357,-0.627 -0.357,-1.085 0,-0.661 0.216,-1.227 0.647,-1.696 0.433,-0.471 0.953,-0.705 1.562,-0.705 0.294,0 0.529,0.074 0.706,0.223 0.176,0.148 0.265,0.346 0.265,0.595 0,0.408 -0.245,0.77 -0.736,1.084 -0.493,0.315 -1.058,0.471 -1.695,0.471 z m 0.027,-0.328 c 0.477,-0.024 0.886,-0.161 1.227,-0.41 0.341,-0.248 0.512,-0.535 0.512,-0.861 0,-0.291 -0.13,-0.438 -0.39,-0.438 -0.311,0 -0.597,0.166 -0.859,0.499 -0.262,0.333 -0.426,0.737 -0.49,1.21 z"
       id="path9941"
       style="fill:#ffffff;fill-opacity:1"
       inkscape:connector-curvature="0" />
    <path
       d="m 52.431397,81.125797 c -0.552,0.926 -1.136,1.655 -1.754,2.188 -0.617,0.533 -1.19,0.799 -1.719,0.799 -0.44,0 -0.797,-0.15 -1.07,-0.452 -0.273,-0.301 -0.41,-0.692 -0.41,-1.175 0,-0.634 0.235,-1.187 0.707,-1.658 0.472,-0.471 1.025,-0.707 1.661,-0.707 0.258,0 0.469,0.05 0.634,0.149 0.165,0.099 0.248,0.226 0.248,0.379 0,0.252 -0.212,0.44 -0.636,0.566 0.022,-0.055 0.034,-0.107 0.034,-0.157 0,-0.37 -0.196,-0.555 -0.59,-0.555 -0.34,0 -0.654,0.189 -0.941,0.57 -0.286,0.379 -0.43,0.795 -0.43,1.246 0,0.368 0.096,0.668 0.285,0.898 0.191,0.232 0.438,0.348 0.744,0.348 0.84,0 1.822,-0.87 2.949,-2.611 l 0.288,0.172 z"
       id="path9948"
       style="fill:#ffffff;fill-opacity:1"
       inkscape:connector-curvature="0" />
    <path
       d="m 56.782397,81.828797 c -0.292,0.604 -0.652,1.117 -1.081,1.54 -0.428,0.423 -0.801,0.634 -1.118,0.634 -0.242,0 -0.436,-0.107 -0.58,-0.323 -0.146,-0.216 -0.218,-0.503 -0.218,-0.86 0,-0.714 0.216,-1.342 0.648,-1.885 0.432,-0.543 0.934,-0.814 1.502,-0.814 0.345,0 0.718,0.107 1.119,0.322 0.06,-0.213 0.301,-0.318 0.724,-0.318 0.027,0 0.071,0.001 0.133,0.003 -0.13,0.198 -0.229,0.47 -0.297,0.815 l -0.059,0.291 c -0.065,0.324 -0.099,0.703 -0.099,1.137 0,0.5 0.116,0.75 0.349,0.75 0.245,0 0.582,-0.206 1.009,-0.618 0.428,-0.411 0.847,-0.937 1.259,-1.573 l 0.267,0.186 c -0.421,0.753 -0.902,1.381 -1.444,1.884 -0.542,0.503 -1.007,0.755 -1.396,0.755 -0.491,0 -0.737,-0.41 -0.737,-1.232 -10e-4,-0.173 0.005,-0.404 0.019,-0.694 z m 0.16,-0.818 c -0.48,-0.312 -0.879,-0.469 -1.197,-0.469 -0.345,0 -0.644,0.209 -0.896,0.627 -0.251,0.418 -0.377,0.914 -0.377,1.488 0,0.459 0.15,0.689 0.453,0.689 0.326,0 0.952,-0.715 1.876,-2.145 0.012,-0.016 0.059,-0.081 0.141,-0.19 z"
       id="path9955"
       style="fill:#ffffff;fill-opacity:1"
       inkscape:connector-curvature="0" />
    <path
       d="m 63.177397,81.135797 c -0.472,0.895 -0.945,1.596 -1.422,2.104 -0.476,0.509 -0.897,0.763 -1.265,0.763 -0.267,0 -0.481,-0.104 -0.646,-0.309 -0.164,-0.207 -0.246,-0.477 -0.246,-0.809 0,-0.187 0.034,-0.451 0.103,-0.793 l 0.679,-3.423 c -0.089,0.014 -0.166,0.021 -0.231,0.021 -0.523,0 -0.784,-0.221 -0.784,-0.663 l 0,-0.079 c 0.273,0.156 0.582,0.234 0.926,0.234 0.345,0 0.645,-0.086 0.902,-0.258 l -0.792,4.119 c -0.071,0.369 -0.106,0.624 -0.106,0.764 0,0.385 0.142,0.578 0.424,0.578 0.272,0 0.548,-0.154 0.824,-0.463 0.277,-0.31 0.73,-0.968 1.361,-1.976 l 0.273,0.19 z"
       id="path9962"
       style="fill:#ffffff;fill-opacity:1"
       inkscape:connector-curvature="0" />
    <path
       d="m 66.278397,81.119797 c -0.515,0.902 -1.035,1.609 -1.561,2.118 -0.526,0.51 -0.998,0.765 -1.417,0.765 -0.255,0 -0.461,-0.083 -0.617,-0.25 -0.155,-0.166 -0.233,-0.385 -0.233,-0.656 0,-0.103 0.022,-0.266 0.068,-0.489 l 0.076,-0.376 c 0.112,-0.543 0.168,-0.924 0.168,-1.143 0,-0.13 -0.039,-0.236 -0.116,-0.318 0.297,-0.068 0.482,-0.102 0.558,-0.102 0.169,0 0.254,0.118 0.254,0.355 0,0.175 -0.033,0.427 -0.101,0.755 l -0.135,0.667 c -0.067,0.32 -0.101,0.529 -0.101,0.625 0,0.283 0.119,0.424 0.358,0.424 0.285,0 0.664,-0.24 1.138,-0.72 0.474,-0.48 0.933,-1.087 1.377,-1.823 l 0.284,0.168 z m -3.038,-1.722 0.048,0.003 c 0.152,-0.007 0.372,-0.083 0.657,-0.23 0.286,-0.146 0.511,-0.296 0.672,-0.448 -0.1,0.314 -0.278,0.577 -0.533,0.789 -0.388,0.322 -0.65,0.484 -0.787,0.484 -0.091,0 -0.137,-0.056 -0.137,-0.168 0,-0.16 0.026,-0.303 0.08,-0.43 z"
       id="path9969"
       style="fill:#ffffff;fill-opacity:1"
       inkscape:connector-curvature="0" />
    <path
       d="m 68.230397,81.904797 c -0.787,1.398 -1.508,2.098 -2.165,2.098 -0.241,0 -0.434,-0.107 -0.577,-0.323 -0.145,-0.216 -0.216,-0.503 -0.216,-0.864 0,-0.713 0.215,-1.341 0.645,-1.883 0.43,-0.541 0.929,-0.812 1.496,-0.812 0.338,0 0.707,0.107 1.108,0.322 0.065,-0.209 0.322,-0.314 0.77,-0.314 l 0.099,0 c -0.132,0.221 -0.229,0.486 -0.291,0.797 l -0.804,4.042 c -0.057,0.285 -0.085,0.533 -0.085,0.745 0,0.135 0.029,0.256 0.089,0.365 -0.23,0.076 -0.406,0.113 -0.527,0.113 -0.187,0 -0.28,-0.107 -0.28,-0.321 0,-0.166 0.038,-0.438 0.113,-0.816 l 0.625,-3.149 z m 0.178,-0.895 c -0.477,-0.312 -0.872,-0.468 -1.185,-0.468 -0.343,0 -0.639,0.209 -0.889,0.629 -0.25,0.419 -0.375,0.914 -0.375,1.486 0,0.459 0.149,0.689 0.448,0.689 0.327,0 0.951,-0.715 1.873,-2.146 0.013,-0.019 0.055,-0.083 0.128,-0.19 z"
       id="path9976"
       style="fill:#ffffff;fill-opacity:1"
       inkscape:connector-curvature="0" />
    <path
       d="m 72.883397,81.806797 c -0.314,0.651 -0.666,1.181 -1.053,1.587 -0.388,0.406 -0.735,0.609 -1.043,0.609 -0.249,0 -0.45,-0.088 -0.605,-0.264 -0.155,-0.175 -0.232,-0.402 -0.232,-0.684 0,-0.359 0.121,-1.021 0.362,-1.982 0.065,-0.26 0.099,-0.424 0.099,-0.492 0,-0.068 -0.021,-0.143 -0.064,-0.223 l 0.476,-0.003 c 0.205,0 0.308,0.078 0.308,0.235 0,0.098 -0.066,0.379 -0.201,0.843 -0.041,0.139 -0.067,0.234 -0.079,0.286 l -0.052,0.209 c -0.102,0.416 -0.152,0.733 -0.152,0.952 0,0.337 0.116,0.505 0.349,0.505 0.381,0 0.863,-0.471 1.449,-1.412 0.479,-0.768 0.718,-1.313 0.718,-1.639 0,-0.045 -0.014,-0.091 -0.041,-0.137 0.187,-0.052 0.345,-0.078 0.475,-0.078 0.2,0 0.301,0.062 0.301,0.184 0,0.029 -0.009,0.073 -0.027,0.13 -0.01,0.034 -0.031,0.117 -0.065,0.249 -0.005,0.025 -0.027,0.117 -0.069,0.275 -0.029,0.111 -0.051,0.2 -0.064,0.266 l -0.035,0.164 c -0.075,0.375 -0.113,0.727 -0.113,1.053 0,0.5 0.121,0.75 0.362,0.75 0.533,0 1.21,-0.75 2.03,-2.249 l 0.287,0.171 c -0.934,1.797 -1.787,2.695 -2.562,2.695 -0.521,0 -0.782,-0.453 -0.782,-1.357 -0.005,-0.171 0.004,-0.385 0.023,-0.643 z"
       id="path9983"
       style="fill:#ffffff;fill-opacity:1"
       inkscape:connector-curvature="0" />
    <path
       d="m 75.945397,82.492797 c 0,0.668 0.282,1.002 0.848,1.002 0.489,0 1.028,-0.233 1.618,-0.701 0.59,-0.467 1.122,-1.082 1.596,-1.846 l 0.29,0.16 c -0.446,0.836 -1.027,1.526 -1.741,2.074 -0.714,0.547 -1.391,0.82 -2.031,0.82 -0.41,0 -0.734,-0.133 -0.972,-0.396 -0.238,-0.265 -0.357,-0.627 -0.357,-1.085 0,-0.661 0.216,-1.227 0.647,-1.696 0.433,-0.471 0.952,-0.705 1.562,-0.705 0.294,0 0.529,0.074 0.706,0.223 0.177,0.149 0.265,0.346 0.265,0.595 0,0.408 -0.245,0.77 -0.736,1.084 -0.493,0.315 -1.057,0.471 -1.695,0.471 z m 0.027,-0.328 c 0.477,-0.024 0.886,-0.161 1.227,-0.41 0.341,-0.248 0.512,-0.535 0.512,-0.861 0,-0.291 -0.13,-0.438 -0.391,-0.438 -0.31,0 -0.596,0.166 -0.858,0.499 -0.262,0.333 -0.426,0.737 -0.49,1.21 z"
       id="path9990"
       style="fill:#ffffff;fill-opacity:1"
       inkscape:connector-curvature="0" />
    <path
       d="m 81.930397,82.570797 c 0.062,0.111 0.092,0.209 0.092,0.292 0,0.223 -0.188,0.469 -0.565,0.737 -0.377,0.268 -0.72,0.403 -1.029,0.403 -0.273,0 -0.496,-0.122 -0.668,-0.365 -0.172,-0.244 -0.258,-0.559 -0.258,-0.943 0,-0.428 0.111,-1.037 0.334,-1.828 l 0.155,-0.574 -0.573,0 c -0.239,0 -0.43,0.034 -0.572,0.103 0.131,-0.238 0.239,-0.388 0.325,-0.448 0.086,-0.062 0.231,-0.092 0.437,-0.092 l 0.512,0 0.068,-0.238 c 0.105,-0.354 0.232,-0.596 0.379,-0.728 0.147,-0.132 0.367,-0.198 0.661,-0.198 0.034,0 0.089,0.002 0.165,0.007 -0.178,0.229 -0.363,0.615 -0.555,1.157 l 1.806,0 c 0.317,0 0.56,-0.041 0.726,-0.124 -0.057,0.232 -0.133,0.384 -0.228,0.455 -0.095,0.071 -0.271,0.106 -0.528,0.106 l -1.924,0 c -0.022,0.075 -0.04,0.131 -0.052,0.168 -0.278,0.941 -0.417,1.651 -0.417,2.131 0,0.53 0.19,0.795 0.572,0.795 0.196,0 0.41,-0.084 0.643,-0.25 0.231,-0.168 0.396,-0.357 0.494,-0.566 z"
       id="path9997"
       style="fill:#ffffff;fill-opacity:1"
       inkscape:connector-curvature="0" />
    <path
       d="m 29.883397,93.9586 c -0.355,0.641 -0.728,1.149 -1.116,1.524 -0.388,0.375 -0.735,0.562 -1.04,0.562 -0.244,0 -0.438,-0.106 -0.582,-0.32 -0.143,-0.213 -0.215,-0.498 -0.215,-0.856 0,-0.721 0.214,-1.352 0.643,-1.894 0.429,-0.541 0.927,-0.812 1.495,-0.812 0.339,0 0.71,0.108 1.111,0.326 l 0.368,-1.841 c -0.201,0.041 -0.368,0.062 -0.501,0.062 -0.202,0 -0.35,-0.047 -0.443,-0.142 -0.093,-0.095 -0.169,-0.271 -0.227,-0.53 0.165,0.109 0.417,0.164 0.759,0.164 0.423,0 0.831,-0.078 1.225,-0.234 l -0.748,3.748 c -0.085,0.419 -0.127,0.775 -0.127,1.07 0,0.392 0.111,0.588 0.334,0.588 0.219,0 0.582,-0.256 1.091,-0.77 0.509,-0.512 0.933,-1.049 1.271,-1.609 l 0.28,0.178 c -0.405,0.743 -0.912,1.408 -1.52,1.994 -0.608,0.586 -1.092,0.879 -1.454,0.879 -0.46,0 -0.69,-0.369 -0.69,-1.108 0,-0.306 0.028,-0.632 0.086,-0.979 z m 0.181,-0.905 c -0.475,-0.312 -0.869,-0.469 -1.184,-0.469 -0.343,0 -0.639,0.209 -0.889,0.629 -0.25,0.419 -0.375,0.914 -0.375,1.486 0,0.459 0.15,0.689 0.452,0.689 0.323,0 0.946,-0.715 1.869,-2.145 0.017,-0.024 0.059,-0.088 0.127,-0.19 z"
       id="path10004"
       style="fill:#ffffff;fill-opacity:1"
       inkscape:connector-curvature="0" />
    <path
       d="m 36.558397,93.1626 c -0.515,0.902 -1.035,1.609 -1.561,2.118 -0.526,0.51 -0.998,0.765 -1.417,0.765 -0.255,0 -0.461,-0.083 -0.616,-0.25 -0.156,-0.166 -0.234,-0.385 -0.234,-0.656 0,-0.103 0.022,-0.266 0.068,-0.489 l 0.076,-0.376 c 0.111,-0.543 0.168,-0.924 0.168,-1.143 0,-0.13 -0.039,-0.236 -0.117,-0.318 0.297,-0.068 0.483,-0.102 0.559,-0.102 0.169,0 0.254,0.118 0.254,0.355 0,0.175 -0.033,0.427 -0.101,0.755 l -0.135,0.667 c -0.067,0.32 -0.101,0.529 -0.101,0.625 0,0.283 0.119,0.424 0.358,0.424 0.285,0 0.664,-0.24 1.138,-0.72 0.474,-0.48 0.933,-1.087 1.377,-1.823 l 0.284,0.168 z m -3.038,-1.722 0.048,0.003 c 0.152,-0.007 0.371,-0.083 0.658,-0.23 0.285,-0.146 0.51,-0.296 0.671,-0.448 -0.1,0.314 -0.278,0.577 -0.533,0.789 -0.388,0.322 -0.65,0.484 -0.787,0.484 -0.091,0 -0.137,-0.056 -0.137,-0.168 0,-0.16 0.027,-0.303 0.08,-0.43 z"
       id="path10011"
       style="fill:#ffffff;fill-opacity:1"
       inkscape:connector-curvature="0" />
    <path
       d="m 38.550397,93.8716 c -0.292,0.604 -0.652,1.117 -1.081,1.54 -0.428,0.423 -0.801,0.634 -1.118,0.634 -0.242,0 -0.436,-0.107 -0.58,-0.323 -0.146,-0.216 -0.218,-0.503 -0.218,-0.86 0,-0.714 0.216,-1.342 0.648,-1.885 0.432,-0.543 0.934,-0.814 1.502,-0.814 0.345,0 0.718,0.107 1.119,0.322 0.06,-0.213 0.301,-0.318 0.724,-0.318 0.027,0 0.071,0.001 0.133,0.003 -0.13,0.198 -0.229,0.47 -0.297,0.815 l -0.059,0.291 c -0.065,0.324 -0.099,0.703 -0.099,1.137 0,0.5 0.116,0.75 0.349,0.75 0.245,0 0.582,-0.206 1.009,-0.618 0.428,-0.411 0.847,-0.937 1.259,-1.573 l 0.267,0.186 c -0.421,0.753 -0.902,1.381 -1.444,1.884 -0.542,0.503 -1.007,0.755 -1.396,0.755 -0.491,0 -0.737,-0.41 -0.737,-1.232 -0.002,-0.173 0.005,-0.404 0.019,-0.694 z m 0.16,-0.818 c -0.48,-0.312 -0.879,-0.469 -1.197,-0.469 -0.345,0 -0.644,0.209 -0.896,0.627 -0.251,0.418 -0.377,0.914 -0.377,1.488 0,0.459 0.15,0.689 0.453,0.689 0.326,0 0.952,-0.715 1.876,-2.145 0.012,-0.016 0.059,-0.081 0.141,-0.19 z"
       id="path10018"
       style="fill:#ffffff;fill-opacity:1"
       inkscape:connector-curvature="0" />
    <path
       d="m 42.294397,94.7566 c 0.823,-1.729 1.551,-2.594 2.182,-2.594 0.276,0 0.415,0.199 0.415,0.598 0,0.17 -0.061,0.555 -0.183,1.153 l -0.21,1.034 c 0.398,-0.838 0.813,-1.512 1.246,-2.021 0.433,-0.509 0.806,-0.764 1.12,-0.764 0.346,0 0.519,0.203 0.519,0.607 0,0.146 -0.051,0.48 -0.152,1.002 l -0.104,0.532 c -0.063,0.321 -0.095,0.56 -0.095,0.714 0,0.273 0.097,0.41 0.29,0.41 0.438,0 1.109,-0.812 2.017,-2.434 l 0.287,0.16 c -0.988,1.927 -1.852,2.891 -2.59,2.891 -0.472,0 -0.707,-0.308 -0.707,-0.923 0,-0.205 0.045,-0.534 0.134,-0.988 l 0.093,-0.472 c 0.062,-0.319 0.094,-0.518 0.094,-0.596 0,-0.098 -0.05,-0.146 -0.15,-0.146 -0.246,0 -0.687,0.488 -1.321,1.467 -0.576,0.891 -0.864,1.4 -0.864,1.527 0,0.014 0.005,0.038 0.014,0.072 -0.031,0.006 -0.088,0.021 -0.167,0.043 -0.034,0.01 -0.086,0.016 -0.153,0.016 -0.213,0 -0.318,-0.102 -0.318,-0.304 0,-0.062 0.034,-0.247 0.104,-0.557 0.025,-0.111 0.051,-0.23 0.076,-0.358 l 0.146,-0.724 c 0.106,-0.521 0.159,-0.833 0.159,-0.938 0,-0.152 -0.056,-0.229 -0.168,-0.229 -0.246,0 -0.607,0.44 -1.086,1.322 -0.477,0.874 -0.715,1.396 -0.715,1.564 0,0.048 0.018,0.094 0.054,0.14 -0.126,0.056 -0.241,0.083 -0.346,0.083 -0.237,0 -0.356,-0.127 -0.356,-0.383 0,-0.031 0.033,-0.363 0.101,-0.994 l 0.078,-0.728 c 0.026,-0.255 0.04,-0.49 0.04,-0.707 0,-0.272 -0.055,-0.474 -0.165,-0.601 0.264,-0.096 0.45,-0.143 0.56,-0.143 0.2,0 0.301,0.118 0.301,0.354 0,0.084 -0.027,0.396 -0.081,0.937 l -0.099,0.978 z"
       id="path10025"
       style="fill:#ffffff;fill-opacity:1"
       inkscape:connector-curvature="0" />
    <path
       d="m 54.139397,93.8496 c -0.314,0.651 -0.666,1.181 -1.053,1.587 -0.388,0.406 -0.735,0.609 -1.043,0.609 -0.249,0 -0.45,-0.088 -0.605,-0.264 -0.155,-0.175 -0.232,-0.402 -0.232,-0.684 0,-0.359 0.121,-1.021 0.362,-1.982 0.065,-0.26 0.099,-0.424 0.099,-0.492 0,-0.068 -0.021,-0.143 -0.064,-0.223 l 0.476,-0.003 c 0.205,0 0.308,0.078 0.308,0.235 0,0.098 -0.066,0.379 -0.201,0.843 -0.041,0.139 -0.067,0.234 -0.079,0.286 l -0.052,0.209 c -0.102,0.416 -0.152,0.733 -0.152,0.952 0,0.337 0.116,0.505 0.349,0.505 0.381,0 0.863,-0.471 1.449,-1.412 0.479,-0.768 0.718,-1.313 0.718,-1.639 0,-0.045 -0.014,-0.091 -0.041,-0.137 0.187,-0.052 0.345,-0.078 0.475,-0.078 0.2,0 0.301,0.062 0.301,0.184 0,0.029 -0.009,0.073 -0.027,0.13 -0.01,0.034 -0.031,0.117 -0.065,0.249 -0.005,0.025 -0.027,0.117 -0.069,0.275 -0.029,0.111 -0.051,0.2 -0.064,0.266 l -0.035,0.164 c -0.075,0.375 -0.113,0.727 -0.113,1.053 0,0.5 0.121,0.75 0.362,0.75 0.533,0 1.21,-0.75 2.03,-2.249 l 0.287,0.171 c -0.934,1.797 -1.787,2.695 -2.562,2.695 -0.521,0 -0.782,-0.453 -0.782,-1.357 -0.005,-0.171 0.004,-0.385 0.023,-0.643 z"
       id="path10032"
       style="fill:#ffffff;fill-opacity:1"
       inkscape:connector-curvature="0" />
    <path
       d="m 59.091397,94.6136 c 0.062,0.111 0.092,0.209 0.092,0.292 0,0.223 -0.188,0.469 -0.565,0.737 -0.377,0.268 -0.72,0.403 -1.029,0.403 -0.273,0 -0.496,-0.122 -0.668,-0.365 -0.172,-0.244 -0.258,-0.559 -0.258,-0.943 0,-0.428 0.111,-1.037 0.334,-1.828 l 0.155,-0.574 -0.573,0 c -0.239,0 -0.43,0.034 -0.572,0.103 0.131,-0.238 0.239,-0.388 0.325,-0.448 0.086,-0.062 0.231,-0.092 0.437,-0.092 l 0.512,0 0.068,-0.238 c 0.105,-0.354 0.232,-0.596 0.379,-0.728 0.147,-0.132 0.367,-0.198 0.661,-0.198 0.034,0 0.089,0.002 0.165,0.007 -0.178,0.229 -0.363,0.615 -0.555,1.157 l 1.806,0 c 0.317,0 0.56,-0.041 0.726,-0.124 -0.057,0.232 -0.133,0.384 -0.228,0.455 -0.095,0.071 -0.271,0.106 -0.528,0.106 l -1.924,0 c -0.022,0.075 -0.04,0.131 -0.052,0.168 -0.278,0.941 -0.417,1.651 -0.417,2.131 0,0.53 0.19,0.795 0.572,0.795 0.196,0 0.41,-0.084 0.643,-0.25 0.23,-0.168 0.395,-0.357 0.494,-0.566 z"
       id="path10039"
       style="fill:#ffffff;fill-opacity:1"
       inkscape:connector-curvature="0" />
    <path
       d="m 62.639397,94.5356 c 0,0.668 0.282,1.002 0.847,1.002 0.49,0 1.029,-0.233 1.619,-0.701 0.59,-0.467 1.122,-1.082 1.596,-1.846 l 0.29,0.16 c -0.446,0.836 -1.026,1.526 -1.741,2.074 -0.714,0.547 -1.391,0.82 -2.031,0.82 -0.41,0 -0.734,-0.133 -0.972,-0.396 -0.238,-0.265 -0.357,-0.627 -0.357,-1.085 0,-0.661 0.216,-1.227 0.647,-1.696 0.433,-0.471 0.953,-0.705 1.562,-0.705 0.294,0 0.529,0.074 0.706,0.223 0.176,0.148 0.265,0.346 0.265,0.595 0,0.408 -0.245,0.77 -0.736,1.084 -0.492,0.315 -1.057,0.471 -1.695,0.471 z m 0.028,-0.328 c 0.477,-0.024 0.886,-0.161 1.227,-0.41 0.341,-0.248 0.512,-0.535 0.512,-0.861 0,-0.291 -0.13,-0.438 -0.39,-0.438 -0.311,0 -0.597,0.166 -0.859,0.499 -0.262,0.333 -0.427,0.737 -0.49,1.21 z"
       id="path10046"
       style="fill:#ffffff;fill-opacity:1"
       inkscape:connector-curvature="0" />
    <path
       d="m 67.172397,94.7276 c 0.812,-1.709 1.541,-2.564 2.188,-2.564 0.505,0 0.758,0.5 0.758,1.501 l 0.007,0.413 c 0,0.478 0.024,0.808 0.073,0.991 0.049,0.183 0.139,0.274 0.269,0.274 0.196,0 0.419,-0.155 0.669,-0.466 0.249,-0.31 0.655,-0.935 1.219,-1.872 l 0.287,0.166 c -0.502,0.945 -0.951,1.646 -1.349,2.104 -0.396,0.457 -0.753,0.686 -1.067,0.686 -0.29,0 -0.493,-0.14 -0.611,-0.42 -0.117,-0.279 -0.176,-0.764 -0.176,-1.453 l 0,-0.293 c 0,-0.373 -0.024,-0.636 -0.072,-0.787 -0.048,-0.15 -0.132,-0.227 -0.251,-0.227 -0.302,0 -0.789,0.6 -1.46,1.798 -0.165,0.294 -0.271,0.482 -0.319,0.566 -0.177,0.305 -0.265,0.525 -0.265,0.662 0,0.055 0.016,0.106 0.045,0.157 -0.131,0.055 -0.242,0.082 -0.334,0.082 -0.229,0 -0.344,-0.127 -0.344,-0.383 0,-0.072 0.03,-0.4 0.09,-0.983 l 0.077,-0.741 c 0.034,-0.314 0.052,-0.559 0.052,-0.731 0,-0.241 -0.056,-0.432 -0.167,-0.57 0.048,-0.017 0.128,-0.044 0.24,-0.084 0.142,-0.052 0.255,-0.077 0.339,-0.077 0.179,0 0.268,0.13 0.268,0.389 0,0.137 -0.018,0.371 -0.053,0.703 -0.007,0.072 -0.014,0.143 -0.021,0.208 l -0.092,0.951 z"
       id="path10053"
       style="fill:#ffffff;fill-opacity:1"
       inkscape:connector-curvature="0" />
    <path
       d="m 75.732397,93.1626 c -0.515,0.902 -1.035,1.609 -1.561,2.118 -0.526,0.51 -0.998,0.765 -1.417,0.765 -0.255,0 -0.461,-0.083 -0.616,-0.25 -0.156,-0.166 -0.234,-0.385 -0.234,-0.656 0,-0.103 0.022,-0.266 0.068,-0.489 l 0.076,-0.376 c 0.111,-0.543 0.168,-0.924 0.168,-1.143 0,-0.13 -0.039,-0.236 -0.117,-0.318 0.297,-0.068 0.483,-0.102 0.559,-0.102 0.169,0 0.254,0.118 0.254,0.355 0,0.175 -0.033,0.427 -0.101,0.755 l -0.135,0.667 c -0.067,0.32 -0.101,0.529 -0.101,0.625 0,0.283 0.119,0.424 0.358,0.424 0.285,0 0.664,-0.24 1.138,-0.72 0.474,-0.48 0.933,-1.087 1.377,-1.823 l 0.284,0.168 z m -3.038,-1.722 0.048,0.003 c 0.152,-0.007 0.371,-0.083 0.658,-0.23 0.285,-0.146 0.51,-0.296 0.671,-0.448 -0.1,0.314 -0.278,0.577 -0.533,0.789 -0.388,0.322 -0.65,0.484 -0.787,0.484 -0.091,0 -0.137,-0.056 -0.137,-0.168 0,-0.16 0.026,-0.303 0.08,-0.43 z"
       id="path10060"
       style="fill:#ffffff;fill-opacity:1"
       inkscape:connector-curvature="0" />
    <path
       d="m 75.927397,94.7566 c 0.823,-1.729 1.551,-2.594 2.182,-2.594 0.276,0 0.415,0.199 0.415,0.598 0,0.17 -0.061,0.555 -0.183,1.153 l -0.21,1.034 c 0.398,-0.838 0.813,-1.512 1.246,-2.021 0.433,-0.509 0.806,-0.764 1.12,-0.764 0.346,0 0.519,0.203 0.519,0.607 0,0.146 -0.051,0.48 -0.152,1.002 l -0.104,0.532 c -0.063,0.321 -0.095,0.56 -0.095,0.714 0,0.273 0.097,0.41 0.29,0.41 0.438,0 1.109,-0.812 2.017,-2.434 l 0.287,0.16 c -0.988,1.927 -1.852,2.891 -2.59,2.891 -0.472,0 -0.707,-0.308 -0.707,-0.923 0,-0.205 0.045,-0.534 0.134,-0.988 l 0.093,-0.472 c 0.062,-0.319 0.094,-0.518 0.094,-0.596 0,-0.098 -0.05,-0.146 -0.15,-0.146 -0.246,0 -0.687,0.488 -1.321,1.467 -0.576,0.891 -0.864,1.4 -0.864,1.527 0,0.014 0.005,0.038 0.014,0.072 -0.031,0.006 -0.088,0.021 -0.167,0.043 -0.034,0.01 -0.086,0.016 -0.153,0.016 -0.213,0 -0.318,-0.102 -0.318,-0.304 0,-0.062 0.034,-0.247 0.104,-0.557 0.025,-0.111 0.051,-0.23 0.076,-0.358 l 0.146,-0.724 c 0.106,-0.521 0.159,-0.833 0.159,-0.938 0,-0.152 -0.056,-0.229 -0.168,-0.229 -0.246,0 -0.607,0.44 -1.086,1.322 -0.477,0.874 -0.715,1.396 -0.715,1.564 0,0.048 0.018,0.094 0.054,0.14 -0.126,0.056 -0.241,0.083 -0.346,0.083 -0.237,0 -0.356,-0.127 -0.356,-0.383 0,-0.031 0.033,-0.363 0.101,-0.994 l 0.078,-0.728 c 0.026,-0.255 0.04,-0.49 0.04,-0.707 0,-0.272 -0.055,-0.474 -0.165,-0.601 0.264,-0.096 0.45,-0.143 0.56,-0.143 0.2,0 0.301,0.118 0.301,0.354 0,0.084 -0.027,0.396 -0.081,0.937 l -0.099,0.978 z"
       id="path10067"
       style="fill:#ffffff;fill-opacity:1"
       inkscape:connector-curvature="0" />
    <path
       d="m 82.500397,95.1416 0.247,-0.048 c 0.165,-0.032 0.285,-0.048 0.36,-0.048 0.199,0 0.299,0.104 0.299,0.311 0,0.082 -0.012,0.182 -0.034,0.298 l -0.044,0.232 -0.156,0.027 c -0.223,0.041 -0.355,0.062 -0.398,0.062 -0.162,0 -0.242,-0.084 -0.242,-0.253 0,-0.046 0.005,-0.09 0.014,-0.134 l 0.018,-0.088 c 0.009,-0.039 0.014,-0.08 0.014,-0.123 -0.002,-0.094 -0.027,-0.172 -0.078,-0.236 z"
       id="path10074"
       style="fill:#ffffff;fill-opacity:1"
       inkscape:connector-curvature="0" />
    <path
       sodipodi:nodetypes="cscscssc"
       inkscape:connector-curvature="0"
       id="path6081"
       d="m 113.9,82.502986 c 0,4.465301 -5.09749,6.009952 -7.57972,7.693625 -5.10854,3.46508 -16.139114,2.12536 -21.920284,2.20638 -0.081,5.781159 1.66586,17.304599 -1.79922,22.413139 -1.68367,2.48224 -4.69051,7.98687 -7.60078,7.98687 -2.091359,1.5337 3.488204,11.21101 6.734971,8.31989 9.501888,-8.46107 45.998943,-30.20138 54.218083,-39.441569 2.04044,-2.29392 -17.0724,-11.965986 -22.05305,-9.178335 z"
       style="opacity:0.40099009;fill:#000000;fill-opacity:1;stroke:none;filter:url(#filter6118-4)"
       clip-path="url(#clipPath6093-7)"
       transform="matrix(1.3299764,0,0,1.3299764,-36.963543,-37.156423)" />
    <path
       style="fill:url(#linearGradient3895-3);fill-opacity:1;stroke:none"
       d="m 111.99381,72.570604 c 0,5.938743 -3.72059,8.525082 -7.0219,10.764323 -6.794238,4.608475 -19.95169,4.558319 -27.64051,4.666073 -0.107728,7.688805 0.303611,20.48508 -4.304863,27.27932 -2.239241,3.30132 -7.036253,7.16441 -10.906844,7.16441 3.082925,0 6.307865,-1.7752 10.086567,-5.4327 12.158605,-11.76861 23.097887,-21.459634 34.14469,-33.645117 2.55216,-2.815215 5.64286,-4.843615 5.64286,-10.796309 z"
       id="path6011"
       inkscape:connector-curvature="0"
       sodipodi:nodetypes="cscscssc" />
    <path
       style="fill:#ffffff;fill-opacity:1;stroke:none"
       d="m 112.01875,73.115242 c -0.42084,5.185724 -5.08438,7.318602 -8.17936,9.417895 C 98.818947,85.938464 82.6646,85.3344 74.6648,85.3344 c 0,7.9998 1.619153,23.49711 -2.7864,30.22372 -1.912401,2.91993 -4.654194,5.79882 -8.19598,6.58338 2.633964,-0.48185 5.299865,-2.47561 8.470288,-5.54435 0.451018,-0.51674 0.763801,-0.90298 1.471286,-1.99496 4.608475,-6.79423 4.099678,-18.412383 4.207406,-26.10119 7.68882,-0.107728 20.028368,-0.145785 26.8226,-4.754259 0.619,-0.41986 2.51897,-1.313671 3.06727,-1.861967 2.04322,-2.043229 3.9922,-4.273773 4.29748,-8.769532 z M 63.68242,122.1415 c -0.209681,0.0464 -0.416863,0.0551 -0.623426,0.0831 0.208794,-0.0225 0.412882,-0.0446 0.623426,-0.0831 z"
       id="path6122"
       inkscape:connector-curvature="0"
       sodipodi:nodetypes="cscsccccsscccc" />
    <path
       style="fill:none;stroke:url(#radialGradient3919-5);stroke-width:1.20000005;stroke-linecap:butt;stroke-linejoin:miter;stroke-miterlimit:4;stroke-opacity:1;stroke-dasharray:none;filter:url(#filter3909-6)"
       d="M 117.31456,81.861283 72.639105,125.34835"
       id="path3873"
       inkscape:connector-curvature="0"
       sodipodi:nodetypes="cc"
       clip-path="url(#clipPath3889-6)"
       transform="matrix(1.3299764,0,0,1.3299764,-36.963543,-37.156423)" />
    <rect
       y="101.334"
       x="26.666"
       height="10.666401"
       width="45.332199"
       id="rect5149"
       style="fill:#5fbaff;fill-opacity:1;stroke:none" />
    <path
       inkscape:connector-curvature="0"
       style="fill:#ffffff;fill-opacity:1"
       id="path5151"
       d="m 26.746397,107.3498 c -0.055,-0.118 -0.082,-0.24 -0.082,-0.366 0,-0.409 0.313,-0.776 0.939,-1.102 0.627,-0.324 1.336,-0.486 2.129,-0.486 0.834,0 1.49,0.185 1.97,0.555 0.479,0.369 0.72,0.875 0.72,1.519 0,0.854 -0.372,1.608 -1.117,2.261 -0.395,0.345 -0.887,0.627 -1.478,0.846 -0.591,0.219 -1.157,0.328 -1.696,0.328 -0.52,0 -0.779,-0.195 -0.779,-0.586 0,-0.141 0.044,-0.434 0.133,-0.876 l 0.442,-2.235 c 0.038,-0.191 0.058,-0.33 0.058,-0.414 0,-0.08 -0.027,-0.153 -0.082,-0.22 0.305,-0.114 0.516,-0.171 0.635,-0.171 0.142,0 0.213,0.082 0.213,0.246 0,0.039 -0.037,0.238 -0.109,0.6 l -0.375,1.872 c -0.094,0.478 -0.141,0.777 -0.141,0.9 0,0.137 0.046,0.229 0.139,0.278 0.092,0.049 0.266,0.073 0.521,0.074 0.828,-0.001 1.521,-0.254 2.079,-0.758 0.558,-0.504 0.838,-1.129 0.839,-1.875 -0.001,-0.577 -0.204,-1.039 -0.609,-1.385 -0.405,-0.347 -0.945,-0.521 -1.619,-0.521 -0.55,0.001 -1.062,0.134 -1.537,0.398 -0.477,0.263 -0.874,0.636 -1.193,1.118 z" />
    <path
       inkscape:connector-curvature="0"
       style="fill:#ffffff;fill-opacity:1"
       id="path5153"
       d="m 36.715397,108.0678 c 0.006,0.055 0.01,0.104 0.01,0.146 0,0.658 -0.224,1.231 -0.67,1.721 -0.446,0.49 -0.969,0.734 -1.568,0.734 -0.457,0 -0.83,-0.146 -1.119,-0.438 -0.287,-0.292 -0.432,-0.672 -0.432,-1.138 0,-0.531 0.187,-0.99 0.56,-1.379 0.372,-0.39 0.812,-0.584 1.318,-0.584 0.077,0 0.16,0.01 0.246,0.03 -0.057,-0.103 -0.085,-0.19 -0.085,-0.261 0,-0.11 0.037,-0.216 0.112,-0.316 0.556,0.046 1.017,0.331 1.386,0.855 0.379,0.258 0.773,0.387 1.184,0.387 0.268,0 0.556,-0.09 0.866,-0.271 l 0.171,0.291 c -0.363,0.252 -0.735,0.378 -1.116,0.378 -0.254,10e-4 -0.542,-0.052 -0.863,-0.155 z m -0.775,-0.29 c -0.188,-0.058 -0.363,-0.148 -0.522,-0.274 -0.115,-0.023 -0.212,-0.036 -0.289,-0.037 -0.386,10e-4 -0.729,0.175 -1.026,0.522 -0.297,0.347 -0.447,0.744 -0.448,1.189 10e-4,0.323 0.092,0.589 0.271,0.796 0.179,0.207 0.412,0.312 0.696,0.312 0.384,-10e-4 0.714,-0.195 0.991,-0.582 0.276,-0.387 0.415,-0.849 0.416,-1.385 -0.001,-0.186 -0.03,-0.367 -0.089,-0.541 z" />
    <path
       inkscape:connector-curvature="0"
       style="fill:#ffffff;fill-opacity:1"
       id="path5155"
       d="m 38.878397,109.3508 c 0.812,-1.709 1.54,-2.564 2.188,-2.564 0.505,0 0.758,0.5 0.758,1.501 l 0.007,0.413 c 0,0.478 0.024,0.808 0.073,0.991 0.049,0.183 0.139,0.274 0.269,0.274 0.196,0 0.419,-0.155 0.669,-0.466 0.249,-0.31 0.655,-0.935 1.219,-1.872 l 0.287,0.166 c -0.502,0.945 -0.951,1.646 -1.349,2.104 -0.396,0.457 -0.753,0.686 -1.067,0.686 -0.29,0 -0.493,-0.14 -0.61,-0.42 -0.118,-0.279 -0.177,-0.764 -0.177,-1.453 l 0,-0.293 c 0,-0.373 -0.024,-0.636 -0.072,-0.787 -0.048,-0.15 -0.132,-0.227 -0.251,-0.227 -0.302,0 -0.789,0.6 -1.46,1.798 -0.165,0.294 -0.271,0.482 -0.319,0.566 -0.177,0.305 -0.265,0.525 -0.265,0.662 0,0.055 0.015,0.106 0.046,0.157 -0.133,0.055 -0.244,0.082 -0.334,0.082 -0.23,0 -0.345,-0.127 -0.345,-0.383 0,-0.072 0.03,-0.4 0.091,-0.983 l 0.076,-0.741 c 0.034,-0.314 0.052,-0.559 0.052,-0.731 0,-0.241 -0.056,-0.432 -0.167,-0.57 0.048,-0.017 0.128,-0.044 0.24,-0.084 0.142,-0.052 0.255,-0.077 0.339,-0.077 0.179,0 0.268,0.13 0.268,0.389 0,0.137 -0.018,0.371 -0.053,0.703 -0.007,0.072 -0.014,0.143 -0.021,0.208 l -0.092,0.951 z" />
    <path
       inkscape:connector-curvature="0"
       style="fill:#ffffff;fill-opacity:1"
       id="path5157"
       d="m 44.087397,109.1588 c 0,0.668 0.282,1.002 0.847,1.002 0.49,0 1.029,-0.233 1.619,-0.701 0.59,-0.467 1.122,-1.082 1.596,-1.846 l 0.29,0.16 c -0.446,0.836 -1.026,1.526 -1.741,2.074 -0.714,0.547 -1.391,0.82 -2.031,0.82 -0.41,0 -0.734,-0.133 -0.972,-0.396 -0.238,-0.265 -0.357,-0.627 -0.357,-1.085 0,-0.661 0.216,-1.227 0.647,-1.696 0.433,-0.471 0.953,-0.705 1.562,-0.705 0.294,0 0.529,0.074 0.706,0.223 0.176,0.148 0.265,0.346 0.265,0.595 0,0.408 -0.245,0.77 -0.736,1.084 -0.493,0.315 -1.058,0.471 -1.695,0.471 z m 0.027,-0.328 c 0.477,-0.024 0.886,-0.161 1.227,-0.41 0.341,-0.248 0.512,-0.535 0.512,-0.861 0,-0.291 -0.13,-0.438 -0.39,-0.438 -0.311,0 -0.597,0.166 -0.859,0.499 -0.262,0.333 -0.426,0.737 -0.49,1.21 z" />
    <path
       inkscape:connector-curvature="0"
       style="fill:#ffffff;fill-opacity:1"
       id="path5159"
       d="m 52.431397,107.7918 c -0.552,0.926 -1.136,1.655 -1.754,2.188 -0.617,0.533 -1.19,0.799 -1.719,0.799 -0.44,0 -0.797,-0.15 -1.07,-0.452 -0.273,-0.301 -0.41,-0.692 -0.41,-1.175 0,-0.634 0.235,-1.187 0.707,-1.658 0.472,-0.471 1.025,-0.707 1.661,-0.707 0.258,0 0.469,0.05 0.634,0.149 0.165,0.099 0.248,0.226 0.248,0.379 0,0.252 -0.212,0.44 -0.636,0.566 0.022,-0.055 0.034,-0.107 0.034,-0.157 0,-0.37 -0.196,-0.555 -0.59,-0.555 -0.34,0 -0.654,0.189 -0.941,0.57 -0.286,0.379 -0.43,0.795 -0.43,1.246 0,0.368 0.096,0.668 0.285,0.898 0.191,0.232 0.438,0.348 0.744,0.348 0.84,0 1.822,-0.87 2.949,-2.611 l 0.288,0.172 z" />
    <path
       inkscape:connector-curvature="0"
       style="fill:#ffffff;fill-opacity:1"
       id="path5161"
       d="m 56.782397,108.4948 c -0.292,0.604 -0.652,1.117 -1.081,1.54 -0.428,0.423 -0.801,0.634 -1.118,0.634 -0.242,0 -0.436,-0.107 -0.58,-0.323 -0.146,-0.216 -0.218,-0.503 -0.218,-0.86 0,-0.714 0.216,-1.342 0.648,-1.885 0.432,-0.543 0.934,-0.814 1.502,-0.814 0.345,0 0.718,0.107 1.119,0.322 0.06,-0.213 0.301,-0.318 0.724,-0.318 0.027,0 0.071,10e-4 0.133,0.003 -0.13,0.198 -0.229,0.47 -0.297,0.815 l -0.059,0.291 c -0.065,0.324 -0.099,0.703 -0.099,1.137 0,0.5 0.116,0.75 0.349,0.75 0.245,0 0.582,-0.206 1.009,-0.618 0.428,-0.411 0.847,-0.937 1.259,-1.573 l 0.267,0.186 c -0.421,0.753 -0.902,1.381 -1.444,1.884 -0.542,0.503 -1.007,0.755 -1.396,0.755 -0.491,0 -0.737,-0.41 -0.737,-1.232 -10e-4,-0.173 0.005,-0.404 0.019,-0.694 z m 0.16,-0.818 c -0.48,-0.312 -0.879,-0.469 -1.197,-0.469 -0.345,0 -0.644,0.209 -0.896,0.627 -0.251,0.418 -0.377,0.914 -0.377,1.488 0,0.459 0.15,0.689 0.453,0.689 0.326,0 0.952,-0.715 1.876,-2.145 0.012,-0.016 0.059,-0.081 0.141,-0.19 z" />
    <path
       inkscape:connector-curvature="0"
       style="fill:#ffffff;fill-opacity:1"
       id="path5163"
       d="m 63.177397,107.8018 c -0.472,0.895 -0.945,1.596 -1.422,2.104 -0.476,0.509 -0.897,0.763 -1.265,0.763 -0.267,0 -0.481,-0.104 -0.646,-0.309 -0.164,-0.207 -0.246,-0.477 -0.246,-0.809 0,-0.187 0.034,-0.451 0.103,-0.793 l 0.679,-3.423 c -0.089,0.014 -0.166,0.021 -0.231,0.021 -0.523,0 -0.784,-0.221 -0.784,-0.663 l 0,-0.079 c 0.273,0.156 0.582,0.234 0.926,0.234 0.345,0 0.645,-0.086 0.902,-0.258 l -0.792,4.119 c -0.071,0.369 -0.106,0.624 -0.106,0.764 0,0.385 0.142,0.578 0.424,0.578 0.272,0 0.548,-0.154 0.824,-0.463 0.277,-0.31 0.73,-0.968 1.361,-1.976 l 0.273,0.19 z" />
    <path
       inkscape:connector-curvature="0"
       style="fill:#ffffff;fill-opacity:1"
       id="path5165"
       d="m 66.278397,107.7858 c -0.515,0.902 -1.035,1.609 -1.561,2.118 -0.526,0.51 -0.998,0.765 -1.417,0.765 -0.255,0 -0.461,-0.083 -0.617,-0.25 -0.155,-0.166 -0.233,-0.385 -0.233,-0.656 0,-0.103 0.022,-0.266 0.068,-0.489 l 0.076,-0.376 c 0.112,-0.543 0.168,-0.924 0.168,-1.143 0,-0.13 -0.039,-0.236 -0.116,-0.318 0.297,-0.068 0.482,-0.102 0.558,-0.102 0.169,0 0.254,0.118 0.254,0.355 0,0.175 -0.033,0.427 -0.101,0.755 l -0.135,0.667 c -0.067,0.32 -0.101,0.529 -0.101,0.625 0,0.283 0.119,0.424 0.358,0.424 0.285,0 0.664,-0.24 1.138,-0.72 0.474,-0.48 0.933,-1.087 1.377,-1.823 l 0.284,0.168 z m -3.038,-1.722 0.048,0.003 c 0.152,-0.007 0.372,-0.083 0.657,-0.23 0.286,-0.146 0.511,-0.296 0.672,-0.448 -0.1,0.314 -0.278,0.577 -0.533,0.789 -0.388,0.322 -0.65,0.484 -0.787,0.484 -0.091,0 -0.137,-0.056 -0.137,-0.168 0,-0.16 0.026,-0.303 0.08,-0.43 z" />
    <path
       inkscape:connector-curvature="0"
       style="fill:#ffffff;fill-opacity:1"
       id="path5167"
       d="m 68.230397,108.5708 c -0.787,1.398 -1.508,2.098 -2.165,2.098 -0.241,0 -0.434,-0.107 -0.577,-0.323 -0.145,-0.216 -0.216,-0.503 -0.216,-0.864 0,-0.713 0.215,-1.341 0.645,-1.883 0.43,-0.541 0.929,-0.812 1.496,-0.812 0.338,0 0.707,0.107 1.108,0.322 0.065,-0.209 0.322,-0.314 0.77,-0.314 l 0.099,0 c -0.132,0.221 -0.229,0.486 -0.291,0.797 l -0.804,4.042 c -0.057,0.285 -0.085,0.533 -0.085,0.745 0,0.135 0.029,0.256 0.089,0.365 -0.23,0.076 -0.406,0.113 -0.527,0.113 -0.187,0 -0.28,-0.107 -0.28,-0.321 0,-0.166 0.038,-0.438 0.113,-0.816 l 0.625,-3.149 z m 0.178,-0.895 c -0.477,-0.312 -0.872,-0.468 -1.185,-0.468 -0.343,0 -0.639,0.209 -0.889,0.629 -0.25,0.419 -0.375,0.914 -0.375,1.486 0,0.459 0.149,0.689 0.448,0.689 0.327,0 0.951,-0.715 1.873,-2.146 0.013,-0.019 0.055,-0.083 0.128,-0.19 z" />
  </g>
</svg>
