<?xml version="1.0" encoding="UTF-8" standalone="no"?>
<!-- Created with Inkscape (http://www.inkscape.org/) -->
<svg id="svg3978" xmlns:rdf="http://www.w3.org/1999/02/22-rdf-syntax-ns#" xmlns="http://www.w3.org/2000/svg" height="48px" width="48px" version="1.1" xmlns:cc="http://creativecommons.org/ns#" xmlns:dc="http://purl.org/dc/elements/1.1/">
 <metadata id="metadata3983">
  <rdf:RDF>
   <cc:Work rdf:about="">
    <dc:format>image/svg+xml</dc:format>
    <dc:type rdf:resource="http://purl.org/dc/dcmitype/StillImage"/>
    <dc:title/>
   </cc:Work>
  </rdf:RDF>
 </metadata>
 <g id="layer1">
  <path id="path3957" style="baseline-shift:baseline;block-progression:tb;color:#000000;direction:ltr;text-indent:0;text-align:start;enable-background:accumulate;text-transform:none;" fill="#08F" d="m2E-7,23,0,2h48v-2h-48z"/>
  <path id="path3937" d="m16.938,27.547c-3.7268,3.7269-9.2979,5.9767-16.937,6.5v5c8.7043-0.541,15.624-3.125,20.468-7.969l-3.531-3.531zm-16.938-18.563v5c7.6396,0.52328,13.211,2.7731,16.937,6.5l10.594,10.594c4.844,4.844,11.764,7.428,20.469,7.969v-5c-7.6396-0.52328-13.211-2.7731-16.938-6.5l-10.594-10.625c-4.763-4.764-11.526-7.3055-20.03-7.9064-0.1439-0.0101-0.29267-0.0221-0.4375-0.0312zm48-0.0313c-8.7053,0.5405-15.625,3.1245-20.469,7.9688l3.5312,3.5625c3.7268-3.7269,9.2979-5.9767,16.938-6.5v-5.0312z" fill="#000"/>
 </g>
</svg>
