<?xml version="1.0" encoding="UTF-8" standalone="no"?>
<!-- Created with Inkscape (http://www.inkscape.org/) -->

<svg
   xmlns:dc="http://purl.org/dc/elements/1.1/"
   xmlns:cc="http://creativecommons.org/ns#"
   xmlns:rdf="http://www.w3.org/1999/02/22-rdf-syntax-ns#"
   xmlns:svg="http://www.w3.org/2000/svg"
   xmlns="http://www.w3.org/2000/svg"
   version="1.1"
   width="64"
   height="64"
   id="svg3870">
  <defs
     id="defs3872" />
  <metadata
     id="metadata3875">
    <rdf:RDF>
      <cc:Work
         rdf:about="">
        <dc:format>image/svg+xml</dc:format>
        <dc:type
           rdf:resource="http://purl.org/dc/dcmitype/StillImage" />
        <dc:title></dc:title>
      </cc:Work>
    </rdf:RDF>
  </metadata>
  <g
     id="layer1">
    <g
       transform="matrix(0,1,-1,0,64.109375,-1.2357405)"
       id="g4559">
      <path
         d="M 42.40625,1.71875 40.90625,4.3125 42.21875,5.0625 46.09375,7.3125 26.0625,18.875 26.0625,3.75 26.0625,2.25 23.0625,2.25 23.0625,3.75 23.0625,18.90625 6.875,9.5625 5.59375,8.8125 4.09375,11.40625 5.375,12.15625 21.53125,21.5 5.375,30.8125 4.09375,31.5625 5.59375,34.15625 6.875,33.40625 23.0625,24.0625 23.0625,47.25 6.875,37.90625 5.59375,37.15625 4.09375,39.75 5.375,40.5 21.53125,49.8125 5.375,59.15625 6.875,61.75 23.0625,52.40625 23.0625,56.90625 23.0625,58.40625 26.0625,58.40625 26.0625,56.90625 26.0625,52.4375 42.21875,61.75 43.5,62.5 45,59.90625 43.71875,59.15625 27.53125,49.8125 47.59375,38.25 47.59375,56.90625 47.59375,58.40625 50.59375,58.40625 50.59375,56.90625 50.59375,38.25 57.5625,42.28125 58.84375,43.03125 60.34375,40.40625 59.0625,39.65625 52.125,35.65625 62.125,29.875 60.625,27.28125 50.59375,33.0625 50.59375,9.90625 60.625,15.6875 61.90625,16.4375 63.40625,13.84375 62.125,13.09375 52.09375,7.3125 56,5.0625 57.28125,4.3125 55.78125,1.71875 54.5,2.46875 50.59375,4.71875 50.59375,3.75 50.59375,2.25 47.59375,2.25 47.59375,3.75 47.59375,4.71875 43.71875,2.46875 42.40625,1.71875 z M 47.59375,9.90625 47.59375,33.03125 27.53125,21.46875 47.59375,9.90625 z M 26.0625,24.09375 46.09375,35.65625 26.0625,47.21875 26.0625,24.09375 z"
         id="path3880"
         style="font-size:medium;font-style:normal;font-variant:normal;font-weight:normal;font-stretch:normal;text-indent:0;text-align:start;text-decoration:none;line-height:normal;letter-spacing:normal;word-spacing:normal;text-transform:none;direction:ltr;block-progression:tb;writing-mode:lr-tb;text-anchor:start;baseline-shift:baseline;color:#000000;fill:#aeaeae;fill-opacity:1;stroke:none;stroke-width:3;marker:none;visibility:visible;display:inline;overflow:visible;enable-background:accumulate;font-family:Sans;-inkscape-font-specification:Sans" />
      <path
         d="M 5.78125,9.5 6.625,10 22.8125,19.34375 23.5625,19.78125 23.5625,18.90625 23.5625,3.75 23.5625,2.75 23.5625,1.75 22.5625,1.75 22.5625,2.25 22.5625,3.75 22.5625,18.03125 7.125,9.125 5.84375,8.375 5.40625,8.125 4.9093887,8.9856348 z M 3.9016566,10.731171 3.40625,11.59375 3.84375,11.84375 5.125,12.59375 20.53125,21.5 5.125,30.375 3.84375,31.125 3.40625,31.375 3.9060368,32.240702 4.78125,31.75 5.625,31.25 21.78125,21.9375 22.53125,21.5 21.78125,21.0625 5.625,11.71875 4.78125,11.21875 z M 4.9065605,33.973752 5.40625,34.84375 5.84375,34.59375 7.125,33.84375 22.5625,24.9375 22.5625,46.375 7.125,37.46875 5.84375,36.71875 5.40625,36.46875 4.9048405,37.341727 5.78125,37.84375 6.625,38.34375 22.8125,47.6875 23.5625,48.125 23.5625,47.25 23.5625,24.0625 23.5625,23.1875 22.8125,23.625 6.625,32.96875 5.78125,33.46875 z M 3.9106396,39.063825 3.40625,39.9375 3.84375,40.1875 5.125,40.9375 20.53125,49.8125 5.125,58.71875 4.6875,58.96875 5.1996528,59.860336 6.0625,59.34375 21.78125,50.25 22.53125,49.8125 21.78125,49.375 5.625,40.0625 4.78125,39.5625 z M 6.1938537,61.582434 6.6875,62.4375 7.125,62.1875 22.5625,53.28125 22.5625,56.90625 22.5625,58.40625 22.5625,58.90625 23.5625,58.90625 23.5625,57.90625 23.5625,56.90625 23.5625,52.40625 23.5625,51.53125 22.8125,51.96875 7.0625,61.0625 z M 25.5625,58.90625 26.5625,58.90625 26.5625,58.40625 26.5625,56.90625 26.5625,53.3125 41.96875,62.1875 43.25,62.9375 43.6875,63.1875 44.188638,62.318339 43.3125,61.8125 42.46875,61.3125 26.3125,52 25.5625,51.5625 25.5625,52.4375 25.5625,56.90625 25.5625,57.90625 z M 45.181879,60.595686 45.6875,59.71875 45.25,59.46875 43.96875,58.71875 28.53125,49.8125 47.09375,39.125 47.09375,56.90625 47.09375,58.40625 47.09375,58.90625 48.09375,58.90625 48.09375,57.90625 48.09375,56.90625 48.09375,38.25 48.09375,37.375 47.34375,37.8125 27.28125,49.375 26.53125,49.8125 27.28125,50.25 43.46875,59.59375 44.3125,60.09375 z M 50.09375,58.90625 51.09375,58.90625 51.09375,58.40625 51.09375,56.90625 51.09375,39.125 57.3125,42.71875 58.59375,43.46875 59.03125,43.71875 59.529024,42.847646 58.65625,42.34375 57.8125,41.84375 50.84375,37.8125 50.09375,37.375 50.09375,38.25 50.09375,56.90625 50.09375,57.90625 z M 60.529024,41.097646 61.03125,40.21875 60.59375,39.96875 59.3125,39.21875 53.125,35.65625 62.375,30.3125 62.8125,30.0625 62.307995,29.184919 61.4375,29.6875 51.875,35.21875 51.125,35.65625 51.875,36.09375 58.8125,40.09375 59.65625,40.59375 z M 61.312512,27.463562 60.8125,26.59375 60.375,26.84375 51.09375,32.1875 51.09375,10.78125 60.375,16.125 61.65625,16.875 62.09375,17.125 62.593652,16.255378 61.71875,15.75 60.875,15.25 50.84375,9.46875 50.09375,9.03125 50.09375,9.90625 50.09375,33.0625 50.09375,33.9375 50.84375,33.5 60.4375,27.96875 z M 63.589136,14.53402 64.09375,13.65625 63.65625,13.40625 62.375,12.65625 53.09375,7.3125 56.25,5.5 57.53125,4.75 57.96875,4.5 57.467341,3.6277715 56.59375,4.125 55.75,4.625 51.84375,6.875 51.09375,7.3125 51.84375,7.75 61.875,13.53125 62.71875,14.03125 z M 56.468816,1.9011565 55.96875,1.03125 55.53125,1.28125 54.25,2.03125 51.09375,3.84375 51.09375,3.75 51.09375,2.25 51.09375,1.75 50.09375,1.75 50.09375,2.75 50.09375,3.75 50.09375,4.71875 50.09375,5.59375 50.84375,5.15625 54.75,2.90625 55.59375,2.40625 z M 40.725196,3.6216333 40.21875,4.5 40.65625,4.75 41.96875,5.5 45.09375,7.3125 26.5625,18 26.5625,3.75 26.5625,2.25 26.5625,1.75 25.5625,1.75 25.5625,2.75 25.5625,3.75 25.5625,18.875 25.5625,19.75 26.3125,19.3125 46.34375,7.75 47.09375,7.3125 46.34375,6.875 42.46875,4.625 41.59375,4.125 z M 42.59375,2.40625 43.46875,2.90625 47.34375,5.15625 48.09375,5.59375 48.09375,4.71875 48.09375,3.75 48.09375,2.75 48.09375,1.75 47.09375,1.75 47.09375,2.25 47.09375,3.75 47.09375,3.84375 43.96875,2.03125 42.65625,1.28125 42.21875,1.03125 41.718443,1.8989698 z M 48.09375,9.03125 47.34375,9.46875 27.28125,21.03125 26.53125,21.46875 27.28125,21.90625 47.34375,33.46875 48.09375,33.90625 48.09375,33.03125 48.09375,9.90625 z M 47.09375,10.78125 47.09375,32.15625 28.53125,21.46875 z M 25.5625,23.21875 25.5625,24.09375 25.5625,47.21875 25.5625,48.09375 26.3125,47.65625 46.34375,36.09375 47.09375,35.65625 46.34375,35.21875 26.3125,23.65625 z M 26.5625,24.96875 45.09375,35.65625 26.5625,46.34375 z"
         id="path4437"
         style="font-size:medium;font-style:normal;font-variant:normal;font-weight:normal;font-stretch:normal;text-indent:0;text-align:start;text-decoration:none;line-height:normal;letter-spacing:normal;word-spacing:normal;text-transform:none;direction:ltr;block-progression:tb;writing-mode:lr-tb;text-anchor:start;baseline-shift:baseline;color:#000000;fill:#7b7b7b;fill-opacity:1;stroke:none;stroke-width:1;marker:none;visibility:visible;display:inline;overflow:visible;enable-background:accumulate;font-family:Sans;-inkscape-font-specification:Sans" />
      <path
         d="M 58.84375,56.625 57.5625,57.375 54.5,59.15625 53.1875,59.90625 54.6875,62.5 56,61.75 59.0625,59.96875 60.34375,59.21875 58.84375,56.625 z"
         id="path4499"
         style="font-size:medium;font-style:normal;font-variant:normal;font-weight:normal;font-stretch:normal;text-indent:0;text-align:start;text-decoration:none;line-height:normal;letter-spacing:normal;word-spacing:normal;text-transform:none;direction:ltr;block-progression:tb;writing-mode:lr-tb;text-anchor:start;baseline-shift:baseline;color:#000000;fill:#aeaeae;fill-opacity:1;fill-rule:nonzero;stroke:none;stroke-width:3;marker:none;visibility:visible;display:inline;overflow:visible;enable-background:accumulate;font-family:Sans;-inkscape-font-specification:Sans" />
      <path
         d="M 53.875,60.09375 54.75,59.59375 57.8125,57.8125 58.65625,57.3125 59.532396,56.806657 59.03125,55.9375 58.59375,56.1875 57.3125,56.9375 54.25,58.71875 52.9375,59.46875 52.5,59.71875 53.000005,60.578134 z M 54.000005,62.296884 54.5,63.1875 54.9375,62.9375 56.25,62.1875 59.3125,60.40625 60.59375,59.65625 61.03125,59.40625 60.532396,58.525407 59.65625,59.03125 58.8125,59.53125 55.75,61.3125 54.875,61.8125 z"
         id="path4507"
         style="font-size:medium;font-style:normal;font-variant:normal;font-weight:normal;font-stretch:normal;text-indent:0;text-align:start;text-decoration:none;line-height:normal;letter-spacing:normal;word-spacing:normal;text-transform:none;direction:ltr;block-progression:tb;writing-mode:lr-tb;text-anchor:start;baseline-shift:baseline;color:#000000;fill:#7b7b7b;fill-opacity:1;fill-rule:nonzero;stroke:none;stroke-width:1;marker:none;visibility:visible;display:inline;overflow:visible;enable-background:accumulate;font-family:Sans;-inkscape-font-specification:Sans" />
    </g>
  </g>
</svg>
