<?xml version="1.0" encoding="UTF-8" standalone="no"?>
<svg
   xmlns:dc="http://purl.org/dc/elements/1.1/"
   xmlns:cc="http://creativecommons.org/ns#"
   xmlns:rdf="http://www.w3.org/1999/02/22-rdf-syntax-ns#"
   xmlns:svg="http://www.w3.org/2000/svg"
   xmlns="http://www.w3.org/2000/svg"
   xmlns:sodipodi="http://sodipodi.sourceforge.net/DTD/sodipodi-0.dtd"
   xmlns:inkscape="http://www.inkscape.org/namespaces/inkscape"
   version="1.2"
   id="svg3958"
   inkscape:version="0.48.2 r9819"
   width="64"
   height="64"
   sodipodi:docname="paint_minimal.svg">
  <metadata
     id="metadata3976">
    <rdf:RDF>
      <cc:Work
         rdf:about="">
        <dc:format>image/svg+xml</dc:format>
        <dc:type
           rdf:resource="http://purl.org/dc/dcmitype/StillImage" />
        <dc:title>Qt Svg Document</dc:title>
      </cc:Work>
    </rdf:RDF>
  </metadata>
  <sodipodi:namedview
     pagecolor="#ffffff"
     bordercolor="#666666"
     borderopacity="1"
     objecttolerance="10"
     gridtolerance="10"
     guidetolerance="10"
     inkscape:pageopacity="0"
     inkscape:pageshadow="2"
     inkscape:window-width="1226"
     inkscape:window-height="749"
     id="namedview3974"
     showgrid="false"
     inkscape:zoom="8"
     inkscape:cx="17.879596"
     inkscape:cy="33.520068"
     inkscape:window-x="41"
     inkscape:window-y="-4"
     inkscape:window-maximized="1"
     inkscape:current-layer="svg3958" />
  <title
     id="title3960">Qt Svg Document</title>
  <desc
     id="desc3962">Generated with Qt</desc>
  <defs
     id="defs3964" />
  <g
     id="g4010"
     transform="matrix(0.34707429,0,0,0.34709728,-3.3876974,-3.3950238)">
    <path
       inkscape:connector-curvature="0"
       id="path4004"
       d="M 48.6875,11.78125 C 38.779294,11.761131 28.79974,14.074428 21.4375,21.4375 11.799022,31.074888 10.850032,44.770322 12.375,57.9375 L 12.4375,58.65625 C 14.121717,72.377435 19.712566,87.524999 31.34375,99.15625 L 34.15625,101.96875 31.34375,104.78125 C 19.71666,116.40814 14.121859,131.5276 12.4375,145.25 10.794314,158.63696 11.618695,172.6814 21.4375,182.5 31.250413,192.31383 45.270595,193.14322 58.65625,191.5 72.377327,189.81561 87.525048,184.22475 99.15625,172.59375 L 101.96875,169.78125 104.78125,172.59375 C 116.40812,184.22061 131.52768,189.81548 145.25,191.5 158.63702,193.14336 172.68136,192.31868 182.5,182.5 192.31873,172.68136 193.14337,158.63703 191.5,145.25 189.81547,131.52768 184.22062,116.40812 172.59375,104.78125 L 169.78125,101.96875 172.59375,99.15625 C 184.22472,87.525019 189.81561,72.377345 191.5,58.65625 193.14321,45.270597 192.3139,31.250407 182.5,21.4375 175.13773,14.075063 165.15839,11.76117 155.25,11.78125 151.94866,11.78794 148.59927,12.026393 145.25,12.4375 131.5276,14.121859 116.40814,19.71666 104.78125,31.34375 L 101.96875,34.15625 99.15625,31.34375 C 87.52503,19.71253 72.377418,14.121717 58.65625,12.4375 55.311716,12.026973 51.988866,11.787954 48.6875,11.78125 z M 48.6875,23.78125 C 51.390406,23.786738 54.24041,24.009421 57.21875,24.375 68.78908,25.795211 81.375078,30.562578 90.65625,39.84375 L 116.09375,65.28125 C 130.44156,79.628981 127.62038,76.807738 134.40625,83.59375 L 131.59375,86.40625 C 124.80786,79.620223 127.6291,82.441514 113.28125,68.09375 L 87.84375,42.65625 C 79.352696,34.165196 67.566963,29.644074 56.71875,28.3125 51.077897,27.620108 45.96308,28.14815 42,28.96875 40.01846,29.37905 38.33636,29.861915 36.9375,30.375 36.23807,30.631542 35.616497,30.878683 35,31.1875 34.383503,31.496317 33.869448,31.630425 32.75,32.75 31.630427,33.869445 31.496318,34.383503 31.1875,35 30.878682,35.616497 30.631543,36.238071 30.375,36.9375 29.861915,38.336359 29.37905,40.01846 28.96875,42 28.14815,45.963079 27.620108,51.077891 28.3125,56.71875 29.418868,65.732242 32.887383,75.280461 38.84375,83.15625 L 36,86 C 29.323345,77.378292 25.574276,66.989158 24.375,57.21875 22.913599,45.312827 23.990283,35.884045 29.9375,29.9375 34.394818,25.479678 40.582892,23.764793 48.6875,23.78125 z M 155.25,23.78125 C 163.35455,23.764826 169.54233,25.479731 174,29.9375 179.9473,35.884193 181.02405,45.312961 179.5625,57.21875 178.14213,68.789097 173.37474,81.375047 164.09375,90.65625 L 138.65625,116.09375 120.34375,134.40625 117.53125,131.59375 133,116.125 135.84375,113.28125 161.28125,87.84375 C 169.77216,79.352651 174.29329,67.566933 175.625,56.71875 176.31748,51.077807 175.78939,45.9631 174.96875,42 174.55843,40.01845 174.07559,38.336336 173.5625,36.9375 173.30596,36.238082 173.0588,35.616471 172.75,35 172.4412,34.383529 172.30712,33.869499 171.1875,32.75 170.06858,31.631056 169.55406,31.496375 168.9375,31.1875 168.32094,30.878625 167.69947,30.631567 167,30.375 165.60105,29.861865 163.91903,29.379023 161.9375,28.96875 157.97444,28.148204 152.85952,27.620122 147.21875,28.3125 138.20521,29.418869 128.65699,32.88736 120.78125,38.84375 L 117.9375,36 C 126.55401,29.321727 136.91803,25.574156 146.6875,24.375 149.66113,24.010001 152.54702,23.786728 155.25,23.78125 z M 49.4375,40.0625 C 51.278711,39.956436 53.264301,40.002428 55.28125,40.25 63.782539,41.293498 73.391196,45.203696 79.34375,51.15625 L 82.15625,53.96875 79.34375,56.78125 C 61.665737,74.458863 74.45917,61.66573 56.78125,79.34375 L 53.96875,82.15625 51.15625,79.34375 C 45.203654,73.391121 41.2935,63.782558 40.25,55.28125 39.754855,51.247343 40.122692,47.316155 40.71875,44.4375 40.980235,43.174663 41.245184,42.244298 41.5,41.5 42.244299,41.245184 43.174661,40.980235 44.4375,40.71875 45.876829,40.420721 47.596289,40.168564 49.4375,40.0625 z M 154.5,40.0625 C 156.34118,40.168534 158.06073,40.420751 159.5,40.71875 160.76278,40.980208 161.69324,41.245193 162.4375,41.5 162.69232,42.244303 162.95726,43.174666 163.21875,44.4375 163.81483,47.316149 164.18269,51.247389 163.6875,55.28125 162.64387,63.782675 158.73378,73.391083 152.78125,79.34375 L 149.96875,82.15625 147.15625,79.34375 C 129.47854,61.665637 142.27137,74.45877 124.59375,56.78125 L 121.78125,53.96875 124.59375,51.15625 C 130.5461,45.203805 140.15491,41.293499 148.65625,40.25 150.67327,40.00242 152.65882,39.956466 154.5,40.0625 z M 83.59375,69.53125 86.40625,72.34375 C 79.62034,79.129524 82.441838,76.30808 68.09375,90.65625 L 42.65625,116.09375 C 34.165175,124.58468 29.644075,136.37046 28.3125,147.21875 27.620123,152.85952 28.148205,157.97445 28.96875,161.9375 29.379023,163.91903 29.861864,165.60105 30.375,167 30.631568,167.69947 30.878625,168.32094 31.1875,168.9375 31.496375,169.55406 31.631087,170.0686 32.75,171.1875 33.869509,172.30712 34.383534,172.4412 35,172.75 35.616466,173.0588 36.238084,173.30596 36.9375,173.5625 38.336332,174.07558 40.01845,174.55843 42,174.96875 45.9631,175.78939 51.077807,176.31748 56.71875,175.625 65.732204,174.51852 75.280484,171.05004 83.15625,165.09375 L 86,167.9375 C 77.378303,174.61406 66.989162,178.36309 57.21875,179.5625 45.312991,181.02404 35.884209,179.94727 29.9375,174 23.996055,168.05868 22.91376,158.59216 24.375,146.6875 25.795067,135.11828 30.558362,122.56648 39.84375,113.28125 L 65.28125,87.84375 C 79.629306,73.495613 76.807854,76.317009 83.59375,69.53125 z M 101.96875,73.78125 104.78125,76.59375 C 122.45903,94.27143 109.66606,81.478163 127.34375,99.15625 L 130.15625,101.96875 127.34375,104.78125 124.5,107.625 104.78125,127.34375 101.96875,130.15625 99.15625,127.34375 C 81.478343,109.66614 94.271843,122.45904 76.59375,104.78125 L 73.78125,101.96875 76.59375,99.15625 C 94.27183,81.47807 81.478263,94.271337 99.15625,76.59375 L 101.96875,73.78125 z M 72.34375,117.53125 C 79.129669,124.31715 76.308203,121.49595 90.65625,135.84375 L 116.09375,161.28125 C 124.58469,169.77219 136.3705,174.29329 147.21875,175.625 152.85961,176.31746 157.97443,175.78934 161.9375,174.96875 163.91904,174.55846 165.60108,174.07563 167,173.5625 167.69946,173.30593 168.32097,173.05886 168.9375,172.75 169.55403,172.44114 170.06853,172.30647 171.1875,171.1875 172.30647,170.06854 172.44114,169.55404 172.75,168.9375 173.05886,168.32096 173.30593,167.69946 173.5625,167 174.07564,165.60107 174.55846,163.91904 174.96875,161.9375 175.78933,157.97442 176.31746,152.8596 175.625,147.21875 174.51852,138.20524 171.05005,128.65697 165.09375,120.78125 L 167.9375,117.9375 C 174.61568,126.55402 178.36321,136.91801 179.5625,146.6875 181.02389,158.59203 179.94153,168.05852 174,174 168.05852,179.9415 158.59202,181.02388 146.6875,179.5625 135.11828,178.14228 122.56646,173.37895 113.28125,164.09375 L 87.84375,138.65625 C 73.495652,124.3084 76.317137,127.12962 69.53125,120.34375 L 72.34375,117.53125 z M 53.96875,121.78125 56.78125,124.59375 C 74.459157,142.27136 61.665657,129.47846 79.34375,147.15625 L 82.15625,149.96875 79.34375,152.78125 C 73.39116,158.73374 63.782658,162.64387 55.28125,163.6875 51.2474,164.18269 47.316154,163.81483 44.4375,163.21875 43.174663,162.95725 42.244307,162.69232 41.5,162.4375 41.245193,161.69325 40.980207,160.76278 40.71875,159.5 40.122755,156.62147 39.75484,152.6903 40.25,148.65625 41.293499,140.1549 45.203803,130.5461 51.15625,124.59375 L 53.96875,121.78125 z M 149.96875,121.78125 152.78125,124.59375 C 158.73363,130.54613 162.64387,140.15479 163.6875,148.65625 164.18271,152.69025 163.81477,156.62148 163.21875,159.5 162.95728,160.76278 162.69231,161.69324 162.4375,162.4375 161.69324,162.69232 160.76278,162.95728 159.5,163.21875 156.62147,163.81477 152.69025,164.18271 148.65625,163.6875 140.15478,162.64387 130.54613,158.73363 124.59375,152.78125 L 121.78125,149.96875 124.59375,147.15625 147.15625,124.59375 149.96875,121.78125 z"
       style="font-size:9px;font-style:normal;font-variant:normal;font-weight:400;font-stretch:normal;text-indent:0;text-align:start;text-decoration:none;line-height:normal;letter-spacing:normal;word-spacing:normal;text-transform:none;direction:ltr;block-progression:tb;writing-mode:lr-tb;text-anchor:start;baseline-shift:baseline;color:#000000;fill:#ffffff;fill-opacity:1;fill-rule:nonzero;stroke:#ffffff;stroke-width:4;stroke-miterlimit:4;stroke-opacity:1;stroke-dasharray:none;marker:none;visibility:visible;display:inline;overflow:visible;enable-background:accumulate;font-family:Sans Serif;-inkscape-font-specification:Sans" />
    <path
       style="font-size:9px;font-style:normal;font-variant:normal;font-weight:400;font-stretch:normal;text-indent:0;text-align:start;text-decoration:none;line-height:normal;letter-spacing:normal;word-spacing:normal;text-transform:none;direction:ltr;block-progression:tb;writing-mode:lr-tb;text-anchor:start;baseline-shift:baseline;color:#000000;fill:#008080;fill-opacity:1;stroke:none;stroke-width:16;marker:none;visibility:visible;display:inline;overflow:visible;enable-background:accumulate;font-family:Sans Serif;-inkscape-font-specification:Sans"
       d="M 48.6875,17.78125 C 39.681093,17.762962 31.597279,19.777053 25.6875,25.6875 17.806904,33.567205 16.854037,45.291741 18.40625,57.9375 19.958463,70.583259 25.137568,84.450008 35.59375,94.90625 L 46.90625,83.59375 C 39.684432,76.371892 35.468787,65.674766 34.28125,56 33.093713,46.325234 36.041596,37.958295 37,37 37.958295,36.041596 46.325249,33.093714 56,34.28125 65.674751,35.468786 76.371946,39.684446 83.59375,46.90625 L 109.03125,72.34375 C 126.709,90.0214 113.91606,77.228162 131.59375,94.90625 L 142.90625,83.59375 C 125.22854,65.915638 138.0214,78.7088 120.34375,61.03125 L 94.90625,35.59375 C 84.450054,25.137554 70.583249,19.958464 57.9375,18.40625 54.776063,18.018197 51.689636,17.787346 48.6875,17.78125 z"
       id="path4048" />
    <path
       style="font-size:9px;font-style:normal;font-variant:normal;font-weight:400;font-stretch:normal;text-indent:0;text-align:start;text-decoration:none;line-height:normal;letter-spacing:normal;word-spacing:normal;text-transform:none;direction:ltr;block-progression:tb;writing-mode:lr-tb;text-anchor:start;baseline-shift:baseline;color:#000000;fill:#800000;fill-opacity:1;stroke:none;stroke-width:16;marker:none;visibility:visible;display:inline;overflow:visible;enable-background:accumulate;font-family:Sans Serif;-inkscape-font-specification:Sans"
       d="M 155.25,17.78125 C 152.24784,17.787334 149.1302,18.018197 145.96875,18.40625 133.32294,19.958463 119.48731,25.137511 109.03125,35.59375 L 120.34375,46.90625 C 127.56539,39.684489 138.26269,35.468787 147.9375,34.28125 157.61231,33.093713 165.97866,36.041137 166.9375,37 167.8958,37.9582 170.84392,46.325196 169.65625,56 168.46858,65.674804 164.25297,76.371867 157.03125,83.59375 L 131.59375,109.03125 128.75,111.875 109.03125,131.59375 120.34375,142.90625 142.90625,120.34375 168.34375,94.90625 C 178.79973,84.450033 183.97887,70.583221 185.53125,57.9375 187.08363,45.291779 186.1306,33.5673 178.25,25.6875 172.34003,19.777397 164.25647,17.762998 155.25,17.78125 z"
       id="path4046" />
    <path
       style="font-size:9px;font-style:normal;font-variant:normal;font-weight:400;font-stretch:normal;text-indent:0;text-align:start;text-decoration:none;line-height:normal;letter-spacing:normal;word-spacing:normal;text-transform:none;direction:ltr;block-progression:tb;writing-mode:lr-tb;text-anchor:start;baseline-shift:baseline;color:#000000;fill:#800000;fill-opacity:1;stroke:none;stroke-width:16;marker:none;visibility:visible;display:inline;overflow:visible;enable-background:accumulate;font-family:Sans Serif;-inkscape-font-specification:Sans"
       d="M 83.59375,61.03125 C 65.915738,78.708862 78.7092,65.9157 61.03125,83.59375 L 35.59375,109.03125 C 25.137511,119.48731 19.958463,133.32294 18.40625,145.96875 16.854037,158.61456 17.807375,170.37004 25.6875,178.25 33.567311,186.13055 45.291793,187.08363 57.9375,185.53125 70.583207,183.97887 84.450076,178.79974 94.90625,168.34375 L 83.59375,157.03125 C 76.371924,164.25295 65.674793,168.46858 56,169.65625 46.325207,170.84392 37.958189,167.89578 37,166.9375 36.041125,165.97864 33.093713,157.61232 34.28125,147.9375 35.468787,138.26268 39.684489,127.56539 46.90625,120.34375 L 72.34375,94.90625 C 90.0218,77.2281 77.228262,90.021338 94.90625,72.34375 L 83.59375,61.03125 z"
       id="path4044" />
    <path
       style="font-size:9px;font-style:normal;font-variant:normal;font-weight:400;font-stretch:normal;text-indent:0;text-align:start;text-decoration:none;line-height:normal;letter-spacing:normal;word-spacing:normal;text-transform:none;direction:ltr;block-progression:tb;writing-mode:lr-tb;text-anchor:start;baseline-shift:baseline;color:#000000;fill:#008080;fill-opacity:1;stroke:none;stroke-width:16;marker:none;visibility:visible;display:inline;overflow:visible;enable-background:accumulate;font-family:Sans Serif;-inkscape-font-specification:Sans"
       d="M 72.34375,109.03125 61.03125,120.34375 C 78.709188,138.02139 65.915688,125.22849 83.59375,142.90625 L 109.03125,168.34375 C 119.48729,178.79978 133.32298,183.97888 145.96875,185.53125 158.61452,187.08362 170.36994,186.13009 178.25,178.25 186.13013,170.36994 187.08363,158.61453 185.53125,145.96875 183.97887,133.32297 178.79979,119.48729 168.34375,109.03125 L 157.03125,120.34375 C 164.25291,127.56541 168.46858,138.26265 169.65625,147.9375 170.84392,157.61235 167.89627,165.97874 166.9375,166.9375 165.97876,167.89624 157.61236,170.84392 147.9375,169.65625 138.26264,168.46858 127.56541,164.25291 120.34375,157.03125 L 94.90625,131.59375 C 77.228312,113.91611 90.021812,126.70901 72.34375,109.03125 z"
       id="path3972" />
  </g>
</svg>
