<?xml version="1.0" encoding="UTF-8" standalone="no"?>
<svg
   xmlns:dc="http://purl.org/dc/elements/1.1/"
   xmlns:cc="http://creativecommons.org/ns#"
   xmlns:rdf="http://www.w3.org/1999/02/22-rdf-syntax-ns#"
   xmlns:svg="http://www.w3.org/2000/svg"
   xmlns="http://www.w3.org/2000/svg"
   xmlns:xlink="http://www.w3.org/1999/xlink"
   xmlns:sodipodi="http://sodipodi.sourceforge.net/DTD/sodipodi-0.dtd"
   xmlns:inkscape="http://www.inkscape.org/namespaces/inkscape"
   version="1.2"
   id="svg2"
   inkscape:version="0.48.2 r9819"
   width="128"
   height="128"
   sodipodi:docname="logo_big.svg"
   inkscape:export-filename="/home/bazzy/Documents/C++/Knotter/img/icon.png"
   inkscape:export-xdpi="20.691141"
   inkscape:export-ydpi="20.691141">
  <metadata
     id="metadata18">
    <rdf:RDF>
      <cc:Work
         rdf:about="">
        <dc:format>image/svg+xml</dc:format>
        <dc:type
           rdf:resource="http://purl.org/dc/dcmitype/StillImage" />
        <dc:title>Qt Svg Document</dc:title>
      </cc:Work>
    </rdf:RDF>
  </metadata>
  <sodipodi:namedview
     pagecolor="#ffffff"
     bordercolor="#666666"
     borderopacity="1"
     objecttolerance="10"
     gridtolerance="10"
     guidetolerance="10"
     inkscape:pageopacity="0"
     inkscape:pageshadow="2"
     inkscape:window-width="1226"
     inkscape:window-height="749"
     id="namedview16"
     showgrid="false"
     fit-margin-top="0"
     fit-margin-left="0"
     fit-margin-right="0"
     fit-margin-bottom="0"
     inkscape:zoom="0.44851479"
     inkscape:cx="-89.599655"
     inkscape:cy="44.847659"
     inkscape:window-x="41"
     inkscape:window-y="-4"
     inkscape:window-maximized="1"
     inkscape:current-layer="svg2" />
  <title
     id="title4">Qt Svg Document</title>
  <desc
     id="desc6">Generated with Qt</desc>
  <defs
     id="defs8">
    <linearGradient
       id="linearGradient3763">
      <stop
         style="stop-color:#b4b6ff;stop-opacity:1;"
         offset="0"
         id="stop3765" />
      <stop
         style="stop-color:#3c42ff;stop-opacity:1;"
         offset="1"
         id="stop3767" />
    </linearGradient>
    <radialGradient
       inkscape:collect="always"
       xlink:href="#linearGradient3763"
       id="radialGradient3769"
       cx="-34.245228"
       cy="20.796322"
       fx="-34.245228"
       fy="20.796322"
       r="113.60975"
       gradientTransform="matrix(1,0,0,0.80663631,0,-1.3234101)"
       gradientUnits="userSpaceOnUse" />
    <radialGradient
       inkscape:collect="always"
       xlink:href="#linearGradient3763"
       id="radialGradient3779"
       gradientUnits="userSpaceOnUse"
       gradientTransform="matrix(0.983864,-0.00973142,0.01141128,1.1537005,-0.083507,-4.7425829)"
       cx="-2.2295809"
       cy="4.1652331"
       fx="-2.2295809"
       fy="4.1652331"
       r="139.19099" />
    <radialGradient
       inkscape:collect="always"
       xlink:href="#linearGradient3763"
       id="radialGradient3802"
       cx="-3.1531036"
       cy="-1.4769078"
       fx="-3.1531036"
       fy="-1.4769078"
       r="132.785"
       gradientTransform="matrix(1,0,0,0.9179945,0,-2.3744774)"
       gradientUnits="userSpaceOnUse" />
    <radialGradient
       inkscape:collect="always"
       xlink:href="#linearGradient3763"
       id="radialGradient3804"
       gradientUnits="userSpaceOnUse"
       gradientTransform="matrix(1,0,0,0.9179945,0,-2.3744774)"
       cx="-3.1531036"
       cy="-1.4769078"
       fx="-3.1531036"
       fy="-1.4769078"
       r="132.785" />
    <radialGradient
       inkscape:collect="always"
       xlink:href="#linearGradient3763"
       id="radialGradient3833"
       cx="1.2377257"
       cy="-17.978075"
       fx="1.2377257"
       fy="-17.978075"
       r="132.785"
       gradientTransform="matrix(1,0,0,0.9299277,0,8.6524887)"
       gradientUnits="userSpaceOnUse"
       spreadMethod="reflect" />
    <radialGradient
       inkscape:collect="always"
       xlink:href="#linearGradient3763"
       id="radialGradient3835"
       gradientUnits="userSpaceOnUse"
       gradientTransform="matrix(1,0,0,0.9299277,0,8.6524887)"
       spreadMethod="reflect"
       cx="1.2377257"
       cy="-17.978075"
       fx="1.2377257"
       fy="-17.978075"
       r="132.785" />
    <radialGradient
       inkscape:collect="always"
       xlink:href="#linearGradient3763"
       id="radialGradient3837"
       gradientUnits="userSpaceOnUse"
       gradientTransform="matrix(1,0,0,0.9299277,0,8.6524887)"
       spreadMethod="reflect"
       cx="1.2377257"
       cy="-17.978075"
       fx="1.2377257"
       fy="-17.978075"
       r="132.785" />
  </defs>
  <g
     id="g3009"
     font-style="normal"
     font-weight="400"
     font-size="9"
     transform="matrix(0.48017406,0,0,0.48017406,64,77.903488)"
     style="font-size:9px;font-style:normal;font-weight:400;fill:url(#radialGradient3802);fill-opacity:1;stroke:#a50000;stroke-width:4;stroke-linecap:square;stroke-linejoin:bevel;stroke-miterlimit:4;stroke-opacity:1;stroke-dasharray:none;font-family:Sans Serif">
    <path
       id="path3011"
       d="M 68.4764,-48.1081 55.5354,0.188209 55.2446,1.24796 54.9398,2.30879 54.6211,3.37041 54.2887,4.43254 53.9429,5.49488 53.5837,6.55713 53.2114,7.619 52.8261,8.68021 52.428,9.74045 52.0172,10.7994 51.5939,11.8569 51.1584,12.9125 50.7106,13.9659 50.2509,15.017 49.7794,16.0653 49.2963,17.1106 48.8017,18.1526 48.2958,19.191 47.7788,20.2255 47.2508,21.2559 46.712,22.2817 46.1626,23.3028 45.6027,24.3189 45.0326,25.3296 44.4523,26.3346 43.8621,27.3337 43.2621,28.3266 42.6526,29.3129 42.0335,30.2924 41.4052,31.2649 40.7678,32.2299 40.1215,33.1872 39.4664,34.1366 38.8027,35.0776 38.1306,36.0101 37.4502,36.9337 36.7617,37.8482 36.0653,38.7532 35.3612,39.6485 34.6495,40.5337 33.9303,41.4086 33.204,42.2729 32.4705,43.1263 31.7302,43.9685 30.9831,44.7992 30.2294,45.618 29.4693,46.4248 28.7031,47.2193 27.9307,48.001 7.42462,27.4949 8.27017,26.6377 9.09878,25.7741 9.91055,24.904 10.7056,24.0272 11.4839,23.1435 12.2457,22.2528 12.9909,21.3549 13.7198,20.4498 14.4323,19.5371 15.1287,18.6169 15.8089,17.6888 16.473,16.7528 17.1212,15.8088 17.7535,14.8565 18.37,13.8958 18.9709,12.9265 19.5561,11.9486 20.1259,10.9618 20.6802,9.966 21.2191,8.96104 21.7428,7.94675 22.2514,6.923 22.7449,5.88963 23.2234,4.84647 23.687,3.79339 24.1358,2.73022 24.5699,1.65681 24.9894,0.573005 25.3943,-0.521345 25.7848,-1.62639 26.1609,-2.7423 26.5228,-3.86921 26.8704,-5.00729 27.204,-6.15668 27.5236,-7.31754 40.4646,-55.6138 40.5044,-55.8187 40.5212,-56.0501 40.5147,-56.3079 40.4846,-56.5925 40.4308,-56.9039 40.3529,-57.2422 40.2509,-57.6076 40.1244,-58.0003 39.9733,-58.4202 39.7972,-58.8677 39.5961,-59.3427 39.3697,-59.8455 39.1177,-60.3761 38.8399,-60.9348 38.5362,-61.5216 38.2063,-62.1366 37.8499,-62.7801 37.4669,-63.452 37.057,-64.1527 36.62,-64.8821 36.1556,-65.6404 35.6638,-66.4278 35.1442,-67.2444 34.5966,-68.0902 34.0208,-68.9656 33.4165,-69.8705 32.7836,-70.8051 32.1219,-71.7696 31.431,-72.764 30.7109,-73.7885 29.9612,-74.8433 29.1817,-75.9284 28.3723,-77.0441 27.5327,-78.1904 26.6626,-79.3674 25.7619,-80.5753 24.8304,-81.8143 23.8677,-83.0844 22.8737,-84.3857 21.8483,-85.7186 20.791,-87.0829 19.7018,-88.479 18.5804,-89.9068 17.4265,-91.3666 16.24,-92.8585 15.0207,-94.3826 13.7683,-95.939 12.4825,-97.5279 11.1633,-99.1494 9.81027,-100.804 8.42328,-102.491 7.00211,-104.211 5.54652,-105.964 4.05629,-107.751 2.53121,-109.57 0.97104,-111.424 0,-112.572 -0.97104,-111.424 -2.53121,-109.57 -4.05629,-107.751 -5.54652,-105.964 -7.00211,-104.211 -8.42328,-102.491 -9.81027,-100.804 -11.1633,-99.1494 -12.4825,-97.5279 -13.7683,-95.939 -15.0207,-94.3826 -16.24,-92.8585 -17.4265,-91.3666 -18.5804,-89.9068 -19.7018,-88.479 -20.791,-87.0829 -21.8483,-85.7186 -22.8737,-84.3857 -23.8677,-83.0844 -24.8304,-81.8143 -25.7619,-80.5753 -26.6626,-79.3674 -27.5327,-78.1904 -28.3723,-77.0441 -29.1817,-75.9284 -29.9612,-74.8433 -30.7109,-73.7885 -31.431,-72.764 -32.1219,-71.7696 -32.7836,-70.8051 -33.4165,-69.8705 -34.0208,-68.9656 -34.5966,-68.0902 -35.1442,-67.2444 -35.6638,-66.4278 -36.1556,-65.6404 -36.62,-64.8821 -37.057,-64.1527 -37.4669,-63.452 -37.8499,-62.7801 -38.2063,-62.1366 -38.5362,-61.5216 -38.8399,-60.9348 -39.1177,-60.3761 -39.3697,-59.8455 -39.5961,-59.3427 -39.7972,-58.8677 -39.9733,-58.4202 -40.1244,-58.0003 -40.2509,-57.6076 -40.3529,-57.2422 -40.4308,-56.9039 -40.4846,-56.5925 -40.5147,-56.3079 -40.5212,-56.0501 -40.5044,-55.8187 -40.4646,-55.6138 -68.4764,-48.1081 -68.6678,-48.9107 -68.8191,-49.7393 -68.9304,-50.5939 -69.0021,-51.4743 -69.0343,-52.3804 -69.0272,-53.312 -68.9811,-54.269 -68.8962,-55.2513 -68.7727,-56.2588 -68.6108,-57.2912 -68.4108,-58.3485 -68.1729,-59.4306 -67.8973,-60.5373 -67.5842,-61.6685 -67.2338,-62.824 -66.8464,-64.0038 -66.4222,-65.2077 -65.9614,-66.4355 -65.4643,-67.6871 -64.931,-68.9625 -64.3617,-70.2614 -63.7568,-71.5838 -63.1164,-72.9294 -62.4407,-74.2982 -61.73,-75.6901 -60.9845,-77.1049 -60.2043,-78.5425 -59.3898,-80.0027 -58.5412,-81.4854 -57.6586,-82.9905 -56.7423,-84.5178 -55.7926,-86.0673 -54.8095,-87.6388 -53.7935,-89.2321 -52.7446,-90.8471 -51.6631,-92.4838 -50.5492,-94.1419 -49.4032,-95.8213 -48.2252,-97.5219 -47.0155,-99.2436 -45.7744,-100.986 -44.502,-102.75 -43.1985,-104.534 -41.8642,-106.338 -40.4993,-108.164 -39.104,-110.009 -37.6786,-111.874 -36.2232,-113.76 -34.7381,-115.665 -33.2235,-117.59 -31.6797,-119.535 -30.1068,-121.5 -28.505,-123.483 -26.8747,-125.486 -25.216,-127.508 -23.5291,-129.549 -21.8143,-131.609 -20.0717,-133.687 -18.3017,-135.784 -16.5044,-137.9 -14.68,-140.033 -12.8288,-142.185 -10.951,-144.355 -10.1164,-145.239 -9.21102,-146.05 -8.23961,-146.784 -7.20706,-147.436 -6.11823,-148.001 -4.97798,-148.474 -3.79117,-148.851 -2.56267,-149.126 -1.29732,-149.294 0,-149.351 1.69101,-149.254 3.32472,-148.968 4.89025,-148.506 6.37673,-147.877 7.77328,-147.094 9.06901,-146.166 10.253,-145.104 10.938,-144.34 10.951,-144.355 12.8288,-142.185 14.68,-140.033 16.5044,-137.9 18.3017,-135.784 20.0717,-133.687 21.8143,-131.609 23.5291,-129.549 25.216,-127.508 26.8747,-125.486 28.505,-123.483 30.1068,-121.5 31.6797,-119.535 33.2235,-117.59 34.7381,-115.665 36.2232,-113.76 37.6786,-111.874 39.104,-110.009 40.4993,-108.164 41.8642,-106.338 43.1985,-104.534 44.502,-102.75 45.7744,-100.986 47.0155,-99.2436 48.2252,-97.5219 49.4032,-95.8213 50.5492,-94.1419 51.6631,-92.4838 52.7446,-90.8471 53.7935,-89.2321 54.8095,-87.6388 55.7926,-86.0673 56.7423,-84.5178 57.6586,-82.9905 58.5412,-81.4854 59.3898,-80.0027 60.2043,-78.5425 60.9845,-77.1049 61.73,-75.6901 62.4407,-74.2982 63.1164,-72.9294 63.7568,-71.5838 64.3617,-70.2614 64.931,-68.9625 65.4643,-67.6871 65.9614,-66.4355 66.4222,-65.2077 66.8464,-64.0038 67.2338,-62.824 67.5842,-61.6685 67.8973,-60.5373 68.1729,-59.4306 68.4108,-58.3485 68.6108,-57.2912 68.7727,-56.2588 68.8962,-55.2513 68.9811,-54.269 69.0272,-53.312 69.0343,-52.3804 69.0021,-51.4743 68.9304,-50.5939 68.8191,-49.7393 68.6678,-48.9107 68.4764,-48.1081 M -20.099,-20.1774 -68.3953,-7.23641 -68.5927,-7.16851 -68.8014,-7.06739 -69.0215,-6.9328 -69.2529,-6.76446 -69.4956,-6.56214 -69.7497,-6.32556 -70.0151,-6.05448 -70.2919,-5.74863 -70.58,-5.40775 -70.8795,-5.03159 -71.1904,-4.6199 -71.5126,-4.1724 -71.8461,-3.68885 -72.1911,-3.16898 -72.5474,-2.61255 -72.915,-2.01928 -73.2941,-1.38893 -73.6845,-0.721236 -74.0863,-0.0159367 -74.4995,0.727223 -74.9241,1.5085 -75.36,2.32815 -75.8074,3.18644 -76.2662,4.08362 -76.7363,5.01995 -77.2179,5.99569 -77.7108,7.01109 -78.2152,8.06641 -78.731,9.16192 -79.2582,10.2979 -79.7968,11.4745 -80.3468,12.6921 -80.9083,13.9509 -81.4812,15.2512 -82.0655,16.5932 -82.6612,17.9772 -83.2684,19.4034 -83.887,20.8721 -84.5171,22.3836 -85.1586,23.9381 -85.8115,25.5359 -86.4759,27.1772 -87.1518,28.8623 -87.8391,30.5915 -88.5378,32.365 -89.2481,34.183 -89.9698,36.0458 -90.7029,37.9538 -91.4475,39.907 -92.2036,41.9059 -92.9712,43.9506 -93.7503,46.0414 -94.5408,48.1786 -95.3428,50.3624 -96.1564,52.5931 -96.9814,54.871 -97.4905,56.2862 -96.0103,56.5528 -93.6252,56.9773 -91.2866,57.3881 -88.9943,57.7855 -86.7482,58.1694 -84.5479,58.5401 -82.3934,58.8978 -80.2843,59.2424 -78.2204,59.5741 -76.2015,59.8932 -74.2274,60.1996 -72.2978,60.4935 -70.4126,60.7751 -68.5714,61.0445 -66.7741,61.3017 -65.0205,61.547 -63.3103,61.7804 -61.6433,62.0021 -60.0193,62.2122 -58.438,62.4109 -56.8993,62.5981 -55.4029,62.7742 -53.9485,62.9392 -52.536,63.0932 -51.1651,63.2364 -49.8356,63.3688 -48.5473,63.4907 -47.2999,63.6021 -46.0933,63.7032 -44.9272,63.794 -43.8014,63.8748 -42.7156,63.9456 -41.6696,64.0066 -40.6632,64.0579 -39.6963,64.0996 -38.7684,64.1319 -37.8795,64.1548 -37.0294,64.1686 -36.2176,64.1733 -35.4442,64.169 -34.7088,64.1559 -34.0111,64.1341 -33.3511,64.1038 -32.7284,64.065 -32.1429,64.0179 -31.5942,63.9626 -31.0823,63.8993 -30.6068,63.828 -30.1675,63.7489 -29.7642,63.6621 -29.3968,63.5678 -29.0648,63.466 -28.7682,63.357 -28.5068,63.2407 -28.2802,63.1175 -28.0882,62.9873 -27.9307,62.8502 -7.42462,83.3563 -8.02399,83.9234 -8.66599,84.4687 -9.35042,84.9925 -10.077,85.4947 -10.8456,85.9756 -11.656,86.4353 -12.5078,86.8739 -13.4009,87.2915 -14.3352,87.6883 -15.3102,88.0643 -16.3259,88.4198 -17.382,88.7548 -18.4782,89.0694 -19.6144,89.3639 -20.7903,89.6382 -22.0057,89.8926 -23.2604,90.1272 -24.5541,90.342 -25.8866,90.5373 -27.2578,90.7131 -28.6673,90.8696 -30.115,91.0069 -31.6005,91.1251 -33.1238,91.2244 -34.6846,91.3048 -36.2826,91.3665 -37.9176,91.4097 -39.5894,91.4344 -41.2978,91.4408 -43.0425,91.4291 -44.8234,91.3992 -46.6402,91.3514 -48.4926,91.2858 -50.3805,91.2025 -52.3036,91.1017 -54.2618,90.9834 -56.2547,90.8478 -58.2821,90.695 -60.3439,90.5252 -62.4397,90.3385 -64.5695,90.1349 -66.7329,89.9147 -68.9297,89.6779 -71.1597,89.4247 -73.4228,89.1552 -75.7185,88.8695 -78.0468,88.5678 -80.4074,88.2502 -82.8001,87.9168 -85.2246,87.5677 -87.6807,87.203 -90.1683,86.823 -92.687,86.4277 -95.2367,86.0172 -97.8171,85.5917 -100.428,85.1512 -103.069,84.696 -105.741,84.2262 -108.442,83.7418 -111.172,83.243 -113.932,82.7299 -116.722,82.2027 -119.54,81.6615 -121.054,81.2841 -122.5,80.7529 -123.87,80.0773 -125.153,79.2664 -126.341,78.3298 -127.423,77.2766 -128.392,76.1162 -129.237,74.858 -129.949,73.5113 -130.52,72.0853 -130.938,70.5895 -131.197,69.0332 -131.285,67.4256 -131.193,65.7899 -130.926,64.208 -130.494,62.6904 -130.491,62.6938 -129.55,59.9825 -128.612,57.3034 -127.677,54.6566 -126.743,52.0423 -125.812,49.4609 -124.884,46.9126 -123.957,44.3976 -123.033,41.9163 -122.111,39.4688 -121.192,37.0555 -120.275,34.6765 -119.36,32.3322 -118.448,30.0228 -117.538,27.7486 -116.631,25.5098 -115.725,23.3066 -114.823,21.1394 -113.922,19.0084 -113.024,16.9138 -112.128,14.8559 -111.235,12.835 -110.344,10.8514 -109.455,8.90517 -108.569,6.99671 -107.685,5.12625 -106.804,3.29405 -105.925,1.50036 -105.048,-0.254562 -104.174,-1.97046 -103.302,-3.64706 -102.433,-5.28413 -101.566,-6.88139 -100.701,-8.43859 -99.839,-9.95548 -98.9793,-11.4318 -98.1219,-12.8673 -97.267,-14.2617 -96.4146,-15.6147 -95.5645,-16.9261 -94.7169,-18.1957 -93.8718,-19.4231 -93.029,-20.6082 -92.1888,-21.7506 -91.3509,-22.8502 -90.5156,-23.9065 -89.6826,-24.9195 -88.8522,-25.8888 -88.0241,-26.8142 -87.1986,-27.6954 -86.3755,-28.5321 -85.5549,-29.3242 -84.7367,-30.0713 -83.9211,-30.7731 -83.1079,-31.4295 -82.2971,-32.0402 -81.4889,-32.6049 -80.6832,-33.1233 -79.8799,-33.5952 -79.0791,-34.0204 -78.2808,-34.3985 -77.4851,-34.7294 -76.6918,-35.0127 -75.901,-35.2483 -27.6047,-48.1892 -26.6749,-48.4331 -25.7389,-48.6681 -24.7971,-48.8942 -23.8496,-49.1115 -22.8966,-49.3199 -21.9385,-49.5195 -20.9753,-49.7101 -20.0075,-49.8919 -19.035,-50.0649 -18.0583,-50.2289 -17.0775,-50.3841 -16.0929,-50.5305 -15.1046,-50.6679 -14.113,-50.7965 -13.1182,-50.9162 -12.1204,-51.0271 -11.1199,-51.1291 -10.1169,-51.2222 -9.11169,-51.3064 -8.10441,-51.3818 -7.09532,-51.4483 -6.08465,-51.506 -5.07261,-51.5547 -4.05945,-51.5947 -3.04538,-51.6257 -2.03063,-51.6479 -1.01543,-51.6612 0,-51.6656 1.01543,-51.6612 2.03063,-51.6479 3.04538,-51.6257 4.05945,-51.5947 5.07261,-51.5547 6.08465,-51.506 7.09532,-51.4483 8.10441,-51.3818 9.11169,-51.3064 10.1169,-51.2222 11.1199,-51.1291 12.1204,-51.0271 13.1182,-50.9162 14.113,-50.7965 15.1046,-50.6679 16.0929,-50.5305 17.0775,-50.3841 18.0583,-50.2289 19.035,-50.0649 20.0075,-49.8919 20.9753,-49.7101 21.9385,-49.5195 22.8966,-49.3199 23.8496,-49.1115 24.7971,-48.8942 25.7389,-48.6681 26.6749,-48.4331 27.6047,-48.1892 20.099,-20.1774 19.1042,-20.4377 18.1115,-20.685 17.1209,-20.9194 16.1322,-21.1406 15.1454,-21.3489 14.1603,-21.5442 13.1767,-21.7264 12.1947,-21.8957 11.214,-22.0519 10.2346,-22.1951 9.25642,-22.3252 8.27924,-22.4424 7.303,-22.5465 6.32759,-22.6376 5.3529,-22.7157 4.37882,-22.7808 3.40523,-22.8329 2.43203,-22.872 1.45911,-22.898 0.486351,-22.911 -0.486351,-22.911 -1.45911,-22.898 -2.43203,-22.872 -3.40523,-22.8329 -4.37882,-22.7808 -5.3529,-22.7157 -6.32759,-22.6376 -7.303,-22.5465 -8.27924,-22.4424 -9.25642,-22.3252 -10.2346,-22.1951 -11.214,-22.0519 -12.1947,-21.8957 -13.1767,-21.7264 -14.1603,-21.5442 -15.1454,-21.3489 -16.1322,-21.1406 -17.1209,-20.9194 -18.1115,-20.685 -19.1042,-20.4377 -20.099,-20.1774 M -7.42462,27.4949 27.9307,62.8502 28.0882,62.9873 28.2802,63.1175 28.5068,63.2407 28.7682,63.357 29.0648,63.466 29.3968,63.5678 29.7642,63.6621 30.1675,63.7489 30.6068,63.828 31.0823,63.8993 31.5942,63.9626 32.1429,64.0179 32.7284,64.065 33.3511,64.1038 34.0111,64.1341 34.7088,64.1559 35.4442,64.169 36.2176,64.1733 37.0294,64.1686 37.8795,64.1548 38.7684,64.1319 39.6963,64.0996 40.6632,64.0579 41.6696,64.0066 42.7156,63.9456 43.8014,63.8748 44.9272,63.794 46.0933,63.7032 47.2999,63.6021 48.5473,63.4907 49.8356,63.3688 51.1651,63.2364 52.536,63.0932 53.9485,62.9392 55.4029,62.7742 56.8993,62.5981 58.438,62.4109 60.0193,62.2122 61.6433,62.0021 63.3103,61.7804 65.0205,61.547 66.7741,61.3017 68.5714,61.0445 70.4126,60.7751 72.2978,60.4935 74.2274,60.1996 76.2015,59.8932 78.2204,59.5741 80.2843,59.2424 82.3934,58.8978 84.5479,58.5401 86.7482,58.1694 88.9943,57.7855 91.2866,57.3881 93.6252,56.9773 96.0103,56.5528 97.4905,56.2862 96.9814,54.871 96.1564,52.5931 95.3428,50.3624 94.5408,48.1786 93.7503,46.0414 92.9712,43.9506 92.2036,41.9059 91.4475,39.907 90.7029,37.9538 89.9698,36.0458 89.2481,34.183 88.5378,32.365 87.8391,30.5915 87.1518,28.8623 86.4759,27.1772 85.8115,25.5359 85.1586,23.9381 84.5171,22.3836 83.887,20.8721 83.2684,19.4034 82.6612,17.9772 82.0655,16.5932 81.4812,15.2512 80.9083,13.9509 80.3468,12.6921 79.7968,11.4745 79.2582,10.2979 78.731,9.16192 78.2152,8.06641 77.7108,7.01109 77.2179,5.99569 76.7363,5.01995 76.2662,4.08362 75.8074,3.18644 75.36,2.32815 74.9241,1.5085 74.4995,0.727223 74.0863,-0.0159367 73.6845,-0.721236 73.2941,-1.38893 72.915,-2.01928 72.5474,-2.61255 72.1911,-3.16898 71.8461,-3.68885 71.5126,-4.1724 71.1904,-4.6199 70.8795,-5.03159 70.58,-5.40775 70.2919,-5.74863 70.0151,-6.05448 69.7497,-6.32556 69.4956,-6.56214 69.2529,-6.76446 69.0215,-6.9328 68.8014,-7.06739 68.5927,-7.16851 68.3953,-7.23641 75.901,-35.2483 76.6918,-35.0127 77.4851,-34.7294 78.2808,-34.3985 79.0791,-34.0204 79.8799,-33.5952 80.6832,-33.1233 81.4889,-32.6049 82.2971,-32.0402 83.1079,-31.4295 83.9211,-30.7731 84.7367,-30.0713 85.5549,-29.3242 86.3755,-28.5321 87.1986,-27.6954 88.0241,-26.8142 88.8522,-25.8888 89.6826,-24.9195 90.5156,-23.9065 91.3509,-22.8502 92.1888,-21.7506 93.029,-20.6082 93.8718,-19.4231 94.7169,-18.1957 95.5645,-16.9261 96.4146,-15.6147 97.267,-14.2617 98.1219,-12.8673 98.9793,-11.4318 99.839,-9.95548 100.701,-8.43859 101.566,-6.88139 102.433,-5.28413 103.302,-3.64706 104.174,-1.97046 105.048,-0.254562 105.925,1.50036 106.804,3.29405 107.685,5.12625 108.569,6.99671 109.455,8.90517 110.344,10.8514 111.235,12.835 112.128,14.8559 113.024,16.9138 113.922,19.0084 114.823,21.1394 115.725,23.3066 116.631,25.5098 117.538,27.7486 118.448,30.0228 119.36,32.3322 120.275,34.6765 121.192,37.0555 122.111,39.4688 123.033,41.9163 123.957,44.3976 124.884,46.9126 125.812,49.4609 126.743,52.0423 127.677,54.6566 128.612,57.3034 129.55,59.9825 130.491,62.6938 130.926,64.2101 131.193,65.7909 131.285,67.4256 131.196,69.0335 130.938,70.5902 130.519,72.0863 129.949,73.5125 129.237,74.8595 128.392,76.1179 127.424,77.2784 126.341,78.3316 125.154,79.2683 123.872,80.0791 122.504,80.7547 121.059,81.2857 119.547,81.6628 119.54,81.6615 116.722,82.2027 113.932,82.7299 111.172,83.243 108.442,83.7418 105.741,84.2262 103.069,84.696 100.428,85.1512 97.8171,85.5917 95.2367,86.0172 92.687,86.4277 90.1683,86.823 87.6807,87.203 85.2246,87.5677 82.8001,87.9168 80.4074,88.2502 78.0468,88.5678 75.7185,88.8695 73.4228,89.1552 71.1597,89.4247 68.9297,89.6779 66.7329,89.9147 64.5695,90.1349 62.4397,90.3385 60.3439,90.5252 58.2821,90.695 56.2547,90.8478 54.2618,90.9834 52.3036,91.1017 50.3805,91.2025 48.4926,91.2858 46.6402,91.3514 44.8234,91.3992 43.0425,91.4291 41.2978,91.4408 39.5894,91.4344 37.9176,91.4097 36.2826,91.3665 34.6846,91.3048 33.1238,91.2244 31.6005,91.1251 30.115,91.0069 28.6673,90.8696 27.2578,90.7131 25.8866,90.5373 24.5541,90.342 23.2604,90.1272 22.0057,89.8926 20.7903,89.6382 19.6144,89.3639 18.4782,89.0694 17.382,88.7548 16.3259,88.4198 15.3102,88.0643 14.3352,87.6883 13.4009,87.2915 12.5078,86.8739 11.656,86.4353 10.8456,85.9756 10.077,85.4947 9.35042,84.9925 8.66599,84.4687 8.02399,83.9234 7.42462,83.3563 -27.9307,48.001 -28.7031,47.2193 -29.4693,46.4248 -30.2294,45.618 -30.9831,44.7992 -31.7302,43.9685 -32.4705,43.1263 -33.204,42.2729 -33.9303,41.4086 -34.6495,40.5337 -35.3612,39.6485 -36.0653,38.7532 -36.7617,37.8482 -37.4502,36.9337 -38.1306,36.0101 -38.8027,35.0776 -39.4664,34.1366 -40.1215,33.1872 -40.7678,32.2299 -41.4052,31.2649 -42.0335,30.2924 -42.6526,29.3129 -43.2621,28.3266 -43.8621,27.3337 -44.4523,26.3346 -45.0326,25.3296 -45.6027,24.3189 -46.1626,23.3028 -46.712,22.2817 -47.2508,21.2559 -47.7788,20.2255 -48.2958,19.191 -48.8017,18.1526 -49.2963,17.1106 -49.7794,16.0653 -50.2509,15.017 -50.7106,13.9659 -51.1584,12.9125 -51.5939,11.8569 -52.0172,10.7994 -52.428,9.74045 -52.8261,8.68021 -53.2114,7.619 -53.5837,6.55713 -53.9429,5.49488 -54.2887,4.43254 -54.6211,3.37041 -54.9398,2.30879 -55.2446,1.24796 -55.5354,0.188209 -27.5236,-7.31754 -27.204,-6.15668 -26.8704,-5.00729 -26.5228,-3.86921 -26.1609,-2.7423 -25.7848,-1.62639 -25.3943,-0.521345 -24.9894,0.573005 -24.5699,1.65681 -24.1358,2.73022 -23.687,3.79339 -23.2234,4.84647 -22.7449,5.88963 -22.2514,6.923 -21.7428,7.94675 -21.2191,8.96104 -20.6802,9.966 -20.1259,10.9618 -19.5561,11.9486 -18.9709,12.9265 -18.37,13.8958 -17.7535,14.8565 -17.1212,15.8088 -16.473,16.7528 -15.8089,17.6888 -15.1287,18.6169 -14.4323,19.5371 -13.7198,20.4498 -12.9909,21.3549 -12.2457,22.2528 -11.4839,23.1435 -10.7056,24.0272 -9.91055,24.904 -9.09878,25.7741 -8.27017,26.6377 -7.42462,27.4949"
       vector-effect="none"
       inkscape:connector-curvature="0"
       style="fill:url(#radialGradient3804);fill-opacity:1;fill-rule:evenodd;stroke:#a50000;stroke-width:4;stroke-miterlimit:4;stroke-opacity:1;stroke-dasharray:none" />
  </g>
</svg>
