<?xml version="1.0" encoding="UTF-8" standalone="no"?>
<svg xmlns="http://www.w3.org/2000/svg" xmlns:xlink="http://www.w3.org/1999/xlink"  version="1.2" baseProfile="tiny">
<title>Qt Svg Document</title>
<desc>Generated with Qt</desc>
<defs>
</defs>
<g fill="none" stroke="black" stroke-width="1" fill-rule="evenodd" stroke-linecap="square" stroke-linejoin="bevel" >

<g fill="none" stroke="#aa2a2a" stroke-opacity="1" stroke-width="29" stroke-linecap="butt" stroke-linejoin="miter" stroke-miterlimit="2" transform="matrix(1,0,0,1,246.098,246.098)"
font-family="Sans Serif" font-size="9" font-weight="400" font-style="normal" 
>
<path vector-effect="none" fill-rule="evenodd" d="M-177.858,-129.858 C-160.887,-112.887 -175.113,-127.113 -158.142,-110.142 L-129.858,-81.8579 C-112.887,-64.8873 -79.1127,-64.8873 -62.1421,-81.8579 M-33.8579,-110.142 C-16.8873,-127.113 22.6274,-135.598 31.1127,-127.113 C39.598,-118.627 31.1127,-79.1127 14.1421,-62.1421 L-14.1421,-33.8579 C-31.1127,-16.8873 -16.8873,-31.1127 -33.8579,-14.1421 M-62.1421,14.1421 C-79.1127,31.1127 -64.8873,16.8873 -81.8579,33.8579 L-110.142,62.1421 C-127.113,79.1127 -112.887,64.8873 -129.858,81.8579 M-158.142,110.142 C-175.113,127.113 -160.887,112.887 -177.858,129.858 L-206.142,158.142 C-223.113,175.113 -231.598,214.627 -223.113,223.113 C-214.627,231.598 -175.113,223.113 -158.142,206.142 M-129.858,177.858 C-112.887,160.887 -127.113,175.113 -110.142,158.142 L-81.8579,129.858 C-64.8873,112.887 -64.8873,79.1127 -81.8579,62.1421 M-110.142,33.8579 C-127.113,16.8873 -135.598,-22.6274 -127.113,-31.1127 C-118.627,-39.598 -79.1127,-31.1127 -62.1421,-14.1421 L-33.8579,14.1421 C-16.8873,31.1127 -31.1127,16.8873 -14.1421,33.8579 M14.1421,62.1421 C31.1127,79.1127 16.8873,64.8873 33.8579,81.8579 L62.1421,110.142 C79.1127,127.113 64.8873,112.887 81.8579,129.858 M110.142,158.142 C127.113,175.113 112.887,160.887 129.858,177.858 L158.142,206.142 C175.113,223.113 214.627,231.598 223.113,223.113 C231.598,214.627 223.113,175.113 206.142,158.142 M177.858,129.858 C160.887,112.887 175.113,127.113 158.142,110.142 L129.858,81.8579 C112.887,64.8873 79.1127,64.8873 62.1421,81.8579 M33.8579,110.142 C16.8873,127.113 -22.6274,135.598 -31.1127,127.113 C-39.598,118.627 -31.1127,79.1127 -14.1421,62.1421 L14.1421,33.8579 C31.1127,16.8873 16.8873,31.1127 33.8579,14.1421 M62.1421,-14.1421 C79.1127,-31.1127 64.8873,-16.8873 81.8579,-33.8579 L110.142,-62.1421 C127.113,-79.1127 112.887,-64.8873 129.858,-81.8579 M158.142,-110.142 C175.113,-127.113 160.887,-112.887 177.858,-129.858 L206.142,-158.142 C223.113,-175.113 231.598,-214.627 223.113,-223.113 C214.627,-231.598 175.113,-223.113 158.142,-206.142 M129.858,-177.858 C112.887,-160.887 127.113,-175.113 110.142,-158.142 L81.8579,-129.858 C64.8873,-112.887 64.8873,-79.1127 81.8579,-62.1421 M110.142,-33.8579 C127.113,-16.8873 135.598,22.6274 127.113,31.1127 C118.627,39.598 79.1127,31.1127 62.1421,14.1421 L33.8579,-14.1421 C16.8873,-31.1127 31.1127,-16.8873 14.1421,-33.8579 M-14.1421,-62.1421 C-31.1127,-79.1127 -16.8873,-64.8873 -33.8579,-81.8579 L-62.1421,-110.142 C-79.1127,-127.113 -64.8873,-112.887 -81.8579,-129.858 M-110.142,-158.142 C-127.113,-175.113 -112.887,-160.887 -129.858,-177.858 L-158.142,-206.142 C-175.113,-223.113 -214.627,-231.598 -223.113,-223.113 C-231.598,-214.627 -223.113,-175.113 -206.142,-158.142 "/>
</g>

<g fill="none" stroke="#2aaa2a" stroke-opacity="1" stroke-width="29" stroke-linecap="butt" stroke-linejoin="miter" stroke-miterlimit="2" transform="matrix(1,0,0,1,246.098,246.098)"
font-family="Sans Serif" font-size="9" font-weight="400" font-style="normal" 
>
<path vector-effect="none" fill-rule="evenodd" d="M-129.858,-206.142 C-112.887,-223.113 -79.1127,-223.113 -62.1421,-206.142 L-33.8579,-177.858 C-16.8873,-160.887 16.8873,-160.887 33.8579,-177.858 M62.1421,-206.142 C79.1127,-223.113 112.887,-223.113 129.858,-206.142 L158.142,-177.858 C175.113,-160.887 160.887,-175.113 177.858,-158.142 M206.142,-129.858 C223.113,-112.887 223.113,-79.1127 206.142,-62.1421 L177.858,-33.8579 C160.887,-16.8873 160.887,16.8873 177.858,33.8579 M206.142,62.1421 C223.113,79.1127 223.113,112.887 206.142,129.858 L177.858,158.142 C160.887,175.113 175.113,160.887 158.142,177.858 M129.858,206.142 C112.887,223.113 79.1127,223.113 62.1421,206.142 L33.8579,177.858 C16.8873,160.887 -16.8873,160.887 -33.8579,177.858 M-62.1421,206.142 C-79.1127,223.113 -112.887,223.113 -129.858,206.142 L-158.142,177.858 C-175.113,160.887 -160.887,175.113 -177.858,158.142 M-206.142,129.858 C-223.113,112.887 -223.113,79.1127 -206.142,62.1421 L-177.858,33.8579 C-160.887,16.8873 -160.887,-16.8873 -177.858,-33.8579 M-206.142,-62.1421 C-223.113,-79.1127 -223.113,-112.887 -206.142,-129.858 L-177.858,-158.142 C-160.887,-175.113 -175.113,-160.887 -158.142,-177.858 "/>
</g>

<g fill="none" stroke="#2a2aaa" stroke-opacity="1" stroke-width="29" stroke-linecap="butt" stroke-linejoin="miter" stroke-miterlimit="2" transform="matrix(1,0,0,1,246.098,246.098)"
font-family="Sans Serif" font-size="9" font-weight="400" font-style="normal" 
>
<path vector-effect="none" fill-rule="evenodd" d="M-129.858,-110.142 C-112.887,-127.113 -127.113,-112.887 -110.142,-129.858 L-81.8579,-158.142 C-64.8873,-175.113 -79.1127,-160.887 -62.1421,-177.858 M-33.8579,-206.142 C-16.8873,-223.113 16.8873,-223.113 33.8579,-206.142 L62.1421,-177.858 C79.1127,-160.887 64.8873,-175.113 81.8579,-158.142 M110.142,-129.858 C127.113,-112.887 112.887,-127.113 129.858,-110.142 L158.142,-81.8579 C175.113,-64.8873 160.887,-79.1127 177.858,-62.1421 M206.142,-33.8579 C223.113,-16.8873 223.113,16.8873 206.142,33.8579 L177.858,62.1421 C160.887,79.1127 175.113,64.8873 158.142,81.8579 M129.858,110.142 C112.887,127.113 127.113,112.887 110.142,129.858 L81.8579,158.142 C64.8873,175.113 79.1127,160.887 62.1421,177.858 M33.8579,206.142 C16.8873,223.113 -16.8873,223.113 -33.8579,206.142 L-62.1421,177.858 C-79.1127,160.887 -64.8873,175.113 -81.8579,158.142 M-110.142,129.858 C-127.113,112.887 -112.887,127.113 -129.858,110.142 L-158.142,81.8579 C-175.113,64.8873 -160.887,79.1127 -177.858,62.1421 M-206.142,33.8579 C-223.113,16.8873 -223.113,-16.8873 -206.142,-33.8579 L-177.858,-62.1421 C-160.887,-79.1127 -175.113,-64.8873 -158.142,-81.8579 "/>
</g>
</g>
</svg>
