<?xml version="1.0" encoding="UTF-8" standalone="no"?>
<svg
   xmlns:dc="http://purl.org/dc/elements/1.1/"
   xmlns:cc="http://creativecommons.org/ns#"
   xmlns:rdf="http://www.w3.org/1999/02/22-rdf-syntax-ns#"
   xmlns:svg="http://www.w3.org/2000/svg"
   xmlns="http://www.w3.org/2000/svg"
   xmlns:xlink="http://www.w3.org/1999/xlink"
   xmlns:sodipodi="http://sodipodi.sourceforge.net/DTD/sodipodi-0.dtd"
   xmlns:inkscape="http://www.inkscape.org/namespaces/inkscape"
   version="1.2"
   id="svg2"
   inkscape:version="0.48.3.1 r9886"
   width="278.38"
   height="278.38"
   sodipodi:docname="icon-big-shaded.svg"
   inkscape:export-filename="/home/bazzy/Documents/C++/Knotter/img/icon.png"
   inkscape:export-xdpi="20.691141"
   inkscape:export-ydpi="20.691141">
  <metadata
     id="metadata18">
    <rdf:RDF>
      <cc:Work
         rdf:about="">
        <dc:format>image/svg+xml</dc:format>
        <dc:type
           rdf:resource="http://purl.org/dc/dcmitype/StillImage" />
        <dc:title>Qt Svg Document</dc:title>
      </cc:Work>
    </rdf:RDF>
  </metadata>
  <sodipodi:namedview
     pagecolor="#ffffff"
     bordercolor="#666666"
     borderopacity="1"
     objecttolerance="10"
     gridtolerance="10"
     guidetolerance="10"
     inkscape:pageopacity="0"
     inkscape:pageshadow="2"
     inkscape:window-width="1215"
     inkscape:window-height="749"
     id="namedview16"
     showgrid="false"
     fit-margin-top="0"
     fit-margin-left="0"
     fit-margin-right="0"
     fit-margin-bottom="0"
     inkscape:zoom="0.89702958"
     inkscape:cx="206.62177"
     inkscape:cy="68.461417"
     inkscape:window-x="38"
     inkscape:window-y="-4"
     inkscape:window-maximized="1"
     inkscape:current-layer="svg2" />
  <title
     id="title4">Qt Svg Document</title>
  <desc
     id="desc6">Generated with Qt</desc>
  <defs
     id="defs8">
    <linearGradient
       id="linearGradient3763">
      <stop
         style="stop-color:#b4b6ff;stop-opacity:1;"
         offset="0"
         id="stop3765" />
      <stop
         style="stop-color:#3c42ff;stop-opacity:1;"
         offset="1"
         id="stop3767" />
    </linearGradient>
    <radialGradient
       inkscape:collect="always"
       xlink:href="#linearGradient3763"
       id="radialGradient3769"
       cx="-34.245228"
       cy="20.796322"
       fx="-34.245228"
       fy="20.796322"
       r="113.60975"
       gradientTransform="matrix(1,0,0,0.80663631,0,-1.3234101)"
       gradientUnits="userSpaceOnUse" />
    <radialGradient
       inkscape:collect="always"
       xlink:href="#linearGradient3763"
       id="radialGradient3779"
       gradientUnits="userSpaceOnUse"
       gradientTransform="matrix(0.983864,-0.00973142,0.01141128,1.1537005,-0.083507,-4.7425829)"
       cx="-2.2295809"
       cy="4.1652331"
       fx="-2.2295809"
       fy="4.1652331"
       r="139.19099" />
    <radialGradient
       inkscape:collect="always"
       xlink:href="#linearGradient3763"
       id="radialGradient3802"
       cx="-3.1531036"
       cy="-1.4769078"
       fx="-3.1531036"
       fy="-1.4769078"
       r="132.785"
       gradientTransform="matrix(1,0,0,0.9179945,0,-2.3744774)"
       gradientUnits="userSpaceOnUse" />
    <radialGradient
       inkscape:collect="always"
       xlink:href="#linearGradient3763"
       id="radialGradient3804"
       gradientUnits="userSpaceOnUse"
       gradientTransform="matrix(1,0,0,0.9179945,0,-2.3744774)"
       cx="-3.1531036"
       cy="-1.4769078"
       fx="-3.1531036"
       fy="-1.4769078"
       r="132.785" />
    <radialGradient
       inkscape:collect="always"
       xlink:href="#linearGradient3763"
       id="radialGradient3833"
       cx="1.2377257"
       cy="-17.978075"
       fx="1.2377257"
       fy="-17.978075"
       r="132.785"
       gradientTransform="matrix(1,0,0,0.9299277,0,8.6524887)"
       gradientUnits="userSpaceOnUse"
       spreadMethod="reflect" />
    <radialGradient
       inkscape:collect="always"
       xlink:href="#linearGradient3763"
       id="radialGradient3835"
       gradientUnits="userSpaceOnUse"
       gradientTransform="matrix(1,0,0,0.9299277,0,8.6524887)"
       spreadMethod="reflect"
       cx="1.2377257"
       cy="-17.978075"
       fx="1.2377257"
       fy="-17.978075"
       r="132.785" />
    <radialGradient
       inkscape:collect="always"
       xlink:href="#linearGradient3763"
       id="radialGradient3837"
       gradientUnits="userSpaceOnUse"
       gradientTransform="matrix(1,0,0,0.9299277,0,8.6524887)"
       spreadMethod="reflect"
       cx="1.2377257"
       cy="-17.978075"
       fx="1.2377257"
       fy="-17.978075"
       r="132.785" />
    <filter
       id="filter3783"
       style="color-interpolation-filters:sRGB;"
       inkscape:label="Drop Shadow">
      <feFlood
         id="feFlood3785"
         flood-opacity="0.5"
         flood-color="rgb(0,0,0)"
         result="flood" />
      <feComposite
         id="feComposite3787"
         in2="SourceGraphic"
         in="flood"
         operator="in"
         result="composite1" />
      <feGaussianBlur
         id="feGaussianBlur3789"
         in="composite"
         stdDeviation="2"
         result="blur" />
      <feOffset
         id="feOffset3791"
         dx="6"
         dy="6"
         result="offset" />
      <feComposite
         id="feComposite3793"
         in2="offset"
         in="SourceGraphic"
         operator="over"
         result="composite2" />
    </filter>
    <filter
       id="filter3838"
       inkscape:label="filter2">
      <feGaussianBlur
         stdDeviation="2.9947761194029847"
         id="feGaussianBlur3840" />
    </filter>
    <filter
       inkscape:collect="always"
       id="filter3890">
      <feGaussianBlur
         inkscape:collect="always"
         stdDeviation="3.1460113"
         id="feGaussianBlur3892" />
    </filter>
  </defs>
  <g
     style="font-size:9px;font-style:normal;font-weight:400;fill:#666666;fill-opacity:0.49735454;stroke:#666666;stroke-width:2.0999999;stroke-miterlimit:4;stroke-opacity:0.53968255;stroke-dasharray:none;filter:url(#filter3890);font-family:Sans Serif"
     transform="matrix(1.0198518,0,0,1.0389673,144.25943,170.86348)"
     font-size="9"
     font-weight="400"
     font-style="normal"
     id="g3814">
    <path
       style="fill:#666666;fill-opacity:0.49735454;fill-rule:evenodd;stroke:#666666;stroke-width:2.0999999;stroke-miterlimit:4;stroke-opacity:0.53968255;stroke-dasharray:none"
       inkscape:connector-curvature="0"
       vector-effect="none"
       d="M 68.4764,-48.1081 55.5354,0.188209 55.2446,1.24796 54.9398,2.30879 54.6211,3.37041 54.2887,4.43254 53.9429,5.49488 53.5837,6.55713 53.2114,7.619 52.8261,8.68021 52.428,9.74045 l -0.4108,1.05895 -0.4233,1.0575 -0.4355,1.0556 -0.4478,1.0534 -0.4597,1.0511 -0.4715,1.0483 -0.4831,1.0453 -0.4946,1.042 -0.5059,1.0384 -0.517,1.0345 -0.528,1.0304 -0.5388,1.0258 -0.5494,1.0211 -0.5599,1.0161 -0.5701,1.0107 -0.5803,1.005 -0.5902,0.9991 -0.6,0.9929 -0.6095,0.9863 -0.6191,0.9795 -0.6283,0.9725 -0.6374,0.965 -0.6463,0.9573 -0.6551,0.9494 -0.6637,0.941 -0.6721,0.9325 -0.6804,0.9236 -0.6885,0.9145 -0.6964,0.905 -0.7041,0.8953 -0.7117,0.8852 -0.7192,0.8749 -0.7263,0.8643 -0.7335,0.8534 -0.7403,0.8422 -0.7471,0.8307 -0.7537,0.8188 -0.7601,0.8068 -0.7662,0.7945 -0.7724,0.7817 -20.50608,-20.5061 0.84555,-0.8572 0.82861,-0.8636 0.81177,-0.8701 0.79505,-0.8768 0.7783,-0.8837 0.7618,-0.8907 0.7452,-0.8979 0.7289,-0.9051 0.7125,-0.9127 0.6964,-0.9202 0.6802,-0.9281 0.6641,-0.936 0.6482,-0.944 0.6323,-0.9523 0.6165,-0.9607 0.6009,-0.9693 0.5852,-0.9779 0.5698,-0.9868 0.5543,-0.9958 0.5389,-1.00496 0.5237,-1.01429 0.5086,-1.02375 0.4935,-1.03337 0.4785,-1.04316 0.4636,-1.05308 0.4488,-1.06317 0.4341,-1.07341 0.4195,-1.083805 0.4049,-1.09435 0.3905,-1.105045 0.3761,-1.11591 0.3619,-1.12691 0.3476,-1.13808 0.3336,-1.14939 0.3196,-1.16086 12.941,-48.29626 0.0398,-0.2049 0.0168,-0.2314 -0.0065,-0.2578 -0.0301,-0.2846 -0.0538,-0.3114 -0.0779,-0.3383 -0.102,-0.3654 -0.1265,-0.3927 -0.1511,-0.4199 -0.1761,-0.4475 -0.2011,-0.475 -0.2264,-0.5028 -0.252,-0.5306 -0.2778,-0.5587 -0.3037,-0.5868 -0.3299,-0.615 -0.3564,-0.6435 -0.383,-0.6719 -0.4099,-0.7007 -0.437,-0.7294 -0.4644,-0.7583 -0.4918,-0.7874 -0.5196,-0.8166 -0.5476,-0.8458 -0.5758,-0.8754 -0.6043,-0.9049 -0.6329,-0.9346 -0.6617,-0.9645 -0.6909,-0.9944 -0.7201,-1.0245 -0.7497,-1.0548 -0.7795,-1.0851 -0.8094,-1.1157 -0.8396,-1.1463 -0.8701,-1.177 -0.9007,-1.2079 -0.9315,-1.239 -0.9627,-1.2701 -0.994,-1.3013 -1.0254,-1.3329 -1.0573,-1.3643 -1.0892,-1.3961 -1.1214,-1.4278 -1.1539,-1.4598 -1.1865,-1.4919 -1.2193,-1.5241 -1.2524,-1.5564 -1.2858,-1.5889 -1.3192,-1.6215 -1.35303,-1.6546 -1.38699,-1.687 -1.42117,-1.72 -1.45559,-1.753 -1.49023,-1.787 -1.52508,-1.819 -1.56017,-1.854 L 0,-112.572 l -0.97104,1.148 -1.56017,1.854 -1.52508,1.819 -1.49023,1.787 -1.45559,1.753 -1.42117,1.72 -1.38699,1.687 -1.35303,1.6546 -1.3192,1.6215 -1.2858,1.5889 -1.2524,1.5564 -1.2193,1.5241 -1.1865,1.4919 -1.1539,1.4598 -1.1214,1.4278 -1.0892,1.3961 -1.0573,1.3643 -1.0254,1.3329 -0.994,1.3013 -0.9627,1.2701 -0.9315,1.239 -0.9007,1.2079 -0.8701,1.177 -0.8396,1.1463 -0.8094,1.1157 -0.7795,1.0851 -0.7497,1.0548 -0.7201,1.0245 -0.6909,0.9944 -0.6617,0.9645 -0.6329,0.9346 -0.6043,0.9049 -0.5758,0.8754 -0.5476,0.8458 -0.5196,0.8166 -0.4918,0.7874 -0.4644,0.7583 -0.437,0.7294 -0.4099,0.7007 -0.383,0.6719 -0.3564,0.6435 -0.3299,0.615 -0.3037,0.5868 -0.2778,0.5587 -0.252,0.5306 -0.2264,0.5028 -0.2011,0.475 -0.1761,0.4475 -0.1511,0.4199 -0.1265,0.3927 -0.102,0.3654 -0.0779,0.3383 -0.0538,0.3114 -0.0301,0.2846 -0.0065,0.2578 0.0168,0.2314 0.0398,0.2049 -28.0118,7.5057 -0.1914,-0.8026 -0.1513,-0.8286 -0.1113,-0.8546 -0.0717,-0.8804 -0.0322,-0.9061 0.0071,-0.9316 0.0461,-0.957 0.0849,-0.9823 0.1235,-1.0075 0.1619,-1.0324 0.2,-1.0573 0.2379,-1.0821 0.2756,-1.1067 0.3131,-1.1312 0.3504,-1.1555 0.3874,-1.1798 0.4242,-1.2039 0.4608,-1.2278 0.4971,-1.2516 0.5333,-1.2754 0.5693,-1.2989 0.6049,-1.3224 0.6404,-1.3456 0.6757,-1.3688 0.7107,-1.3919 0.7455,-1.4148 0.7802,-1.4376 0.8145,-1.4602 0.8486,-1.4827 0.8826,-1.5051 0.9163,-1.5273 0.9497,-1.5495 0.9831,-1.5715 1.016,-1.5933 1.0489,-1.615 1.0815,-1.6367 1.1139,-1.6581 1.146,-1.6794 1.178,-1.7006 1.2097,-1.7217 1.2411,-1.7424 1.2724,-1.764 1.3035,-1.784 1.3343,-1.804 1.3649,-1.826 1.3953,-1.845 1.4254,-1.865 1.4554,-1.886 1.4851,-1.905 1.5146,-1.925 1.5438,-1.945 1.5729,-1.965 1.6018,-1.983 1.6303,-2.003 1.6587,-2.022 1.6869,-2.041 1.7148,-2.06 1.7426,-2.078 1.77,-2.097 1.7973,-2.116 1.8244,-2.133 1.8512,-2.152 1.8778,-2.17 0.8346,-0.884 0.90538,-0.811 0.97141,-0.734 1.03255,-0.652 1.08883,-0.565 1.14025,-0.473 1.18681,-0.377 1.2285,-0.275 1.26535,-0.168 1.29732,-0.057 1.69101,0.097 1.63371,0.286 1.56553,0.462 1.48648,0.629 1.39655,0.783 1.29573,0.928 1.18399,1.062 0.685,0.764 0.013,-0.015 1.8778,2.17 1.8512,2.152 1.8244,2.133 1.7973,2.116 1.77,2.097 1.7426,2.078 1.7148,2.06 1.6869,2.041 1.6587,2.022 1.6303,2.003 1.6018,1.983 1.5729,1.965 1.5438,1.945 1.5146,1.925 1.4851,1.905 1.4554,1.886 1.4254,1.865 1.3953,1.845 1.3649,1.826 1.3343,1.804 1.3035,1.784 1.2724,1.764 1.2411,1.7424 1.2097,1.7217 1.178,1.7006 1.146,1.6794 1.1139,1.6581 1.0815,1.6367 1.0489,1.615 1.016,1.5933 0.9831,1.5715 0.9497,1.5495 0.9163,1.5273 0.8826,1.5051 0.8486,1.4827 0.8145,1.4602 0.7802,1.4376 0.7455,1.4148 0.7107,1.3919 0.6757,1.3688 0.6404,1.3456 0.6049,1.3224 0.5693,1.2989 0.5333,1.2754 0.4971,1.2516 0.4608,1.2278 0.4242,1.2039 0.3874,1.1798 0.3504,1.1555 0.3131,1.1312 0.2756,1.1067 0.2379,1.0821 0.2,1.0573 0.1619,1.0324 0.1235,1.0075 0.0849,0.9823 0.0461,0.957 0.0071,0.9316 -0.0322,0.9061 -0.0717,0.8804 -0.1113,0.8546 -0.1513,0.8286 -0.1914,0.8026 m -88.5754,27.9307 -48.2963,12.94099 -0.1974,0.0679 -0.2087,0.10112 -0.2201,0.13459 -0.2314,0.16834 -0.2427,0.20232 -0.2541,0.23658 -0.2654,0.27108 -0.2768,0.30585 -0.2881,0.34088 -0.2995,0.37616 -0.3109,0.41169 -0.3222,0.4475 -0.3335,0.48355 -0.345,0.51987 -0.3563,0.55643 -0.3676,0.59327 -0.3791,0.63035 -0.3904,0.667694 -0.4018,0.7052993 -0.4132,0.7431597 -0.4246,0.781277 -0.4359,0.81965 -0.4474,0.85829 -0.4588,0.89718 -0.4701,0.93633 -0.4816,0.97574 -0.4929,1.0154 -0.5044,1.05532 -0.5158,1.09551 -0.5272,1.13598 -0.5386,1.1766 -0.55,1.2176 -0.5615,1.2588 -0.5729,1.3003 -0.5843,1.342 -0.5957,1.384 -0.6072,1.4262 -0.6186,1.4687 -0.6301,1.5115 -0.6415,1.5545 -0.6529,1.5978 -0.6644,1.6413 -0.6759,1.6851 -0.6873,1.7292 -0.6987,1.7735 -0.7103,1.818 -0.7217,1.8628 -0.7331,1.908 -0.7446,1.9532 -0.7561,1.9989 -0.7676,2.0447 -0.7791,2.0908 -0.7905,2.1372 -0.802,2.1838 -0.8136,2.2307 -0.825,2.2779 -0.5091,1.4152 1.4802,0.2666 2.3851,0.4245 2.3386,0.4108 2.2923,0.3974 2.2461,0.3839 2.2003,0.3707 2.1545,0.3577 2.1091,0.3446 2.0639,0.3317 2.0189,0.3191 1.9741,0.3064 1.9296,0.2939 1.8852,0.2816 1.8412,0.2694 1.7973,0.2572 1.7536,0.2453 1.7102,0.2334 1.667,0.2217 1.624,0.2101 1.5813,0.1987 1.5387,0.1872 1.4964,0.1761 1.4544,0.165 1.4125,0.154 1.3709,0.1432 1.3295,0.1324 1.2883,0.1219 1.2474,0.1114 1.2066,0.1011 1.1661,0.0908 1.1258,0.0808 1.0858,0.0708 1.046,0.061 1.0064,0.0513 0.9669,0.0417 0.9279,0.0323 0.8889,0.0229 0.8501,0.0138 0.8118,0.0047 0.7734,-0.0043 0.7354,-0.0131 0.6977,-0.0218 0.66,-0.0303 0.6227,-0.0388 0.5855,-0.0471 0.5487,-0.0553 0.5119,-0.0633 0.4755,-0.0713 0.4393,-0.0791 0.4033,-0.0868 0.3674,-0.0943 0.332,-0.1018 0.2966,-0.109 0.2614,-0.1163 0.2266,-0.1232 0.192,-0.1302 0.1575,-0.1371 20.50608,20.5061 -0.59937,0.5671 -0.642,0.5453 -0.68443,0.5238 -0.72658,0.5022 -0.7686,0.4809 -0.8104,0.4597 -0.8518,0.4386 -0.8931,0.4176 -0.9343,0.3968 -0.975,0.376 -1.0157,0.3555 -1.0561,0.335 -1.0962,0.3146 -1.1362,0.2945 -1.1759,0.2743 -1.2154,0.2544 -1.2547,0.2346 -1.2937,0.2148 -1.3325,0.1953 -1.3712,0.1758 -1.4095,0.1565 -1.4477,0.1373 -1.4855,0.1182 -1.5233,0.0993 -1.5608,0.0804 -1.598,0.0617 -1.635,0.0432 -1.6718,0.0247 -1.7084,0.0064 -1.7447,-0.0117 -1.7809,-0.0299 -1.8168,-0.0478 -1.8524,-0.0656 -1.8879,-0.0833 -1.9231,-0.1008 -1.9582,-0.1183 -1.9929,-0.1356 -2.0274,-0.1528 -2.0618,-0.1698 -2.0958,-0.1867 -2.1298,-0.2036 -2.1634,-0.2202 -2.1968,-0.2368 -2.23,-0.2532 -2.2631,-0.2695 -2.2957,-0.2857 -2.3283,-0.3017 -2.3606,-0.3176 -2.3927,-0.3334 -2.4245,-0.3491 -2.4561,-0.3647 -2.4876,-0.38 -2.5187,-0.3953 -2.5497,-0.4105 -2.5804,-0.4255 -2.6109,-0.4405 -2.641,-0.4552 -2.672,-0.4698 -2.701,-0.4844 -2.73,-0.4988 -2.76,-0.5131 -2.79,-0.5272 -2.818,-0.5412 -1.514,-0.3774 -1.446,-0.5312 -1.37,-0.6756 -1.283,-0.8109 -1.188,-0.9366 -1.082,-1.0532 -0.969,-1.1604 -0.845,-1.2582 -0.712,-1.3467 -0.571,-1.426 -0.418,-1.4958 -0.259,-1.5563 -0.088,-1.6076 0.092,-1.6357 0.267,-1.5819 0.432,-1.5176 0.003,0.0034 0.941,-2.7113 0.938,-2.6791 0.935,-2.6468 0.934,-2.6143 0.931,-2.5814 0.928,-2.5483 0.927,-2.515 0.924,-2.4813 0.922,-2.4475 0.919,-2.4133 0.917,-2.379 0.915,-2.3443 0.912,-2.3094 0.91,-2.2742 0.907,-2.2388 0.906,-2.2032 0.902,-2.1672 0.901,-2.131 0.898,-2.0946 0.896,-2.0579 0.893,-2.0209 0.891,-1.9836 0.889,-1.94623 0.886,-1.90846 0.884,-1.87046 0.881,-1.8322 0.879,-1.79369 0.877,-1.754922 0.874,-1.715898 0.872,-1.6766 0.869,-1.63707 0.867,-1.59726 0.865,-1.5572 0.862,-1.51689 0.8597,-1.47632 0.8574,-1.4355 0.8549,-1.3944 0.8524,-1.353 0.8501,-1.3114 0.8476,-1.2696 0.8451,-1.2274 0.8428,-1.1851 0.8402,-1.1424 0.8379,-1.0996 0.8353,-1.0563 0.833,-1.013 0.8304,-0.9693 0.8281,-0.9254 0.8255,-0.8812 0.8231,-0.8367 0.8206,-0.7921 0.8182,-0.7471 0.8156,-0.7018 0.8132,-0.6564 0.8108,-0.6107 0.8082,-0.5647 0.8057,-0.5184 0.8033,-0.4719 0.8008,-0.4252 0.7983,-0.3781 0.7957,-0.3309 0.7933,-0.2833 0.7908,-0.2356 48.2963,-12.9409 0.9298,-0.2439 0.936,-0.235 0.9418,-0.2261 0.9475,-0.2173 0.953,-0.2084 0.9581,-0.1996 0.9632,-0.1906 0.9678,-0.1818 0.9725,-0.173 0.9767,-0.164 0.9808,-0.1552 0.9846,-0.1464 0.9883,-0.1374 0.9916,-0.1286 0.9948,-0.1197 0.9978,-0.1109 1.0005,-0.102 1.003,-0.0931 1.00521,-0.0842 1.00728,-0.0754 1.00909,-0.0665 1.01067,-0.0577 1.01204,-0.0487 1.01316,-0.04 1.01407,-0.031 1.01475,-0.0222 1.0152,-0.0133 L 0,-51.6656 l 1.01543,0.0044 1.0152,0.0133 1.01475,0.0222 1.01407,0.031 1.01316,0.04 1.01204,0.0487 1.01067,0.0577 1.00909,0.0665 1.00728,0.0754 1.00521,0.0842 1.003,0.0931 1.0005,0.102 0.9978,0.1109 0.9948,0.1197 0.9916,0.1286 0.9883,0.1374 0.9846,0.1464 0.9808,0.1552 0.9767,0.164 0.9725,0.173 0.9678,0.1818 0.9632,0.1906 0.9581,0.1996 0.953,0.2084 0.9475,0.2173 0.9418,0.2261 0.936,0.235 0.9298,0.2439 -7.5057,28.0118 -0.9948,-0.2603 -0.9927,-0.2473 -0.9906,-0.2344 -0.9887,-0.2212 -0.9868,-0.2083 -0.9851,-0.1953 -0.9836,-0.1822 -0.982,-0.1693 -0.9807,-0.1562 -0.9794,-0.1432 -0.97818,-0.1301 -0.97718,-0.1172 -0.97624,-0.1041 -0.97541,-0.0911 -0.97469,-0.0781 -0.97408,-0.0651 -0.97359,-0.0521 -0.9732,-0.0391 -0.97292,-0.026 -0.972759,-0.013 -0.972702,0 -0.972759,0.013 -0.97292,0.026 -0.9732,0.0391 -0.97359,0.0521 -0.97408,0.0651 -0.97469,0.0781 -0.97541,0.0911 -0.97624,0.1041 -0.97718,0.1172 -0.97818,0.1301 -0.9794,0.1432 -0.9807,0.1562 -0.982,0.1693 -0.9836,0.1822 -0.9851,0.1953 -0.9868,0.2083 -0.9887,0.2212 -0.9906,0.2344 -0.9927,0.2473 -0.9948,0.2603 m 12.67438,47.6723 35.35532,35.3553 0.1575,0.1371 0.192,0.1302 0.2266,0.1232 0.2614,0.1163 0.2966,0.109 0.332,0.1018 0.3674,0.0943 0.4033,0.0868 0.4393,0.0791 0.4755,0.0713 0.5119,0.0633 0.5487,0.0553 0.5855,0.0471 0.6227,0.0388 0.66,0.0303 0.6977,0.0218 0.7354,0.0131 0.7734,0.0043 0.8118,-0.0047 0.8501,-0.0138 0.8889,-0.0229 0.9279,-0.0323 0.9669,-0.0417 1.0064,-0.0513 1.046,-0.061 1.0858,-0.0708 1.1258,-0.0808 1.1661,-0.0908 1.2066,-0.1011 1.2474,-0.1114 1.2883,-0.1219 1.3295,-0.1324 1.3709,-0.1432 1.4125,-0.154 1.4544,-0.165 1.4964,-0.1761 1.5387,-0.1872 1.5813,-0.1987 1.624,-0.2101 1.667,-0.2217 1.7102,-0.2334 1.7536,-0.2453 1.7973,-0.2572 1.8412,-0.2694 1.8852,-0.2816 1.9296,-0.2939 1.9741,-0.3064 2.0189,-0.3191 2.0639,-0.3317 2.1091,-0.3446 2.1545,-0.3577 2.2003,-0.3707 2.2461,-0.3839 2.2923,-0.3974 2.3386,-0.4108 2.3851,-0.4245 1.4802,-0.2666 -0.5091,-1.4152 -0.825,-2.2779 -0.8136,-2.2307 -0.802,-2.1838 -0.7905,-2.1372 -0.7791,-2.0908 -0.7676,-2.0447 -0.7561,-1.9989 -0.7446,-1.9532 -0.7331,-1.908 -0.7217,-1.8628 -0.7103,-1.818 -0.6987,-1.7735 -0.6873,-1.7292 -0.6759,-1.6851 -0.6644,-1.6413 -0.6529,-1.5978 -0.6415,-1.5545 -0.6301,-1.5115 -0.6186,-1.4687 -0.6072,-1.4262 -0.5957,-1.384 -0.5843,-1.342 -0.5729,-1.3003 -0.5615,-1.2588 -0.55,-1.2176 L 79.2582,10.2979 78.731,9.16192 78.2152,8.06641 77.7108,7.01109 77.2179,5.99569 76.7363,5.01995 76.2662,4.08362 75.8074,3.18644 75.36,2.32815 74.9241,1.5085 74.4995,0.727223 74.0863,-0.0159367 73.6845,-0.721236 73.2941,-1.38893 72.915,-2.01928 72.5474,-2.61255 72.1911,-3.16898 71.8461,-3.68885 71.5126,-4.1724 71.1904,-4.6199 70.8795,-5.03159 70.58,-5.40775 70.2919,-5.74863 70.0151,-6.05448 69.7497,-6.32556 69.4956,-6.56214 69.2529,-6.76446 69.0215,-6.9328 l -0.2201,-0.13459 -0.2087,-0.10112 -0.1974,-0.0679 7.5057,-28.01189 0.7908,0.2356 0.7933,0.2833 0.7957,0.3309 0.7983,0.3781 0.8008,0.4252 0.8033,0.4719 0.8057,0.5184 0.8082,0.5647 0.8108,0.6107 0.8132,0.6564 0.8156,0.7018 0.8182,0.7471 0.8206,0.7921 0.8231,0.8367 0.8255,0.8812 0.8281,0.9254 0.8304,0.9693 0.833,1.013 0.8353,1.0563 0.8379,1.0996 0.8402,1.1424 0.8428,1.1851 0.8451,1.2274 0.8476,1.2696 0.8501,1.3114 0.8524,1.353 0.8549,1.3944 0.8574,1.4355 0.8597,1.47632 0.862,1.51689 0.865,1.5572 0.867,1.59726 0.869,1.63707 0.872,1.6766 0.874,1.715898 0.877,1.754922 0.879,1.79369 0.881,1.8322 0.884,1.87046 0.886,1.90846 0.889,1.94623 0.891,1.9836 0.893,2.0209 0.896,2.0579 0.898,2.0946 0.901,2.131 0.902,2.1672 0.906,2.2032 0.907,2.2388 0.91,2.2742 0.912,2.3094 0.915,2.3443 0.917,2.379 0.919,2.4133 0.922,2.4475 0.924,2.4813 0.927,2.515 0.928,2.5483 0.931,2.5814 0.934,2.6143 0.935,2.6468 0.938,2.6791 0.941,2.7113 0.435,1.5163 0.267,1.5808 0.092,1.6347 -0.089,1.6079 -0.258,1.5567 -0.419,1.4961 -0.57,1.4262 -0.712,1.347 -0.845,1.2584 -0.968,1.1605 -1.083,1.0532 -1.187,0.9367 -1.282,0.8108 -1.368,0.6756 -1.445,0.531 -1.512,0.3771 -0.007,-0.0013 -2.818,0.5412 -2.79,0.5272 -2.76,0.5131 -2.73,0.4988 -2.701,0.4844 -2.672,0.4698 -2.641,0.4552 -2.6109,0.4405 -2.5804,0.4255 -2.5497,0.4105 -2.5187,0.3953 -2.4876,0.38 -2.4561,0.3647 -2.4245,0.3491 -2.3927,0.3334 -2.3606,0.3176 -2.3283,0.3017 -2.2957,0.2857 -2.2631,0.2695 -2.23,0.2532 -2.1968,0.2368 -2.1634,0.2202 -2.1298,0.2036 -2.0958,0.1867 -2.0618,0.1698 -2.0274,0.1528 -1.9929,0.1356 -1.9582,0.1183 -1.9231,0.1008 -1.8879,0.0833 -1.8524,0.0656 -1.8168,0.0478 -1.7809,0.0299 -1.7447,0.0117 -1.7084,-0.0064 -1.6718,-0.0247 -1.635,-0.0432 -1.598,-0.0617 L 33.1238,91.2244 31.6005,91.1251 30.115,91.0069 28.6673,90.8696 27.2578,90.7131 25.8866,90.5373 24.5541,90.342 23.2604,90.1272 22.0057,89.8926 20.7903,89.6382 19.6144,89.3639 18.4782,89.0694 17.382,88.7548 16.3259,88.4198 15.3102,88.0643 14.3352,87.6883 13.4009,87.2915 12.5078,86.8739 11.656,86.4353 10.8456,85.9756 10.077,85.4947 9.35042,84.9925 8.66599,84.4687 8.02399,83.9234 7.42462,83.3563 -27.9307,48.001 l -0.7724,-0.7817 -0.7662,-0.7945 -0.7601,-0.8068 -0.7537,-0.8188 -0.7471,-0.8307 -0.7403,-0.8422 -0.7335,-0.8534 -0.7263,-0.8643 -0.7192,-0.8749 -0.7117,-0.8852 -0.7041,-0.8953 -0.6964,-0.905 -0.6885,-0.9145 -0.6804,-0.9236 -0.6721,-0.9325 -0.6637,-0.941 -0.6551,-0.9494 -0.6463,-0.9573 -0.6374,-0.965 -0.6283,-0.9725 -0.6191,-0.9795 -0.6095,-0.9863 -0.6,-0.9929 -0.5902,-0.9991 -0.5803,-1.005 -0.5701,-1.0107 -0.5599,-1.0161 -0.5494,-1.0211 -0.5388,-1.0258 -0.528,-1.0304 -0.517,-1.0345 -0.5059,-1.0384 -0.4946,-1.042 -0.4831,-1.0453 -0.4715,-1.0483 -0.4597,-1.0511 -0.4478,-1.0534 -0.4355,-1.0556 -0.4233,-1.0575 -0.4108,-1.05895 -0.3981,-1.06024 -0.3853,-1.06121 -0.3723,-1.06187 -0.3592,-1.06225 -0.3458,-1.06234 -0.3324,-1.06213 -0.3187,-1.06162 -0.3048,-1.06083 -0.2908,-1.059751 28.0118,-7.505749 0.3196,1.16086 0.3336,1.14939 0.3476,1.13808 0.3619,1.12691 0.3761,1.11591 0.3905,1.105045 0.4049,1.09435 0.4195,1.083805 0.4341,1.07341 0.4488,1.06317 0.4636,1.05308 0.4785,1.04316 0.4935,1.03337 0.5086,1.02375 0.5237,1.01429 0.5389,1.00496 0.5543,0.9958 0.5698,0.9868 0.5852,0.9779 0.6009,0.9693 0.6165,0.9607 0.6323,0.9523 0.6482,0.944 0.6641,0.936 0.6802,0.9281 0.6964,0.9202 0.7125,0.9127 0.7289,0.9051 0.7452,0.8979 0.7618,0.8907 0.7783,0.8837 0.79505,0.8768 0.81177,0.8701 0.82861,0.8636 0.84555,0.8572"
       id="path3816" />
  </g>
  <g
     id="g3009"
     font-style="normal"
     font-weight="400"
     font-size="9"
     transform="translate(135.46622,165.44544)"
     style="font-size:9px;font-style:normal;font-weight:400;fill:url(#radialGradient3802);fill-opacity:1;stroke:#a50000;stroke-width:4;stroke-linecap:square;stroke-linejoin:bevel;stroke-miterlimit:4;stroke-opacity:1;stroke-dasharray:none;font-family:Sans Serif;">
    <path
       id="path3011"
       d="M 68.4764,-48.1081 55.5354,0.188209 55.2446,1.24796 54.9398,2.30879 54.6211,3.37041 54.2887,4.43254 53.9429,5.49488 53.5837,6.55713 53.2114,7.619 52.8261,8.68021 52.428,9.74045 l -0.4108,1.05895 -0.4233,1.0575 -0.4355,1.0556 -0.4478,1.0534 -0.4597,1.0511 -0.4715,1.0483 -0.4831,1.0453 -0.4946,1.042 -0.5059,1.0384 -0.517,1.0345 -0.528,1.0304 -0.5388,1.0258 -0.5494,1.0211 -0.5599,1.0161 -0.5701,1.0107 -0.5803,1.005 -0.5902,0.9991 -0.6,0.9929 -0.6095,0.9863 -0.6191,0.9795 -0.6283,0.9725 -0.6374,0.965 -0.6463,0.9573 -0.6551,0.9494 -0.6637,0.941 -0.6721,0.9325 -0.6804,0.9236 -0.6885,0.9145 -0.6964,0.905 -0.7041,0.8953 -0.7117,0.8852 -0.7192,0.8749 -0.7263,0.8643 -0.7335,0.8534 -0.7403,0.8422 -0.7471,0.8307 -0.7537,0.8188 -0.7601,0.8068 -0.7662,0.7945 -0.7724,0.7817 -20.50608,-20.5061 0.84555,-0.8572 0.82861,-0.8636 0.81177,-0.8701 0.79505,-0.8768 0.7783,-0.8837 0.7618,-0.8907 0.7452,-0.8979 0.7289,-0.9051 0.7125,-0.9127 0.6964,-0.9202 0.6802,-0.9281 0.6641,-0.936 0.6482,-0.944 0.6323,-0.9523 0.6165,-0.9607 0.6009,-0.9693 0.5852,-0.9779 0.5698,-0.9868 0.5543,-0.9958 0.5389,-1.00496 0.5237,-1.01429 0.5086,-1.02375 0.4935,-1.03337 0.4785,-1.04316 0.4636,-1.05308 0.4488,-1.06317 0.4341,-1.07341 0.4195,-1.083805 0.4049,-1.09435 0.3905,-1.105045 0.3761,-1.11591 0.3619,-1.12691 0.3476,-1.13808 0.3336,-1.14939 0.3196,-1.16086 12.941,-48.29626 0.0398,-0.2049 0.0168,-0.2314 -0.0065,-0.2578 -0.0301,-0.2846 -0.0538,-0.3114 -0.0779,-0.3383 -0.102,-0.3654 -0.1265,-0.3927 -0.1511,-0.4199 -0.1761,-0.4475 -0.2011,-0.475 -0.2264,-0.5028 -0.252,-0.5306 -0.2778,-0.5587 -0.3037,-0.5868 -0.3299,-0.615 -0.3564,-0.6435 -0.383,-0.6719 -0.4099,-0.7007 -0.437,-0.7294 -0.4644,-0.7583 -0.4918,-0.7874 -0.5196,-0.8166 -0.5476,-0.8458 -0.5758,-0.8754 -0.6043,-0.9049 -0.6329,-0.9346 -0.6617,-0.9645 -0.6909,-0.9944 -0.7201,-1.0245 -0.7497,-1.0548 -0.7795,-1.0851 -0.8094,-1.1157 -0.8396,-1.1463 -0.8701,-1.177 -0.9007,-1.2079 -0.9315,-1.239 -0.9627,-1.2701 -0.994,-1.3013 -1.0254,-1.3329 -1.0573,-1.3643 -1.0892,-1.3961 -1.1214,-1.4278 -1.1539,-1.4598 -1.1865,-1.4919 -1.2193,-1.5241 -1.2524,-1.5564 -1.2858,-1.5889 -1.3192,-1.6215 -1.35303,-1.6546 -1.38699,-1.687 -1.42117,-1.72 -1.45559,-1.753 -1.49023,-1.787 -1.52508,-1.819 -1.56017,-1.854 L 0,-112.572 l -0.97104,1.148 -1.56017,1.854 -1.52508,1.819 -1.49023,1.787 -1.45559,1.753 -1.42117,1.72 -1.38699,1.687 -1.35303,1.6546 -1.3192,1.6215 -1.2858,1.5889 -1.2524,1.5564 -1.2193,1.5241 -1.1865,1.4919 -1.1539,1.4598 -1.1214,1.4278 -1.0892,1.3961 -1.0573,1.3643 -1.0254,1.3329 -0.994,1.3013 -0.9627,1.2701 -0.9315,1.239 -0.9007,1.2079 -0.8701,1.177 -0.8396,1.1463 -0.8094,1.1157 -0.7795,1.0851 -0.7497,1.0548 -0.7201,1.0245 -0.6909,0.9944 -0.6617,0.9645 -0.6329,0.9346 -0.6043,0.9049 -0.5758,0.8754 -0.5476,0.8458 -0.5196,0.8166 -0.4918,0.7874 -0.4644,0.7583 -0.437,0.7294 -0.4099,0.7007 -0.383,0.6719 -0.3564,0.6435 -0.3299,0.615 -0.3037,0.5868 -0.2778,0.5587 -0.252,0.5306 -0.2264,0.5028 -0.2011,0.475 -0.1761,0.4475 -0.1511,0.4199 -0.1265,0.3927 -0.102,0.3654 -0.0779,0.3383 -0.0538,0.3114 -0.0301,0.2846 -0.0065,0.2578 0.0168,0.2314 0.0398,0.2049 -28.0118,7.5057 -0.1914,-0.8026 -0.1513,-0.8286 -0.1113,-0.8546 -0.0717,-0.8804 -0.0322,-0.9061 0.0071,-0.9316 0.0461,-0.957 0.0849,-0.9823 0.1235,-1.0075 0.1619,-1.0324 0.2,-1.0573 0.2379,-1.0821 0.2756,-1.1067 0.3131,-1.1312 0.3504,-1.1555 0.3874,-1.1798 0.4242,-1.2039 0.4608,-1.2278 0.4971,-1.2516 0.5333,-1.2754 0.5693,-1.2989 0.6049,-1.3224 0.6404,-1.3456 0.6757,-1.3688 0.7107,-1.3919 0.7455,-1.4148 0.7802,-1.4376 0.8145,-1.4602 0.8486,-1.4827 0.8826,-1.5051 0.9163,-1.5273 0.9497,-1.5495 0.9831,-1.5715 1.016,-1.5933 1.0489,-1.615 1.0815,-1.6367 1.1139,-1.6581 1.146,-1.6794 1.178,-1.7006 1.2097,-1.7217 1.2411,-1.7424 1.2724,-1.764 1.3035,-1.784 1.3343,-1.804 1.3649,-1.826 1.3953,-1.845 1.4254,-1.865 1.4554,-1.886 1.4851,-1.905 1.5146,-1.925 1.5438,-1.945 1.5729,-1.965 1.6018,-1.983 1.6303,-2.003 1.6587,-2.022 1.6869,-2.041 1.7148,-2.06 1.7426,-2.078 1.77,-2.097 1.7973,-2.116 1.8244,-2.133 1.8512,-2.152 1.8778,-2.17 0.8346,-0.884 0.90538,-0.811 0.97141,-0.734 1.03255,-0.652 1.08883,-0.565 1.14025,-0.473 1.18681,-0.377 1.2285,-0.275 1.26535,-0.168 1.29732,-0.057 1.69101,0.097 1.63371,0.286 1.56553,0.462 1.48648,0.629 1.39655,0.783 1.29573,0.928 1.18399,1.062 0.685,0.764 0.013,-0.015 1.8778,2.17 1.8512,2.152 1.8244,2.133 1.7973,2.116 1.77,2.097 1.7426,2.078 1.7148,2.06 1.6869,2.041 1.6587,2.022 1.6303,2.003 1.6018,1.983 1.5729,1.965 1.5438,1.945 1.5146,1.925 1.4851,1.905 1.4554,1.886 1.4254,1.865 1.3953,1.845 1.3649,1.826 1.3343,1.804 1.3035,1.784 1.2724,1.764 1.2411,1.7424 1.2097,1.7217 1.178,1.7006 1.146,1.6794 1.1139,1.6581 1.0815,1.6367 1.0489,1.615 1.016,1.5933 0.9831,1.5715 0.9497,1.5495 0.9163,1.5273 0.8826,1.5051 0.8486,1.4827 0.8145,1.4602 0.7802,1.4376 0.7455,1.4148 0.7107,1.3919 0.6757,1.3688 0.6404,1.3456 0.6049,1.3224 0.5693,1.2989 0.5333,1.2754 0.4971,1.2516 0.4608,1.2278 0.4242,1.2039 0.3874,1.1798 0.3504,1.1555 0.3131,1.1312 0.2756,1.1067 0.2379,1.0821 0.2,1.0573 0.1619,1.0324 0.1235,1.0075 0.0849,0.9823 0.0461,0.957 0.0071,0.9316 -0.0322,0.9061 -0.0717,0.8804 -0.1113,0.8546 -0.1513,0.8286 -0.1914,0.8026 m -88.5754,27.9307 -48.2963,12.94099 -0.1974,0.0679 -0.2087,0.10112 -0.2201,0.13459 -0.2314,0.16834 -0.2427,0.20232 -0.2541,0.23658 -0.2654,0.27108 -0.2768,0.30585 -0.2881,0.34088 -0.2995,0.37616 -0.3109,0.41169 -0.3222,0.4475 -0.3335,0.48355 -0.345,0.51987 -0.3563,0.55643 -0.3676,0.59327 -0.3791,0.63035 -0.3904,0.667694 -0.4018,0.7052993 -0.4132,0.7431597 -0.4246,0.781277 -0.4359,0.81965 -0.4474,0.85829 -0.4588,0.89718 -0.4701,0.93633 -0.4816,0.97574 -0.4929,1.0154 -0.5044,1.05532 -0.5158,1.09551 -0.5272,1.13598 -0.5386,1.1766 -0.55,1.2176 -0.5615,1.2588 -0.5729,1.3003 -0.5843,1.342 -0.5957,1.384 -0.6072,1.4262 -0.6186,1.4687 -0.6301,1.5115 -0.6415,1.5545 -0.6529,1.5978 -0.6644,1.6413 -0.6759,1.6851 -0.6873,1.7292 -0.6987,1.7735 -0.7103,1.818 -0.7217,1.8628 -0.7331,1.908 -0.7446,1.9532 -0.7561,1.9989 -0.7676,2.0447 -0.7791,2.0908 -0.7905,2.1372 -0.802,2.1838 -0.8136,2.2307 -0.825,2.2779 -0.5091,1.4152 1.4802,0.2666 2.3851,0.4245 2.3386,0.4108 2.2923,0.3974 2.2461,0.3839 2.2003,0.3707 2.1545,0.3577 2.1091,0.3446 2.0639,0.3317 2.0189,0.3191 1.9741,0.3064 1.9296,0.2939 1.8852,0.2816 1.8412,0.2694 1.7973,0.2572 1.7536,0.2453 1.7102,0.2334 1.667,0.2217 1.624,0.2101 1.5813,0.1987 1.5387,0.1872 1.4964,0.1761 1.4544,0.165 1.4125,0.154 1.3709,0.1432 1.3295,0.1324 1.2883,0.1219 1.2474,0.1114 1.2066,0.1011 1.1661,0.0908 1.1258,0.0808 1.0858,0.0708 1.046,0.061 1.0064,0.0513 0.9669,0.0417 0.9279,0.0323 0.8889,0.0229 0.8501,0.0138 0.8118,0.0047 0.7734,-0.0043 0.7354,-0.0131 0.6977,-0.0218 0.66,-0.0303 0.6227,-0.0388 0.5855,-0.0471 0.5487,-0.0553 0.5119,-0.0633 0.4755,-0.0713 0.4393,-0.0791 0.4033,-0.0868 0.3674,-0.0943 0.332,-0.1018 0.2966,-0.109 0.2614,-0.1163 0.2266,-0.1232 0.192,-0.1302 0.1575,-0.1371 20.50608,20.5061 -0.59937,0.5671 -0.642,0.5453 -0.68443,0.5238 -0.72658,0.5022 -0.7686,0.4809 -0.8104,0.4597 -0.8518,0.4386 -0.8931,0.4176 -0.9343,0.3968 -0.975,0.376 -1.0157,0.3555 -1.0561,0.335 -1.0962,0.3146 -1.1362,0.2945 -1.1759,0.2743 -1.2154,0.2544 -1.2547,0.2346 -1.2937,0.2148 -1.3325,0.1953 -1.3712,0.1758 -1.4095,0.1565 -1.4477,0.1373 -1.4855,0.1182 -1.5233,0.0993 -1.5608,0.0804 -1.598,0.0617 -1.635,0.0432 -1.6718,0.0247 -1.7084,0.0064 -1.7447,-0.0117 -1.7809,-0.0299 -1.8168,-0.0478 -1.8524,-0.0656 -1.8879,-0.0833 -1.9231,-0.1008 -1.9582,-0.1183 -1.9929,-0.1356 -2.0274,-0.1528 -2.0618,-0.1698 -2.0958,-0.1867 -2.1298,-0.2036 -2.1634,-0.2202 -2.1968,-0.2368 -2.23,-0.2532 -2.2631,-0.2695 -2.2957,-0.2857 -2.3283,-0.3017 -2.3606,-0.3176 -2.3927,-0.3334 -2.4245,-0.3491 -2.4561,-0.3647 -2.4876,-0.38 -2.5187,-0.3953 -2.5497,-0.4105 -2.5804,-0.4255 -2.6109,-0.4405 -2.641,-0.4552 -2.672,-0.4698 -2.701,-0.4844 -2.73,-0.4988 -2.76,-0.5131 -2.79,-0.5272 -2.818,-0.5412 -1.514,-0.3774 -1.446,-0.5312 -1.37,-0.6756 -1.283,-0.8109 -1.188,-0.9366 -1.082,-1.0532 -0.969,-1.1604 -0.845,-1.2582 -0.712,-1.3467 -0.571,-1.426 -0.418,-1.4958 -0.259,-1.5563 -0.088,-1.6076 0.092,-1.6357 0.267,-1.5819 0.432,-1.5176 0.003,0.0034 0.941,-2.7113 0.938,-2.6791 0.935,-2.6468 0.934,-2.6143 0.931,-2.5814 0.928,-2.5483 0.927,-2.515 0.924,-2.4813 0.922,-2.4475 0.919,-2.4133 0.917,-2.379 0.915,-2.3443 0.912,-2.3094 0.91,-2.2742 0.907,-2.2388 0.906,-2.2032 0.902,-2.1672 0.901,-2.131 0.898,-2.0946 0.896,-2.0579 0.893,-2.0209 0.891,-1.9836 0.889,-1.94623 0.886,-1.90846 0.884,-1.87046 0.881,-1.8322 0.879,-1.79369 0.877,-1.754922 0.874,-1.715898 0.872,-1.6766 0.869,-1.63707 0.867,-1.59726 0.865,-1.5572 0.862,-1.51689 0.8597,-1.47632 0.8574,-1.4355 0.8549,-1.3944 0.8524,-1.353 0.8501,-1.3114 0.8476,-1.2696 0.8451,-1.2274 0.8428,-1.1851 0.8402,-1.1424 0.8379,-1.0996 0.8353,-1.0563 0.833,-1.013 0.8304,-0.9693 0.8281,-0.9254 0.8255,-0.8812 0.8231,-0.8367 0.8206,-0.7921 0.8182,-0.7471 0.8156,-0.7018 0.8132,-0.6564 0.8108,-0.6107 0.8082,-0.5647 0.8057,-0.5184 0.8033,-0.4719 0.8008,-0.4252 0.7983,-0.3781 0.7957,-0.3309 0.7933,-0.2833 0.7908,-0.2356 48.2963,-12.9409 0.9298,-0.2439 0.936,-0.235 0.9418,-0.2261 0.9475,-0.2173 0.953,-0.2084 0.9581,-0.1996 0.9632,-0.1906 0.9678,-0.1818 0.9725,-0.173 0.9767,-0.164 0.9808,-0.1552 0.9846,-0.1464 0.9883,-0.1374 0.9916,-0.1286 0.9948,-0.1197 0.9978,-0.1109 1.0005,-0.102 1.003,-0.0931 1.00521,-0.0842 1.00728,-0.0754 1.00909,-0.0665 1.01067,-0.0577 1.01204,-0.0487 1.01316,-0.04 1.01407,-0.031 1.01475,-0.0222 1.0152,-0.0133 L 0,-51.6656 l 1.01543,0.0044 1.0152,0.0133 1.01475,0.0222 1.01407,0.031 1.01316,0.04 1.01204,0.0487 1.01067,0.0577 1.00909,0.0665 1.00728,0.0754 1.00521,0.0842 1.003,0.0931 1.0005,0.102 0.9978,0.1109 0.9948,0.1197 0.9916,0.1286 0.9883,0.1374 0.9846,0.1464 0.9808,0.1552 0.9767,0.164 0.9725,0.173 0.9678,0.1818 0.9632,0.1906 0.9581,0.1996 0.953,0.2084 0.9475,0.2173 0.9418,0.2261 0.936,0.235 0.9298,0.2439 -7.5057,28.0118 -0.9948,-0.2603 -0.9927,-0.2473 -0.9906,-0.2344 -0.9887,-0.2212 -0.9868,-0.2083 -0.9851,-0.1953 -0.9836,-0.1822 -0.982,-0.1693 -0.9807,-0.1562 -0.9794,-0.1432 -0.97818,-0.1301 -0.97718,-0.1172 -0.97624,-0.1041 -0.97541,-0.0911 -0.97469,-0.0781 -0.97408,-0.0651 -0.97359,-0.0521 -0.9732,-0.0391 -0.97292,-0.026 -0.972759,-0.013 -0.972702,0 -0.972759,0.013 -0.97292,0.026 -0.9732,0.0391 -0.97359,0.0521 -0.97408,0.0651 -0.97469,0.0781 -0.97541,0.0911 -0.97624,0.1041 -0.97718,0.1172 -0.97818,0.1301 -0.9794,0.1432 -0.9807,0.1562 -0.982,0.1693 -0.9836,0.1822 -0.9851,0.1953 -0.9868,0.2083 -0.9887,0.2212 -0.9906,0.2344 -0.9927,0.2473 -0.9948,0.2603 m 12.67438,47.6723 35.35532,35.3553 0.1575,0.1371 0.192,0.1302 0.2266,0.1232 0.2614,0.1163 0.2966,0.109 0.332,0.1018 0.3674,0.0943 0.4033,0.0868 0.4393,0.0791 0.4755,0.0713 0.5119,0.0633 0.5487,0.0553 0.5855,0.0471 0.6227,0.0388 0.66,0.0303 0.6977,0.0218 0.7354,0.0131 0.7734,0.0043 0.8118,-0.0047 0.8501,-0.0138 0.8889,-0.0229 0.9279,-0.0323 0.9669,-0.0417 1.0064,-0.0513 1.046,-0.061 1.0858,-0.0708 1.1258,-0.0808 1.1661,-0.0908 1.2066,-0.1011 1.2474,-0.1114 1.2883,-0.1219 1.3295,-0.1324 1.3709,-0.1432 1.4125,-0.154 1.4544,-0.165 1.4964,-0.1761 1.5387,-0.1872 1.5813,-0.1987 1.624,-0.2101 1.667,-0.2217 1.7102,-0.2334 1.7536,-0.2453 1.7973,-0.2572 1.8412,-0.2694 1.8852,-0.2816 1.9296,-0.2939 1.9741,-0.3064 2.0189,-0.3191 2.0639,-0.3317 2.1091,-0.3446 2.1545,-0.3577 2.2003,-0.3707 2.2461,-0.3839 2.2923,-0.3974 2.3386,-0.4108 2.3851,-0.4245 1.4802,-0.2666 -0.5091,-1.4152 -0.825,-2.2779 -0.8136,-2.2307 -0.802,-2.1838 -0.7905,-2.1372 -0.7791,-2.0908 -0.7676,-2.0447 -0.7561,-1.9989 -0.7446,-1.9532 -0.7331,-1.908 -0.7217,-1.8628 -0.7103,-1.818 -0.6987,-1.7735 -0.6873,-1.7292 -0.6759,-1.6851 -0.6644,-1.6413 -0.6529,-1.5978 -0.6415,-1.5545 -0.6301,-1.5115 -0.6186,-1.4687 -0.6072,-1.4262 -0.5957,-1.384 -0.5843,-1.342 -0.5729,-1.3003 -0.5615,-1.2588 -0.55,-1.2176 L 79.2582,10.2979 78.731,9.16192 78.2152,8.06641 77.7108,7.01109 77.2179,5.99569 76.7363,5.01995 76.2662,4.08362 75.8074,3.18644 75.36,2.32815 74.9241,1.5085 74.4995,0.727223 74.0863,-0.0159367 73.6845,-0.721236 73.2941,-1.38893 72.915,-2.01928 72.5474,-2.61255 72.1911,-3.16898 71.8461,-3.68885 71.5126,-4.1724 71.1904,-4.6199 70.8795,-5.03159 70.58,-5.40775 70.2919,-5.74863 70.0151,-6.05448 69.7497,-6.32556 69.4956,-6.56214 69.2529,-6.76446 69.0215,-6.9328 l -0.2201,-0.13459 -0.2087,-0.10112 -0.1974,-0.0679 7.5057,-28.01189 0.7908,0.2356 0.7933,0.2833 0.7957,0.3309 0.7983,0.3781 0.8008,0.4252 0.8033,0.4719 0.8057,0.5184 0.8082,0.5647 0.8108,0.6107 0.8132,0.6564 0.8156,0.7018 0.8182,0.7471 0.8206,0.7921 0.8231,0.8367 0.8255,0.8812 0.8281,0.9254 0.8304,0.9693 0.833,1.013 0.8353,1.0563 0.8379,1.0996 0.8402,1.1424 0.8428,1.1851 0.8451,1.2274 0.8476,1.2696 0.8501,1.3114 0.8524,1.353 0.8549,1.3944 0.8574,1.4355 0.8597,1.47632 0.862,1.51689 0.865,1.5572 0.867,1.59726 0.869,1.63707 0.872,1.6766 0.874,1.715898 0.877,1.754922 0.879,1.79369 0.881,1.8322 0.884,1.87046 0.886,1.90846 0.889,1.94623 0.891,1.9836 0.893,2.0209 0.896,2.0579 0.898,2.0946 0.901,2.131 0.902,2.1672 0.906,2.2032 0.907,2.2388 0.91,2.2742 0.912,2.3094 0.915,2.3443 0.917,2.379 0.919,2.4133 0.922,2.4475 0.924,2.4813 0.927,2.515 0.928,2.5483 0.931,2.5814 0.934,2.6143 0.935,2.6468 0.938,2.6791 0.941,2.7113 0.435,1.5163 0.267,1.5808 0.092,1.6347 -0.089,1.6079 -0.258,1.5567 -0.419,1.4961 -0.57,1.4262 -0.712,1.347 -0.845,1.2584 -0.968,1.1605 -1.083,1.0532 -1.187,0.9367 -1.282,0.8108 -1.368,0.6756 -1.445,0.531 -1.512,0.3771 -0.007,-0.0013 -2.818,0.5412 -2.79,0.5272 -2.76,0.5131 -2.73,0.4988 -2.701,0.4844 -2.672,0.4698 -2.641,0.4552 -2.6109,0.4405 -2.5804,0.4255 -2.5497,0.4105 -2.5187,0.3953 -2.4876,0.38 -2.4561,0.3647 -2.4245,0.3491 -2.3927,0.3334 -2.3606,0.3176 -2.3283,0.3017 -2.2957,0.2857 -2.2631,0.2695 -2.23,0.2532 -2.1968,0.2368 -2.1634,0.2202 -2.1298,0.2036 -2.0958,0.1867 -2.0618,0.1698 -2.0274,0.1528 -1.9929,0.1356 -1.9582,0.1183 -1.9231,0.1008 -1.8879,0.0833 -1.8524,0.0656 -1.8168,0.0478 -1.7809,0.0299 -1.7447,0.0117 -1.7084,-0.0064 -1.6718,-0.0247 -1.635,-0.0432 -1.598,-0.0617 L 33.1238,91.2244 31.6005,91.1251 30.115,91.0069 28.6673,90.8696 27.2578,90.7131 25.8866,90.5373 24.5541,90.342 23.2604,90.1272 22.0057,89.8926 20.7903,89.6382 19.6144,89.3639 18.4782,89.0694 17.382,88.7548 16.3259,88.4198 15.3102,88.0643 14.3352,87.6883 13.4009,87.2915 12.5078,86.8739 11.656,86.4353 10.8456,85.9756 10.077,85.4947 9.35042,84.9925 8.66599,84.4687 8.02399,83.9234 7.42462,83.3563 -27.9307,48.001 l -0.7724,-0.7817 -0.7662,-0.7945 -0.7601,-0.8068 -0.7537,-0.8188 -0.7471,-0.8307 -0.7403,-0.8422 -0.7335,-0.8534 -0.7263,-0.8643 -0.7192,-0.8749 -0.7117,-0.8852 -0.7041,-0.8953 -0.6964,-0.905 -0.6885,-0.9145 -0.6804,-0.9236 -0.6721,-0.9325 -0.6637,-0.941 -0.6551,-0.9494 -0.6463,-0.9573 -0.6374,-0.965 -0.6283,-0.9725 -0.6191,-0.9795 -0.6095,-0.9863 -0.6,-0.9929 -0.5902,-0.9991 -0.5803,-1.005 -0.5701,-1.0107 -0.5599,-1.0161 -0.5494,-1.0211 -0.5388,-1.0258 -0.528,-1.0304 -0.517,-1.0345 -0.5059,-1.0384 -0.4946,-1.042 -0.4831,-1.0453 -0.4715,-1.0483 -0.4597,-1.0511 -0.4478,-1.0534 -0.4355,-1.0556 -0.4233,-1.0575 -0.4108,-1.05895 -0.3981,-1.06024 -0.3853,-1.06121 -0.3723,-1.06187 -0.3592,-1.06225 -0.3458,-1.06234 -0.3324,-1.06213 -0.3187,-1.06162 -0.3048,-1.06083 -0.2908,-1.059751 28.0118,-7.505749 0.3196,1.16086 0.3336,1.14939 0.3476,1.13808 0.3619,1.12691 0.3761,1.11591 0.3905,1.105045 0.4049,1.09435 0.4195,1.083805 0.4341,1.07341 0.4488,1.06317 0.4636,1.05308 0.4785,1.04316 0.4935,1.03337 0.5086,1.02375 0.5237,1.01429 0.5389,1.00496 0.5543,0.9958 0.5698,0.9868 0.5852,0.9779 0.6009,0.9693 0.6165,0.9607 0.6323,0.9523 0.6482,0.944 0.6641,0.936 0.6802,0.9281 0.6964,0.9202 0.7125,0.9127 0.7289,0.9051 0.7452,0.8979 0.7618,0.8907 0.7783,0.8837 0.79505,0.8768 0.81177,0.8701 0.82861,0.8636 0.84555,0.8572"
       vector-effect="none"
       inkscape:connector-curvature="0"
       style="fill:url(#radialGradient3804);fill-opacity:1;fill-rule:evenodd;stroke:#a50000;stroke-width:4;stroke-miterlimit:4;stroke-opacity:1;stroke-dasharray:none;" />
  </g>
</svg>
