<?xml version="1.0" encoding="UTF-8" standalone="no"?>
<!DOCTYPE svg PUBLIC "-//W3C//DTD SVG 1.1//EN"
 "http://www.w3.org/Graphics/SVG/1.1/DTD/svg11.dtd">
<!-- Generated by graphviz version 2.26.3 (20100126.1600)
 -->
<!-- Title: G Pages: 1 -->
<svg width="814pt" height="508pt"
 viewBox="0.00 0.00 814.00 508.00" xmlns="http://www.w3.org/2000/svg" xmlns:xlink="http://www.w3.org/1999/xlink">
<g id="graph1" class="graph" transform="scale(1 1) rotate(0) translate(4 504)">
<title>G</title>
<!-- Node1 -->
<g id="node1" class="node"><title>Node1</title>
<polygon fill="#bfbfbf" stroke="black" points="738,-399.5 738,-420.5 806,-420.5 806,-399.5 738,-399.5"/>
<text text-anchor="middle" x="772" y="-407.5" font-family="Helvetica,sans-Serif" font-size="10.00">ToggleEdge</text>
</g>
<!-- Node2 -->
<g id="node2" class="node"><title>Node2</title>
<a xlink:href="classQUndoCommand.html" target="_top" xlink:title="QUndoCommand">
<polygon fill="none" stroke="black" points="590,-478.5 590,-499.5 682,-499.5 682,-478.5 590,-478.5"/>
<text text-anchor="middle" x="636" y="-486.5" font-family="Helvetica,sans-Serif" font-size="10.00">QUndoCommand</text>
</a>
</g>
<!-- Node2&#45;&gt;Node1 -->
<g id="edge2" class="edge"><title>Node2&#45;&gt;Node1</title>
<path fill="none" stroke="midnightblue" d="M669.787,-474.178C685.409,-466.906 704.003,-457.645 720,-448 733.789,-439.686 748.518,-428.702 758.767,-420.682"/>
<polygon fill="midnightblue" stroke="midnightblue" points="668.129,-471.088 660.495,-478.434 671.044,-477.452 668.129,-471.088"/>
</g>
<!-- Node3 -->
<g id="node4" class="node"><title>Node3</title>
<a xlink:href="classNode.html" target="_top" xlink:title="Node">
<polygon fill="none" stroke="black" points="417,-416.5 417,-437.5 457,-437.5 457,-416.5 417,-416.5"/>
<text text-anchor="middle" x="437" y="-424.5" font-family="Helvetica,sans-Serif" font-size="10.00">Node</text>
</a>
</g>
<!-- Node3&#45;&gt;Node1 -->
<g id="edge4" class="edge"><title>Node3&#45;&gt;Node1</title>
<path fill="none" stroke="#9a32cd" stroke-dasharray="5,2" d="M467.525,-427.891C519.522,-429.042 628.534,-429.858 720,-420 725.85,-419.37 732.025,-418.429 737.996,-417.374"/>
<polygon fill="#9a32cd" stroke="#9a32cd" points="467.404,-424.388 457.322,-427.644 467.234,-431.385 467.404,-424.388"/>
<text text-anchor="middle" x="636" y="-445" font-family="Helvetica,sans-Serif" font-size="10.00">n1</text>
<text text-anchor="middle" x="636" y="-432" font-family="Helvetica,sans-Serif" font-size="10.00">n2</text>
</g>
<!-- Node10 -->
<g id="node18" class="node"><title>Node10</title>
<a xlink:href="classKnotView.html" target="_top" xlink:title="KnotView">
<polygon fill="none" stroke="black" points="606.5,-256.5 606.5,-277.5 665.5,-277.5 665.5,-256.5 606.5,-256.5"/>
<text text-anchor="middle" x="636" y="-264.5" font-family="Helvetica,sans-Serif" font-size="10.00">KnotView</text>
</a>
</g>
<!-- Node3&#45;&gt;Node10 -->
<g id="edge22" class="edge"><title>Node3&#45;&gt;Node10</title>
<path fill="none" stroke="#9a32cd" stroke-dasharray="5,2" d="M467.297,-418.643C501.897,-408.652 555.813,-391.578 572,-378 605.403,-349.98 625.173,-299.799 632.606,-277.817"/>
<polygon fill="#9a32cd" stroke="#9a32cd" points="465.903,-415.401 457.243,-421.505 467.819,-422.134 465.903,-415.401"/>
<text text-anchor="middle" x="541" y="-410" font-family="Helvetica,sans-Serif" font-size="10.00">last_node</text>
</g>
<!-- Node4 -->
<g id="node6" class="node"><title>Node4</title>
<a xlink:href="classCustomItem.html" target="_top" xlink:title="CustomItem">
<polygon fill="none" stroke="black" points="176.5,-454.5 176.5,-475.5 247.5,-475.5 247.5,-454.5 176.5,-454.5"/>
<text text-anchor="middle" x="212" y="-462.5" font-family="Helvetica,sans-Serif" font-size="10.00">CustomItem</text>
</a>
</g>
<!-- Node4&#45;&gt;Node3 -->
<g id="edge6" class="edge"><title>Node4&#45;&gt;Node3</title>
<path fill="none" stroke="midnightblue" d="M258.022,-459.754C288.257,-456.034 328.618,-450.55 364,-444 382.041,-440.66 402.354,-435.842 416.964,-432.188"/>
<polygon fill="midnightblue" stroke="midnightblue" points="257.281,-456.318 247.774,-460.995 258.122,-463.267 257.281,-456.318"/>
</g>
<!-- Node5 -->
<g id="node8" class="node"><title>Node5</title>
<a xlink:href="classQGraphicsItem.html" target="_top" xlink:title="QGraphicsItem">
<polygon fill="none" stroke="black" points="0.5,-474.5 0.5,-495.5 83.5,-495.5 83.5,-474.5 0.5,-474.5"/>
<text text-anchor="middle" x="42" y="-482.5" font-family="Helvetica,sans-Serif" font-size="10.00">QGraphicsItem</text>
</a>
</g>
<!-- Node5&#45;&gt;Node4 -->
<g id="edge8" class="edge"><title>Node5&#45;&gt;Node4</title>
<path fill="none" stroke="midnightblue" d="M93.5537,-478.935C120.304,-475.788 152.312,-472.022 176.307,-469.199"/>
<polygon fill="midnightblue" stroke="midnightblue" points="93.1092,-475.463 83.5867,-480.107 93.9272,-482.415 93.1092,-475.463"/>
</g>
<!-- Node6 -->
<g id="node10" class="node"><title>Node6</title>
<polygon fill="none" stroke="#bfbfbf" points="24.5,-434.5 24.5,-455.5 59.5,-455.5 59.5,-434.5 24.5,-434.5"/>
<text text-anchor="middle" x="42" y="-442.5" font-family="Helvetica,sans-Serif" font-size="10.00">bool</text>
</g>
<!-- Node6&#45;&gt;Node4 -->
<g id="edge10" class="edge"><title>Node6&#45;&gt;Node4</title>
<path fill="none" stroke="#9a32cd" stroke-dasharray="5,2" d="M69.8058,-448.271C98.8474,-451.688 144.505,-457.059 176.218,-460.79"/>
<polygon fill="#9a32cd" stroke="#9a32cd" points="69.8932,-444.757 59.5527,-447.065 69.0752,-451.71 69.8932,-444.757"/>
<text text-anchor="middle" x="121" y="-461" font-family="Helvetica,sans-Serif" font-size="10.00">highlight</text>
</g>
<!-- Node7 -->
<g id="node12" class="node"><title>Node7</title>
<polygon fill="none" stroke="#bfbfbf" points="197.5,-414.5 197.5,-435.5 226.5,-435.5 226.5,-414.5 197.5,-414.5"/>
<text text-anchor="middle" x="212" y="-422.5" font-family="Helvetica,sans-Serif" font-size="10.00">int</text>
</g>
<!-- Node7&#45;&gt;Node3 -->
<g id="edge12" class="edge"><title>Node7&#45;&gt;Node3</title>
<path fill="none" stroke="#9a32cd" stroke-dasharray="5,2" d="M236.812,-425.221C281.709,-425.62 375.591,-426.454 416.835,-426.821"/>
<polygon fill="#9a32cd" stroke="#9a32cd" points="236.794,-421.72 226.763,-425.131 236.731,-428.72 236.794,-421.72"/>
<text text-anchor="middle" x="324" y="-431" font-family="Helvetica,sans-Serif" font-size="10.00">radius</text>
</g>
<!-- Node8 -->
<g id="node14" class="node"><title>Node8</title>
<polygon fill="none" stroke="#bfbfbf" points="168.5,-349.5 168.5,-370.5 255.5,-370.5 255.5,-349.5 168.5,-349.5"/>
<text text-anchor="middle" x="212" y="-357.5" font-family="Helvetica,sans-Serif" font-size="10.00">QList&lt; Edge * &gt;</text>
</g>
<!-- Node8&#45;&gt;Node3 -->
<g id="edge14" class="edge"><title>Node8&#45;&gt;Node3</title>
<path fill="none" stroke="#9a32cd" stroke-dasharray="5,2" d="M257.321,-373.496C306.037,-388.002 381.271,-410.405 416.932,-421.024"/>
<polygon fill="#9a32cd" stroke="#9a32cd" points="258.235,-370.116 247.652,-370.616 256.237,-376.825 258.235,-370.116"/>
<text text-anchor="middle" x="324" y="-408" font-family="Helvetica,sans-Serif" font-size="10.00">edges</text>
</g>
<!-- Node17 -->
<g id="node33" class="node"><title>Node17</title>
<a xlink:href="classKnotGraph.html" target="_top" xlink:title="KnotGraph">
<polygon fill="none" stroke="black" points="405.5,-136.5 405.5,-157.5 468.5,-157.5 468.5,-136.5 405.5,-136.5"/>
<text text-anchor="middle" x="437" y="-144.5" font-family="Helvetica,sans-Serif" font-size="10.00">KnotGraph</text>
</a>
</g>
<!-- Node8&#45;&gt;Node17 -->
<g id="edge44" class="edge"><title>Node8&#45;&gt;Node17</title>
<path fill="none" stroke="#9a32cd" stroke-dasharray="5,2" d="M265.801,-355.692C299.218,-350.051 340.2,-337.187 364,-308 403.924,-259.039 342.547,-216.341 382,-167 387.838,-159.699 396.583,-155.063 405.392,-152.119"/>
<polygon fill="#9a32cd" stroke="#9a32cd" points="265.065,-352.263 255.701,-357.22 266.112,-359.184 265.065,-352.263"/>
<text text-anchor="middle" x="324" y="-369" font-family="Helvetica,sans-Serif" font-size="10.00">traversed_edges</text>
<text text-anchor="middle" x="324" y="-356" font-family="Helvetica,sans-Serif" font-size="10.00">edges</text>
</g>
<!-- Node9 -->
<g id="node16" class="node"><title>Node9</title>
<polygon fill="none" stroke="#bfbfbf" points="606.5,-376.5 606.5,-397.5 665.5,-397.5 665.5,-376.5 606.5,-376.5"/>
<text text-anchor="middle" x="636" y="-384.5" font-family="Helvetica,sans-Serif" font-size="10.00">type_type</text>
</g>
<!-- Node9&#45;&gt;Node1 -->
<g id="edge16" class="edge"><title>Node9&#45;&gt;Node1</title>
<path fill="none" stroke="#9a32cd" stroke-dasharray="5,2" d="M676.059,-388.574C690.05,-389.589 705.802,-391.257 720,-394 727.141,-395.379 734.691,-397.377 741.757,-399.495"/>
<polygon fill="#9a32cd" stroke="#9a32cd" points="675.96,-385.061 665.757,-387.919 675.515,-392.047 675.96,-385.061"/>
<text text-anchor="middle" x="710" y="-411" font-family="Helvetica,sans-Serif" font-size="10.00">from</text>
<text text-anchor="middle" x="710" y="-398" font-family="Helvetica,sans-Serif" font-size="10.00">to</text>
</g>
<!-- Node10&#45;&gt;Node1 -->
<g id="edge18" class="edge"><title>Node10&#45;&gt;Node1</title>
<path fill="none" stroke="#9a32cd" stroke-dasharray="5,2" d="M653.182,-285.067C681.808,-315.166 738.409,-374.68 761.659,-399.127"/>
<polygon fill="#9a32cd" stroke="#9a32cd" points="655.65,-282.582 646.222,-277.748 650.577,-287.406 655.65,-282.582"/>
<text text-anchor="middle" x="710" y="-356" font-family="Helvetica,sans-Serif" font-size="10.00">kv</text>
</g>
<!-- Node11 -->
<g id="node20" class="node"><title>Node11</title>
<a xlink:href="classQGraphicsView.html" target="_top" xlink:title="QGraphicsView">
<polygon fill="none" stroke="black" points="394.5,-376.5 394.5,-397.5 479.5,-397.5 479.5,-376.5 394.5,-376.5"/>
<text text-anchor="middle" x="437" y="-384.5" font-family="Helvetica,sans-Serif" font-size="10.00">QGraphicsView</text>
</a>
</g>
<!-- Node11&#45;&gt;Node10 -->
<g id="edge20" class="edge"><title>Node11&#45;&gt;Node10</title>
<path fill="none" stroke="midnightblue" d="M489.663,-381.156C516.102,-376.275 547.607,-367.338 572,-351 600.637,-331.819 621.729,-295.508 630.914,-277.572"/>
<polygon fill="midnightblue" stroke="midnightblue" points="489.074,-377.706 479.803,-382.835 490.249,-384.606 489.074,-377.706"/>
</g>
<!-- Node12 -->
<g id="node23" class="node"><title>Node12</title>
<polygon fill="none" stroke="#bfbfbf" points="400.5,-336.5 400.5,-357.5 473.5,-357.5 473.5,-336.5 400.5,-336.5"/>
<text text-anchor="middle" x="437" y="-344.5" font-family="Helvetica,sans-Serif" font-size="10.00">QUndoStack</text>
</g>
<!-- Node12&#45;&gt;Node10 -->
<g id="edge24" class="edge"><title>Node12&#45;&gt;Node10</title>
<path fill="none" stroke="#9a32cd" stroke-dasharray="5,2" d="M483.654,-339.739C510.359,-334.494 544.012,-326.004 572,-313 591.855,-303.775 611.891,-288.112 624.126,-277.663"/>
<polygon fill="#9a32cd" stroke="#9a32cd" points="482.967,-336.306 473.785,-341.592 484.26,-343.186 482.967,-336.306"/>
<text text-anchor="middle" x="541" y="-338" font-family="Helvetica,sans-Serif" font-size="10.00">undo_stack</text>
</g>
<!-- Node13 -->
<g id="node25" class="node"><title>Node13</title>
<polygon fill="none" stroke="#bfbfbf" points="386,-296.5 386,-317.5 488,-317.5 488,-296.5 386,-296.5"/>
<text text-anchor="middle" x="437" y="-304.5" font-family="Helvetica,sans-Serif" font-size="10.00">mouse_status_type</text>
</g>
<!-- Node13&#45;&gt;Node10 -->
<g id="edge26" class="edge"><title>Node13&#45;&gt;Node10</title>
<path fill="none" stroke="#9a32cd" stroke-dasharray="5,2" d="M498.231,-297.776C521.428,-293.966 548.019,-289.217 572,-284 583.234,-281.556 595.457,-278.428 606.182,-275.522"/>
<polygon fill="#9a32cd" stroke="#9a32cd" points="497.487,-294.351 488.175,-299.405 498.606,-301.261 497.487,-294.351"/>
<text text-anchor="middle" x="541" y="-300" font-family="Helvetica,sans-Serif" font-size="10.00">mouse_status</text>
</g>
<!-- Node14 -->
<g id="node27" class="node"><title>Node14</title>
<polygon fill="none" stroke="#bfbfbf" points="410.5,-256.5 410.5,-277.5 463.5,-277.5 463.5,-256.5 410.5,-256.5"/>
<text text-anchor="middle" x="437" y="-264.5" font-family="Helvetica,sans-Serif" font-size="10.00">QPointF</text>
</g>
<!-- Node14&#45;&gt;Node10 -->
<g id="edge28" class="edge"><title>Node14&#45;&gt;Node10</title>
<path fill="none" stroke="#9a32cd" stroke-dasharray="5,2" d="M474.032,-267C512.245,-267 571.101,-267 606.352,-267"/>
<polygon fill="#9a32cd" stroke="#9a32cd" points="473.838,-263.5 463.838,-267 473.838,-270.5 473.838,-263.5"/>
<text text-anchor="middle" x="541" y="-271" font-family="Helvetica,sans-Serif" font-size="10.00">oldpos</text>
</g>
<!-- Node15 -->
<g id="node29" class="node"><title>Node15</title>
<polygon fill="none" stroke="#bfbfbf" points="382,-216.5 382,-237.5 492,-237.5 492,-216.5 382,-216.5"/>
<text text-anchor="middle" x="437" y="-224.5" font-family="Helvetica,sans-Serif" font-size="10.00">QGraphicsRectItem *</text>
</g>
<!-- Node15&#45;&gt;Node10 -->
<g id="edge30" class="edge"><title>Node15&#45;&gt;Node10</title>
<path fill="none" stroke="#9a32cd" stroke-dasharray="5,2" d="M502.08,-236.86C524.339,-240.557 549.335,-245.07 572,-250 583.234,-252.444 595.457,-255.572 606.182,-258.478"/>
<polygon fill="#9a32cd" stroke="#9a32cd" points="502.498,-233.381 492.064,-235.22 501.367,-240.289 502.498,-233.381"/>
<text text-anchor="middle" x="541" y="-254" font-family="Helvetica,sans-Serif" font-size="10.00">rubberband</text>
</g>
<!-- Node16 -->
<g id="node31" class="node"><title>Node16</title>
<polygon fill="none" stroke="#bfbfbf" points="383.5,-176.5 383.5,-197.5 490.5,-197.5 490.5,-176.5 383.5,-176.5"/>
<text text-anchor="middle" x="437" y="-184.5" font-family="Helvetica,sans-Serif" font-size="10.00">QGraphicsLineItem *</text>
</g>
<!-- Node16&#45;&gt;Node10 -->
<g id="edge32" class="edge"><title>Node16&#45;&gt;Node10</title>
<path fill="none" stroke="#9a32cd" stroke-dasharray="5,2" d="M500.802,-198.586C523.864,-204.047 549.699,-211.684 572,-222 591.478,-231.01 611.292,-246.039 623.607,-256.226"/>
<polygon fill="#9a32cd" stroke="#9a32cd" points="501.293,-195.109 490.766,-196.303 499.741,-201.934 501.293,-195.109"/>
<text text-anchor="middle" x="541" y="-226" font-family="Helvetica,sans-Serif" font-size="10.00">guide</text>
</g>
<!-- Node17&#45;&gt;Node10 -->
<g id="edge34" class="edge"><title>Node17&#45;&gt;Node10</title>
<path fill="none" stroke="#9a32cd" stroke-dasharray="5,2" d="M478.523,-151.789C506.788,-156.624 544.003,-166.205 572,-185 600.038,-203.823 621.264,-238.901 630.669,-256.442"/>
<polygon fill="#9a32cd" stroke="#9a32cd" points="478.971,-148.317 468.548,-150.214 477.879,-155.231 478.971,-148.317"/>
<text text-anchor="middle" x="541" y="-189" font-family="Helvetica,sans-Serif" font-size="10.00">knot</text>
</g>
<!-- Node18 -->
<g id="node35" class="node"><title>Node18</title>
<a xlink:href="classQGraphicsPathItem.html" target="_top" xlink:title="QGraphicsPathItem">
<polygon fill="none" stroke="black" points="160.5,-284.5 160.5,-305.5 263.5,-305.5 263.5,-284.5 160.5,-284.5"/>
<text text-anchor="middle" x="212" y="-292.5" font-family="Helvetica,sans-Serif" font-size="10.00">QGraphicsPathItem</text>
</a>
</g>
<!-- Node18&#45;&gt;Node17 -->
<g id="edge36" class="edge"><title>Node18&#45;&gt;Node17</title>
<path fill="none" stroke="midnightblue" d="M273.808,-305.673C304.674,-307.338 340.374,-303.143 364,-281 401.426,-245.923 349.376,-206.583 382,-167 387.88,-159.865 396.53,-155.276 405.237,-152.323"/>
<polygon fill="midnightblue" stroke="midnightblue" points="273.785,-302.162 263.55,-304.902 273.26,-309.142 273.785,-302.162"/>
</g>
<!-- Node19 -->
<g id="node37" class="node"><title>Node19</title>
<polygon fill="none" stroke="#bfbfbf" points="189.5,-232.5 189.5,-253.5 234.5,-253.5 234.5,-232.5 189.5,-232.5"/>
<text text-anchor="middle" x="212" y="-240.5" font-family="Helvetica,sans-Serif" font-size="10.00">double</text>
</g>
<!-- Node19&#45;&gt;Node17 -->
<g id="edge38" class="edge"><title>Node19&#45;&gt;Node17</title>
<path fill="none" stroke="#9a32cd" stroke-dasharray="5,2" d="M244.848,-244.238C278.457,-243.763 330.381,-237.978 364,-210 379.925,-196.747 367.005,-181.297 382,-167 388.471,-160.83 396.992,-156.539 405.39,-153.564"/>
<polygon fill="#9a32cd" stroke="#9a32cd" points="244.63,-240.738 234.627,-244.227 244.623,-247.738 244.63,-240.738"/>
<text text-anchor="middle" x="324" y="-271" font-family="Helvetica,sans-Serif" font-size="10.00">cusp_angle</text>
<text text-anchor="middle" x="324" y="-258" font-family="Helvetica,sans-Serif" font-size="10.00">crossing_distance</text>
<text text-anchor="middle" x="324" y="-245" font-family="Helvetica,sans-Serif" font-size="10.00">handle_length</text>
</g>
<!-- Node20 -->
<g id="node39" class="node"><title>Node20</title>
<polygon fill="none" stroke="#bfbfbf" points="158.5,-192.5 158.5,-213.5 265.5,-213.5 265.5,-192.5 158.5,-192.5"/>
<text text-anchor="middle" x="212" y="-200.5" font-family="Helvetica,sans-Serif" font-size="10.00">QPainterPathStroker</text>
</g>
<!-- Node20&#45;&gt;Node17 -->
<g id="edge40" class="edge"><title>Node20&#45;&gt;Node17</title>
<path fill="none" stroke="#9a32cd" stroke-dasharray="5,2" d="M275.424,-194.744C303.001,-190.279 335.463,-183.834 364,-175 372.363,-172.411 373.881,-170.276 382,-167 390.009,-163.769 398.763,-160.478 406.884,-157.524"/>
<polygon fill="#9a32cd" stroke="#9a32cd" points="274.838,-191.293 265.501,-196.299 275.922,-198.208 274.838,-191.293"/>
<text text-anchor="middle" x="324" y="-197" font-family="Helvetica,sans-Serif" font-size="10.00">stroker</text>
</g>
<!-- Node21 -->
<g id="node41" class="node"><title>Node21</title>
<polygon fill="none" stroke="#bfbfbf" points="174.5,-152.5 174.5,-173.5 249.5,-173.5 249.5,-152.5 174.5,-152.5"/>
<text text-anchor="middle" x="212" y="-160.5" font-family="Helvetica,sans-Serif" font-size="10.00">QPainterPath</text>
</g>
<!-- Node21&#45;&gt;Node17 -->
<g id="edge42" class="edge"><title>Node21&#45;&gt;Node17</title>
<path fill="none" stroke="#9a32cd" stroke-dasharray="5,2" d="M259.812,-159.6C303.72,-156.478 367.539,-151.939 405.403,-149.247"/>
<polygon fill="#9a32cd" stroke="#9a32cd" points="259.386,-156.121 249.66,-160.322 259.883,-163.104 259.386,-156.121"/>
<text text-anchor="middle" x="324" y="-162" font-family="Helvetica,sans-Serif" font-size="10.00">knot</text>
</g>
<!-- Node22 -->
<g id="node44" class="node"><title>Node22</title>
<polygon fill="none" stroke="#bfbfbf" points="194.5,-112.5 194.5,-133.5 229.5,-133.5 229.5,-112.5 194.5,-112.5"/>
<text text-anchor="middle" x="212" y="-120.5" font-family="Helvetica,sans-Serif" font-size="10.00">long</text>
</g>
<!-- Node22&#45;&gt;Node17 -->
<g id="edge46" class="edge"><title>Node22&#45;&gt;Node17</title>
<path fill="none" stroke="#9a32cd" stroke-dasharray="5,2" d="M240.139,-124.863C270.691,-127.013 320.896,-130.915 364,-136 377.619,-137.607 392.607,-139.792 405.439,-141.792"/>
<polygon fill="#9a32cd" stroke="#9a32cd" points="240.039,-121.348 229.822,-124.152 239.558,-128.331 240.039,-121.348"/>
<text text-anchor="middle" x="324" y="-140" font-family="Helvetica,sans-Serif" font-size="10.00">curve_style</text>
</g>
<!-- Node23 -->
<g id="node46" class="node"><title>Node23</title>
<polygon fill="none" stroke="#bfbfbf" points="168,-60.5 168,-81.5 256,-81.5 256,-60.5 168,-60.5"/>
<text text-anchor="middle" x="212" y="-68.5" font-family="Helvetica,sans-Serif" font-size="10.00">QList&lt; Node * &gt;</text>
</g>
<!-- Node23&#45;&gt;Node10 -->
<g id="edge50" class="edge"><title>Node23&#45;&gt;Node10</title>
<path fill="none" stroke="#9a32cd" stroke-dasharray="5,2" d="M266.414,-67.8447C344.665,-66.424 488.698,-75.9311 572,-156 603.273,-186.059 624.037,-234.729 632.157,-256.217"/>
<polygon fill="#9a32cd" stroke="#9a32cd" points="266.193,-64.349 256.283,-68.0967 266.367,-71.3468 266.193,-64.349"/>
<text text-anchor="middle" x="437" y="-108" font-family="Helvetica,sans-Serif" font-size="10.00">moved_nodes</text>
</g>
<!-- Node23&#45;&gt;Node17 -->
<g id="edge48" class="edge"><title>Node23&#45;&gt;Node17</title>
<path fill="none" stroke="#9a32cd" stroke-dasharray="5,2" d="M266.293,-83.0762C295.633,-90.2405 332.252,-100.221 364,-112 382.712,-118.942 403.126,-128.952 417.596,-136.49"/>
<polygon fill="#9a32cd" stroke="#9a32cd" points="266.78,-79.5936 256.239,-80.6613 265.145,-86.4 266.78,-79.5936"/>
<text text-anchor="middle" x="324" y="-116" font-family="Helvetica,sans-Serif" font-size="10.00">nodes</text>
</g>
<!-- Node24 -->
<g id="node49" class="node"><title>Node24</title>
<polygon fill="none" stroke="#bfbfbf" points="404.5,-0.5 404.5,-21.5 469.5,-21.5 469.5,-0.5 404.5,-0.5"/>
<text text-anchor="middle" x="437" y="-8.5" font-family="Helvetica,sans-Serif" font-size="10.00">mode_type</text>
</g>
<!-- Node24&#45;&gt;Node10 -->
<g id="edge52" class="edge"><title>Node24&#45;&gt;Node10</title>
<path fill="none" stroke="#9a32cd" stroke-dasharray="5,2" d="M479.767,-6.0252C509.158,-5.05007 547.206,-8.96637 572,-31 606.985,-62.0905 629.184,-214.708 634.667,-256.437"/>
<polygon fill="#9a32cd" stroke="#9a32cd" points="479.569,-2.53065 469.767,-6.55243 479.938,-9.52094 479.569,-2.53065"/>
<text text-anchor="middle" x="541" y="-35" font-family="Helvetica,sans-Serif" font-size="10.00">mode</text>
</g>
</g>
</svg>
