<?xml version="1.0" encoding="UTF-8" standalone="no"?>
<!DOCTYPE svg PUBLIC "-//W3C//DTD SVG 1.1//EN"
 "http://www.w3.org/Graphics/SVG/1.1/DTD/svg11.dtd">
<!-- Generated by graphviz version 2.26.3 (20100126.1600)
 -->
<!-- Title: G Pages: 1 -->
<svg width="146pt" height="102pt"
 viewBox="0.00 0.00 146.00 102.00" xmlns="http://www.w3.org/2000/svg" xmlns:xlink="http://www.w3.org/1999/xlink">
<g id="graph1" class="graph" transform="scale(1 1) rotate(0) translate(4 98)">
<title>G</title>
<!-- Node1 -->
<g id="node1" class="node"><title>Node1</title>
<polygon fill="#bfbfbf" stroke="black" points="43.5,-0.5 43.5,-21.5 114.5,-21.5 114.5,-0.5 43.5,-0.5"/>
<text text-anchor="middle" x="79" y="-8.5" font-family="Helvetica,sans-Serif" font-size="10.00">CustomItem</text>
</g>
<!-- Node2 -->
<g id="node2" class="node"><title>Node2</title>
<a xlink:href="classQGraphicsItem.html" target="_top" xlink:title="QGraphicsItem">
<polygon fill="none" stroke="black" points="-0.5,-72.5 -0.5,-93.5 82.5,-93.5 82.5,-72.5 -0.5,-72.5"/>
<text text-anchor="middle" x="41" y="-80.5" font-family="Helvetica,sans-Serif" font-size="10.00">QGraphicsItem</text>
</a>
</g>
<!-- Node2&#45;&gt;Node1 -->
<g id="edge2" class="edge"><title>Node2&#45;&gt;Node1</title>
<path fill="none" stroke="midnightblue" d="M51.3342,-63.4193C58.4307,-49.9734 67.5798,-32.6384 73.37,-21.6674"/>
<polygon fill="midnightblue" stroke="midnightblue" points="48.1793,-61.8986 46.607,-72.3762 54.37,-65.166 48.1793,-61.8986"/>
</g>
<!-- Node3 -->
<g id="node4" class="node"><title>Node3</title>
<polygon fill="none" stroke="#bfbfbf" points="99.5,-72.5 99.5,-93.5 134.5,-93.5 134.5,-72.5 99.5,-72.5"/>
<text text-anchor="middle" x="117" y="-80.5" font-family="Helvetica,sans-Serif" font-size="10.00">bool</text>
</g>
<!-- Node3&#45;&gt;Node1 -->
<g id="edge4" class="edge"><title>Node3&#45;&gt;Node1</title>
<path fill="none" stroke="#9a32cd" stroke-dasharray="5,2" d="M106.666,-63.4193C99.5693,-49.9734 90.4202,-32.6384 84.63,-21.6674"/>
<polygon fill="#9a32cd" stroke="#9a32cd" points="103.63,-65.166 111.393,-72.3762 109.821,-61.8986 103.63,-65.166"/>
<text text-anchor="middle" x="119.5" y="-44.5" font-family="Helvetica,sans-Serif" font-size="10.00">highlight</text>
</g>
</g>
</svg>
