<?xml version="1.0" encoding="UTF-8" standalone="no"?>
<!DOCTYPE svg PUBLIC "-//W3C//DTD SVG 1.1//EN"
 "http://www.w3.org/Graphics/SVG/1.1/DTD/svg11.dtd">
<!-- Generated by graphviz version 2.26.3 (20100126.1600)
 -->
<!-- Title: G Pages: 1 -->
<svg width="691pt" height="232pt"
 viewBox="0.00 0.00 691.00 232.00" xmlns="http://www.w3.org/2000/svg" xmlns:xlink="http://www.w3.org/1999/xlink">
<g id="graph1" class="graph" transform="scale(1 1) rotate(0) translate(4 228)">
<title>G</title>
<!-- Node1 -->
<g id="node1" class="node"><title>Node1</title>
<polygon fill="#bfbfbf" stroke="black" points="275,-0.5 275,-21.5 367,-21.5 367,-0.5 275,-0.5"/>
<text text-anchor="middle" x="321" y="-8.5" font-family="Helvetica,sans-Serif" font-size="10.00">Ui_Knot_Window</text>
</g>
<!-- Node2 -->
<g id="node2" class="node"><title>Node2</title>
<polygon fill="none" stroke="#bfbfbf" points="-0.5,-202.5 -0.5,-223.5 54.5,-223.5 54.5,-202.5 -0.5,-202.5"/>
<text text-anchor="middle" x="27" y="-210.5" font-family="Helvetica,sans-Serif" font-size="10.00">QMenu *</text>
</g>
<!-- Node2&#45;&gt;Node1 -->
<g id="edge2" class="edge"><title>Node2&#45;&gt;Node1</title>
<path fill="none" stroke="#9a32cd" stroke-dasharray="5,2" d="M20.2518,-192.386C9.86362,-156.268 -5.02741,-81.4531 34,-40 50.1561,-22.8397 197.744,-15.2356 274.731,-12.4126"/>
<polygon fill="#9a32cd" stroke="#9a32cd" points="17.002,-193.728 23.2665,-202.273 23.6977,-191.687 17.002,-193.728"/>
<text text-anchor="middle" x="67.5" y="-148.5" font-family="Helvetica,sans-Serif" font-size="10.00">menu_Zoom</text>
<text text-anchor="middle" x="67.5" y="-135.5" font-family="Helvetica,sans-Serif" font-size="10.00">menuNo_des</text>
<text text-anchor="middle" x="67.5" y="-122.5" font-family="Helvetica,sans-Serif" font-size="10.00">menu_Edit</text>
<text text-anchor="middle" x="67.5" y="-109.5" font-family="Helvetica,sans-Serif" font-size="10.00">menu_View</text>
<text text-anchor="middle" x="67.5" y="-96.5" font-family="Helvetica,sans-Serif" font-size="10.00">menu_File</text>
<text text-anchor="middle" x="67.5" y="-83.5" font-family="Helvetica,sans-Serif" font-size="10.00">menu_Toolbars</text>
<text text-anchor="middle" x="67.5" y="-70.5" font-family="Helvetica,sans-Serif" font-size="10.00">menu_Knot</text>
</g>
<!-- Node3 -->
<g id="node4" class="node"><title>Node3</title>
<polygon fill="none" stroke="#bfbfbf" points="76,-202.5 76,-223.5 150,-223.5 150,-202.5 76,-202.5"/>
<text text-anchor="middle" x="113" y="-210.5" font-family="Helvetica,sans-Serif" font-size="10.00">QStatusBar *</text>
</g>
<!-- Node3&#45;&gt;Node1 -->
<g id="edge4" class="edge"><title>Node3&#45;&gt;Node1</title>
<path fill="none" stroke="#9a32cd" stroke-dasharray="5,2" d="M109.001,-192.278C103.314,-155.99 97.6348,-80.9199 138,-40 147.516,-30.3532 223.786,-20.8418 274.813,-15.4669"/>
<polygon fill="#9a32cd" stroke="#9a32cd" points="105.566,-192.954 110.715,-202.213 112.464,-191.764 105.566,-192.954"/>
<text text-anchor="middle" x="158.5" y="-109.5" font-family="Helvetica,sans-Serif" font-size="10.00">statusbar</text>
</g>
<!-- Node4 -->
<g id="node6" class="node"><title>Node4</title>
<polygon fill="none" stroke="#bfbfbf" points="168,-202.5 168,-223.5 230,-223.5 230,-202.5 168,-202.5"/>
<text text-anchor="middle" x="199" y="-210.5" font-family="Helvetica,sans-Serif" font-size="10.00">QWidget *</text>
</g>
<!-- Node4&#45;&gt;Node1 -->
<g id="edge6" class="edge"><title>Node4&#45;&gt;Node1</title>
<path fill="none" stroke="#9a32cd" stroke-dasharray="5,2" d="M193.059,-192.411C184.188,-156.934 172.098,-83.8754 208,-40 216.658,-29.4194 247.609,-21.9334 274.933,-17.2205"/>
<polygon fill="#9a32cd" stroke="#9a32cd" points="189.695,-193.38 195.652,-202.141 196.459,-191.577 189.695,-193.38"/>
<text text-anchor="middle" x="238.5" y="-109.5" font-family="Helvetica,sans-Serif" font-size="10.00">centralWidget</text>
</g>
<!-- Node5 -->
<g id="node8" class="node"><title>Node5</title>
<polygon fill="none" stroke="#bfbfbf" points="248,-202.5 248,-223.5 326,-223.5 326,-202.5 248,-202.5"/>
<text text-anchor="middle" x="287" y="-210.5" font-family="Helvetica,sans-Serif" font-size="10.00">QGridLayout *</text>
</g>
<!-- Node5&#45;&gt;Node1 -->
<g id="edge8" class="edge"><title>Node5&#45;&gt;Node1</title>
<path fill="none" stroke="#9a32cd" stroke-dasharray="5,2" d="M281.878,-192.169C274.699,-158.447 264.938,-90.579 288,-40 291.354,-32.6439 297.588,-26.4076 303.743,-21.625"/>
<polygon fill="#9a32cd" stroke="#9a32cd" points="278.533,-193.246 284.162,-202.222 285.359,-191.695 278.533,-193.246"/>
<text text-anchor="middle" x="311" y="-109.5" font-family="Helvetica,sans-Serif" font-size="10.00">gridLayout</text>
</g>
<!-- Node6 -->
<g id="node10" class="node"><title>Node6</title>
<polygon fill="none" stroke="#bfbfbf" points="343.5,-202.5 343.5,-223.5 402.5,-223.5 402.5,-202.5 343.5,-202.5"/>
<text text-anchor="middle" x="373" y="-210.5" font-family="Helvetica,sans-Serif" font-size="10.00">QAction *</text>
</g>
<!-- Node6&#45;&gt;Node1 -->
<g id="edge10" class="edge"><title>Node6&#45;&gt;Node1</title>
<path fill="none" stroke="#9a32cd" stroke-dasharray="5,2" d="M361.118,-193.61C359.548,-190.478 358.103,-187.208 357,-184 335.92,-122.713 352.527,-102.107 334,-40 332.139,-33.7611 329.231,-27.1122 326.638,-21.7569"/>
<polygon fill="#9a32cd" stroke="#9a32cd" points="358.079,-195.348 365.988,-202.398 364.202,-191.955 358.079,-195.348"/>
<text text-anchor="middle" x="405.5" y="-174.5" font-family="Helvetica,sans-Serif" font-size="10.00">actionEdge_List</text>
<text text-anchor="middle" x="405.5" y="-161.5" font-family="Helvetica,sans-Serif" font-size="10.00">actionInsert_Edges</text>
<text text-anchor="middle" x="405.5" y="-148.5" font-family="Helvetica,sans-Serif" font-size="10.00">action_Export</text>
<text text-anchor="middle" x="405.5" y="-135.5" font-family="Helvetica,sans-Serif" font-size="10.00">actionConfigure_G_rid</text>
<text text-anchor="middle" x="405.5" y="-122.5" font-family="Helvetica,sans-Serif" font-size="10.00">action_Style</text>
<text text-anchor="middle" x="405.5" y="-109.5" font-family="Helvetica,sans-Serif" font-size="10.00">action_Reset_Zoom</text>
<text text-anchor="middle" x="405.5" y="-96.5" font-family="Helvetica,sans-Serif" font-size="10.00">action_Erase</text>
<text text-anchor="middle" x="405.5" y="-83.5" font-family="Helvetica,sans-Serif" font-size="10.00">actionSave_As</text>
<text text-anchor="middle" x="405.5" y="-70.5" font-family="Helvetica,sans-Serif" font-size="10.00">actionShow_Knot_line</text>
<text text-anchor="middle" x="405.5" y="-57.5" font-family="Helvetica,sans-Serif" font-size="10.00">action_Undo</text>
<text text-anchor="middle" x="405.5" y="-44.5" font-family="Helvetica,sans-Serif" font-size="10.00">...</text>
</g>
<!-- Node7 -->
<g id="node12" class="node"><title>Node7</title>
<polygon fill="none" stroke="#bfbfbf" points="441.5,-202.5 441.5,-223.5 506.5,-223.5 506.5,-202.5 441.5,-202.5"/>
<text text-anchor="middle" x="474" y="-210.5" font-family="Helvetica,sans-Serif" font-size="10.00">QToolBar *</text>
</g>
<!-- Node7&#45;&gt;Node1 -->
<g id="edge12" class="edge"><title>Node7&#45;&gt;Node1</title>
<path fill="none" stroke="#9a32cd" stroke-dasharray="5,2" d="M474.499,-192.321C475.039,-151.35 473.843,-61.9247 454,-40 442.423,-27.209 400.792,-19.5753 367.153,-15.3767"/>
<polygon fill="#9a32cd" stroke="#9a32cd" points="470.996,-192.433 474.315,-202.495 477.995,-192.56 470.996,-192.433"/>
<text text-anchor="middle" x="501.5" y="-116" font-family="Helvetica,sans-Serif" font-size="10.00">EditBar</text>
<text text-anchor="middle" x="501.5" y="-103" font-family="Helvetica,sans-Serif" font-size="10.00">MainToolBar</text>
</g>
<!-- Node8 -->
<g id="node14" class="node"><title>Node8</title>
<polygon fill="none" stroke="#bfbfbf" points="523.5,-202.5 523.5,-223.5 588.5,-223.5 588.5,-202.5 523.5,-202.5"/>
<text text-anchor="middle" x="556" y="-210.5" font-family="Helvetica,sans-Serif" font-size="10.00">KnotView *</text>
</g>
<!-- Node8&#45;&gt;Node1 -->
<g id="edge14" class="edge"><title>Node8&#45;&gt;Node1</title>
<path fill="none" stroke="#9a32cd" stroke-dasharray="5,2" d="M560.363,-192.224C566.662,-155.853 573.503,-80.6561 533,-40 521.48,-28.4368 425.859,-19.0823 367.041,-14.3538"/>
<polygon fill="#9a32cd" stroke="#9a32cd" points="556.899,-191.707 558.478,-202.184 563.777,-193.009 556.899,-191.707"/>
<text text-anchor="middle" x="581" y="-109.5" font-family="Helvetica,sans-Serif" font-size="10.00">canvas</text>
</g>
<!-- Node9 -->
<g id="node16" class="node"><title>Node9</title>
<polygon fill="none" stroke="#bfbfbf" points="606,-202.5 606,-223.5 676,-223.5 676,-202.5 606,-202.5"/>
<text text-anchor="middle" x="641" y="-210.5" font-family="Helvetica,sans-Serif" font-size="10.00">QMenuBar *</text>
</g>
<!-- Node9&#45;&gt;Node1 -->
<g id="edge16" class="edge"><title>Node9&#45;&gt;Node1</title>
<path fill="none" stroke="#9a32cd" stroke-dasharray="5,2" d="M643.137,-192.345C645.674,-155.538 644.975,-78.8339 601,-40 583.852,-24.8565 441.986,-16.3509 367.025,-12.8747"/>
<polygon fill="#9a32cd" stroke="#9a32cd" points="639.641,-192.142 642.29,-202.401 646.617,-192.73 639.641,-192.142"/>
<text text-anchor="middle" x="663" y="-109.5" font-family="Helvetica,sans-Serif" font-size="10.00">menuBar</text>
</g>
</g>
</svg>
