<?xml version="1.0" encoding="UTF-8" standalone="no"?>
<!DOCTYPE svg PUBLIC "-//W3C//DTD SVG 1.1//EN"
 "http://www.w3.org/Graphics/SVG/1.1/DTD/svg11.dtd">
<!-- Generated by graphviz version 2.26.3 (20100126.1600)
 -->
<!-- Title: G Pages: 1 -->
<svg width="138pt" height="146pt"
 viewBox="0.00 0.00 138.00 146.00" xmlns="http://www.w3.org/2000/svg" xmlns:xlink="http://www.w3.org/1999/xlink">
<g id="graph1" class="graph" transform="scale(1 1) rotate(0) translate(4 142)">
<title>G</title>
<!-- Node1 -->
<g id="node1" class="node"><title>Node1</title>
<polygon fill="#bfbfbf" stroke="black" points="13,-58.5 13,-79.5 117,-79.5 117,-58.5 13,-58.5"/>
<text text-anchor="middle" x="65" y="-66.5" font-family="Helvetica,sans-Serif" font-size="10.00">LastNodeCommand</text>
</g>
<!-- Node3 -->
<g id="node5" class="node"><title>Node3</title>
<a xlink:href="classAddEdge.html" target="_top" xlink:title="AddEdge">
<polygon fill="none" stroke="black" points="0,-0.5 0,-21.5 56,-21.5 56,-0.5 0,-0.5"/>
<text text-anchor="middle" x="28" y="-8.5" font-family="Helvetica,sans-Serif" font-size="10.00">AddEdge</text>
</a>
</g>
<!-- Node1&#45;&gt;Node3 -->
<g id="edge4" class="edge"><title>Node1&#45;&gt;Node3</title>
<path fill="none" stroke="midnightblue" d="M52.6667,-49.6667C46.688,-40.2948 39.7392,-29.4019 34.7433,-21.5707"/>
<polygon fill="midnightblue" stroke="midnightblue" points="49.8847,-51.8136 58.2136,-58.3619 55.7862,-48.0489 49.8847,-51.8136"/>
</g>
<!-- Node4 -->
<g id="node7" class="node"><title>Node4</title>
<a xlink:href="classAddNode.html" target="_top" xlink:title="AddNode">
<polygon fill="none" stroke="black" points="73.5,-0.5 73.5,-21.5 130.5,-21.5 130.5,-0.5 73.5,-0.5"/>
<text text-anchor="middle" x="102" y="-8.5" font-family="Helvetica,sans-Serif" font-size="10.00">AddNode</text>
</a>
</g>
<!-- Node1&#45;&gt;Node4 -->
<g id="edge6" class="edge"><title>Node1&#45;&gt;Node4</title>
<path fill="none" stroke="midnightblue" d="M77.3333,-49.6667C83.312,-40.2948 90.2608,-29.4019 95.2567,-21.5707"/>
<polygon fill="midnightblue" stroke="midnightblue" points="74.2138,-48.0489 71.7864,-58.3619 80.1153,-51.8136 74.2138,-48.0489"/>
</g>
<!-- Node2 -->
<g id="node2" class="node"><title>Node2</title>
<a xlink:href="classQUndoCommand.html" target="_top" xlink:title="QUndoCommand">
<polygon fill="none" stroke="black" points="19,-116.5 19,-137.5 111,-137.5 111,-116.5 19,-116.5"/>
<text text-anchor="middle" x="65" y="-124.5" font-family="Helvetica,sans-Serif" font-size="10.00">QUndoCommand</text>
</a>
</g>
<!-- Node2&#45;&gt;Node1 -->
<g id="edge2" class="edge"><title>Node2&#45;&gt;Node1</title>
<path fill="none" stroke="midnightblue" d="M65,-106.191C65,-97.1684 65,-86.9941 65,-79.5707"/>
<polygon fill="midnightblue" stroke="midnightblue" points="61.5001,-106.362 65,-116.362 68.5001,-106.362 61.5001,-106.362"/>
</g>
</g>
</svg>
