<?xml version="1.0" encoding="UTF-8" standalone="no"?>
<!DOCTYPE svg PUBLIC "-//W3C//DTD SVG 1.1//EN"
 "http://www.w3.org/Graphics/SVG/1.1/DTD/svg11.dtd">
<!-- Generated by graphviz version 2.26.3 (20100126.1600)
 -->
<!-- Title: G Pages: 1 -->
<svg width="814pt" height="659pt"
 viewBox="0.00 0.00 814.00 659.00" xmlns="http://www.w3.org/2000/svg" xmlns:xlink="http://www.w3.org/1999/xlink">
<g id="graph1" class="graph" transform="scale(1 1) rotate(0) translate(4 655)">
<title>G</title>
<!-- Node1 -->
<g id="node1" class="node"><title>Node1</title>
<polygon fill="#bfbfbf" stroke="black" points="738,-170.5 738,-191.5 806,-191.5 806,-170.5 738,-170.5"/>
<text text-anchor="middle" x="772" y="-178.5" font-family="Helvetica,sans-Serif" font-size="10.00">ToggleEdge</text>
</g>
<!-- Node2 -->
<g id="node2" class="node"><title>Node2</title>
<a xlink:href="classQUndoCommand.html" target="_top" xlink:title="QUndoCommand">
<polygon fill="none" stroke="black" points="590,-347.5 590,-368.5 682,-368.5 682,-347.5 590,-347.5"/>
<text text-anchor="middle" x="636" y="-355.5" font-family="Helvetica,sans-Serif" font-size="10.00">QUndoCommand</text>
</a>
</g>
<!-- Node2&#45;&gt;Node1 -->
<g id="edge2" class="edge"><title>Node2&#45;&gt;Node1</title>
<path fill="none" stroke="midnightblue" d="M676.588,-342.234C678.494,-340.92 680.313,-339.51 682,-338 730.219,-294.83 759.113,-219.476 768.56,-191.687"/>
<polygon fill="midnightblue" stroke="midnightblue" points="674.652,-339.312 667.805,-347.398 678.2,-345.347 674.652,-339.312"/>
</g>
<!-- Node3 -->
<g id="node4" class="node"><title>Node3</title>
<a xlink:href="classNode.html" target="_top" xlink:title="Node">
<polygon fill="none" stroke="black" points="417,-61.5 417,-82.5 457,-82.5 457,-61.5 417,-61.5"/>
<text text-anchor="middle" x="437" y="-69.5" font-family="Helvetica,sans-Serif" font-size="10.00">Node</text>
</a>
</g>
<!-- Node3&#45;&gt;Node1 -->
<g id="edge4" class="edge"><title>Node3&#45;&gt;Node1</title>
<path fill="none" stroke="#9a32cd" stroke-dasharray="5,2" d="M466.884,-81.7234C529.602,-102.13 674.515,-149.281 739.472,-170.416"/>
<polygon fill="#9a32cd" stroke="#9a32cd" points="467.794,-78.3389 457.201,-78.573 465.628,-84.9954 467.794,-78.3389"/>
<text text-anchor="middle" x="636" y="-168" font-family="Helvetica,sans-Serif" font-size="10.00">n1</text>
<text text-anchor="middle" x="636" y="-155" font-family="Helvetica,sans-Serif" font-size="10.00">n2</text>
</g>
<!-- Node10 -->
<g id="node18" class="node"><title>Node10</title>
<a xlink:href="classKnotView.html" target="_top" xlink:title="KnotView">
<polygon fill="none" stroke="black" points="606.5,-307.5 606.5,-328.5 665.5,-328.5 665.5,-307.5 606.5,-307.5"/>
<text text-anchor="middle" x="636" y="-315.5" font-family="Helvetica,sans-Serif" font-size="10.00">KnotView</text>
</a>
</g>
<!-- Node3&#45;&gt;Node10 -->
<g id="edge22" class="edge"><title>Node3&#45;&gt;Node10</title>
<path fill="none" stroke="#9a32cd" stroke-dasharray="5,2" d="M456.463,-89.4838C470.981,-102.356 491.429,-120.131 510,-135 536.784,-156.446 550.299,-154.423 572,-181 605.374,-221.872 625.794,-283.019 633.028,-307.406"/>
<polygon fill="#9a32cd" stroke="#9a32cd" points="458.453,-86.5696 448.659,-82.5303 453.796,-91.796 458.453,-86.5696"/>
<text text-anchor="middle" x="541" y="-185" font-family="Helvetica,sans-Serif" font-size="10.00">last_node</text>
</g>
<!-- Node4 -->
<g id="node6" class="node"><title>Node4</title>
<a xlink:href="classCustomItem.html" target="_top" xlink:title="CustomItem">
<polygon fill="none" stroke="black" points="176.5,-45.5 176.5,-66.5 247.5,-66.5 247.5,-45.5 176.5,-45.5"/>
<text text-anchor="middle" x="212" y="-53.5" font-family="Helvetica,sans-Serif" font-size="10.00">CustomItem</text>
</a>
</g>
<!-- Node4&#45;&gt;Node3 -->
<g id="edge6" class="edge"><title>Node4&#45;&gt;Node3</title>
<path fill="none" stroke="midnightblue" d="M258.034,-51.5941C288.275,-49.5587 328.637,-48.4734 364,-53 382.186,-55.3279 402.313,-60.792 416.82,-65.2659"/>
<polygon fill="midnightblue" stroke="midnightblue" points="257.502,-48.1237 247.785,-52.3461 258.014,-55.105 257.502,-48.1237"/>
</g>
<!-- Node5 -->
<g id="node8" class="node"><title>Node5</title>
<a xlink:href="classQGraphicsItem.html" target="_top" xlink:title="QGraphicsItem">
<polygon fill="none" stroke="black" points="0.5,-45.5 0.5,-66.5 83.5,-66.5 83.5,-45.5 0.5,-45.5"/>
<text text-anchor="middle" x="42" y="-53.5" font-family="Helvetica,sans-Serif" font-size="10.00">QGraphicsItem</text>
</a>
</g>
<!-- Node5&#45;&gt;Node4 -->
<g id="edge8" class="edge"><title>Node5&#45;&gt;Node4</title>
<path fill="none" stroke="midnightblue" d="M93.9076,-56C120.585,-56 152.417,-56 176.307,-56"/>
<polygon fill="midnightblue" stroke="midnightblue" points="93.5867,-52.5001 83.5867,-56 93.5866,-59.5001 93.5867,-52.5001"/>
</g>
<!-- Node6 -->
<g id="node10" class="node"><title>Node6</title>
<polygon fill="none" stroke="#bfbfbf" points="24.5,-275.5 24.5,-296.5 59.5,-296.5 59.5,-275.5 24.5,-275.5"/>
<text text-anchor="middle" x="42" y="-283.5" font-family="Helvetica,sans-Serif" font-size="10.00">bool</text>
</g>
<!-- Node6&#45;&gt;Node4 -->
<g id="edge10" class="edge"><title>Node6&#45;&gt;Node4</title>
<path fill="none" stroke="#9a32cd" stroke-dasharray="5,2" d="M49.1026,-265.863C63.8667,-226.47 101.289,-138.327 158,-84 165.55,-76.7677 175.336,-70.9417 184.5,-66.5159"/>
<polygon fill="#9a32cd" stroke="#9a32cd" points="45.7605,-264.812 45.6157,-275.405 52.3353,-267.214 45.7605,-264.812"/>
<text text-anchor="middle" x="121" y="-157" font-family="Helvetica,sans-Serif" font-size="10.00">highlight</text>
</g>
<!-- Node15 -->
<g id="node29" class="node"><title>Node15</title>
<a xlink:href="classsnapping__grid.html" target="_top" xlink:title="snapping_grid">
<polygon fill="none" stroke="black" points="398.5,-420.5 398.5,-441.5 475.5,-441.5 475.5,-420.5 398.5,-420.5"/>
<text text-anchor="middle" x="437" y="-428.5" font-family="Helvetica,sans-Serif" font-size="10.00">snapping_grid</text>
</a>
</g>
<!-- Node6&#45;&gt;Node15 -->
<g id="edge36" class="edge"><title>Node6&#45;&gt;Node15</title>
<path fill="none" stroke="#9a32cd" stroke-dasharray="5,2" d="M49.1665,-306.351C63.3378,-343.055 98.8016,-419.362 158,-450 241.432,-493.18 358.137,-460.229 410.15,-441.566"/>
<polygon fill="#9a32cd" stroke="#9a32cd" points="52.3528,-304.878 45.5899,-296.722 45.7908,-307.315 52.3528,-304.878"/>
<text text-anchor="middle" x="212" y="-475" font-family="Helvetica,sans-Serif" font-size="10.00">enabled</text>
</g>
<!-- Node7 -->
<g id="node12" class="node"><title>Node7</title>
<polygon fill="none" stroke="#bfbfbf" points="197.5,-0.5 197.5,-21.5 226.5,-21.5 226.5,-0.5 197.5,-0.5"/>
<text text-anchor="middle" x="212" y="-8.5" font-family="Helvetica,sans-Serif" font-size="10.00">int</text>
</g>
<!-- Node7&#45;&gt;Node3 -->
<g id="edge12" class="edge"><title>Node7&#45;&gt;Node3</title>
<path fill="none" stroke="#9a32cd" stroke-dasharray="5,2" d="M236.816,-11.962C267.413,-13.7399 320.679,-18.7784 364,-33 384.888,-39.8572 406.883,-52.4484 421.201,-61.4704"/>
<polygon fill="#9a32cd" stroke="#9a32cd" points="236.795,-8.45644 226.63,-11.4435 236.439,-15.4474 236.795,-8.45644"/>
<text text-anchor="middle" x="324" y="-37" font-family="Helvetica,sans-Serif" font-size="10.00">radius</text>
</g>
<!-- Node8 -->
<g id="node14" class="node"><title>Node8</title>
<polygon fill="none" stroke="#bfbfbf" points="168.5,-93.5 168.5,-114.5 255.5,-114.5 255.5,-93.5 168.5,-93.5"/>
<text text-anchor="middle" x="212" y="-101.5" font-family="Helvetica,sans-Serif" font-size="10.00">QList&lt; Edge * &gt;</text>
</g>
<!-- Node8&#45;&gt;Node3 -->
<g id="edge14" class="edge"><title>Node8&#45;&gt;Node3</title>
<path fill="none" stroke="#9a32cd" stroke-dasharray="5,2" d="M240.156,-88.7658C253.112,-82.5813 268.927,-76.1583 284,-73 330.797,-63.1941 387.427,-66.6834 416.926,-69.6194"/>
<polygon fill="#9a32cd" stroke="#9a32cd" points="238.257,-85.8011 230.865,-93.3907 241.377,-92.0677 238.257,-85.8011"/>
<text text-anchor="middle" x="324" y="-77" font-family="Helvetica,sans-Serif" font-size="10.00">edges</text>
</g>
<!-- Node20 -->
<g id="node41" class="node"><title>Node20</title>
<a xlink:href="classKnotGraph.html" target="_top" xlink:title="KnotGraph">
<polygon fill="none" stroke="black" points="405.5,-260.5 405.5,-281.5 468.5,-281.5 468.5,-260.5 405.5,-260.5"/>
<text text-anchor="middle" x="437" y="-268.5" font-family="Helvetica,sans-Serif" font-size="10.00">KnotGraph</text>
</a>
</g>
<!-- Node8&#45;&gt;Node20 -->
<g id="edge54" class="edge"><title>Node8&#45;&gt;Node20</title>
<path fill="none" stroke="#9a32cd" stroke-dasharray="5,2" d="M265.818,-93.2968C298.411,-90.1362 338.48,-92.682 364,-117 407.502,-158.454 344.319,-204.191 382,-251 387.861,-258.281 396.613,-262.912 405.421,-265.857"/>
<polygon fill="#9a32cd" stroke="#9a32cd" points="265.051,-89.8627 255.527,-94.5031 265.866,-96.8151 265.051,-89.8627"/>
<text text-anchor="middle" x="324" y="-134" font-family="Helvetica,sans-Serif" font-size="10.00">traversed_edges</text>
<text text-anchor="middle" x="324" y="-121" font-family="Helvetica,sans-Serif" font-size="10.00">edges</text>
</g>
<!-- Node9 -->
<g id="node16" class="node"><title>Node9</title>
<polygon fill="none" stroke="#bfbfbf" points="606.5,-66.5 606.5,-87.5 665.5,-87.5 665.5,-66.5 606.5,-66.5"/>
<text text-anchor="middle" x="636" y="-74.5" font-family="Helvetica,sans-Serif" font-size="10.00">type_type</text>
</g>
<!-- Node9&#45;&gt;Node1 -->
<g id="edge16" class="edge"><title>Node9&#45;&gt;Node1</title>
<path fill="none" stroke="#9a32cd" stroke-dasharray="5,2" d="M675.872,-72.6331C690.774,-72.8843 707.178,-75.5825 720,-84 750.988,-104.343 764.872,-149.559 769.78,-170.267"/>
<polygon fill="#9a32cd" stroke="#9a32cd" points="675.793,-69.1338 665.856,-72.8099 675.917,-76.1327 675.793,-69.1338"/>
<text text-anchor="middle" x="710" y="-101" font-family="Helvetica,sans-Serif" font-size="10.00">from</text>
<text text-anchor="middle" x="710" y="-88" font-family="Helvetica,sans-Serif" font-size="10.00">to</text>
</g>
<!-- Node10&#45;&gt;Node1 -->
<g id="edge18" class="edge"><title>Node10&#45;&gt;Node1</title>
<path fill="none" stroke="#9a32cd" stroke-dasharray="5,2" d="M654.03,-299.838C682.795,-270.861 738.185,-215.063 761.378,-191.7"/>
<polygon fill="#9a32cd" stroke="#9a32cd" points="651.233,-297.687 646.672,-307.25 656.201,-302.619 651.233,-297.687"/>
<text text-anchor="middle" x="710" y="-253" font-family="Helvetica,sans-Serif" font-size="10.00">kv</text>
</g>
<!-- Node11 -->
<g id="node20" class="node"><title>Node11</title>
<a xlink:href="classQGraphicsView.html" target="_top" xlink:title="QGraphicsView">
<polygon fill="none" stroke="black" points="394.5,-589.5 394.5,-610.5 479.5,-610.5 479.5,-589.5 394.5,-589.5"/>
<text text-anchor="middle" x="437" y="-597.5" font-family="Helvetica,sans-Serif" font-size="10.00">QGraphicsView</text>
</a>
</g>
<!-- Node11&#45;&gt;Node10 -->
<g id="edge20" class="edge"><title>Node11&#45;&gt;Node10</title>
<path fill="none" stroke="midnightblue" d="M489.999,-607.113C518.351,-607.75 551.543,-602.852 572,-581 609.007,-541.471 558.657,-382.155 590,-338 594.033,-332.319 600.037,-328.236 606.387,-325.306"/>
<polygon fill="midnightblue" stroke="midnightblue" points="489.954,-603.607 479.805,-606.649 489.635,-610.6 489.954,-603.607"/>
</g>
<!-- Node12 -->
<g id="node23" class="node"><title>Node12</title>
<polygon fill="none" stroke="#bfbfbf" points="400.5,-549.5 400.5,-570.5 473.5,-570.5 473.5,-549.5 400.5,-549.5"/>
<text text-anchor="middle" x="437" y="-557.5" font-family="Helvetica,sans-Serif" font-size="10.00">QUndoStack</text>
</g>
<!-- Node12&#45;&gt;Node10 -->
<g id="edge24" class="edge"><title>Node12&#45;&gt;Node10</title>
<path fill="none" stroke="#9a32cd" stroke-dasharray="5,2" d="M483.733,-565.229C513.34,-565.749 550.057,-560.738 572,-537 602.141,-504.394 564.004,-373.998 590,-338 594.079,-332.352 600.1,-328.281 606.452,-325.353"/>
<polygon fill="#9a32cd" stroke="#9a32cd" points="483.721,-561.726 473.593,-564.836 483.449,-568.72 483.721,-561.726"/>
<text text-anchor="middle" x="541" y="-568" font-family="Helvetica,sans-Serif" font-size="10.00">undo_stack</text>
</g>
<!-- Node13 -->
<g id="node25" class="node"><title>Node13</title>
<polygon fill="none" stroke="#bfbfbf" points="386,-509.5 386,-530.5 488,-530.5 488,-509.5 386,-509.5"/>
<text text-anchor="middle" x="437" y="-517.5" font-family="Helvetica,sans-Serif" font-size="10.00">mouse_status_type</text>
</g>
<!-- Node13&#45;&gt;Node10 -->
<g id="edge26" class="edge"><title>Node13&#45;&gt;Node10</title>
<path fill="none" stroke="#9a32cd" stroke-dasharray="5,2" d="M498.603,-522.282C524.847,-519.864 553.593,-512.106 572,-492 618.533,-441.173 548.929,-393.334 590,-338 594.048,-332.546 599.9,-328.559 606.08,-325.651"/>
<polygon fill="#9a32cd" stroke="#9a32cd" points="498.055,-518.811 488.314,-522.979 498.528,-525.795 498.055,-518.811"/>
<text text-anchor="middle" x="541" y="-524" font-family="Helvetica,sans-Serif" font-size="10.00">mouse_status</text>
</g>
<!-- Node14 -->
<g id="node27" class="node"><title>Node14</title>
<polygon fill="none" stroke="#bfbfbf" points="185.5,-517.5 185.5,-538.5 238.5,-538.5 238.5,-517.5 185.5,-517.5"/>
<text text-anchor="middle" x="212" y="-525.5" font-family="Helvetica,sans-Serif" font-size="10.00">QPointF</text>
</g>
<!-- Node14&#45;&gt;Node10 -->
<g id="edge28" class="edge"><title>Node14&#45;&gt;Node10</title>
<path fill="none" stroke="#9a32cd" stroke-dasharray="5,2" d="M248.692,-537.05C281.571,-542.976 329.755,-546.055 364,-524 379.375,-514.098 368.217,-499.019 382,-487 420.77,-453.191 445.696,-473.407 492,-451 530.392,-432.422 546.578,-432.246 572,-398 588.594,-375.645 571.516,-358.819 590,-338 594.394,-333.051 600.233,-329.278 606.273,-326.418"/>
<polygon fill="#9a32cd" stroke="#9a32cd" points="249.081,-533.559 238.592,-535.054 247.724,-540.426 249.081,-533.559"/>
<text text-anchor="middle" x="437" y="-491" font-family="Helvetica,sans-Serif" font-size="10.00">oldpos</text>
</g>
<!-- Node14&#45;&gt;Node15 -->
<g id="edge34" class="edge"><title>Node14&#45;&gt;Node15</title>
<path fill="none" stroke="#9a32cd" stroke-dasharray="5,2" d="M248.709,-519.101C292.186,-508.449 359.352,-491.591 364,-488 376.912,-478.023 369.978,-467.033 382,-456 388.491,-450.043 396.644,-445.303 404.67,-441.624"/>
<polygon fill="#9a32cd" stroke="#9a32cd" points="247.637,-515.76 238.753,-521.533 249.298,-522.56 247.637,-515.76"/>
<text text-anchor="middle" x="324" y="-514" font-family="Helvetica,sans-Serif" font-size="10.00">origin</text>
</g>
<!-- Node15&#45;&gt;Node10 -->
<g id="edge30" class="edge"><title>Node15&#45;&gt;Node10</title>
<path fill="none" stroke="#9a32cd" stroke-dasharray="5,2" d="M461.118,-414.926C490.778,-395.494 542.979,-362.369 590,-338 596.34,-334.714 603.338,-331.481 609.922,-328.605"/>
<polygon fill="#9a32cd" stroke="#9a32cd" points="459.094,-412.069 452.668,-420.492 462.944,-417.914 459.094,-412.069"/>
<text text-anchor="middle" x="541" y="-385" font-family="Helvetica,sans-Serif" font-size="10.00">grid</text>
</g>
<!-- Node16 -->
<g id="node31" class="node"><title>Node16</title>
<polygon fill="none" stroke="#bfbfbf" points="189.5,-361.5 189.5,-382.5 234.5,-382.5 234.5,-361.5 189.5,-361.5"/>
<text text-anchor="middle" x="212" y="-369.5" font-family="Helvetica,sans-Serif" font-size="10.00">double</text>
</g>
<!-- Node16&#45;&gt;Node15 -->
<g id="edge32" class="edge"><title>Node16&#45;&gt;Node15</title>
<path fill="none" stroke="#9a32cd" stroke-dasharray="5,2" d="M244.567,-380.611C256.916,-383.872 271.105,-387.613 284,-391 322.902,-401.218 367.385,-412.841 398.322,-420.914"/>
<polygon fill="#9a32cd" stroke="#9a32cd" points="245.258,-377.174 234.696,-378.003 243.47,-383.941 245.258,-377.174"/>
<text text-anchor="middle" x="324" y="-415" font-family="Helvetica,sans-Serif" font-size="10.00">size</text>
</g>
<!-- Node16&#45;&gt;Node20 -->
<g id="edge48" class="edge"><title>Node16&#45;&gt;Node20</title>
<path fill="none" stroke="#9a32cd" stroke-dasharray="5,2" d="M244.038,-360.542C275.37,-348.868 324.062,-329.47 364,-308 372.469,-303.447 373.596,-300.671 382,-296 391.351,-290.802 401.982,-285.778 411.388,-281.613"/>
<polygon fill="#9a32cd" stroke="#9a32cd" points="242.681,-357.311 234.508,-364.053 245.101,-363.88 242.681,-357.311"/>
<text text-anchor="middle" x="324" y="-373" font-family="Helvetica,sans-Serif" font-size="10.00">cusp_angle</text>
<text text-anchor="middle" x="324" y="-360" font-family="Helvetica,sans-Serif" font-size="10.00">crossing_distance</text>
<text text-anchor="middle" x="324" y="-347" font-family="Helvetica,sans-Serif" font-size="10.00">handle_length</text>
</g>
<!-- Node17 -->
<g id="node35" class="node"><title>Node17</title>
<polygon fill="none" stroke="#bfbfbf" points="180,-419.5 180,-440.5 244,-440.5 244,-419.5 180,-419.5"/>
<text text-anchor="middle" x="212" y="-427.5" font-family="Helvetica,sans-Serif" font-size="10.00">grid_shape</text>
</g>
<!-- Node17&#45;&gt;Node15 -->
<g id="edge38" class="edge"><title>Node17&#45;&gt;Node15</title>
<path fill="none" stroke="#9a32cd" stroke-dasharray="5,2" d="M254.287,-430.188C295.714,-430.372 358.304,-430.65 398.411,-430.828"/>
<polygon fill="#9a32cd" stroke="#9a32cd" points="254.253,-426.688 244.237,-430.143 254.221,-433.688 254.253,-426.688"/>
<text text-anchor="middle" x="324" y="-434" font-family="Helvetica,sans-Serif" font-size="10.00">shape</text>
</g>
<!-- Node18 -->
<g id="node37" class="node"><title>Node18</title>
<polygon fill="none" stroke="#bfbfbf" points="382,-220.5 382,-241.5 492,-241.5 492,-220.5 382,-220.5"/>
<text text-anchor="middle" x="437" y="-228.5" font-family="Helvetica,sans-Serif" font-size="10.00">QGraphicsRectItem *</text>
</g>
<!-- Node18&#45;&gt;Node10 -->
<g id="edge40" class="edge"><title>Node18&#45;&gt;Node10</title>
<path fill="none" stroke="#9a32cd" stroke-dasharray="5,2" d="M502.068,-238.574C525.045,-243.003 550.498,-249.993 572,-261 594.78,-272.662 615.84,-294.384 627.208,-307.383"/>
<polygon fill="#9a32cd" stroke="#9a32cd" points="502.513,-235.098 492.051,-236.772 501.273,-241.988 502.513,-235.098"/>
<text text-anchor="middle" x="541" y="-265" font-family="Helvetica,sans-Serif" font-size="10.00">rubberband</text>
</g>
<!-- Node19 -->
<g id="node39" class="node"><title>Node19</title>
<polygon fill="none" stroke="#bfbfbf" points="383.5,-180.5 383.5,-201.5 490.5,-201.5 490.5,-180.5 383.5,-180.5"/>
<text text-anchor="middle" x="437" y="-188.5" font-family="Helvetica,sans-Serif" font-size="10.00">QGraphicsLineItem *</text>
</g>
<!-- Node19&#45;&gt;Node10 -->
<g id="edge42" class="edge"><title>Node19&#45;&gt;Node10</title>
<path fill="none" stroke="#9a32cd" stroke-dasharray="5,2" d="M500.791,-196.245C524.755,-200.639 551.203,-208.608 572,-223 603.398,-244.728 623.699,-287.301 631.887,-307.23"/>
<polygon fill="#9a32cd" stroke="#9a32cd" points="501.134,-192.754 490.696,-194.572 499.989,-199.66 501.134,-192.754"/>
<text text-anchor="middle" x="541" y="-227" font-family="Helvetica,sans-Serif" font-size="10.00">guide</text>
</g>
<!-- Node20&#45;&gt;Node10 -->
<g id="edge44" class="edge"><title>Node20&#45;&gt;Node10</title>
<path fill="none" stroke="#9a32cd" stroke-dasharray="5,2" d="M478.815,-274.45C505.773,-277.343 541.385,-282.423 572,-291 586.748,-295.132 602.614,-301.809 614.859,-307.489"/>
<polygon fill="#9a32cd" stroke="#9a32cd" points="478.87,-270.938 468.568,-273.41 478.164,-277.902 478.87,-270.938"/>
<text text-anchor="middle" x="541" y="-295" font-family="Helvetica,sans-Serif" font-size="10.00">knot</text>
</g>
<!-- Node21 -->
<g id="node43" class="node"><title>Node21</title>
<a xlink:href="classQGraphicsPathItem.html" target="_top" xlink:title="QGraphicsPathItem">
<polygon fill="none" stroke="black" points="160.5,-260.5 160.5,-281.5 263.5,-281.5 263.5,-260.5 160.5,-260.5"/>
<text text-anchor="middle" x="212" y="-268.5" font-family="Helvetica,sans-Serif" font-size="10.00">QGraphicsPathItem</text>
</a>
</g>
<!-- Node21&#45;&gt;Node20 -->
<g id="edge46" class="edge"><title>Node21&#45;&gt;Node20</title>
<path fill="none" stroke="midnightblue" d="M273.628,-271C316.304,-271 371.352,-271 405.405,-271"/>
<polygon fill="midnightblue" stroke="midnightblue" points="273.62,-267.5 263.62,-271 273.62,-274.5 273.62,-267.5"/>
</g>
<!-- Node22 -->
<g id="node46" class="node"><title>Node22</title>
<polygon fill="none" stroke="#bfbfbf" points="158.5,-220.5 158.5,-241.5 265.5,-241.5 265.5,-220.5 158.5,-220.5"/>
<text text-anchor="middle" x="212" y="-228.5" font-family="Helvetica,sans-Serif" font-size="10.00">QPainterPathStroker</text>
</g>
<!-- Node22&#45;&gt;Node20 -->
<g id="edge50" class="edge"><title>Node22&#45;&gt;Node20</title>
<path fill="none" stroke="#9a32cd" stroke-dasharray="5,2" d="M275.826,-239.519C303.076,-243.45 335.18,-248.473 364,-254 377.674,-256.623 392.671,-260.023 405.495,-263.092"/>
<polygon fill="#9a32cd" stroke="#9a32cd" points="276.031,-236.013 265.637,-238.067 275.043,-242.943 276.031,-236.013"/>
<text text-anchor="middle" x="324" y="-258" font-family="Helvetica,sans-Serif" font-size="10.00">stroker</text>
</g>
<!-- Node23 -->
<g id="node48" class="node"><title>Node23</title>
<polygon fill="none" stroke="#bfbfbf" points="174.5,-180.5 174.5,-201.5 249.5,-201.5 249.5,-180.5 174.5,-180.5"/>
<text text-anchor="middle" x="212" y="-188.5" font-family="Helvetica,sans-Serif" font-size="10.00">QPainterPath</text>
</g>
<!-- Node23&#45;&gt;Node20 -->
<g id="edge52" class="edge"><title>Node23&#45;&gt;Node20</title>
<path fill="none" stroke="#9a32cd" stroke-dasharray="5,2" d="M259.54,-191.664C291.547,-194.225 333.345,-201.871 364,-223 376.181,-231.396 370.442,-241.765 382,-251 388.827,-256.454 397.273,-260.501 405.482,-263.47"/>
<polygon fill="#9a32cd" stroke="#9a32cd" points="259.729,-188.169 249.519,-191.001 259.266,-195.154 259.729,-188.169"/>
<text text-anchor="middle" x="324" y="-227" font-family="Helvetica,sans-Serif" font-size="10.00">knot</text>
</g>
<!-- Node24 -->
<g id="node51" class="node"><title>Node24</title>
<polygon fill="none" stroke="#bfbfbf" points="194.5,-140.5 194.5,-161.5 229.5,-161.5 229.5,-140.5 194.5,-140.5"/>
<text text-anchor="middle" x="212" y="-148.5" font-family="Helvetica,sans-Serif" font-size="10.00">long</text>
</g>
<!-- Node24&#45;&gt;Node20 -->
<g id="edge56" class="edge"><title>Node24&#45;&gt;Node20</title>
<path fill="none" stroke="#9a32cd" stroke-dasharray="5,2" d="M239.809,-147.387C273.658,-144.653 330.441,-145.686 364,-177 388.748,-200.092 359.42,-225.785 382,-251 388.1,-257.812 396.709,-262.306 405.309,-265.271"/>
<polygon fill="#9a32cd" stroke="#9a32cd" points="239.297,-143.92 229.684,-148.374 239.976,-150.887 239.297,-143.92"/>
<text text-anchor="middle" x="324" y="-181" font-family="Helvetica,sans-Serif" font-size="10.00">curve_style</text>
</g>
<!-- Node25 -->
<g id="node53" class="node"><title>Node25</title>
<polygon fill="none" stroke="#bfbfbf" points="168,-303.5 168,-324.5 256,-324.5 256,-303.5 168,-303.5"/>
<text text-anchor="middle" x="212" y="-311.5" font-family="Helvetica,sans-Serif" font-size="10.00">QList&lt; Node * &gt;</text>
</g>
<!-- Node25&#45;&gt;Node10 -->
<g id="edge60" class="edge"><title>Node25&#45;&gt;Node10</title>
<path fill="none" stroke="#9a32cd" stroke-dasharray="5,2" d="M266.238,-314.512C356.773,-315.366 535.711,-317.054 606.334,-317.72"/>
<polygon fill="#9a32cd" stroke="#9a32cd" points="266.208,-311.011 256.176,-314.417 266.142,-318.011 266.208,-311.011"/>
<text text-anchor="middle" x="437" y="-320" font-family="Helvetica,sans-Serif" font-size="10.00">moved_nodes</text>
</g>
<!-- Node25&#45;&gt;Node20 -->
<g id="edge58" class="edge"><title>Node25&#45;&gt;Node20</title>
<path fill="none" stroke="#9a32cd" stroke-dasharray="5,2" d="M250.605,-300.265C261.315,-296.841 273.018,-293.451 284,-291 325.44,-281.751 374.216,-276.288 405.358,-273.469"/>
<polygon fill="#9a32cd" stroke="#9a32cd" points="249.504,-296.943 241.099,-303.394 251.692,-303.592 249.504,-296.943"/>
<text text-anchor="middle" x="324" y="-295" font-family="Helvetica,sans-Serif" font-size="10.00">nodes</text>
</g>
<!-- Node26 -->
<g id="node56" class="node"><title>Node26</title>
<polygon fill="none" stroke="#bfbfbf" points="404.5,-629.5 404.5,-650.5 469.5,-650.5 469.5,-629.5 404.5,-629.5"/>
<text text-anchor="middle" x="437" y="-637.5" font-family="Helvetica,sans-Serif" font-size="10.00">mode_type</text>
</g>
<!-- Node26&#45;&gt;Node10 -->
<g id="edge62" class="edge"><title>Node26&#45;&gt;Node10</title>
<path fill="none" stroke="#9a32cd" stroke-dasharray="5,2" d="M479.92,-641.817C510.457,-640.582 549.851,-633.353 572,-607 610.547,-561.136 555.495,-386.978 590,-338 594.012,-332.305 600.009,-328.216 606.358,-325.286"/>
<polygon fill="#9a32cd" stroke="#9a32cd" points="479.459,-638.326 469.531,-642.026 479.599,-645.325 479.459,-638.326"/>
<text text-anchor="middle" x="541" y="-642" font-family="Helvetica,sans-Serif" font-size="10.00">mode</text>
</g>
</g>
</svg>
