<?xml version="1.0" encoding="UTF-8" standalone="no"?>
<!DOCTYPE svg PUBLIC "-//W3C//DTD SVG 1.1//EN"
 "http://www.w3.org/Graphics/SVG/1.1/DTD/svg11.dtd">
<!-- Generated by graphviz version 2.26.3 (20100126.1600)
 -->
<!-- Title: G Pages: 1 -->
<svg width="1310pt" height="801pt"
 viewBox="0.00 0.00 1310.00 801.00" xmlns="http://www.w3.org/2000/svg" xmlns:xlink="http://www.w3.org/1999/xlink">
<g id="graph1" class="graph" transform="scale(1 1) rotate(0) translate(4 797)">
<title>G</title>
<!-- Node1 -->
<g id="node1" class="node"><title>Node1</title>
<polygon fill="#bfbfbf" stroke="black" points="1234.5,-55.5 1234.5,-76.5 1301.5,-76.5 1301.5,-55.5 1234.5,-55.5"/>
<text text-anchor="middle" x="1268" y="-63.5" font-family="Helvetica,sans-Serif" font-size="10.00">StyleDialog</text>
</g>
<!-- Node2 -->
<g id="node2" class="node"><title>Node2</title>
<a xlink:href="classQDialog.html" target="_top" xlink:title="QDialog">
<polygon fill="none" stroke="black" points="1019,-118.5 1019,-139.5 1071,-139.5 1071,-118.5 1019,-118.5"/>
<text text-anchor="middle" x="1045" y="-126.5" font-family="Helvetica,sans-Serif" font-size="10.00">QDialog</text>
</a>
</g>
<!-- Node2&#45;&gt;Node1 -->
<g id="edge2" class="edge"><title>Node2&#45;&gt;Node1</title>
<path fill="none" stroke="midnightblue" d="M1081.24,-122.931C1116.31,-116.498 1170.68,-105.042 1216,-89 1226.05,-85.4426 1236.88,-80.7933 1246.03,-76.6064"/>
<polygon fill="midnightblue" stroke="midnightblue" points="1080.23,-119.556 1071,-124.766 1081.46,-126.446 1080.23,-119.556"/>
</g>
<!-- Node3 -->
<g id="node4" class="node"><title>Node3</title>
<a xlink:href="classUi_1_1StyleDialog.html" target="_top" xlink:title="Ui::StyleDialog">
<polygon fill="none" stroke="black" points="1003.5,-78.5 1003.5,-99.5 1086.5,-99.5 1086.5,-78.5 1003.5,-78.5"/>
<text text-anchor="middle" x="1045" y="-86.5" font-family="Helvetica,sans-Serif" font-size="10.00">Ui::StyleDialog</text>
</a>
</g>
<!-- Node3&#45;&gt;Node1 -->
<g id="edge4" class="edge"><title>Node3&#45;&gt;Node1</title>
<path fill="none" stroke="#8b1a1a" d="M1096.79,-83.658C1139.1,-79.2945 1197.67,-73.2535 1234.17,-69.4888"/>
<polygon fill="#8b1a1a" stroke="#8b1a1a" points="1096.27,-80.1933 1086.68,-84.7009 1096.99,-87.1564 1096.27,-80.1933"/>
</g>
<!-- Node4 -->
<g id="node6" class="node"><title>Node4</title>
<a xlink:href="classUi__StyleDialog.html" target="_top" xlink:title="Ui_StyleDialog">
<polygon fill="none" stroke="black" points="828,-314.5 828,-335.5 910,-335.5 910,-314.5 828,-314.5"/>
<text text-anchor="middle" x="869" y="-322.5" font-family="Helvetica,sans-Serif" font-size="10.00">Ui_StyleDialog</text>
</a>
</g>
<!-- Node4&#45;&gt;Node3 -->
<g id="edge6" class="edge"><title>Node4&#45;&gt;Node3</title>
<path fill="none" stroke="midnightblue" d="M870.143,-304.296C873.709,-260.962 888.327,-160.473 948,-109 963.103,-95.9723 984.435,-90.6445 1003.25,-88.7134"/>
<polygon fill="midnightblue" stroke="midnightblue" points="866.638,-304.247 869.428,-314.468 873.621,-304.738 866.638,-304.247"/>
</g>
<!-- Node5 -->
<g id="node8" class="node"><title>Node5</title>
<polygon fill="none" stroke="#bfbfbf" points="593,-448.5 593,-469.5 691,-469.5 691,-448.5 593,-448.5"/>
<text text-anchor="middle" x="642" y="-456.5" font-family="Helvetica,sans-Serif" font-size="10.00">QDoubleSpinBox *</text>
</g>
<!-- Node5&#45;&gt;Node4 -->
<g id="edge8" class="edge"><title>Node5&#45;&gt;Node4</title>
<path fill="none" stroke="#9a32cd" stroke-dasharray="5,2" d="M701.546,-464.135C736.05,-464.145 778.712,-458.778 810,-437 845.715,-412.14 861.477,-358.736 866.787,-335.814"/>
<polygon fill="#9a32cd" stroke="#9a32cd" points="701.176,-460.629 691.122,-463.971 701.066,-467.628 701.176,-460.629"/>
<text text-anchor="middle" x="761" y="-519" font-family="Helvetica,sans-Serif" font-size="10.00">outline_width_spinner</text>
<text text-anchor="middle" x="761" y="-506" font-family="Helvetica,sans-Serif" font-size="10.00">knot_width_spinner</text>
<text text-anchor="middle" x="761" y="-493" font-family="Helvetica,sans-Serif" font-size="10.00">handle_length_spinner</text>
<text text-anchor="middle" x="761" y="-480" font-family="Helvetica,sans-Serif" font-size="10.00">crossing_gap_spinner</text>
<text text-anchor="middle" x="761" y="-467" font-family="Helvetica,sans-Serif" font-size="10.00">cusp_angle_spinner</text>
</g>
<!-- Node6 -->
<g id="node10" class="node"><title>Node6</title>
<polygon fill="none" stroke="#bfbfbf" points="603,-399.5 603,-420.5 681,-420.5 681,-399.5 603,-399.5"/>
<text text-anchor="middle" x="642" y="-407.5" font-family="Helvetica,sans-Serif" font-size="10.00">QGridLayout *</text>
</g>
<!-- Node6&#45;&gt;Node4 -->
<g id="edge10" class="edge"><title>Node6&#45;&gt;Node4</title>
<path fill="none" stroke="#9a32cd" stroke-dasharray="5,2" d="M691.513,-410.338C726.351,-408.718 773.147,-402.696 810,-384 832.478,-372.597 851.657,-349.438 861.637,-335.772"/>
<polygon fill="#9a32cd" stroke="#9a32cd" points="690.978,-406.855 681.109,-410.708 691.227,-413.85 690.978,-406.855"/>
<text text-anchor="middle" x="761" y="-425" font-family="Helvetica,sans-Serif" font-size="10.00">gridLayout</text>
<text text-anchor="middle" x="761" y="-412" font-family="Helvetica,sans-Serif" font-size="10.00">gridLayout_2</text>
</g>
<!-- Node7 -->
<g id="node12" class="node"><title>Node7</title>
<polygon fill="none" stroke="#bfbfbf" points="602,-352.5 602,-373.5 682,-373.5 682,-352.5 602,-352.5"/>
<text text-anchor="middle" x="642" y="-360.5" font-family="Helvetica,sans-Serif" font-size="10.00">QComboBox *</text>
</g>
<!-- Node7&#45;&gt;Node4 -->
<g id="edge12" class="edge"><title>Node7&#45;&gt;Node4</title>
<path fill="none" stroke="#9a32cd" stroke-dasharray="5,2" d="M692.231,-357.039C725.72,-352.768 770.651,-346.463 810,-339 815.792,-337.901 821.873,-336.614 827.84,-335.272"/>
<polygon fill="#9a32cd" stroke="#9a32cd" points="691.709,-353.578 682.224,-358.299 692.583,-360.523 691.709,-353.578"/>
<text text-anchor="middle" x="761" y="-371" font-family="Helvetica,sans-Serif" font-size="10.00">point_combo</text>
<text text-anchor="middle" x="761" y="-358" font-family="Helvetica,sans-Serif" font-size="10.00">style_combo</text>
</g>
<!-- Node8 -->
<g id="node14" class="node"><title>Node8</title>
<polygon fill="none" stroke="#bfbfbf" points="605,-312.5 605,-333.5 679,-333.5 679,-312.5 605,-312.5"/>
<text text-anchor="middle" x="642" y="-320.5" font-family="Helvetica,sans-Serif" font-size="10.00">QGroupBox *</text>
</g>
<!-- Node8&#45;&gt;Node4 -->
<g id="edge14" class="edge"><title>Node8&#45;&gt;Node4</title>
<path fill="none" stroke="#9a32cd" stroke-dasharray="5,2" d="M689.238,-323.416C730.194,-323.777 788.863,-324.294 827.907,-324.638"/>
<polygon fill="#9a32cd" stroke="#9a32cd" points="689.261,-319.916 679.23,-323.328 689.199,-326.916 689.261,-319.916"/>
<text text-anchor="middle" x="761" y="-329" font-family="Helvetica,sans-Serif" font-size="10.00">groupBox</text>
</g>
<!-- Node9 -->
<g id="node16" class="node"><title>Node9</title>
<polygon fill="none" stroke="#bfbfbf" points="615,-175.5 615,-196.5 669,-196.5 669,-175.5 615,-175.5"/>
<text text-anchor="middle" x="642" y="-183.5" font-family="Helvetica,sans-Serif" font-size="10.00">QLabel *</text>
</g>
<!-- Node9&#45;&gt;Node4 -->
<g id="edge16" class="edge"><title>Node9&#45;&gt;Node4</title>
<path fill="none" stroke="#9a32cd" stroke-dasharray="5,2" d="M679.441,-179.981C716.059,-176.189 771.744,-176.228 810,-203 848.745,-230.114 863.02,-289.86 867.365,-314.28"/>
<polygon fill="#9a32cd" stroke="#9a32cd" points="678.709,-176.544 669.19,-181.194 679.532,-183.495 678.709,-176.544"/>
<text text-anchor="middle" x="761" y="-311" font-family="Helvetica,sans-Serif" font-size="10.00">label_2</text>
<text text-anchor="middle" x="761" y="-298" font-family="Helvetica,sans-Serif" font-size="10.00">label_3</text>
<text text-anchor="middle" x="761" y="-285" font-family="Helvetica,sans-Serif" font-size="10.00">label_4</text>
<text text-anchor="middle" x="761" y="-272" font-family="Helvetica,sans-Serif" font-size="10.00">label_5</text>
<text text-anchor="middle" x="761" y="-259" font-family="Helvetica,sans-Serif" font-size="10.00">label_6</text>
<text text-anchor="middle" x="761" y="-246" font-family="Helvetica,sans-Serif" font-size="10.00">label_7</text>
<text text-anchor="middle" x="761" y="-233" font-family="Helvetica,sans-Serif" font-size="10.00">label_8</text>
<text text-anchor="middle" x="761" y="-220" font-family="Helvetica,sans-Serif" font-size="10.00">label_9</text>
<text text-anchor="middle" x="761" y="-207" font-family="Helvetica,sans-Serif" font-size="10.00">label</text>
</g>
<!-- Node10 -->
<g id="node18" class="node"><title>Node10</title>
<polygon fill="none" stroke="#bfbfbf" points="590,-135.5 590,-156.5 694,-156.5 694,-135.5 590,-135.5"/>
<text text-anchor="middle" x="642" y="-143.5" font-family="Helvetica,sans-Serif" font-size="10.00">QDialogButtonBox *</text>
</g>
<!-- Node10&#45;&gt;Node4 -->
<g id="edge18" class="edge"><title>Node10&#45;&gt;Node4</title>
<path fill="none" stroke="#9a32cd" stroke-dasharray="5,2" d="M704.236,-136.749C738.735,-135.066 780.49,-139.133 810,-162 835.336,-181.632 859.355,-281.436 866.71,-314.41"/>
<polygon fill="#9a32cd" stroke="#9a32cd" points="704,-133.257 694.25,-137.403 704.458,-140.242 704,-133.257"/>
<text text-anchor="middle" x="761" y="-166" font-family="Helvetica,sans-Serif" font-size="10.00">buttonBox</text>
</g>
<!-- Node11 -->
<g id="node20" class="node"><title>Node11</title>
<a xlink:href="classColorWidget.html" target="_top" xlink:title="ColorWidget">
<polygon fill="none" stroke="black" points="606.5,-87.5 606.5,-108.5 677.5,-108.5 677.5,-87.5 606.5,-87.5"/>
<text text-anchor="middle" x="642" y="-95.5" font-family="Helvetica,sans-Serif" font-size="10.00">ColorWidget</text>
</a>
</g>
<!-- Node11&#45;&gt;Node4 -->
<g id="edge20" class="edge"><title>Node11&#45;&gt;Node4</title>
<path fill="none" stroke="#9a32cd" stroke-dasharray="5,2" d="M687.784,-87.0594C724.805,-81.0751 776.161,-79.6358 810,-107 843.384,-133.996 862.828,-274.342 867.751,-314.347"/>
<polygon fill="#9a32cd" stroke="#9a32cd" points="686.979,-83.6476 677.749,-88.8477 688.208,-90.539 686.979,-83.6476"/>
<text text-anchor="middle" x="761" y="-124" font-family="Helvetica,sans-Serif" font-size="10.00">outline_color</text>
<text text-anchor="middle" x="761" y="-111" font-family="Helvetica,sans-Serif" font-size="10.00">color</text>
</g>
<!-- Node12 -->
<g id="node22" class="node"><title>Node12</title>
<a xlink:href="classQLineEdit.html" target="_top" xlink:title="QLineEdit">
<polygon fill="none" stroke="black" points="407.5,-78.5 407.5,-99.5 466.5,-99.5 466.5,-78.5 407.5,-78.5"/>
<text text-anchor="middle" x="437" y="-86.5" font-family="Helvetica,sans-Serif" font-size="10.00">QLineEdit</text>
</a>
</g>
<!-- Node12&#45;&gt;Node11 -->
<g id="edge22" class="edge"><title>Node12&#45;&gt;Node11</title>
<path fill="none" stroke="midnightblue" d="M476.887,-90.7511C514.44,-92.3998 570.169,-94.8464 606.293,-96.4324"/>
<polygon fill="midnightblue" stroke="midnightblue" points="476.953,-87.2507 466.809,-90.3087 476.646,-94.244 476.953,-87.2507"/>
</g>
<!-- Node13 -->
<g id="node24" class="node"><title>Node13</title>
<polygon fill="none" stroke="#bfbfbf" points="399.5,-118.5 399.5,-139.5 474.5,-139.5 474.5,-118.5 399.5,-118.5"/>
<text text-anchor="middle" x="437" y="-126.5" font-family="Helvetica,sans-Serif" font-size="10.00">QColorDialog</text>
</g>
<!-- Node13&#45;&gt;Node11 -->
<g id="edge24" class="edge"><title>Node13&#45;&gt;Node11</title>
<path fill="none" stroke="#9a32cd" stroke-dasharray="5,2" d="M484.698,-121.787C521.868,-116.166 572.659,-108.486 606.354,-103.39"/>
<polygon fill="#9a32cd" stroke="#9a32cd" points="483.964,-118.358 474.6,-123.314 485.011,-125.279 483.964,-118.358"/>
<text text-anchor="middle" x="541" y="-122" font-family="Helvetica,sans-Serif" font-size="10.00">color_dialog</text>
</g>
<!-- Node14 -->
<g id="node26" class="node"><title>Node14</title>
<a xlink:href="classKnotView.html" target="_top" xlink:title="KnotView">
<polygon fill="none" stroke="black" points="612.5,-559.5 612.5,-580.5 671.5,-580.5 671.5,-559.5 612.5,-559.5"/>
<text text-anchor="middle" x="642" y="-567.5" font-family="Helvetica,sans-Serif" font-size="10.00">KnotView</text>
</a>
</g>
<!-- Node14&#45;&gt;Node4 -->
<g id="edge26" class="edge"><title>Node14&#45;&gt;Node4</title>
<path fill="none" stroke="#9a32cd" stroke-dasharray="5,2" d="M681.827,-571.835C719.636,-571.349 775.653,-564.501 810,-532 839.518,-504.068 861.467,-374.179 867.401,-335.742"/>
<polygon fill="#9a32cd" stroke="#9a32cd" points="681.684,-568.335 671.678,-571.82 681.673,-575.335 681.684,-568.335"/>
<text text-anchor="middle" x="761" y="-573" font-family="Helvetica,sans-Serif" font-size="10.00">preview</text>
</g>
<!-- Node15 -->
<g id="node28" class="node"><title>Node15</title>
<a xlink:href="classQGraphicsView.html" target="_top" xlink:title="QGraphicsView">
<polygon fill="none" stroke="black" points="394.5,-651.5 394.5,-672.5 479.5,-672.5 479.5,-651.5 394.5,-651.5"/>
<text text-anchor="middle" x="437" y="-659.5" font-family="Helvetica,sans-Serif" font-size="10.00">QGraphicsView</text>
</a>
</g>
<!-- Node15&#45;&gt;Node14 -->
<g id="edge28" class="edge"><title>Node15&#45;&gt;Node14</title>
<path fill="none" stroke="midnightblue" d="M489.7,-657.683C515.59,-653.948 546.599,-646.985 572,-634 597.805,-620.808 621.214,-595.505 633.325,-580.979"/>
<polygon fill="midnightblue" stroke="midnightblue" points="489.14,-654.226 479.685,-659.005 490.057,-661.166 489.14,-654.226"/>
</g>
<!-- Node16 -->
<g id="node30" class="node"><title>Node16</title>
<a xlink:href="classNode.html" target="_top" xlink:title="Node">
<polygon fill="none" stroke="black" points="417,-435.5 417,-456.5 457,-456.5 457,-435.5 417,-435.5"/>
<text text-anchor="middle" x="437" y="-443.5" font-family="Helvetica,sans-Serif" font-size="10.00">Node</text>
</a>
</g>
<!-- Node16&#45;&gt;Node14 -->
<g id="edge30" class="edge"><title>Node16&#45;&gt;Node14</title>
<path fill="none" stroke="#9a32cd" stroke-dasharray="5,2" d="M463.143,-461.813C505.626,-487.51 588.522,-537.652 624.566,-559.455"/>
<polygon fill="#9a32cd" stroke="#9a32cd" points="464.846,-458.753 454.478,-456.572 461.223,-464.743 464.846,-458.753"/>
<text text-anchor="middle" x="541" y="-530" font-family="Helvetica,sans-Serif" font-size="10.00">last_node</text>
</g>
<!-- Node17 -->
<g id="node32" class="node"><title>Node17</title>
<a xlink:href="classCustomItem.html" target="_top" xlink:title="CustomItem">
<polygon fill="none" stroke="black" points="176.5,-505.5 176.5,-526.5 247.5,-526.5 247.5,-505.5 176.5,-505.5"/>
<text text-anchor="middle" x="212" y="-513.5" font-family="Helvetica,sans-Serif" font-size="10.00">CustomItem</text>
</a>
</g>
<!-- Node17&#45;&gt;Node16 -->
<g id="edge32" class="edge"><title>Node17&#45;&gt;Node16</title>
<path fill="none" stroke="midnightblue" d="M251.548,-529.246C283.323,-537.56 328.368,-543.985 364,-528 397.042,-513.177 421.249,-475.188 431.534,-456.585"/>
<polygon fill="midnightblue" stroke="midnightblue" points="252.3,-525.822 241.727,-526.506 250.419,-532.565 252.3,-525.822"/>
</g>
<!-- Node18 -->
<g id="node34" class="node"><title>Node18</title>
<a xlink:href="classQGraphicsItem.html" target="_top" xlink:title="QGraphicsItem">
<polygon fill="none" stroke="black" points="0.5,-505.5 0.5,-526.5 83.5,-526.5 83.5,-505.5 0.5,-505.5"/>
<text text-anchor="middle" x="42" y="-513.5" font-family="Helvetica,sans-Serif" font-size="10.00">QGraphicsItem</text>
</a>
</g>
<!-- Node18&#45;&gt;Node17 -->
<g id="edge34" class="edge"><title>Node18&#45;&gt;Node17</title>
<path fill="none" stroke="midnightblue" d="M93.9076,-516C120.585,-516 152.417,-516 176.307,-516"/>
<polygon fill="midnightblue" stroke="midnightblue" points="93.5867,-512.5 83.5867,-516 93.5866,-519.5 93.5867,-512.5"/>
</g>
<!-- Node19 -->
<g id="node36" class="node"><title>Node19</title>
<polygon fill="none" stroke="#bfbfbf" points="24.5,-568.5 24.5,-589.5 59.5,-589.5 59.5,-568.5 24.5,-568.5"/>
<text text-anchor="middle" x="42" y="-576.5" font-family="Helvetica,sans-Serif" font-size="10.00">bool</text>
</g>
<!-- Node19&#45;&gt;Node17 -->
<g id="edge36" class="edge"><title>Node19&#45;&gt;Node17</title>
<path fill="none" stroke="#9a32cd" stroke-dasharray="5,2" d="M69.3279,-568.867C92.834,-560.152 127.649,-547.246 158,-536 166.25,-532.943 175.208,-529.625 183.414,-526.586"/>
<polygon fill="#9a32cd" stroke="#9a32cd" points="67.8461,-565.684 59.6866,-572.442 70.2796,-572.247 67.8461,-565.684"/>
<text text-anchor="middle" x="121" y="-560" font-family="Helvetica,sans-Serif" font-size="10.00">highlight</text>
</g>
<!-- Node25 -->
<g id="node48" class="node"><title>Node25</title>
<a xlink:href="classsnapping__grid.html" target="_top" xlink:title="snapping_grid">
<polygon fill="none" stroke="black" points="398.5,-562.5 398.5,-583.5 475.5,-583.5 475.5,-562.5 398.5,-562.5"/>
<text text-anchor="middle" x="437" y="-570.5" font-family="Helvetica,sans-Serif" font-size="10.00">snapping_grid</text>
</a>
</g>
<!-- Node19&#45;&gt;Node25 -->
<g id="edge54" class="edge"><title>Node19&#45;&gt;Node25</title>
<path fill="none" stroke="#9a32cd" stroke-dasharray="5,2" d="M70.0195,-581.132C125.984,-585.015 255.542,-592.126 364,-584 375.247,-583.157 387.388,-581.594 398.479,-579.906"/>
<polygon fill="#9a32cd" stroke="#9a32cd" points="70.0602,-577.626 59.836,-580.404 69.5609,-584.608 70.0602,-577.626"/>
<text text-anchor="middle" x="212" y="-591" font-family="Helvetica,sans-Serif" font-size="10.00">enabled</text>
</g>
<!-- Node20 -->
<g id="node38" class="node"><title>Node20</title>
<polygon fill="none" stroke="#bfbfbf" points="197.5,-405.5 197.5,-426.5 226.5,-426.5 226.5,-405.5 197.5,-405.5"/>
<text text-anchor="middle" x="212" y="-413.5" font-family="Helvetica,sans-Serif" font-size="10.00">int</text>
</g>
<!-- Node20&#45;&gt;Node16 -->
<g id="edge38" class="edge"><title>Node20&#45;&gt;Node16</title>
<path fill="none" stroke="#9a32cd" stroke-dasharray="5,2" d="M236.969,-413.364C267.318,-410.8 319.937,-408.418 364,-417 382.606,-420.624 402.528,-428.862 416.853,-435.635"/>
<polygon fill="#9a32cd" stroke="#9a32cd" points="236.489,-409.893 226.853,-414.297 237.132,-416.864 236.489,-409.893"/>
<text text-anchor="middle" x="324" y="-421" font-family="Helvetica,sans-Serif" font-size="10.00">radius</text>
</g>
<!-- Node21 -->
<g id="node40" class="node"><title>Node21</title>
<polygon fill="none" stroke="#bfbfbf" points="168.5,-346.5 168.5,-367.5 255.5,-367.5 255.5,-346.5 168.5,-346.5"/>
<text text-anchor="middle" x="212" y="-354.5" font-family="Helvetica,sans-Serif" font-size="10.00">QList&lt; Edge * &gt;</text>
</g>
<!-- Node21&#45;&gt;Node16 -->
<g id="edge40" class="edge"><title>Node21&#45;&gt;Node16</title>
<path fill="none" stroke="#9a32cd" stroke-dasharray="5,2" d="M265.983,-364.437C295.826,-369.849 333.023,-378.783 364,-393 387.913,-403.975 411.879,-423.37 425.53,-435.408"/>
<polygon fill="#9a32cd" stroke="#9a32cd" points="266.206,-360.923 255.756,-362.666 265.012,-367.821 266.206,-360.923"/>
<text text-anchor="middle" x="324" y="-397" font-family="Helvetica,sans-Serif" font-size="10.00">edges</text>
</g>
<!-- Node30 -->
<g id="node60" class="node"><title>Node30</title>
<a xlink:href="classKnotGraph.html" target="_top" xlink:title="KnotGraph">
<polygon fill="none" stroke="black" points="405.5,-287.5 405.5,-308.5 468.5,-308.5 468.5,-287.5 405.5,-287.5"/>
<text text-anchor="middle" x="437" y="-295.5" font-family="Helvetica,sans-Serif" font-size="10.00">KnotGraph</text>
</a>
</g>
<!-- Node21&#45;&gt;Node30 -->
<g id="edge72" class="edge"><title>Node21&#45;&gt;Node30</title>
<path fill="none" stroke="#9a32cd" stroke-dasharray="5,2" d="M249.835,-342.943C260.777,-339.129 272.792,-335.18 284,-332 325.491,-320.229 374.255,-310 405.381,-303.917"/>
<polygon fill="#9a32cd" stroke="#9a32cd" points="248.397,-339.74 240.143,-346.382 250.737,-346.337 248.397,-339.74"/>
<text text-anchor="middle" x="324" y="-349" font-family="Helvetica,sans-Serif" font-size="10.00">traversed_edges</text>
<text text-anchor="middle" x="324" y="-336" font-family="Helvetica,sans-Serif" font-size="10.00">edges</text>
</g>
<!-- Node22 -->
<g id="node42" class="node"><title>Node22</title>
<polygon fill="none" stroke="#bfbfbf" points="400.5,-198.5 400.5,-219.5 473.5,-219.5 473.5,-198.5 400.5,-198.5"/>
<text text-anchor="middle" x="437" y="-206.5" font-family="Helvetica,sans-Serif" font-size="10.00">QUndoStack</text>
</g>
<!-- Node22&#45;&gt;Node14 -->
<g id="edge42" class="edge"><title>Node22&#45;&gt;Node14</title>
<path fill="none" stroke="#9a32cd" stroke-dasharray="5,2" d="M483.756,-202.489C513.373,-201.209 550.093,-205.38 572,-229 590.938,-249.419 581.889,-452.358 590,-479 599.592,-510.507 621.615,-542.952 633.695,-559.258"/>
<polygon fill="#9a32cd" stroke="#9a32cd" points="483.365,-199.007 473.613,-203.147 483.818,-205.993 483.365,-199.007"/>
<text text-anchor="middle" x="541" y="-233" font-family="Helvetica,sans-Serif" font-size="10.00">undo_stack</text>
</g>
<!-- Node23 -->
<g id="node44" class="node"><title>Node23</title>
<polygon fill="none" stroke="#bfbfbf" points="386,-158.5 386,-179.5 488,-179.5 488,-158.5 386,-158.5"/>
<text text-anchor="middle" x="437" y="-166.5" font-family="Helvetica,sans-Serif" font-size="10.00">mouse_status_type</text>
</g>
<!-- Node23&#45;&gt;Node14 -->
<g id="edge44" class="edge"><title>Node23&#45;&gt;Node14</title>
<path fill="none" stroke="#9a32cd" stroke-dasharray="5,2" d="M498.348,-161.262C524.684,-161.516 553.576,-167.219 572,-187 594.155,-210.786 580.694,-447.855 590,-479 599.429,-510.556 621.519,-542.98 633.653,-559.27"/>
<polygon fill="#9a32cd" stroke="#9a32cd" points="497.968,-157.768 488.026,-161.429 498.081,-164.767 497.968,-157.768"/>
<text text-anchor="middle" x="541" y="-191" font-family="Helvetica,sans-Serif" font-size="10.00">mouse_status</text>
</g>
<!-- Node24 -->
<g id="node46" class="node"><title>Node24</title>
<polygon fill="none" stroke="#bfbfbf" points="185.5,-643.5 185.5,-664.5 238.5,-664.5 238.5,-643.5 185.5,-643.5"/>
<text text-anchor="middle" x="212" y="-651.5" font-family="Helvetica,sans-Serif" font-size="10.00">QPointF</text>
</g>
<!-- Node24&#45;&gt;Node14 -->
<g id="edge46" class="edge"><title>Node24&#45;&gt;Node14</title>
<path fill="none" stroke="#9a32cd" stroke-dasharray="5,2" d="M249.041,-661.108C281.078,-665.425 327.809,-667.226 364,-650 375.1,-644.717 371.44,-635.292 382,-629 456.213,-584.781 487.929,-607.872 572,-588 585.311,-584.854 599.977,-581.124 612.431,-577.877"/>
<polygon fill="#9a32cd" stroke="#9a32cd" points="249.184,-657.59 238.776,-659.571 248.148,-664.513 249.184,-657.59"/>
<text text-anchor="middle" x="437" y="-633" font-family="Helvetica,sans-Serif" font-size="10.00">oldpos</text>
</g>
<!-- Node24&#45;&gt;Node25 -->
<g id="edge52" class="edge"><title>Node24&#45;&gt;Node25</title>
<path fill="none" stroke="#9a32cd" stroke-dasharray="5,2" d="M248.487,-645.342C290.115,-635.317 353.779,-619.478 364,-614 373.434,-608.944 373.027,-603.836 382,-598 390.529,-592.453 400.491,-587.52 409.575,-583.533"/>
<polygon fill="#9a32cd" stroke="#9a32cd" points="247.589,-641.958 238.682,-647.695 249.222,-648.765 247.589,-641.958"/>
<text text-anchor="middle" x="324" y="-640" font-family="Helvetica,sans-Serif" font-size="10.00">origin</text>
</g>
<!-- Node25&#45;&gt;Node14 -->
<g id="edge48" class="edge"><title>Node25&#45;&gt;Node14</title>
<path fill="none" stroke="#9a32cd" stroke-dasharray="5,2" d="M485.725,-572.287C525.056,-571.711 579.124,-570.92 612.256,-570.435"/>
<polygon fill="#9a32cd" stroke="#9a32cd" points="485.507,-568.79 475.559,-572.436 485.609,-575.789 485.507,-568.79"/>
<text text-anchor="middle" x="541" y="-575" font-family="Helvetica,sans-Serif" font-size="10.00">grid</text>
</g>
<!-- Node26 -->
<g id="node50" class="node"><title>Node26</title>
<polygon fill="none" stroke="#bfbfbf" points="189.5,-455.5 189.5,-476.5 234.5,-476.5 234.5,-455.5 189.5,-455.5"/>
<text text-anchor="middle" x="212" y="-463.5" font-family="Helvetica,sans-Serif" font-size="10.00">double</text>
</g>
<!-- Node26&#45;&gt;Node25 -->
<g id="edge50" class="edge"><title>Node26&#45;&gt;Node25</title>
<path fill="none" stroke="#9a32cd" stroke-dasharray="5,2" d="M243.633,-481.043C289.799,-502.998 374.497,-543.276 414.694,-562.392"/>
<polygon fill="#9a32cd" stroke="#9a32cd" points="244.93,-477.785 234.396,-476.651 241.924,-484.106 244.93,-477.785"/>
<text text-anchor="middle" x="324" y="-539" font-family="Helvetica,sans-Serif" font-size="10.00">size</text>
</g>
<!-- Node26&#45;&gt;Node30 -->
<g id="edge66" class="edge"><title>Node26&#45;&gt;Node30</title>
<path fill="none" stroke="#9a32cd" stroke-dasharray="5,2" d="M245.083,-461.357C283.965,-455.36 345.536,-444.01 364,-430 406.141,-398.024 427.23,-334.324 434.251,-308.874"/>
<polygon fill="#9a32cd" stroke="#9a32cd" points="244.142,-457.959 234.772,-462.904 245.181,-464.881 244.142,-457.959"/>
<text text-anchor="middle" x="324" y="-484" font-family="Helvetica,sans-Serif" font-size="10.00">cusp_angle</text>
<text text-anchor="middle" x="324" y="-471" font-family="Helvetica,sans-Serif" font-size="10.00">crossing_distance</text>
<text text-anchor="middle" x="324" y="-458" font-family="Helvetica,sans-Serif" font-size="10.00">handle_length</text>
</g>
<!-- Node27 -->
<g id="node54" class="node"><title>Node27</title>
<polygon fill="none" stroke="#bfbfbf" points="180,-545.5 180,-566.5 244,-566.5 244,-545.5 180,-545.5"/>
<text text-anchor="middle" x="212" y="-553.5" font-family="Helvetica,sans-Serif" font-size="10.00">grid_shape</text>
</g>
<!-- Node27&#45;&gt;Node25 -->
<g id="edge56" class="edge"><title>Node27&#45;&gt;Node25</title>
<path fill="none" stroke="#9a32cd" stroke-dasharray="5,2" d="M254.287,-559.195C295.714,-562.325 358.304,-567.054 398.411,-570.084"/>
<polygon fill="#9a32cd" stroke="#9a32cd" points="254.472,-555.699 244.237,-558.436 253.945,-562.679 254.472,-555.699"/>
<text text-anchor="middle" x="324" y="-571" font-family="Helvetica,sans-Serif" font-size="10.00">shape</text>
</g>
<!-- Node28 -->
<g id="node56" class="node"><title>Node28</title>
<polygon fill="none" stroke="#bfbfbf" points="382,-771.5 382,-792.5 492,-792.5 492,-771.5 382,-771.5"/>
<text text-anchor="middle" x="437" y="-779.5" font-family="Helvetica,sans-Serif" font-size="10.00">QGraphicsRectItem *</text>
</g>
<!-- Node28&#45;&gt;Node14 -->
<g id="edge58" class="edge"><title>Node28&#45;&gt;Node14</title>
<path fill="none" stroke="#9a32cd" stroke-dasharray="5,2" d="M501.981,-778.076C526.357,-773.643 552.78,-764.906 572,-748 624.361,-701.944 637.921,-611.67 641.104,-580.715"/>
<polygon fill="#9a32cd" stroke="#9a32cd" points="501.364,-774.631 492.046,-779.674 502.475,-781.542 501.364,-774.631"/>
<text text-anchor="middle" x="541" y="-780" font-family="Helvetica,sans-Serif" font-size="10.00">rubberband</text>
</g>
<!-- Node29 -->
<g id="node58" class="node"><title>Node29</title>
<polygon fill="none" stroke="#bfbfbf" points="383.5,-731.5 383.5,-752.5 490.5,-752.5 490.5,-731.5 383.5,-731.5"/>
<text text-anchor="middle" x="437" y="-739.5" font-family="Helvetica,sans-Serif" font-size="10.00">QGraphicsLineItem *</text>
</g>
<!-- Node29&#45;&gt;Node14 -->
<g id="edge60" class="edge"><title>Node29&#45;&gt;Node14</title>
<path fill="none" stroke="#9a32cd" stroke-dasharray="5,2" d="M500.534,-733.919C524.956,-728.227 551.795,-718.528 572,-702 612.557,-668.824 632.693,-605.818 639.384,-580.714"/>
<polygon fill="#9a32cd" stroke="#9a32cd" points="499.643,-730.53 490.6,-736.05 501.112,-737.374 499.643,-730.53"/>
<text text-anchor="middle" x="541" y="-735" font-family="Helvetica,sans-Serif" font-size="10.00">guide</text>
</g>
<!-- Node30&#45;&gt;Node14 -->
<g id="edge62" class="edge"><title>Node30&#45;&gt;Node14</title>
<path fill="none" stroke="#9a32cd" stroke-dasharray="5,2" d="M451.487,-316.987C476.264,-349.488 528.337,-417.901 572,-476 594.615,-506.092 621.101,-541.781 634.052,-559.263"/>
<polygon fill="#9a32cd" stroke="#9a32cd" points="454.098,-314.64 445.251,-308.811 448.532,-318.885 454.098,-314.64"/>
<text text-anchor="middle" x="541" y="-480" font-family="Helvetica,sans-Serif" font-size="10.00">knot</text>
</g>
<!-- Node31 -->
<g id="node62" class="node"><title>Node31</title>
<a xlink:href="classQGraphicsPathItem.html" target="_top" xlink:title="QGraphicsPathItem">
<polygon fill="none" stroke="black" points="160.5,-293.5 160.5,-314.5 263.5,-314.5 263.5,-293.5 160.5,-293.5"/>
<text text-anchor="middle" x="212" y="-301.5" font-family="Helvetica,sans-Serif" font-size="10.00">QGraphicsPathItem</text>
</a>
</g>
<!-- Node31&#45;&gt;Node30 -->
<g id="edge64" class="edge"><title>Node31&#45;&gt;Node30</title>
<path fill="none" stroke="midnightblue" d="M273.628,-302.357C316.304,-301.219 371.352,-299.751 405.405,-298.843"/>
<polygon fill="midnightblue" stroke="midnightblue" points="273.523,-298.858 263.62,-302.623 273.709,-305.856 273.523,-298.858"/>
</g>
<!-- Node32 -->
<g id="node65" class="node"><title>Node32</title>
<polygon fill="none" stroke="#bfbfbf" points="158.5,-253.5 158.5,-274.5 265.5,-274.5 265.5,-253.5 158.5,-253.5"/>
<text text-anchor="middle" x="212" y="-261.5" font-family="Helvetica,sans-Serif" font-size="10.00">QPainterPathStroker</text>
</g>
<!-- Node32&#45;&gt;Node30 -->
<g id="edge68" class="edge"><title>Node32&#45;&gt;Node30</title>
<path fill="none" stroke="#9a32cd" stroke-dasharray="5,2" d="M275.757,-271.544C302.996,-274.986 335.109,-279.333 364,-284 377.631,-286.202 392.621,-289.009 405.451,-291.531"/>
<polygon fill="#9a32cd" stroke="#9a32cd" points="275.931,-268.039 265.574,-270.271 275.062,-274.984 275.931,-268.039"/>
<text text-anchor="middle" x="324" y="-288" font-family="Helvetica,sans-Serif" font-size="10.00">stroker</text>
</g>
<!-- Node33 -->
<g id="node67" class="node"><title>Node33</title>
<polygon fill="none" stroke="#bfbfbf" points="174.5,-162.5 174.5,-183.5 249.5,-183.5 249.5,-162.5 174.5,-162.5"/>
<text text-anchor="middle" x="212" y="-170.5" font-family="Helvetica,sans-Serif" font-size="10.00">QPainterPath</text>
</g>
<!-- Node33&#45;&gt;Node30 -->
<g id="edge70" class="edge"><title>Node33&#45;&gt;Node30</title>
<path fill="none" stroke="#9a32cd" stroke-dasharray="5,2" d="M259.768,-173.782C293.081,-176.854 336.349,-186.277 364,-213 384.02,-232.348 363.688,-252.029 382,-273 388.209,-280.111 396.85,-285.311 405.446,-289.066"/>
<polygon fill="#9a32cd" stroke="#9a32cd" points="260.015,-170.291 249.778,-173.02 259.483,-177.27 260.015,-170.291"/>
<text text-anchor="middle" x="324" y="-217" font-family="Helvetica,sans-Serif" font-size="10.00">knot</text>
</g>
<!-- Node34 -->
<g id="node70" class="node"><title>Node34</title>
<polygon fill="none" stroke="#bfbfbf" points="194.5,-68.5 194.5,-89.5 229.5,-89.5 229.5,-68.5 194.5,-68.5"/>
<text text-anchor="middle" x="212" y="-76.5" font-family="Helvetica,sans-Serif" font-size="10.00">long</text>
</g>
<!-- Node34&#45;&gt;Node1 -->
<g id="edge82" class="edge"><title>Node34&#45;&gt;Node1</title>
<path fill="none" stroke="#9a32cd" stroke-dasharray="5,2" d="M239.515,-73.1412C281.772,-64.6689 365.29,-50 437,-50 437,-50 437,-50 1045,-50 1112.34,-50 1190.83,-57.3492 1234.43,-62.086"/>
<polygon fill="#9a32cd" stroke="#9a32cd" points="238.789,-69.7171 229.692,-75.149 240.191,-76.5753 238.789,-69.7171"/>
<text text-anchor="middle" x="761" y="-54" font-family="Helvetica,sans-Serif" font-size="10.00">curstyle</text>
</g>
<!-- Node34&#45;&gt;Node30 -->
<g id="edge74" class="edge"><title>Node34&#45;&gt;Node30</title>
<path fill="none" stroke="#9a32cd" stroke-dasharray="5,2" d="M239.768,-85.8381C274.731,-95.9894 333.862,-118.58 364,-161 393.2,-202.1 351.418,-232.918 382,-273 387.853,-280.672 396.603,-286.058 405.411,-289.811"/>
<polygon fill="#9a32cd" stroke="#9a32cd" points="240.322,-82.3605 229.752,-83.0789 238.463,-89.1091 240.322,-82.3605"/>
<text text-anchor="middle" x="324" y="-165" font-family="Helvetica,sans-Serif" font-size="10.00">curve_style</text>
</g>
<!-- Node35 -->
<g id="node72" class="node"><title>Node35</title>
<polygon fill="none" stroke="#bfbfbf" points="168,-211.5 168,-232.5 256,-232.5 256,-211.5 168,-211.5"/>
<text text-anchor="middle" x="212" y="-219.5" font-family="Helvetica,sans-Serif" font-size="10.00">QList&lt; Node * &gt;</text>
</g>
<!-- Node35&#45;&gt;Node14 -->
<g id="edge78" class="edge"><title>Node35&#45;&gt;Node14</title>
<path fill="none" stroke="#9a32cd" stroke-dasharray="5,2" d="M266.566,-219.901C295.665,-219.669 331.975,-220.798 364,-226 393.351,-230.768 468.4,-246.911 492,-265 545.244,-305.812 546.963,-330.761 572,-393 586.574,-429.229 576.144,-442.491 590,-479 601.751,-509.962 623.076,-542.894 634.423,-559.346"/>
<polygon fill="#9a32cd" stroke="#9a32cd" points="266.144,-216.406 256.193,-220.043 266.24,-223.406 266.144,-216.406"/>
<text text-anchor="middle" x="437" y="-269" font-family="Helvetica,sans-Serif" font-size="10.00">moved_nodes</text>
</g>
<!-- Node35&#45;&gt;Node30 -->
<g id="edge76" class="edge"><title>Node35&#45;&gt;Node30</title>
<path fill="none" stroke="#9a32cd" stroke-dasharray="5,2" d="M266.018,-226.957C296.218,-231.434 333.75,-239.925 364,-256 373.717,-261.164 372.867,-266.862 382,-273 390.357,-278.617 400.181,-283.536 409.196,-287.492"/>
<polygon fill="#9a32cd" stroke="#9a32cd" points="266.463,-223.485 256.079,-225.588 265.507,-230.42 266.463,-223.485"/>
<text text-anchor="middle" x="324" y="-260" font-family="Helvetica,sans-Serif" font-size="10.00">nodes</text>
</g>
<!-- Node36 -->
<g id="node75" class="node"><title>Node36</title>
<polygon fill="none" stroke="#bfbfbf" points="404.5,-691.5 404.5,-712.5 469.5,-712.5 469.5,-691.5 404.5,-691.5"/>
<text text-anchor="middle" x="437" y="-699.5" font-family="Helvetica,sans-Serif" font-size="10.00">mode_type</text>
</g>
<!-- Node36&#45;&gt;Node14 -->
<g id="edge80" class="edge"><title>Node36&#45;&gt;Node14</title>
<path fill="none" stroke="#9a32cd" stroke-dasharray="5,2" d="M479.556,-694.352C507.656,-687.801 544.268,-676.279 572,-657 601.925,-636.196 625.649,-599.028 636.141,-580.751"/>
<polygon fill="#9a32cd" stroke="#9a32cd" points="478.631,-690.972 469.621,-696.546 480.14,-697.807 478.631,-690.972"/>
<text text-anchor="middle" x="541" y="-689" font-family="Helvetica,sans-Serif" font-size="10.00">mode</text>
</g>
<!-- Node37 -->
<g id="node78" class="node"><title>Node37</title>
<polygon fill="none" stroke="#bfbfbf" points="948,-0.5 948,-21.5 1142,-21.5 1142,-0.5 948,-0.5"/>
<text text-anchor="middle" x="1045" y="-8.5" font-family="Helvetica,sans-Serif" font-size="10.00">QMap&lt; knot_curve_styler::style_id, int &gt;</text>
</g>
<!-- Node37&#45;&gt;Node1 -->
<g id="edge84" class="edge"><title>Node37&#45;&gt;Node1</title>
<path fill="none" stroke="#9a32cd" stroke-dasharray="5,2" d="M1152.51,-8.38594C1174.09,-10.6542 1196.2,-15.0805 1216,-23 1233.4,-29.961 1249.36,-45.0176 1258.89,-55.3312"/>
<polygon fill="#9a32cd" stroke="#9a32cd" points="1152.58,-4.87839 1142.31,-7.46536 1151.95,-11.8501 1152.58,-4.87839"/>
<text text-anchor="middle" x="1188" y="-27" font-family="Helvetica,sans-Serif" font-size="10.00">combo_style</text>
</g>
</g>
</svg>
