<?xml version="1.0" encoding="UTF-8" standalone="no"?>
<!DOCTYPE svg PUBLIC "-//W3C//DTD SVG 1.1//EN"
 "http://www.w3.org/Graphics/SVG/1.1/DTD/svg11.dtd">
<!-- Generated by graphviz version 2.26.3 (20100126.1600)
 -->
<!-- Title: G Pages: 1 -->
<svg width="577pt" height="258pt"
 viewBox="0.00 0.00 577.00 258.00" xmlns="http://www.w3.org/2000/svg" xmlns:xlink="http://www.w3.org/1999/xlink">
<g id="graph1" class="graph" transform="scale(1 1) rotate(0) translate(4 254)">
<title>G</title>
<!-- Node1 -->
<g id="node1" class="node"><title>Node1</title>
<polygon fill="#bfbfbf" stroke="black" points="269.5,-0.5 269.5,-21.5 332.5,-21.5 332.5,-0.5 269.5,-0.5"/>
<text text-anchor="middle" x="301" y="-8.5" font-family="Helvetica,sans-Serif" font-size="10.00">GridConfig</text>
</g>
<!-- Node2 -->
<g id="node2" class="node"><title>Node2</title>
<a xlink:href="classQDialog.html" target="_top" xlink:title="QDialog">
<polygon fill="none" stroke="black" points="192,-72.5 192,-93.5 244,-93.5 244,-72.5 192,-72.5"/>
<text text-anchor="middle" x="218" y="-80.5" font-family="Helvetica,sans-Serif" font-size="10.00">QDialog</text>
</a>
</g>
<!-- Node2&#45;&gt;Node1 -->
<g id="edge2" class="edge"><title>Node2&#45;&gt;Node1</title>
<path fill="none" stroke="midnightblue" d="M237.911,-65.7275C253.719,-52.0146 275.319,-33.2774 288.703,-21.6674"/>
<polygon fill="midnightblue" stroke="midnightblue" points="235.507,-63.1795 230.247,-72.3762 240.094,-68.4672 235.507,-63.1795"/>
</g>
<!-- Node3 -->
<g id="node4" class="node"><title>Node3</title>
<a xlink:href="classUi_1_1GridConfig.html" target="_top" xlink:title="Ui::GridConfig">
<polygon fill="none" stroke="black" points="261.5,-72.5 261.5,-93.5 340.5,-93.5 340.5,-72.5 261.5,-72.5"/>
<text text-anchor="middle" x="301" y="-80.5" font-family="Helvetica,sans-Serif" font-size="10.00">Ui::GridConfig</text>
</a>
</g>
<!-- Node3&#45;&gt;Node1 -->
<g id="edge4" class="edge"><title>Node3&#45;&gt;Node1</title>
<path fill="none" stroke="#8b1a1a" d="M301,-62.2348C301,-48.969 301,-32.3188 301,-21.6674"/>
<polygon fill="#8b1a1a" stroke="#8b1a1a" points="297.5,-62.3761 301,-72.3762 304.5,-62.3762 297.5,-62.3761"/>
</g>
<!-- Node4 -->
<g id="node6" class="node"><title>Node4</title>
<a xlink:href="classUi__GridConfig.html" target="_top" xlink:title="Ui_GridConfig">
<polygon fill="none" stroke="black" points="225,-144.5 225,-165.5 303,-165.5 303,-144.5 225,-144.5"/>
<text text-anchor="middle" x="264" y="-152.5" font-family="Helvetica,sans-Serif" font-size="10.00">Ui_GridConfig</text>
</a>
</g>
<!-- Node4&#45;&gt;Node3 -->
<g id="edge6" class="edge"><title>Node4&#45;&gt;Node3</title>
<path fill="none" stroke="midnightblue" d="M274.062,-135.419C280.972,-121.973 289.88,-104.638 295.518,-93.6674"/>
<polygon fill="midnightblue" stroke="midnightblue" points="270.917,-133.882 269.459,-144.376 277.143,-137.082 270.917,-133.882"/>
</g>
<!-- Node5 -->
<g id="node8" class="node"><title>Node5</title>
<polygon fill="none" stroke="#bfbfbf" points="0,-228.5 0,-249.5 68,-249.5 68,-228.5 0,-228.5"/>
<text text-anchor="middle" x="34" y="-236.5" font-family="Helvetica,sans-Serif" font-size="10.00">QSpinBox *</text>
</g>
<!-- Node5&#45;&gt;Node4 -->
<g id="edge8" class="edge"><title>Node5&#45;&gt;Node4</title>
<path fill="none" stroke="#9a32cd" stroke-dasharray="5,2" d="M48.6582,-220.201C59.3219,-207.894 74.85,-192.56 92,-184 114.692,-172.674 181.323,-163.754 224.681,-158.94"/>
<polygon fill="#9a32cd" stroke="#9a32cd" points="45.7828,-218.185 42.0926,-228.116 51.1707,-222.654 45.7828,-218.185"/>
<text text-anchor="middle" x="113" y="-194.5" font-family="Helvetica,sans-Serif" font-size="10.00">size_spin</text>
</g>
<!-- Node6 -->
<g id="node10" class="node"><title>Node6</title>
<polygon fill="none" stroke="#bfbfbf" points="86,-228.5 86,-249.5 164,-249.5 164,-228.5 86,-228.5"/>
<text text-anchor="middle" x="125" y="-236.5" font-family="Helvetica,sans-Serif" font-size="10.00">QGridLayout *</text>
</g>
<!-- Node6&#45;&gt;Node4 -->
<g id="edge10" class="edge"><title>Node6&#45;&gt;Node4</title>
<path fill="none" stroke="#9a32cd" stroke-dasharray="5,2" d="M132.924,-218.906C138.542,-207.121 147.19,-192.854 159,-184 169.517,-176.116 199.568,-168.244 224.841,-162.695"/>
<polygon fill="#9a32cd" stroke="#9a32cd" points="129.562,-217.86 128.763,-228.425 135.976,-220.664 129.562,-217.86"/>
<text text-anchor="middle" x="187" y="-201" font-family="Helvetica,sans-Serif" font-size="10.00">gridLayout</text>
<text text-anchor="middle" x="187" y="-188" font-family="Helvetica,sans-Serif" font-size="10.00">gridLayout_2</text>
</g>
<!-- Node7 -->
<g id="node12" class="node"><title>Node7</title>
<polygon fill="none" stroke="#bfbfbf" points="182,-228.5 182,-249.5 262,-249.5 262,-228.5 182,-228.5"/>
<text text-anchor="middle" x="222" y="-236.5" font-family="Helvetica,sans-Serif" font-size="10.00">QComboBox *</text>
</g>
<!-- Node7&#45;&gt;Node4 -->
<g id="edge12" class="edge"><title>Node7&#45;&gt;Node4</title>
<path fill="none" stroke="#9a32cd" stroke-dasharray="5,2" d="M218.556,-217.948C217.807,-207.199 218.527,-194.262 224,-184 228.036,-176.431 235.023,-170.351 242.039,-165.75"/>
<polygon fill="#9a32cd" stroke="#9a32cd" points="215.111,-218.619 219.732,-228.153 222.064,-217.818 215.111,-218.619"/>
<text text-anchor="middle" x="254.5" y="-194.5" font-family="Helvetica,sans-Serif" font-size="10.00">shape_combo</text>
</g>
<!-- Node8 -->
<g id="node14" class="node"><title>Node8</title>
<polygon fill="none" stroke="#bfbfbf" points="280,-228.5 280,-249.5 334,-249.5 334,-228.5 280,-228.5"/>
<text text-anchor="middle" x="307" y="-236.5" font-family="Helvetica,sans-Serif" font-size="10.00">QLabel *</text>
</g>
<!-- Node8&#45;&gt;Node4 -->
<g id="edge14" class="edge"><title>Node8&#45;&gt;Node4</title>
<path fill="none" stroke="#9a32cd" stroke-dasharray="5,2" d="M300.157,-218.47C296.292,-207.889 291.03,-194.944 285,-184 281.46,-177.576 276.722,-170.912 272.642,-165.595"/>
<polygon fill="#9a32cd" stroke="#9a32cd" points="296.922,-219.822 303.532,-228.101 303.528,-217.507 296.922,-219.822"/>
<text text-anchor="middle" x="312.5" y="-201" font-family="Helvetica,sans-Serif" font-size="10.00">label_2</text>
<text text-anchor="middle" x="312.5" y="-188" font-family="Helvetica,sans-Serif" font-size="10.00">label</text>
</g>
<!-- Node9 -->
<g id="node16" class="node"><title>Node9</title>
<polygon fill="none" stroke="#bfbfbf" points="352,-228.5 352,-249.5 426,-249.5 426,-228.5 352,-228.5"/>
<text text-anchor="middle" x="389" y="-236.5" font-family="Helvetica,sans-Serif" font-size="10.00">QGroupBox *</text>
</g>
<!-- Node9&#45;&gt;Node4 -->
<g id="edge16" class="edge"><title>Node9&#45;&gt;Node4</title>
<path fill="none" stroke="#9a32cd" stroke-dasharray="5,2" d="M373.562,-221.014C362.812,-209.319 347.646,-194.37 332,-184 320.767,-176.555 307.309,-170.338 295.341,-165.595"/>
<polygon fill="#9a32cd" stroke="#9a32cd" points="370.977,-223.373 380.251,-228.496 376.195,-218.708 370.977,-223.373"/>
<text text-anchor="middle" x="391.5" y="-194.5" font-family="Helvetica,sans-Serif" font-size="10.00">enable_check</text>
</g>
<!-- Node10 -->
<g id="node18" class="node"><title>Node10</title>
<polygon fill="none" stroke="#bfbfbf" points="444,-228.5 444,-249.5 548,-249.5 548,-228.5 444,-228.5"/>
<text text-anchor="middle" x="496" y="-236.5" font-family="Helvetica,sans-Serif" font-size="10.00">QDialogButtonBox *</text>
</g>
<!-- Node10&#45;&gt;Node4 -->
<g id="edge18" class="edge"><title>Node10&#45;&gt;Node4</title>
<path fill="none" stroke="#9a32cd" stroke-dasharray="5,2" d="M478.345,-220.891C465.122,-208.463 445.944,-192.699 426,-184 378.983,-163.493 362.362,-175.735 312,-166 309.146,-165.448 306.203,-164.849 303.246,-164.225"/>
<polygon fill="#9a32cd" stroke="#9a32cd" points="476.153,-223.642 485.762,-228.106 481.034,-218.624 476.153,-223.642"/>
<text text-anchor="middle" x="486.5" y="-194.5" font-family="Helvetica,sans-Serif" font-size="10.00">buttonBox</text>
</g>
<!-- Node11 -->
<g id="node20" class="node"><title>Node11</title>
<a xlink:href="classsnapping__grid.html" target="_top" xlink:title="snapping_grid">
<polygon fill="none" stroke="black" points="370.5,-72.5 370.5,-93.5 447.5,-93.5 447.5,-72.5 370.5,-72.5"/>
<text text-anchor="middle" x="409" y="-80.5" font-family="Helvetica,sans-Serif" font-size="10.00">snapping_grid</text>
</a>
</g>
<!-- Node11&#45;&gt;Node1 -->
<g id="edge20" class="edge"><title>Node11&#45;&gt;Node1</title>
<path fill="none" stroke="#9a32cd" stroke-dasharray="5,2" d="M384.494,-66.663C363.817,-52.8778 334.816,-33.5437 317.001,-21.6674"/>
<polygon fill="#9a32cd" stroke="#9a32cd" points="382.802,-69.7413 393.064,-72.3762 386.685,-63.9169 382.802,-69.7413"/>
<text text-anchor="middle" x="376.5" y="-44.5" font-family="Helvetica,sans-Serif" font-size="10.00">target</text>
</g>
<!-- Node12 -->
<g id="node22" class="node"><title>Node12</title>
<polygon fill="none" stroke="#bfbfbf" points="320.5,-144.5 320.5,-165.5 365.5,-165.5 365.5,-144.5 320.5,-144.5"/>
<text text-anchor="middle" x="343" y="-152.5" font-family="Helvetica,sans-Serif" font-size="10.00">double</text>
</g>
<!-- Node12&#45;&gt;Node11 -->
<g id="edge22" class="edge"><title>Node12&#45;&gt;Node11</title>
<path fill="none" stroke="#9a32cd" stroke-dasharray="5,2" d="M359.53,-136.968C372.031,-123.329 388.774,-105.064 399.222,-93.6674"/>
<polygon fill="#9a32cd" stroke="#9a32cd" points="356.916,-134.64 352.739,-144.376 362.076,-139.37 356.916,-134.64"/>
<text text-anchor="middle" x="390.5" y="-116.5" font-family="Helvetica,sans-Serif" font-size="10.00">size</text>
</g>
<!-- Node13 -->
<g id="node24" class="node"><title>Node13</title>
<polygon fill="none" stroke="#bfbfbf" points="382.5,-144.5 382.5,-165.5 435.5,-165.5 435.5,-144.5 382.5,-144.5"/>
<text text-anchor="middle" x="409" y="-152.5" font-family="Helvetica,sans-Serif" font-size="10.00">QPointF</text>
</g>
<!-- Node13&#45;&gt;Node11 -->
<g id="edge24" class="edge"><title>Node13&#45;&gt;Node11</title>
<path fill="none" stroke="#9a32cd" stroke-dasharray="5,2" d="M409,-134.235C409,-120.969 409,-104.319 409,-93.6674"/>
<polygon fill="#9a32cd" stroke="#9a32cd" points="405.5,-134.376 409,-144.376 412.5,-134.376 405.5,-134.376"/>
<text text-anchor="middle" x="421" y="-116.5" font-family="Helvetica,sans-Serif" font-size="10.00">origin</text>
</g>
<!-- Node14 -->
<g id="node26" class="node"><title>Node14</title>
<polygon fill="none" stroke="#bfbfbf" points="452.5,-144.5 452.5,-165.5 487.5,-165.5 487.5,-144.5 452.5,-144.5"/>
<text text-anchor="middle" x="470" y="-152.5" font-family="Helvetica,sans-Serif" font-size="10.00">bool</text>
</g>
<!-- Node14&#45;&gt;Node11 -->
<g id="edge26" class="edge"><title>Node14&#45;&gt;Node11</title>
<path fill="none" stroke="#9a32cd" stroke-dasharray="5,2" d="M456.286,-136.182C450.52,-128.525 443.622,-119.686 437,-112 431.609,-105.744 425.239,-99.0936 419.938,-93.7418"/>
<polygon fill="#9a32cd" stroke="#9a32cd" points="453.681,-138.544 462.451,-144.488 459.302,-134.373 453.681,-138.544"/>
<text text-anchor="middle" x="465" y="-116.5" font-family="Helvetica,sans-Serif" font-size="10.00">enabled</text>
</g>
<!-- Node15 -->
<g id="node28" class="node"><title>Node15</title>
<polygon fill="none" stroke="#bfbfbf" points="505,-144.5 505,-165.5 569,-165.5 569,-144.5 505,-144.5"/>
<text text-anchor="middle" x="537" y="-152.5" font-family="Helvetica,sans-Serif" font-size="10.00">grid_shape</text>
</g>
<!-- Node15&#45;&gt;Node11 -->
<g id="edge28" class="edge"><title>Node15&#45;&gt;Node11</title>
<path fill="none" stroke="#9a32cd" stroke-dasharray="5,2" d="M519.055,-137.249C509.766,-128.771 497.9,-118.978 486,-112 473.185,-104.485 458.074,-98.2902 444.647,-93.5827"/>
<polygon fill="#9a32cd" stroke="#9a32cd" points="516.812,-139.945 526.49,-144.257 521.614,-134.851 516.812,-139.945"/>
<text text-anchor="middle" x="518.5" y="-116.5" font-family="Helvetica,sans-Serif" font-size="10.00">shape</text>
</g>
</g>
</svg>
