<?xml version="1.0" encoding="UTF-8" standalone="no"?>
<!DOCTYPE svg PUBLIC "-//W3C//DTD SVG 1.1//EN"
 "http://www.w3.org/Graphics/SVG/1.1/DTD/svg11.dtd">
<!-- Generated by graphviz version 2.26.3 (20100126.1600)
 -->
<!-- Title: G Pages: 1 -->
<svg width="86pt" height="146pt"
 viewBox="0.00 0.00 86.00 146.00" xmlns="http://www.w3.org/2000/svg" xmlns:xlink="http://www.w3.org/1999/xlink">
<g id="graph1" class="graph" transform="scale(1 1) rotate(0) translate(4 142)">
<title>G</title>
<!-- Node1 -->
<g id="node1" class="node"><title>Node1</title>
<polygon fill="#bfbfbf" stroke="black" points="0,-116.5 0,-137.5 78,-137.5 78,-116.5 0,-116.5"/>
<text text-anchor="middle" x="39" y="-124.5" font-family="Helvetica,sans-Serif" font-size="10.00">Ui_GridConfig</text>
</g>
<!-- Node2 -->
<g id="node3" class="node"><title>Node2</title>
<a xlink:href="classUi_1_1GridConfig.html" target="_top" xlink:title="Ui::GridConfig">
<polygon fill="none" stroke="black" points="-0.5,-58.5 -0.5,-79.5 78.5,-79.5 78.5,-58.5 -0.5,-58.5"/>
<text text-anchor="middle" x="39" y="-66.5" font-family="Helvetica,sans-Serif" font-size="10.00">Ui::GridConfig</text>
</a>
</g>
<!-- Node1&#45;&gt;Node2 -->
<g id="edge2" class="edge"><title>Node1&#45;&gt;Node2</title>
<path fill="none" stroke="midnightblue" d="M39,-106.191C39,-97.1684 39,-86.9941 39,-79.5707"/>
<polygon fill="midnightblue" stroke="midnightblue" points="35.5001,-106.362 39,-116.362 42.5001,-106.362 35.5001,-106.362"/>
</g>
<!-- Node3 -->
<g id="node5" class="node"><title>Node3</title>
<a xlink:href="classGridConfig.html" target="_top" xlink:title="GridConfig">
<polygon fill="none" stroke="black" points="7.5,-0.5 7.5,-21.5 70.5,-21.5 70.5,-0.5 7.5,-0.5"/>
<text text-anchor="middle" x="39" y="-8.5" font-family="Helvetica,sans-Serif" font-size="10.00">GridConfig</text>
</a>
</g>
<!-- Node2&#45;&gt;Node3 -->
<g id="edge4" class="edge"><title>Node2&#45;&gt;Node3</title>
<path fill="none" stroke="#8b1a1a" d="M39,-48.1906C39,-39.1684 39,-28.9941 39,-21.5707"/>
<polygon fill="#8b1a1a" stroke="#8b1a1a" points="35.5001,-48.3619 39,-58.3619 42.5001,-48.3619 35.5001,-48.3619"/>
</g>
</g>
</svg>
