<?xml version="1.0" encoding="UTF-8" standalone="no"?>
<!DOCTYPE svg PUBLIC "-//W3C//DTD SVG 1.1//EN"
 "http://www.w3.org/Graphics/SVG/1.1/DTD/svg11.dtd">
<!-- Generated by graphviz version 2.26.3 (20100126.1600)
 -->
<!-- Title: G Pages: 1 -->
<svg width="90pt" height="146pt"
 viewBox="0.00 0.00 90.00 146.00" xmlns="http://www.w3.org/2000/svg" xmlns:xlink="http://www.w3.org/1999/xlink">
<g id="graph1" class="graph" transform="scale(1 1) rotate(0) translate(4 142)">
<title>G</title>
<!-- Node1 -->
<g id="node1" class="node"><title>Node1</title>
<polygon fill="#bfbfbf" stroke="black" points="21,-0.5 21,-21.5 61,-21.5 61,-0.5 21,-0.5"/>
<text text-anchor="middle" x="41" y="-8.5" font-family="Helvetica,sans-Serif" font-size="10.00">Node</text>
</g>
<!-- Node2 -->
<g id="node2" class="node"><title>Node2</title>
<a xlink:href="classCustomItem.html" target="_top" xlink:title="CustomItem">
<polygon fill="none" stroke="black" points="5.5,-58.5 5.5,-79.5 76.5,-79.5 76.5,-58.5 5.5,-58.5"/>
<text text-anchor="middle" x="41" y="-66.5" font-family="Helvetica,sans-Serif" font-size="10.00">CustomItem</text>
</a>
</g>
<!-- Node2&#45;&gt;Node1 -->
<g id="edge2" class="edge"><title>Node2&#45;&gt;Node1</title>
<path fill="none" stroke="midnightblue" d="M41,-48.1906C41,-39.1684 41,-28.9941 41,-21.5707"/>
<polygon fill="midnightblue" stroke="midnightblue" points="37.5001,-48.3619 41,-58.3619 44.5001,-48.3619 37.5001,-48.3619"/>
</g>
<!-- Node3 -->
<g id="node4" class="node"><title>Node3</title>
<a xlink:href="classQGraphicsItem.html" target="_top" xlink:title="QGraphicsItem">
<polygon fill="none" stroke="black" points="-0.5,-116.5 -0.5,-137.5 82.5,-137.5 82.5,-116.5 -0.5,-116.5"/>
<text text-anchor="middle" x="41" y="-124.5" font-family="Helvetica,sans-Serif" font-size="10.00">QGraphicsItem</text>
</a>
</g>
<!-- Node3&#45;&gt;Node2 -->
<g id="edge4" class="edge"><title>Node3&#45;&gt;Node2</title>
<path fill="none" stroke="midnightblue" d="M41,-106.191C41,-97.1684 41,-86.9941 41,-79.5707"/>
<polygon fill="midnightblue" stroke="midnightblue" points="37.5001,-106.362 41,-116.362 44.5001,-106.362 37.5001,-106.362"/>
</g>
</g>
</svg>
