<?xml version="1.0" encoding="UTF-8" standalone="no"?>
<!DOCTYPE svg PUBLIC "-//W3C//DTD SVG 1.1//EN"
 "http://www.w3.org/Graphics/SVG/1.1/DTD/svg11.dtd">
<!-- Generated by graphviz version 2.26.3 (20100126.1600)
 -->
<!-- Title: G Pages: 1 -->
<svg width="156pt" height="146pt"
 viewBox="0.00 0.00 156.00 146.00" xmlns="http://www.w3.org/2000/svg" xmlns:xlink="http://www.w3.org/1999/xlink">
<g id="graph1" class="graph" transform="scale(1 1) rotate(0) translate(4 142)">
<title>G</title>
<!-- Node1 -->
<g id="node1" class="node"><title>Node1</title>
<polygon fill="#bfbfbf" stroke="black" points="35.5,-0.5 35.5,-21.5 98.5,-21.5 98.5,-0.5 35.5,-0.5"/>
<text text-anchor="middle" x="67" y="-8.5" font-family="Helvetica,sans-Serif" font-size="10.00">GridConfig</text>
</g>
<!-- Node2 -->
<g id="node2" class="node"><title>Node2</title>
<a xlink:href="classQDialog.html" target="_top" xlink:title="QDialog">
<polygon fill="none" stroke="black" points="0,-58.5 0,-79.5 52,-79.5 52,-58.5 0,-58.5"/>
<text text-anchor="middle" x="26" y="-66.5" font-family="Helvetica,sans-Serif" font-size="10.00">QDialog</text>
</a>
</g>
<!-- Node2&#45;&gt;Node1 -->
<g id="edge2" class="edge"><title>Node2&#45;&gt;Node1</title>
<path fill="none" stroke="midnightblue" d="M39.46,-49.9591C46.131,-40.522 53.9341,-29.4835 59.5276,-21.5707"/>
<polygon fill="midnightblue" stroke="midnightblue" points="36.4344,-48.1758 33.52,-58.3619 42.1505,-52.2165 36.4344,-48.1758"/>
</g>
<!-- Node3 -->
<g id="node4" class="node"><title>Node3</title>
<a xlink:href="classUi_1_1GridConfig.html" target="_top" xlink:title="Ui::GridConfig">
<polygon fill="none" stroke="black" points="69.5,-58.5 69.5,-79.5 148.5,-79.5 148.5,-58.5 69.5,-58.5"/>
<text text-anchor="middle" x="109" y="-66.5" font-family="Helvetica,sans-Serif" font-size="10.00">Ui::GridConfig</text>
</a>
</g>
<!-- Node3&#45;&gt;Node1 -->
<g id="edge4" class="edge"><title>Node3&#45;&gt;Node1</title>
<path fill="none" stroke="#8b1a1a" d="M95.4227,-50.2504C88.5431,-40.75 80.4437,-29.5651 74.6546,-21.5707"/>
<polygon fill="#8b1a1a" stroke="#8b1a1a" points="92.5966,-52.3153 101.297,-58.3619 98.2662,-48.2097 92.5966,-52.3153"/>
</g>
<!-- Node4 -->
<g id="node6" class="node"><title>Node4</title>
<a xlink:href="classUi__GridConfig.html" target="_top" xlink:title="Ui_GridConfig">
<polygon fill="none" stroke="black" points="70,-116.5 70,-137.5 148,-137.5 148,-116.5 70,-116.5"/>
<text text-anchor="middle" x="109" y="-124.5" font-family="Helvetica,sans-Serif" font-size="10.00">Ui_GridConfig</text>
</a>
</g>
<!-- Node4&#45;&gt;Node3 -->
<g id="edge6" class="edge"><title>Node4&#45;&gt;Node3</title>
<path fill="none" stroke="midnightblue" d="M109,-106.191C109,-97.1684 109,-86.9941 109,-79.5707"/>
<polygon fill="midnightblue" stroke="midnightblue" points="105.5,-106.362 109,-116.362 112.5,-106.362 105.5,-106.362"/>
</g>
</g>
</svg>
