<?xml version="1.0" encoding="UTF-8" standalone="no"?>
<!DOCTYPE svg PUBLIC "-//W3C//DTD SVG 1.1//EN"
 "http://www.w3.org/Graphics/SVG/1.1/DTD/svg11.dtd">
<!-- Generated by graphviz version 2.26.3 (20100126.1600)
 -->
<!-- Title: G Pages: 1 -->
<svg width="806pt" height="639pt"
 viewBox="0.00 0.00 806.00 639.06" xmlns="http://www.w3.org/2000/svg" xmlns:xlink="http://www.w3.org/1999/xlink">
<g id="graph1" class="graph" transform="scale(1 1) rotate(0) translate(4 635.063)">
<title>G</title>
<!-- Node1 -->
<g id="node1" class="node"><title>Node1</title>
<polygon fill="#bfbfbf" stroke="black" points="742,-540.563 742,-561.563 798,-561.563 798,-540.563 742,-540.563"/>
<text text-anchor="middle" x="770" y="-548.563" font-family="Helvetica,sans-Serif" font-size="10.00">AddEdge</text>
</g>
<!-- Node2 -->
<g id="node2" class="node"><title>Node2</title>
<a xlink:href="classLastNodeCommand.html" target="_top" xlink:title="LastNodeCommand">
<polygon fill="none" stroke="black" points="590,-595.563 590,-616.563 694,-616.563 694,-595.563 590,-595.563"/>
<text text-anchor="middle" x="642" y="-603.563" font-family="Helvetica,sans-Serif" font-size="10.00">LastNodeCommand</text>
</a>
</g>
<!-- Node2&#45;&gt;Node1 -->
<g id="edge2" class="edge"><title>Node2&#45;&gt;Node1</title>
<path fill="none" stroke="midnightblue" d="M675.934,-591.482C697.78,-582.096 725.673,-570.11 745.396,-561.635"/>
<polygon fill="midnightblue" stroke="midnightblue" points="674.486,-588.295 666.68,-595.459 677.249,-594.727 674.486,-588.295"/>
</g>
<!-- Node3 -->
<g id="node4" class="node"><title>Node3</title>
<a xlink:href="classQUndoCommand.html" target="_top" xlink:title="QUndoCommand">
<polygon fill="none" stroke="black" points="391,-595.563 391,-616.563 483,-616.563 483,-595.563 391,-595.563"/>
<text text-anchor="middle" x="437" y="-603.563" font-family="Helvetica,sans-Serif" font-size="10.00">QUndoCommand</text>
</a>
</g>
<!-- Node3&#45;&gt;Node2 -->
<g id="edge4" class="edge"><title>Node3&#45;&gt;Node2</title>
<path fill="none" stroke="midnightblue" d="M493.342,-606.063C523.417,-606.063 560.194,-606.063 589.644,-606.063"/>
<polygon fill="midnightblue" stroke="midnightblue" points="493.006,-602.564 483.006,-606.063 493.006,-609.564 493.006,-602.564"/>
</g>
<!-- Node4 -->
<g id="node6" class="node"><title>Node4</title>
<a xlink:href="classNode.html" target="_top" xlink:title="Node">
<polygon fill="none" stroke="black" points="417,-548.563 417,-569.563 457,-569.563 457,-548.563 417,-548.563"/>
<text text-anchor="middle" x="437" y="-556.563" font-family="Helvetica,sans-Serif" font-size="10.00">Node</text>
</a>
</g>
<!-- Node4&#45;&gt;Node1 -->
<g id="edge6" class="edge"><title>Node4&#45;&gt;Node1</title>
<path fill="none" stroke="#9a32cd" stroke-dasharray="5,2" d="M467.312,-558.335C531.319,-556.797 679.476,-553.238 741.687,-551.744"/>
<polygon fill="#9a32cd" stroke="#9a32cd" points="466.994,-554.842 457.081,-558.581 467.162,-561.84 466.994,-554.842"/>
<text text-anchor="middle" x="642" y="-572.063" font-family="Helvetica,sans-Serif" font-size="10.00">n1</text>
<text text-anchor="middle" x="642" y="-559.063" font-family="Helvetica,sans-Serif" font-size="10.00">n2</text>
</g>
<!-- Node10 -->
<g id="node18" class="node"><title>Node10</title>
<a xlink:href="classKnotView.html" target="_top" xlink:title="KnotView">
<polygon fill="none" stroke="black" points="612.5,-285.563 612.5,-306.563 671.5,-306.563 671.5,-285.563 612.5,-285.563"/>
<text text-anchor="middle" x="642" y="-293.563" font-family="Helvetica,sans-Serif" font-size="10.00">KnotView</text>
</a>
</g>
<!-- Node4&#45;&gt;Node10 -->
<g id="edge22" class="edge"><title>Node4&#45;&gt;Node10</title>
<path fill="none" stroke="#9a32cd" stroke-dasharray="5,2" d="M465.187,-543.46C495.115,-525.676 542.133,-494.094 572,-456.063 610.389,-407.18 632.183,-333.986 639.343,-306.763"/>
<polygon fill="#9a32cd" stroke="#9a32cd" points="463.366,-540.47 456.486,-548.527 466.889,-546.519 463.366,-540.47"/>
<text text-anchor="middle" x="541" y="-516.063" font-family="Helvetica,sans-Serif" font-size="10.00">last_node</text>
</g>
<!-- Node5 -->
<g id="node8" class="node"><title>Node5</title>
<a xlink:href="classCustomItem.html" target="_top" xlink:title="CustomItem">
<polygon fill="none" stroke="black" points="176.5,-563.563 176.5,-584.563 247.5,-584.563 247.5,-563.563 176.5,-563.563"/>
<text text-anchor="middle" x="212" y="-571.563" font-family="Helvetica,sans-Serif" font-size="10.00">CustomItem</text>
</a>
</g>
<!-- Node5&#45;&gt;Node4 -->
<g id="edge8" class="edge"><title>Node5&#45;&gt;Node4</title>
<path fill="none" stroke="midnightblue" d="M257.96,-575.94C288.17,-576.638 328.526,-576.552 364,-573.063 381.98,-571.295 402.126,-567.274 416.693,-563.993"/>
<polygon fill="midnightblue" stroke="midnightblue" points="257.812,-572.435 247.722,-575.665 257.624,-579.432 257.812,-572.435"/>
</g>
<!-- Node6 -->
<g id="node10" class="node"><title>Node6</title>
<a xlink:href="classQGraphicsItem.html" target="_top" xlink:title="QGraphicsItem">
<polygon fill="none" stroke="black" points="0.5,-563.563 0.5,-584.563 83.5,-584.563 83.5,-563.563 0.5,-563.563"/>
<text text-anchor="middle" x="42" y="-571.563" font-family="Helvetica,sans-Serif" font-size="10.00">QGraphicsItem</text>
</a>
</g>
<!-- Node6&#45;&gt;Node5 -->
<g id="edge10" class="edge"><title>Node6&#45;&gt;Node5</title>
<path fill="none" stroke="midnightblue" d="M93.9076,-574.063C120.585,-574.063 152.417,-574.063 176.307,-574.063"/>
<polygon fill="midnightblue" stroke="midnightblue" points="93.5867,-570.564 83.5867,-574.063 93.5866,-577.564 93.5867,-570.564"/>
</g>
<!-- Node7 -->
<g id="node12" class="node"><title>Node7</title>
<polygon fill="none" stroke="#bfbfbf" points="24.5,-263.563 24.5,-284.563 59.5,-284.563 59.5,-263.563 24.5,-263.563"/>
<text text-anchor="middle" x="42" y="-271.563" font-family="Helvetica,sans-Serif" font-size="10.00">bool</text>
</g>
<!-- Node7&#45;&gt;Node5 -->
<g id="edge12" class="edge"><title>Node7&#45;&gt;Node5</title>
<path fill="none" stroke="#9a32cd" stroke-dasharray="5,2" d="M46.1389,-294.511C56.8456,-342.936 89.5292,-466.305 158,-543.063 165.7,-551.695 176.397,-558.527 186.24,-563.555"/>
<polygon fill="#9a32cd" stroke="#9a32cd" points="49.5378,-293.667 44.0304,-284.616 42.6915,-295.126 49.5378,-293.667"/>
<text text-anchor="middle" x="121" y="-522.063" font-family="Helvetica,sans-Serif" font-size="10.00">highlight</text>
</g>
<!-- Node15 -->
<g id="node29" class="node"><title>Node15</title>
<a xlink:href="classsnapping__grid.html" target="_top" xlink:title="snapping_grid">
<polygon fill="none" stroke="black" points="398.5,-56.5634 398.5,-77.5634 475.5,-77.5634 475.5,-56.5634 398.5,-56.5634"/>
<text text-anchor="middle" x="437" y="-64.5634" font-family="Helvetica,sans-Serif" font-size="10.00">snapping_grid</text>
</a>
</g>
<!-- Node7&#45;&gt;Node15 -->
<g id="edge36" class="edge"><title>Node7&#45;&gt;Node15</title>
<path fill="none" stroke="#9a32cd" stroke-dasharray="5,2" d="M44.2119,-253.361C50.8242,-203.113 75.4273,-74.9547 158,-22.0634 243.315,32.5842 372.529,-30.2103 419.31,-56.5372"/>
<polygon fill="#9a32cd" stroke="#9a32cd" points="40.7288,-253.01 43.003,-263.358 47.6782,-253.851 40.7288,-253.01"/>
<text text-anchor="middle" x="212" y="-26.0634" font-family="Helvetica,sans-Serif" font-size="10.00">enabled</text>
</g>
<!-- Node8 -->
<g id="node14" class="node"><title>Node8</title>
<polygon fill="none" stroke="#bfbfbf" points="197.5,-609.563 197.5,-630.563 226.5,-630.563 226.5,-609.563 197.5,-609.563"/>
<text text-anchor="middle" x="212" y="-617.563" font-family="Helvetica,sans-Serif" font-size="10.00">int</text>
</g>
<!-- Node8&#45;&gt;Node4 -->
<g id="edge14" class="edge"><title>Node8&#45;&gt;Node4</title>
<path fill="none" stroke="#9a32cd" stroke-dasharray="5,2" d="M237.017,-616.146C267.413,-611.078 320.079,-601.305 364,-588.063 382.279,-582.552 402.398,-574.396 416.877,-568.136"/>
<polygon fill="#9a32cd" stroke="#9a32cd" points="236.19,-612.734 226.884,-617.798 237.316,-619.643 236.19,-612.734"/>
<text text-anchor="middle" x="324" y="-611.063" font-family="Helvetica,sans-Serif" font-size="10.00">radius</text>
</g>
<!-- Node9 -->
<g id="node16" class="node"><title>Node9</title>
<polygon fill="none" stroke="#bfbfbf" points="168.5,-512.563 168.5,-533.563 255.5,-533.563 255.5,-512.563 168.5,-512.563"/>
<text text-anchor="middle" x="212" y="-520.563" font-family="Helvetica,sans-Serif" font-size="10.00">QList&lt; Edge * &gt;</text>
</g>
<!-- Node9&#45;&gt;Node4 -->
<g id="edge16" class="edge"><title>Node9&#45;&gt;Node4</title>
<path fill="none" stroke="#9a32cd" stroke-dasharray="5,2" d="M265.902,-533.844C271.999,-534.974 278.128,-536.071 284,-537.063 331.364,-545.069 387.295,-552.635 416.656,-556.462"/>
<polygon fill="#9a32cd" stroke="#9a32cd" points="266.199,-530.338 255.724,-531.923 264.901,-537.217 266.199,-530.338"/>
<text text-anchor="middle" x="324" y="-553.063" font-family="Helvetica,sans-Serif" font-size="10.00">edges</text>
</g>
<!-- Node20 -->
<g id="node41" class="node"><title>Node20</title>
<a xlink:href="classKnotGraph.html" target="_top" xlink:title="KnotGraph">
<polygon fill="none" stroke="black" points="405.5,-394.563 405.5,-415.563 468.5,-415.563 468.5,-394.563 405.5,-394.563"/>
<text text-anchor="middle" x="437" y="-402.563" font-family="Helvetica,sans-Serif" font-size="10.00">KnotGraph</text>
</a>
</g>
<!-- Node9&#45;&gt;Node20 -->
<g id="edge54" class="edge"><title>Node9&#45;&gt;Node20</title>
<path fill="none" stroke="#9a32cd" stroke-dasharray="5,2" d="M265.433,-511.063C308.468,-501.297 362.126,-488.846 364,-487.063 384.79,-467.288 362.393,-446.013 382,-425.063 388.248,-418.387 396.901,-413.933 405.496,-410.964"/>
<polygon fill="#9a32cd" stroke="#9a32cd" points="264.579,-507.668 255.599,-513.29 266.125,-514.495 264.579,-507.668"/>
<text text-anchor="middle" x="324" y="-523.063" font-family="Helvetica,sans-Serif" font-size="10.00">traversed_edges</text>
<text text-anchor="middle" x="324" y="-510.063" font-family="Helvetica,sans-Serif" font-size="10.00">edges</text>
</g>
<!-- Node10&#45;&gt;Node1 -->
<g id="edge18" class="edge"><title>Node10&#45;&gt;Node1</title>
<path fill="none" stroke="#9a32cd" stroke-dasharray="5,2" d="M651.856,-315.698C677.395,-366.576 745.086,-501.429 764.64,-540.386"/>
<polygon fill="#9a32cd" stroke="#9a32cd" points="654.951,-314.063 647.337,-306.696 648.695,-317.203 654.951,-314.063"/>
<text text-anchor="middle" x="718" y="-457.063" font-family="Helvetica,sans-Serif" font-size="10.00">kv</text>
</g>
<!-- Node11 -->
<g id="node20" class="node"><title>Node11</title>
<a xlink:href="classQGraphicsView.html" target="_top" xlink:title="QGraphicsView">
<polygon fill="none" stroke="black" points="394.5,-225.563 394.5,-246.563 479.5,-246.563 479.5,-225.563 394.5,-225.563"/>
<text text-anchor="middle" x="437" y="-233.563" font-family="Helvetica,sans-Serif" font-size="10.00">QGraphicsView</text>
</a>
</g>
<!-- Node11&#45;&gt;Node10 -->
<g id="edge20" class="edge"><title>Node11&#45;&gt;Node10</title>
<path fill="none" stroke="midnightblue" d="M482.874,-249.49C522.497,-261.087 578.574,-277.5 612.491,-287.427"/>
<polygon fill="midnightblue" stroke="midnightblue" points="483.759,-246.102 473.178,-246.652 481.792,-252.82 483.759,-246.102"/>
</g>
<!-- Node12 -->
<g id="node23" class="node"><title>Node12</title>
<polygon fill="none" stroke="#bfbfbf" points="400.5,-185.563 400.5,-206.563 473.5,-206.563 473.5,-185.563 400.5,-185.563"/>
<text text-anchor="middle" x="437" y="-193.563" font-family="Helvetica,sans-Serif" font-size="10.00">QUndoStack</text>
</g>
<!-- Node12&#45;&gt;Node10 -->
<g id="edge24" class="edge"><title>Node12&#45;&gt;Node10</title>
<path fill="none" stroke="#9a32cd" stroke-dasharray="5,2" d="M483.535,-207.298C510.337,-214.8 544.127,-226.058 572,-241.063 594.862,-253.371 617.864,-273.212 630.977,-285.398"/>
<polygon fill="#9a32cd" stroke="#9a32cd" points="484.2,-203.852 473.632,-204.606 482.364,-210.607 484.2,-203.852"/>
<text text-anchor="middle" x="541" y="-245.063" font-family="Helvetica,sans-Serif" font-size="10.00">undo_stack</text>
</g>
<!-- Node13 -->
<g id="node25" class="node"><title>Node13</title>
<polygon fill="none" stroke="#bfbfbf" points="386,-145.563 386,-166.563 488,-166.563 488,-145.563 386,-145.563"/>
<text text-anchor="middle" x="437" y="-153.563" font-family="Helvetica,sans-Serif" font-size="10.00">mouse_status_type</text>
</g>
<!-- Node13&#45;&gt;Node10 -->
<g id="edge26" class="edge"><title>Node13&#45;&gt;Node10</title>
<path fill="none" stroke="#9a32cd" stroke-dasharray="5,2" d="M498.282,-166.275C522.859,-172.528 550.41,-182.451 572,-198.063 604.699,-221.709 627.88,-265.402 637.31,-285.475"/>
<polygon fill="#9a32cd" stroke="#9a32cd" points="498.856,-162.814 488.317,-163.895 497.23,-169.623 498.856,-162.814"/>
<text text-anchor="middle" x="541" y="-202.063" font-family="Helvetica,sans-Serif" font-size="10.00">mouse_status</text>
</g>
<!-- Node14 -->
<g id="node27" class="node"><title>Node14</title>
<polygon fill="none" stroke="#bfbfbf" points="185.5,-91.5634 185.5,-112.563 238.5,-112.563 238.5,-91.5634 185.5,-91.5634"/>
<text text-anchor="middle" x="212" y="-99.5634" font-family="Helvetica,sans-Serif" font-size="10.00">QPointF</text>
</g>
<!-- Node14&#45;&gt;Node10 -->
<g id="edge28" class="edge"><title>Node14&#45;&gt;Node10</title>
<path fill="none" stroke="#9a32cd" stroke-dasharray="5,2" d="M248.971,-102.889C314.315,-104.672 447.515,-109.844 492,-123.063 530.897,-134.622 543.388,-138.289 572,-167.063 607.933,-203.201 630.445,-261.609 638.575,-285.433"/>
<polygon fill="#9a32cd" stroke="#9a32cd" points="248.804,-99.384 238.716,-102.622 248.622,-106.382 248.804,-99.384"/>
<text text-anchor="middle" x="437" y="-127.063" font-family="Helvetica,sans-Serif" font-size="10.00">oldpos</text>
</g>
<!-- Node14&#45;&gt;Node15 -->
<g id="edge34" class="edge"><title>Node14&#45;&gt;Node15</title>
<path fill="none" stroke="#9a32cd" stroke-dasharray="5,2" d="M248.573,-93.887C259.896,-91.5059 272.434,-89.0214 284,-87.0634 322.695,-80.5133 367.208,-74.9102 398.208,-71.3154"/>
<polygon fill="#9a32cd" stroke="#9a32cd" points="247.625,-90.5105 238.58,-96.0264 249.091,-97.3554 247.625,-90.5105"/>
<text text-anchor="middle" x="324" y="-91.0634" font-family="Helvetica,sans-Serif" font-size="10.00">origin</text>
</g>
<!-- Node15&#45;&gt;Node10 -->
<g id="edge30" class="edge"><title>Node15&#45;&gt;Node10</title>
<path fill="none" stroke="#9a32cd" stroke-dasharray="5,2" d="M485.739,-62.454C513.929,-62.4326 548.384,-67.2785 572,-87.0634 603.973,-113.849 632.253,-246.573 639.944,-285.386"/>
<polygon fill="#9a32cd" stroke="#9a32cd" points="485.593,-58.9561 475.668,-62.6634 485.739,-65.9546 485.593,-58.9561"/>
<text text-anchor="middle" x="541" y="-91.0634" font-family="Helvetica,sans-Serif" font-size="10.00">grid</text>
</g>
<!-- Node16 -->
<g id="node31" class="node"><title>Node16</title>
<polygon fill="none" stroke="#bfbfbf" points="189.5,-189.563 189.5,-210.563 234.5,-210.563 234.5,-189.563 189.5,-189.563"/>
<text text-anchor="middle" x="212" y="-197.563" font-family="Helvetica,sans-Serif" font-size="10.00">double</text>
</g>
<!-- Node16&#45;&gt;Node15 -->
<g id="edge32" class="edge"><title>Node16&#45;&gt;Node15</title>
<path fill="none" stroke="#9a32cd" stroke-dasharray="5,2" d="M237.638,-184.14C267.953,-165.249 319.868,-132.704 364,-104.063 372.065,-98.8292 373.596,-96.7346 382,-92.0634 391.351,-86.8657 401.982,-81.8411 411.388,-77.6768"/>
<polygon fill="#9a32cd" stroke="#9a32cd" points="235.596,-181.288 228.956,-189.544 239.295,-187.231 235.596,-181.288"/>
<text text-anchor="middle" x="324" y="-159.063" font-family="Helvetica,sans-Serif" font-size="10.00">size</text>
</g>
<!-- Node16&#45;&gt;Node20 -->
<g id="edge48" class="edge"><title>Node16&#45;&gt;Node20</title>
<path fill="none" stroke="#9a32cd" stroke-dasharray="5,2" d="M244.538,-207.352C279.773,-217.028 334.837,-237.685 364,-277.063 391.658,-314.409 353.559,-343.311 382,-380.063 387.906,-387.695 396.67,-393.07 405.475,-396.825"/>
<polygon fill="#9a32cd" stroke="#9a32cd" points="245.286,-203.93 234.727,-204.8 243.524,-210.705 245.286,-203.93"/>
<text text-anchor="middle" x="324" y="-307.063" font-family="Helvetica,sans-Serif" font-size="10.00">cusp_angle</text>
<text text-anchor="middle" x="324" y="-294.063" font-family="Helvetica,sans-Serif" font-size="10.00">crossing_distance</text>
<text text-anchor="middle" x="324" y="-281.063" font-family="Helvetica,sans-Serif" font-size="10.00">handle_length</text>
</g>
<!-- Node17 -->
<g id="node35" class="node"><title>Node17</title>
<polygon fill="none" stroke="#bfbfbf" points="180,-44.5634 180,-65.5634 244,-65.5634 244,-44.5634 180,-44.5634"/>
<text text-anchor="middle" x="212" y="-52.5634" font-family="Helvetica,sans-Serif" font-size="10.00">grid_shape</text>
</g>
<!-- Node17&#45;&gt;Node15 -->
<g id="edge38" class="edge"><title>Node17&#45;&gt;Node15</title>
<path fill="none" stroke="#9a32cd" stroke-dasharray="5,2" d="M254.423,-50.9139C284.978,-48.6634 327.142,-47.0715 364,-51.0634 375.222,-52.2788 387.248,-54.516 398.235,-56.9402"/>
<polygon fill="#9a32cd" stroke="#9a32cd" points="253.82,-47.4506 244.127,-51.7293 254.373,-54.4288 253.82,-47.4506"/>
<text text-anchor="middle" x="324" y="-55.0634" font-family="Helvetica,sans-Serif" font-size="10.00">shape</text>
</g>
<!-- Node18 -->
<g id="node37" class="node"><title>Node18</title>
<polygon fill="none" stroke="#bfbfbf" points="382,-305.563 382,-326.563 492,-326.563 492,-305.563 382,-305.563"/>
<text text-anchor="middle" x="437" y="-313.563" font-family="Helvetica,sans-Serif" font-size="10.00">QGraphicsRectItem *</text>
</g>
<!-- Node18&#45;&gt;Node10 -->
<g id="edge40" class="edge"><title>Node18&#45;&gt;Node10</title>
<path fill="none" stroke="#9a32cd" stroke-dasharray="5,2" d="M502.408,-309.682C539.348,-306.078 583.716,-301.75 612.363,-298.955"/>
<polygon fill="#9a32cd" stroke="#9a32cd" points="501.819,-306.223 492.206,-310.677 502.499,-313.19 501.819,-306.223"/>
<text text-anchor="middle" x="541" y="-312.063" font-family="Helvetica,sans-Serif" font-size="10.00">rubberband</text>
</g>
<!-- Node19 -->
<g id="node39" class="node"><title>Node19</title>
<polygon fill="none" stroke="#bfbfbf" points="383.5,-265.563 383.5,-286.563 490.5,-286.563 490.5,-265.563 383.5,-265.563"/>
<text text-anchor="middle" x="437" y="-273.563" font-family="Helvetica,sans-Serif" font-size="10.00">QGraphicsLineItem *</text>
</g>
<!-- Node19&#45;&gt;Node10 -->
<g id="edge42" class="edge"><title>Node19&#45;&gt;Node10</title>
<path fill="none" stroke="#9a32cd" stroke-dasharray="5,2" d="M500.747,-279.892C523.288,-281.482 548.8,-283.55 572,-286.063 585.303,-287.505 599.968,-289.531 612.424,-291.384"/>
<polygon fill="#9a32cd" stroke="#9a32cd" points="500.836,-276.39 490.619,-279.195 500.355,-283.373 500.836,-276.39"/>
<text text-anchor="middle" x="541" y="-290.063" font-family="Helvetica,sans-Serif" font-size="10.00">guide</text>
</g>
<!-- Node20&#45;&gt;Node10 -->
<g id="edge44" class="edge"><title>Node20&#45;&gt;Node10</title>
<path fill="none" stroke="#9a32cd" stroke-dasharray="5,2" d="M478.795,-403.335C506.816,-400.573 543.637,-393.732 572,-377.063 601.965,-359.454 625.504,-324.35 636.016,-306.707"/>
<polygon fill="#9a32cd" stroke="#9a32cd" points="478.191,-399.873 468.523,-404.205 478.783,-406.848 478.191,-399.873"/>
<text text-anchor="middle" x="541" y="-402.063" font-family="Helvetica,sans-Serif" font-size="10.00">knot</text>
</g>
<!-- Node21 -->
<g id="node43" class="node"><title>Node21</title>
<a xlink:href="classQGraphicsPathItem.html" target="_top" xlink:title="QGraphicsPathItem">
<polygon fill="none" stroke="black" points="160.5,-387.563 160.5,-408.563 263.5,-408.563 263.5,-387.563 160.5,-387.563"/>
<text text-anchor="middle" x="212" y="-395.563" font-family="Helvetica,sans-Serif" font-size="10.00">QGraphicsPathItem</text>
</a>
</g>
<!-- Node21&#45;&gt;Node20 -->
<g id="edge46" class="edge"><title>Node21&#45;&gt;Node20</title>
<path fill="none" stroke="midnightblue" d="M273.628,-399.981C316.304,-401.308 371.352,-403.021 405.405,-404.08"/>
<polygon fill="midnightblue" stroke="midnightblue" points="273.724,-396.482 263.62,-399.669 273.506,-403.479 273.724,-396.482"/>
</g>
<!-- Node22 -->
<g id="node46" class="node"><title>Node22</title>
<polygon fill="none" stroke="#bfbfbf" points="158.5,-305.563 158.5,-326.563 265.5,-326.563 265.5,-305.563 158.5,-305.563"/>
<text text-anchor="middle" x="212" y="-313.563" font-family="Helvetica,sans-Serif" font-size="10.00">QPainterPathStroker</text>
</g>
<!-- Node22&#45;&gt;Node20 -->
<g id="edge50" class="edge"><title>Node22&#45;&gt;Node20</title>
<path fill="none" stroke="#9a32cd" stroke-dasharray="5,2" d="M275.619,-318.945C304.805,-322.959 338.503,-331.659 364,-350.063 376.608,-359.164 370.398,-369.711 382,-380.063 388.731,-386.069 397.146,-390.861 405.355,-394.577"/>
<polygon fill="#9a32cd" stroke="#9a32cd" points="275.854,-315.448 265.504,-317.713 275.007,-322.397 275.854,-315.448"/>
<text text-anchor="middle" x="324" y="-354.063" font-family="Helvetica,sans-Serif" font-size="10.00">stroker</text>
</g>
<!-- Node23 -->
<g id="node48" class="node"><title>Node23</title>
<polygon fill="none" stroke="#bfbfbf" points="174.5,-467.563 174.5,-488.563 249.5,-488.563 249.5,-467.563 174.5,-467.563"/>
<text text-anchor="middle" x="212" y="-475.563" font-family="Helvetica,sans-Serif" font-size="10.00">QPainterPath</text>
</g>
<!-- Node23&#45;&gt;Node20 -->
<g id="edge52" class="edge"><title>Node23&#45;&gt;Node20</title>
<path fill="none" stroke="#9a32cd" stroke-dasharray="5,2" d="M260.034,-474.592C291.319,-470.636 332.096,-462.172 364,-444.063 374.116,-438.322 372.274,-431.444 382,-425.063 389.051,-420.438 397.312,-416.709 405.256,-413.782"/>
<polygon fill="#9a32cd" stroke="#9a32cd" points="259.349,-471.148 249.814,-475.768 260.149,-478.102 259.349,-471.148"/>
<text text-anchor="middle" x="324" y="-474.063" font-family="Helvetica,sans-Serif" font-size="10.00">knot</text>
</g>
<!-- Node24 -->
<g id="node51" class="node"><title>Node24</title>
<polygon fill="none" stroke="#bfbfbf" points="194.5,-427.563 194.5,-448.563 229.5,-448.563 229.5,-427.563 194.5,-427.563"/>
<text text-anchor="middle" x="212" y="-435.563" font-family="Helvetica,sans-Serif" font-size="10.00">long</text>
</g>
<!-- Node24&#45;&gt;Node20 -->
<g id="edge56" class="edge"><title>Node24&#45;&gt;Node20</title>
<path fill="none" stroke="#9a32cd" stroke-dasharray="5,2" d="M239.712,-433.999C281.665,-427.846 361.081,-416.198 405.285,-409.715"/>
<polygon fill="#9a32cd" stroke="#9a32cd" points="239.042,-430.56 229.655,-435.474 240.057,-437.486 239.042,-430.56"/>
<text text-anchor="middle" x="324" y="-431.063" font-family="Helvetica,sans-Serif" font-size="10.00">curve_style</text>
</g>
<!-- Node25 -->
<g id="node53" class="node"><title>Node25</title>
<polygon fill="none" stroke="#bfbfbf" points="168,-346.563 168,-367.563 256,-367.563 256,-346.563 168,-346.563"/>
<text text-anchor="middle" x="212" y="-354.563" font-family="Helvetica,sans-Serif" font-size="10.00">QList&lt; Node * &gt;</text>
</g>
<!-- Node25&#45;&gt;Node10 -->
<g id="edge60" class="edge"><title>Node25&#45;&gt;Node10</title>
<path fill="none" stroke="#9a32cd" stroke-dasharray="5,2" d="M266.192,-358.109C337.559,-358.167 466.368,-353.696 572,-325.063 588.759,-320.521 606.846,-312.952 620.436,-306.686"/>
<polygon fill="#9a32cd" stroke="#9a32cd" points="266.103,-354.608 256.089,-358.07 266.075,-361.608 266.103,-354.608"/>
<text text-anchor="middle" x="437" y="-358.063" font-family="Helvetica,sans-Serif" font-size="10.00">moved_nodes</text>
</g>
<!-- Node25&#45;&gt;Node20 -->
<g id="edge58" class="edge"><title>Node25&#45;&gt;Node20</title>
<path fill="none" stroke="#9a32cd" stroke-dasharray="5,2" d="M266.179,-364.669C295.341,-369.18 331.829,-375.495 364,-383.063 377.658,-386.277 392.521,-390.601 405.25,-394.565"/>
<polygon fill="#9a32cd" stroke="#9a32cd" points="266.602,-361.193 256.189,-363.15 265.549,-368.114 266.602,-361.193"/>
<text text-anchor="middle" x="324" y="-387.063" font-family="Helvetica,sans-Serif" font-size="10.00">nodes</text>
</g>
<!-- Node26 -->
<g id="node56" class="node"><title>Node26</title>
<polygon fill="none" stroke="#bfbfbf" points="404.5,-434.563 404.5,-455.563 469.5,-455.563 469.5,-434.563 404.5,-434.563"/>
<text text-anchor="middle" x="437" y="-442.563" font-family="Helvetica,sans-Serif" font-size="10.00">mode_type</text>
</g>
<!-- Node26&#45;&gt;Node10 -->
<g id="edge62" class="edge"><title>Node26&#45;&gt;Node10</title>
<path fill="none" stroke="#9a32cd" stroke-dasharray="5,2" d="M479.775,-444.219C508.284,-441.707 545.283,-434.497 572,-415.063 610.767,-386.865 631.685,-330.095 638.982,-306.607"/>
<polygon fill="#9a32cd" stroke="#9a32cd" points="479.413,-440.735 469.691,-444.945 479.916,-447.717 479.413,-440.735"/>
<text text-anchor="middle" x="541" y="-443.063" font-family="Helvetica,sans-Serif" font-size="10.00">mode</text>
</g>
</g>
</svg>
