<?xml version="1.0" encoding="UTF-8" standalone="no"?>
<!DOCTYPE svg PUBLIC "-//W3C//DTD SVG 1.1//EN"
 "http://www.w3.org/Graphics/SVG/1.1/DTD/svg11.dtd">
<!-- Generated by graphviz version 2.26.3 (20100126.1600)
 -->
<!-- Title: G Pages: 1 -->
<svg width="100pt" height="146pt"
 viewBox="0.00 0.00 100.00 146.00" xmlns="http://www.w3.org/2000/svg" xmlns:xlink="http://www.w3.org/1999/xlink">
<g id="graph1" class="graph" transform="scale(1 1) rotate(0) translate(4 142)">
<title>G</title>
<!-- Node1 -->
<g id="node1" class="node"><title>Node1</title>
<polygon fill="#bfbfbf" stroke="black" points="0,-116.5 0,-137.5 92,-137.5 92,-116.5 0,-116.5"/>
<text text-anchor="middle" x="46" y="-124.5" font-family="Helvetica,sans-Serif" font-size="10.00">Ui_Knot_Window</text>
</g>
<!-- Node2 -->
<g id="node3" class="node"><title>Node2</title>
<a xlink:href="classUi_1_1Knot__Window.html" target="_top" xlink:title="Ui::Knot_Window">
<polygon fill="none" stroke="black" points="-0.5,-58.5 -0.5,-79.5 92.5,-79.5 92.5,-58.5 -0.5,-58.5"/>
<text text-anchor="middle" x="46" y="-66.5" font-family="Helvetica,sans-Serif" font-size="10.00">Ui::Knot_Window</text>
</a>
</g>
<!-- Node1&#45;&gt;Node2 -->
<g id="edge2" class="edge"><title>Node1&#45;&gt;Node2</title>
<path fill="none" stroke="midnightblue" d="M46,-106.191C46,-97.1684 46,-86.9941 46,-79.5707"/>
<polygon fill="midnightblue" stroke="midnightblue" points="42.5001,-106.362 46,-116.362 49.5001,-106.362 42.5001,-106.362"/>
</g>
<!-- Node3 -->
<g id="node5" class="node"><title>Node3</title>
<a xlink:href="classKnot__Window.html" target="_top" xlink:title="Knot_Window">
<polygon fill="none" stroke="black" points="7.5,-0.5 7.5,-21.5 84.5,-21.5 84.5,-0.5 7.5,-0.5"/>
<text text-anchor="middle" x="46" y="-8.5" font-family="Helvetica,sans-Serif" font-size="10.00">Knot_Window</text>
</a>
</g>
<!-- Node2&#45;&gt;Node3 -->
<g id="edge4" class="edge"><title>Node2&#45;&gt;Node3</title>
<path fill="none" stroke="#8b1a1a" d="M46,-48.1906C46,-39.1684 46,-28.9941 46,-21.5707"/>
<polygon fill="#8b1a1a" stroke="#8b1a1a" points="42.5001,-48.3619 46,-58.3619 49.5001,-48.3619 42.5001,-48.3619"/>
</g>
</g>
</svg>
