<?xml version="1.0" encoding="UTF-8" standalone="no"?>
<!DOCTYPE svg PUBLIC "-//W3C//DTD SVG 1.1//EN"
 "http://www.w3.org/Graphics/SVG/1.1/DTD/svg11.dtd">
<!-- Generated by graphviz version 2.26.3 (20100126.1600)
 -->
<!-- Title: G Pages: 1 -->
<svg width="691pt" height="292pt"
 viewBox="0.00 0.00 691.00 292.00" xmlns="http://www.w3.org/2000/svg" xmlns:xlink="http://www.w3.org/1999/xlink">
<g id="graph1" class="graph" transform="scale(1 1) rotate(0) translate(4 288)">
<title>G</title>
<!-- Node1 -->
<g id="node1" class="node"><title>Node1</title>
<polygon fill="#bfbfbf" stroke="black" points="274.5,-0.5 274.5,-21.5 367.5,-21.5 367.5,-0.5 274.5,-0.5"/>
<text text-anchor="middle" x="321" y="-8.5" font-family="Helvetica,sans-Serif" font-size="10.00">Ui::Knot_Window</text>
</g>
<!-- Node2 -->
<g id="node2" class="node"><title>Node2</title>
<a xlink:href="classUi__Knot__Window.html" target="_top" xlink:title="Ui_Knot_Window">
<polygon fill="none" stroke="black" points="275,-60.5 275,-81.5 367,-81.5 367,-60.5 275,-60.5"/>
<text text-anchor="middle" x="321" y="-68.5" font-family="Helvetica,sans-Serif" font-size="10.00">Ui_Knot_Window</text>
</a>
</g>
<!-- Node2&#45;&gt;Node1 -->
<g id="edge2" class="edge"><title>Node2&#45;&gt;Node1</title>
<path fill="none" stroke="midnightblue" d="M321,-50.2312C321,-40.5922 321,-29.5444 321,-21.6339"/>
<polygon fill="midnightblue" stroke="midnightblue" points="317.5,-50.2732 321,-60.2732 324.5,-50.2732 317.5,-50.2732"/>
</g>
<!-- Node3 -->
<g id="node4" class="node"><title>Node3</title>
<polygon fill="none" stroke="#bfbfbf" points="-0.5,-262.5 -0.5,-283.5 54.5,-283.5 54.5,-262.5 -0.5,-262.5"/>
<text text-anchor="middle" x="27" y="-270.5" font-family="Helvetica,sans-Serif" font-size="10.00">QMenu *</text>
</g>
<!-- Node3&#45;&gt;Node2 -->
<g id="edge4" class="edge"><title>Node3&#45;&gt;Node2</title>
<path fill="none" stroke="#9a32cd" stroke-dasharray="5,2" d="M20.2518,-252.386C9.86362,-216.268 -5.02741,-141.453 34,-100 50.1561,-82.8397 197.744,-75.2356 274.731,-72.4126"/>
<polygon fill="#9a32cd" stroke="#9a32cd" points="17.002,-253.728 23.2665,-262.273 23.6977,-251.687 17.002,-253.728"/>
<text text-anchor="middle" x="67.5" y="-208.5" font-family="Helvetica,sans-Serif" font-size="10.00">menu_Zoom</text>
<text text-anchor="middle" x="67.5" y="-195.5" font-family="Helvetica,sans-Serif" font-size="10.00">menuNo_des</text>
<text text-anchor="middle" x="67.5" y="-182.5" font-family="Helvetica,sans-Serif" font-size="10.00">menu_Edit</text>
<text text-anchor="middle" x="67.5" y="-169.5" font-family="Helvetica,sans-Serif" font-size="10.00">menu_View</text>
<text text-anchor="middle" x="67.5" y="-156.5" font-family="Helvetica,sans-Serif" font-size="10.00">menu_File</text>
<text text-anchor="middle" x="67.5" y="-143.5" font-family="Helvetica,sans-Serif" font-size="10.00">menu_Toolbars</text>
<text text-anchor="middle" x="67.5" y="-130.5" font-family="Helvetica,sans-Serif" font-size="10.00">menu_Knot</text>
</g>
<!-- Node4 -->
<g id="node6" class="node"><title>Node4</title>
<polygon fill="none" stroke="#bfbfbf" points="76,-262.5 76,-283.5 150,-283.5 150,-262.5 76,-262.5"/>
<text text-anchor="middle" x="113" y="-270.5" font-family="Helvetica,sans-Serif" font-size="10.00">QStatusBar *</text>
</g>
<!-- Node4&#45;&gt;Node2 -->
<g id="edge6" class="edge"><title>Node4&#45;&gt;Node2</title>
<path fill="none" stroke="#9a32cd" stroke-dasharray="5,2" d="M109.001,-252.278C103.314,-215.99 97.6348,-140.92 138,-100 147.516,-90.3532 223.786,-80.8418 274.813,-75.4669"/>
<polygon fill="#9a32cd" stroke="#9a32cd" points="105.566,-252.954 110.715,-262.213 112.464,-251.764 105.566,-252.954"/>
<text text-anchor="middle" x="158.5" y="-169.5" font-family="Helvetica,sans-Serif" font-size="10.00">statusbar</text>
</g>
<!-- Node5 -->
<g id="node8" class="node"><title>Node5</title>
<polygon fill="none" stroke="#bfbfbf" points="168,-262.5 168,-283.5 230,-283.5 230,-262.5 168,-262.5"/>
<text text-anchor="middle" x="199" y="-270.5" font-family="Helvetica,sans-Serif" font-size="10.00">QWidget *</text>
</g>
<!-- Node5&#45;&gt;Node2 -->
<g id="edge8" class="edge"><title>Node5&#45;&gt;Node2</title>
<path fill="none" stroke="#9a32cd" stroke-dasharray="5,2" d="M193.059,-252.411C184.188,-216.934 172.098,-143.875 208,-100 216.658,-89.4194 247.609,-81.9334 274.933,-77.2205"/>
<polygon fill="#9a32cd" stroke="#9a32cd" points="189.695,-253.38 195.652,-262.141 196.459,-251.577 189.695,-253.38"/>
<text text-anchor="middle" x="238.5" y="-169.5" font-family="Helvetica,sans-Serif" font-size="10.00">centralWidget</text>
</g>
<!-- Node6 -->
<g id="node10" class="node"><title>Node6</title>
<polygon fill="none" stroke="#bfbfbf" points="248,-262.5 248,-283.5 326,-283.5 326,-262.5 248,-262.5"/>
<text text-anchor="middle" x="287" y="-270.5" font-family="Helvetica,sans-Serif" font-size="10.00">QGridLayout *</text>
</g>
<!-- Node6&#45;&gt;Node2 -->
<g id="edge10" class="edge"><title>Node6&#45;&gt;Node2</title>
<path fill="none" stroke="#9a32cd" stroke-dasharray="5,2" d="M281.878,-252.169C274.699,-218.447 264.938,-150.579 288,-100 291.354,-92.6439 297.588,-86.4076 303.743,-81.625"/>
<polygon fill="#9a32cd" stroke="#9a32cd" points="278.533,-253.246 284.162,-262.222 285.359,-251.695 278.533,-253.246"/>
<text text-anchor="middle" x="311" y="-169.5" font-family="Helvetica,sans-Serif" font-size="10.00">gridLayout</text>
</g>
<!-- Node7 -->
<g id="node12" class="node"><title>Node7</title>
<polygon fill="none" stroke="#bfbfbf" points="343.5,-262.5 343.5,-283.5 402.5,-283.5 402.5,-262.5 343.5,-262.5"/>
<text text-anchor="middle" x="373" y="-270.5" font-family="Helvetica,sans-Serif" font-size="10.00">QAction *</text>
</g>
<!-- Node7&#45;&gt;Node2 -->
<g id="edge12" class="edge"><title>Node7&#45;&gt;Node2</title>
<path fill="none" stroke="#9a32cd" stroke-dasharray="5,2" d="M361.118,-253.61C359.548,-250.478 358.103,-247.208 357,-244 335.92,-182.713 352.527,-162.107 334,-100 332.139,-93.7611 329.231,-87.1122 326.638,-81.7569"/>
<polygon fill="#9a32cd" stroke="#9a32cd" points="358.079,-255.348 365.988,-262.398 364.202,-251.955 358.079,-255.348"/>
<text text-anchor="middle" x="405.5" y="-234.5" font-family="Helvetica,sans-Serif" font-size="10.00">actionEdge_List</text>
<text text-anchor="middle" x="405.5" y="-221.5" font-family="Helvetica,sans-Serif" font-size="10.00">actionInsert_Edges</text>
<text text-anchor="middle" x="405.5" y="-208.5" font-family="Helvetica,sans-Serif" font-size="10.00">action_Export</text>
<text text-anchor="middle" x="405.5" y="-195.5" font-family="Helvetica,sans-Serif" font-size="10.00">actionConfigure_G_rid</text>
<text text-anchor="middle" x="405.5" y="-182.5" font-family="Helvetica,sans-Serif" font-size="10.00">action_Style</text>
<text text-anchor="middle" x="405.5" y="-169.5" font-family="Helvetica,sans-Serif" font-size="10.00">action_Reset_Zoom</text>
<text text-anchor="middle" x="405.5" y="-156.5" font-family="Helvetica,sans-Serif" font-size="10.00">action_Erase</text>
<text text-anchor="middle" x="405.5" y="-143.5" font-family="Helvetica,sans-Serif" font-size="10.00">actionSave_As</text>
<text text-anchor="middle" x="405.5" y="-130.5" font-family="Helvetica,sans-Serif" font-size="10.00">actionShow_Knot_line</text>
<text text-anchor="middle" x="405.5" y="-117.5" font-family="Helvetica,sans-Serif" font-size="10.00">action_Undo</text>
<text text-anchor="middle" x="405.5" y="-104.5" font-family="Helvetica,sans-Serif" font-size="10.00">...</text>
</g>
<!-- Node8 -->
<g id="node14" class="node"><title>Node8</title>
<polygon fill="none" stroke="#bfbfbf" points="441.5,-262.5 441.5,-283.5 506.5,-283.5 506.5,-262.5 441.5,-262.5"/>
<text text-anchor="middle" x="474" y="-270.5" font-family="Helvetica,sans-Serif" font-size="10.00">QToolBar *</text>
</g>
<!-- Node8&#45;&gt;Node2 -->
<g id="edge14" class="edge"><title>Node8&#45;&gt;Node2</title>
<path fill="none" stroke="#9a32cd" stroke-dasharray="5,2" d="M474.499,-252.321C475.039,-211.35 473.843,-121.925 454,-100 442.423,-87.209 400.792,-79.5753 367.153,-75.3767"/>
<polygon fill="#9a32cd" stroke="#9a32cd" points="470.996,-252.433 474.315,-262.495 477.995,-252.56 470.996,-252.433"/>
<text text-anchor="middle" x="501.5" y="-176" font-family="Helvetica,sans-Serif" font-size="10.00">EditBar</text>
<text text-anchor="middle" x="501.5" y="-163" font-family="Helvetica,sans-Serif" font-size="10.00">MainToolBar</text>
</g>
<!-- Node9 -->
<g id="node16" class="node"><title>Node9</title>
<polygon fill="none" stroke="#bfbfbf" points="523.5,-262.5 523.5,-283.5 588.5,-283.5 588.5,-262.5 523.5,-262.5"/>
<text text-anchor="middle" x="556" y="-270.5" font-family="Helvetica,sans-Serif" font-size="10.00">KnotView *</text>
</g>
<!-- Node9&#45;&gt;Node2 -->
<g id="edge16" class="edge"><title>Node9&#45;&gt;Node2</title>
<path fill="none" stroke="#9a32cd" stroke-dasharray="5,2" d="M560.363,-252.224C566.662,-215.853 573.503,-140.656 533,-100 521.48,-88.4368 425.859,-79.0823 367.041,-74.3538"/>
<polygon fill="#9a32cd" stroke="#9a32cd" points="556.899,-251.707 558.478,-262.184 563.777,-253.009 556.899,-251.707"/>
<text text-anchor="middle" x="581" y="-169.5" font-family="Helvetica,sans-Serif" font-size="10.00">canvas</text>
</g>
<!-- Node10 -->
<g id="node18" class="node"><title>Node10</title>
<polygon fill="none" stroke="#bfbfbf" points="606,-262.5 606,-283.5 676,-283.5 676,-262.5 606,-262.5"/>
<text text-anchor="middle" x="641" y="-270.5" font-family="Helvetica,sans-Serif" font-size="10.00">QMenuBar *</text>
</g>
<!-- Node10&#45;&gt;Node2 -->
<g id="edge18" class="edge"><title>Node10&#45;&gt;Node2</title>
<path fill="none" stroke="#9a32cd" stroke-dasharray="5,2" d="M643.137,-252.345C645.674,-215.538 644.975,-138.834 601,-100 583.852,-84.8565 441.986,-76.3509 367.025,-72.8747"/>
<polygon fill="#9a32cd" stroke="#9a32cd" points="639.641,-252.142 642.29,-262.401 646.617,-252.73 639.641,-252.142"/>
<text text-anchor="middle" x="663" y="-169.5" font-family="Helvetica,sans-Serif" font-size="10.00">menuBar</text>
</g>
</g>
</svg>
