<?xml version="1.0" encoding="UTF-8" standalone="no"?>
<!DOCTYPE svg PUBLIC "-//W3C//DTD SVG 1.1//EN"
 "http://www.w3.org/Graphics/SVG/1.1/DTD/svg11.dtd">
<!-- Generated by graphviz version 2.26.3 (20100126.1600)
 -->
<!-- Title: G Pages: 1 -->
<svg width="340pt" height="102pt"
 viewBox="0.00 0.00 340.00 102.00" xmlns="http://www.w3.org/2000/svg" xmlns:xlink="http://www.w3.org/1999/xlink">
<g id="graph1" class="graph" transform="scale(1 1) rotate(0) translate(4 98)">
<title>G</title>
<!-- Node1 -->
<g id="node1" class="node"><title>Node1</title>
<polygon fill="#bfbfbf" stroke="black" points="92.5,-0.5 92.5,-21.5 169.5,-21.5 169.5,-0.5 92.5,-0.5"/>
<text text-anchor="middle" x="131" y="-8.5" font-family="Helvetica,sans-Serif" font-size="10.00">ClipboardItem</text>
</g>
<!-- Node2 -->
<g id="node2" class="node"><title>Node2</title>
<polygon fill="none" stroke="#bfbfbf" points="-0.5,-72.5 -0.5,-93.5 52.5,-93.5 52.5,-72.5 -0.5,-72.5"/>
<text text-anchor="middle" x="26" y="-80.5" font-family="Helvetica,sans-Serif" font-size="10.00">QPointF</text>
</g>
<!-- Node2&#45;&gt;Node1 -->
<g id="edge2" class="edge"><title>Node2&#45;&gt;Node1</title>
<path fill="none" stroke="#9a32cd" stroke-dasharray="5,2" d="M49.8248,-66.663C69.9281,-52.8778 98.1237,-33.5437 115.443,-21.6674"/>
<polygon fill="#9a32cd" stroke="#9a32cd" points="47.7611,-63.8343 41.4931,-72.3762 51.7198,-69.6074 47.7611,-63.8343"/>
<text text-anchor="middle" x="102" y="-44.5" font-family="Helvetica,sans-Serif" font-size="10.00">center</text>
</g>
<!-- Node3 -->
<g id="node4" class="node"><title>Node3</title>
<polygon fill="none" stroke="#bfbfbf" points="70,-72.5 70,-93.5 192,-93.5 192,-72.5 70,-72.5"/>
<text text-anchor="middle" x="131" y="-80.5" font-family="Helvetica,sans-Serif" font-size="10.00">QList&lt; ClipboardEdge &gt;</text>
</g>
<!-- Node3&#45;&gt;Node1 -->
<g id="edge4" class="edge"><title>Node3&#45;&gt;Node1</title>
<path fill="none" stroke="#9a32cd" stroke-dasharray="5,2" d="M131,-62.2348C131,-48.969 131,-32.3188 131,-21.6674"/>
<polygon fill="#9a32cd" stroke="#9a32cd" points="127.5,-62.3761 131,-72.3762 134.5,-62.3762 127.5,-62.3761"/>
<text text-anchor="middle" x="144.5" y="-44.5" font-family="Helvetica,sans-Serif" font-size="10.00">edges</text>
</g>
<!-- Node4 -->
<g id="node6" class="node"><title>Node4</title>
<polygon fill="none" stroke="#bfbfbf" points="210,-72.5 210,-93.5 332,-93.5 332,-72.5 210,-72.5"/>
<text text-anchor="middle" x="271" y="-80.5" font-family="Helvetica,sans-Serif" font-size="10.00">QList&lt; ClipboardNode &gt;</text>
</g>
<!-- Node4&#45;&gt;Node1 -->
<g id="edge6" class="edge"><title>Node4&#45;&gt;Node1</title>
<path fill="none" stroke="#9a32cd" stroke-dasharray="5,2" d="M241.373,-67.7634C214.463,-53.9236 175.456,-33.8633 151.742,-21.6674"/>
<polygon fill="#9a32cd" stroke="#9a32cd" points="239.849,-70.9151 250.343,-72.3762 243.05,-64.6901 239.849,-70.9151"/>
<text text-anchor="middle" x="226.5" y="-44.5" font-family="Helvetica,sans-Serif" font-size="10.00">nodes</text>
</g>
</g>
</svg>
