<?xml version="1.0" encoding="UTF-8" standalone="no"?>
<!DOCTYPE svg PUBLIC "-//W3C//DTD SVG 1.1//EN"
 "http://www.w3.org/Graphics/SVG/1.1/DTD/svg11.dtd">
<!-- Generated by graphviz version 2.26.3 (20100126.1600)
 -->
<!-- Title: G Pages: 1 -->
<svg width="808pt" height="658pt"
 viewBox="0.00 0.00 808.00 658.00" xmlns="http://www.w3.org/2000/svg" xmlns:xlink="http://www.w3.org/1999/xlink">
<g id="graph1" class="graph" transform="scale(1 1) rotate(0) translate(4 654)">
<title>G</title>
<!-- Node1 -->
<g id="node1" class="node"><title>Node1</title>
<polygon fill="#bfbfbf" stroke="black" points="730.5,-522.5 730.5,-543.5 799.5,-543.5 799.5,-522.5 730.5,-522.5"/>
<text text-anchor="middle" x="765" y="-530.5" font-family="Helvetica,sans-Serif" font-size="10.00">MoveNodes</text>
</g>
<!-- Node2 -->
<g id="node2" class="node"><title>Node2</title>
<a xlink:href="classQUndoCommand.html" target="_top" xlink:title="QUndoCommand">
<polygon fill="none" stroke="black" points="590,-603.5 590,-624.5 682,-624.5 682,-603.5 590,-603.5"/>
<text text-anchor="middle" x="636" y="-611.5" font-family="Helvetica,sans-Serif" font-size="10.00">QUndoCommand</text>
</a>
</g>
<!-- Node2&#45;&gt;Node1 -->
<g id="edge2" class="edge"><title>Node2&#45;&gt;Node1</title>
<path fill="none" stroke="midnightblue" d="M684.13,-599.855C693.729,-596.059 703.472,-591.456 712,-586 730.195,-574.358 747.079,-555.529 756.701,-543.729"/>
<polygon fill="midnightblue" stroke="midnightblue" points="682.783,-596.622 674.628,-603.385 685.221,-603.183 682.783,-596.622"/>
</g>
<!-- Node3 -->
<g id="node4" class="node"><title>Node3</title>
<a xlink:href="classNode.html" target="_top" xlink:title="Node">
<polygon fill="none" stroke="black" points="417,-561.5 417,-582.5 457,-582.5 457,-561.5 417,-561.5"/>
<text text-anchor="middle" x="437" y="-569.5" font-family="Helvetica,sans-Serif" font-size="10.00">Node</text>
</a>
</g>
<!-- Node3&#45;&gt;Node1 -->
<g id="edge4" class="edge"><title>Node3&#45;&gt;Node1</title>
<path fill="none" stroke="#9a32cd" stroke-dasharray="5,2" d="M467.259,-569.085C494.635,-566.394 536.048,-562.192 572,-558 627.373,-551.544 691.543,-543.024 730.167,-537.784"/>
<polygon fill="#9a32cd" stroke="#9a32cd" points="466.757,-565.617 457.145,-570.073 467.438,-572.584 466.757,-565.617"/>
<text text-anchor="middle" x="636" y="-559" font-family="Helvetica,sans-Serif" font-size="10.00">node</text>
</g>
<!-- Node10 -->
<g id="node18" class="node"><title>Node10</title>
<a xlink:href="classKnotView.html" target="_top" xlink:title="KnotView">
<polygon fill="none" stroke="black" points="606.5,-297.5 606.5,-318.5 665.5,-318.5 665.5,-297.5 606.5,-297.5"/>
<text text-anchor="middle" x="636" y="-305.5" font-family="Helvetica,sans-Serif" font-size="10.00">KnotView</text>
</a>
</g>
<!-- Node3&#45;&gt;Node10 -->
<g id="edge22" class="edge"><title>Node3&#45;&gt;Node10</title>
<path fill="none" stroke="#9a32cd" stroke-dasharray="5,2" d="M466.672,-561.033C506.38,-546.354 571.881,-522.127 572,-522 600.915,-491.169 626.994,-357.663 634.1,-318.708"/>
<polygon fill="#9a32cd" stroke="#9a32cd" points="465.354,-557.789 457.188,-564.539 467.781,-564.355 465.354,-557.789"/>
<text text-anchor="middle" x="541" y="-548" font-family="Helvetica,sans-Serif" font-size="10.00">last_node</text>
</g>
<!-- Node4 -->
<g id="node6" class="node"><title>Node4</title>
<a xlink:href="classCustomItem.html" target="_top" xlink:title="CustomItem">
<polygon fill="none" stroke="black" points="176.5,-628.5 176.5,-649.5 247.5,-649.5 247.5,-628.5 176.5,-628.5"/>
<text text-anchor="middle" x="212" y="-636.5" font-family="Helvetica,sans-Serif" font-size="10.00">CustomItem</text>
</a>
</g>
<!-- Node4&#45;&gt;Node3 -->
<g id="edge6" class="edge"><title>Node4&#45;&gt;Node3</title>
<path fill="none" stroke="midnightblue" d="M257.613,-632.334C288.206,-627.153 329.128,-618.839 364,-607 383.032,-600.539 403.579,-590.375 418.011,-582.661"/>
<polygon fill="midnightblue" stroke="midnightblue" points="256.957,-628.895 247.658,-633.972 258.093,-635.802 256.957,-628.895"/>
</g>
<!-- Node5 -->
<g id="node8" class="node"><title>Node5</title>
<a xlink:href="classQGraphicsItem.html" target="_top" xlink:title="QGraphicsItem">
<polygon fill="none" stroke="black" points="0.5,-628.5 0.5,-649.5 83.5,-649.5 83.5,-628.5 0.5,-628.5"/>
<text text-anchor="middle" x="42" y="-636.5" font-family="Helvetica,sans-Serif" font-size="10.00">QGraphicsItem</text>
</a>
</g>
<!-- Node5&#45;&gt;Node4 -->
<g id="edge8" class="edge"><title>Node5&#45;&gt;Node4</title>
<path fill="none" stroke="midnightblue" d="M93.9076,-639C120.585,-639 152.417,-639 176.307,-639"/>
<polygon fill="midnightblue" stroke="midnightblue" points="93.5867,-635.5 83.5867,-639 93.5866,-642.5 93.5867,-635.5"/>
</g>
<!-- Node6 -->
<g id="node10" class="node"><title>Node6</title>
<polygon fill="none" stroke="#bfbfbf" points="24.5,-445.5 24.5,-466.5 59.5,-466.5 59.5,-445.5 24.5,-445.5"/>
<text text-anchor="middle" x="42" y="-453.5" font-family="Helvetica,sans-Serif" font-size="10.00">bool</text>
</g>
<!-- Node6&#45;&gt;Node4 -->
<g id="edge10" class="edge"><title>Node6&#45;&gt;Node4</title>
<path fill="none" stroke="#9a32cd" stroke-dasharray="5,2" d="M51.3401,-476.21C68.0636,-510.302 106.268,-579.387 158,-619 163.477,-623.194 169.924,-626.58 176.421,-629.289"/>
<polygon fill="#9a32cd" stroke="#9a32cd" points="54.3225,-474.334 46.8485,-466.825 48.0083,-477.356 54.3225,-474.334"/>
<text text-anchor="middle" x="121" y="-605" font-family="Helvetica,sans-Serif" font-size="10.00">highlight</text>
</g>
<!-- Node14 -->
<g id="node28" class="node"><title>Node14</title>
<a xlink:href="classsnapping__grid.html" target="_top" xlink:title="snapping_grid">
<polygon fill="none" stroke="black" points="398.5,-276.5 398.5,-297.5 475.5,-297.5 475.5,-276.5 398.5,-276.5"/>
<text text-anchor="middle" x="437" y="-284.5" font-family="Helvetica,sans-Serif" font-size="10.00">snapping_grid</text>
</a>
</g>
<!-- Node6&#45;&gt;Node14 -->
<g id="edge36" class="edge"><title>Node6&#45;&gt;Node14</title>
<path fill="none" stroke="#9a32cd" stroke-dasharray="5,2" d="M69.1782,-447.222C92.5912,-439.8 127.354,-429.109 158,-421 203.392,-408.989 330.171,-406.562 364,-374 386.215,-352.617 361.158,-329.723 382,-307 386.464,-302.133 392.207,-298.448 398.292,-295.659"/>
<polygon fill="#9a32cd" stroke="#9a32cd" points="68.0432,-443.911 59.5798,-450.284 70.1705,-450.579 68.0432,-443.911"/>
<text text-anchor="middle" x="212" y="-425" font-family="Helvetica,sans-Serif" font-size="10.00">enabled</text>
</g>
<!-- Node7 -->
<g id="node12" class="node"><title>Node7</title>
<polygon fill="none" stroke="#bfbfbf" points="197.5,-588.5 197.5,-609.5 226.5,-609.5 226.5,-588.5 197.5,-588.5"/>
<text text-anchor="middle" x="212" y="-596.5" font-family="Helvetica,sans-Serif" font-size="10.00">int</text>
</g>
<!-- Node7&#45;&gt;Node3 -->
<g id="edge12" class="edge"><title>Node7&#45;&gt;Node3</title>
<path fill="none" stroke="#9a32cd" stroke-dasharray="5,2" d="M236.812,-596.023C281.709,-590.635 375.591,-579.369 416.835,-574.42"/>
<polygon fill="#9a32cd" stroke="#9a32cd" points="236.275,-592.562 226.763,-597.228 237.109,-599.512 236.275,-592.562"/>
<text text-anchor="middle" x="324" y="-594" font-family="Helvetica,sans-Serif" font-size="10.00">radius</text>
</g>
<!-- Node8 -->
<g id="node14" class="node"><title>Node8</title>
<polygon fill="none" stroke="#bfbfbf" points="168.5,-529.5 168.5,-550.5 255.5,-550.5 255.5,-529.5 168.5,-529.5"/>
<text text-anchor="middle" x="212" y="-537.5" font-family="Helvetica,sans-Serif" font-size="10.00">QList&lt; Edge * &gt;</text>
</g>
<!-- Node8&#45;&gt;Node3 -->
<g id="edge14" class="edge"><title>Node8&#45;&gt;Node3</title>
<path fill="none" stroke="#9a32cd" stroke-dasharray="5,2" d="M265.672,-547.633C314.177,-554.532 382.985,-564.318 416.737,-569.118"/>
<polygon fill="#9a32cd" stroke="#9a32cd" points="266.042,-544.151 255.649,-546.208 265.057,-551.081 266.042,-544.151"/>
<text text-anchor="middle" x="324" y="-564" font-family="Helvetica,sans-Serif" font-size="10.00">edges</text>
</g>
<!-- Node19 -->
<g id="node40" class="node"><title>Node19</title>
<a xlink:href="classKnotGraph.html" target="_top" xlink:title="KnotGraph">
<polygon fill="none" stroke="black" points="405.5,-156.5 405.5,-177.5 468.5,-177.5 468.5,-156.5 405.5,-156.5"/>
<text text-anchor="middle" x="437" y="-164.5" font-family="Helvetica,sans-Serif" font-size="10.00">KnotGraph</text>
</a>
</g>
<!-- Node8&#45;&gt;Node19 -->
<g id="edge54" class="edge"><title>Node8&#45;&gt;Node19</title>
<path fill="none" stroke="#9a32cd" stroke-dasharray="5,2" d="M254.367,-525.69C290.22,-511.154 339.558,-484.896 364,-444 393.371,-394.857 347.536,-232.716 382,-187 387.688,-179.455 396.502,-174.752 405.42,-171.823"/>
<polygon fill="#9a32cd" stroke="#9a32cd" points="252.69,-522.588 244.645,-529.482 255.233,-529.109 252.69,-522.588"/>
<text text-anchor="middle" x="324" y="-528" font-family="Helvetica,sans-Serif" font-size="10.00">traversed_edges</text>
<text text-anchor="middle" x="324" y="-515" font-family="Helvetica,sans-Serif" font-size="10.00">edges</text>
</g>
<!-- Node9 -->
<g id="node16" class="node"><title>Node9</title>
<polygon fill="none" stroke="#bfbfbf" points="185.5,-443.5 185.5,-464.5 238.5,-464.5 238.5,-443.5 185.5,-443.5"/>
<text text-anchor="middle" x="212" y="-451.5" font-family="Helvetica,sans-Serif" font-size="10.00">QPointF</text>
</g>
<!-- Node9&#45;&gt;Node1 -->
<g id="edge16" class="edge"><title>Node9&#45;&gt;Node1</title>
<path fill="none" stroke="#9a32cd" stroke-dasharray="5,2" d="M248.486,-463.165C259.805,-465.723 272.363,-468.272 284,-470 410.98,-488.861 444.933,-473.733 572,-492 627.945,-500.043 691.95,-514.75 730.384,-524.19"/>
<polygon fill="#9a32cd" stroke="#9a32cd" points="249.035,-459.7 238.502,-460.838 247.446,-466.517 249.035,-459.7"/>
<text text-anchor="middle" x="541" y="-509" font-family="Helvetica,sans-Serif" font-size="10.00">end_pos</text>
<text text-anchor="middle" x="541" y="-496" font-family="Helvetica,sans-Serif" font-size="10.00">start_pos</text>
</g>
<!-- Node9&#45;&gt;Node10 -->
<g id="edge28" class="edge"><title>Node9&#45;&gt;Node10</title>
<path fill="none" stroke="#9a32cd" stroke-dasharray="5,2" d="M248.987,-458.719C319.584,-465.634 475.124,-470.543 572,-396 600.147,-374.342 621.469,-337.035 630.81,-318.744"/>
<polygon fill="#9a32cd" stroke="#9a32cd" points="249.117,-455.213 238.805,-457.649 248.385,-462.175 249.117,-455.213"/>
<text text-anchor="middle" x="437" y="-464" font-family="Helvetica,sans-Serif" font-size="10.00">oldpos</text>
</g>
<!-- Node9&#45;&gt;Node14 -->
<g id="edge34" class="edge"><title>Node9&#45;&gt;Node14</title>
<path fill="none" stroke="#9a32cd" stroke-dasharray="5,2" d="M248.13,-439.816C259.538,-435.508 272.236,-430.89 284,-427 319.125,-415.385 339.132,-431.391 364,-404 393.474,-371.537 353.661,-340.458 382,-307 386.334,-301.883 392.089,-298.075 398.244,-295.241"/>
<polygon fill="#9a32cd" stroke="#9a32cd" points="246.587,-436.658 238.493,-443.495 249.083,-443.198 246.587,-436.658"/>
<text text-anchor="middle" x="324" y="-431" font-family="Helvetica,sans-Serif" font-size="10.00">origin</text>
</g>
<!-- Node10&#45;&gt;Node1 -->
<g id="edge18" class="edge"><title>Node10&#45;&gt;Node1</title>
<path fill="none" stroke="#9a32cd" stroke-dasharray="5,2" d="M647.187,-327.513C673.537,-373.471 738.797,-487.296 758.964,-522.472"/>
<polygon fill="#9a32cd" stroke="#9a32cd" points="650.059,-325.485 642.049,-318.55 643.986,-328.967 650.059,-325.485"/>
<text text-anchor="middle" x="706" y="-438" font-family="Helvetica,sans-Serif" font-size="10.00">kv</text>
</g>
<!-- Node11 -->
<g id="node20" class="node"><title>Node11</title>
<a xlink:href="classQGraphicsView.html" target="_top" xlink:title="QGraphicsView">
<polygon fill="none" stroke="black" points="394.5,-396.5 394.5,-417.5 479.5,-417.5 479.5,-396.5 394.5,-396.5"/>
<text text-anchor="middle" x="437" y="-404.5" font-family="Helvetica,sans-Serif" font-size="10.00">QGraphicsView</text>
</a>
</g>
<!-- Node11&#45;&gt;Node10 -->
<g id="edge20" class="edge"><title>Node11&#45;&gt;Node10</title>
<path fill="none" stroke="midnightblue" d="M489.621,-398.952C515.622,-393.429 546.751,-384.407 572,-370 595.379,-356.66 616.544,-332.812 627.704,-318.902"/>
<polygon fill="midnightblue" stroke="midnightblue" points="488.679,-395.571 479.564,-400.971 490.057,-402.434 488.679,-395.571"/>
</g>
<!-- Node12 -->
<g id="node23" class="node"><title>Node12</title>
<polygon fill="none" stroke="#bfbfbf" points="400.5,-356.5 400.5,-377.5 473.5,-377.5 473.5,-356.5 400.5,-356.5"/>
<text text-anchor="middle" x="437" y="-364.5" font-family="Helvetica,sans-Serif" font-size="10.00">QUndoStack</text>
</g>
<!-- Node12&#45;&gt;Node10 -->
<g id="edge24" class="edge"><title>Node12&#45;&gt;Node10</title>
<path fill="none" stroke="#9a32cd" stroke-dasharray="5,2" d="M483.73,-359.085C510.024,-354.021 543.249,-346.594 572,-337 587.043,-331.981 603.312,-324.581 615.682,-318.512"/>
<polygon fill="#9a32cd" stroke="#9a32cd" points="482.835,-355.692 473.652,-360.977 484.127,-362.572 482.835,-355.692"/>
<text text-anchor="middle" x="541" y="-357" font-family="Helvetica,sans-Serif" font-size="10.00">undo_stack</text>
</g>
<!-- Node13 -->
<g id="node25" class="node"><title>Node13</title>
<polygon fill="none" stroke="#bfbfbf" points="386,-316.5 386,-337.5 488,-337.5 488,-316.5 386,-316.5"/>
<text text-anchor="middle" x="437" y="-324.5" font-family="Helvetica,sans-Serif" font-size="10.00">mouse_status_type</text>
</g>
<!-- Node13&#45;&gt;Node10 -->
<g id="edge26" class="edge"><title>Node13&#45;&gt;Node10</title>
<path fill="none" stroke="#9a32cd" stroke-dasharray="5,2" d="M498.604,-321.118C534.412,-317.699 577.917,-313.546 606.246,-310.841"/>
<polygon fill="#9a32cd" stroke="#9a32cd" points="497.869,-317.672 488.247,-322.107 498.535,-324.641 497.869,-317.672"/>
<text text-anchor="middle" x="541" y="-324" font-family="Helvetica,sans-Serif" font-size="10.00">mouse_status</text>
</g>
<!-- Node14&#45;&gt;Node10 -->
<g id="edge30" class="edge"><title>Node14&#45;&gt;Node10</title>
<path fill="none" stroke="#9a32cd" stroke-dasharray="5,2" d="M485.998,-290.119C511.658,-291.973 543.575,-294.626 572,-298 583.279,-299.339 595.62,-301.178 606.43,-302.914"/>
<polygon fill="#9a32cd" stroke="#9a32cd" points="485.995,-286.61 475.773,-289.399 485.502,-293.593 485.995,-286.61"/>
<text text-anchor="middle" x="541" y="-302" font-family="Helvetica,sans-Serif" font-size="10.00">grid</text>
</g>
<!-- Node15 -->
<g id="node30" class="node"><title>Node15</title>
<polygon fill="none" stroke="#bfbfbf" points="189.5,-319.5 189.5,-340.5 234.5,-340.5 234.5,-319.5 189.5,-319.5"/>
<text text-anchor="middle" x="212" y="-327.5" font-family="Helvetica,sans-Serif" font-size="10.00">double</text>
</g>
<!-- Node15&#45;&gt;Node14 -->
<g id="edge32" class="edge"><title>Node15&#45;&gt;Node14</title>
<path fill="none" stroke="#9a32cd" stroke-dasharray="5,2" d="M244.085,-343.238C276.762,-354.454 327.657,-365.461 364,-343 379.217,-333.595 368.646,-318.902 382,-307 386.703,-302.809 392.354,-299.474 398.217,-296.828"/>
<polygon fill="#9a32cd" stroke="#9a32cd" points="245.159,-339.905 234.565,-339.788 242.774,-346.486 245.159,-339.905"/>
<text text-anchor="middle" x="324" y="-361" font-family="Helvetica,sans-Serif" font-size="10.00">size</text>
</g>
<!-- Node15&#45;&gt;Node19 -->
<g id="edge48" class="edge"><title>Node15&#45;&gt;Node19</title>
<path fill="none" stroke="#9a32cd" stroke-dasharray="5,2" d="M244.066,-315.334C256.386,-310.046 270.687,-304.323 284,-300 318.758,-288.713 338.734,-307.403 364,-281 393.409,-250.268 354.415,-219.38 382,-187 387.996,-179.962 396.679,-175.4 405.381,-172.444"/>
<polygon fill="#9a32cd" stroke="#9a32cd" points="242.425,-312.231 234.667,-319.446 245.231,-318.644 242.425,-312.231"/>
<text text-anchor="middle" x="324" y="-330" font-family="Helvetica,sans-Serif" font-size="10.00">cusp_angle</text>
<text text-anchor="middle" x="324" y="-317" font-family="Helvetica,sans-Serif" font-size="10.00">crossing_distance</text>
<text text-anchor="middle" x="324" y="-304" font-family="Helvetica,sans-Serif" font-size="10.00">handle_length</text>
</g>
<!-- Node16 -->
<g id="node34" class="node"><title>Node16</title>
<polygon fill="none" stroke="#bfbfbf" points="180,-268.5 180,-289.5 244,-289.5 244,-268.5 180,-268.5"/>
<text text-anchor="middle" x="212" y="-276.5" font-family="Helvetica,sans-Serif" font-size="10.00">grid_shape</text>
</g>
<!-- Node16&#45;&gt;Node14 -->
<g id="edge38" class="edge"><title>Node16&#45;&gt;Node14</title>
<path fill="none" stroke="#9a32cd" stroke-dasharray="5,2" d="M254.024,-271.473C284.611,-267.084 326.982,-263.262 364,-268 377.25,-269.696 391.53,-273.057 403.916,-276.487"/>
<polygon fill="#9a32cd" stroke="#9a32cd" points="253.491,-268.013 244.128,-272.971 254.539,-274.934 253.491,-268.013"/>
<text text-anchor="middle" x="324" y="-272" font-family="Helvetica,sans-Serif" font-size="10.00">shape</text>
</g>
<!-- Node17 -->
<g id="node36" class="node"><title>Node17</title>
<polygon fill="none" stroke="#bfbfbf" points="382,-236.5 382,-257.5 492,-257.5 492,-236.5 382,-236.5"/>
<text text-anchor="middle" x="437" y="-244.5" font-family="Helvetica,sans-Serif" font-size="10.00">QGraphicsRectItem *</text>
</g>
<!-- Node17&#45;&gt;Node10 -->
<g id="edge40" class="edge"><title>Node17&#45;&gt;Node10</title>
<path fill="none" stroke="#9a32cd" stroke-dasharray="5,2" d="M502.173,-257.553C524.638,-262.092 549.737,-268.184 572,-276 588.175,-281.679 605.509,-290.534 618.052,-297.491"/>
<polygon fill="#9a32cd" stroke="#9a32cd" points="502.543,-254.059 492.057,-255.576 501.2,-260.929 502.543,-254.059"/>
<text text-anchor="middle" x="541" y="-280" font-family="Helvetica,sans-Serif" font-size="10.00">rubberband</text>
</g>
<!-- Node18 -->
<g id="node38" class="node"><title>Node18</title>
<polygon fill="none" stroke="#bfbfbf" points="383.5,-196.5 383.5,-217.5 490.5,-217.5 490.5,-196.5 383.5,-196.5"/>
<text text-anchor="middle" x="437" y="-204.5" font-family="Helvetica,sans-Serif" font-size="10.00">QGraphicsLineItem *</text>
</g>
<!-- Node18&#45;&gt;Node10 -->
<g id="edge42" class="edge"><title>Node18&#45;&gt;Node10</title>
<path fill="none" stroke="#9a32cd" stroke-dasharray="5,2" d="M500.712,-216.705C524.206,-222.115 550.352,-230.407 572,-243 596.093,-257.015 617.308,-282.482 628.215,-297.03"/>
<polygon fill="#9a32cd" stroke="#9a32cd" points="501.341,-213.26 490.826,-214.558 499.855,-220.101 501.341,-213.26"/>
<text text-anchor="middle" x="541" y="-247" font-family="Helvetica,sans-Serif" font-size="10.00">guide</text>
</g>
<!-- Node19&#45;&gt;Node10 -->
<g id="edge44" class="edge"><title>Node19&#45;&gt;Node10</title>
<path fill="none" stroke="#9a32cd" stroke-dasharray="5,2" d="M478.663,-170.002C507.311,-173.883 544.922,-182.755 572,-203 605.341,-227.928 625.023,-275.802 632.509,-297.202"/>
<polygon fill="#9a32cd" stroke="#9a32cd" points="478.896,-166.505 468.55,-168.786 478.06,-173.455 478.896,-166.505"/>
<text text-anchor="middle" x="541" y="-207" font-family="Helvetica,sans-Serif" font-size="10.00">knot</text>
</g>
<!-- Node20 -->
<g id="node42" class="node"><title>Node20</title>
<a xlink:href="classQGraphicsPathItem.html" target="_top" xlink:title="QGraphicsPathItem">
<polygon fill="none" stroke="black" points="160.5,-228.5 160.5,-249.5 263.5,-249.5 263.5,-228.5 160.5,-228.5"/>
<text text-anchor="middle" x="212" y="-236.5" font-family="Helvetica,sans-Serif" font-size="10.00">QGraphicsPathItem</text>
</a>
</g>
<!-- Node20&#45;&gt;Node19 -->
<g id="edge46" class="edge"><title>Node20&#45;&gt;Node19</title>
<path fill="none" stroke="midnightblue" d="M273.623,-234.066C302.513,-229.698 336.536,-221.474 364,-206 374.134,-200.29 372.274,-193.381 382,-187 389.051,-182.374 397.312,-178.646 405.256,-175.719"/>
<polygon fill="midnightblue" stroke="midnightblue" points="273.06,-230.61 263.638,-235.455 274.025,-237.543 273.06,-230.61"/>
</g>
<!-- Node21 -->
<g id="node45" class="node"><title>Node21</title>
<polygon fill="none" stroke="#bfbfbf" points="158.5,-188.5 158.5,-209.5 265.5,-209.5 265.5,-188.5 158.5,-188.5"/>
<text text-anchor="middle" x="212" y="-196.5" font-family="Helvetica,sans-Serif" font-size="10.00">QPainterPathStroker</text>
</g>
<!-- Node21&#45;&gt;Node19 -->
<g id="edge50" class="edge"><title>Node21&#45;&gt;Node19</title>
<path fill="none" stroke="#9a32cd" stroke-dasharray="5,2" d="M275.557,-189.961C317.917,-183.936 371.777,-176.276 405.324,-171.505"/>
<polygon fill="#9a32cd" stroke="#9a32cd" points="275.015,-186.503 265.607,-191.376 276,-193.433 275.015,-186.503"/>
<text text-anchor="middle" x="324" y="-193" font-family="Helvetica,sans-Serif" font-size="10.00">stroker</text>
</g>
<!-- Node22 -->
<g id="node47" class="node"><title>Node22</title>
<polygon fill="none" stroke="#bfbfbf" points="174.5,-148.5 174.5,-169.5 249.5,-169.5 249.5,-148.5 174.5,-148.5"/>
<text text-anchor="middle" x="212" y="-156.5" font-family="Helvetica,sans-Serif" font-size="10.00">QPainterPath</text>
</g>
<!-- Node22&#45;&gt;Node19 -->
<g id="edge52" class="edge"><title>Node22&#45;&gt;Node19</title>
<path fill="none" stroke="#9a32cd" stroke-dasharray="5,2" d="M259.963,-160.477C289.882,-161.424 329.187,-162.712 364,-164 377.563,-164.502 392.541,-165.108 405.382,-165.644"/>
<polygon fill="#9a32cd" stroke="#9a32cd" points="259.9,-156.974 249.795,-160.157 259.68,-163.97 259.9,-156.974"/>
<text text-anchor="middle" x="324" y="-168" font-family="Helvetica,sans-Serif" font-size="10.00">knot</text>
</g>
<!-- Node23 -->
<g id="node50" class="node"><title>Node23</title>
<polygon fill="none" stroke="#bfbfbf" points="194.5,-108.5 194.5,-129.5 229.5,-129.5 229.5,-108.5 194.5,-108.5"/>
<text text-anchor="middle" x="212" y="-116.5" font-family="Helvetica,sans-Serif" font-size="10.00">long</text>
</g>
<!-- Node23&#45;&gt;Node19 -->
<g id="edge56" class="edge"><title>Node23&#45;&gt;Node19</title>
<path fill="none" stroke="#9a32cd" stroke-dasharray="5,2" d="M239.891,-122.717C270.535,-127.046 321.106,-134.908 364,-145 377.658,-148.213 392.521,-152.537 405.25,-156.502"/>
<polygon fill="#9a32cd" stroke="#9a32cd" points="240.314,-119.243 229.928,-121.336 239.352,-126.176 240.314,-119.243"/>
<text text-anchor="middle" x="324" y="-149" font-family="Helvetica,sans-Serif" font-size="10.00">curve_style</text>
</g>
<!-- Node24 -->
<g id="node52" class="node"><title>Node24</title>
<polygon fill="none" stroke="#bfbfbf" points="168,-57.5 168,-78.5 256,-78.5 256,-57.5 168,-57.5"/>
<text text-anchor="middle" x="212" y="-65.5" font-family="Helvetica,sans-Serif" font-size="10.00">QList&lt; Node * &gt;</text>
</g>
<!-- Node24&#45;&gt;Node10 -->
<g id="edge60" class="edge"><title>Node24&#45;&gt;Node10</title>
<path fill="none" stroke="#9a32cd" stroke-dasharray="5,2" d="M266.282,-68.1144C344.688,-71.2998 489.273,-88.9741 572,-172 609.205,-209.34 627.544,-272.429 633.625,-297.383"/>
<polygon fill="#9a32cd" stroke="#9a32cd" points="266.247,-64.6112 256.133,-67.7683 266.008,-71.6072 266.247,-64.6112"/>
<text text-anchor="middle" x="437" y="-120" font-family="Helvetica,sans-Serif" font-size="10.00">moved_nodes</text>
</g>
<!-- Node24&#45;&gt;Node19 -->
<g id="edge58" class="edge"><title>Node24&#45;&gt;Node19</title>
<path fill="none" stroke="#9a32cd" stroke-dasharray="5,2" d="M265.927,-79.0992C295.787,-86.4279 333.018,-97.5589 364,-113 387.703,-124.814 411.734,-144.378 425.455,-156.432"/>
<polygon fill="#9a32cd" stroke="#9a32cd" points="266.642,-75.6716 256.103,-76.7588 265.02,-82.481 266.642,-75.6716"/>
<text text-anchor="middle" x="324" y="-117" font-family="Helvetica,sans-Serif" font-size="10.00">nodes</text>
</g>
<!-- Node25 -->
<g id="node55" class="node"><title>Node25</title>
<polygon fill="none" stroke="#bfbfbf" points="404.5,-0.5 404.5,-21.5 469.5,-21.5 469.5,-0.5 404.5,-0.5"/>
<text text-anchor="middle" x="437" y="-8.5" font-family="Helvetica,sans-Serif" font-size="10.00">mode_type</text>
</g>
<!-- Node25&#45;&gt;Node10 -->
<g id="edge62" class="edge"><title>Node25&#45;&gt;Node10</title>
<path fill="none" stroke="#9a32cd" stroke-dasharray="5,2" d="M479.743,-5.7501C509.296,-4.60492 547.549,-8.43041 572,-31 612.439,-68.3274 630.989,-250.812 635.1,-297.239"/>
<polygon fill="#9a32cd" stroke="#9a32cd" points="479.467,-2.26015 469.69,-6.33988 479.877,-9.24814 479.467,-2.26015"/>
<text text-anchor="middle" x="541" y="-35" font-family="Helvetica,sans-Serif" font-size="10.00">mode</text>
</g>
</g>
</svg>
