<?xml version="1.0" encoding="UTF-8" standalone="no"?>
<!DOCTYPE svg PUBLIC "-//W3C//DTD SVG 1.1//EN"
 "http://www.w3.org/Graphics/SVG/1.1/DTD/svg11.dtd">
<!-- Generated by graphviz version 2.26.3 (20100126.1600)
 -->
<!-- Title: G Pages: 1 -->
<svg width="320pt" height="323pt"
 viewBox="0.00 0.00 320.00 323.00" xmlns="http://www.w3.org/2000/svg" xmlns:xlink="http://www.w3.org/1999/xlink">
<g id="graph1" class="graph" transform="scale(1 1) rotate(0) translate(4 319)">
<title>G</title>
<!-- Node1 -->
<g id="node1" class="node"><title>Node1</title>
<polygon fill="#bfbfbf" stroke="black" points="222.5,-116.5 222.5,-137.5 311.5,-137.5 311.5,-116.5 222.5,-116.5"/>
<text text-anchor="middle" x="267" y="-124.5" font-family="Helvetica,sans-Serif" font-size="10.00">Ui_config_dialog</text>
</g>
<!-- Node2 -->
<g id="node2" class="node"><title>Node2</title>
<polygon fill="none" stroke="#bfbfbf" points="13.5,-289.5 13.5,-310.5 90.5,-310.5 90.5,-289.5 13.5,-289.5"/>
<text text-anchor="middle" x="52" y="-297.5" font-family="Helvetica,sans-Serif" font-size="10.00">QCheckBox *</text>
</g>
<!-- Node2&#45;&gt;Node1 -->
<g id="edge2" class="edge"><title>Node2&#45;&gt;Node1</title>
<path fill="none" stroke="#9a32cd" stroke-dasharray="5,2" d="M100.888,-303.488C133.31,-303.246 175.056,-297.728 204,-275 249.244,-239.472 262.467,-165.289 265.907,-137.666"/>
<polygon fill="#9a32cd" stroke="#9a32cd" points="100.748,-299.987 90.717,-303.396 100.685,-306.986 100.748,-299.987"/>
<text text-anchor="middle" x="163" y="-306" font-family="Helvetica,sans-Serif" font-size="10.00">fluid_check</text>
</g>
<!-- Node3 -->
<g id="node4" class="node"><title>Node3</title>
<polygon fill="none" stroke="#bfbfbf" points="13,-240.5 13,-261.5 91,-261.5 91,-240.5 13,-240.5"/>
<text text-anchor="middle" x="52" y="-248.5" font-family="Helvetica,sans-Serif" font-size="10.00">QGridLayout *</text>
</g>
<!-- Node3&#45;&gt;Node1 -->
<g id="edge4" class="edge"><title>Node3&#45;&gt;Node1</title>
<path fill="none" stroke="#9a32cd" stroke-dasharray="5,2" d="M101.458,-247.603C139.217,-244.206 187.483,-237.883 204,-227 237.412,-204.985 256.476,-158.487 263.665,-137.578"/>
<polygon fill="#9a32cd" stroke="#9a32cd" points="100.788,-244.147 91.122,-248.485 101.383,-251.122 100.788,-244.147"/>
<text text-anchor="middle" x="163" y="-262" font-family="Helvetica,sans-Serif" font-size="10.00">gridLayout</text>
<text text-anchor="middle" x="163" y="-249" font-family="Helvetica,sans-Serif" font-size="10.00">gridLayout_2</text>
</g>
<!-- Node4 -->
<g id="node6" class="node"><title>Node4</title>
<polygon fill="none" stroke="#bfbfbf" points="12,-178.5 12,-199.5 92,-199.5 92,-178.5 12,-178.5"/>
<text text-anchor="middle" x="52" y="-186.5" font-family="Helvetica,sans-Serif" font-size="10.00">QComboBox *</text>
</g>
<!-- Node4&#45;&gt;Node1 -->
<g id="edge6" class="edge"><title>Node4&#45;&gt;Node1</title>
<path fill="none" stroke="#9a32cd" stroke-dasharray="5,2" d="M102.488,-187.016C132.714,-184.538 171.456,-179.054 204,-167 222.71,-160.07 241.708,-147.003 253.876,-137.69"/>
<polygon fill="#9a32cd" stroke="#9a32cd" points="101.893,-183.55 92.1766,-187.773 102.406,-190.532 101.893,-183.55"/>
<text text-anchor="middle" x="163" y="-214" font-family="Helvetica,sans-Serif" font-size="10.00">icon_size_combo</text>
<text text-anchor="middle" x="163" y="-201" font-family="Helvetica,sans-Serif" font-size="10.00">language_combo</text>
<text text-anchor="middle" x="163" y="-188" font-family="Helvetica,sans-Serif" font-size="10.00">icon_show_combo</text>
</g>
<!-- Node5 -->
<g id="node8" class="node"><title>Node5</title>
<polygon fill="none" stroke="#bfbfbf" points="25,-120.5 25,-141.5 79,-141.5 79,-120.5 25,-120.5"/>
<text text-anchor="middle" x="52" y="-128.5" font-family="Helvetica,sans-Serif" font-size="10.00">QLabel *</text>
</g>
<!-- Node5&#45;&gt;Node1 -->
<g id="edge8" class="edge"><title>Node5&#45;&gt;Node1</title>
<path fill="none" stroke="#9a32cd" stroke-dasharray="5,2" d="M89.4096,-129.148C99.9474,-128.694 111.421,-128.263 122,-128 155.597,-127.164 193.586,-126.928 222.249,-126.894"/>
<polygon fill="#9a32cd" stroke="#9a32cd" points="89.0843,-125.659 79.2515,-129.604 89.3986,-132.652 89.0843,-125.659"/>
<text text-anchor="middle" x="163" y="-158" font-family="Helvetica,sans-Serif" font-size="10.00">label_2</text>
<text text-anchor="middle" x="163" y="-145" font-family="Helvetica,sans-Serif" font-size="10.00">label_3</text>
<text text-anchor="middle" x="163" y="-132" font-family="Helvetica,sans-Serif" font-size="10.00">label</text>
</g>
<!-- Node6 -->
<g id="node10" class="node"><title>Node6</title>
<polygon fill="none" stroke="#bfbfbf" points="15,-80.5 15,-101.5 89,-101.5 89,-80.5 15,-80.5"/>
<text text-anchor="middle" x="52" y="-88.5" font-family="Helvetica,sans-Serif" font-size="10.00">QGroupBox *</text>
</g>
<!-- Node6&#45;&gt;Node1 -->
<g id="edge10" class="edge"><title>Node6&#45;&gt;Node1</title>
<path fill="none" stroke="#9a32cd" stroke-dasharray="5,2" d="M99.3577,-94.6381C129.505,-97.4385 169.274,-102.03 204,-109 213.814,-110.97 224.326,-113.712 233.895,-116.464"/>
<polygon fill="#9a32cd" stroke="#9a32cd" points="99.3917,-91.1273 89.1194,-93.7214 98.7674,-98.0994 99.3917,-91.1273"/>
<text text-anchor="middle" x="163" y="-113" font-family="Helvetica,sans-Serif" font-size="10.00">groupBox</text>
</g>
<!-- Node7 -->
<g id="node12" class="node"><title>Node7</title>
<polygon fill="none" stroke="#bfbfbf" points="0,-40.5 0,-61.5 104,-61.5 104,-40.5 0,-40.5"/>
<text text-anchor="middle" x="52" y="-48.5" font-family="Helvetica,sans-Serif" font-size="10.00">QDialogButtonBox *</text>
</g>
<!-- Node7&#45;&gt;Node1 -->
<g id="edge12" class="edge"><title>Node7&#45;&gt;Node1</title>
<path fill="none" stroke="#9a32cd" stroke-dasharray="5,2" d="M114.216,-56.4308C142.503,-60.5032 175.861,-67.611 204,-80 224.232,-88.9078 244.086,-105.363 255.939,-116.246"/>
<polygon fill="#9a32cd" stroke="#9a32cd" points="114.421,-52.9268 104.043,-55.0635 113.488,-59.8644 114.421,-52.9268"/>
<text text-anchor="middle" x="163" y="-84" font-family="Helvetica,sans-Serif" font-size="10.00">buttonBox</text>
</g>
<!-- Node8 -->
<g id="node14" class="node"><title>Node8</title>
<polygon fill="none" stroke="#bfbfbf" points="11.5,-0.5 11.5,-21.5 92.5,-21.5 92.5,-0.5 11.5,-0.5"/>
<text text-anchor="middle" x="52" y="-8.5" font-family="Helvetica,sans-Serif" font-size="10.00">QSpacerItem *</text>
</g>
<!-- Node8&#45;&gt;Node1 -->
<g id="edge14" class="edge"><title>Node8&#45;&gt;Node1</title>
<path fill="none" stroke="#9a32cd" stroke-dasharray="5,2" d="M103.007,-11.401C134.286,-13.8032 173.956,-20.8998 204,-40 233.901,-59.0094 254.121,-97.725 262.559,-116.424"/>
<polygon fill="#9a32cd" stroke="#9a32cd" points="102.947,-7.89036 92.7466,-10.7557 102.507,-14.8766 102.947,-7.89036"/>
<text text-anchor="middle" x="163" y="-44" font-family="Helvetica,sans-Serif" font-size="10.00">verticalSpacer</text>
</g>
</g>
</svg>
