<?xml version="1.0" encoding="UTF-8" standalone="no"?>
<!DOCTYPE svg PUBLIC "-//W3C//DTD SVG 1.1//EN"
 "http://www.w3.org/Graphics/SVG/1.1/DTD/svg11.dtd">
<!-- Generated by graphviz version 2.26.3 (20100126.1600)
 -->
<!-- Title: G Pages: 1 -->
<svg width="808pt" height="583pt"
 viewBox="0.00 0.00 808.00 583.00" xmlns="http://www.w3.org/2000/svg" xmlns:xlink="http://www.w3.org/1999/xlink">
<g id="graph1" class="graph" transform="scale(1 1) rotate(0) translate(4 579)">
<title>G</title>
<!-- Node1 -->
<g id="node1" class="node"><title>Node1</title>
<polygon fill="#bfbfbf" stroke="black" points="730.5,-379.5 730.5,-400.5 799.5,-400.5 799.5,-379.5 730.5,-379.5"/>
<text text-anchor="middle" x="765" y="-387.5" font-family="Helvetica,sans-Serif" font-size="10.00">MoveNodes</text>
</g>
<!-- Node2 -->
<g id="node2" class="node"><title>Node2</title>
<a xlink:href="classQUndoCommand.html" target="_top" xlink:title="QUndoCommand">
<polygon fill="none" stroke="black" points="590,-452.5 590,-473.5 682,-473.5 682,-452.5 590,-452.5"/>
<text text-anchor="middle" x="636" y="-460.5" font-family="Helvetica,sans-Serif" font-size="10.00">QUndoCommand</text>
</a>
</g>
<!-- Node2&#45;&gt;Node1 -->
<g id="edge2" class="edge"><title>Node2&#45;&gt;Node1</title>
<path fill="none" stroke="midnightblue" d="M682.282,-448.896C692.384,-445.018 702.798,-440.373 712,-435 728.47,-425.384 744.799,-410.496 754.887,-400.507"/>
<polygon fill="midnightblue" stroke="midnightblue" points="680.936,-445.662 672.742,-452.378 683.336,-452.237 680.936,-445.662"/>
</g>
<!-- Node3 -->
<g id="node4" class="node"><title>Node3</title>
<a xlink:href="classNode.html" target="_top" xlink:title="Node">
<polygon fill="none" stroke="black" points="417,-457.5 417,-478.5 457,-478.5 457,-457.5 417,-457.5"/>
<text text-anchor="middle" x="437" y="-465.5" font-family="Helvetica,sans-Serif" font-size="10.00">Node</text>
</a>
</g>
<!-- Node3&#45;&gt;Node1 -->
<g id="edge4" class="edge"><title>Node3&#45;&gt;Node1</title>
<path fill="none" stroke="#9a32cd" stroke-dasharray="5,2" d="M466.967,-460.381C497.783,-452.588 547.185,-440.209 590,-430 638.657,-418.398 695.09,-405.621 730.423,-397.703"/>
<polygon fill="#9a32cd" stroke="#9a32cd" points="466.099,-456.99 457.265,-462.839 467.818,-463.776 466.099,-456.99"/>
<text text-anchor="middle" x="636" y="-434" font-family="Helvetica,sans-Serif" font-size="10.00">node</text>
</g>
<!-- Node10 -->
<g id="node18" class="node"><title>Node10</title>
<a xlink:href="classKnotView.html" target="_top" xlink:title="KnotView">
<polygon fill="none" stroke="black" points="606.5,-207.5 606.5,-228.5 665.5,-228.5 665.5,-207.5 606.5,-207.5"/>
<text text-anchor="middle" x="636" y="-215.5" font-family="Helvetica,sans-Serif" font-size="10.00">KnotView</text>
</a>
</g>
<!-- Node3&#45;&gt;Node10 -->
<g id="edge22" class="edge"><title>Node3&#45;&gt;Node10</title>
<path fill="none" stroke="#9a32cd" stroke-dasharray="5,2" d="M453.221,-450.062C467.561,-434.578 489.35,-411.939 510,-394 535.903,-371.498 550.028,-374.354 572,-348 604.057,-309.55 624.948,-252.323 632.662,-228.746"/>
<polygon fill="#9a32cd" stroke="#9a32cd" points="450.63,-447.71 446.447,-457.444 455.787,-452.442 450.63,-447.71"/>
<text text-anchor="middle" x="541" y="-398" font-family="Helvetica,sans-Serif" font-size="10.00">last_node</text>
</g>
<!-- Node4 -->
<g id="node6" class="node"><title>Node4</title>
<a xlink:href="classCustomItem.html" target="_top" xlink:title="CustomItem">
<polygon fill="none" stroke="black" points="176.5,-533.5 176.5,-554.5 247.5,-554.5 247.5,-533.5 176.5,-533.5"/>
<text text-anchor="middle" x="212" y="-541.5" font-family="Helvetica,sans-Serif" font-size="10.00">CustomItem</text>
</a>
</g>
<!-- Node4&#45;&gt;Node3 -->
<g id="edge6" class="edge"><title>Node4&#45;&gt;Node3</title>
<path fill="none" stroke="midnightblue" d="M257.609,-537.5C288.364,-532.228 329.472,-523.435 364,-510 385.121,-501.782 407.427,-488.118 421.74,-478.616"/>
<polygon fill="midnightblue" stroke="midnightblue" points="256.896,-534.07 247.601,-539.154 258.038,-540.976 256.896,-534.07"/>
</g>
<!-- Node5 -->
<g id="node8" class="node"><title>Node5</title>
<a xlink:href="classQGraphicsItem.html" target="_top" xlink:title="QGraphicsItem">
<polygon fill="none" stroke="black" points="0.5,-553.5 0.5,-574.5 83.5,-574.5 83.5,-553.5 0.5,-553.5"/>
<text text-anchor="middle" x="42" y="-561.5" font-family="Helvetica,sans-Serif" font-size="10.00">QGraphicsItem</text>
</a>
</g>
<!-- Node5&#45;&gt;Node4 -->
<g id="edge8" class="edge"><title>Node5&#45;&gt;Node4</title>
<path fill="none" stroke="midnightblue" d="M93.5537,-557.935C120.304,-554.788 152.312,-551.022 176.307,-548.199"/>
<polygon fill="midnightblue" stroke="midnightblue" points="93.1092,-554.463 83.5867,-559.107 93.9272,-561.415 93.1092,-554.463"/>
</g>
<!-- Node6 -->
<g id="node10" class="node"><title>Node6</title>
<polygon fill="none" stroke="#bfbfbf" points="24.5,-513.5 24.5,-534.5 59.5,-534.5 59.5,-513.5 24.5,-513.5"/>
<text text-anchor="middle" x="42" y="-521.5" font-family="Helvetica,sans-Serif" font-size="10.00">bool</text>
</g>
<!-- Node6&#45;&gt;Node4 -->
<g id="edge10" class="edge"><title>Node6&#45;&gt;Node4</title>
<path fill="none" stroke="#9a32cd" stroke-dasharray="5,2" d="M69.7979,-527.026C89.4223,-529.185 116.331,-532.192 140,-535 151.884,-536.41 164.863,-538.012 176.488,-539.471"/>
<polygon fill="#9a32cd" stroke="#9a32cd" points="70.0336,-523.531 59.7117,-525.92 69.2707,-530.489 70.0336,-523.531"/>
<text text-anchor="middle" x="121" y="-539" font-family="Helvetica,sans-Serif" font-size="10.00">highlight</text>
</g>
<!-- Node7 -->
<g id="node12" class="node"><title>Node7</title>
<polygon fill="none" stroke="#bfbfbf" points="197.5,-493.5 197.5,-514.5 226.5,-514.5 226.5,-493.5 197.5,-493.5"/>
<text text-anchor="middle" x="212" y="-501.5" font-family="Helvetica,sans-Serif" font-size="10.00">int</text>
</g>
<!-- Node7&#45;&gt;Node3 -->
<g id="edge12" class="edge"><title>Node7&#45;&gt;Node3</title>
<path fill="none" stroke="#9a32cd" stroke-dasharray="5,2" d="M236.812,-500.03C281.709,-492.847 375.591,-477.825 416.835,-471.226"/>
<polygon fill="#9a32cd" stroke="#9a32cd" points="236.084,-496.602 226.763,-501.638 237.19,-503.514 236.084,-496.602"/>
<text text-anchor="middle" x="324" y="-497" font-family="Helvetica,sans-Serif" font-size="10.00">radius</text>
</g>
<!-- Node8 -->
<g id="node14" class="node"><title>Node8</title>
<polygon fill="none" stroke="#bfbfbf" points="168.5,-435.5 168.5,-456.5 255.5,-456.5 255.5,-435.5 168.5,-435.5"/>
<text text-anchor="middle" x="212" y="-443.5" font-family="Helvetica,sans-Serif" font-size="10.00">QList&lt; Edge * &gt;</text>
</g>
<!-- Node8&#45;&gt;Node3 -->
<g id="edge14" class="edge"><title>Node8&#45;&gt;Node3</title>
<path fill="none" stroke="#9a32cd" stroke-dasharray="5,2" d="M265.672,-451.248C314.177,-455.991 382.985,-462.719 416.737,-466.019"/>
<polygon fill="#9a32cd" stroke="#9a32cd" points="265.942,-447.758 255.649,-450.268 265.261,-454.725 265.942,-447.758"/>
<text text-anchor="middle" x="324" y="-465" font-family="Helvetica,sans-Serif" font-size="10.00">edges</text>
</g>
<!-- Node16 -->
<g id="node32" class="node"><title>Node16</title>
<a xlink:href="classKnotGraph.html" target="_top" xlink:title="KnotGraph">
<polygon fill="none" stroke="black" points="405.5,-249.5 405.5,-270.5 468.5,-270.5 468.5,-249.5 405.5,-249.5"/>
<text text-anchor="middle" x="437" y="-257.5" font-family="Helvetica,sans-Serif" font-size="10.00">KnotGraph</text>
</a>
</g>
<!-- Node8&#45;&gt;Node16 -->
<g id="edge44" class="edge"><title>Node8&#45;&gt;Node16</title>
<path fill="none" stroke="#9a32cd" stroke-dasharray="5,2" d="M255.996,-432.424C300.226,-418.686 362.156,-399.164 364,-397 398.126,-356.957 348.619,-320.666 382,-280 387.866,-272.853 396.512,-268.261 405.219,-265.309"/>
<polygon fill="#9a32cd" stroke="#9a32cd" points="254.812,-429.127 246.298,-435.432 256.886,-435.812 254.812,-429.127"/>
<text text-anchor="middle" x="324" y="-440" font-family="Helvetica,sans-Serif" font-size="10.00">traversed_edges</text>
<text text-anchor="middle" x="324" y="-427" font-family="Helvetica,sans-Serif" font-size="10.00">edges</text>
</g>
<!-- Node9 -->
<g id="node16" class="node"><title>Node9</title>
<polygon fill="none" stroke="#bfbfbf" points="410.5,-339.5 410.5,-360.5 463.5,-360.5 463.5,-339.5 410.5,-339.5"/>
<text text-anchor="middle" x="437" y="-347.5" font-family="Helvetica,sans-Serif" font-size="10.00">QPointF</text>
</g>
<!-- Node9&#45;&gt;Node1 -->
<g id="edge16" class="edge"><title>Node9&#45;&gt;Node1</title>
<path fill="none" stroke="#9a32cd" stroke-dasharray="5,2" d="M473.8,-352.206C521.862,-355.372 608.538,-362.061 682,-373 698.003,-375.383 715.578,-378.857 730.419,-382.044"/>
<polygon fill="#9a32cd" stroke="#9a32cd" points="473.784,-348.698 463.58,-351.548 473.334,-355.683 473.784,-348.698"/>
<text text-anchor="middle" x="636" y="-390" font-family="Helvetica,sans-Serif" font-size="10.00">end_pos</text>
<text text-anchor="middle" x="636" y="-377" font-family="Helvetica,sans-Serif" font-size="10.00">start_pos</text>
</g>
<!-- Node9&#45;&gt;Node10 -->
<g id="edge28" class="edge"><title>Node9&#45;&gt;Node10</title>
<path fill="none" stroke="#9a32cd" stroke-dasharray="5,2" d="M473.776,-342.605C502.555,-335.485 542.506,-322.552 572,-301 599.326,-281.032 620.729,-246.265 630.391,-228.745"/>
<polygon fill="#9a32cd" stroke="#9a32cd" points="472.652,-339.273 463.719,-344.97 474.254,-346.087 472.652,-339.273"/>
<text text-anchor="middle" x="541" y="-335" font-family="Helvetica,sans-Serif" font-size="10.00">oldpos</text>
</g>
<!-- Node10&#45;&gt;Node1 -->
<g id="edge18" class="edge"><title>Node10&#45;&gt;Node1</title>
<path fill="none" stroke="#9a32cd" stroke-dasharray="5,2" d="M650.021,-236.694C677.02,-272.694 735.456,-350.607 756.898,-379.198"/>
<polygon fill="#9a32cd" stroke="#9a32cd" points="652.675,-234.4 643.875,-228.5 647.075,-238.6 652.675,-234.4"/>
<text text-anchor="middle" x="706" y="-319" font-family="Helvetica,sans-Serif" font-size="10.00">kv</text>
</g>
<!-- Node11 -->
<g id="node20" class="node"><title>Node11</title>
<a xlink:href="classQGraphicsView.html" target="_top" xlink:title="QGraphicsView">
<polygon fill="none" stroke="black" points="394.5,-120.5 394.5,-141.5 479.5,-141.5 479.5,-120.5 394.5,-120.5"/>
<text text-anchor="middle" x="437" y="-128.5" font-family="Helvetica,sans-Serif" font-size="10.00">QGraphicsView</text>
</a>
</g>
<!-- Node11&#45;&gt;Node10 -->
<g id="edge20" class="edge"><title>Node11&#45;&gt;Node10</title>
<path fill="none" stroke="midnightblue" d="M489.119,-144.327C514.74,-151.787 545.686,-162.181 572,-175 590.532,-184.028 609.928,-197.755 622.442,-207.261"/>
<polygon fill="midnightblue" stroke="midnightblue" points="489.797,-140.882 479.221,-141.513 487.882,-147.615 489.797,-140.882"/>
</g>
<!-- Node12 -->
<g id="node23" class="node"><title>Node12</title>
<polygon fill="none" stroke="#bfbfbf" points="400.5,-80.5 400.5,-101.5 473.5,-101.5 473.5,-80.5 400.5,-80.5"/>
<text text-anchor="middle" x="437" y="-88.5" font-family="Helvetica,sans-Serif" font-size="10.00">QUndoStack</text>
</g>
<!-- Node12&#45;&gt;Node10 -->
<g id="edge24" class="edge"><title>Node12&#45;&gt;Node10</title>
<path fill="none" stroke="#9a32cd" stroke-dasharray="5,2" d="M483.339,-98.4758C510.971,-104.622 545.679,-115.445 572,-134 600.022,-153.754 621.255,-189.47 630.665,-207.288"/>
<polygon fill="#9a32cd" stroke="#9a32cd" points="484.013,-95.041 473.508,-96.4173 482.578,-101.892 484.013,-95.041"/>
<text text-anchor="middle" x="541" y="-138" font-family="Helvetica,sans-Serif" font-size="10.00">undo_stack</text>
</g>
<!-- Node13 -->
<g id="node25" class="node"><title>Node13</title>
<polygon fill="none" stroke="#bfbfbf" points="386,-40.5 386,-61.5 488,-61.5 488,-40.5 386,-40.5"/>
<text text-anchor="middle" x="437" y="-48.5" font-family="Helvetica,sans-Serif" font-size="10.00">mouse_status_type</text>
</g>
<!-- Node13&#45;&gt;Node10 -->
<g id="edge26" class="edge"><title>Node13&#45;&gt;Node10</title>
<path fill="none" stroke="#9a32cd" stroke-dasharray="5,2" d="M497.978,-57.718C523.148,-63.0785 551.226,-72.7079 572,-90 610.382,-121.949 627.946,-182.636 633.722,-207.238"/>
<polygon fill="#9a32cd" stroke="#9a32cd" points="498.617,-54.2768 488.133,-55.8011 497.279,-61.1478 498.617,-54.2768"/>
<text text-anchor="middle" x="541" y="-94" font-family="Helvetica,sans-Serif" font-size="10.00">mouse_status</text>
</g>
<!-- Node14 -->
<g id="node28" class="node"><title>Node14</title>
<polygon fill="none" stroke="#bfbfbf" points="382,-0.5 382,-21.5 492,-21.5 492,-0.5 382,-0.5"/>
<text text-anchor="middle" x="437" y="-8.5" font-family="Helvetica,sans-Serif" font-size="10.00">QGraphicsRectItem *</text>
</g>
<!-- Node14&#45;&gt;Node10 -->
<g id="edge30" class="edge"><title>Node14&#45;&gt;Node10</title>
<path fill="none" stroke="#9a32cd" stroke-dasharray="5,2" d="M502.148,-14.1753C526.548,-18.3918 552.942,-26.9777 572,-44 622.171,-88.8127 633.08,-176.429 635.394,-207.09"/>
<polygon fill="#9a32cd" stroke="#9a32cd" points="502.613,-10.7058 492.202,-12.6707 501.566,-17.6271 502.613,-10.7058"/>
<text text-anchor="middle" x="541" y="-48" font-family="Helvetica,sans-Serif" font-size="10.00">rubberband</text>
</g>
<!-- Node15 -->
<g id="node30" class="node"><title>Node15</title>
<polygon fill="none" stroke="#bfbfbf" points="383.5,-289.5 383.5,-310.5 490.5,-310.5 490.5,-289.5 383.5,-289.5"/>
<text text-anchor="middle" x="437" y="-297.5" font-family="Helvetica,sans-Serif" font-size="10.00">QGraphicsLineItem *</text>
</g>
<!-- Node15&#45;&gt;Node10 -->
<g id="edge32" class="edge"><title>Node15&#45;&gt;Node10</title>
<path fill="none" stroke="#9a32cd" stroke-dasharray="5,2" d="M499.224,-287.031C522.652,-280.984 549.141,-272.715 572,-262 591.046,-253.072 610.645,-238.686 623.051,-228.81"/>
<polygon fill="#9a32cd" stroke="#9a32cd" points="498.245,-283.668 489.391,-289.487 499.941,-290.46 498.245,-283.668"/>
<text text-anchor="middle" x="541" y="-288" font-family="Helvetica,sans-Serif" font-size="10.00">guide</text>
</g>
<!-- Node16&#45;&gt;Node10 -->
<g id="edge34" class="edge"><title>Node16&#45;&gt;Node10</title>
<path fill="none" stroke="#9a32cd" stroke-dasharray="5,2" d="M478.8,-251.452C505.48,-245.966 540.792,-238.649 572,-232 583.235,-229.606 595.567,-226.922 606.382,-224.549"/>
<polygon fill="#9a32cd" stroke="#9a32cd" points="477.753,-248.094 468.662,-253.534 479.161,-254.951 477.753,-248.094"/>
<text text-anchor="middle" x="541" y="-249" font-family="Helvetica,sans-Serif" font-size="10.00">knot</text>
</g>
<!-- Node17 -->
<g id="node34" class="node"><title>Node17</title>
<a xlink:href="classQGraphicsPathItem.html" target="_top" xlink:title="QGraphicsPathItem">
<polygon fill="none" stroke="black" points="160.5,-335.5 160.5,-356.5 263.5,-356.5 263.5,-335.5 160.5,-335.5"/>
<text text-anchor="middle" x="212" y="-343.5" font-family="Helvetica,sans-Serif" font-size="10.00">QGraphicsPathItem</text>
</a>
</g>
<!-- Node17&#45;&gt;Node16 -->
<g id="edge36" class="edge"><title>Node17&#45;&gt;Node16</title>
<path fill="none" stroke="midnightblue" d="M273.62,-354.414C303.767,-355.186 338.877,-350.697 364,-331 382.916,-316.169 365.084,-297.077 382,-280 388.364,-273.576 396.95,-269.201 405.445,-266.227"/>
<polygon fill="midnightblue" stroke="midnightblue" points="273.755,-350.916 263.608,-353.965 273.441,-357.909 273.755,-350.916"/>
</g>
<!-- Node18 -->
<g id="node36" class="node"><title>Node18</title>
<polygon fill="none" stroke="#bfbfbf" points="189.5,-289.5 189.5,-310.5 234.5,-310.5 234.5,-289.5 189.5,-289.5"/>
<text text-anchor="middle" x="212" y="-297.5" font-family="Helvetica,sans-Serif" font-size="10.00">double</text>
</g>
<!-- Node18&#45;&gt;Node16 -->
<g id="edge38" class="edge"><title>Node18&#45;&gt;Node16</title>
<path fill="none" stroke="#9a32cd" stroke-dasharray="5,2" d="M244.857,-294.575C275.666,-289.442 322.999,-281.438 364,-274 377.586,-271.535 392.568,-268.685 405.406,-266.203"/>
<polygon fill="#9a32cd" stroke="#9a32cd" points="243.978,-291.173 234.687,-296.265 245.125,-298.079 243.978,-291.173"/>
<text text-anchor="middle" x="324" y="-318" font-family="Helvetica,sans-Serif" font-size="10.00">cusp_angle</text>
<text text-anchor="middle" x="324" y="-305" font-family="Helvetica,sans-Serif" font-size="10.00">crossing_distance</text>
<text text-anchor="middle" x="324" y="-292" font-family="Helvetica,sans-Serif" font-size="10.00">handle_length</text>
</g>
<!-- Node19 -->
<g id="node38" class="node"><title>Node19</title>
<polygon fill="none" stroke="#bfbfbf" points="158.5,-249.5 158.5,-270.5 265.5,-270.5 265.5,-249.5 158.5,-249.5"/>
<text text-anchor="middle" x="212" y="-257.5" font-family="Helvetica,sans-Serif" font-size="10.00">QPainterPathStroker</text>
</g>
<!-- Node19&#45;&gt;Node16 -->
<g id="edge40" class="edge"><title>Node19&#45;&gt;Node16</title>
<path fill="none" stroke="#9a32cd" stroke-dasharray="5,2" d="M275.825,-260C318.144,-260 371.848,-260 405.324,-260"/>
<polygon fill="#9a32cd" stroke="#9a32cd" points="275.607,-256.5 265.607,-260 275.607,-263.5 275.607,-256.5"/>
<text text-anchor="middle" x="324" y="-264" font-family="Helvetica,sans-Serif" font-size="10.00">stroker</text>
</g>
<!-- Node20 -->
<g id="node40" class="node"><title>Node20</title>
<polygon fill="none" stroke="#bfbfbf" points="174.5,-209.5 174.5,-230.5 249.5,-230.5 249.5,-209.5 174.5,-209.5"/>
<text text-anchor="middle" x="212" y="-217.5" font-family="Helvetica,sans-Serif" font-size="10.00">QPainterPath</text>
</g>
<!-- Node20&#45;&gt;Node16 -->
<g id="edge42" class="edge"><title>Node20&#45;&gt;Node16</title>
<path fill="none" stroke="#9a32cd" stroke-dasharray="5,2" d="M259.82,-226.254C289.837,-230.422 329.298,-236.345 364,-243 377.674,-245.623 392.671,-249.023 405.495,-252.092"/>
<polygon fill="#9a32cd" stroke="#9a32cd" points="260.002,-222.746 249.619,-224.854 259.051,-229.681 260.002,-222.746"/>
<text text-anchor="middle" x="324" y="-247" font-family="Helvetica,sans-Serif" font-size="10.00">knot</text>
</g>
<!-- Node21 -->
<g id="node43" class="node"><title>Node21</title>
<polygon fill="none" stroke="#bfbfbf" points="194.5,-375.5 194.5,-396.5 229.5,-396.5 229.5,-375.5 194.5,-375.5"/>
<text text-anchor="middle" x="212" y="-383.5" font-family="Helvetica,sans-Serif" font-size="10.00">long</text>
</g>
<!-- Node21&#45;&gt;Node16 -->
<g id="edge46" class="edge"><title>Node21&#45;&gt;Node16</title>
<path fill="none" stroke="#9a32cd" stroke-dasharray="5,2" d="M239.874,-384.257C278.788,-381.245 346.593,-373.706 364,-357 389.357,-332.665 358.672,-306.286 382,-280 388.07,-273.161 396.669,-268.658 405.27,-265.695"/>
<polygon fill="#9a32cd" stroke="#9a32cd" points="239.452,-380.778 229.73,-384.99 239.956,-387.76 239.452,-380.778"/>
<text text-anchor="middle" x="324" y="-384" font-family="Helvetica,sans-Serif" font-size="10.00">curve_style</text>
</g>
<!-- Node22 -->
<g id="node45" class="node"><title>Node22</title>
<polygon fill="none" stroke="#bfbfbf" points="168,-156.5 168,-177.5 256,-177.5 256,-156.5 168,-156.5"/>
<text text-anchor="middle" x="212" y="-164.5" font-family="Helvetica,sans-Serif" font-size="10.00">QList&lt; Node * &gt;</text>
</g>
<!-- Node22&#45;&gt;Node10 -->
<g id="edge50" class="edge"><title>Node22&#45;&gt;Node10</title>
<path fill="none" stroke="#9a32cd" stroke-dasharray="5,2" d="M266.368,-162.108C296.178,-161.397 333.218,-163.815 364,-176 373.683,-179.833 372.41,-186.942 382,-191 457.962,-223.145 557.626,-222.832 606.451,-220.258"/>
<polygon fill="#9a32cd" stroke="#9a32cd" points="266.014,-158.618 256.148,-162.478 266.268,-165.613 266.014,-158.618"/>
<text text-anchor="middle" x="437" y="-222" font-family="Helvetica,sans-Serif" font-size="10.00">moved_nodes</text>
</g>
<!-- Node22&#45;&gt;Node16 -->
<g id="edge48" class="edge"><title>Node22&#45;&gt;Node16</title>
<path fill="none" stroke="#9a32cd" stroke-dasharray="5,2" d="M266.302,-175.351C296.915,-181.957 334.762,-193.446 364,-213 374.501,-220.023 371.988,-227.296 382,-235 389.565,-240.821 398.701,-245.662 407.336,-249.485"/>
<polygon fill="#9a32cd" stroke="#9a32cd" points="266.719,-171.864 256.221,-173.294 265.319,-178.723 266.719,-171.864"/>
<text text-anchor="middle" x="324" y="-217" font-family="Helvetica,sans-Serif" font-size="10.00">nodes</text>
</g>
<!-- Node23 -->
<g id="node48" class="node"><title>Node23</title>
<polygon fill="none" stroke="#bfbfbf" points="404.5,-160.5 404.5,-181.5 469.5,-181.5 469.5,-160.5 404.5,-160.5"/>
<text text-anchor="middle" x="437" y="-168.5" font-family="Helvetica,sans-Serif" font-size="10.00">mode_type</text>
</g>
<!-- Node23&#45;&gt;Node10 -->
<g id="edge52" class="edge"><title>Node23&#45;&gt;Node10</title>
<path fill="none" stroke="#9a32cd" stroke-dasharray="5,2" d="M479.883,-174.565C506.71,-177.477 541.788,-182.536 572,-191 586.748,-195.132 602.614,-201.809 614.859,-207.489"/>
<polygon fill="#9a32cd" stroke="#9a32cd" points="479.972,-171.056 469.667,-173.516 479.257,-178.019 479.972,-171.056"/>
<text text-anchor="middle" x="541" y="-195" font-family="Helvetica,sans-Serif" font-size="10.00">mode</text>
</g>
</g>
</svg>
