<?xml version="1.0" encoding="UTF-8" standalone="no"?>
<!DOCTYPE svg PUBLIC "-//W3C//DTD SVG 1.1//EN"
 "http://www.w3.org/Graphics/SVG/1.1/DTD/svg11.dtd">
<!-- Generated by graphviz version 2.26.3 (20100126.1600)
 -->
<!-- Title: G Pages: 1 -->
<svg width="1040pt" height="1153pt"
 viewBox="0.00 0.00 1040.00 1153.00" xmlns="http://www.w3.org/2000/svg" xmlns:xlink="http://www.w3.org/1999/xlink">
<g id="graph1" class="graph" transform="scale(1 1) rotate(0) translate(4 1149)">
<title>G</title>
<!-- Node1 -->
<g id="node1" class="node"><title>Node1</title>
<polygon fill="#bfbfbf" stroke="black" points="948.5,-858.5 948.5,-879.5 1031.5,-879.5 1031.5,-858.5 948.5,-858.5"/>
<text text-anchor="middle" x="990" y="-866.5" font-family="Helvetica,sans-Serif" font-size="10.00">Ui::StyleDialog</text>
</g>
<!-- Node2 -->
<g id="node2" class="node"><title>Node2</title>
<a xlink:href="classUi__StyleDialog.html" target="_top" xlink:title="Ui_StyleDialog">
<polygon fill="none" stroke="black" points="828,-858.5 828,-879.5 910,-879.5 910,-858.5 828,-858.5"/>
<text text-anchor="middle" x="869" y="-866.5" font-family="Helvetica,sans-Serif" font-size="10.00">Ui_StyleDialog</text>
</a>
</g>
<!-- Node2&#45;&gt;Node1 -->
<g id="edge2" class="edge"><title>Node2&#45;&gt;Node1</title>
<path fill="none" stroke="midnightblue" d="M920.33,-869C929.72,-869 939.412,-869 948.472,-869"/>
<polygon fill="midnightblue" stroke="midnightblue" points="920.303,-865.5 910.303,-869 920.303,-872.5 920.303,-865.5"/>
</g>
<!-- Node3 -->
<g id="node4" class="node"><title>Node3</title>
<polygon fill="none" stroke="#bfbfbf" points="593,-1062.5 593,-1083.5 691,-1083.5 691,-1062.5 593,-1062.5"/>
<text text-anchor="middle" x="642" y="-1070.5" font-family="Helvetica,sans-Serif" font-size="10.00">QDoubleSpinBox *</text>
</g>
<!-- Node3&#45;&gt;Node2 -->
<g id="edge4" class="edge"><title>Node3&#45;&gt;Node2</title>
<path fill="none" stroke="#9a32cd" stroke-dasharray="5,2" d="M701.439,-1080C736.733,-1080.86 780.256,-1075.74 810,-1051 837.517,-1028.11 860.515,-914.79 867.103,-879.506"/>
<polygon fill="#9a32cd" stroke="#9a32cd" points="701.384,-1076.5 691.249,-1079.58 701.098,-1083.49 701.384,-1076.5"/>
<text text-anchor="middle" x="761" y="-1136" font-family="Helvetica,sans-Serif" font-size="10.00">outline_width_spinner</text>
<text text-anchor="middle" x="761" y="-1123" font-family="Helvetica,sans-Serif" font-size="10.00">knot_width_spinner</text>
<text text-anchor="middle" x="761" y="-1110" font-family="Helvetica,sans-Serif" font-size="10.00">handle_length_spinner</text>
<text text-anchor="middle" x="761" y="-1097" font-family="Helvetica,sans-Serif" font-size="10.00">crossing_gap_spinner</text>
<text text-anchor="middle" x="761" y="-1084" font-family="Helvetica,sans-Serif" font-size="10.00">cusp_angle_spinner</text>
</g>
<!-- Node4 -->
<g id="node6" class="node"><title>Node4</title>
<polygon fill="none" stroke="#bfbfbf" points="603,-1013.5 603,-1034.5 681,-1034.5 681,-1013.5 603,-1013.5"/>
<text text-anchor="middle" x="642" y="-1021.5" font-family="Helvetica,sans-Serif" font-size="10.00">QGridLayout *</text>
</g>
<!-- Node4&#45;&gt;Node2 -->
<g id="edge6" class="edge"><title>Node4&#45;&gt;Node2</title>
<path fill="none" stroke="#9a32cd" stroke-dasharray="5,2" d="M691.503,-1022.79C734.195,-1020.82 791.769,-1015.62 810,-1002 851.077,-971.305 864.108,-905.66 867.742,-879.795"/>
<polygon fill="#9a32cd" stroke="#9a32cd" points="691.122,-1019.3 681.276,-1023.22 691.413,-1026.3 691.122,-1019.3"/>
<text text-anchor="middle" x="761" y="-1038" font-family="Helvetica,sans-Serif" font-size="10.00">gridLayout</text>
<text text-anchor="middle" x="761" y="-1025" font-family="Helvetica,sans-Serif" font-size="10.00">gridLayout_2</text>
</g>
<!-- Node5 -->
<g id="node8" class="node"><title>Node5</title>
<polygon fill="none" stroke="#bfbfbf" points="602,-966.5 602,-987.5 682,-987.5 682,-966.5 602,-966.5"/>
<text text-anchor="middle" x="642" y="-974.5" font-family="Helvetica,sans-Serif" font-size="10.00">QComboBox *</text>
</g>
<!-- Node5&#45;&gt;Node2 -->
<g id="edge8" class="edge"><title>Node5&#45;&gt;Node2</title>
<path fill="none" stroke="#9a32cd" stroke-dasharray="5,2" d="M692.461,-974.187C734.609,-971.047 790.8,-964.776 810,-953 838.711,-935.39 857.187,-897.997 864.891,-879.631"/>
<polygon fill="#9a32cd" stroke="#9a32cd" points="692.079,-970.706 682.35,-974.902 692.572,-977.688 692.079,-970.706"/>
<text text-anchor="middle" x="761" y="-989" font-family="Helvetica,sans-Serif" font-size="10.00">point_combo</text>
<text text-anchor="middle" x="761" y="-976" font-family="Helvetica,sans-Serif" font-size="10.00">style_combo</text>
</g>
<!-- Node6 -->
<g id="node10" class="node"><title>Node6</title>
<polygon fill="none" stroke="#bfbfbf" points="605,-926.5 605,-947.5 679,-947.5 679,-926.5 605,-926.5"/>
<text text-anchor="middle" x="642" y="-934.5" font-family="Helvetica,sans-Serif" font-size="10.00">QGroupBox *</text>
</g>
<!-- Node6&#45;&gt;Node2 -->
<g id="edge10" class="edge"><title>Node6&#45;&gt;Node2</title>
<path fill="none" stroke="#9a32cd" stroke-dasharray="5,2" d="M689.552,-938.311C724.221,-937.633 771.642,-933.25 810,-917 829.94,-908.552 848.546,-891.229 859.343,-879.869"/>
<polygon fill="#9a32cd" stroke="#9a32cd" points="689.192,-934.814 679.227,-938.411 689.26,-941.814 689.192,-934.814"/>
<text text-anchor="middle" x="761" y="-941" font-family="Helvetica,sans-Serif" font-size="10.00">groupBox</text>
</g>
<!-- Node7 -->
<g id="node12" class="node"><title>Node7</title>
<polygon fill="none" stroke="#bfbfbf" points="615,-790.5 615,-811.5 669,-811.5 669,-790.5 615,-790.5"/>
<text text-anchor="middle" x="642" y="-798.5" font-family="Helvetica,sans-Serif" font-size="10.00">QLabel *</text>
</g>
<!-- Node7&#45;&gt;Node2 -->
<g id="edge12" class="edge"><title>Node7&#45;&gt;Node2</title>
<path fill="none" stroke="#9a32cd" stroke-dasharray="5,2" d="M679.085,-790.546C714.526,-782.648 768.54,-776.2 810,-796 837.204,-808.991 855.901,-841.329 864.18,-858.267"/>
<polygon fill="#9a32cd" stroke="#9a32cd" points="678.083,-787.187 669.163,-792.904 679.701,-793.997 678.083,-787.187"/>
<text text-anchor="middle" x="761" y="-904" font-family="Helvetica,sans-Serif" font-size="10.00">label_2</text>
<text text-anchor="middle" x="761" y="-891" font-family="Helvetica,sans-Serif" font-size="10.00">label_3</text>
<text text-anchor="middle" x="761" y="-878" font-family="Helvetica,sans-Serif" font-size="10.00">label_4</text>
<text text-anchor="middle" x="761" y="-865" font-family="Helvetica,sans-Serif" font-size="10.00">label_5</text>
<text text-anchor="middle" x="761" y="-852" font-family="Helvetica,sans-Serif" font-size="10.00">label_6</text>
<text text-anchor="middle" x="761" y="-839" font-family="Helvetica,sans-Serif" font-size="10.00">label_7</text>
<text text-anchor="middle" x="761" y="-826" font-family="Helvetica,sans-Serif" font-size="10.00">label_8</text>
<text text-anchor="middle" x="761" y="-813" font-family="Helvetica,sans-Serif" font-size="10.00">label_9</text>
<text text-anchor="middle" x="761" y="-800" font-family="Helvetica,sans-Serif" font-size="10.00">label</text>
</g>
<!-- Node8 -->
<g id="node14" class="node"><title>Node8</title>
<polygon fill="none" stroke="#bfbfbf" points="590,-750.5 590,-771.5 694,-771.5 694,-750.5 590,-750.5"/>
<text text-anchor="middle" x="642" y="-758.5" font-family="Helvetica,sans-Serif" font-size="10.00">QDialogButtonBox *</text>
</g>
<!-- Node8&#45;&gt;Node2 -->
<g id="edge14" class="edge"><title>Node8&#45;&gt;Node2</title>
<path fill="none" stroke="#9a32cd" stroke-dasharray="5,2" d="M698.113,-749.072C732.737,-744.773 776.734,-745.092 810,-765 845.091,-786 861.113,-836.266 866.635,-858.32"/>
<polygon fill="#9a32cd" stroke="#9a32cd" points="697.572,-745.613 688.153,-750.465 698.542,-752.546 697.572,-745.613"/>
<text text-anchor="middle" x="761" y="-769" font-family="Helvetica,sans-Serif" font-size="10.00">buttonBox</text>
</g>
<!-- Node9 -->
<g id="node16" class="node"><title>Node9</title>
<a xlink:href="classColorWidget.html" target="_top" xlink:title="ColorWidget">
<polygon fill="none" stroke="black" points="606.5,-706.5 606.5,-727.5 677.5,-727.5 677.5,-706.5 606.5,-706.5"/>
<text text-anchor="middle" x="642" y="-714.5" font-family="Helvetica,sans-Serif" font-size="10.00">ColorWidget</text>
</a>
</g>
<!-- Node9&#45;&gt;Node2 -->
<g id="edge16" class="edge"><title>Node9&#45;&gt;Node2</title>
<path fill="none" stroke="#9a32cd" stroke-dasharray="5,2" d="M685.074,-704.102C721.569,-695.925 773.618,-691.036 810,-716 834.766,-732.993 858.787,-825.913 866.467,-858.055"/>
<polygon fill="#9a32cd" stroke="#9a32cd" points="684.123,-700.731 675.219,-706.474 685.761,-707.537 684.123,-700.731"/>
<text text-anchor="middle" x="761" y="-733" font-family="Helvetica,sans-Serif" font-size="10.00">outline_color</text>
<text text-anchor="middle" x="761" y="-720" font-family="Helvetica,sans-Serif" font-size="10.00">color</text>
</g>
<!-- Node10 -->
<g id="node18" class="node"><title>Node10</title>
<a xlink:href="classQLineEdit.html" target="_top" xlink:title="QLineEdit">
<polygon fill="none" stroke="black" points="407.5,-706.5 407.5,-727.5 466.5,-727.5 466.5,-706.5 407.5,-706.5"/>
<text text-anchor="middle" x="437" y="-714.5" font-family="Helvetica,sans-Serif" font-size="10.00">QLineEdit</text>
</a>
</g>
<!-- Node10&#45;&gt;Node9 -->
<g id="edge18" class="edge"><title>Node10&#45;&gt;Node9</title>
<path fill="none" stroke="midnightblue" d="M476.887,-717C514.44,-717 570.169,-717 606.293,-717"/>
<polygon fill="midnightblue" stroke="midnightblue" points="476.809,-713.5 466.809,-717 476.809,-720.5 476.809,-713.5"/>
</g>
<!-- Node11 -->
<g id="node20" class="node"><title>Node11</title>
<polygon fill="none" stroke="#bfbfbf" points="399.5,-746.5 399.5,-767.5 474.5,-767.5 474.5,-746.5 399.5,-746.5"/>
<text text-anchor="middle" x="437" y="-754.5" font-family="Helvetica,sans-Serif" font-size="10.00">QColorDialog</text>
</g>
<!-- Node11&#45;&gt;Node9 -->
<g id="edge20" class="edge"><title>Node11&#45;&gt;Node9</title>
<path fill="none" stroke="#9a32cd" stroke-dasharray="5,2" d="M484.477,-747.942C510.358,-742.983 542.949,-736.702 572,-731 583.188,-728.804 595.376,-726.378 606.399,-724.171"/>
<polygon fill="#9a32cd" stroke="#9a32cd" points="483.712,-744.525 474.549,-749.843 485.028,-751.4 483.712,-744.525"/>
<text text-anchor="middle" x="541" y="-746" font-family="Helvetica,sans-Serif" font-size="10.00">color_dialog</text>
</g>
<!-- Node12 -->
<g id="node22" class="node"><title>Node12</title>
<a xlink:href="classKnotView.html" target="_top" xlink:title="KnotView">
<polygon fill="none" stroke="black" points="612.5,-488.5 612.5,-509.5 671.5,-509.5 671.5,-488.5 612.5,-488.5"/>
<text text-anchor="middle" x="642" y="-496.5" font-family="Helvetica,sans-Serif" font-size="10.00">KnotView</text>
</a>
</g>
<!-- Node12&#45;&gt;Node2 -->
<g id="edge22" class="edge"><title>Node12&#45;&gt;Node2</title>
<path fill="none" stroke="#9a32cd" stroke-dasharray="5,2" d="M663.267,-516.239C698.676,-546.026 769.788,-610.636 810,-680 845.859,-741.856 862.396,-827.965 867.337,-858.082"/>
<polygon fill="#9a32cd" stroke="#9a32cd" points="665.402,-513.462 655.474,-509.762 660.927,-518.845 665.402,-513.462"/>
<text text-anchor="middle" x="761" y="-684" font-family="Helvetica,sans-Serif" font-size="10.00">preview</text>
</g>
<!-- Node13 -->
<g id="node24" class="node"><title>Node13</title>
<a xlink:href="classQGraphicsView.html" target="_top" xlink:title="QGraphicsView">
<polygon fill="none" stroke="black" points="394.5,-586.5 394.5,-607.5 479.5,-607.5 479.5,-586.5 394.5,-586.5"/>
<text text-anchor="middle" x="437" y="-594.5" font-family="Helvetica,sans-Serif" font-size="10.00">QGraphicsView</text>
</a>
</g>
<!-- Node13&#45;&gt;Node12 -->
<g id="edge24" class="edge"><title>Node13&#45;&gt;Node12</title>
<path fill="none" stroke="midnightblue" d="M489.64,-588.861C515.516,-583.42 546.53,-574.675 572,-561 596.887,-547.638 620.282,-523.797 632.715,-509.896"/>
<polygon fill="midnightblue" stroke="midnightblue" points="488.754,-585.468 479.632,-590.857 490.124,-592.333 488.754,-585.468"/>
</g>
<!-- Node14 -->
<g id="node26" class="node"><title>Node14</title>
<a xlink:href="classNode.html" target="_top" xlink:title="Node">
<polygon fill="none" stroke="black" points="417,-455.5 417,-476.5 457,-476.5 457,-455.5 417,-455.5"/>
<text text-anchor="middle" x="437" y="-463.5" font-family="Helvetica,sans-Serif" font-size="10.00">Node</text>
</a>
</g>
<!-- Node14&#45;&gt;Node12 -->
<g id="edge26" class="edge"><title>Node14&#45;&gt;Node12</title>
<path fill="none" stroke="#9a32cd" stroke-dasharray="5,2" d="M467.229,-470.866C506.23,-477.144 573.651,-487.997 612.362,-494.229"/>
<polygon fill="#9a32cd" stroke="#9a32cd" points="467.459,-467.358 457.03,-469.224 466.346,-474.269 467.459,-467.358"/>
<text text-anchor="middle" x="541" y="-492" font-family="Helvetica,sans-Serif" font-size="10.00">last_node</text>
</g>
<!-- Node15 -->
<g id="node28" class="node"><title>Node15</title>
<a xlink:href="classCustomItem.html" target="_top" xlink:title="CustomItem">
<polygon fill="none" stroke="black" points="176.5,-449.5 176.5,-470.5 247.5,-470.5 247.5,-449.5 176.5,-449.5"/>
<text text-anchor="middle" x="212" y="-457.5" font-family="Helvetica,sans-Serif" font-size="10.00">CustomItem</text>
</a>
</g>
<!-- Node15&#45;&gt;Node14 -->
<g id="edge28" class="edge"><title>Node15&#45;&gt;Node14</title>
<path fill="none" stroke="midnightblue" d="M257.933,-461.225C306.664,-462.524 381.42,-464.518 416.932,-465.465"/>
<polygon fill="midnightblue" stroke="midnightblue" points="257.742,-457.719 247.652,-460.951 257.555,-464.716 257.742,-457.719"/>
</g>
<!-- Node16 -->
<g id="node30" class="node"><title>Node16</title>
<a xlink:href="classQGraphicsItem.html" target="_top" xlink:title="QGraphicsItem">
<polygon fill="none" stroke="black" points="0.5,-449.5 0.5,-470.5 83.5,-470.5 83.5,-449.5 0.5,-449.5"/>
<text text-anchor="middle" x="42" y="-457.5" font-family="Helvetica,sans-Serif" font-size="10.00">QGraphicsItem</text>
</a>
</g>
<!-- Node16&#45;&gt;Node15 -->
<g id="edge30" class="edge"><title>Node16&#45;&gt;Node15</title>
<path fill="none" stroke="midnightblue" d="M93.9076,-460C120.585,-460 152.417,-460 176.307,-460"/>
<polygon fill="midnightblue" stroke="midnightblue" points="93.5867,-456.5 83.5867,-460 93.5866,-463.5 93.5867,-456.5"/>
</g>
<!-- Node17 -->
<g id="node32" class="node"><title>Node17</title>
<polygon fill="none" stroke="#bfbfbf" points="24.5,-558.5 24.5,-579.5 59.5,-579.5 59.5,-558.5 24.5,-558.5"/>
<text text-anchor="middle" x="42" y="-566.5" font-family="Helvetica,sans-Serif" font-size="10.00">bool</text>
</g>
<!-- Node17&#45;&gt;Node15 -->
<g id="edge32" class="edge"><title>Node17&#45;&gt;Node15</title>
<path fill="none" stroke="#9a32cd" stroke-dasharray="5,2" d="M60.9748,-551.535C82.9698,-532.011 120.958,-500.457 158,-480 164.476,-476.424 171.72,-473.244 178.747,-470.53"/>
<polygon fill="#9a32cd" stroke="#9a32cd" points="58.4581,-549.091 53.3634,-558.381 63.1391,-554.296 58.4581,-549.091"/>
<text text-anchor="middle" x="121" y="-520" font-family="Helvetica,sans-Serif" font-size="10.00">highlight</text>
</g>
<!-- Node23 -->
<g id="node44" class="node"><title>Node23</title>
<a xlink:href="classsnapping__grid.html" target="_top" xlink:title="snapping_grid">
<polygon fill="none" stroke="black" points="398.5,-546.5 398.5,-567.5 475.5,-567.5 475.5,-546.5 398.5,-546.5"/>
<text text-anchor="middle" x="437" y="-554.5" font-family="Helvetica,sans-Serif" font-size="10.00">snapping_grid</text>
</a>
</g>
<!-- Node17&#45;&gt;Node23 -->
<g id="edge50" class="edge"><title>Node17&#45;&gt;Node23</title>
<path fill="none" stroke="#9a32cd" stroke-dasharray="5,2" d="M68.6539,-581.982C91.6848,-592.434 126.183,-606.293 158,-612 248.27,-628.193 284.153,-645.115 364,-600 375.301,-593.615 371.494,-584.624 382,-577 387.181,-573.24 393.142,-570.12 399.187,-567.552"/>
<polygon fill="#9a32cd" stroke="#9a32cd" points="70.0709,-578.781 59.5269,-577.744 67.123,-585.13 70.0709,-578.781"/>
<text text-anchor="middle" x="212" y="-632" font-family="Helvetica,sans-Serif" font-size="10.00">enabled</text>
</g>
<!-- Node18 -->
<g id="node34" class="node"><title>Node18</title>
<polygon fill="none" stroke="#bfbfbf" points="197.5,-489.5 197.5,-510.5 226.5,-510.5 226.5,-489.5 197.5,-489.5"/>
<text text-anchor="middle" x="212" y="-497.5" font-family="Helvetica,sans-Serif" font-size="10.00">int</text>
</g>
<!-- Node18&#45;&gt;Node14 -->
<g id="edge34" class="edge"><title>Node18&#45;&gt;Node14</title>
<path fill="none" stroke="#9a32cd" stroke-dasharray="5,2" d="M236.812,-496.251C281.709,-489.466 375.591,-475.28 416.835,-469.047"/>
<polygon fill="#9a32cd" stroke="#9a32cd" points="236.128,-492.814 226.763,-497.769 237.174,-499.736 236.128,-492.814"/>
<text text-anchor="middle" x="324" y="-494" font-family="Helvetica,sans-Serif" font-size="10.00">radius</text>
</g>
<!-- Node19 -->
<g id="node36" class="node"><title>Node19</title>
<polygon fill="none" stroke="#bfbfbf" points="168.5,-319.5 168.5,-340.5 255.5,-340.5 255.5,-319.5 168.5,-319.5"/>
<text text-anchor="middle" x="212" y="-327.5" font-family="Helvetica,sans-Serif" font-size="10.00">QList&lt; Edge * &gt;</text>
</g>
<!-- Node19&#45;&gt;Node14 -->
<g id="edge36" class="edge"><title>Node19&#45;&gt;Node14</title>
<path fill="none" stroke="#9a32cd" stroke-dasharray="5,2" d="M265.765,-321.65C296.692,-319.607 335.035,-322.014 364,-340 407.384,-366.94 427.754,-429.815 434.417,-455.142"/>
<polygon fill="#9a32cd" stroke="#9a32cd" points="265.26,-318.18 255.584,-322.498 265.84,-325.156 265.26,-318.18"/>
<text text-anchor="middle" x="324" y="-344" font-family="Helvetica,sans-Serif" font-size="10.00">edges</text>
</g>
<!-- Node28 -->
<g id="node56" class="node"><title>Node28</title>
<a xlink:href="classKnotGraph.html" target="_top" xlink:title="KnotGraph">
<polygon fill="none" stroke="black" points="405.5,-232.5 405.5,-253.5 468.5,-253.5 468.5,-232.5 405.5,-232.5"/>
<text text-anchor="middle" x="437" y="-240.5" font-family="Helvetica,sans-Serif" font-size="10.00">KnotGraph</text>
</a>
</g>
<!-- Node19&#45;&gt;Node28 -->
<g id="edge68" class="edge"><title>Node19&#45;&gt;Node28</title>
<path fill="none" stroke="#9a32cd" stroke-dasharray="5,2" d="M237.646,-314.346C251.105,-306.589 268.07,-297.514 284,-291 318.243,-276.997 328.711,-279.108 364,-268 378.312,-263.495 394.073,-258.147 407.277,-253.556"/>
<polygon fill="#9a32cd" stroke="#9a32cd" points="235.794,-311.375 228.945,-319.458 239.34,-317.41 235.794,-311.375"/>
<text text-anchor="middle" x="324" y="-308" font-family="Helvetica,sans-Serif" font-size="10.00">traversed_edges</text>
<text text-anchor="middle" x="324" y="-295" font-family="Helvetica,sans-Serif" font-size="10.00">edges</text>
</g>
<!-- Node20 -->
<g id="node38" class="node"><title>Node20</title>
<polygon fill="none" stroke="#bfbfbf" points="400.5,-80.5 400.5,-101.5 473.5,-101.5 473.5,-80.5 400.5,-80.5"/>
<text text-anchor="middle" x="437" y="-88.5" font-family="Helvetica,sans-Serif" font-size="10.00">QUndoStack</text>
</g>
<!-- Node20&#45;&gt;Node12 -->
<g id="edge38" class="edge"><title>Node20&#45;&gt;Node12</title>
<path fill="none" stroke="#9a32cd" stroke-dasharray="5,2" d="M483.526,-85.2634C512.704,-84.3913 549.017,-88.7283 572,-111 628.159,-165.422 639.834,-431.81 641.694,-488.414"/>
<polygon fill="#9a32cd" stroke="#9a32cd" points="483.346,-81.7679 473.536,-85.7683 483.7,-88.7589 483.346,-81.7679"/>
<text text-anchor="middle" x="541" y="-115" font-family="Helvetica,sans-Serif" font-size="10.00">undo_stack</text>
</g>
<!-- Node21 -->
<g id="node40" class="node"><title>Node21</title>
<polygon fill="none" stroke="#bfbfbf" points="386,-40.5 386,-61.5 488,-61.5 488,-40.5 386,-40.5"/>
<text text-anchor="middle" x="437" y="-48.5" font-family="Helvetica,sans-Serif" font-size="10.00">mouse_status_type</text>
</g>
<!-- Node21&#45;&gt;Node12 -->
<g id="edge40" class="edge"><title>Node21&#45;&gt;Node12</title>
<path fill="none" stroke="#9a32cd" stroke-dasharray="5,2" d="M498.415,-44.6544C524.338,-45.4028 552.882,-51.2966 572,-70 633.899,-130.557 641.073,-427.318 641.895,-488.108"/>
<polygon fill="#9a32cd" stroke="#9a32cd" points="498.273,-41.1538 488.258,-44.6104 498.243,-48.1538 498.273,-41.1538"/>
<text text-anchor="middle" x="541" y="-74" font-family="Helvetica,sans-Serif" font-size="10.00">mouse_status</text>
</g>
<!-- Node22 -->
<g id="node42" class="node"><title>Node22</title>
<polygon fill="none" stroke="#bfbfbf" points="185.5,-537.5 185.5,-558.5 238.5,-558.5 238.5,-537.5 185.5,-537.5"/>
<text text-anchor="middle" x="212" y="-545.5" font-family="Helvetica,sans-Serif" font-size="10.00">QPointF</text>
</g>
<!-- Node22&#45;&gt;Node12 -->
<g id="edge42" class="edge"><title>Node22&#45;&gt;Node12</title>
<path fill="none" stroke="#9a32cd" stroke-dasharray="5,2" d="M248.8,-542.324C283.192,-537.134 335.997,-529.456 382,-524 465.308,-514.119 563.99,-505.463 612.32,-501.422"/>
<polygon fill="#9a32cd" stroke="#9a32cd" points="248.108,-538.889 238.746,-543.85 249.158,-545.81 248.108,-538.889"/>
<text text-anchor="middle" x="437" y="-528" font-family="Helvetica,sans-Serif" font-size="10.00">oldpos</text>
</g>
<!-- Node22&#45;&gt;Node23 -->
<g id="edge48" class="edge"><title>Node22&#45;&gt;Node23</title>
<path fill="none" stroke="#9a32cd" stroke-dasharray="5,2" d="M248.84,-549.474C290.013,-551.121 356.383,-553.775 398.297,-555.452"/>
<polygon fill="#9a32cd" stroke="#9a32cd" points="248.826,-545.97 238.694,-549.068 248.546,-552.965 248.826,-545.97"/>
<text text-anchor="middle" x="324" y="-558" font-family="Helvetica,sans-Serif" font-size="10.00">origin</text>
</g>
<!-- Node23&#45;&gt;Node12 -->
<g id="edge44" class="edge"><title>Node23&#45;&gt;Node12</title>
<path fill="none" stroke="#9a32cd" stroke-dasharray="5,2" d="M485.615,-549.35C511.573,-544.658 543.88,-537.844 572,-529 588.649,-523.764 606.739,-515.952 620.359,-509.612"/>
<polygon fill="#9a32cd" stroke="#9a32cd" points="484.88,-545.925 475.638,-551.105 486.093,-552.819 484.88,-545.925"/>
<text text-anchor="middle" x="541" y="-548" font-family="Helvetica,sans-Serif" font-size="10.00">grid</text>
</g>
<!-- Node24 -->
<g id="node46" class="node"><title>Node24</title>
<polygon fill="none" stroke="#bfbfbf" points="189.5,-372.5 189.5,-393.5 234.5,-393.5 234.5,-372.5 189.5,-372.5"/>
<text text-anchor="middle" x="212" y="-380.5" font-family="Helvetica,sans-Serif" font-size="10.00">double</text>
</g>
<!-- Node24&#45;&gt;Node23 -->
<g id="edge46" class="edge"><title>Node24&#45;&gt;Node23</title>
<path fill="none" stroke="#9a32cd" stroke-dasharray="5,2" d="M244.015,-397.701C286.136,-417.301 355.815,-450.721 364,-461 384.279,-486.466 361.122,-507.023 382,-532 387.112,-538.116 394.037,-542.804 401.246,-546.373"/>
<polygon fill="#9a32cd" stroke="#9a32cd" points="245.26,-394.42 234.715,-393.389 242.315,-400.771 245.26,-394.42"/>
<text text-anchor="middle" x="324" y="-465" font-family="Helvetica,sans-Serif" font-size="10.00">size</text>
</g>
<!-- Node24&#45;&gt;Node28 -->
<g id="edge62" class="edge"><title>Node24&#45;&gt;Node28</title>
<path fill="none" stroke="#9a32cd" stroke-dasharray="5,2" d="M244.871,-379.5C283.54,-374.873 344.897,-365.787 364,-353 401.522,-327.884 424.524,-276.283 433.134,-253.833"/>
<polygon fill="#9a32cd" stroke="#9a32cd" points="244.151,-376.059 234.62,-380.686 244.956,-383.013 244.151,-376.059"/>
<text text-anchor="middle" x="324" y="-404" font-family="Helvetica,sans-Serif" font-size="10.00">cusp_angle</text>
<text text-anchor="middle" x="324" y="-391" font-family="Helvetica,sans-Serif" font-size="10.00">crossing_distance</text>
<text text-anchor="middle" x="324" y="-378" font-family="Helvetica,sans-Serif" font-size="10.00">handle_length</text>
</g>
<!-- Node25 -->
<g id="node50" class="node"><title>Node25</title>
<polygon fill="none" stroke="#bfbfbf" points="180,-581.5 180,-602.5 244,-602.5 244,-581.5 180,-581.5"/>
<text text-anchor="middle" x="212" y="-589.5" font-family="Helvetica,sans-Serif" font-size="10.00">grid_shape</text>
</g>
<!-- Node25&#45;&gt;Node23 -->
<g id="edge52" class="edge"><title>Node25&#45;&gt;Node23</title>
<path fill="none" stroke="#9a32cd" stroke-dasharray="5,2" d="M254.389,-586.746C284.927,-582.814 327.085,-577.086 364,-571 375.205,-569.153 387.332,-566.921 398.424,-564.788"/>
<polygon fill="#9a32cd" stroke="#9a32cd" points="253.575,-583.321 244.099,-588.06 254.462,-590.265 253.575,-583.321"/>
<text text-anchor="middle" x="324" y="-587" font-family="Helvetica,sans-Serif" font-size="10.00">shape</text>
</g>
<!-- Node26 -->
<g id="node52" class="node"><title>Node26</title>
<polygon fill="none" stroke="#bfbfbf" points="382,-0.5 382,-21.5 492,-21.5 492,-0.5 382,-0.5"/>
<text text-anchor="middle" x="437" y="-8.5" font-family="Helvetica,sans-Serif" font-size="10.00">QGraphicsRectItem *</text>
</g>
<!-- Node26&#45;&gt;Node12 -->
<g id="edge54" class="edge"><title>Node26&#45;&gt;Node12</title>
<path fill="none" stroke="#9a32cd" stroke-dasharray="5,2" d="M502.18,-4.13468C527.101,-5.11549 553.862,-11.137 572,-29 606.092,-62.5742 635.882,-421.301 641.169,-488.267"/>
<polygon fill="#9a32cd" stroke="#9a32cd" points="502.057,-0.632814 492.011,-3.99855 501.963,-7.63219 502.057,-0.632814"/>
<text text-anchor="middle" x="541" y="-33" font-family="Helvetica,sans-Serif" font-size="10.00">rubberband</text>
</g>
<!-- Node27 -->
<g id="node54" class="node"><title>Node27</title>
<polygon fill="none" stroke="#bfbfbf" points="383.5,-666.5 383.5,-687.5 490.5,-687.5 490.5,-666.5 383.5,-666.5"/>
<text text-anchor="middle" x="437" y="-674.5" font-family="Helvetica,sans-Serif" font-size="10.00">QGraphicsLineItem *</text>
</g>
<!-- Node27&#45;&gt;Node12 -->
<g id="edge56" class="edge"><title>Node27&#45;&gt;Node12</title>
<path fill="none" stroke="#9a32cd" stroke-dasharray="5,2" d="M500.657,-667.459C525.098,-661.218 551.917,-650.93 572,-634 612.977,-599.457 632.983,-534.809 639.51,-509.521"/>
<polygon fill="#9a32cd" stroke="#9a32cd" points="499.638,-664.103 490.715,-669.815 501.252,-670.915 499.638,-664.103"/>
<text text-anchor="middle" x="541" y="-668" font-family="Helvetica,sans-Serif" font-size="10.00">guide</text>
</g>
<!-- Node28&#45;&gt;Node12 -->
<g id="edge58" class="edge"><title>Node28&#45;&gt;Node12</title>
<path fill="none" stroke="#9a32cd" stroke-dasharray="5,2" d="M452.026,-261.764C492.329,-312.093 601.902,-448.927 633.416,-488.28"/>
<polygon fill="#9a32cd" stroke="#9a32cd" points="454.53,-259.292 445.548,-253.674 449.066,-263.668 454.53,-259.292"/>
<text text-anchor="middle" x="541" y="-413" font-family="Helvetica,sans-Serif" font-size="10.00">knot</text>
</g>
<!-- Node29 -->
<g id="node58" class="node"><title>Node29</title>
<a xlink:href="classQGraphicsPathItem.html" target="_top" xlink:title="QGraphicsPathItem">
<polygon fill="none" stroke="black" points="160.5,-260.5 160.5,-281.5 263.5,-281.5 263.5,-260.5 160.5,-260.5"/>
<text text-anchor="middle" x="212" y="-268.5" font-family="Helvetica,sans-Serif" font-size="10.00">QGraphicsPathItem</text>
</a>
</g>
<!-- Node29&#45;&gt;Node28 -->
<g id="edge60" class="edge"><title>Node29&#45;&gt;Node28</title>
<path fill="none" stroke="midnightblue" d="M273.628,-263.331C316.304,-258.02 371.352,-251.17 405.405,-246.932"/>
<polygon fill="midnightblue" stroke="midnightblue" points="273.111,-259.868 263.62,-264.576 273.975,-266.814 273.111,-259.868"/>
</g>
<!-- Node30 -->
<g id="node61" class="node"><title>Node30</title>
<polygon fill="none" stroke="#bfbfbf" points="158.5,-220.5 158.5,-241.5 265.5,-241.5 265.5,-220.5 158.5,-220.5"/>
<text text-anchor="middle" x="212" y="-228.5" font-family="Helvetica,sans-Serif" font-size="10.00">QPainterPathStroker</text>
</g>
<!-- Node30&#45;&gt;Node28 -->
<g id="edge64" class="edge"><title>Node30&#45;&gt;Node28</title>
<path fill="none" stroke="#9a32cd" stroke-dasharray="5,2" d="M275.745,-227.902C302.981,-227.271 335.097,-227.446 364,-230 377.592,-231.201 392.444,-233.636 405.182,-236.078"/>
<polygon fill="#9a32cd" stroke="#9a32cd" points="275.463,-224.408 265.563,-228.18 275.654,-231.405 275.463,-224.408"/>
<text text-anchor="middle" x="324" y="-234" font-family="Helvetica,sans-Serif" font-size="10.00">stroker</text>
</g>
<!-- Node31 -->
<g id="node63" class="node"><title>Node31</title>
<polygon fill="none" stroke="#bfbfbf" points="174.5,-180.5 174.5,-201.5 249.5,-201.5 249.5,-180.5 174.5,-180.5"/>
<text text-anchor="middle" x="212" y="-188.5" font-family="Helvetica,sans-Serif" font-size="10.00">QPainterPath</text>
</g>
<!-- Node31&#45;&gt;Node28 -->
<g id="edge66" class="edge"><title>Node31&#45;&gt;Node28</title>
<path fill="none" stroke="#9a32cd" stroke-dasharray="5,2" d="M260.045,-193.838C290.304,-196.476 329.943,-201.502 364,-211 382.661,-216.204 402.744,-225.287 417.112,-232.449"/>
<polygon fill="#9a32cd" stroke="#9a32cd" points="260.009,-190.324 249.758,-193.001 259.441,-197.301 260.009,-190.324"/>
<text text-anchor="middle" x="324" y="-215" font-family="Helvetica,sans-Serif" font-size="10.00">knot</text>
</g>
<!-- Node32 -->
<g id="node66" class="node"><title>Node32</title>
<polygon fill="none" stroke="#bfbfbf" points="194.5,-140.5 194.5,-161.5 229.5,-161.5 229.5,-140.5 194.5,-140.5"/>
<text text-anchor="middle" x="212" y="-148.5" font-family="Helvetica,sans-Serif" font-size="10.00">long</text>
</g>
<!-- Node32&#45;&gt;Node28 -->
<g id="edge70" class="edge"><title>Node32&#45;&gt;Node28</title>
<path fill="none" stroke="#9a32cd" stroke-dasharray="5,2" d="M240.045,-152.022C271.617,-154.13 323.756,-160.547 364,-180 390.527,-192.823 415.083,-217.791 427.84,-232.145"/>
<polygon fill="#9a32cd" stroke="#9a32cd" points="239.97,-148.512 229.788,-151.441 239.574,-155.501 239.97,-148.512"/>
<text text-anchor="middle" x="324" y="-184" font-family="Helvetica,sans-Serif" font-size="10.00">curve_style</text>
</g>
<!-- Node33 -->
<g id="node68" class="node"><title>Node33</title>
<polygon fill="none" stroke="#bfbfbf" points="168,-90.5 168,-111.5 256,-111.5 256,-90.5 168,-90.5"/>
<text text-anchor="middle" x="212" y="-98.5" font-family="Helvetica,sans-Serif" font-size="10.00">QList&lt; Node * &gt;</text>
</g>
<!-- Node33&#45;&gt;Node12 -->
<g id="edge74" class="edge"><title>Node33&#45;&gt;Node12</title>
<path fill="none" stroke="#9a32cd" stroke-dasharray="5,2" d="M266.217,-94.5214C295.981,-92.9794 333.026,-94.4261 364,-106 432.663,-131.657 443.376,-155.15 492,-210 574.124,-302.639 625.513,-448.276 638.652,-488.44"/>
<polygon fill="#9a32cd" stroke="#9a32cd" points="265.769,-91.043 256.015,-95.1798 266.22,-98.0284 265.769,-91.043"/>
<text text-anchor="middle" x="437" y="-214" font-family="Helvetica,sans-Serif" font-size="10.00">moved_nodes</text>
</g>
<!-- Node33&#45;&gt;Node28 -->
<g id="edge72" class="edge"><title>Node33&#45;&gt;Node28</title>
<path fill="none" stroke="#9a32cd" stroke-dasharray="5,2" d="M266.411,-106.131C297.225,-111.174 335.235,-121.174 364,-141 398.963,-165.098 423.018,-211.666 432.496,-232.491"/>
<polygon fill="#9a32cd" stroke="#9a32cd" points="266.671,-102.63 256.261,-104.603 265.629,-109.552 266.671,-102.63"/>
<text text-anchor="middle" x="324" y="-145" font-family="Helvetica,sans-Serif" font-size="10.00">nodes</text>
</g>
<!-- Node34 -->
<g id="node71" class="node"><title>Node34</title>
<polygon fill="none" stroke="#bfbfbf" points="404.5,-626.5 404.5,-647.5 469.5,-647.5 469.5,-626.5 404.5,-626.5"/>
<text text-anchor="middle" x="437" y="-634.5" font-family="Helvetica,sans-Serif" font-size="10.00">mode_type</text>
</g>
<!-- Node34&#45;&gt;Node12 -->
<g id="edge76" class="edge"><title>Node34&#45;&gt;Node12</title>
<path fill="none" stroke="#9a32cd" stroke-dasharray="5,2" d="M479.62,-627.639C507.747,-619.989 544.367,-607.097 572,-587 601.681,-565.413 625.52,-528.073 636.09,-509.759"/>
<polygon fill="#9a32cd" stroke="#9a32cd" points="478.472,-624.321 469.674,-630.224 480.233,-631.096 478.472,-624.321"/>
<text text-anchor="middle" x="541" y="-621" font-family="Helvetica,sans-Serif" font-size="10.00">mode</text>
</g>
</g>
</svg>
