<?xml version="1.0" encoding="UTF-8" standalone="no"?>
<!DOCTYPE svg PUBLIC "-//W3C//DTD SVG 1.1//EN"
 "http://www.w3.org/Graphics/SVG/1.1/DTD/svg11.dtd">
<!-- Generated by graphviz version 2.26.3 (20100126.1600)
 -->
<!-- Title: G Pages: 1 -->
<svg width="569pt" height="140pt"
 viewBox="0.00 0.00 569.00 140.00" xmlns="http://www.w3.org/2000/svg" xmlns:xlink="http://www.w3.org/1999/xlink">
<g id="graph1" class="graph" transform="scale(1 1) rotate(0) translate(4 136)">
<title>G</title>
<!-- Node1 -->
<g id="node1" class="node"><title>Node1</title>
<polygon fill="#bfbfbf" stroke="black" points="228.5,-0.5 228.5,-21.5 317.5,-21.5 317.5,-0.5 228.5,-0.5"/>
<text text-anchor="middle" x="273" y="-8.5" font-family="Helvetica,sans-Serif" font-size="10.00">Ui_config_dialog</text>
</g>
<!-- Node2 -->
<g id="node2" class="node"><title>Node2</title>
<polygon fill="none" stroke="#bfbfbf" points="-0.5,-110.5 -0.5,-131.5 76.5,-131.5 76.5,-110.5 -0.5,-110.5"/>
<text text-anchor="middle" x="38" y="-118.5" font-family="Helvetica,sans-Serif" font-size="10.00">QCheckBox *</text>
</g>
<!-- Node2&#45;&gt;Node1 -->
<g id="edge2" class="edge"><title>Node2&#45;&gt;Node1</title>
<path fill="none" stroke="#9a32cd" stroke-dasharray="5,2" d="M42.6457,-100.545C48.0547,-81.6857 58.9304,-54.4892 79,-40 102.193,-23.2556 178.494,-15.999 228.211,-12.9886"/>
<polygon fill="#9a32cd" stroke="#9a32cd" points="39.2439,-99.7204 40.1219,-110.279 46.0198,-101.477 39.2439,-99.7204"/>
<text text-anchor="middle" x="104" y="-63.5" font-family="Helvetica,sans-Serif" font-size="10.00">fluid_check</text>
</g>
<!-- Node3 -->
<g id="node4" class="node"><title>Node3</title>
<polygon fill="none" stroke="#bfbfbf" points="94,-110.5 94,-131.5 172,-131.5 172,-110.5 94,-110.5"/>
<text text-anchor="middle" x="133" y="-118.5" font-family="Helvetica,sans-Serif" font-size="10.00">QGridLayout *</text>
</g>
<!-- Node3&#45;&gt;Node1 -->
<g id="edge4" class="edge"><title>Node3&#45;&gt;Node1</title>
<path fill="none" stroke="#9a32cd" stroke-dasharray="5,2" d="M133.046,-100.146C134.24,-81.8135 138.938,-55.6779 155,-40 165.53,-29.7222 199.623,-22.0343 228.472,-17.1657"/>
<polygon fill="#9a32cd" stroke="#9a32cd" points="129.539,-100.273 132.685,-110.39 136.535,-100.519 129.539,-100.273"/>
<text text-anchor="middle" x="183" y="-76.5" font-family="Helvetica,sans-Serif" font-size="10.00">gridLayout</text>
<text text-anchor="middle" x="183" y="-63.5" font-family="Helvetica,sans-Serif" font-size="10.00">gridLayout_2</text>
<text text-anchor="middle" x="183" y="-50.5" font-family="Helvetica,sans-Serif" font-size="10.00">gridLayout_3</text>
</g>
<!-- Node4 -->
<g id="node6" class="node"><title>Node4</title>
<polygon fill="none" stroke="#bfbfbf" points="190,-110.5 190,-131.5 270,-131.5 270,-110.5 190,-110.5"/>
<text text-anchor="middle" x="230" y="-118.5" font-family="Helvetica,sans-Serif" font-size="10.00">QComboBox *</text>
</g>
<!-- Node4&#45;&gt;Node1 -->
<g id="edge6" class="edge"><title>Node4&#45;&gt;Node1</title>
<path fill="none" stroke="#9a32cd" stroke-dasharray="5,2" d="M221.713,-100.794C216.016,-83.4911 211.232,-58.5106 222,-40 226.661,-31.9882 234.452,-26.0079 242.56,-21.6272"/>
<polygon fill="#9a32cd" stroke="#9a32cd" points="218.523,-102.262 225.247,-110.45 225.097,-99.856 218.523,-102.262"/>
<text text-anchor="middle" x="263" y="-83" font-family="Helvetica,sans-Serif" font-size="10.00">comboBox</text>
<text text-anchor="middle" x="263" y="-70" font-family="Helvetica,sans-Serif" font-size="10.00">icon_size_combo</text>
<text text-anchor="middle" x="263" y="-57" font-family="Helvetica,sans-Serif" font-size="10.00">language_combo</text>
<text text-anchor="middle" x="263" y="-44" font-family="Helvetica,sans-Serif" font-size="10.00">icon_show_combo</text>
</g>
<!-- Node5 -->
<g id="node8" class="node"><title>Node5</title>
<polygon fill="none" stroke="#bfbfbf" points="293,-110.5 293,-131.5 347,-131.5 347,-110.5 293,-110.5"/>
<text text-anchor="middle" x="320" y="-118.5" font-family="Helvetica,sans-Serif" font-size="10.00">QLabel *</text>
</g>
<!-- Node5&#45;&gt;Node1 -->
<g id="edge8" class="edge"><title>Node5&#45;&gt;Node1</title>
<path fill="none" stroke="#9a32cd" stroke-dasharray="5,2" d="M319.393,-100.266C318.102,-83.1459 314.389,-58.7098 304,-40 300.065,-32.9125 293.788,-26.5615 287.908,-21.6227"/>
<polygon fill="#9a32cd" stroke="#9a32cd" points="315.902,-100.529 319.937,-110.326 322.891,-100.151 315.902,-100.529"/>
<text text-anchor="middle" x="333.5" y="-83" font-family="Helvetica,sans-Serif" font-size="10.00">label_2</text>
<text text-anchor="middle" x="333.5" y="-70" font-family="Helvetica,sans-Serif" font-size="10.00">label_3</text>
<text text-anchor="middle" x="333.5" y="-57" font-family="Helvetica,sans-Serif" font-size="10.00">label_4</text>
<text text-anchor="middle" x="333.5" y="-44" font-family="Helvetica,sans-Serif" font-size="10.00">label</text>
</g>
<!-- Node6 -->
<g id="node10" class="node"><title>Node6</title>
<polygon fill="none" stroke="#bfbfbf" points="365,-110.5 365,-131.5 439,-131.5 439,-110.5 365,-110.5"/>
<text text-anchor="middle" x="402" y="-118.5" font-family="Helvetica,sans-Serif" font-size="10.00">QGroupBox *</text>
</g>
<!-- Node6&#45;&gt;Node1 -->
<g id="edge10" class="edge"><title>Node6&#45;&gt;Node1</title>
<path fill="none" stroke="#9a32cd" stroke-dasharray="5,2" d="M394.515,-101.097C386.716,-82.858 372.846,-56.2881 353,-40 342.837,-31.6585 330.071,-25.6118 317.74,-21.2726"/>
<polygon fill="#9a32cd" stroke="#9a32cd" points="391.32,-102.534 398.313,-110.494 397.81,-99.9106 391.32,-102.534"/>
<text text-anchor="middle" x="415" y="-70" font-family="Helvetica,sans-Serif" font-size="10.00">groupBox_2</text>
<text text-anchor="middle" x="415" y="-57" font-family="Helvetica,sans-Serif" font-size="10.00">groupBox</text>
</g>
<!-- Node7 -->
<g id="node12" class="node"><title>Node7</title>
<polygon fill="none" stroke="#bfbfbf" points="457,-110.5 457,-131.5 561,-131.5 561,-110.5 457,-110.5"/>
<text text-anchor="middle" x="509" y="-118.5" font-family="Helvetica,sans-Serif" font-size="10.00">QDialogButtonBox *</text>
</g>
<!-- Node7&#45;&gt;Node1 -->
<g id="edge12" class="edge"><title>Node7&#45;&gt;Node1</title>
<path fill="none" stroke="#9a32cd" stroke-dasharray="5,2" d="M499.008,-101.265C488.328,-82.3329 469.558,-54.5403 445,-40 424.023,-27.5804 361.402,-19.3121 317.813,-14.8859"/>
<polygon fill="#9a32cd" stroke="#9a32cd" points="496.019,-103.096 503.843,-110.24 502.182,-99.7764 496.019,-103.096"/>
<text text-anchor="middle" x="515.5" y="-63.5" font-family="Helvetica,sans-Serif" font-size="10.00">buttonBox</text>
</g>
</g>
</svg>
