<?xml version="1.0" encoding="UTF-8" standalone="no"?>
<!DOCTYPE svg PUBLIC "-//W3C//DTD SVG 1.1//EN"
 "http://www.w3.org/Graphics/SVG/1.1/DTD/svg11.dtd">
<!-- Generated by graphviz version 2.26.3 (20100126.1600)
 -->
<!-- Title: G Pages: 1 -->
<svg width="556pt" height="174pt"
 viewBox="0.00 0.00 556.00 174.00" xmlns="http://www.w3.org/2000/svg" xmlns:xlink="http://www.w3.org/1999/xlink">
<g id="graph1" class="graph" transform="scale(1 1) rotate(0) translate(4 170)">
<title>G</title>
<!-- Node1 -->
<g id="node1" class="node"><title>Node1</title>
<polygon fill="#bfbfbf" stroke="black" points="224.5,-0.5 224.5,-21.5 303.5,-21.5 303.5,-0.5 224.5,-0.5"/>
<text text-anchor="middle" x="264" y="-8.5" font-family="Helvetica,sans-Serif" font-size="10.00">Ui::GridConfig</text>
</g>
<!-- Node2 -->
<g id="node2" class="node"><title>Node2</title>
<a xlink:href="classUi__GridConfig.html" target="_top" xlink:title="Ui_GridConfig">
<polygon fill="none" stroke="black" points="225,-60.5 225,-81.5 303,-81.5 303,-60.5 225,-60.5"/>
<text text-anchor="middle" x="264" y="-68.5" font-family="Helvetica,sans-Serif" font-size="10.00">Ui_GridConfig</text>
</a>
</g>
<!-- Node2&#45;&gt;Node1 -->
<g id="edge2" class="edge"><title>Node2&#45;&gt;Node1</title>
<path fill="none" stroke="midnightblue" d="M264,-50.2312C264,-40.5922 264,-29.5444 264,-21.6339"/>
<polygon fill="midnightblue" stroke="midnightblue" points="260.5,-50.2732 264,-60.2732 267.5,-50.2732 260.5,-50.2732"/>
</g>
<!-- Node3 -->
<g id="node4" class="node"><title>Node3</title>
<polygon fill="none" stroke="#bfbfbf" points="0,-144.5 0,-165.5 68,-165.5 68,-144.5 0,-144.5"/>
<text text-anchor="middle" x="34" y="-152.5" font-family="Helvetica,sans-Serif" font-size="10.00">QSpinBox *</text>
</g>
<!-- Node3&#45;&gt;Node2 -->
<g id="edge4" class="edge"><title>Node3&#45;&gt;Node2</title>
<path fill="none" stroke="#9a32cd" stroke-dasharray="5,2" d="M48.337,-136.193C58.7862,-123.883 74.038,-108.548 91,-100 113.844,-88.4873 181.21,-79.5958 224.825,-74.8432"/>
<polygon fill="#9a32cd" stroke="#9a32cd" points="45.4941,-134.142 41.9082,-144.111 50.9285,-138.554 45.4941,-134.142"/>
<text text-anchor="middle" x="112" y="-110.5" font-family="Helvetica,sans-Serif" font-size="10.00">size_spin</text>
</g>
<!-- Node4 -->
<g id="node6" class="node"><title>Node4</title>
<polygon fill="none" stroke="#bfbfbf" points="86,-144.5 86,-165.5 164,-165.5 164,-144.5 86,-144.5"/>
<text text-anchor="middle" x="125" y="-152.5" font-family="Helvetica,sans-Serif" font-size="10.00">QGridLayout *</text>
</g>
<!-- Node4&#45;&gt;Node2 -->
<g id="edge6" class="edge"><title>Node4&#45;&gt;Node2</title>
<path fill="none" stroke="#9a32cd" stroke-dasharray="5,2" d="M132.546,-134.901C137.945,-123.114 146.333,-108.846 158,-100 168.642,-91.9312 199.346,-84.0146 224.987,-78.4968"/>
<polygon fill="#9a32cd" stroke="#9a32cd" points="129.194,-133.845 128.563,-144.422 135.651,-136.547 129.194,-133.845"/>
<text text-anchor="middle" x="186" y="-117" font-family="Helvetica,sans-Serif" font-size="10.00">gridLayout</text>
<text text-anchor="middle" x="186" y="-104" font-family="Helvetica,sans-Serif" font-size="10.00">gridLayout_2</text>
</g>
<!-- Node5 -->
<g id="node8" class="node"><title>Node5</title>
<polygon fill="none" stroke="#bfbfbf" points="182,-144.5 182,-165.5 262,-165.5 262,-144.5 182,-144.5"/>
<text text-anchor="middle" x="222" y="-152.5" font-family="Helvetica,sans-Serif" font-size="10.00">QComboBox *</text>
</g>
<!-- Node5&#45;&gt;Node2 -->
<g id="edge8" class="edge"><title>Node5&#45;&gt;Node2</title>
<path fill="none" stroke="#9a32cd" stroke-dasharray="5,2" d="M218.556,-133.948C217.807,-123.199 218.527,-110.262 224,-100 228.036,-92.4314 235.023,-86.3508 242.039,-81.7505"/>
<polygon fill="#9a32cd" stroke="#9a32cd" points="215.111,-134.619 219.732,-144.153 222.064,-133.818 215.111,-134.619"/>
<text text-anchor="middle" x="254.5" y="-110.5" font-family="Helvetica,sans-Serif" font-size="10.00">shape_combo</text>
</g>
<!-- Node6 -->
<g id="node10" class="node"><title>Node6</title>
<polygon fill="none" stroke="#bfbfbf" points="280,-144.5 280,-165.5 334,-165.5 334,-144.5 280,-144.5"/>
<text text-anchor="middle" x="307" y="-152.5" font-family="Helvetica,sans-Serif" font-size="10.00">QLabel *</text>
</g>
<!-- Node6&#45;&gt;Node2 -->
<g id="edge10" class="edge"><title>Node6&#45;&gt;Node2</title>
<path fill="none" stroke="#9a32cd" stroke-dasharray="5,2" d="M300.157,-134.47C296.292,-123.889 291.03,-110.944 285,-100 281.46,-93.5757 276.722,-86.9123 272.642,-81.5953"/>
<polygon fill="#9a32cd" stroke="#9a32cd" points="296.922,-135.822 303.532,-144.101 303.528,-133.507 296.922,-135.822"/>
<text text-anchor="middle" x="311.5" y="-117" font-family="Helvetica,sans-Serif" font-size="10.00">label_2</text>
<text text-anchor="middle" x="311.5" y="-104" font-family="Helvetica,sans-Serif" font-size="10.00">label</text>
</g>
<!-- Node7 -->
<g id="node12" class="node"><title>Node7</title>
<polygon fill="none" stroke="#bfbfbf" points="352,-144.5 352,-165.5 426,-165.5 426,-144.5 352,-144.5"/>
<text text-anchor="middle" x="389" y="-152.5" font-family="Helvetica,sans-Serif" font-size="10.00">QGroupBox *</text>
</g>
<!-- Node7&#45;&gt;Node2 -->
<g id="edge12" class="edge"><title>Node7&#45;&gt;Node2</title>
<path fill="none" stroke="#9a32cd" stroke-dasharray="5,2" d="M372.823,-136.641C361.879,-125.027 346.618,-110.315 331,-100 319.789,-92.5959 306.375,-86.3514 294.505,-81.5755"/>
<polygon fill="#9a32cd" stroke="#9a32cd" points="370.322,-139.092 379.662,-144.093 375.48,-134.359 370.322,-139.092"/>
<text text-anchor="middle" x="391.5" y="-110.5" font-family="Helvetica,sans-Serif" font-size="10.00">enable_check</text>
</g>
<!-- Node8 -->
<g id="node14" class="node"><title>Node8</title>
<polygon fill="none" stroke="#bfbfbf" points="444,-144.5 444,-165.5 548,-165.5 548,-144.5 444,-144.5"/>
<text text-anchor="middle" x="496" y="-152.5" font-family="Helvetica,sans-Serif" font-size="10.00">QDialogButtonBox *</text>
</g>
<!-- Node8&#45;&gt;Node2 -->
<g id="edge14" class="edge"><title>Node8&#45;&gt;Node2</title>
<path fill="none" stroke="#9a32cd" stroke-dasharray="5,2" d="M478.29,-137.016C465.04,-124.647 445.853,-108.903 426,-100 404.557,-90.3841 343.781,-81.1518 303.074,-75.7807"/>
<polygon fill="#9a32cd" stroke="#9a32cd" points="476.098,-139.765 485.725,-144.189 480.959,-134.727 476.098,-139.765"/>
<text text-anchor="middle" x="486.5" y="-110.5" font-family="Helvetica,sans-Serif" font-size="10.00">buttonBox</text>
</g>
</g>
</svg>
