<?xml version="1.0" encoding="UTF-8" standalone="no"?>
<!DOCTYPE svg PUBLIC "-//W3C//DTD SVG 1.1//EN"
 "http://www.w3.org/Graphics/SVG/1.1/DTD/svg11.dtd">
<!-- Generated by graphviz version 2.26.3 (20100126.1600)
 -->
<!-- Title: G Pages: 1 -->
<svg width="166pt" height="146pt"
 viewBox="0.00 0.00 166.00 146.00" xmlns="http://www.w3.org/2000/svg" xmlns:xlink="http://www.w3.org/1999/xlink">
<g id="graph1" class="graph" transform="scale(1 1) rotate(0) translate(4 142)">
<title>G</title>
<!-- Node1 -->
<g id="node1" class="node"><title>Node1</title>
<polygon fill="#bfbfbf" stroke="black" points="33,-0.5 33,-21.5 107,-21.5 107,-0.5 33,-0.5"/>
<text text-anchor="middle" x="70" y="-8.5" font-family="Helvetica,sans-Serif" font-size="10.00">config_dialog</text>
</g>
<!-- Node2 -->
<g id="node2" class="node"><title>Node2</title>
<a xlink:href="classQDialog.html" target="_top" xlink:title="QDialog">
<polygon fill="none" stroke="black" points="0,-58.5 0,-79.5 52,-79.5 52,-58.5 0,-58.5"/>
<text text-anchor="middle" x="26" y="-66.5" font-family="Helvetica,sans-Serif" font-size="10.00">QDialog</text>
</a>
</g>
<!-- Node2&#45;&gt;Node1 -->
<g id="edge2" class="edge"><title>Node2&#45;&gt;Node1</title>
<path fill="none" stroke="midnightblue" d="M40.2238,-50.2504C47.4311,-40.75 55.9161,-29.5651 61.9809,-21.5707"/>
<polygon fill="midnightblue" stroke="midnightblue" points="37.3258,-48.2796 34.0703,-58.3619 42.9026,-52.5103 37.3258,-48.2796"/>
</g>
<!-- Node3 -->
<g id="node4" class="node"><title>Node3</title>
<a xlink:href="classUi_1_1config__dialog.html" target="_top" xlink:title="Ui::config_dialog">
<polygon fill="none" stroke="black" points="69.5,-58.5 69.5,-79.5 158.5,-79.5 158.5,-58.5 69.5,-58.5"/>
<text text-anchor="middle" x="114" y="-66.5" font-family="Helvetica,sans-Serif" font-size="10.00">Ui::config_dialog</text>
</a>
</g>
<!-- Node3&#45;&gt;Node1 -->
<g id="edge4" class="edge"><title>Node3&#45;&gt;Node1</title>
<path fill="none" stroke="#8b1a1a" d="M99.7762,-50.2504C92.5689,-40.75 84.0839,-29.5651 78.0191,-21.5707"/>
<polygon fill="#8b1a1a" stroke="#8b1a1a" points="97.0974,-52.5103 105.93,-58.3619 102.674,-48.2796 97.0974,-52.5103"/>
</g>
<!-- Node4 -->
<g id="node6" class="node"><title>Node4</title>
<a xlink:href="classUi__config__dialog.html" target="_top" xlink:title="Ui_config_dialog">
<polygon fill="none" stroke="black" points="69.5,-116.5 69.5,-137.5 158.5,-137.5 158.5,-116.5 69.5,-116.5"/>
<text text-anchor="middle" x="114" y="-124.5" font-family="Helvetica,sans-Serif" font-size="10.00">Ui_config_dialog</text>
</a>
</g>
<!-- Node4&#45;&gt;Node3 -->
<g id="edge6" class="edge"><title>Node4&#45;&gt;Node3</title>
<path fill="none" stroke="midnightblue" d="M114,-106.191C114,-97.1684 114,-86.9941 114,-79.5707"/>
<polygon fill="midnightblue" stroke="midnightblue" points="110.5,-106.362 114,-116.362 117.5,-106.362 110.5,-106.362"/>
</g>
</g>
</svg>
