<?xml version="1.0" encoding="UTF-8" standalone="no"?>
<!DOCTYPE svg PUBLIC "-//W3C//DTD SVG 1.1//EN"
 "http://www.w3.org/Graphics/SVG/1.1/DTD/svg11.dtd">
<!-- Generated by graphviz version 2.26.3 (20100126.1600)
 -->
<!-- Title: G Pages: 1 -->
<svg width="556pt" height="114pt"
 viewBox="0.00 0.00 556.00 114.00" xmlns="http://www.w3.org/2000/svg" xmlns:xlink="http://www.w3.org/1999/xlink">
<g id="graph1" class="graph" transform="scale(1 1) rotate(0) translate(4 110)">
<title>G</title>
<!-- Node1 -->
<g id="node1" class="node"><title>Node1</title>
<polygon fill="#bfbfbf" stroke="black" points="225,-0.5 225,-21.5 303,-21.5 303,-0.5 225,-0.5"/>
<text text-anchor="middle" x="264" y="-8.5" font-family="Helvetica,sans-Serif" font-size="10.00">Ui_GridConfig</text>
</g>
<!-- Node2 -->
<g id="node2" class="node"><title>Node2</title>
<polygon fill="none" stroke="#bfbfbf" points="0,-84.5 0,-105.5 68,-105.5 68,-84.5 0,-84.5"/>
<text text-anchor="middle" x="34" y="-92.5" font-family="Helvetica,sans-Serif" font-size="10.00">QSpinBox *</text>
</g>
<!-- Node2&#45;&gt;Node1 -->
<g id="edge2" class="edge"><title>Node2&#45;&gt;Node1</title>
<path fill="none" stroke="#9a32cd" stroke-dasharray="5,2" d="M48.337,-76.1932C58.7862,-63.8834 74.038,-48.5482 91,-40 113.844,-28.4873 181.21,-19.5958 224.825,-14.8432"/>
<polygon fill="#9a32cd" stroke="#9a32cd" points="45.4941,-74.1418 41.9082,-84.1114 50.9285,-78.554 45.4941,-74.1418"/>
<text text-anchor="middle" x="112" y="-50.5" font-family="Helvetica,sans-Serif" font-size="10.00">size_spin</text>
</g>
<!-- Node3 -->
<g id="node4" class="node"><title>Node3</title>
<polygon fill="none" stroke="#bfbfbf" points="86,-84.5 86,-105.5 164,-105.5 164,-84.5 86,-84.5"/>
<text text-anchor="middle" x="125" y="-92.5" font-family="Helvetica,sans-Serif" font-size="10.00">QGridLayout *</text>
</g>
<!-- Node3&#45;&gt;Node1 -->
<g id="edge4" class="edge"><title>Node3&#45;&gt;Node1</title>
<path fill="none" stroke="#9a32cd" stroke-dasharray="5,2" d="M132.546,-74.9007C137.945,-63.1138 146.333,-48.8458 158,-40 168.642,-31.9312 199.346,-24.0146 224.987,-18.4968"/>
<polygon fill="#9a32cd" stroke="#9a32cd" points="129.194,-73.8455 128.563,-84.4215 135.651,-76.5469 129.194,-73.8455"/>
<text text-anchor="middle" x="186" y="-57" font-family="Helvetica,sans-Serif" font-size="10.00">gridLayout</text>
<text text-anchor="middle" x="186" y="-44" font-family="Helvetica,sans-Serif" font-size="10.00">gridLayout_2</text>
</g>
<!-- Node4 -->
<g id="node6" class="node"><title>Node4</title>
<polygon fill="none" stroke="#bfbfbf" points="182,-84.5 182,-105.5 262,-105.5 262,-84.5 182,-84.5"/>
<text text-anchor="middle" x="222" y="-92.5" font-family="Helvetica,sans-Serif" font-size="10.00">QComboBox *</text>
</g>
<!-- Node4&#45;&gt;Node1 -->
<g id="edge6" class="edge"><title>Node4&#45;&gt;Node1</title>
<path fill="none" stroke="#9a32cd" stroke-dasharray="5,2" d="M218.556,-73.9479C217.807,-63.1993 218.527,-50.2621 224,-40 228.036,-32.4314 235.023,-26.3508 242.039,-21.7505"/>
<polygon fill="#9a32cd" stroke="#9a32cd" points="215.111,-74.6193 219.732,-84.1529 222.064,-73.8179 215.111,-74.6193"/>
<text text-anchor="middle" x="254.5" y="-50.5" font-family="Helvetica,sans-Serif" font-size="10.00">shape_combo</text>
</g>
<!-- Node5 -->
<g id="node8" class="node"><title>Node5</title>
<polygon fill="none" stroke="#bfbfbf" points="280,-84.5 280,-105.5 334,-105.5 334,-84.5 280,-84.5"/>
<text text-anchor="middle" x="307" y="-92.5" font-family="Helvetica,sans-Serif" font-size="10.00">QLabel *</text>
</g>
<!-- Node5&#45;&gt;Node1 -->
<g id="edge8" class="edge"><title>Node5&#45;&gt;Node1</title>
<path fill="none" stroke="#9a32cd" stroke-dasharray="5,2" d="M300.157,-74.4697C296.292,-63.8886 291.03,-50.9438 285,-40 281.46,-33.5757 276.722,-26.9123 272.642,-21.5953"/>
<polygon fill="#9a32cd" stroke="#9a32cd" points="296.922,-75.8217 303.532,-84.1014 303.528,-73.5066 296.922,-75.8217"/>
<text text-anchor="middle" x="311.5" y="-57" font-family="Helvetica,sans-Serif" font-size="10.00">label_2</text>
<text text-anchor="middle" x="311.5" y="-44" font-family="Helvetica,sans-Serif" font-size="10.00">label</text>
</g>
<!-- Node6 -->
<g id="node10" class="node"><title>Node6</title>
<polygon fill="none" stroke="#bfbfbf" points="352,-84.5 352,-105.5 426,-105.5 426,-84.5 352,-84.5"/>
<text text-anchor="middle" x="389" y="-92.5" font-family="Helvetica,sans-Serif" font-size="10.00">QGroupBox *</text>
</g>
<!-- Node6&#45;&gt;Node1 -->
<g id="edge10" class="edge"><title>Node6&#45;&gt;Node1</title>
<path fill="none" stroke="#9a32cd" stroke-dasharray="5,2" d="M372.823,-76.6407C361.879,-65.0272 346.618,-50.3145 331,-40 319.789,-32.5959 306.375,-26.3514 294.505,-21.5755"/>
<polygon fill="#9a32cd" stroke="#9a32cd" points="370.322,-79.0918 379.662,-84.0934 375.48,-74.359 370.322,-79.0918"/>
<text text-anchor="middle" x="391.5" y="-50.5" font-family="Helvetica,sans-Serif" font-size="10.00">enable_check</text>
</g>
<!-- Node7 -->
<g id="node12" class="node"><title>Node7</title>
<polygon fill="none" stroke="#bfbfbf" points="444,-84.5 444,-105.5 548,-105.5 548,-84.5 444,-84.5"/>
<text text-anchor="middle" x="496" y="-92.5" font-family="Helvetica,sans-Serif" font-size="10.00">QDialogButtonBox *</text>
</g>
<!-- Node7&#45;&gt;Node1 -->
<g id="edge12" class="edge"><title>Node7&#45;&gt;Node1</title>
<path fill="none" stroke="#9a32cd" stroke-dasharray="5,2" d="M478.29,-77.0156C465.04,-64.647 445.853,-48.9029 426,-40 404.557,-30.3841 343.781,-21.1518 303.074,-15.7807"/>
<polygon fill="#9a32cd" stroke="#9a32cd" points="476.098,-79.7646 485.725,-84.1892 480.959,-74.727 476.098,-79.7646"/>
<text text-anchor="middle" x="486.5" y="-50.5" font-family="Helvetica,sans-Serif" font-size="10.00">buttonBox</text>
</g>
</g>
</svg>
