<?xml version="1.0" encoding="UTF-8" standalone="no"?>
<!DOCTYPE svg PUBLIC "-//W3C//DTD SVG 1.1//EN"
 "http://www.w3.org/Graphics/SVG/1.1/DTD/svg11.dtd">
<!-- Generated by graphviz version 2.26.3 (20100126.1600)
 -->
<!-- Title: G Pages: 1 -->
<svg width="406pt" height="381pt"
 viewBox="0.00 0.00 406.00 381.00" xmlns="http://www.w3.org/2000/svg" xmlns:xlink="http://www.w3.org/1999/xlink">
<g id="graph1" class="graph" transform="scale(1 1) rotate(0) translate(4 377)">
<title>G</title>
<!-- Node1 -->
<g id="node1" class="node"><title>Node1</title>
<polygon fill="#bfbfbf" stroke="black" points="318.5,-182.5 318.5,-203.5 397.5,-203.5 397.5,-182.5 318.5,-182.5"/>
<text text-anchor="middle" x="358" y="-190.5" font-family="Helvetica,sans-Serif" font-size="10.00">Ui::GridConfig</text>
</g>
<!-- Node2 -->
<g id="node2" class="node"><title>Node2</title>
<a xlink:href="classUi__GridConfig.html" target="_top" xlink:title="Ui_GridConfig">
<polygon fill="none" stroke="black" points="202,-182.5 202,-203.5 280,-203.5 280,-182.5 202,-182.5"/>
<text text-anchor="middle" x="241" y="-190.5" font-family="Helvetica,sans-Serif" font-size="10.00">Ui_GridConfig</text>
</a>
</g>
<!-- Node2&#45;&gt;Node1 -->
<g id="edge2" class="edge"><title>Node2&#45;&gt;Node1</title>
<path fill="none" stroke="midnightblue" d="M290.536,-193C299.776,-193 309.321,-193 318.221,-193"/>
<polygon fill="midnightblue" stroke="midnightblue" points="290.285,-189.5 280.285,-193 290.285,-196.5 290.285,-189.5"/>
</g>
<!-- Node3 -->
<g id="node4" class="node"><title>Node3</title>
<polygon fill="none" stroke="#bfbfbf" points="11,-351.5 11,-372.5 93,-372.5 93,-351.5 11,-351.5"/>
<text text-anchor="middle" x="52" y="-359.5" font-family="Helvetica,sans-Serif" font-size="10.00">QPushButton *</text>
</g>
<!-- Node3&#45;&gt;Node2 -->
<g id="edge4" class="edge"><title>Node3&#45;&gt;Node2</title>
<path fill="none" stroke="#9a32cd" stroke-dasharray="5,2" d="M103.583,-363.129C130.259,-361.137 161.791,-354.442 184,-336 226.151,-300.999 237.346,-230.356 240.133,-203.598"/>
<polygon fill="#9a32cd" stroke="#9a32cd" points="103.045,-359.653 93.2499,-363.69 103.425,-366.643 103.045,-359.653"/>
<text text-anchor="middle" x="153" y="-364" font-family="Helvetica,sans-Serif" font-size="10.00">pushButton</text>
</g>
<!-- Node4 -->
<g id="node6" class="node"><title>Node4</title>
<polygon fill="none" stroke="#bfbfbf" points="18,-311.5 18,-332.5 86,-332.5 86,-311.5 18,-311.5"/>
<text text-anchor="middle" x="52" y="-319.5" font-family="Helvetica,sans-Serif" font-size="10.00">QSpinBox *</text>
</g>
<!-- Node4&#45;&gt;Node2 -->
<g id="edge6" class="edge"><title>Node4&#45;&gt;Node2</title>
<path fill="none" stroke="#9a32cd" stroke-dasharray="5,2" d="M96.1959,-322.471C123.783,-320.687 158.728,-314.423 184,-296 216.204,-272.524 232.42,-225.05 238.319,-203.759"/>
<polygon fill="#9a32cd" stroke="#9a32cd" points="95.8426,-318.984 86.0188,-322.952 96.1728,-325.976 95.8426,-318.984"/>
<text text-anchor="middle" x="153" y="-323" font-family="Helvetica,sans-Serif" font-size="10.00">size_spin</text>
</g>
<!-- Node5 -->
<g id="node8" class="node"><title>Node5</title>
<polygon fill="none" stroke="#bfbfbf" points="3,-262.5 3,-283.5 101,-283.5 101,-262.5 3,-262.5"/>
<text text-anchor="middle" x="52" y="-270.5" font-family="Helvetica,sans-Serif" font-size="10.00">QDoubleSpinBox *</text>
</g>
<!-- Node5&#45;&gt;Node2 -->
<g id="edge8" class="edge"><title>Node5&#45;&gt;Node2</title>
<path fill="none" stroke="#9a32cd" stroke-dasharray="5,2" d="M111.156,-269.163C134.824,-265.787 161.704,-259.533 184,-248 204.764,-237.26 223.087,-216.53 233.054,-203.814"/>
<polygon fill="#9a32cd" stroke="#9a32cd" points="110.703,-265.693 101.232,-270.441 111.597,-272.635 110.703,-265.693"/>
<text text-anchor="middle" x="153" y="-283" font-family="Helvetica,sans-Serif" font-size="10.00">origin_y_spin</text>
<text text-anchor="middle" x="153" y="-270" font-family="Helvetica,sans-Serif" font-size="10.00">origin_x_spin</text>
</g>
<!-- Node6 -->
<g id="node10" class="node"><title>Node6</title>
<polygon fill="none" stroke="#bfbfbf" points="13,-202.5 13,-223.5 91,-223.5 91,-202.5 13,-202.5"/>
<text text-anchor="middle" x="52" y="-210.5" font-family="Helvetica,sans-Serif" font-size="10.00">QGridLayout *</text>
</g>
<!-- Node6&#45;&gt;Node2 -->
<g id="edge10" class="edge"><title>Node6&#45;&gt;Node2</title>
<path fill="none" stroke="#9a32cd" stroke-dasharray="5,2" d="M101.432,-207.769C132.776,-204.452 172.759,-200.221 201.889,-197.139"/>
<polygon fill="#9a32cd" stroke="#9a32cd" points="100.737,-204.323 91.1609,-208.856 101.474,-211.284 100.737,-204.323"/>
<text text-anchor="middle" x="153" y="-235" font-family="Helvetica,sans-Serif" font-size="10.00">gridLayout</text>
<text text-anchor="middle" x="153" y="-222" font-family="Helvetica,sans-Serif" font-size="10.00">gridLayout_2</text>
<text text-anchor="middle" x="153" y="-209" font-family="Helvetica,sans-Serif" font-size="10.00">gridLayout_3</text>
</g>
<!-- Node7 -->
<g id="node12" class="node"><title>Node7</title>
<polygon fill="none" stroke="#bfbfbf" points="12,-162.5 12,-183.5 92,-183.5 92,-162.5 12,-162.5"/>
<text text-anchor="middle" x="52" y="-170.5" font-family="Helvetica,sans-Serif" font-size="10.00">QComboBox *</text>
</g>
<!-- Node7&#45;&gt;Node2 -->
<g id="edge12" class="edge"><title>Node7&#45;&gt;Node2</title>
<path fill="none" stroke="#9a32cd" stroke-dasharray="5,2" d="M102.484,-174.989C127.137,-176.33 157.193,-178.513 184,-182 189.797,-182.754 195.893,-183.731 201.855,-184.791"/>
<polygon fill="#9a32cd" stroke="#9a32cd" points="102.441,-171.482 92.2741,-174.464 102.081,-178.473 102.441,-171.482"/>
<text text-anchor="middle" x="153" y="-186" font-family="Helvetica,sans-Serif" font-size="10.00">shape_combo</text>
</g>
<!-- Node8 -->
<g id="node14" class="node"><title>Node8</title>
<polygon fill="none" stroke="#bfbfbf" points="25,-89.5 25,-110.5 79,-110.5 79,-89.5 25,-89.5"/>
<text text-anchor="middle" x="52" y="-97.5" font-family="Helvetica,sans-Serif" font-size="10.00">QLabel *</text>
</g>
<!-- Node8&#45;&gt;Node2 -->
<g id="edge14" class="edge"><title>Node8&#45;&gt;Node2</title>
<path fill="none" stroke="#9a32cd" stroke-dasharray="5,2" d="M89.3491,-98.4641C117.21,-98.951 155.258,-103.194 184,-120 209.54,-134.934 227.813,-166.112 236.071,-182.469"/>
<polygon fill="#9a32cd" stroke="#9a32cd" points="89.218,-94.9639 79.2108,-98.443 89.2034,-101.964 89.218,-94.9639"/>
<text text-anchor="middle" x="153" y="-163" font-family="Helvetica,sans-Serif" font-size="10.00">label_2</text>
<text text-anchor="middle" x="153" y="-150" font-family="Helvetica,sans-Serif" font-size="10.00">label_3</text>
<text text-anchor="middle" x="153" y="-137" font-family="Helvetica,sans-Serif" font-size="10.00">label_4</text>
<text text-anchor="middle" x="153" y="-124" font-family="Helvetica,sans-Serif" font-size="10.00">label</text>
</g>
<!-- Node9 -->
<g id="node16" class="node"><title>Node9</title>
<polygon fill="none" stroke="#bfbfbf" points="15,-40.5 15,-61.5 89,-61.5 89,-40.5 15,-40.5"/>
<text text-anchor="middle" x="52" y="-48.5" font-family="Helvetica,sans-Serif" font-size="10.00">QGroupBox *</text>
</g>
<!-- Node9&#45;&gt;Node2 -->
<g id="edge16" class="edge"><title>Node9&#45;&gt;Node2</title>
<path fill="none" stroke="#9a32cd" stroke-dasharray="5,2" d="M99.2466,-47.2186C126.473,-47.4474 159.956,-52.1021 184,-70 221.947,-98.2476 235.444,-157.963 239.492,-182.319"/>
<polygon fill="#9a32cd" stroke="#9a32cd" points="99.1118,-43.7198 89.1508,-47.3293 99.1886,-50.7194 99.1118,-43.7198"/>
<text text-anchor="middle" x="153" y="-87" font-family="Helvetica,sans-Serif" font-size="10.00">groupBox</text>
<text text-anchor="middle" x="153" y="-74" font-family="Helvetica,sans-Serif" font-size="10.00">enable_check</text>
</g>
<!-- Node10 -->
<g id="node18" class="node"><title>Node10</title>
<polygon fill="none" stroke="#bfbfbf" points="0,-0.5 0,-21.5 104,-21.5 104,-0.5 0,-0.5"/>
<text text-anchor="middle" x="52" y="-8.5" font-family="Helvetica,sans-Serif" font-size="10.00">QDialogButtonBox *</text>
</g>
<!-- Node10&#45;&gt;Node2 -->
<g id="edge18" class="edge"><title>Node10&#45;&gt;Node2</title>
<path fill="none" stroke="#9a32cd" stroke-dasharray="5,2" d="M114.26,-7.33777C138.394,-9.02705 164.783,-15.0939 184,-31 208.346,-51.1518 231.459,-149.025 238.685,-182.074"/>
<polygon fill="#9a32cd" stroke="#9a32cd" points="114.233,-3.83287 104.082,-6.86588 113.909,-10.8254 114.233,-3.83287"/>
<text text-anchor="middle" x="153" y="-35" font-family="Helvetica,sans-Serif" font-size="10.00">buttonBox</text>
</g>
</g>
</svg>
