<?xml version="1.0" encoding="UTF-8" standalone="no"?>
<!DOCTYPE svg PUBLIC "-//W3C//DTD SVG 1.1//EN"
 "http://www.w3.org/Graphics/SVG/1.1/DTD/svg11.dtd">
<!-- Generated by graphviz version 2.26.3 (20100126.1600)
 -->
<!-- Title: G Pages: 1 -->
<svg width="569pt" height="200pt"
 viewBox="0.00 0.00 569.00 200.00" xmlns="http://www.w3.org/2000/svg" xmlns:xlink="http://www.w3.org/1999/xlink">
<g id="graph1" class="graph" transform="scale(1 1) rotate(0) translate(4 196)">
<title>G</title>
<!-- Node1 -->
<g id="node1" class="node"><title>Node1</title>
<polygon fill="#bfbfbf" stroke="black" points="228.5,-0.5 228.5,-21.5 317.5,-21.5 317.5,-0.5 228.5,-0.5"/>
<text text-anchor="middle" x="273" y="-8.5" font-family="Helvetica,sans-Serif" font-size="10.00">Ui::config_dialog</text>
</g>
<!-- Node2 -->
<g id="node2" class="node"><title>Node2</title>
<a xlink:href="classUi__config__dialog.html" target="_top" xlink:title="Ui_config_dialog">
<polygon fill="none" stroke="black" points="228.5,-60.5 228.5,-81.5 317.5,-81.5 317.5,-60.5 228.5,-60.5"/>
<text text-anchor="middle" x="273" y="-68.5" font-family="Helvetica,sans-Serif" font-size="10.00">Ui_config_dialog</text>
</a>
</g>
<!-- Node2&#45;&gt;Node1 -->
<g id="edge2" class="edge"><title>Node2&#45;&gt;Node1</title>
<path fill="none" stroke="midnightblue" d="M273,-50.2312C273,-40.5922 273,-29.5444 273,-21.6339"/>
<polygon fill="midnightblue" stroke="midnightblue" points="269.5,-50.2732 273,-60.2732 276.5,-50.2732 269.5,-50.2732"/>
</g>
<!-- Node3 -->
<g id="node4" class="node"><title>Node3</title>
<polygon fill="none" stroke="#bfbfbf" points="-0.5,-170.5 -0.5,-191.5 76.5,-191.5 76.5,-170.5 -0.5,-170.5"/>
<text text-anchor="middle" x="38" y="-178.5" font-family="Helvetica,sans-Serif" font-size="10.00">QCheckBox *</text>
</g>
<!-- Node3&#45;&gt;Node2 -->
<g id="edge4" class="edge"><title>Node3&#45;&gt;Node2</title>
<path fill="none" stroke="#9a32cd" stroke-dasharray="5,2" d="M42.6457,-160.545C48.0547,-141.686 58.9304,-114.489 79,-100 102.193,-83.2556 178.494,-75.999 228.211,-72.9886"/>
<polygon fill="#9a32cd" stroke="#9a32cd" points="39.2439,-159.72 40.1219,-170.279 46.0198,-161.477 39.2439,-159.72"/>
<text text-anchor="middle" x="104" y="-123.5" font-family="Helvetica,sans-Serif" font-size="10.00">fluid_check</text>
</g>
<!-- Node4 -->
<g id="node6" class="node"><title>Node4</title>
<polygon fill="none" stroke="#bfbfbf" points="94,-170.5 94,-191.5 172,-191.5 172,-170.5 94,-170.5"/>
<text text-anchor="middle" x="133" y="-178.5" font-family="Helvetica,sans-Serif" font-size="10.00">QGridLayout *</text>
</g>
<!-- Node4&#45;&gt;Node2 -->
<g id="edge6" class="edge"><title>Node4&#45;&gt;Node2</title>
<path fill="none" stroke="#9a32cd" stroke-dasharray="5,2" d="M133.046,-160.146C134.24,-141.813 138.938,-115.678 155,-100 165.53,-89.7222 199.623,-82.0343 228.472,-77.1657"/>
<polygon fill="#9a32cd" stroke="#9a32cd" points="129.539,-160.273 132.685,-170.39 136.535,-160.519 129.539,-160.273"/>
<text text-anchor="middle" x="183" y="-136.5" font-family="Helvetica,sans-Serif" font-size="10.00">gridLayout</text>
<text text-anchor="middle" x="183" y="-123.5" font-family="Helvetica,sans-Serif" font-size="10.00">gridLayout_2</text>
<text text-anchor="middle" x="183" y="-110.5" font-family="Helvetica,sans-Serif" font-size="10.00">gridLayout_3</text>
</g>
<!-- Node5 -->
<g id="node8" class="node"><title>Node5</title>
<polygon fill="none" stroke="#bfbfbf" points="190,-170.5 190,-191.5 270,-191.5 270,-170.5 190,-170.5"/>
<text text-anchor="middle" x="230" y="-178.5" font-family="Helvetica,sans-Serif" font-size="10.00">QComboBox *</text>
</g>
<!-- Node5&#45;&gt;Node2 -->
<g id="edge8" class="edge"><title>Node5&#45;&gt;Node2</title>
<path fill="none" stroke="#9a32cd" stroke-dasharray="5,2" d="M221.713,-160.794C216.016,-143.491 211.232,-118.511 222,-100 226.661,-91.9882 234.452,-86.0079 242.56,-81.6272"/>
<polygon fill="#9a32cd" stroke="#9a32cd" points="218.523,-162.262 225.247,-170.45 225.097,-159.856 218.523,-162.262"/>
<text text-anchor="middle" x="263" y="-143" font-family="Helvetica,sans-Serif" font-size="10.00">comboBox</text>
<text text-anchor="middle" x="263" y="-130" font-family="Helvetica,sans-Serif" font-size="10.00">icon_size_combo</text>
<text text-anchor="middle" x="263" y="-117" font-family="Helvetica,sans-Serif" font-size="10.00">language_combo</text>
<text text-anchor="middle" x="263" y="-104" font-family="Helvetica,sans-Serif" font-size="10.00">icon_show_combo</text>
</g>
<!-- Node6 -->
<g id="node10" class="node"><title>Node6</title>
<polygon fill="none" stroke="#bfbfbf" points="293,-170.5 293,-191.5 347,-191.5 347,-170.5 293,-170.5"/>
<text text-anchor="middle" x="320" y="-178.5" font-family="Helvetica,sans-Serif" font-size="10.00">QLabel *</text>
</g>
<!-- Node6&#45;&gt;Node2 -->
<g id="edge10" class="edge"><title>Node6&#45;&gt;Node2</title>
<path fill="none" stroke="#9a32cd" stroke-dasharray="5,2" d="M319.393,-160.266C318.102,-143.146 314.389,-118.71 304,-100 300.065,-92.9125 293.788,-86.5615 287.908,-81.6227"/>
<polygon fill="#9a32cd" stroke="#9a32cd" points="315.902,-160.529 319.937,-170.326 322.891,-160.151 315.902,-160.529"/>
<text text-anchor="middle" x="333.5" y="-143" font-family="Helvetica,sans-Serif" font-size="10.00">label_2</text>
<text text-anchor="middle" x="333.5" y="-130" font-family="Helvetica,sans-Serif" font-size="10.00">label_3</text>
<text text-anchor="middle" x="333.5" y="-117" font-family="Helvetica,sans-Serif" font-size="10.00">label_4</text>
<text text-anchor="middle" x="333.5" y="-104" font-family="Helvetica,sans-Serif" font-size="10.00">label</text>
</g>
<!-- Node7 -->
<g id="node12" class="node"><title>Node7</title>
<polygon fill="none" stroke="#bfbfbf" points="365,-170.5 365,-191.5 439,-191.5 439,-170.5 365,-170.5"/>
<text text-anchor="middle" x="402" y="-178.5" font-family="Helvetica,sans-Serif" font-size="10.00">QGroupBox *</text>
</g>
<!-- Node7&#45;&gt;Node2 -->
<g id="edge12" class="edge"><title>Node7&#45;&gt;Node2</title>
<path fill="none" stroke="#9a32cd" stroke-dasharray="5,2" d="M394.515,-161.097C386.716,-142.858 372.846,-116.288 353,-100 342.837,-91.6585 330.071,-85.6118 317.74,-81.2726"/>
<polygon fill="#9a32cd" stroke="#9a32cd" points="391.32,-162.534 398.313,-170.494 397.81,-159.911 391.32,-162.534"/>
<text text-anchor="middle" x="415" y="-130" font-family="Helvetica,sans-Serif" font-size="10.00">groupBox_2</text>
<text text-anchor="middle" x="415" y="-117" font-family="Helvetica,sans-Serif" font-size="10.00">groupBox</text>
</g>
<!-- Node8 -->
<g id="node14" class="node"><title>Node8</title>
<polygon fill="none" stroke="#bfbfbf" points="457,-170.5 457,-191.5 561,-191.5 561,-170.5 457,-170.5"/>
<text text-anchor="middle" x="509" y="-178.5" font-family="Helvetica,sans-Serif" font-size="10.00">QDialogButtonBox *</text>
</g>
<!-- Node8&#45;&gt;Node2 -->
<g id="edge14" class="edge"><title>Node8&#45;&gt;Node2</title>
<path fill="none" stroke="#9a32cd" stroke-dasharray="5,2" d="M499.008,-161.265C488.328,-142.333 469.558,-114.54 445,-100 424.023,-87.5804 361.402,-79.3121 317.813,-74.8859"/>
<polygon fill="#9a32cd" stroke="#9a32cd" points="496.019,-163.096 503.843,-170.24 502.182,-159.776 496.019,-163.096"/>
<text text-anchor="middle" x="515.5" y="-123.5" font-family="Helvetica,sans-Serif" font-size="10.00">buttonBox</text>
</g>
</g>
</svg>
