<?xml version="1.0" encoding="UTF-8" standalone="no"?>
<!DOCTYPE svg PUBLIC "-//W3C//DTD SVG 1.1//EN"
 "http://www.w3.org/Graphics/SVG/1.1/DTD/svg11.dtd">
<!-- Generated by graphviz version 2.26.3 (20100126.1600)
 -->
<!-- Title: G Pages: 1 -->
<svg width="356pt" height="258pt"
 viewBox="0.00 0.00 356.00 258.00" xmlns="http://www.w3.org/2000/svg" xmlns:xlink="http://www.w3.org/1999/xlink">
<g id="graph1" class="graph" transform="scale(1 1) rotate(0) translate(4 254)">
<title>G</title>
<!-- Node1 -->
<g id="node1" class="node"><title>Node1</title>
<polygon fill="#bfbfbf" stroke="black" points="176.5,-0.5 176.5,-21.5 215.5,-21.5 215.5,-0.5 176.5,-0.5"/>
<text text-anchor="middle" x="196" y="-8.5" font-family="Helvetica,sans-Serif" font-size="10.00">Edge</text>
</g>
<!-- Node2 -->
<g id="node2" class="node"><title>Node2</title>
<a xlink:href="classCustomItem.html" target="_top" xlink:title="CustomItem">
<polygon fill="none" stroke="black" points="149.5,-156.5 149.5,-177.5 220.5,-177.5 220.5,-156.5 149.5,-156.5"/>
<text text-anchor="middle" x="185" y="-164.5" font-family="Helvetica,sans-Serif" font-size="10.00">CustomItem</text>
</a>
</g>
<!-- Node2&#45;&gt;Node1 -->
<g id="edge2" class="edge"><title>Node2&#45;&gt;Node1</title>
<path fill="none" stroke="midnightblue" d="M186.468,-146.183C188.839,-112.561 193.428,-47.4788 195.239,-21.7975"/>
<polygon fill="midnightblue" stroke="midnightblue" points="182.968,-146.056 185.756,-156.277 189.951,-146.548 182.968,-146.056"/>
</g>
<!-- Node5 -->
<g id="node8" class="node"><title>Node5</title>
<a xlink:href="classNode.html" target="_top" xlink:title="Node">
<polygon fill="none" stroke="black" points="87,-84.5 87,-105.5 127,-105.5 127,-84.5 87,-84.5"/>
<text text-anchor="middle" x="107" y="-92.5" font-family="Helvetica,sans-Serif" font-size="10.00">Node</text>
</a>
</g>
<!-- Node2&#45;&gt;Node5 -->
<g id="edge10" class="edge"><title>Node2&#45;&gt;Node5</title>
<path fill="none" stroke="midnightblue" d="M165.878,-149.349C151.061,-135.671 131.019,-117.171 118.556,-105.667"/>
<polygon fill="midnightblue" stroke="midnightblue" points="163.769,-152.165 173.491,-156.376 168.517,-147.021 163.769,-152.165"/>
</g>
<!-- Node3 -->
<g id="node4" class="node"><title>Node3</title>
<a xlink:href="classQGraphicsItem.html" target="_top" xlink:title="QGraphicsItem">
<polygon fill="none" stroke="black" points="105.5,-228.5 105.5,-249.5 188.5,-249.5 188.5,-228.5 105.5,-228.5"/>
<text text-anchor="middle" x="147" y="-236.5" font-family="Helvetica,sans-Serif" font-size="10.00">QGraphicsItem</text>
</a>
</g>
<!-- Node3&#45;&gt;Node2 -->
<g id="edge4" class="edge"><title>Node3&#45;&gt;Node2</title>
<path fill="none" stroke="midnightblue" d="M157.334,-219.419C164.431,-205.973 173.58,-188.638 179.37,-177.667"/>
<polygon fill="midnightblue" stroke="midnightblue" points="154.179,-217.899 152.607,-228.376 160.37,-221.166 154.179,-217.899"/>
</g>
<!-- Node4 -->
<g id="node6" class="node"><title>Node4</title>
<polygon fill="none" stroke="#bfbfbf" points="205.5,-228.5 205.5,-249.5 240.5,-249.5 240.5,-228.5 205.5,-228.5"/>
<text text-anchor="middle" x="223" y="-236.5" font-family="Helvetica,sans-Serif" font-size="10.00">bool</text>
</g>
<!-- Node4&#45;&gt;Node2 -->
<g id="edge6" class="edge"><title>Node4&#45;&gt;Node2</title>
<path fill="none" stroke="#9a32cd" stroke-dasharray="5,2" d="M212.666,-219.419C205.569,-205.973 196.42,-188.638 190.63,-177.667"/>
<polygon fill="#9a32cd" stroke="#9a32cd" points="209.63,-221.166 217.393,-228.376 215.821,-217.899 209.63,-221.166"/>
<text text-anchor="middle" x="226.5" y="-200.5" font-family="Helvetica,sans-Serif" font-size="10.00">highlight</text>
</g>
<!-- Node5&#45;&gt;Node1 -->
<g id="edge8" class="edge"><title>Node5&#45;&gt;Node1</title>
<path fill="none" stroke="#9a32cd" stroke-dasharray="5,2" d="M116.896,-75.0384C123.217,-63.7477 132.239,-49.944 143,-40 152.706,-31.0308 165.697,-23.8655 176.388,-18.9011"/>
<polygon fill="#9a32cd" stroke="#9a32cd" points="113.655,-73.6793 112.061,-84.1535 119.839,-76.9595 113.655,-73.6793"/>
<text text-anchor="middle" x="153" y="-57" font-family="Helvetica,sans-Serif" font-size="10.00">end</text>
<text text-anchor="middle" x="153" y="-44" font-family="Helvetica,sans-Serif" font-size="10.00">start</text>
</g>
<!-- Node6 -->
<g id="node11" class="node"><title>Node6</title>
<polygon fill="none" stroke="#bfbfbf" points="-0.5,-156.5 -0.5,-177.5 28.5,-177.5 28.5,-156.5 -0.5,-156.5"/>
<text text-anchor="middle" x="14" y="-164.5" font-family="Helvetica,sans-Serif" font-size="10.00">int</text>
</g>
<!-- Node6&#45;&gt;Node5 -->
<g id="edge12" class="edge"><title>Node6&#45;&gt;Node5</title>
<path fill="none" stroke="#9a32cd" stroke-dasharray="5,2" d="M33.9599,-149.899C43.5176,-141.865 55.2077,-132.26 66,-124 74.1697,-117.747 83.5189,-111.097 91.2246,-105.745"/>
<polygon fill="#9a32cd" stroke="#9a32cd" points="31.5558,-147.348 26.1859,-156.482 36.0793,-152.691 31.5558,-147.348"/>
<text text-anchor="middle" x="79.5" y="-128.5" font-family="Helvetica,sans-Serif" font-size="10.00">radius</text>
</g>
<!-- Node7 -->
<g id="node13" class="node"><title>Node7</title>
<polygon fill="none" stroke="#bfbfbf" points="45.5,-156.5 45.5,-177.5 132.5,-177.5 132.5,-156.5 45.5,-156.5"/>
<text text-anchor="middle" x="89" y="-164.5" font-family="Helvetica,sans-Serif" font-size="10.00">QList&lt; Edge * &gt;</text>
</g>
<!-- Node7&#45;&gt;Node5 -->
<g id="edge14" class="edge"><title>Node7&#45;&gt;Node5</title>
<path fill="none" stroke="#9a32cd" stroke-dasharray="5,2" d="M94.0921,-146.632C97.4244,-133.303 101.644,-116.425 104.333,-105.667"/>
<polygon fill="#9a32cd" stroke="#9a32cd" points="90.6859,-145.826 91.656,-156.376 97.4769,-147.524 90.6859,-145.826"/>
<text text-anchor="middle" x="113.5" y="-128.5" font-family="Helvetica,sans-Serif" font-size="10.00">edges</text>
</g>
<!-- Node8 -->
<g id="node15" class="node"><title>Node8</title>
<polygon fill="none" stroke="#bfbfbf" points="204.5,-84.5 204.5,-105.5 239.5,-105.5 239.5,-84.5 204.5,-84.5"/>
<text text-anchor="middle" x="222" y="-92.5" font-family="Helvetica,sans-Serif" font-size="10.00">long</text>
</g>
<!-- Node8&#45;&gt;Node1 -->
<g id="edge16" class="edge"><title>Node8&#45;&gt;Node1</title>
<path fill="none" stroke="#9a32cd" stroke-dasharray="5,2" d="M215.632,-74.4249C210.452,-57.6927 203.356,-34.7645 199.266,-21.5523"/>
<polygon fill="#9a32cd" stroke="#9a32cd" points="212.407,-75.8434 218.707,-84.3613 219.094,-73.7736 212.407,-75.8434"/>
<text text-anchor="middle" x="253" y="-50.5" font-family="Helvetica,sans-Serif" font-size="10.00">traversed_handles</text>
</g>
<!-- Node9 -->
<g id="node17" class="node"><title>Node9</title>
<polygon fill="none" stroke="#bfbfbf" points="289.5,-84.5 289.5,-105.5 348.5,-105.5 348.5,-84.5 289.5,-84.5"/>
<text text-anchor="middle" x="319" y="-92.5" font-family="Helvetica,sans-Serif" font-size="10.00">type_type</text>
</g>
<!-- Node9&#45;&gt;Node1 -->
<g id="edge18" class="edge"><title>Node9&#45;&gt;Node1</title>
<path fill="none" stroke="#9a32cd" stroke-dasharray="5,2" d="M315.369,-74.2891C312.319,-62.7113 306.813,-48.87 297,-40 285.09,-29.235 241.818,-19.5648 215.936,-14.5723"/>
<polygon fill="#9a32cd" stroke="#9a32cd" points="311.957,-75.0688 317.532,-84.0779 318.792,-73.5582 311.957,-75.0688"/>
<text text-anchor="middle" x="321.5" y="-50.5" font-family="Helvetica,sans-Serif" font-size="10.00">type</text>
</g>
</g>
</svg>
