<?xml version="1.0" encoding="UTF-8" standalone="no"?>
<!DOCTYPE svg PUBLIC "-//W3C//DTD SVG 1.1//EN"
 "http://www.w3.org/Graphics/SVG/1.1/DTD/svg11.dtd">
<!-- Generated by graphviz version 2.26.3 (20100126.1600)
 -->
<!-- Title: G Pages: 1 -->
<svg width="1310pt" height="727pt"
 viewBox="0.00 0.00 1310.00 727.00" xmlns="http://www.w3.org/2000/svg" xmlns:xlink="http://www.w3.org/1999/xlink">
<g id="graph1" class="graph" transform="scale(1 1) rotate(0) translate(4 723)">
<title>G</title>
<!-- Node1 -->
<g id="node1" class="node"><title>Node1</title>
<polygon fill="#bfbfbf" stroke="black" points="1234.5,-642.5 1234.5,-663.5 1301.5,-663.5 1301.5,-642.5 1234.5,-642.5"/>
<text text-anchor="middle" x="1268" y="-650.5" font-family="Helvetica,sans-Serif" font-size="10.00">StyleDialog</text>
</g>
<!-- Node2 -->
<g id="node2" class="node"><title>Node2</title>
<a xlink:href="classQDialog.html" target="_top" xlink:title="QDialog">
<polygon fill="none" stroke="black" points="1019,-697.5 1019,-718.5 1071,-718.5 1071,-697.5 1019,-697.5"/>
<text text-anchor="middle" x="1045" y="-705.5" font-family="Helvetica,sans-Serif" font-size="10.00">QDialog</text>
</a>
</g>
<!-- Node2&#45;&gt;Node1 -->
<g id="edge2" class="edge"><title>Node2&#45;&gt;Node1</title>
<path fill="none" stroke="midnightblue" d="M1081.51,-706.637C1116.79,-704.406 1171.31,-698.52 1216,-683 1229.39,-678.35 1243.23,-670.174 1253.26,-663.531"/>
<polygon fill="midnightblue" stroke="midnightblue" points="1081,-703.161 1071.21,-707.219 1081.4,-710.15 1081,-703.161"/>
</g>
<!-- Node3 -->
<g id="node4" class="node"><title>Node3</title>
<a xlink:href="classUi_1_1StyleDialog.html" target="_top" xlink:title="Ui::StyleDialog">
<polygon fill="none" stroke="black" points="1003.5,-619.5 1003.5,-640.5 1086.5,-640.5 1086.5,-619.5 1003.5,-619.5"/>
<text text-anchor="middle" x="1045" y="-627.5" font-family="Helvetica,sans-Serif" font-size="10.00">Ui::StyleDialog</text>
</a>
</g>
<!-- Node3&#45;&gt;Node1 -->
<g id="edge4" class="edge"><title>Node3&#45;&gt;Node1</title>
<path fill="none" stroke="#8b1a1a" d="M1096.79,-635.342C1139.1,-639.705 1197.67,-645.747 1234.17,-649.511"/>
<polygon fill="#8b1a1a" stroke="#8b1a1a" points="1096.99,-631.844 1086.68,-634.299 1096.27,-638.807 1096.99,-631.844"/>
</g>
<!-- Node4 -->
<g id="node6" class="node"><title>Node4</title>
<a xlink:href="classUi__StyleDialog.html" target="_top" xlink:title="Ui_StyleDialog">
<polygon fill="none" stroke="black" points="828,-436.5 828,-457.5 910,-457.5 910,-436.5 828,-436.5"/>
<text text-anchor="middle" x="869" y="-444.5" font-family="Helvetica,sans-Serif" font-size="10.00">Ui_StyleDialog</text>
</a>
</g>
<!-- Node4&#45;&gt;Node3 -->
<g id="edge6" class="edge"><title>Node4&#45;&gt;Node3</title>
<path fill="none" stroke="midnightblue" d="M872.924,-467.881C880.679,-503.037 901.424,-573.747 948,-610 963.604,-622.146 984.763,-627.415 1003.34,-629.535"/>
<polygon fill="midnightblue" stroke="midnightblue" points="876.294,-466.892 870.847,-457.805 869.438,-468.306 876.294,-466.892"/>
</g>
<!-- Node5 -->
<g id="node8" class="node"><title>Node5</title>
<polygon fill="none" stroke="#bfbfbf" points="593,-570.5 593,-591.5 691,-591.5 691,-570.5 593,-570.5"/>
<text text-anchor="middle" x="642" y="-578.5" font-family="Helvetica,sans-Serif" font-size="10.00">QDoubleSpinBox *</text>
</g>
<!-- Node5&#45;&gt;Node4 -->
<g id="edge8" class="edge"><title>Node5&#45;&gt;Node4</title>
<path fill="none" stroke="#9a32cd" stroke-dasharray="5,2" d="M701.306,-578.942C742.417,-576.464 792.751,-571.006 810,-559 845.715,-534.14 861.477,-480.736 866.787,-457.814"/>
<polygon fill="#9a32cd" stroke="#9a32cd" points="700.869,-575.461 691.079,-579.511 701.258,-582.45 700.869,-575.461"/>
<text text-anchor="middle" x="761" y="-635" font-family="Helvetica,sans-Serif" font-size="10.00">outline_width_spinner</text>
<text text-anchor="middle" x="761" y="-622" font-family="Helvetica,sans-Serif" font-size="10.00">knot_width_spinner</text>
<text text-anchor="middle" x="761" y="-609" font-family="Helvetica,sans-Serif" font-size="10.00">handle_length_spinner</text>
<text text-anchor="middle" x="761" y="-596" font-family="Helvetica,sans-Serif" font-size="10.00">crossing_gap_spinner</text>
<text text-anchor="middle" x="761" y="-583" font-family="Helvetica,sans-Serif" font-size="10.00">cusp_angle_spinner</text>
</g>
<!-- Node6 -->
<g id="node10" class="node"><title>Node6</title>
<polygon fill="none" stroke="#bfbfbf" points="603,-521.5 603,-542.5 681,-542.5 681,-521.5 603,-521.5"/>
<text text-anchor="middle" x="642" y="-529.5" font-family="Helvetica,sans-Serif" font-size="10.00">QGridLayout *</text>
</g>
<!-- Node6&#45;&gt;Node4 -->
<g id="edge10" class="edge"><title>Node6&#45;&gt;Node4</title>
<path fill="none" stroke="#9a32cd" stroke-dasharray="5,2" d="M691.548,-532.787C726.402,-531.447 773.204,-525.727 810,-507 832.655,-495.47 851.77,-471.895 861.691,-457.976"/>
<polygon fill="#9a32cd" stroke="#9a32cd" points="691.039,-529.299 681.138,-533.071 691.23,-536.297 691.039,-529.299"/>
<text text-anchor="middle" x="761" y="-549" font-family="Helvetica,sans-Serif" font-size="10.00">gridLayout</text>
<text text-anchor="middle" x="761" y="-536" font-family="Helvetica,sans-Serif" font-size="10.00">gridLayout_2</text>
</g>
<!-- Node7 -->
<g id="node12" class="node"><title>Node7</title>
<polygon fill="none" stroke="#bfbfbf" points="602,-474.5 602,-495.5 682,-495.5 682,-474.5 602,-474.5"/>
<text text-anchor="middle" x="642" y="-482.5" font-family="Helvetica,sans-Serif" font-size="10.00">QComboBox *</text>
</g>
<!-- Node7&#45;&gt;Node4 -->
<g id="edge12" class="edge"><title>Node7&#45;&gt;Node4</title>
<path fill="none" stroke="#9a32cd" stroke-dasharray="5,2" d="M692.231,-479.039C725.72,-474.768 770.651,-468.463 810,-461 815.792,-459.901 821.873,-458.614 827.84,-457.272"/>
<polygon fill="#9a32cd" stroke="#9a32cd" points="691.709,-475.578 682.224,-480.299 692.583,-482.523 691.709,-475.578"/>
<text text-anchor="middle" x="761" y="-494" font-family="Helvetica,sans-Serif" font-size="10.00">point_combo</text>
<text text-anchor="middle" x="761" y="-481" font-family="Helvetica,sans-Serif" font-size="10.00">style_combo</text>
</g>
<!-- Node8 -->
<g id="node14" class="node"><title>Node8</title>
<polygon fill="none" stroke="#bfbfbf" points="605,-434.5 605,-455.5 679,-455.5 679,-434.5 605,-434.5"/>
<text text-anchor="middle" x="642" y="-442.5" font-family="Helvetica,sans-Serif" font-size="10.00">QGroupBox *</text>
</g>
<!-- Node8&#45;&gt;Node4 -->
<g id="edge14" class="edge"><title>Node8&#45;&gt;Node4</title>
<path fill="none" stroke="#9a32cd" stroke-dasharray="5,2" d="M689.238,-445.416C730.194,-445.777 788.863,-446.294 827.907,-446.638"/>
<polygon fill="#9a32cd" stroke="#9a32cd" points="689.261,-441.916 679.23,-445.328 689.199,-448.916 689.261,-441.916"/>
<text text-anchor="middle" x="761" y="-451" font-family="Helvetica,sans-Serif" font-size="10.00">groupBox</text>
</g>
<!-- Node9 -->
<g id="node16" class="node"><title>Node9</title>
<polygon fill="none" stroke="#bfbfbf" points="615,-300.5 615,-321.5 669,-321.5 669,-300.5 615,-300.5"/>
<text text-anchor="middle" x="642" y="-308.5" font-family="Helvetica,sans-Serif" font-size="10.00">QLabel *</text>
</g>
<!-- Node9&#45;&gt;Node4 -->
<g id="edge16" class="edge"><title>Node9&#45;&gt;Node4</title>
<path fill="none" stroke="#9a32cd" stroke-dasharray="5,2" d="M679.367,-304.184C715.928,-299.64 771.571,-298.611 810,-325 848.983,-351.77 863.122,-411.712 867.398,-436.233"/>
<polygon fill="#9a32cd" stroke="#9a32cd" points="678.554,-300.764 669.133,-305.61 679.52,-307.697 678.554,-300.764"/>
<text text-anchor="middle" x="761" y="-433" font-family="Helvetica,sans-Serif" font-size="10.00">label_2</text>
<text text-anchor="middle" x="761" y="-420" font-family="Helvetica,sans-Serif" font-size="10.00">label_3</text>
<text text-anchor="middle" x="761" y="-407" font-family="Helvetica,sans-Serif" font-size="10.00">label_4</text>
<text text-anchor="middle" x="761" y="-394" font-family="Helvetica,sans-Serif" font-size="10.00">label_5</text>
<text text-anchor="middle" x="761" y="-381" font-family="Helvetica,sans-Serif" font-size="10.00">label_6</text>
<text text-anchor="middle" x="761" y="-368" font-family="Helvetica,sans-Serif" font-size="10.00">label_7</text>
<text text-anchor="middle" x="761" y="-355" font-family="Helvetica,sans-Serif" font-size="10.00">label_8</text>
<text text-anchor="middle" x="761" y="-342" font-family="Helvetica,sans-Serif" font-size="10.00">label_9</text>
<text text-anchor="middle" x="761" y="-329" font-family="Helvetica,sans-Serif" font-size="10.00">label</text>
</g>
<!-- Node10 -->
<g id="node18" class="node"><title>Node10</title>
<polygon fill="none" stroke="#bfbfbf" points="590,-260.5 590,-281.5 694,-281.5 694,-260.5 590,-260.5"/>
<text text-anchor="middle" x="642" y="-268.5" font-family="Helvetica,sans-Serif" font-size="10.00">QDialogButtonBox *</text>
</g>
<!-- Node10&#45;&gt;Node4 -->
<g id="edge18" class="edge"><title>Node10&#45;&gt;Node4</title>
<path fill="none" stroke="#9a32cd" stroke-dasharray="5,2" d="M704.141,-260.915C738.609,-258.79 780.364,-262.361 810,-285 835.332,-304.351 859.354,-403.65 866.71,-436.462"/>
<polygon fill="#9a32cd" stroke="#9a32cd" points="703.861,-257.426 694.165,-261.697 704.409,-264.404 703.861,-257.426"/>
<text text-anchor="middle" x="761" y="-289" font-family="Helvetica,sans-Serif" font-size="10.00">buttonBox</text>
</g>
<!-- Node11 -->
<g id="node20" class="node"><title>Node11</title>
<a xlink:href="classColorWidget.html" target="_top" xlink:title="ColorWidget">
<polygon fill="none" stroke="black" points="606.5,-40.5 606.5,-61.5 677.5,-61.5 677.5,-40.5 606.5,-40.5"/>
<text text-anchor="middle" x="642" y="-48.5" font-family="Helvetica,sans-Serif" font-size="10.00">ColorWidget</text>
</a>
</g>
<!-- Node11&#45;&gt;Node4 -->
<g id="edge20" class="edge"><title>Node11&#45;&gt;Node4</title>
<path fill="none" stroke="#9a32cd" stroke-dasharray="5,2" d="M670.967,-66.7703C709.024,-89.0512 775.103,-133.415 810,-190 836.553,-233.056 861.231,-393.304 867.482,-436.316"/>
<polygon fill="#9a32cd" stroke="#9a32cd" points="672.347,-63.5271 661.932,-61.5874 668.864,-69.5991 672.347,-63.5271"/>
<text text-anchor="middle" x="761" y="-207" font-family="Helvetica,sans-Serif" font-size="10.00">outline_color</text>
<text text-anchor="middle" x="761" y="-194" font-family="Helvetica,sans-Serif" font-size="10.00">color</text>
</g>
<!-- Node12 -->
<g id="node22" class="node"><title>Node12</title>
<a xlink:href="classQLineEdit.html" target="_top" xlink:title="QLineEdit">
<polygon fill="none" stroke="black" points="407.5,-0.5 407.5,-21.5 466.5,-21.5 466.5,-0.5 407.5,-0.5"/>
<text text-anchor="middle" x="437" y="-8.5" font-family="Helvetica,sans-Serif" font-size="10.00">QLineEdit</text>
</a>
</g>
<!-- Node12&#45;&gt;Node11 -->
<g id="edge22" class="edge"><title>Node12&#45;&gt;Node11</title>
<path fill="none" stroke="midnightblue" d="M476.887,-18.7829C514.44,-26.1102 570.169,-36.9841 606.293,-44.0327"/>
<polygon fill="midnightblue" stroke="midnightblue" points="477.294,-15.2963 466.809,-16.8163 475.953,-22.1667 477.294,-15.2963"/>
</g>
<!-- Node13 -->
<g id="node24" class="node"><title>Node13</title>
<polygon fill="none" stroke="#bfbfbf" points="399.5,-40.5 399.5,-61.5 474.5,-61.5 474.5,-40.5 399.5,-40.5"/>
<text text-anchor="middle" x="437" y="-48.5" font-family="Helvetica,sans-Serif" font-size="10.00">QColorDialog</text>
</g>
<!-- Node13&#45;&gt;Node11 -->
<g id="edge24" class="edge"><title>Node13&#45;&gt;Node11</title>
<path fill="none" stroke="#9a32cd" stroke-dasharray="5,2" d="M484.698,-51C521.868,-51 572.659,-51 606.354,-51"/>
<polygon fill="#9a32cd" stroke="#9a32cd" points="484.6,-47.5001 474.6,-51 484.6,-54.5001 484.6,-47.5001"/>
<text text-anchor="middle" x="541" y="-55" font-family="Helvetica,sans-Serif" font-size="10.00">color_dialog</text>
</g>
<!-- Node14 -->
<g id="node26" class="node"><title>Node14</title>
<a xlink:href="classKnotView.html" target="_top" xlink:title="KnotView">
<polygon fill="none" stroke="black" points="612.5,-220.5 612.5,-241.5 671.5,-241.5 671.5,-220.5 612.5,-220.5"/>
<text text-anchor="middle" x="642" y="-228.5" font-family="Helvetica,sans-Serif" font-size="10.00">KnotView</text>
</a>
</g>
<!-- Node14&#45;&gt;Node4 -->
<g id="edge26" class="edge"><title>Node14&#45;&gt;Node4</title>
<path fill="none" stroke="#9a32cd" stroke-dasharray="5,2" d="M681.797,-222.354C719.096,-216.707 774.312,-214.988 810,-244 840.97,-269.177 861.904,-398.106 867.499,-436.315"/>
<polygon fill="#9a32cd" stroke="#9a32cd" points="681.069,-218.927 671.783,-224.029 682.223,-225.831 681.069,-218.927"/>
<text text-anchor="middle" x="761" y="-248" font-family="Helvetica,sans-Serif" font-size="10.00">preview</text>
</g>
<!-- Node15 -->
<g id="node28" class="node"><title>Node15</title>
<a xlink:href="classQGraphicsView.html" target="_top" xlink:title="QGraphicsView">
<polygon fill="none" stroke="black" points="394.5,-320.5 394.5,-341.5 479.5,-341.5 479.5,-320.5 394.5,-320.5"/>
<text text-anchor="middle" x="437" y="-328.5" font-family="Helvetica,sans-Serif" font-size="10.00">QGraphicsView</text>
</a>
</g>
<!-- Node15&#45;&gt;Node14 -->
<g id="edge28" class="edge"><title>Node15&#45;&gt;Node14</title>
<path fill="none" stroke="midnightblue" d="M489.892,-328.478C517.248,-324.63 549.523,-315.793 572,-296 588.166,-281.764 574.667,-266.13 590,-251 596.128,-244.954 604.28,-240.694 612.308,-237.71"/>
<polygon fill="midnightblue" stroke="midnightblue" points="489.183,-325.038 479.679,-329.72 490.028,-331.987 489.183,-325.038"/>
</g>
<!-- Node16 -->
<g id="node30" class="node"><title>Node16</title>
<a xlink:href="classNode.html" target="_top" xlink:title="Node">
<polygon fill="none" stroke="black" points="417,-80.5 417,-101.5 457,-101.5 457,-80.5 417,-80.5"/>
<text text-anchor="middle" x="437" y="-88.5" font-family="Helvetica,sans-Serif" font-size="10.00">Node</text>
</a>
</g>
<!-- Node16&#45;&gt;Node14 -->
<g id="edge30" class="edge"><title>Node16&#45;&gt;Node14</title>
<path fill="none" stroke="#9a32cd" stroke-dasharray="5,2" d="M467.178,-93.2621C496.365,-96.7488 540.66,-105.593 572,-128 606.296,-152.52 628.959,-199.448 637.813,-220.419"/>
<polygon fill="#9a32cd" stroke="#9a32cd" points="467.473,-89.7739 457.161,-92.2048 466.738,-96.7352 467.473,-89.7739"/>
<text text-anchor="middle" x="541" y="-132" font-family="Helvetica,sans-Serif" font-size="10.00">last_node</text>
</g>
<!-- Node17 -->
<g id="node32" class="node"><title>Node17</title>
<a xlink:href="classCustomItem.html" target="_top" xlink:title="CustomItem">
<polygon fill="none" stroke="black" points="176.5,-103.5 176.5,-124.5 247.5,-124.5 247.5,-103.5 176.5,-103.5"/>
<text text-anchor="middle" x="212" y="-111.5" font-family="Helvetica,sans-Serif" font-size="10.00">CustomItem</text>
</a>
</g>
<!-- Node17&#45;&gt;Node16 -->
<g id="edge32" class="edge"><title>Node17&#45;&gt;Node16</title>
<path fill="none" stroke="midnightblue" d="M257.627,-109.336C306.351,-104.355 381.346,-96.6891 416.932,-93.0514"/>
<polygon fill="midnightblue" stroke="midnightblue" points="257.244,-105.857 247.652,-110.356 257.956,-112.82 257.244,-105.857"/>
</g>
<!-- Node18 -->
<g id="node34" class="node"><title>Node18</title>
<a xlink:href="classQGraphicsItem.html" target="_top" xlink:title="QGraphicsItem">
<polygon fill="none" stroke="black" points="0.5,-123.5 0.5,-144.5 83.5,-144.5 83.5,-123.5 0.5,-123.5"/>
<text text-anchor="middle" x="42" y="-131.5" font-family="Helvetica,sans-Serif" font-size="10.00">QGraphicsItem</text>
</a>
</g>
<!-- Node18&#45;&gt;Node17 -->
<g id="edge34" class="edge"><title>Node18&#45;&gt;Node17</title>
<path fill="none" stroke="midnightblue" d="M93.5537,-127.935C120.304,-124.788 152.312,-121.022 176.307,-118.199"/>
<polygon fill="midnightblue" stroke="midnightblue" points="93.1092,-124.463 83.5867,-129.107 93.9272,-131.415 93.1092,-124.463"/>
</g>
<!-- Node19 -->
<g id="node36" class="node"><title>Node19</title>
<polygon fill="none" stroke="#bfbfbf" points="24.5,-83.5 24.5,-104.5 59.5,-104.5 59.5,-83.5 24.5,-83.5"/>
<text text-anchor="middle" x="42" y="-91.5" font-family="Helvetica,sans-Serif" font-size="10.00">bool</text>
</g>
<!-- Node19&#45;&gt;Node17 -->
<g id="edge36" class="edge"><title>Node19&#45;&gt;Node17</title>
<path fill="none" stroke="#9a32cd" stroke-dasharray="5,2" d="M69.8058,-97.2713C98.8474,-100.688 144.505,-106.059 176.218,-109.79"/>
<polygon fill="#9a32cd" stroke="#9a32cd" points="69.8932,-93.7575 59.5527,-96.065 69.0752,-100.71 69.8932,-93.7575"/>
<text text-anchor="middle" x="121" y="-110" font-family="Helvetica,sans-Serif" font-size="10.00">highlight</text>
</g>
<!-- Node20 -->
<g id="node38" class="node"><title>Node20</title>
<polygon fill="none" stroke="#bfbfbf" points="197.5,-63.5 197.5,-84.5 226.5,-84.5 226.5,-63.5 197.5,-63.5"/>
<text text-anchor="middle" x="212" y="-71.5" font-family="Helvetica,sans-Serif" font-size="10.00">int</text>
</g>
<!-- Node20&#45;&gt;Node16 -->
<g id="edge38" class="edge"><title>Node20&#45;&gt;Node16</title>
<path fill="none" stroke="#9a32cd" stroke-dasharray="5,2" d="M236.737,-74.4549C266.856,-75.1666 319.249,-76.9128 364,-81 381.962,-82.6405 402.283,-85.5075 416.915,-87.7522"/>
<polygon fill="#9a32cd" stroke="#9a32cd" points="236.777,-70.955 226.703,-74.2371 236.625,-77.9534 236.777,-70.955"/>
<text text-anchor="middle" x="324" y="-85" font-family="Helvetica,sans-Serif" font-size="10.00">radius</text>
</g>
<!-- Node21 -->
<g id="node40" class="node"><title>Node21</title>
<polygon fill="none" stroke="#bfbfbf" points="168.5,-218.5 168.5,-239.5 255.5,-239.5 255.5,-218.5 168.5,-218.5"/>
<text text-anchor="middle" x="212" y="-226.5" font-family="Helvetica,sans-Serif" font-size="10.00">QList&lt; Edge * &gt;</text>
</g>
<!-- Node21&#45;&gt;Node16 -->
<g id="edge40" class="edge"><title>Node21&#45;&gt;Node16</title>
<path fill="none" stroke="#9a32cd" stroke-dasharray="5,2" d="M232.832,-211.866C263.81,-187.028 324.55,-140.746 382,-111 393.098,-105.254 406.228,-100.412 416.876,-96.9327"/>
<polygon fill="#9a32cd" stroke="#9a32cd" points="230.487,-209.262 224.912,-218.272 234.888,-214.705 230.487,-209.262"/>
<text text-anchor="middle" x="324" y="-175" font-family="Helvetica,sans-Serif" font-size="10.00">edges</text>
</g>
<!-- Node27 -->
<g id="node52" class="node"><title>Node27</title>
<a xlink:href="classKnotGraph.html" target="_top" xlink:title="KnotGraph">
<polygon fill="none" stroke="black" points="405.5,-457.5 405.5,-478.5 468.5,-478.5 468.5,-457.5 405.5,-457.5"/>
<text text-anchor="middle" x="437" y="-465.5" font-family="Helvetica,sans-Serif" font-size="10.00">KnotGraph</text>
</a>
</g>
<!-- Node21&#45;&gt;Node27 -->
<g id="edge62" class="edge"><title>Node21&#45;&gt;Node27</title>
<path fill="none" stroke="#9a32cd" stroke-dasharray="5,2" d="M237.048,-245.466C271.032,-269.137 331.254,-316.035 364,-371 380.221,-398.227 362.132,-415.308 382,-440 388.045,-447.513 396.638,-453.204 405.239,-457.426"/>
<polygon fill="#9a32cd" stroke="#9a32cd" points="238.834,-242.447 228.604,-239.688 234.88,-248.224 238.834,-242.447"/>
<text text-anchor="middle" x="324" y="-388" font-family="Helvetica,sans-Serif" font-size="10.00">traversed_edges</text>
<text text-anchor="middle" x="324" y="-375" font-family="Helvetica,sans-Serif" font-size="10.00">edges</text>
</g>
<!-- Node22 -->
<g id="node42" class="node"><title>Node22</title>
<polygon fill="none" stroke="#bfbfbf" points="400.5,-280.5 400.5,-301.5 473.5,-301.5 473.5,-280.5 400.5,-280.5"/>
<text text-anchor="middle" x="437" y="-288.5" font-family="Helvetica,sans-Serif" font-size="10.00">QUndoStack</text>
</g>
<!-- Node22&#45;&gt;Node14 -->
<g id="edge42" class="edge"><title>Node22&#45;&gt;Node14</title>
<path fill="none" stroke="#9a32cd" stroke-dasharray="5,2" d="M483.774,-284.034C510.213,-279.254 543.565,-271.797 572,-261 580.556,-257.751 581.709,-254.874 590,-251 597.186,-247.642 605.103,-244.384 612.546,-241.505"/>
<polygon fill="#9a32cd" stroke="#9a32cd" points="482.891,-280.635 473.638,-285.797 484.09,-287.531 482.891,-280.635"/>
<text text-anchor="middle" x="541" y="-283" font-family="Helvetica,sans-Serif" font-size="10.00">undo_stack</text>
</g>
<!-- Node23 -->
<g id="node44" class="node"><title>Node23</title>
<polygon fill="none" stroke="#bfbfbf" points="386,-240.5 386,-261.5 488,-261.5 488,-240.5 386,-240.5"/>
<text text-anchor="middle" x="437" y="-248.5" font-family="Helvetica,sans-Serif" font-size="10.00">mouse_status_type</text>
</g>
<!-- Node23&#45;&gt;Node14 -->
<g id="edge44" class="edge"><title>Node23&#45;&gt;Node14</title>
<path fill="none" stroke="#9a32cd" stroke-dasharray="5,2" d="M498.568,-244.993C536.225,-241.319 582.703,-236.785 612.35,-233.893"/>
<polygon fill="#9a32cd" stroke="#9a32cd" points="497.814,-241.55 488.201,-246.005 498.494,-248.517 497.814,-241.55"/>
<text text-anchor="middle" x="541" y="-248" font-family="Helvetica,sans-Serif" font-size="10.00">mouse_status</text>
</g>
<!-- Node24 -->
<g id="node46" class="node"><title>Node24</title>
<polygon fill="none" stroke="#bfbfbf" points="410.5,-200.5 410.5,-221.5 463.5,-221.5 463.5,-200.5 410.5,-200.5"/>
<text text-anchor="middle" x="437" y="-208.5" font-family="Helvetica,sans-Serif" font-size="10.00">QPointF</text>
</g>
<!-- Node24&#45;&gt;Node14 -->
<g id="edge46" class="edge"><title>Node24&#45;&gt;Node14</title>
<path fill="none" stroke="#9a32cd" stroke-dasharray="5,2" d="M473.891,-213.54C501.051,-215.524 538.863,-218.522 572,-222 585.283,-223.394 599.945,-225.233 612.403,-226.885"/>
<polygon fill="#9a32cd" stroke="#9a32cd" points="473.899,-210.032 463.674,-212.805 473.397,-217.014 473.899,-210.032"/>
<text text-anchor="middle" x="541" y="-226" font-family="Helvetica,sans-Serif" font-size="10.00">oldpos</text>
</g>
<!-- Node25 -->
<g id="node48" class="node"><title>Node25</title>
<polygon fill="none" stroke="#bfbfbf" points="382,-160.5 382,-181.5 492,-181.5 492,-160.5 382,-160.5"/>
<text text-anchor="middle" x="437" y="-168.5" font-family="Helvetica,sans-Serif" font-size="10.00">QGraphicsRectItem *</text>
</g>
<!-- Node25&#45;&gt;Node14 -->
<g id="edge48" class="edge"><title>Node25&#45;&gt;Node14</title>
<path fill="none" stroke="#9a32cd" stroke-dasharray="5,2" d="M502.269,-182.207C524.642,-186.788 549.66,-192.739 572,-200 589.064,-205.546 607.598,-213.864 621.305,-220.487"/>
<polygon fill="#9a32cd" stroke="#9a32cd" points="502.687,-178.722 492.196,-180.199 501.319,-185.586 502.687,-178.722"/>
<text text-anchor="middle" x="541" y="-204" font-family="Helvetica,sans-Serif" font-size="10.00">rubberband</text>
</g>
<!-- Node26 -->
<g id="node50" class="node"><title>Node26</title>
<polygon fill="none" stroke="#bfbfbf" points="383.5,-120.5 383.5,-141.5 490.5,-141.5 490.5,-120.5 383.5,-120.5"/>
<text text-anchor="middle" x="437" y="-128.5" font-family="Helvetica,sans-Serif" font-size="10.00">QGraphicsLineItem *</text>
</g>
<!-- Node26&#45;&gt;Node14 -->
<g id="edge50" class="edge"><title>Node26&#45;&gt;Node14</title>
<path fill="none" stroke="#9a32cd" stroke-dasharray="5,2" d="M500.615,-142.019C523.987,-147.692 550.075,-156.018 572,-168 597.251,-181.8 620.868,-206.402 633.162,-220.431"/>
<polygon fill="#9a32cd" stroke="#9a32cd" points="501.316,-138.589 490.785,-139.747 499.74,-145.409 501.316,-138.589"/>
<text text-anchor="middle" x="541" y="-172" font-family="Helvetica,sans-Serif" font-size="10.00">guide</text>
</g>
<!-- Node27&#45;&gt;Node14 -->
<g id="edge52" class="edge"><title>Node27&#45;&gt;Node14</title>
<path fill="none" stroke="#9a32cd" stroke-dasharray="5,2" d="M479.031,-470.665C509.482,-470.117 549.166,-463.823 572,-438 599.654,-406.725 564.742,-284.24 590,-251 595.501,-243.761 603.973,-239.141 612.493,-236.194"/>
<polygon fill="#9a32cd" stroke="#9a32cd" points="478.695,-467.165 468.687,-470.642 478.68,-474.165 478.695,-467.165"/>
<text text-anchor="middle" x="541" y="-472" font-family="Helvetica,sans-Serif" font-size="10.00">knot</text>
</g>
<!-- Node28 -->
<g id="node54" class="node"><title>Node28</title>
<a xlink:href="classQGraphicsPathItem.html" target="_top" xlink:title="QGraphicsPathItem">
<polygon fill="none" stroke="black" points="160.5,-421.5 160.5,-442.5 263.5,-442.5 263.5,-421.5 160.5,-421.5"/>
<text text-anchor="middle" x="212" y="-429.5" font-family="Helvetica,sans-Serif" font-size="10.00">QGraphicsPathItem</text>
</a>
</g>
<!-- Node28&#45;&gt;Node27 -->
<g id="edge54" class="edge"><title>Node28&#45;&gt;Node27</title>
<path fill="none" stroke="midnightblue" d="M273.628,-441.86C316.304,-448.689 371.352,-457.496 405.405,-462.945"/>
<polygon fill="midnightblue" stroke="midnightblue" points="274.047,-438.383 263.62,-440.259 272.941,-445.295 274.047,-438.383"/>
</g>
<!-- Node29 -->
<g id="node56" class="node"><title>Node29</title>
<polygon fill="none" stroke="#bfbfbf" points="189.5,-541.5 189.5,-562.5 234.5,-562.5 234.5,-541.5 189.5,-541.5"/>
<text text-anchor="middle" x="212" y="-549.5" font-family="Helvetica,sans-Serif" font-size="10.00">double</text>
</g>
<!-- Node29&#45;&gt;Node27 -->
<g id="edge56" class="edge"><title>Node29&#45;&gt;Node27</title>
<path fill="none" stroke="#9a32cd" stroke-dasharray="5,2" d="M244.54,-549.053C276.147,-545.302 324.947,-537.124 364,-520 387.798,-509.565 411.613,-490.616 425.295,-478.701"/>
<polygon fill="#9a32cd" stroke="#9a32cd" points="244.074,-545.583 234.519,-550.162 244.844,-552.541 244.074,-545.583"/>
<text text-anchor="middle" x="324" y="-573" font-family="Helvetica,sans-Serif" font-size="10.00">cusp_angle</text>
<text text-anchor="middle" x="324" y="-560" font-family="Helvetica,sans-Serif" font-size="10.00">crossing_distance</text>
<text text-anchor="middle" x="324" y="-547" font-family="Helvetica,sans-Serif" font-size="10.00">handle_length</text>
</g>
<!-- Node30 -->
<g id="node58" class="node"><title>Node30</title>
<polygon fill="none" stroke="#bfbfbf" points="158.5,-501.5 158.5,-522.5 265.5,-522.5 265.5,-501.5 158.5,-501.5"/>
<text text-anchor="middle" x="212" y="-509.5" font-family="Helvetica,sans-Serif" font-size="10.00">QPainterPathStroker</text>
</g>
<!-- Node30&#45;&gt;Node27 -->
<g id="edge58" class="edge"><title>Node30&#45;&gt;Node27</title>
<path fill="none" stroke="#9a32cd" stroke-dasharray="5,2" d="M275.927,-503.514C303.194,-499.48 335.283,-494.181 364,-488 377.617,-485.069 392.473,-481.136 405.208,-477.534"/>
<polygon fill="#9a32cd" stroke="#9a32cd" points="275.122,-500.094 265.73,-504.998 276.13,-507.021 275.122,-500.094"/>
<text text-anchor="middle" x="324" y="-507" font-family="Helvetica,sans-Serif" font-size="10.00">stroker</text>
</g>
<!-- Node31 -->
<g id="node60" class="node"><title>Node31</title>
<polygon fill="none" stroke="#bfbfbf" points="174.5,-461.5 174.5,-482.5 249.5,-482.5 249.5,-461.5 174.5,-461.5"/>
<text text-anchor="middle" x="212" y="-469.5" font-family="Helvetica,sans-Serif" font-size="10.00">QPainterPath</text>
</g>
<!-- Node31&#45;&gt;Node27 -->
<g id="edge60" class="edge"><title>Node31&#45;&gt;Node27</title>
<path fill="none" stroke="#9a32cd" stroke-dasharray="5,2" d="M259.812,-471.15C303.72,-470.369 367.539,-469.235 405.403,-468.562"/>
<polygon fill="#9a32cd" stroke="#9a32cd" points="259.596,-467.653 249.66,-471.33 259.721,-474.652 259.596,-467.653"/>
<text text-anchor="middle" x="324" y="-475" font-family="Helvetica,sans-Serif" font-size="10.00">knot</text>
</g>
<!-- Node32 -->
<g id="node63" class="node"><title>Node32</title>
<polygon fill="none" stroke="#bfbfbf" points="194.5,-637.5 194.5,-658.5 229.5,-658.5 229.5,-637.5 194.5,-637.5"/>
<text text-anchor="middle" x="212" y="-645.5" font-family="Helvetica,sans-Serif" font-size="10.00">long</text>
</g>
<!-- Node32&#45;&gt;Node1 -->
<g id="edge72" class="edge"><title>Node32&#45;&gt;Node1</title>
<path fill="none" stroke="#9a32cd" stroke-dasharray="5,2" d="M239.854,-652.282C282.288,-658.423 365.721,-669 437,-669 437,-669 437,-669 1045,-669 1112.34,-669 1190.83,-661.651 1234.43,-656.914"/>
<polygon fill="#9a32cd" stroke="#9a32cd" points="240.144,-648.787 229.74,-650.789 239.121,-655.711 240.144,-648.787"/>
<text text-anchor="middle" x="761" y="-673" font-family="Helvetica,sans-Serif" font-size="10.00">curstyle</text>
</g>
<!-- Node32&#45;&gt;Node27 -->
<g id="edge64" class="edge"><title>Node32&#45;&gt;Node27</title>
<path fill="none" stroke="#9a32cd" stroke-dasharray="5,2" d="M239.62,-642.252C272.349,-634.29 327.086,-617.221 364,-586 400.418,-555.198 424.171,-501.455 433.065,-478.683"/>
<polygon fill="#9a32cd" stroke="#9a32cd" points="238.769,-638.857 229.817,-644.524 240.349,-645.676 238.769,-638.857"/>
<text text-anchor="middle" x="324" y="-633" font-family="Helvetica,sans-Serif" font-size="10.00">curve_style</text>
</g>
<!-- Node33 -->
<g id="node65" class="node"><title>Node33</title>
<polygon fill="none" stroke="#bfbfbf" points="168,-374.5 168,-395.5 256,-395.5 256,-374.5 168,-374.5"/>
<text text-anchor="middle" x="212" y="-382.5" font-family="Helvetica,sans-Serif" font-size="10.00">QList&lt; Node * &gt;</text>
</g>
<!-- Node33&#45;&gt;Node14 -->
<g id="edge68" class="edge"><title>Node33&#45;&gt;Node14</title>
<path fill="none" stroke="#9a32cd" stroke-dasharray="5,2" d="M266.13,-383.794C356.329,-380.563 531.506,-368.679 572,-325 595.012,-300.178 567.653,-276.422 590,-251 595.811,-244.389 604.062,-239.951 612.283,-236.976"/>
<polygon fill="#9a32cd" stroke="#9a32cd" points="265.969,-380.298 256.092,-384.131 266.204,-387.294 265.969,-380.298"/>
<text text-anchor="middle" x="437" y="-381" font-family="Helvetica,sans-Serif" font-size="10.00">moved_nodes</text>
</g>
<!-- Node33&#45;&gt;Node27 -->
<g id="edge66" class="edge"><title>Node33&#45;&gt;Node27</title>
<path fill="none" stroke="#9a32cd" stroke-dasharray="5,2" d="M265.878,-394.979C295.723,-401.7 332.955,-412.098 364,-427 372.896,-431.27 373.578,-434.857 382,-440 392.334,-446.31 404.261,-452.505 414.361,-457.457"/>
<polygon fill="#9a32cd" stroke="#9a32cd" points="266.576,-391.548 256.06,-392.839 265.085,-398.388 266.576,-391.548"/>
<text text-anchor="middle" x="324" y="-431" font-family="Helvetica,sans-Serif" font-size="10.00">nodes</text>
</g>
<!-- Node34 -->
<g id="node68" class="node"><title>Node34</title>
<polygon fill="none" stroke="#bfbfbf" points="404.5,-409.5 404.5,-430.5 469.5,-430.5 469.5,-409.5 404.5,-409.5"/>
<text text-anchor="middle" x="437" y="-417.5" font-family="Helvetica,sans-Serif" font-size="10.00">mode_type</text>
</g>
<!-- Node34&#45;&gt;Node14 -->
<g id="edge70" class="edge"><title>Node34&#45;&gt;Node14</title>
<path fill="none" stroke="#9a32cd" stroke-dasharray="5,2" d="M479.875,-423.128C510.023,-422.816 548.951,-416.91 572,-392 614.907,-345.631 551.002,-300.702 590,-251 595.553,-243.923 603.934,-239.348 612.355,-236.392"/>
<polygon fill="#9a32cd" stroke="#9a32cd" points="479.652,-419.626 469.618,-423.027 479.583,-426.625 479.652,-419.626"/>
<text text-anchor="middle" x="541" y="-425" font-family="Helvetica,sans-Serif" font-size="10.00">mode</text>
</g>
<!-- Node35 -->
<g id="node71" class="node"><title>Node35</title>
<polygon fill="none" stroke="#bfbfbf" points="948,-579.5 948,-600.5 1142,-600.5 1142,-579.5 948,-579.5"/>
<text text-anchor="middle" x="1045" y="-587.5" font-family="Helvetica,sans-Serif" font-size="10.00">QMap&lt; knot_curve_styler::style_id, int &gt;</text>
</g>
<!-- Node35&#45;&gt;Node1 -->
<g id="edge74" class="edge"><title>Node35&#45;&gt;Node1</title>
<path fill="none" stroke="#9a32cd" stroke-dasharray="5,2" d="M1126.92,-602.472C1155.58,-608.08 1187.66,-615.786 1216,-626 1227.87,-630.277 1240.44,-636.745 1250.25,-642.279"/>
<polygon fill="#9a32cd" stroke="#9a32cd" points="1127.42,-599.004 1116.94,-600.575 1126.11,-605.881 1127.42,-599.004"/>
<text text-anchor="middle" x="1188" y="-630" font-family="Helvetica,sans-Serif" font-size="10.00">combo_style</text>
</g>
</g>
</svg>
