<?xml version="1.0" encoding="UTF-8" standalone="no"?>
<!DOCTYPE svg PUBLIC "-//W3C//DTD SVG 1.1//EN"
 "http://www.w3.org/Graphics/SVG/1.1/DTD/svg11.dtd">
<!-- Generated by graphviz version 2.26.3 (20100126.1600)
 -->
<!-- Title: G Pages: 1 -->
<svg width="494pt" height="684pt"
 viewBox="0.00 0.00 494.00 684.00" xmlns="http://www.w3.org/2000/svg" xmlns:xlink="http://www.w3.org/1999/xlink">
<g id="graph1" class="graph" transform="scale(1 1) rotate(0) translate(4 680)">
<title>G</title>
<!-- Node1 -->
<g id="node1" class="node"><title>Node1</title>
<polygon fill="#bfbfbf" stroke="black" points="404,-286.5 404,-307.5 486,-307.5 486,-286.5 404,-286.5"/>
<text text-anchor="middle" x="445" y="-294.5" font-family="Helvetica,sans-Serif" font-size="10.00">Ui_StyleDialog</text>
</g>
<!-- Node2 -->
<g id="node2" class="node"><title>Node2</title>
<polygon fill="none" stroke="#bfbfbf" points="167,-592.5 167,-613.5 265,-613.5 265,-592.5 167,-592.5"/>
<text text-anchor="middle" x="216" y="-600.5" font-family="Helvetica,sans-Serif" font-size="10.00">QDoubleSpinBox *</text>
</g>
<!-- Node2&#45;&gt;Node1 -->
<g id="edge2" class="edge"><title>Node2&#45;&gt;Node1</title>
<path fill="none" stroke="#9a32cd" stroke-dasharray="5,2" d="M275.171,-611.243C311.603,-612.855 356.769,-608.086 386,-581 427.278,-542.751 441.451,-354.82 444.385,-307.72"/>
<polygon fill="#9a32cd" stroke="#9a32cd" points="275.342,-607.748 265.148,-610.633 274.917,-614.735 275.342,-607.748"/>
<text text-anchor="middle" x="336" y="-667" font-family="Helvetica,sans-Serif" font-size="10.00">outline_width_spinner</text>
<text text-anchor="middle" x="336" y="-654" font-family="Helvetica,sans-Serif" font-size="10.00">knot_width_spinner</text>
<text text-anchor="middle" x="336" y="-641" font-family="Helvetica,sans-Serif" font-size="10.00">handle_length_spinner</text>
<text text-anchor="middle" x="336" y="-628" font-family="Helvetica,sans-Serif" font-size="10.00">crossing_gap_spinner</text>
<text text-anchor="middle" x="336" y="-615" font-family="Helvetica,sans-Serif" font-size="10.00">cusp_angle_spinner</text>
</g>
<!-- Node3 -->
<g id="node4" class="node"><title>Node3</title>
<polygon fill="none" stroke="#bfbfbf" points="185,-545.5 185,-566.5 247,-566.5 247,-545.5 185,-545.5"/>
<text text-anchor="middle" x="216" y="-553.5" font-family="Helvetica,sans-Serif" font-size="10.00">QWidget *</text>
</g>
<!-- Node3&#45;&gt;Node1 -->
<g id="edge4" class="edge"><title>Node3&#45;&gt;Node1</title>
<path fill="none" stroke="#9a32cd" stroke-dasharray="5,2" d="M257.308,-555.065C301.463,-553.197 367.611,-547.62 386,-531 420.191,-500.098 439.189,-349.494 443.856,-307.748"/>
<polygon fill="#9a32cd" stroke="#9a32cd" points="257.01,-551.573 247.148,-555.446 257.272,-558.568 257.01,-551.573"/>
<text text-anchor="middle" x="336" y="-570" font-family="Helvetica,sans-Serif" font-size="10.00">tab_2</text>
<text text-anchor="middle" x="336" y="-557" font-family="Helvetica,sans-Serif" font-size="10.00">tab</text>
</g>
<!-- Node4 -->
<g id="node6" class="node"><title>Node4</title>
<polygon fill="none" stroke="#bfbfbf" points="177,-505.5 177,-526.5 255,-526.5 255,-505.5 177,-505.5"/>
<text text-anchor="middle" x="216" y="-513.5" font-family="Helvetica,sans-Serif" font-size="10.00">QTabWidget *</text>
</g>
<!-- Node4&#45;&gt;Node1 -->
<g id="edge6" class="edge"><title>Node4&#45;&gt;Node1</title>
<path fill="none" stroke="#9a32cd" stroke-dasharray="5,2" d="M265.461,-515.432C309.056,-513.911 368.31,-509.029 386,-494 415.521,-468.919 437.388,-344.81 443.365,-307.577"/>
<polygon fill="#9a32cd" stroke="#9a32cd" points="265.198,-511.938 255.308,-515.736 265.408,-518.935 265.198,-511.938"/>
<text text-anchor="middle" x="336" y="-518" font-family="Helvetica,sans-Serif" font-size="10.00">tabWidget</text>
</g>
<!-- Node5 -->
<g id="node8" class="node"><title>Node5</title>
<polygon fill="none" stroke="#bfbfbf" points="177,-431.5 177,-452.5 255,-452.5 255,-431.5 177,-431.5"/>
<text text-anchor="middle" x="216" y="-439.5" font-family="Helvetica,sans-Serif" font-size="10.00">QGridLayout *</text>
</g>
<!-- Node5&#45;&gt;Node1 -->
<g id="edge8" class="edge"><title>Node5&#45;&gt;Node1</title>
<path fill="none" stroke="#9a32cd" stroke-dasharray="5,2" d="M265.337,-440.11C308.536,-437.558 367.253,-431.631 386,-418 423.994,-390.374 438.697,-331.537 443.261,-307.53"/>
<polygon fill="#9a32cd" stroke="#9a32cd" points="265.068,-436.62 255.275,-440.661 265.451,-443.609 265.068,-436.62"/>
<text text-anchor="middle" x="336" y="-481" font-family="Helvetica,sans-Serif" font-size="10.00">gridLayout</text>
<text text-anchor="middle" x="336" y="-468" font-family="Helvetica,sans-Serif" font-size="10.00">gridLayout_2</text>
<text text-anchor="middle" x="336" y="-455" font-family="Helvetica,sans-Serif" font-size="10.00">gridLayout_3</text>
<text text-anchor="middle" x="336" y="-442" font-family="Helvetica,sans-Serif" font-size="10.00">gridLayout_4</text>
</g>
<!-- Node6 -->
<g id="node10" class="node"><title>Node6</title>
<polygon fill="none" stroke="#bfbfbf" points="176,-369.5 176,-390.5 256,-390.5 256,-369.5 176,-369.5"/>
<text text-anchor="middle" x="216" y="-377.5" font-family="Helvetica,sans-Serif" font-size="10.00">QComboBox *</text>
</g>
<!-- Node6&#45;&gt;Node1 -->
<g id="edge10" class="edge"><title>Node6&#45;&gt;Node1</title>
<path fill="none" stroke="#9a32cd" stroke-dasharray="5,2" d="M266.239,-377.165C308.642,-374.107 365.608,-368.24 386,-358 409.173,-346.363 428.37,-321.895 438.105,-307.739"/>
<polygon fill="#9a32cd" stroke="#9a32cd" points="265.812,-373.686 256.076,-377.865 266.293,-380.669 265.812,-373.686"/>
<text text-anchor="middle" x="336" y="-405" font-family="Helvetica,sans-Serif" font-size="10.00">point_combo</text>
<text text-anchor="middle" x="336" y="-392" font-family="Helvetica,sans-Serif" font-size="10.00">style_combo</text>
<text text-anchor="middle" x="336" y="-379" font-family="Helvetica,sans-Serif" font-size="10.00">outline_pattern_combo</text>
</g>
<!-- Node7 -->
<g id="node12" class="node"><title>Node7</title>
<polygon fill="none" stroke="#bfbfbf" points="189,-207.5 189,-228.5 243,-228.5 243,-207.5 189,-207.5"/>
<text text-anchor="middle" x="216" y="-215.5" font-family="Helvetica,sans-Serif" font-size="10.00">QLabel *</text>
</g>
<!-- Node7&#45;&gt;Node1 -->
<g id="edge12" class="edge"><title>Node7&#45;&gt;Node1</title>
<path fill="none" stroke="#9a32cd" stroke-dasharray="5,2" d="M253.165,-207.721C289.209,-199.887 344.397,-193.681 386,-215 415.656,-230.197 433.791,-268.005 441.171,-286.49"/>
<polygon fill="#9a32cd" stroke="#9a32cd" points="252.031,-204.392 243.083,-210.064 253.615,-211.21 252.031,-204.392"/>
<text text-anchor="middle" x="336" y="-349" font-family="Helvetica,sans-Serif" font-size="10.00">label_2</text>
<text text-anchor="middle" x="336" y="-336" font-family="Helvetica,sans-Serif" font-size="10.00">label_10</text>
<text text-anchor="middle" x="336" y="-323" font-family="Helvetica,sans-Serif" font-size="10.00">label_3</text>
<text text-anchor="middle" x="336" y="-310" font-family="Helvetica,sans-Serif" font-size="10.00">label_4</text>
<text text-anchor="middle" x="336" y="-297" font-family="Helvetica,sans-Serif" font-size="10.00">label_5</text>
<text text-anchor="middle" x="336" y="-284" font-family="Helvetica,sans-Serif" font-size="10.00">label_6</text>
<text text-anchor="middle" x="336" y="-271" font-family="Helvetica,sans-Serif" font-size="10.00">label_7</text>
<text text-anchor="middle" x="336" y="-258" font-family="Helvetica,sans-Serif" font-size="10.00">label_8</text>
<text text-anchor="middle" x="336" y="-245" font-family="Helvetica,sans-Serif" font-size="10.00">label_9</text>
<text text-anchor="middle" x="336" y="-232" font-family="Helvetica,sans-Serif" font-size="10.00">label</text>
<text text-anchor="middle" x="336" y="-219" font-family="Helvetica,sans-Serif" font-size="10.00">...</text>
</g>
<!-- Node8 -->
<g id="node14" class="node"><title>Node8</title>
<polygon fill="none" stroke="#bfbfbf" points="179,-167.5 179,-188.5 253,-188.5 253,-167.5 179,-167.5"/>
<text text-anchor="middle" x="216" y="-175.5" font-family="Helvetica,sans-Serif" font-size="10.00">QGroupBox *</text>
</g>
<!-- Node8&#45;&gt;Node1 -->
<g id="edge14" class="edge"><title>Node8&#45;&gt;Node1</title>
<path fill="none" stroke="#9a32cd" stroke-dasharray="5,2" d="M263.129,-167.242C299.486,-161.649 349.557,-160.086 386,-183 423.732,-206.725 438.518,-262.96 443.182,-286.427"/>
<polygon fill="#9a32cd" stroke="#9a32cd" points="262.538,-163.792 253.261,-168.91 263.705,-170.695 262.538,-163.792"/>
<text text-anchor="middle" x="336" y="-187" font-family="Helvetica,sans-Serif" font-size="10.00">groupBox</text>
</g>
<!-- Node9 -->
<g id="node16" class="node"><title>Node9</title>
<polygon fill="none" stroke="#bfbfbf" points="183.5,-127.5 183.5,-148.5 248.5,-148.5 248.5,-127.5 183.5,-127.5"/>
<text text-anchor="middle" x="216" y="-135.5" font-family="Helvetica,sans-Serif" font-size="10.00">KnotView *</text>
</g>
<!-- Node9&#45;&gt;Node1 -->
<g id="edge16" class="edge"><title>Node9&#45;&gt;Node1</title>
<path fill="none" stroke="#9a32cd" stroke-dasharray="5,2" d="M258.837,-127.997C295.973,-121.917 349.362,-119.696 386,-146 433.327,-179.978 442.693,-257.735 444.544,-286.256"/>
<polygon fill="#9a32cd" stroke="#9a32cd" points="258.046,-124.583 248.821,-129.794 259.282,-131.473 258.046,-124.583"/>
<text text-anchor="middle" x="336" y="-150" font-family="Helvetica,sans-Serif" font-size="10.00">preview</text>
</g>
<!-- Node10 -->
<g id="node18" class="node"><title>Node10</title>
<polygon fill="none" stroke="#bfbfbf" points="164,-87.5 164,-108.5 268,-108.5 268,-87.5 164,-87.5"/>
<text text-anchor="middle" x="216" y="-95.5" font-family="Helvetica,sans-Serif" font-size="10.00">QDialogButtonBox *</text>
</g>
<!-- Node10&#45;&gt;Node1 -->
<g id="edge18" class="edge"><title>Node10&#45;&gt;Node1</title>
<path fill="none" stroke="#9a32cd" stroke-dasharray="5,2" d="M270.524,-86.0104C306.911,-81.2928 353.806,-81.9471 386,-107 415.439,-129.909 437.203,-249.423 443.285,-286.212"/>
<polygon fill="#9a32cd" stroke="#9a32cd" points="269.949,-82.5572 260.561,-87.4676 270.962,-89.4835 269.949,-82.5572"/>
<text text-anchor="middle" x="336" y="-111" font-family="Helvetica,sans-Serif" font-size="10.00">buttonBox</text>
</g>
<!-- Node11 -->
<g id="node20" class="node"><title>Node11</title>
<a xlink:href="classColorWidget.html" target="_top" xlink:title="ColorWidget">
<polygon fill="none" stroke="black" points="180.5,-40.5 180.5,-61.5 251.5,-61.5 251.5,-40.5 180.5,-40.5"/>
<text text-anchor="middle" x="216" y="-48.5" font-family="Helvetica,sans-Serif" font-size="10.00">ColorWidget</text>
</a>
</g>
<!-- Node11&#45;&gt;Node1 -->
<g id="edge20" class="edge"><title>Node11&#45;&gt;Node1</title>
<path fill="none" stroke="#9a32cd" stroke-dasharray="5,2" d="M259.52,-37.9883C297.101,-29.6221 350.759,-24.9274 386,-53 423.668,-83.0056 440.27,-243.047 444.105,-286.247"/>
<polygon fill="#9a32cd" stroke="#9a32cd" points="258.283,-34.6856 249.375,-40.4211 259.915,-41.4926 258.283,-34.6856"/>
<text text-anchor="middle" x="336" y="-70" font-family="Helvetica,sans-Serif" font-size="10.00">outline_color</text>
<text text-anchor="middle" x="336" y="-57" font-family="Helvetica,sans-Serif" font-size="10.00">color</text>
</g>
<!-- Node12 -->
<g id="node22" class="node"><title>Node12</title>
<a xlink:href="classQLineEdit.html" target="_top" xlink:title="QLineEdit">
<polygon fill="none" stroke="black" points="8.5,-80.5 8.5,-101.5 67.5,-101.5 67.5,-80.5 8.5,-80.5"/>
<text text-anchor="middle" x="38" y="-88.5" font-family="Helvetica,sans-Serif" font-size="10.00">QLineEdit</text>
</a>
</g>
<!-- Node12&#45;&gt;Node11 -->
<g id="edge22" class="edge"><title>Node12&#45;&gt;Node11</title>
<path fill="none" stroke="midnightblue" d="M77.7492,-82.8167C98.1778,-78.5396 123.454,-73.1373 146,-68 157.218,-65.4438 169.414,-62.5294 180.435,-59.8442"/>
<polygon fill="midnightblue" stroke="midnightblue" points="76.9217,-79.4139 67.8467,-84.8815 78.3506,-86.2665 76.9217,-79.4139"/>
</g>
<!-- Node13 -->
<g id="node24" class="node"><title>Node13</title>
<polygon fill="none" stroke="#bfbfbf" points="14.5,-40.5 14.5,-61.5 61.5,-61.5 61.5,-40.5 14.5,-40.5"/>
<text text-anchor="middle" x="38" y="-48.5" font-family="Helvetica,sans-Serif" font-size="10.00">QColor</text>
</g>
<!-- Node13&#45;&gt;Node11 -->
<g id="edge24" class="edge"><title>Node13&#45;&gt;Node11</title>
<path fill="none" stroke="#9a32cd" stroke-dasharray="5,2" d="M71.9494,-51C102.97,-51 148.684,-51 180.256,-51"/>
<polygon fill="#9a32cd" stroke="#9a32cd" points="71.6371,-47.5001 61.637,-51 71.637,-54.5001 71.6371,-47.5001"/>
<text text-anchor="middle" x="120" y="-55" font-family="Helvetica,sans-Serif" font-size="10.00">clr</text>
</g>
<!-- Node14 -->
<g id="node26" class="node"><title>Node14</title>
<polygon fill="none" stroke="#bfbfbf" points="0.5,-0.5 0.5,-21.5 75.5,-21.5 75.5,-0.5 0.5,-0.5"/>
<text text-anchor="middle" x="38" y="-8.5" font-family="Helvetica,sans-Serif" font-size="10.00">QColorDialog</text>
</g>
<!-- Node14&#45;&gt;Node11 -->
<g id="edge26" class="edge"><title>Node14&#45;&gt;Node11</title>
<path fill="none" stroke="#9a32cd" stroke-dasharray="5,2" d="M85.4011,-20.7906C104.283,-24.77 126.195,-29.4872 146,-34 157.218,-36.5562 169.414,-39.4706 180.435,-42.1558"/>
<polygon fill="#9a32cd" stroke="#9a32cd" points="86.0496,-17.3505 75.5439,-18.722 84.6119,-24.2013 86.0496,-17.3505"/>
<text text-anchor="middle" x="120" y="-38" font-family="Helvetica,sans-Serif" font-size="10.00">color_dialog</text>
</g>
</g>
</svg>
