<?xml version="1.0" encoding="UTF-8" standalone="no"?>
<!DOCTYPE svg PUBLIC "-//W3C//DTD SVG 1.1//EN"
 "http://www.w3.org/Graphics/SVG/1.1/DTD/svg11.dtd">
<!-- Generated by graphviz version 2.26.3 (20100126.1600)
 -->
<!-- Title: G Pages: 1 -->
<svg width="112pt" height="146pt"
 viewBox="0.00 0.00 112.00 146.00" xmlns="http://www.w3.org/2000/svg" xmlns:xlink="http://www.w3.org/1999/xlink">
<g id="graph1" class="graph" transform="scale(1 1) rotate(0) translate(4 142)">
<title>G</title>
<!-- Node1 -->
<g id="node1" class="node"><title>Node1</title>
<polygon fill="#bfbfbf" stroke="black" points="24,-0.5 24,-21.5 80,-21.5 80,-0.5 24,-0.5"/>
<text text-anchor="middle" x="52" y="-8.5" font-family="Helvetica,sans-Serif" font-size="10.00">AddEdge</text>
</g>
<!-- Node2 -->
<g id="node2" class="node"><title>Node2</title>
<a xlink:href="classLastNodeCommand.html" target="_top" xlink:title="LastNodeCommand">
<polygon fill="none" stroke="black" points="0,-58.5 0,-79.5 104,-79.5 104,-58.5 0,-58.5"/>
<text text-anchor="middle" x="52" y="-66.5" font-family="Helvetica,sans-Serif" font-size="10.00">LastNodeCommand</text>
</a>
</g>
<!-- Node2&#45;&gt;Node1 -->
<g id="edge2" class="edge"><title>Node2&#45;&gt;Node1</title>
<path fill="none" stroke="midnightblue" d="M52,-48.1906C52,-39.1684 52,-28.9941 52,-21.5707"/>
<polygon fill="midnightblue" stroke="midnightblue" points="48.5001,-48.3619 52,-58.3619 55.5001,-48.3619 48.5001,-48.3619"/>
</g>
<!-- Node3 -->
<g id="node4" class="node"><title>Node3</title>
<a xlink:href="classQUndoCommand.html" target="_top" xlink:title="QUndoCommand">
<polygon fill="none" stroke="black" points="6,-116.5 6,-137.5 98,-137.5 98,-116.5 6,-116.5"/>
<text text-anchor="middle" x="52" y="-124.5" font-family="Helvetica,sans-Serif" font-size="10.00">QUndoCommand</text>
</a>
</g>
<!-- Node3&#45;&gt;Node2 -->
<g id="edge4" class="edge"><title>Node3&#45;&gt;Node2</title>
<path fill="none" stroke="midnightblue" d="M52,-106.191C52,-97.1684 52,-86.9941 52,-79.5707"/>
<polygon fill="midnightblue" stroke="midnightblue" points="48.5001,-106.362 52,-116.362 55.5001,-106.362 48.5001,-106.362"/>
</g>
</g>
</svg>
