<?xml version="1.0" encoding="UTF-8" standalone="no"?>
<!DOCTYPE svg PUBLIC "-//W3C//DTD SVG 1.1//EN"
 "http://www.w3.org/Graphics/SVG/1.1/DTD/svg11.dtd">
<!-- Generated by graphviz version 2.26.3 (20100126.1600)
 -->
<!-- Title: G Pages: 1 -->
<svg width="658pt" height="677pt"
 viewBox="0.00 0.00 658.00 677.00" xmlns="http://www.w3.org/2000/svg" xmlns:xlink="http://www.w3.org/1999/xlink">
<g id="graph1" class="graph" transform="scale(1 1) rotate(0) translate(4 673)">
<title>G</title>
<!-- Node1 -->
<g id="node1" class="node"><title>Node1</title>
<polygon fill="#bfbfbf" stroke="black" points="590.5,-207.5 590.5,-228.5 649.5,-228.5 649.5,-207.5 590.5,-207.5"/>
<text text-anchor="middle" x="620" y="-215.5" font-family="Helvetica,sans-Serif" font-size="10.00">KnotView</text>
</g>
<!-- Node2 -->
<g id="node2" class="node"><title>Node2</title>
<a xlink:href="classQGraphicsView.html" target="_top" xlink:title="QGraphicsView">
<polygon fill="none" stroke="black" points="394.5,-628.5 394.5,-649.5 479.5,-649.5 479.5,-628.5 394.5,-628.5"/>
<text text-anchor="middle" x="437" y="-636.5" font-family="Helvetica,sans-Serif" font-size="10.00">QGraphicsView</text>
</a>
</g>
<!-- Node2&#45;&gt;Node1 -->
<g id="edge2" class="edge"><title>Node2&#45;&gt;Node1</title>
<path fill="none" stroke="midnightblue" d="M489.784,-644.017C518.067,-643.647 551.263,-637.773 572,-616 599.6,-587.021 616.351,-288.852 619.469,-228.585"/>
<polygon fill="midnightblue" stroke="midnightblue" points="489.65,-640.515 479.618,-643.923 489.585,-647.515 489.65,-640.515"/>
</g>
<!-- Node3 -->
<g id="node4" class="node"><title>Node3</title>
<a xlink:href="classNode.html" target="_top" xlink:title="Node">
<polygon fill="none" stroke="black" points="417,-422.5 417,-443.5 457,-443.5 457,-422.5 417,-422.5"/>
<text text-anchor="middle" x="437" y="-430.5" font-family="Helvetica,sans-Serif" font-size="10.00">Node</text>
</a>
</g>
<!-- Node3&#45;&gt;Node1 -->
<g id="edge4" class="edge"><title>Node3&#45;&gt;Node1</title>
<path fill="none" stroke="#9a32cd" stroke-dasharray="5,2" d="M452.717,-414.535C489.753,-371.022 581.583,-263.134 610.87,-228.726"/>
<polygon fill="#9a32cd" stroke="#9a32cd" points="449.891,-412.454 446.075,-422.338 455.222,-416.992 449.891,-412.454"/>
<text text-anchor="middle" x="541" y="-348" font-family="Helvetica,sans-Serif" font-size="10.00">last_node</text>
</g>
<!-- Node4 -->
<g id="node6" class="node"><title>Node4</title>
<a xlink:href="classCustomItem.html" target="_top" xlink:title="CustomItem">
<polygon fill="none" stroke="black" points="176.5,-480.5 176.5,-501.5 247.5,-501.5 247.5,-480.5 176.5,-480.5"/>
<text text-anchor="middle" x="212" y="-488.5" font-family="Helvetica,sans-Serif" font-size="10.00">CustomItem</text>
</a>
</g>
<!-- Node4&#45;&gt;Node3 -->
<g id="edge6" class="edge"><title>Node4&#45;&gt;Node3</title>
<path fill="none" stroke="midnightblue" d="M257.743,-494.473C288.556,-495.334 329.679,-493.57 364,-482 388.011,-473.906 411.577,-455.706 425.179,-443.909"/>
<polygon fill="midnightblue" stroke="midnightblue" points="257.839,-490.974 247.714,-494.091 257.573,-497.969 257.839,-490.974"/>
</g>
<!-- Node5 -->
<g id="node8" class="node"><title>Node5</title>
<a xlink:href="classQGraphicsItem.html" target="_top" xlink:title="QGraphicsItem">
<polygon fill="none" stroke="black" points="0.5,-480.5 0.5,-501.5 83.5,-501.5 83.5,-480.5 0.5,-480.5"/>
<text text-anchor="middle" x="42" y="-488.5" font-family="Helvetica,sans-Serif" font-size="10.00">QGraphicsItem</text>
</a>
</g>
<!-- Node5&#45;&gt;Node4 -->
<g id="edge8" class="edge"><title>Node5&#45;&gt;Node4</title>
<path fill="none" stroke="midnightblue" d="M93.9076,-491C120.585,-491 152.417,-491 176.307,-491"/>
<polygon fill="midnightblue" stroke="midnightblue" points="93.5867,-487.5 83.5867,-491 93.5866,-494.5 93.5867,-487.5"/>
</g>
<!-- Node6 -->
<g id="node10" class="node"><title>Node6</title>
<polygon fill="none" stroke="#bfbfbf" points="24.5,-589.5 24.5,-610.5 59.5,-610.5 59.5,-589.5 24.5,-589.5"/>
<text text-anchor="middle" x="42" y="-597.5" font-family="Helvetica,sans-Serif" font-size="10.00">bool</text>
</g>
<!-- Node6&#45;&gt;Node4 -->
<g id="edge10" class="edge"><title>Node6&#45;&gt;Node4</title>
<path fill="none" stroke="#9a32cd" stroke-dasharray="5,2" d="M60.9748,-582.535C82.9698,-563.011 120.958,-531.457 158,-511 164.476,-507.424 171.72,-504.244 178.747,-501.53"/>
<polygon fill="#9a32cd" stroke="#9a32cd" points="58.4581,-580.091 53.3634,-589.381 63.1391,-585.296 58.4581,-580.091"/>
<text text-anchor="middle" x="121" y="-550" font-family="Helvetica,sans-Serif" font-size="10.00">highlight</text>
</g>
<!-- Node12 -->
<g id="node22" class="node"><title>Node12</title>
<a xlink:href="classsnapping__grid.html" target="_top" xlink:title="snapping_grid">
<polygon fill="none" stroke="black" points="398.5,-588.5 398.5,-609.5 475.5,-609.5 475.5,-588.5 398.5,-588.5"/>
<text text-anchor="middle" x="437" y="-596.5" font-family="Helvetica,sans-Serif" font-size="10.00">snapping_grid</text>
</a>
</g>
<!-- Node6&#45;&gt;Node12 -->
<g id="edge28" class="edge"><title>Node6&#45;&gt;Node12</title>
<path fill="none" stroke="#9a32cd" stroke-dasharray="5,2" d="M68.6539,-612.982C91.6848,-623.434 126.183,-637.293 158,-643 248.246,-659.188 278.473,-665.038 364,-632 373.205,-628.444 373.28,-623.619 382,-619 388.734,-615.433 396.243,-612.239 403.495,-609.507"/>
<polygon fill="#9a32cd" stroke="#9a32cd" points="70.0709,-609.781 59.5269,-608.744 67.123,-616.13 70.0709,-609.781"/>
<text text-anchor="middle" x="212" y="-660" font-family="Helvetica,sans-Serif" font-size="10.00">enabled</text>
</g>
<!-- Node7 -->
<g id="node12" class="node"><title>Node7</title>
<polygon fill="none" stroke="#bfbfbf" points="197.5,-520.5 197.5,-541.5 226.5,-541.5 226.5,-520.5 197.5,-520.5"/>
<text text-anchor="middle" x="212" y="-528.5" font-family="Helvetica,sans-Serif" font-size="10.00">int</text>
</g>
<!-- Node7&#45;&gt;Node3 -->
<g id="edge12" class="edge"><title>Node7&#45;&gt;Node3</title>
<path fill="none" stroke="#9a32cd" stroke-dasharray="5,2" d="M236.718,-530.497C267.98,-528.946 322.709,-523.124 364,-502 392.101,-487.624 416.958,-459.084 429.11,-443.595"/>
<polygon fill="#9a32cd" stroke="#9a32cd" points="236.556,-527.001 226.699,-530.886 236.827,-533.996 236.556,-527.001"/>
<text text-anchor="middle" x="324" y="-529" font-family="Helvetica,sans-Serif" font-size="10.00">radius</text>
</g>
<!-- Node8 -->
<g id="node14" class="node"><title>Node8</title>
<polygon fill="none" stroke="#bfbfbf" points="168.5,-350.5 168.5,-371.5 255.5,-371.5 255.5,-350.5 168.5,-350.5"/>
<text text-anchor="middle" x="212" y="-358.5" font-family="Helvetica,sans-Serif" font-size="10.00">QList&lt; Edge * &gt;</text>
</g>
<!-- Node8&#45;&gt;Node3 -->
<g id="edge14" class="edge"><title>Node8&#45;&gt;Node3</title>
<path fill="none" stroke="#9a32cd" stroke-dasharray="5,2" d="M265.797,-356.44C295.735,-355.866 333.084,-358.476 364,-371 391.432,-382.113 416.009,-407.746 428.439,-422.335"/>
<polygon fill="#9a32cd" stroke="#9a32cd" points="265.423,-352.95 255.539,-356.765 265.645,-359.947 265.423,-352.95"/>
<text text-anchor="middle" x="324" y="-375" font-family="Helvetica,sans-Serif" font-size="10.00">edges</text>
</g>
<!-- Node17 -->
<g id="node34" class="node"><title>Node17</title>
<a xlink:href="classKnotGraph.html" target="_top" xlink:title="KnotGraph">
<polygon fill="none" stroke="black" points="405.5,-249.5 405.5,-270.5 468.5,-270.5 468.5,-249.5 405.5,-249.5"/>
<text text-anchor="middle" x="437" y="-257.5" font-family="Helvetica,sans-Serif" font-size="10.00">KnotGraph</text>
</a>
</g>
<!-- Node8&#45;&gt;Node17 -->
<g id="edge46" class="edge"><title>Node8&#45;&gt;Node17</title>
<path fill="none" stroke="#9a32cd" stroke-dasharray="5,2" d="M241.847,-345.714C254.692,-339.339 269.956,-332.031 284,-326 318.892,-311.016 329.151,-311.083 364,-296 382.156,-288.142 402.286,-278.112 416.801,-270.636"/>
<polygon fill="#9a32cd" stroke="#9a32cd" points="239.928,-342.761 232.557,-350.371 243.065,-349.019 239.928,-342.761"/>
<text text-anchor="middle" x="324" y="-343" font-family="Helvetica,sans-Serif" font-size="10.00">traversed_edges</text>
<text text-anchor="middle" x="324" y="-330" font-family="Helvetica,sans-Serif" font-size="10.00">edges</text>
</g>
<!-- Node9 -->
<g id="node16" class="node"><title>Node9</title>
<polygon fill="none" stroke="#bfbfbf" points="400.5,-160.5 400.5,-181.5 473.5,-181.5 473.5,-160.5 400.5,-160.5"/>
<text text-anchor="middle" x="437" y="-168.5" font-family="Helvetica,sans-Serif" font-size="10.00">QUndoStack</text>
</g>
<!-- Node9&#45;&gt;Node1 -->
<g id="edge16" class="edge"><title>Node9&#45;&gt;Node1</title>
<path fill="none" stroke="#9a32cd" stroke-dasharray="5,2" d="M483.802,-173.714C510.25,-176.284 543.601,-181.281 572,-191 583.579,-194.963 595.579,-201.713 604.684,-207.472"/>
<polygon fill="#9a32cd" stroke="#9a32cd" points="483.933,-170.212 473.662,-172.814 483.314,-177.185 483.933,-170.212"/>
<text text-anchor="middle" x="541" y="-195" font-family="Helvetica,sans-Serif" font-size="10.00">undo_stack</text>
</g>
<!-- Node10 -->
<g id="node18" class="node"><title>Node10</title>
<polygon fill="none" stroke="#bfbfbf" points="386,-120.5 386,-141.5 488,-141.5 488,-120.5 386,-120.5"/>
<text text-anchor="middle" x="437" y="-128.5" font-family="Helvetica,sans-Serif" font-size="10.00">mouse_status_type</text>
</g>
<!-- Node10&#45;&gt;Node1 -->
<g id="edge18" class="edge"><title>Node10&#45;&gt;Node1</title>
<path fill="none" stroke="#9a32cd" stroke-dasharray="5,2" d="M498.254,-135.442C522.573,-139.357 549.945,-146.613 572,-160 591.218,-171.665 606.28,-193.837 614.095,-207.132"/>
<polygon fill="#9a32cd" stroke="#9a32cd" points="498.442,-131.933 488.043,-133.961 497.437,-138.86 498.442,-131.933"/>
<text text-anchor="middle" x="541" y="-164" font-family="Helvetica,sans-Serif" font-size="10.00">mouse_status</text>
</g>
<!-- Node11 -->
<g id="node20" class="node"><title>Node11</title>
<polygon fill="none" stroke="#bfbfbf" points="185.5,-568.5 185.5,-589.5 238.5,-589.5 238.5,-568.5 185.5,-568.5"/>
<text text-anchor="middle" x="212" y="-576.5" font-family="Helvetica,sans-Serif" font-size="10.00">QPointF</text>
</g>
<!-- Node11&#45;&gt;Node1 -->
<g id="edge20" class="edge"><title>Node11&#45;&gt;Node1</title>
<path fill="none" stroke="#9a32cd" stroke-dasharray="5,2" d="M248.622,-573.972C280.206,-568.738 326.511,-558.885 364,-542 427.177,-513.546 440.428,-499.275 492,-453 532.33,-416.812 545.086,-408.029 572,-361 598.145,-315.315 612.825,-253.214 617.926,-228.639"/>
<polygon fill="#9a32cd" stroke="#9a32cd" points="247.839,-570.553 238.509,-575.574 248.934,-577.467 247.839,-570.553"/>
<text text-anchor="middle" x="437" y="-536" font-family="Helvetica,sans-Serif" font-size="10.00">oldpos</text>
</g>
<!-- Node11&#45;&gt;Node12 -->
<g id="edge26" class="edge"><title>Node11&#45;&gt;Node12</title>
<path fill="none" stroke="#9a32cd" stroke-dasharray="5,2" d="M248.922,-581.6C279.72,-583.844 324.748,-587.301 364,-591 375.17,-592.053 387.287,-593.327 398.379,-594.546"/>
<polygon fill="#9a32cd" stroke="#9a32cd" points="248.881,-578.088 238.655,-580.858 248.377,-585.07 248.881,-578.088"/>
<text text-anchor="middle" x="324" y="-595" font-family="Helvetica,sans-Serif" font-size="10.00">origin</text>
</g>
<!-- Node12&#45;&gt;Node1 -->
<g id="edge22" class="edge"><title>Node12&#45;&gt;Node1</title>
<path fill="none" stroke="#9a32cd" stroke-dasharray="5,2" d="M485.614,-601.937C514.78,-600.91 550.31,-594.25 572,-571 596.049,-545.222 615.335,-285.357 619.266,-228.82"/>
<polygon fill="#9a32cd" stroke="#9a32cd" points="485.543,-598.438 475.596,-602.084 485.646,-605.437 485.543,-598.438"/>
<text text-anchor="middle" x="541" y="-603" font-family="Helvetica,sans-Serif" font-size="10.00">grid</text>
</g>
<!-- Node13 -->
<g id="node24" class="node"><title>Node13</title>
<polygon fill="none" stroke="#bfbfbf" points="189.5,-403.5 189.5,-424.5 234.5,-424.5 234.5,-403.5 189.5,-403.5"/>
<text text-anchor="middle" x="212" y="-411.5" font-family="Helvetica,sans-Serif" font-size="10.00">double</text>
</g>
<!-- Node13&#45;&gt;Node12 -->
<g id="edge24" class="edge"><title>Node13&#45;&gt;Node12</title>
<path fill="none" stroke="#9a32cd" stroke-dasharray="5,2" d="M243.841,-428.441C287.81,-448.443 361.976,-482.428 364,-485 388.956,-516.715 356.88,-542.414 382,-574 386.897,-580.157 393.645,-584.852 400.739,-588.413"/>
<polygon fill="#9a32cd" stroke="#9a32cd" points="245.243,-425.233 234.691,-424.282 242.346,-431.606 245.243,-425.233"/>
<text text-anchor="middle" x="324" y="-489" font-family="Helvetica,sans-Serif" font-size="10.00">size</text>
</g>
<!-- Node13&#45;&gt;Node17 -->
<g id="edge40" class="edge"><title>Node13&#45;&gt;Node17</title>
<path fill="none" stroke="#9a32cd" stroke-dasharray="5,2" d="M244.987,-410.668C283.773,-406.212 345.248,-397.297 364,-384 404.96,-354.956 426.602,-295.078 434.011,-270.69"/>
<polygon fill="#9a32cd" stroke="#9a32cd" points="244.257,-407.228 234.703,-411.807 245.028,-414.185 244.257,-407.228"/>
<text text-anchor="middle" x="324" y="-435" font-family="Helvetica,sans-Serif" font-size="10.00">cusp_angle</text>
<text text-anchor="middle" x="324" y="-422" font-family="Helvetica,sans-Serif" font-size="10.00">crossing_distance</text>
<text text-anchor="middle" x="324" y="-409" font-family="Helvetica,sans-Serif" font-size="10.00">handle_length</text>
</g>
<!-- Node14 -->
<g id="node28" class="node"><title>Node14</title>
<polygon fill="none" stroke="#bfbfbf" points="180,-612.5 180,-633.5 244,-633.5 244,-612.5 180,-612.5"/>
<text text-anchor="middle" x="212" y="-620.5" font-family="Helvetica,sans-Serif" font-size="10.00">grid_shape</text>
</g>
<!-- Node14&#45;&gt;Node12 -->
<g id="edge30" class="edge"><title>Node14&#45;&gt;Node12</title>
<path fill="none" stroke="#9a32cd" stroke-dasharray="5,2" d="M254.287,-618.489C295.714,-614.071 358.304,-607.394 398.411,-603.116"/>
<polygon fill="#9a32cd" stroke="#9a32cd" points="253.809,-615.02 244.237,-619.561 254.552,-621.981 253.809,-615.02"/>
<text text-anchor="middle" x="324" y="-619" font-family="Helvetica,sans-Serif" font-size="10.00">shape</text>
</g>
<!-- Node15 -->
<g id="node30" class="node"><title>Node15</title>
<polygon fill="none" stroke="#bfbfbf" points="382,-80.5 382,-101.5 492,-101.5 492,-80.5 382,-80.5"/>
<text text-anchor="middle" x="437" y="-88.5" font-family="Helvetica,sans-Serif" font-size="10.00">QGraphicsRectItem *</text>
</g>
<!-- Node15&#45;&gt;Node1 -->
<g id="edge32" class="edge"><title>Node15&#45;&gt;Node1</title>
<path fill="none" stroke="#9a32cd" stroke-dasharray="5,2" d="M502.385,-94.4424C526.313,-98.5052 552.318,-106.521 572,-122 600.268,-144.232 613.195,-187.506 617.846,-207.459"/>
<polygon fill="#9a32cd" stroke="#9a32cd" points="502.689,-90.9491 492.282,-92.933 501.655,-97.8722 502.689,-90.9491"/>
<text text-anchor="middle" x="541" y="-126" font-family="Helvetica,sans-Serif" font-size="10.00">rubberband</text>
</g>
<!-- Node16 -->
<g id="node32" class="node"><title>Node16</title>
<polygon fill="none" stroke="#bfbfbf" points="383.5,-40.5 383.5,-61.5 490.5,-61.5 490.5,-40.5 383.5,-40.5"/>
<text text-anchor="middle" x="437" y="-48.5" font-family="Helvetica,sans-Serif" font-size="10.00">QGraphicsLineItem *</text>
</g>
<!-- Node16&#45;&gt;Node1 -->
<g id="edge34" class="edge"><title>Node16&#45;&gt;Node1</title>
<path fill="none" stroke="#9a32cd" stroke-dasharray="5,2" d="M500.668,-51.6691C525.49,-54.9984 552.582,-62.8374 572,-80 591.767,-97.471 611.1,-177.653 617.655,-207.107"/>
<polygon fill="#9a32cd" stroke="#9a32cd" points="500.891,-48.1723 490.564,-50.5373 500.112,-55.1288 500.891,-48.1723"/>
<text text-anchor="middle" x="541" y="-84" font-family="Helvetica,sans-Serif" font-size="10.00">guide</text>
</g>
<!-- Node17&#45;&gt;Node1 -->
<g id="edge36" class="edge"><title>Node17&#45;&gt;Node1</title>
<path fill="none" stroke="#9a32cd" stroke-dasharray="5,2" d="M478.704,-252.237C505.482,-247.034 540.936,-239.739 572,-232 577.98,-230.51 584.336,-228.77 590.398,-227.033"/>
<polygon fill="#9a32cd" stroke="#9a32cd" points="477.689,-248.868 468.53,-254.194 479.011,-255.742 477.689,-248.868"/>
<text text-anchor="middle" x="541" y="-250" font-family="Helvetica,sans-Serif" font-size="10.00">knot</text>
</g>
<!-- Node18 -->
<g id="node36" class="node"><title>Node18</title>
<a xlink:href="classQGraphicsPathItem.html" target="_top" xlink:title="QGraphicsPathItem">
<polygon fill="none" stroke="black" points="160.5,-291.5 160.5,-312.5 263.5,-312.5 263.5,-291.5 160.5,-291.5"/>
<text text-anchor="middle" x="212" y="-299.5" font-family="Helvetica,sans-Serif" font-size="10.00">QGraphicsPathItem</text>
</a>
</g>
<!-- Node18&#45;&gt;Node17 -->
<g id="edge38" class="edge"><title>Node18&#45;&gt;Node17</title>
<path fill="none" stroke="midnightblue" d="M273.651,-290.749C301.29,-285.678 334.289,-279.585 364,-274 377.57,-271.449 392.549,-268.585 405.389,-266.115"/>
<polygon fill="midnightblue" stroke="midnightblue" points="272.932,-287.322 263.727,-292.568 274.194,-294.208 272.932,-287.322"/>
</g>
<!-- Node19 -->
<g id="node39" class="node"><title>Node19</title>
<polygon fill="none" stroke="#bfbfbf" points="158.5,-251.5 158.5,-272.5 265.5,-272.5 265.5,-251.5 158.5,-251.5"/>
<text text-anchor="middle" x="212" y="-259.5" font-family="Helvetica,sans-Serif" font-size="10.00">QPainterPathStroker</text>
</g>
<!-- Node19&#45;&gt;Node17 -->
<g id="edge42" class="edge"><title>Node19&#45;&gt;Node17</title>
<path fill="none" stroke="#9a32cd" stroke-dasharray="5,2" d="M275.875,-261.088C278.62,-261.057 281.338,-261.027 284,-261 325.967,-260.571 374.412,-260.291 405.352,-260.139"/>
<polygon fill="#9a32cd" stroke="#9a32cd" points="275.82,-257.588 265.863,-261.209 275.904,-264.588 275.82,-257.588"/>
<text text-anchor="middle" x="324" y="-265" font-family="Helvetica,sans-Serif" font-size="10.00">stroker</text>
</g>
<!-- Node20 -->
<g id="node41" class="node"><title>Node20</title>
<polygon fill="none" stroke="#bfbfbf" points="174.5,-211.5 174.5,-232.5 249.5,-232.5 249.5,-211.5 174.5,-211.5"/>
<text text-anchor="middle" x="212" y="-219.5" font-family="Helvetica,sans-Serif" font-size="10.00">QPainterPath</text>
</g>
<!-- Node20&#45;&gt;Node17 -->
<g id="edge44" class="edge"><title>Node20&#45;&gt;Node17</title>
<path fill="none" stroke="#9a32cd" stroke-dasharray="5,2" d="M259.799,-228.02C289.808,-232.021 329.268,-237.689 364,-244 377.659,-246.482 392.653,-249.684 405.48,-252.571"/>
<polygon fill="#9a32cd" stroke="#9a32cd" points="259.973,-224.513 249.602,-226.676 259.058,-231.453 259.973,-224.513"/>
<text text-anchor="middle" x="324" y="-248" font-family="Helvetica,sans-Serif" font-size="10.00">knot</text>
</g>
<!-- Node21 -->
<g id="node44" class="node"><title>Node21</title>
<polygon fill="none" stroke="#bfbfbf" points="194.5,-171.5 194.5,-192.5 229.5,-192.5 229.5,-171.5 194.5,-171.5"/>
<text text-anchor="middle" x="212" y="-179.5" font-family="Helvetica,sans-Serif" font-size="10.00">long</text>
</g>
<!-- Node21&#45;&gt;Node17 -->
<g id="edge48" class="edge"><title>Node21&#45;&gt;Node17</title>
<path fill="none" stroke="#9a32cd" stroke-dasharray="5,2" d="M240.039,-182.973C272.022,-185.193 324.933,-192.325 364,-215 374.343,-221.003 372.353,-227.932 382,-235 389.784,-240.703 399.077,-245.536 407.788,-249.387"/>
<polygon fill="#9a32cd" stroke="#9a32cd" points="239.841,-179.456 229.656,-182.375 239.438,-186.444 239.841,-179.456"/>
<text text-anchor="middle" x="324" y="-219" font-family="Helvetica,sans-Serif" font-size="10.00">curve_style</text>
</g>
<!-- Node22 -->
<g id="node46" class="node"><title>Node22</title>
<polygon fill="none" stroke="#bfbfbf" points="168,-121.5 168,-142.5 256,-142.5 256,-121.5 168,-121.5"/>
<text text-anchor="middle" x="212" y="-129.5" font-family="Helvetica,sans-Serif" font-size="10.00">QList&lt; Node * &gt;</text>
</g>
<!-- Node22&#45;&gt;Node1 -->
<g id="edge52" class="edge"><title>Node22&#45;&gt;Node1</title>
<path fill="none" stroke="#9a32cd" stroke-dasharray="5,2" d="M256.545,-119.358C289.422,-112.861 333.556,-110.417 364,-133 385.678,-149.08 361.208,-173.79 382,-191 413.073,-216.72 533.73,-218.964 590.35,-218.542"/>
<polygon fill="#9a32cd" stroke="#9a32cd" points="255.765,-115.945 246.731,-121.481 257.245,-122.787 255.765,-115.945"/>
<text text-anchor="middle" x="437" y="-220" font-family="Helvetica,sans-Serif" font-size="10.00">moved_nodes</text>
</g>
<!-- Node22&#45;&gt;Node17 -->
<g id="edge50" class="edge"><title>Node22&#45;&gt;Node17</title>
<path fill="none" stroke="#9a32cd" stroke-dasharray="5,2" d="M266.514,-133.346C298.812,-136.99 338.315,-146.848 364,-172 384.806,-192.374 362.991,-212.94 382,-235 388.162,-242.151 396.789,-247.364 405.387,-251.118"/>
<polygon fill="#9a32cd" stroke="#9a32cd" points="266.596,-129.838 256.308,-132.37 265.929,-136.806 266.596,-129.838"/>
<text text-anchor="middle" x="324" y="-176" font-family="Helvetica,sans-Serif" font-size="10.00">nodes</text>
</g>
<!-- Node23 -->
<g id="node49" class="node"><title>Node23</title>
<polygon fill="none" stroke="#bfbfbf" points="404.5,-0.5 404.5,-21.5 469.5,-21.5 469.5,-0.5 404.5,-0.5"/>
<text text-anchor="middle" x="437" y="-8.5" font-family="Helvetica,sans-Serif" font-size="10.00">mode_type</text>
</g>
<!-- Node23&#45;&gt;Node1 -->
<g id="edge54" class="edge"><title>Node23&#45;&gt;Node1</title>
<path fill="none" stroke="#9a32cd" stroke-dasharray="5,2" d="M479.709,-8.12948C509.246,-8.52651 547.494,-14.1284 572,-37 597.549,-60.8454 614.04,-172.304 618.667,-207.394"/>
<polygon fill="#9a32cd" stroke="#9a32cd" points="479.642,-4.6297 469.662,-8.18633 479.682,-11.6296 479.642,-4.6297"/>
<text text-anchor="middle" x="541" y="-41" font-family="Helvetica,sans-Serif" font-size="10.00">mode</text>
</g>
</g>
</svg>
