<?xml version="1.0" encoding="UTF-8" standalone="no"?>
<!DOCTYPE svg PUBLIC "-//W3C//DTD SVG 1.1//EN"
 "http://www.w3.org/Graphics/SVG/1.1/DTD/svg11.dtd">
<!-- Generated by graphviz version 2.26.3 (20100126.1600)
 -->
<!-- Title: G Pages: 1 -->
<svg width="808pt" height="679pt"
 viewBox="0.00 0.00 808.00 679.00" xmlns="http://www.w3.org/2000/svg" xmlns:xlink="http://www.w3.org/1999/xlink">
<g id="graph1" class="graph" transform="scale(1 1) rotate(0) translate(4 675)">
<title>G</title>
<!-- Node1 -->
<g id="node1" class="node"><title>Node1</title>
<polygon fill="#bfbfbf" stroke="black" points="742.5,-422.5 742.5,-443.5 799.5,-443.5 799.5,-422.5 742.5,-422.5"/>
<text text-anchor="middle" x="771" y="-430.5" font-family="Helvetica,sans-Serif" font-size="10.00">AddNode</text>
</g>
<!-- Node2 -->
<g id="node2" class="node"><title>Node2</title>
<a xlink:href="classLastNodeCommand.html" target="_top" xlink:title="LastNodeCommand">
<polygon fill="none" stroke="black" points="590,-605.5 590,-626.5 694,-626.5 694,-605.5 590,-605.5"/>
<text text-anchor="middle" x="642" y="-613.5" font-family="Helvetica,sans-Serif" font-size="10.00">LastNodeCommand</text>
</a>
</g>
<!-- Node2&#45;&gt;Node1 -->
<g id="edge2" class="edge"><title>Node2&#45;&gt;Node1</title>
<path fill="none" stroke="midnightblue" d="M696.262,-601.382C706.539,-596.579 716.428,-590.265 724,-582 761.562,-540.999 769.105,-470.117 770.619,-443.503"/>
<polygon fill="midnightblue" stroke="midnightblue" points="694.626,-598.273 686.769,-605.381 697.344,-604.724 694.626,-598.273"/>
</g>
<!-- Node3 -->
<g id="node4" class="node"><title>Node3</title>
<a xlink:href="classQUndoCommand.html" target="_top" xlink:title="QUndoCommand">
<polygon fill="none" stroke="black" points="391,-618.5 391,-639.5 483,-639.5 483,-618.5 391,-618.5"/>
<text text-anchor="middle" x="437" y="-626.5" font-family="Helvetica,sans-Serif" font-size="10.00">QUndoCommand</text>
</a>
</g>
<!-- Node3&#45;&gt;Node2 -->
<g id="edge4" class="edge"><title>Node3&#45;&gt;Node2</title>
<path fill="none" stroke="midnightblue" d="M493.342,-625.427C523.417,-623.52 560.194,-621.188 589.644,-619.32"/>
<polygon fill="midnightblue" stroke="midnightblue" points="492.764,-621.957 483.006,-626.083 493.207,-628.943 492.764,-621.957"/>
</g>
<!-- Node4 -->
<g id="node6" class="node"><title>Node4</title>
<a xlink:href="classNode.html" target="_top" xlink:title="Node">
<polygon fill="none" stroke="black" points="417,-578.5 417,-599.5 457,-599.5 457,-578.5 417,-578.5"/>
<text text-anchor="middle" x="437" y="-586.5" font-family="Helvetica,sans-Serif" font-size="10.00">Node</text>
</a>
</g>
<!-- Node4&#45;&gt;Node1 -->
<g id="edge6" class="edge"><title>Node4&#45;&gt;Node1</title>
<path fill="none" stroke="#9a32cd" stroke-dasharray="5,2" d="M466.632,-576.148C494.064,-564.175 535.936,-545.708 572,-529 637.085,-498.847 713.268,-461.521 749.608,-443.591"/>
<polygon fill="#9a32cd" stroke="#9a32cd" points="464.986,-573.047 457.216,-580.25 467.782,-579.465 464.986,-573.047"/>
<text text-anchor="middle" x="642" y="-525" font-family="Helvetica,sans-Serif" font-size="10.00">node</text>
</g>
<!-- Node11 -->
<g id="node20" class="node"><title>Node11</title>
<a xlink:href="classKnotView.html" target="_top" xlink:title="KnotView">
<polygon fill="none" stroke="black" points="612.5,-200.5 612.5,-221.5 671.5,-221.5 671.5,-200.5 612.5,-200.5"/>
<text text-anchor="middle" x="642" y="-208.5" font-family="Helvetica,sans-Serif" font-size="10.00">KnotView</text>
</a>
</g>
<!-- Node4&#45;&gt;Node11 -->
<g id="edge24" class="edge"><title>Node4&#45;&gt;Node11</title>
<path fill="none" stroke="#9a32cd" stroke-dasharray="5,2" d="M455.866,-571.218C484.673,-543.121 539.674,-485.604 572,-427 612.173,-354.169 633.677,-254.659 639.996,-221.925"/>
<polygon fill="#9a32cd" stroke="#9a32cd" points="453.249,-568.88 448.477,-578.34 458.106,-573.921 453.249,-568.88"/>
<text text-anchor="middle" x="541" y="-516" font-family="Helvetica,sans-Serif" font-size="10.00">last_node</text>
</g>
<!-- Node5 -->
<g id="node8" class="node"><title>Node5</title>
<a xlink:href="classCustomItem.html" target="_top" xlink:title="CustomItem">
<polygon fill="none" stroke="black" points="176.5,-609.5 176.5,-630.5 247.5,-630.5 247.5,-609.5 176.5,-609.5"/>
<text text-anchor="middle" x="212" y="-617.5" font-family="Helvetica,sans-Serif" font-size="10.00">CustomItem</text>
</a>
</g>
<!-- Node5&#45;&gt;Node4 -->
<g id="edge8" class="edge"><title>Node5&#45;&gt;Node4</title>
<path fill="none" stroke="midnightblue" d="M257.876,-614.191C288.052,-610.314 328.401,-605.024 364,-600 381.894,-597.475 402.222,-594.394 416.874,-592.136"/>
<polygon fill="midnightblue" stroke="midnightblue" points="257.126,-610.758 247.651,-615.501 258.015,-617.702 257.126,-610.758"/>
</g>
<!-- Node6 -->
<g id="node10" class="node"><title>Node6</title>
<a xlink:href="classQGraphicsItem.html" target="_top" xlink:title="QGraphicsItem">
<polygon fill="none" stroke="black" points="0.5,-629.5 0.5,-650.5 83.5,-650.5 83.5,-629.5 0.5,-629.5"/>
<text text-anchor="middle" x="42" y="-637.5" font-family="Helvetica,sans-Serif" font-size="10.00">QGraphicsItem</text>
</a>
</g>
<!-- Node6&#45;&gt;Node5 -->
<g id="edge10" class="edge"><title>Node6&#45;&gt;Node5</title>
<path fill="none" stroke="midnightblue" d="M93.5537,-633.935C120.304,-630.788 152.312,-627.022 176.307,-624.199"/>
<polygon fill="midnightblue" stroke="midnightblue" points="93.1092,-630.463 83.5867,-635.107 93.9272,-637.415 93.1092,-630.463"/>
</g>
<!-- Node7 -->
<g id="node12" class="node"><title>Node7</title>
<polygon fill="none" stroke="#bfbfbf" points="24.5,-589.5 24.5,-610.5 59.5,-610.5 59.5,-589.5 24.5,-589.5"/>
<text text-anchor="middle" x="42" y="-597.5" font-family="Helvetica,sans-Serif" font-size="10.00">bool</text>
</g>
<!-- Node7&#45;&gt;Node5 -->
<g id="edge12" class="edge"><title>Node7&#45;&gt;Node5</title>
<path fill="none" stroke="#9a32cd" stroke-dasharray="5,2" d="M69.7979,-603.026C89.4223,-605.185 116.331,-608.192 140,-611 151.884,-612.41 164.863,-614.012 176.488,-615.471"/>
<polygon fill="#9a32cd" stroke="#9a32cd" points="70.0336,-599.531 59.7117,-601.92 69.2707,-606.489 70.0336,-599.531"/>
<text text-anchor="middle" x="121" y="-615" font-family="Helvetica,sans-Serif" font-size="10.00">highlight</text>
</g>
<!-- Node8 -->
<g id="node14" class="node"><title>Node8</title>
<polygon fill="none" stroke="#bfbfbf" points="197.5,-649.5 197.5,-670.5 226.5,-670.5 226.5,-649.5 197.5,-649.5"/>
<text text-anchor="middle" x="212" y="-657.5" font-family="Helvetica,sans-Serif" font-size="10.00">int</text>
</g>
<!-- Node8&#45;&gt;Node4 -->
<g id="edge14" class="edge"><title>Node8&#45;&gt;Node4</title>
<path fill="none" stroke="#9a32cd" stroke-dasharray="5,2" d="M236.819,-655.251C267.419,-648.958 320.688,-636.565 364,-619 372.481,-615.561 373.674,-612.798 382,-609 393.278,-603.856 406.298,-599.073 416.838,-595.474"/>
<polygon fill="#9a32cd" stroke="#9a32cd" points="235.749,-651.896 226.632,-657.292 237.124,-658.759 235.749,-651.896"/>
<text text-anchor="middle" x="324" y="-647" font-family="Helvetica,sans-Serif" font-size="10.00">radius</text>
</g>
<!-- Node9 -->
<g id="node16" class="node"><title>Node9</title>
<polygon fill="none" stroke="#bfbfbf" points="168.5,-554.5 168.5,-575.5 255.5,-575.5 255.5,-554.5 168.5,-554.5"/>
<text text-anchor="middle" x="212" y="-562.5" font-family="Helvetica,sans-Serif" font-size="10.00">QList&lt; Edge * &gt;</text>
</g>
<!-- Node9&#45;&gt;Node4 -->
<g id="edge16" class="edge"><title>Node9&#45;&gt;Node4</title>
<path fill="none" stroke="#9a32cd" stroke-dasharray="5,2" d="M265.936,-571.9C272.027,-572.633 278.145,-573.347 284,-574 331.481,-579.294 387.365,-584.518 416.688,-587.182"/>
<polygon fill="#9a32cd" stroke="#9a32cd" points="266.115,-568.396 255.764,-570.66 265.267,-575.345 266.115,-568.396"/>
<text text-anchor="middle" x="324" y="-587" font-family="Helvetica,sans-Serif" font-size="10.00">edges</text>
</g>
<!-- Node18 -->
<g id="node35" class="node"><title>Node18</title>
<a xlink:href="classKnotGraph.html" target="_top" xlink:title="KnotGraph">
<polygon fill="none" stroke="black" points="405.5,-377.5 405.5,-398.5 468.5,-398.5 468.5,-377.5 405.5,-377.5"/>
<text text-anchor="middle" x="437" y="-385.5" font-family="Helvetica,sans-Serif" font-size="10.00">KnotGraph</text>
</a>
</g>
<!-- Node9&#45;&gt;Node18 -->
<g id="edge46" class="edge"><title>Node9&#45;&gt;Node18</title>
<path fill="none" stroke="#9a32cd" stroke-dasharray="5,2" d="M256.365,-551.678C265.481,-549.048 275.033,-546.371 284,-544 319.33,-534.659 339.22,-551.86 364,-525 399.674,-486.33 348.619,-448.666 382,-408 387.866,-400.853 396.512,-396.261 405.219,-393.309"/>
<polygon fill="#9a32cd" stroke="#9a32cd" points="255.313,-548.339 246.691,-554.496 257.271,-555.06 255.313,-548.339"/>
<text text-anchor="middle" x="324" y="-561" font-family="Helvetica,sans-Serif" font-size="10.00">traversed_edges</text>
<text text-anchor="middle" x="324" y="-548" font-family="Helvetica,sans-Serif" font-size="10.00">edges</text>
</g>
<!-- Node10 -->
<g id="node18" class="node"><title>Node10</title>
<polygon fill="none" stroke="#bfbfbf" points="168,-272.5 168,-293.5 256,-293.5 256,-272.5 168,-272.5"/>
<text text-anchor="middle" x="212" y="-280.5" font-family="Helvetica,sans-Serif" font-size="10.00">QList&lt; Node * &gt;</text>
</g>
<!-- Node10&#45;&gt;Node1 -->
<g id="edge18" class="edge"><title>Node10&#45;&gt;Node1</title>
<path fill="none" stroke="#9a32cd" stroke-dasharray="5,2" d="M266.386,-281.837C352.696,-280.591 516.904,-280.832 572,-299 653.09,-325.739 731.918,-395.582 760.108,-422.348"/>
<polygon fill="#9a32cd" stroke="#9a32cd" points="266.203,-278.339 256.259,-281.995 266.313,-285.338 266.203,-278.339"/>
<text text-anchor="middle" x="541" y="-303" font-family="Helvetica,sans-Serif" font-size="10.00">links</text>
</g>
<!-- Node10&#45;&gt;Node11 -->
<g id="edge52" class="edge"><title>Node10&#45;&gt;Node11</title>
<path fill="none" stroke="#9a32cd" stroke-dasharray="5,2" d="M266.073,-274.741C366.508,-259.4 571.766,-228.046 572,-228 585.373,-225.36 600.049,-221.886 612.493,-218.767"/>
<polygon fill="#9a32cd" stroke="#9a32cd" points="265.465,-271.293 256.108,-276.263 266.522,-278.213 265.465,-271.293"/>
<text text-anchor="middle" x="437" y="-261" font-family="Helvetica,sans-Serif" font-size="10.00">moved_nodes</text>
</g>
<!-- Node10&#45;&gt;Node18 -->
<g id="edge50" class="edge"><title>Node10&#45;&gt;Node18</title>
<path fill="none" stroke="#9a32cd" stroke-dasharray="5,2" d="M256.369,-296.722C287.29,-306.98 329.087,-322.256 364,-340 385.635,-350.996 408.742,-366.997 423.03,-377.451"/>
<polygon fill="#9a32cd" stroke="#9a32cd" points="257.327,-293.353 246.735,-293.57 255.151,-300.006 257.327,-293.353"/>
<text text-anchor="middle" x="324" y="-344" font-family="Helvetica,sans-Serif" font-size="10.00">nodes</text>
</g>
<!-- Node11&#45;&gt;Node1 -->
<g id="edge20" class="edge"><title>Node11&#45;&gt;Node1</title>
<path fill="none" stroke="#9a32cd" stroke-dasharray="5,2" d="M672.011,-226.744C689.523,-237.358 710.716,-252.896 724,-272 758.079,-321.008 767.717,-394.768 770.205,-422.212"/>
<polygon fill="#9a32cd" stroke="#9a32cd" points="673.654,-223.651 663.25,-221.651 670.136,-229.703 673.654,-223.651"/>
<text text-anchor="middle" x="718" y="-276" font-family="Helvetica,sans-Serif" font-size="10.00">kv</text>
</g>
<!-- Node12 -->
<g id="node22" class="node"><title>Node12</title>
<a xlink:href="classQGraphicsView.html" target="_top" xlink:title="QGraphicsView">
<polygon fill="none" stroke="black" points="394.5,-160.5 394.5,-181.5 479.5,-181.5 479.5,-160.5 394.5,-160.5"/>
<text text-anchor="middle" x="437" y="-168.5" font-family="Helvetica,sans-Serif" font-size="10.00">QGraphicsView</text>
</a>
</g>
<!-- Node12&#45;&gt;Node11 -->
<g id="edge22" class="edge"><title>Node12&#45;&gt;Node11</title>
<path fill="none" stroke="midnightblue" d="M490.086,-181.358C529.002,-188.952 580.411,-198.983 612.33,-205.211"/>
<polygon fill="midnightblue" stroke="midnightblue" points="490.46,-177.865 479.975,-179.385 489.119,-184.736 490.46,-177.865"/>
</g>
<!-- Node13 -->
<g id="node25" class="node"><title>Node13</title>
<polygon fill="none" stroke="#bfbfbf" points="400.5,-120.5 400.5,-141.5 473.5,-141.5 473.5,-120.5 400.5,-120.5"/>
<text text-anchor="middle" x="437" y="-128.5" font-family="Helvetica,sans-Serif" font-size="10.00">QUndoStack</text>
</g>
<!-- Node13&#45;&gt;Node11 -->
<g id="edge26" class="edge"><title>Node13&#45;&gt;Node11</title>
<path fill="none" stroke="#9a32cd" stroke-dasharray="5,2" d="M483.451,-141.379C509.954,-148.046 543.475,-157.753 572,-170 591.671,-178.446 612.661,-191.316 626.468,-200.38"/>
<polygon fill="#9a32cd" stroke="#9a32cd" points="484.208,-137.961 473.662,-138.974 482.538,-144.759 484.208,-137.961"/>
<text text-anchor="middle" x="541" y="-174" font-family="Helvetica,sans-Serif" font-size="10.00">undo_stack</text>
</g>
<!-- Node14 -->
<g id="node27" class="node"><title>Node14</title>
<polygon fill="none" stroke="#bfbfbf" points="386,-80.5 386,-101.5 488,-101.5 488,-80.5 386,-80.5"/>
<text text-anchor="middle" x="437" y="-88.5" font-family="Helvetica,sans-Serif" font-size="10.00">mouse_status_type</text>
</g>
<!-- Node14&#45;&gt;Node11 -->
<g id="edge28" class="edge"><title>Node14&#45;&gt;Node11</title>
<path fill="none" stroke="#9a32cd" stroke-dasharray="5,2" d="M498.09,-102.003C522.396,-108.248 549.801,-117.762 572,-132 600.536,-150.302 624.385,-183.408 635.418,-200.364"/>
<polygon fill="#9a32cd" stroke="#9a32cd" points="498.786,-98.5706 488.242,-99.6044 497.13,-105.372 498.786,-98.5706"/>
<text text-anchor="middle" x="541" y="-136" font-family="Helvetica,sans-Serif" font-size="10.00">mouse_status</text>
</g>
<!-- Node15 -->
<g id="node29" class="node"><title>Node15</title>
<polygon fill="none" stroke="#bfbfbf" points="410.5,-40.5 410.5,-61.5 463.5,-61.5 463.5,-40.5 410.5,-40.5"/>
<text text-anchor="middle" x="437" y="-48.5" font-family="Helvetica,sans-Serif" font-size="10.00">QPointF</text>
</g>
<!-- Node15&#45;&gt;Node11 -->
<g id="edge30" class="edge"><title>Node15&#45;&gt;Node11</title>
<path fill="none" stroke="#9a32cd" stroke-dasharray="5,2" d="M473.726,-53.7662C502.985,-57.6258 543.609,-66.8687 572,-89 610.518,-119.026 631.576,-176.599 638.946,-200.351"/>
<polygon fill="#9a32cd" stroke="#9a32cd" points="473.843,-50.2561 463.505,-52.5738 473.032,-57.209 473.843,-50.2561"/>
<text text-anchor="middle" x="541" y="-93" font-family="Helvetica,sans-Serif" font-size="10.00">oldpos</text>
</g>
<!-- Node16 -->
<g id="node31" class="node"><title>Node16</title>
<polygon fill="none" stroke="#bfbfbf" points="382,-0.5 382,-21.5 492,-21.5 492,-0.5 382,-0.5"/>
<text text-anchor="middle" x="437" y="-8.5" font-family="Helvetica,sans-Serif" font-size="10.00">QGraphicsRectItem *</text>
</g>
<!-- Node16&#45;&gt;Node11 -->
<g id="edge32" class="edge"><title>Node16&#45;&gt;Node11</title>
<path fill="none" stroke="#9a32cd" stroke-dasharray="5,2" d="M502.066,-14.67C526.329,-18.9642 552.649,-27.4744 572,-44 621.963,-86.6686 637.002,-170.976 640.84,-200.495"/>
<polygon fill="#9a32cd" stroke="#9a32cd" points="502.599,-11.2108 492.179,-13.1252 501.518,-18.1269 502.599,-11.2108"/>
<text text-anchor="middle" x="541" y="-48" font-family="Helvetica,sans-Serif" font-size="10.00">rubberband</text>
</g>
<!-- Node17 -->
<g id="node33" class="node"><title>Node17</title>
<polygon fill="none" stroke="#bfbfbf" points="383.5,-417.5 383.5,-438.5 490.5,-438.5 490.5,-417.5 383.5,-417.5"/>
<text text-anchor="middle" x="437" y="-425.5" font-family="Helvetica,sans-Serif" font-size="10.00">QGraphicsLineItem *</text>
</g>
<!-- Node17&#45;&gt;Node11 -->
<g id="edge34" class="edge"><title>Node17&#45;&gt;Node11</title>
<path fill="none" stroke="#9a32cd" stroke-dasharray="5,2" d="M497.992,-414.477C523.577,-406.166 551.972,-393.119 572,-373 616.744,-328.053 634.896,-249.874 640.206,-221.593"/>
<polygon fill="#9a32cd" stroke="#9a32cd" points="496.882,-411.156 488.347,-417.435 498.934,-417.849 496.882,-411.156"/>
<text text-anchor="middle" x="541" y="-414" font-family="Helvetica,sans-Serif" font-size="10.00">guide</text>
</g>
<!-- Node18&#45;&gt;Node11 -->
<g id="edge36" class="edge"><title>Node18&#45;&gt;Node11</title>
<path fill="none" stroke="#9a32cd" stroke-dasharray="5,2" d="M475.247,-373.63C504.135,-361.435 543.533,-341.805 572,-316 603.328,-287.602 627.206,-242.343 637.06,-221.788"/>
<polygon fill="#9a32cd" stroke="#9a32cd" points="473.803,-370.44 465.885,-377.479 476.464,-376.914 473.803,-370.44"/>
<text text-anchor="middle" x="541" y="-360" font-family="Helvetica,sans-Serif" font-size="10.00">knot</text>
</g>
<!-- Node19 -->
<g id="node37" class="node"><title>Node19</title>
<a xlink:href="classQGraphicsPathItem.html" target="_top" xlink:title="QGraphicsPathItem">
<polygon fill="none" stroke="black" points="160.5,-503.5 160.5,-524.5 263.5,-524.5 263.5,-503.5 160.5,-503.5"/>
<text text-anchor="middle" x="212" y="-511.5" font-family="Helvetica,sans-Serif" font-size="10.00">QGraphicsPathItem</text>
</a>
</g>
<!-- Node19&#45;&gt;Node18 -->
<g id="edge38" class="edge"><title>Node19&#45;&gt;Node18</title>
<path fill="none" stroke="midnightblue" d="M273.819,-524.333C304.517,-525.851 340.061,-521.627 364,-500 394.916,-472.069 354.917,-439.661 382,-408 388.01,-400.974 396.697,-396.416 405.398,-393.459"/>
<polygon fill="midnightblue" stroke="midnightblue" points="273.839,-520.826 263.618,-523.615 273.347,-527.809 273.839,-520.826"/>
</g>
<!-- Node20 -->
<g id="node39" class="node"><title>Node20</title>
<polygon fill="none" stroke="#bfbfbf" points="189.5,-455.5 189.5,-476.5 234.5,-476.5 234.5,-455.5 189.5,-455.5"/>
<text text-anchor="middle" x="212" y="-463.5" font-family="Helvetica,sans-Serif" font-size="10.00">double</text>
</g>
<!-- Node20&#45;&gt;Node18 -->
<g id="edge40" class="edge"><title>Node20&#45;&gt;Node18</title>
<path fill="none" stroke="#9a32cd" stroke-dasharray="5,2" d="M245.086,-465.126C277.702,-462.843 327.781,-455.404 364,-432 375.199,-424.764 371.29,-415.942 382,-408 388.937,-402.856 397.331,-398.923 405.45,-395.964"/>
<polygon fill="#9a32cd" stroke="#9a32cd" points="244.524,-461.652 234.74,-465.718 244.923,-468.641 244.524,-461.652"/>
<text text-anchor="middle" x="324" y="-491" font-family="Helvetica,sans-Serif" font-size="10.00">cusp_angle</text>
<text text-anchor="middle" x="324" y="-478" font-family="Helvetica,sans-Serif" font-size="10.00">crossing_distance</text>
<text text-anchor="middle" x="324" y="-465" font-family="Helvetica,sans-Serif" font-size="10.00">handle_length</text>
</g>
<!-- Node21 -->
<g id="node41" class="node"><title>Node21</title>
<polygon fill="none" stroke="#bfbfbf" points="158.5,-415.5 158.5,-436.5 265.5,-436.5 265.5,-415.5 158.5,-415.5"/>
<text text-anchor="middle" x="212" y="-423.5" font-family="Helvetica,sans-Serif" font-size="10.00">QPainterPathStroker</text>
</g>
<!-- Node21&#45;&gt;Node18 -->
<g id="edge42" class="edge"><title>Node21&#45;&gt;Node18</title>
<path fill="none" stroke="#9a32cd" stroke-dasharray="5,2" d="M275.713,-416.417C302.944,-412.198 335.064,-407.058 364,-402 377.602,-399.623 392.586,-396.787 405.421,-394.291"/>
<polygon fill="#9a32cd" stroke="#9a32cd" points="274.883,-413.004 265.533,-417.987 275.95,-419.922 274.883,-413.004"/>
<text text-anchor="middle" x="324" y="-419" font-family="Helvetica,sans-Serif" font-size="10.00">stroker</text>
</g>
<!-- Node22 -->
<g id="node43" class="node"><title>Node22</title>
<polygon fill="none" stroke="#bfbfbf" points="174.5,-375.5 174.5,-396.5 249.5,-396.5 249.5,-375.5 174.5,-375.5"/>
<text text-anchor="middle" x="212" y="-383.5" font-family="Helvetica,sans-Serif" font-size="10.00">QPainterPath</text>
</g>
<!-- Node22&#45;&gt;Node18 -->
<g id="edge44" class="edge"><title>Node22&#45;&gt;Node18</title>
<path fill="none" stroke="#9a32cd" stroke-dasharray="5,2" d="M259.812,-386.425C303.72,-386.815 367.539,-387.383 405.403,-387.719"/>
<polygon fill="#9a32cd" stroke="#9a32cd" points="259.691,-382.924 249.66,-386.335 259.628,-389.924 259.691,-382.924"/>
<text text-anchor="middle" x="324" y="-392" font-family="Helvetica,sans-Serif" font-size="10.00">knot</text>
</g>
<!-- Node23 -->
<g id="node46" class="node"><title>Node23</title>
<polygon fill="none" stroke="#bfbfbf" points="194.5,-335.5 194.5,-356.5 229.5,-356.5 229.5,-335.5 194.5,-335.5"/>
<text text-anchor="middle" x="212" y="-343.5" font-family="Helvetica,sans-Serif" font-size="10.00">long</text>
</g>
<!-- Node23&#45;&gt;Node18 -->
<g id="edge48" class="edge"><title>Node23&#45;&gt;Node18</title>
<path fill="none" stroke="#9a32cd" stroke-dasharray="5,2" d="M239.811,-349.667C270.386,-353.866 320.897,-361.299 364,-370 377.563,-372.738 392.41,-376.294 405.152,-379.522"/>
<polygon fill="#9a32cd" stroke="#9a32cd" points="240.252,-346.194 229.873,-348.319 239.312,-353.131 240.252,-346.194"/>
<text text-anchor="middle" x="324" y="-374" font-family="Helvetica,sans-Serif" font-size="10.00">curve_style</text>
</g>
<!-- Node24 -->
<g id="node50" class="node"><title>Node24</title>
<polygon fill="none" stroke="#bfbfbf" points="404.5,-200.5 404.5,-221.5 469.5,-221.5 469.5,-200.5 404.5,-200.5"/>
<text text-anchor="middle" x="437" y="-208.5" font-family="Helvetica,sans-Serif" font-size="10.00">mode_type</text>
</g>
<!-- Node24&#45;&gt;Node11 -->
<g id="edge54" class="edge"><title>Node24&#45;&gt;Node11</title>
<path fill="none" stroke="#9a32cd" stroke-dasharray="5,2" d="M480.124,-211C519.858,-211 577.76,-211 612.472,-211"/>
<polygon fill="#9a32cd" stroke="#9a32cd" points="479.937,-207.5 469.937,-211 479.937,-214.5 479.937,-207.5"/>
<text text-anchor="middle" x="541" y="-215" font-family="Helvetica,sans-Serif" font-size="10.00">mode</text>
</g>
</g>
</svg>
