<?xml version="1.0" encoding="UTF-8" standalone="no"?>
<!DOCTYPE svg PUBLIC "-//W3C//DTD SVG 1.1//EN"
 "http://www.w3.org/Graphics/SVG/1.1/DTD/svg11.dtd">
<!-- Generated by graphviz version 2.26.3 (20100126.1600)
 -->
<!-- Title: G Pages: 1 -->
<svg width="816pt" height="609pt"
 viewBox="0.00 0.00 816.00 609.42" xmlns="http://www.w3.org/2000/svg" xmlns:xlink="http://www.w3.org/1999/xlink">
<g id="graph1" class="graph" transform="scale(1 1) rotate(0) translate(4 605.422)">
<title>G</title>
<!-- Node1 -->
<g id="node1" class="node"><title>Node1</title>
<polygon fill="#bfbfbf" stroke="black" points="730.5,-445.922 730.5,-466.922 807.5,-466.922 807.5,-445.922 730.5,-445.922"/>
<text text-anchor="middle" x="769" y="-453.922" font-family="Helvetica,sans-Serif" font-size="10.00">RemoveNode</text>
</g>
<!-- Node2 -->
<g id="node2" class="node"><title>Node2</title>
<a xlink:href="classQUndoCommand.html" target="_top" xlink:title="QUndoCommand">
<polygon fill="none" stroke="black" points="590,-552.922 590,-573.922 682,-573.922 682,-552.922 590,-552.922"/>
<text text-anchor="middle" x="636" y="-560.922" font-family="Helvetica,sans-Serif" font-size="10.00">QUndoCommand</text>
</a>
</g>
<!-- Node2&#45;&gt;Node1 -->
<g id="edge2" class="edge"><title>Node2&#45;&gt;Node1</title>
<path fill="none" stroke="midnightblue" d="M687.49,-549.211C696.144,-545.524 704.68,-540.979 712,-535.422 736.785,-516.604 755.388,-484.025 763.891,-467.188"/>
<polygon fill="midnightblue" stroke="midnightblue" points="686.142,-545.98 678.105,-552.882 688.693,-552.499 686.142,-545.98"/>
</g>
<!-- Node3 -->
<g id="node4" class="node"><title>Node3</title>
<a xlink:href="classNode.html" target="_top" xlink:title="Node">
<polygon fill="none" stroke="black" points="417,-510.922 417,-531.922 457,-531.922 457,-510.922 417,-510.922"/>
<text text-anchor="middle" x="437" y="-518.922" font-family="Helvetica,sans-Serif" font-size="10.00">Node</text>
</a>
</g>
<!-- Node3&#45;&gt;Node1 -->
<g id="edge4" class="edge"><title>Node3&#45;&gt;Node1</title>
<path fill="none" stroke="#9a32cd" stroke-dasharray="5,2" d="M467.418,-519.576C494.9,-517.598 536.379,-513.842 572,-507.422 629.89,-496.987 695.81,-478.552 734.827,-466.938"/>
<polygon fill="#9a32cd" stroke="#9a32cd" points="466.998,-516.096 457.26,-520.271 467.476,-523.08 466.998,-516.096"/>
<text text-anchor="middle" x="636" y="-507.422" font-family="Helvetica,sans-Serif" font-size="10.00">node</text>
</g>
<!-- Node10 -->
<g id="node18" class="node"><title>Node10</title>
<a xlink:href="classKnotView.html" target="_top" xlink:title="KnotView">
<polygon fill="none" stroke="black" points="606.5,-280.922 606.5,-301.922 665.5,-301.922 665.5,-280.922 606.5,-280.922"/>
<text text-anchor="middle" x="636" y="-288.922" font-family="Helvetica,sans-Serif" font-size="10.00">KnotView</text>
</a>
</g>
<!-- Node3&#45;&gt;Node10 -->
<g id="edge22" class="edge"><title>Node3&#45;&gt;Node10</title>
<path fill="none" stroke="#9a32cd" stroke-dasharray="5,2" d="M466.671,-510.454C506.378,-495.774 571.878,-471.546 572,-471.422 620.926,-421.85 632.649,-332.483 635.283,-301.967"/>
<polygon fill="#9a32cd" stroke="#9a32cd" points="465.353,-507.21 457.187,-513.96 467.78,-513.775 465.353,-507.21"/>
<text text-anchor="middle" x="541" y="-497.422" font-family="Helvetica,sans-Serif" font-size="10.00">last_node</text>
</g>
<!-- Node4 -->
<g id="node6" class="node"><title>Node4</title>
<a xlink:href="classCustomItem.html" target="_top" xlink:title="CustomItem">
<polygon fill="none" stroke="black" points="176.5,-539.922 176.5,-560.922 247.5,-560.922 247.5,-539.922 176.5,-539.922"/>
<text text-anchor="middle" x="212" y="-547.922" font-family="Helvetica,sans-Serif" font-size="10.00">CustomItem</text>
</a>
</g>
<!-- Node4&#45;&gt;Node3 -->
<g id="edge6" class="edge"><title>Node4&#45;&gt;Node3</title>
<path fill="none" stroke="midnightblue" d="M257.8,-549.66C288.101,-548.604 328.619,-546.137 364,-540.422 382.1,-537.498 402.235,-532.089 416.766,-527.789"/>
<polygon fill="midnightblue" stroke="midnightblue" points="257.42,-546.169 247.533,-549.977 257.637,-553.166 257.42,-546.169"/>
</g>
<!-- Node5 -->
<g id="node8" class="node"><title>Node5</title>
<a xlink:href="classQGraphicsItem.html" target="_top" xlink:title="QGraphicsItem">
<polygon fill="none" stroke="black" points="0.5,-539.922 0.5,-560.922 83.5,-560.922 83.5,-539.922 0.5,-539.922"/>
<text text-anchor="middle" x="42" y="-547.922" font-family="Helvetica,sans-Serif" font-size="10.00">QGraphicsItem</text>
</a>
</g>
<!-- Node5&#45;&gt;Node4 -->
<g id="edge8" class="edge"><title>Node5&#45;&gt;Node4</title>
<path fill="none" stroke="midnightblue" d="M93.9076,-550.422C120.585,-550.422 152.417,-550.422 176.307,-550.422"/>
<polygon fill="midnightblue" stroke="midnightblue" points="93.5867,-546.922 83.5867,-550.422 93.5866,-553.922 93.5867,-546.922"/>
</g>
<!-- Node6 -->
<g id="node10" class="node"><title>Node6</title>
<polygon fill="none" stroke="#bfbfbf" points="24.5,-478.922 24.5,-499.922 59.5,-499.922 59.5,-478.922 24.5,-478.922"/>
<text text-anchor="middle" x="42" y="-486.922" font-family="Helvetica,sans-Serif" font-size="10.00">bool</text>
</g>
<!-- Node6&#45;&gt;Node4 -->
<g id="edge10" class="edge"><title>Node6&#45;&gt;Node4</title>
<path fill="none" stroke="#9a32cd" stroke-dasharray="5,2" d="M69.2742,-499.208C100.301,-510.341 150.782,-528.455 182.647,-539.889"/>
<polygon fill="#9a32cd" stroke="#9a32cd" points="70.1472,-495.803 59.5527,-495.72 67.783,-502.392 70.1472,-495.803"/>
<text text-anchor="middle" x="121" y="-527.422" font-family="Helvetica,sans-Serif" font-size="10.00">highlight</text>
</g>
<!-- Node15 -->
<g id="node29" class="node"><title>Node15</title>
<a xlink:href="classsnapping__grid.html" target="_top" xlink:title="snapping_grid">
<polygon fill="none" stroke="black" points="398.5,-326.922 398.5,-347.922 475.5,-347.922 475.5,-326.922 398.5,-326.922"/>
<text text-anchor="middle" x="437" y="-334.922" font-family="Helvetica,sans-Serif" font-size="10.00">snapping_grid</text>
</a>
</g>
<!-- Node6&#45;&gt;Node15 -->
<g id="edge36" class="edge"><title>Node6&#45;&gt;Node15</title>
<path fill="none" stroke="#9a32cd" stroke-dasharray="5,2" d="M69.7222,-486.516C147.574,-478.344 362.643,-455.668 364,-454.422 394.685,-426.238 356.17,-395.113 382,-362.422 386.877,-356.249 393.617,-351.548 400.71,-347.985"/>
<polygon fill="#9a32cd" stroke="#9a32cd" points="69.2643,-483.045 59.6842,-487.57 69.9948,-490.007 69.2643,-483.045"/>
<text text-anchor="middle" x="212" y="-480.422" font-family="Helvetica,sans-Serif" font-size="10.00">enabled</text>
</g>
<!-- Node7 -->
<g id="node12" class="node"><title>Node7</title>
<polygon fill="none" stroke="#bfbfbf" points="197.5,-579.922 197.5,-600.922 226.5,-600.922 226.5,-579.922 197.5,-579.922"/>
<text text-anchor="middle" x="212" y="-587.922" font-family="Helvetica,sans-Serif" font-size="10.00">int</text>
</g>
<!-- Node7&#45;&gt;Node3 -->
<g id="edge12" class="edge"><title>Node7&#45;&gt;Node3</title>
<path fill="none" stroke="#9a32cd" stroke-dasharray="5,2" d="M236.726,-586.958C267.231,-582.255 320.405,-572.645 364,-557.422 383.344,-550.666 404.195,-540.014 418.639,-532.047"/>
<polygon fill="#9a32cd" stroke="#9a32cd" points="235.948,-583.535 226.572,-588.47 236.979,-590.459 235.948,-583.535"/>
<text text-anchor="middle" x="324" y="-581.422" font-family="Helvetica,sans-Serif" font-size="10.00">radius</text>
</g>
<!-- Node8 -->
<g id="node14" class="node"><title>Node8</title>
<polygon fill="none" stroke="#bfbfbf" points="168.5,-397.922 168.5,-418.922 255.5,-418.922 255.5,-397.922 168.5,-397.922"/>
<text text-anchor="middle" x="212" y="-405.922" font-family="Helvetica,sans-Serif" font-size="10.00">QList&lt; Edge * &gt;</text>
</g>
<!-- Node8&#45;&gt;Node3 -->
<g id="edge14" class="edge"><title>Node8&#45;&gt;Node3</title>
<path fill="none" stroke="#9a32cd" stroke-dasharray="5,2" d="M264.901,-421.857C295.572,-431.236 333.946,-445.805 364,-466.422 373.862,-473.186 372.872,-478.696 382,-486.422 392.972,-495.707 406.594,-504.394 417.536,-510.79"/>
<polygon fill="#9a32cd" stroke="#9a32cd" points="265.816,-418.477 255.233,-418.992 263.827,-425.189 265.816,-418.477"/>
<text text-anchor="middle" x="324" y="-470.422" font-family="Helvetica,sans-Serif" font-size="10.00">edges</text>
</g>
<!-- Node20 -->
<g id="node41" class="node"><title>Node20</title>
<a xlink:href="classKnotGraph.html" target="_top" xlink:title="KnotGraph">
<polygon fill="none" stroke="black" points="405.5,-246.922 405.5,-267.922 468.5,-267.922 468.5,-246.922 405.5,-246.922"/>
<text text-anchor="middle" x="437" y="-254.922" font-family="Helvetica,sans-Serif" font-size="10.00">KnotGraph</text>
</a>
</g>
<!-- Node8&#45;&gt;Node20 -->
<g id="edge54" class="edge"><title>Node8&#45;&gt;Node20</title>
<path fill="none" stroke="#9a32cd" stroke-dasharray="5,2" d="M265.418,-399.42C303.163,-392.079 349.513,-380.765 364,-367.422 381.372,-351.42 369.781,-337.634 382,-317.422 393.697,-298.073 412.257,-279.473 424.532,-268.243"/>
<polygon fill="#9a32cd" stroke="#9a32cd" points="264.708,-395.992 255.534,-401.291 266.01,-402.87 264.708,-395.992"/>
<text text-anchor="middle" x="324" y="-412.422" font-family="Helvetica,sans-Serif" font-size="10.00">traversed_edges</text>
<text text-anchor="middle" x="324" y="-399.422" font-family="Helvetica,sans-Serif" font-size="10.00">edges</text>
</g>
<!-- Node9 -->
<g id="node16" class="node"><title>Node9</title>
<polygon fill="none" stroke="#bfbfbf" points="168,-44.9216 168,-65.9216 256,-65.9216 256,-44.9216 168,-44.9216"/>
<text text-anchor="middle" x="212" y="-52.9216" font-family="Helvetica,sans-Serif" font-size="10.00">QList&lt; Node * &gt;</text>
</g>
<!-- Node9&#45;&gt;Node1 -->
<g id="edge16" class="edge"><title>Node9&#45;&gt;Node1</title>
<path fill="none" stroke="#9a32cd" stroke-dasharray="5,2" d="M245.765,-41.093C314.452,-14.4236 472.362,33.9617 572,-37.4216 720.33,-143.689 760.501,-390.945 767.699,-445.6"/>
<polygon fill="#9a32cd" stroke="#9a32cd" points="244.298,-37.9096 236.296,-44.8534 246.882,-44.4153 244.298,-37.9096"/>
<text text-anchor="middle" x="541" y="-41.4216" font-family="Helvetica,sans-Serif" font-size="10.00">links</text>
</g>
<!-- Node9&#45;&gt;Node10 -->
<g id="edge60" class="edge"><title>Node9&#45;&gt;Node10</title>
<path fill="none" stroke="#9a32cd" stroke-dasharray="5,2" d="M266.386,-45.2103C298.822,-42.4369 338.517,-45.3824 364,-69.4216 402.909,-106.127 347.446,-147.59 382,-188.422 415.23,-227.689 444.151,-205.538 492,-224.422 536.885,-242.135 587.695,-266.94 615.355,-280.864"/>
<polygon fill="#9a32cd" stroke="#9a32cd" points="265.715,-41.7616 256.138,-46.2922 266.45,-48.7229 265.715,-41.7616"/>
<text text-anchor="middle" x="437" y="-228.422" font-family="Helvetica,sans-Serif" font-size="10.00">moved_nodes</text>
</g>
<!-- Node9&#45;&gt;Node20 -->
<g id="edge58" class="edge"><title>Node9&#45;&gt;Node20</title>
<path fill="none" stroke="#9a32cd" stroke-dasharray="5,2" d="M266.13,-64.4087C307.022,-71.7106 357.235,-81.9826 364,-89.4216 407.097,-136.813 344.019,-180.839 382,-232.422 387.722,-240.192 396.434,-245.606 405.249,-249.354"/>
<polygon fill="#9a32cd" stroke="#9a32cd" points="266.691,-60.9536 256.235,-62.6663 265.477,-67.8476 266.691,-60.9536"/>
<text text-anchor="middle" x="324" y="-93.4216" font-family="Helvetica,sans-Serif" font-size="10.00">nodes</text>
</g>
<!-- Node10&#45;&gt;Node1 -->
<g id="edge18" class="edge"><title>Node10&#45;&gt;Node1</title>
<path fill="none" stroke="#9a32cd" stroke-dasharray="5,2" d="M651.141,-310.206C679.171,-344.98 738.301,-418.337 760.414,-445.77"/>
<polygon fill="#9a32cd" stroke="#9a32cd" points="653.727,-307.837 644.727,-302.248 648.277,-312.23 653.727,-307.837"/>
<text text-anchor="middle" x="706" y="-388.422" font-family="Helvetica,sans-Serif" font-size="10.00">kv</text>
</g>
<!-- Node11 -->
<g id="node20" class="node"><title>Node11</title>
<a xlink:href="classQGraphicsView.html" target="_top" xlink:title="QGraphicsView">
<polygon fill="none" stroke="black" points="394.5,-37.9216 394.5,-58.9216 479.5,-58.9216 479.5,-37.9216 394.5,-37.9216"/>
<text text-anchor="middle" x="437" y="-45.9216" font-family="Helvetica,sans-Serif" font-size="10.00">QGraphicsView</text>
</a>
</g>
<!-- Node11&#45;&gt;Node10 -->
<g id="edge20" class="edge"><title>Node11&#45;&gt;Node10</title>
<path fill="none" stroke="midnightblue" d="M489.6,-50.0945C517.356,-53.652 550.102,-62.4834 572,-83.4216 601.766,-111.882 627.247,-242.704 634.156,-280.914"/>
<polygon fill="midnightblue" stroke="midnightblue" points="489.949,-46.6119 479.629,-49.0097 489.192,-53.5708 489.949,-46.6119"/>
</g>
<!-- Node12 -->
<g id="node23" class="node"><title>Node12</title>
<polygon fill="none" stroke="#bfbfbf" points="400.5,-455.922 400.5,-476.922 473.5,-476.922 473.5,-455.922 400.5,-455.922"/>
<text text-anchor="middle" x="437" y="-463.922" font-family="Helvetica,sans-Serif" font-size="10.00">QUndoStack</text>
</g>
<!-- Node12&#45;&gt;Node10 -->
<g id="edge24" class="edge"><title>Node12&#45;&gt;Node10</title>
<path fill="none" stroke="#9a32cd" stroke-dasharray="5,2" d="M483.857,-460.195C517.28,-454.928 558.586,-446.473 572,-435.422 615.285,-399.759 630.286,-328.872 634.546,-302.044"/>
<polygon fill="#9a32cd" stroke="#9a32cd" points="483.137,-456.764 473.777,-461.726 484.189,-463.684 483.137,-456.764"/>
<text text-anchor="middle" x="541" y="-460.422" font-family="Helvetica,sans-Serif" font-size="10.00">undo_stack</text>
</g>
<!-- Node13 -->
<g id="node25" class="node"><title>Node13</title>
<polygon fill="none" stroke="#bfbfbf" points="386,-415.922 386,-436.922 488,-436.922 488,-415.922 386,-415.922"/>
<text text-anchor="middle" x="437" y="-423.922" font-family="Helvetica,sans-Serif" font-size="10.00">mouse_status_type</text>
</g>
<!-- Node13&#45;&gt;Node10 -->
<g id="edge26" class="edge"><title>Node13&#45;&gt;Node10</title>
<path fill="none" stroke="#9a32cd" stroke-dasharray="5,2" d="M498.098,-424.323C522.892,-420.919 550.654,-413.6 572,-398.422 606.575,-373.835 625.723,-324.175 632.799,-302.248"/>
<polygon fill="#9a32cd" stroke="#9a32cd" points="497.56,-420.862 488.043,-425.518 498.386,-427.814 497.56,-420.862"/>
<text text-anchor="middle" x="541" y="-426.422" font-family="Helvetica,sans-Serif" font-size="10.00">mouse_status</text>
</g>
<!-- Node14 -->
<g id="node27" class="node"><title>Node14</title>
<polygon fill="none" stroke="#bfbfbf" points="185.5,-499.922 185.5,-520.922 238.5,-520.922 238.5,-499.922 185.5,-499.922"/>
<text text-anchor="middle" x="212" y="-507.922" font-family="Helvetica,sans-Serif" font-size="10.00">QPointF</text>
</g>
<!-- Node14&#45;&gt;Node10 -->
<g id="edge28" class="edge"><title>Node14&#45;&gt;Node10</title>
<path fill="none" stroke="#9a32cd" stroke-dasharray="5,2" d="M247.945,-524.061C281.979,-534.398 332.44,-542.667 364,-515.422 405.488,-479.606 346.052,-434.796 382,-393.422 396.435,-376.808 552.229,-347.092 572,-337.422 591.421,-327.922 611.248,-312.626 623.582,-302.307"/>
<polygon fill="#9a32cd" stroke="#9a32cd" points="248.971,-520.714 238.38,-520.971 246.82,-527.376 248.971,-520.714"/>
<text text-anchor="middle" x="437" y="-397.422" font-family="Helvetica,sans-Serif" font-size="10.00">oldpos</text>
</g>
<!-- Node14&#45;&gt;Node15 -->
<g id="edge34" class="edge"><title>Node14&#45;&gt;Node15</title>
<path fill="none" stroke="#9a32cd" stroke-dasharray="5,2" d="M248.586,-505.185C290.977,-498.777 356.063,-487.754 364,-479.422 400.288,-441.328 350.227,-404.356 382,-362.422 386.687,-356.235 393.261,-351.536 400.238,-347.982"/>
<polygon fill="#9a32cd" stroke="#9a32cd" points="247.982,-501.736 238.607,-506.672 249.014,-508.66 247.982,-501.736"/>
<text text-anchor="middle" x="324" y="-502.422" font-family="Helvetica,sans-Serif" font-size="10.00">origin</text>
</g>
<!-- Node15&#45;&gt;Node10 -->
<g id="edge30" class="edge"><title>Node15&#45;&gt;Node10</title>
<path fill="none" stroke="#9a32cd" stroke-dasharray="5,2" d="M485.617,-326.184C523.361,-317.459 574.472,-305.644 606.327,-298.281"/>
<polygon fill="#9a32cd" stroke="#9a32cd" points="484.796,-322.781 475.842,-328.443 486.373,-329.601 484.796,-322.781"/>
<text text-anchor="middle" x="541" y="-324.422" font-family="Helvetica,sans-Serif" font-size="10.00">grid</text>
</g>
<!-- Node16 -->
<g id="node31" class="node"><title>Node16</title>
<polygon fill="none" stroke="#bfbfbf" points="189.5,-286.922 189.5,-307.922 234.5,-307.922 234.5,-286.922 189.5,-286.922"/>
<text text-anchor="middle" x="212" y="-294.922" font-family="Helvetica,sans-Serif" font-size="10.00">double</text>
</g>
<!-- Node16&#45;&gt;Node15 -->
<g id="edge32" class="edge"><title>Node16&#45;&gt;Node15</title>
<path fill="none" stroke="#9a32cd" stroke-dasharray="5,2" d="M244.771,-303.248C285.548,-310.497 355.075,-322.857 398.393,-330.558"/>
<polygon fill="#9a32cd" stroke="#9a32cd" points="245.271,-299.782 234.812,-301.477 244.045,-306.674 245.271,-299.782"/>
<text text-anchor="middle" x="324" y="-327.422" font-family="Helvetica,sans-Serif" font-size="10.00">size</text>
</g>
<!-- Node16&#45;&gt;Node20 -->
<g id="edge48" class="edge"><title>Node16&#45;&gt;Node20</title>
<path fill="none" stroke="#9a32cd" stroke-dasharray="5,2" d="M241.403,-282.588C254.172,-276.831 269.501,-270.817 284,-267.422 325.21,-257.771 374.25,-256.251 405.497,-256.484"/>
<polygon fill="#9a32cd" stroke="#9a32cd" points="239.77,-279.487 232.192,-286.892 242.734,-285.829 239.77,-279.487"/>
<text text-anchor="middle" x="324" y="-297.422" font-family="Helvetica,sans-Serif" font-size="10.00">cusp_angle</text>
<text text-anchor="middle" x="324" y="-284.422" font-family="Helvetica,sans-Serif" font-size="10.00">crossing_distance</text>
<text text-anchor="middle" x="324" y="-271.422" font-family="Helvetica,sans-Serif" font-size="10.00">handle_length</text>
</g>
<!-- Node17 -->
<g id="node35" class="node"><title>Node17</title>
<polygon fill="none" stroke="#bfbfbf" points="180,-344.922 180,-365.922 244,-365.922 244,-344.922 180,-344.922"/>
<text text-anchor="middle" x="212" y="-352.922" font-family="Helvetica,sans-Serif" font-size="10.00">grid_shape</text>
</g>
<!-- Node17&#45;&gt;Node15 -->
<g id="edge38" class="edge"><title>Node17&#45;&gt;Node15</title>
<path fill="none" stroke="#9a32cd" stroke-dasharray="5,2" d="M254.287,-352.039C295.714,-348.724 358.304,-343.717 398.411,-340.509"/>
<polygon fill="#9a32cd" stroke="#9a32cd" points="253.926,-348.556 244.237,-352.843 254.484,-355.534 253.926,-348.556"/>
<text text-anchor="middle" x="324" y="-354.422" font-family="Helvetica,sans-Serif" font-size="10.00">shape</text>
</g>
<!-- Node18 -->
<g id="node37" class="node"><title>Node18</title>
<polygon fill="none" stroke="#bfbfbf" points="382,-157.922 382,-178.922 492,-178.922 492,-157.922 382,-157.922"/>
<text text-anchor="middle" x="437" y="-165.922" font-family="Helvetica,sans-Serif" font-size="10.00">QGraphicsRectItem *</text>
</g>
<!-- Node18&#45;&gt;Node10 -->
<g id="edge40" class="edge"><title>Node18&#45;&gt;Node10</title>
<path fill="none" stroke="#9a32cd" stroke-dasharray="5,2" d="M502.308,-166.976C525.867,-169.199 551.641,-175.056 572,-188.422 606.494,-211.068 625.685,-259.414 632.785,-280.832"/>
<polygon fill="#9a32cd" stroke="#9a32cd" points="502.251,-163.462 492.02,-166.215 501.734,-170.443 502.251,-163.462"/>
<text text-anchor="middle" x="541" y="-192.422" font-family="Helvetica,sans-Serif" font-size="10.00">rubberband</text>
</g>
<!-- Node19 -->
<g id="node39" class="node"><title>Node19</title>
<polygon fill="none" stroke="#bfbfbf" points="383.5,-117.922 383.5,-138.922 490.5,-138.922 490.5,-117.922 383.5,-117.922"/>
<text text-anchor="middle" x="437" y="-125.922" font-family="Helvetica,sans-Serif" font-size="10.00">QGraphicsLineItem *</text>
</g>
<!-- Node19&#45;&gt;Node10 -->
<g id="edge42" class="edge"><title>Node19&#45;&gt;Node10</title>
<path fill="none" stroke="#9a32cd" stroke-dasharray="5,2" d="M500.937,-127.016C525.283,-129.44 551.961,-136.017 572,-151.422 615.223,-184.649 630.2,-253.821 634.501,-280.552"/>
<polygon fill="#9a32cd" stroke="#9a32cd" points="500.913,-123.504 490.672,-126.218 500.37,-130.482 500.913,-123.504"/>
<text text-anchor="middle" x="541" y="-155.422" font-family="Helvetica,sans-Serif" font-size="10.00">guide</text>
</g>
<!-- Node20&#45;&gt;Node10 -->
<g id="edge44" class="edge"><title>Node20&#45;&gt;Node10</title>
<path fill="none" stroke="#9a32cd" stroke-dasharray="5,2" d="M478.779,-264.523C505.45,-269.061 540.761,-275.076 572,-280.422 583.224,-282.342 595.553,-284.46 606.369,-286.319"/>
<polygon fill="#9a32cd" stroke="#9a32cd" points="479.089,-261.026 468.644,-262.799 477.915,-267.927 479.089,-261.026"/>
<text text-anchor="middle" x="541" y="-284.422" font-family="Helvetica,sans-Serif" font-size="10.00">knot</text>
</g>
<!-- Node21 -->
<g id="node43" class="node"><title>Node21</title>
<a xlink:href="classQGraphicsPathItem.html" target="_top" xlink:title="QGraphicsPathItem">
<polygon fill="none" stroke="black" points="160.5,-183.922 160.5,-204.922 263.5,-204.922 263.5,-183.922 160.5,-183.922"/>
<text text-anchor="middle" x="212" y="-191.922" font-family="Helvetica,sans-Serif" font-size="10.00">QGraphicsPathItem</text>
</a>
</g>
<!-- Node21&#45;&gt;Node20 -->
<g id="edge46" class="edge"><title>Node21&#45;&gt;Node20</title>
<path fill="none" stroke="midnightblue" d="M274.121,-192.767C302.811,-194.308 336.525,-199.521 364,-213.422 374.379,-218.673 372.53,-225.667 382,-232.422 389.942,-238.086 399.372,-242.934 408.161,-246.811"/>
<polygon fill="midnightblue" stroke="midnightblue" points="273.931,-189.257 263.8,-192.356 273.652,-196.251 273.931,-189.257"/>
</g>
<!-- Node22 -->
<g id="node46" class="node"><title>Node22</title>
<polygon fill="none" stroke="#bfbfbf" points="158.5,-143.922 158.5,-164.922 265.5,-164.922 265.5,-143.922 158.5,-143.922"/>
<text text-anchor="middle" x="212" y="-151.922" font-family="Helvetica,sans-Serif" font-size="10.00">QPainterPathStroker</text>
</g>
<!-- Node22&#45;&gt;Node20 -->
<g id="edge50" class="edge"><title>Node22&#45;&gt;Node20</title>
<path fill="none" stroke="#9a32cd" stroke-dasharray="5,2" d="M275.872,-149.528C305.742,-150.592 339.944,-157.063 364,-177.422 383.633,-194.037 364.844,-213.259 382,-232.422 388.227,-239.376 396.772,-244.517 405.27,-248.264"/>
<polygon fill="#9a32cd" stroke="#9a32cd" points="275.565,-146.023 265.511,-149.364 275.454,-153.022 275.565,-146.023"/>
<text text-anchor="middle" x="324" y="-181.422" font-family="Helvetica,sans-Serif" font-size="10.00">stroker</text>
</g>
<!-- Node23 -->
<g id="node48" class="node"><title>Node23</title>
<polygon fill="none" stroke="#bfbfbf" points="174.5,-103.922 174.5,-124.922 249.5,-124.922 249.5,-103.922 174.5,-103.922"/>
<text text-anchor="middle" x="212" y="-111.922" font-family="Helvetica,sans-Serif" font-size="10.00">QPainterPath</text>
</g>
<!-- Node23&#45;&gt;Node20 -->
<g id="edge52" class="edge"><title>Node23&#45;&gt;Node20</title>
<path fill="none" stroke="#9a32cd" stroke-dasharray="5,2" d="M259.704,-106.898C293.185,-104.489 336.687,-107.584 364,-133.422 396.488,-164.155 354.51,-197.147 382,-232.422 387.867,-239.95 396.513,-245.285 405.22,-249.035"/>
<polygon fill="#9a32cd" stroke="#9a32cd" points="259.309,-103.419 249.664,-107.803 259.938,-110.391 259.309,-103.419"/>
<text text-anchor="middle" x="324" y="-137.422" font-family="Helvetica,sans-Serif" font-size="10.00">knot</text>
</g>
<!-- Node24 -->
<g id="node51" class="node"><title>Node24</title>
<polygon fill="none" stroke="#bfbfbf" points="194.5,-223.922 194.5,-244.922 229.5,-244.922 229.5,-223.922 194.5,-223.922"/>
<text text-anchor="middle" x="212" y="-231.922" font-family="Helvetica,sans-Serif" font-size="10.00">long</text>
</g>
<!-- Node24&#45;&gt;Node20 -->
<g id="edge56" class="edge"><title>Node24&#45;&gt;Node20</title>
<path fill="none" stroke="#9a32cd" stroke-dasharray="5,2" d="M239.664,-226.861C270.496,-219.666 321.594,-211.433 364,-222.422 372.859,-224.717 373.828,-228.303 382,-232.422 391.928,-237.426 403.064,-242.572 412.706,-246.885"/>
<polygon fill="#9a32cd" stroke="#9a32cd" points="238.522,-223.538 229.651,-229.33 240.198,-230.334 238.522,-223.538"/>
<text text-anchor="middle" x="324" y="-226.422" font-family="Helvetica,sans-Serif" font-size="10.00">curve_style</text>
</g>
<!-- Node25 -->
<g id="node55" class="node"><title>Node25</title>
<polygon fill="none" stroke="#bfbfbf" points="404.5,-77.9216 404.5,-98.9216 469.5,-98.9216 469.5,-77.9216 404.5,-77.9216"/>
<text text-anchor="middle" x="437" y="-85.9216" font-family="Helvetica,sans-Serif" font-size="10.00">mode_type</text>
</g>
<!-- Node25&#45;&gt;Node10 -->
<g id="edge62" class="edge"><title>Node25&#45;&gt;Node10</title>
<path fill="none" stroke="#9a32cd" stroke-dasharray="5,2" d="M480.007,-85.1184C509.11,-85.209 546.713,-90.1675 572,-111.422 599.293,-134.362 625.884,-245.731 633.701,-280.815"/>
<polygon fill="#9a32cd" stroke="#9a32cd" points="479.65,-81.6236 469.708,-85.2841 479.763,-88.6227 479.65,-81.6236"/>
<text text-anchor="middle" x="541" y="-115.422" font-family="Helvetica,sans-Serif" font-size="10.00">mode</text>
</g>
</g>
</svg>
