<?xml version="1.0" encoding="UTF-8" standalone="no"?>
<!DOCTYPE svg PUBLIC "-//W3C//DTD SVG 1.1//EN"
 "http://www.w3.org/Graphics/SVG/1.1/DTD/svg11.dtd">
<!-- Generated by graphviz version 2.26.3 (20100126.1600)
 -->
<!-- Title: G Pages: 1 -->
<svg width="272pt" height="174pt"
 viewBox="0.00 0.00 272.00 174.00" xmlns="http://www.w3.org/2000/svg" xmlns:xlink="http://www.w3.org/1999/xlink">
<g id="graph1" class="graph" transform="scale(1 1) rotate(0) translate(4 170)">
<title>G</title>
<!-- Node1 -->
<g id="node1" class="node"><title>Node1</title>
<polygon fill="#bfbfbf" stroke="black" points="126,-0.5 126,-21.5 166,-21.5 166,-0.5 126,-0.5"/>
<text text-anchor="middle" x="146" y="-8.5" font-family="Helvetica,sans-Serif" font-size="10.00">Node</text>
</g>
<!-- Node2 -->
<g id="node2" class="node"><title>Node2</title>
<a xlink:href="classCustomItem.html" target="_top" xlink:title="CustomItem">
<polygon fill="none" stroke="black" points="43.5,-72.5 43.5,-93.5 114.5,-93.5 114.5,-72.5 43.5,-72.5"/>
<text text-anchor="middle" x="79" y="-80.5" font-family="Helvetica,sans-Serif" font-size="10.00">CustomItem</text>
</a>
</g>
<!-- Node2&#45;&gt;Node1 -->
<g id="edge2" class="edge"><title>Node2&#45;&gt;Node1</title>
<path fill="none" stroke="midnightblue" d="M95.7801,-64.9677C108.471,-51.3294 125.468,-33.0644 136.073,-21.6674"/>
<polygon fill="midnightblue" stroke="midnightblue" points="93.1362,-62.6711 88.8861,-72.3762 98.2607,-67.4398 93.1362,-62.6711"/>
</g>
<!-- Node3 -->
<g id="node4" class="node"><title>Node3</title>
<a xlink:href="classQGraphicsItem.html" target="_top" xlink:title="QGraphicsItem">
<polygon fill="none" stroke="black" points="-0.5,-144.5 -0.5,-165.5 82.5,-165.5 82.5,-144.5 -0.5,-144.5"/>
<text text-anchor="middle" x="41" y="-152.5" font-family="Helvetica,sans-Serif" font-size="10.00">QGraphicsItem</text>
</a>
</g>
<!-- Node3&#45;&gt;Node2 -->
<g id="edge4" class="edge"><title>Node3&#45;&gt;Node2</title>
<path fill="none" stroke="midnightblue" d="M51.3342,-135.419C58.4307,-121.973 67.5798,-104.638 73.37,-93.6674"/>
<polygon fill="midnightblue" stroke="midnightblue" points="48.1793,-133.899 46.607,-144.376 54.37,-137.166 48.1793,-133.899"/>
</g>
<!-- Node4 -->
<g id="node6" class="node"><title>Node4</title>
<polygon fill="none" stroke="#bfbfbf" points="99.5,-144.5 99.5,-165.5 134.5,-165.5 134.5,-144.5 99.5,-144.5"/>
<text text-anchor="middle" x="117" y="-152.5" font-family="Helvetica,sans-Serif" font-size="10.00">bool</text>
</g>
<!-- Node4&#45;&gt;Node2 -->
<g id="edge6" class="edge"><title>Node4&#45;&gt;Node2</title>
<path fill="none" stroke="#9a32cd" stroke-dasharray="5,2" d="M106.666,-135.419C99.5693,-121.973 90.4202,-104.638 84.63,-93.6674"/>
<polygon fill="#9a32cd" stroke="#9a32cd" points="103.63,-137.166 111.393,-144.376 109.821,-133.899 103.63,-137.166"/>
<text text-anchor="middle" x="120.5" y="-116.5" font-family="Helvetica,sans-Serif" font-size="10.00">highlight</text>
</g>
<!-- Node5 -->
<g id="node8" class="node"><title>Node5</title>
<polygon fill="none" stroke="#bfbfbf" points="131.5,-72.5 131.5,-93.5 160.5,-93.5 160.5,-72.5 131.5,-72.5"/>
<text text-anchor="middle" x="146" y="-80.5" font-family="Helvetica,sans-Serif" font-size="10.00">int</text>
</g>
<!-- Node5&#45;&gt;Node1 -->
<g id="edge8" class="edge"><title>Node5&#45;&gt;Node1</title>
<path fill="none" stroke="#9a32cd" stroke-dasharray="5,2" d="M146,-62.2348C146,-48.969 146,-32.3188 146,-21.6674"/>
<polygon fill="#9a32cd" stroke="#9a32cd" points="142.5,-62.3761 146,-72.3762 149.5,-62.3762 142.5,-62.3761"/>
<text text-anchor="middle" x="159.5" y="-44.5" font-family="Helvetica,sans-Serif" font-size="10.00">radius</text>
</g>
<!-- Node6 -->
<g id="node10" class="node"><title>Node6</title>
<polygon fill="none" stroke="#bfbfbf" points="177.5,-72.5 177.5,-93.5 264.5,-93.5 264.5,-72.5 177.5,-72.5"/>
<text text-anchor="middle" x="221" y="-80.5" font-family="Helvetica,sans-Serif" font-size="10.00">QList&lt; Edge * &gt;</text>
</g>
<!-- Node6&#45;&gt;Node1 -->
<g id="edge10" class="edge"><title>Node6&#45;&gt;Node1</title>
<path fill="none" stroke="#9a32cd" stroke-dasharray="5,2" d="M202.89,-65.1277C194.979,-57.3658 185.569,-48.1934 177,-40 170.608,-33.8882 163.397,-27.1342 157.539,-21.6829"/>
<polygon fill="#9a32cd" stroke="#9a32cd" points="200.631,-67.8146 210.215,-72.3311 205.539,-62.8237 200.631,-67.8146"/>
<text text-anchor="middle" x="203.5" y="-44.5" font-family="Helvetica,sans-Serif" font-size="10.00">edges</text>
</g>
</g>
</svg>
