<?xml version="1.0" encoding="UTF-8" standalone="no"?>
<!DOCTYPE svg PUBLIC "-//W3C//DTD SVG 1.1//EN"
 "http://www.w3.org/Graphics/SVG/1.1/DTD/svg11.dtd">
<!-- Generated by graphviz version 2.26.3 (20100126.1600)
 -->
<!-- Title: G Pages: 1 -->
<svg width="1548pt" height="1249pt"
 viewBox="0.00 0.00 1548.00 1249.48" xmlns="http://www.w3.org/2000/svg" xmlns:xlink="http://www.w3.org/1999/xlink">
<g id="graph1" class="graph" transform="scale(1 1) rotate(0) translate(4 1245.48)">
<title>G</title>
<!-- Node1 -->
<g id="node1" class="node"><title>Node1</title>
<polygon fill="#bfbfbf" stroke="black" points="1462.5,-753.975 1462.5,-774.975 1539.5,-774.975 1539.5,-753.975 1462.5,-753.975"/>
<text text-anchor="middle" x="1501" y="-761.975" font-family="Helvetica,sans-Serif" font-size="10.00">Knot_Window</text>
</g>
<!-- Node2 -->
<g id="node2" class="node"><title>Node2</title>
<a xlink:href="classQMainWindow.html" target="_top" xlink:title="QMainWindow">
<polygon fill="none" stroke="black" points="1294,-850.975 1294,-871.975 1374,-871.975 1374,-850.975 1294,-850.975"/>
<text text-anchor="middle" x="1334" y="-858.975" font-family="Helvetica,sans-Serif" font-size="10.00">QMainWindow</text>
</a>
</g>
<!-- Node2&#45;&gt;Node1 -->
<g id="edge2" class="edge"><title>Node2&#45;&gt;Node1</title>
<path fill="none" stroke="midnightblue" d="M1384.23,-857.309C1404.02,-853.882 1426.22,-847.679 1444,-836.475 1468.55,-821.006 1487,-791.141 1495.62,-775.168"/>
<polygon fill="midnightblue" stroke="midnightblue" points="1383.49,-853.882 1374.14,-858.86 1384.55,-860.801 1383.49,-853.882"/>
</g>
<!-- Node3 -->
<g id="node4" class="node"><title>Node3</title>
<a xlink:href="classUi_1_1Knot__Window.html" target="_top" xlink:title="Ui::Knot_Window">
<polygon fill="none" stroke="black" points="1182.5,-833.975 1182.5,-854.975 1275.5,-854.975 1275.5,-833.975 1182.5,-833.975"/>
<text text-anchor="middle" x="1229" y="-841.975" font-family="Helvetica,sans-Serif" font-size="10.00">Ui::Knot_Window</text>
</a>
</g>
<!-- Node3&#45;&gt;Node1 -->
<g id="edge4" class="edge"><title>Node3&#45;&gt;Node1</title>
<path fill="none" stroke="#8b1a1a" d="M1285.56,-837.534C1329.79,-830.891 1392.25,-818.804 1444,-798.475 1459.23,-792.493 1475.1,-782.686 1486.22,-775.139"/>
<polygon fill="#8b1a1a" stroke="#8b1a1a" points="1284.96,-834.084 1275.57,-838.989 1285.97,-841.011 1284.96,-834.084"/>
</g>
<!-- Node4 -->
<g id="node6" class="node"><title>Node4</title>
<a xlink:href="classUi__Knot__Window.html" target="_top" xlink:title="Ui_Knot_Window">
<polygon fill="none" stroke="black" points="840,-855.975 840,-876.975 932,-876.975 932,-855.975 840,-855.975"/>
<text text-anchor="middle" x="886" y="-863.975" font-family="Helvetica,sans-Serif" font-size="10.00">Ui_Knot_Window</text>
</a>
</g>
<!-- Node4&#45;&gt;Node3 -->
<g id="edge6" class="edge"><title>Node4&#45;&gt;Node3</title>
<path fill="none" stroke="midnightblue" d="M942.632,-862.843C1009.67,-858.543 1120.05,-851.463 1182.38,-847.466"/>
<polygon fill="midnightblue" stroke="midnightblue" points="942.014,-859.375 932.259,-863.508 942.462,-866.361 942.014,-859.375"/>
</g>
<!-- Node5 -->
<g id="node8" class="node"><title>Node5</title>
<polygon fill="none" stroke="#bfbfbf" points="626.5,-1097.98 626.5,-1118.98 681.5,-1118.98 681.5,-1097.98 626.5,-1097.98"/>
<text text-anchor="middle" x="654" y="-1105.98" font-family="Helvetica,sans-Serif" font-size="10.00">QMenu *</text>
</g>
<!-- Node5&#45;&gt;Node4 -->
<g id="edge8" class="edge"><title>Node5&#45;&gt;Node4</title>
<path fill="none" stroke="#9a32cd" stroke-dasharray="5,2" d="M691.763,-1106.99C735.249,-1104.51 803.131,-1098.04 822,-1081.48 853.976,-1053.41 877.991,-916.627 884.341,-877.157"/>
<polygon fill="#9a32cd" stroke="#9a32cd" points="691.348,-1103.51 681.545,-1107.52 691.715,-1110.5 691.348,-1103.51"/>
<text text-anchor="middle" x="773" y="-1185.48" font-family="Helvetica,sans-Serif" font-size="10.00">menu_Zoom</text>
<text text-anchor="middle" x="773" y="-1172.48" font-family="Helvetica,sans-Serif" font-size="10.00">menuNo_des</text>
<text text-anchor="middle" x="773" y="-1159.48" font-family="Helvetica,sans-Serif" font-size="10.00">menu_Edit</text>
<text text-anchor="middle" x="773" y="-1146.48" font-family="Helvetica,sans-Serif" font-size="10.00">menu_View</text>
<text text-anchor="middle" x="773" y="-1133.48" font-family="Helvetica,sans-Serif" font-size="10.00">menu_File</text>
<text text-anchor="middle" x="773" y="-1120.48" font-family="Helvetica,sans-Serif" font-size="10.00">menu_Toolbars</text>
<text text-anchor="middle" x="773" y="-1107.48" font-family="Helvetica,sans-Serif" font-size="10.00">menu_Knot</text>
</g>
<!-- Node6 -->
<g id="node10" class="node"><title>Node6</title>
<polygon fill="none" stroke="#bfbfbf" points="617,-1057.98 617,-1078.98 691,-1078.98 691,-1057.98 617,-1057.98"/>
<text text-anchor="middle" x="654" y="-1065.98" font-family="Helvetica,sans-Serif" font-size="10.00">QStatusBar *</text>
</g>
<!-- Node6&#45;&gt;Node4 -->
<g id="edge10" class="edge"><title>Node6&#45;&gt;Node4</title>
<path fill="none" stroke="#9a32cd" stroke-dasharray="5,2" d="M701.203,-1067.07C744.308,-1064.86 803.974,-1059.16 822,-1044.48 849.366,-1022.17 875.907,-911.782 883.707,-876.994"/>
<polygon fill="#9a32cd" stroke="#9a32cd" points="701.012,-1063.58 691.186,-1067.54 701.338,-1070.57 701.012,-1063.58"/>
<text text-anchor="middle" x="773" y="-1068.48" font-family="Helvetica,sans-Serif" font-size="10.00">statusbar</text>
</g>
<!-- Node7 -->
<g id="node12" class="node"><title>Node7</title>
<polygon fill="none" stroke="#bfbfbf" points="623,-1017.98 623,-1038.98 685,-1038.98 685,-1017.98 623,-1017.98"/>
<text text-anchor="middle" x="654" y="-1025.98" font-family="Helvetica,sans-Serif" font-size="10.00">QWidget *</text>
</g>
<!-- Node7&#45;&gt;Node4 -->
<g id="edge12" class="edge"><title>Node7&#45;&gt;Node4</title>
<path fill="none" stroke="#9a32cd" stroke-dasharray="5,2" d="M695.254,-1028.67C738.379,-1028.08 802.452,-1024.72 822,-1010.48 867.55,-977.289 881.234,-904.269 884.842,-877.011"/>
<polygon fill="#9a32cd" stroke="#9a32cd" points="695.018,-1025.17 685.051,-1028.76 695.082,-1032.17 695.018,-1025.17"/>
<text text-anchor="middle" x="773" y="-1031.48" font-family="Helvetica,sans-Serif" font-size="10.00">centralWidget</text>
</g>
<!-- Node8 -->
<g id="node14" class="node"><title>Node8</title>
<polygon fill="none" stroke="#bfbfbf" points="615,-700.975 615,-721.975 693,-721.975 693,-700.975 615,-700.975"/>
<text text-anchor="middle" x="654" y="-708.975" font-family="Helvetica,sans-Serif" font-size="10.00">QGridLayout *</text>
</g>
<!-- Node8&#45;&gt;Node4 -->
<g id="edge14" class="edge"><title>Node8&#45;&gt;Node4</title>
<path fill="none" stroke="#9a32cd" stroke-dasharray="5,2" d="M685.071,-726.545C719.792,-743.984 777.032,-774.554 822,-807.475 842.485,-822.473 863.646,-843.195 875.774,-855.67"/>
<polygon fill="#9a32cd" stroke="#9a32cd" points="686.416,-723.305 675.904,-721.983 683.297,-729.572 686.416,-723.305"/>
<text text-anchor="middle" x="773" y="-811.475" font-family="Helvetica,sans-Serif" font-size="10.00">gridLayout</text>
</g>
<!-- Node41 -->
<g id="node83" class="node"><title>Node41</title>
<a xlink:href="classUi__StyleDialog.html" target="_top" xlink:title="Ui_StyleDialog">
<polygon fill="none" stroke="black" points="845,-319.975 845,-340.975 927,-340.975 927,-319.975 845,-319.975"/>
<text text-anchor="middle" x="886" y="-327.975" font-family="Helvetica,sans-Serif" font-size="10.00">Ui_StyleDialog</text>
</a>
</g>
<!-- Node8&#45;&gt;Node41 -->
<g id="edge90" class="edge"><title>Node8&#45;&gt;Node41</title>
<path fill="none" stroke="#9a32cd" stroke-dasharray="5,2" d="M703.451,-707.446C741.427,-701.659 792.254,-687.598 822,-653.475 864.355,-604.89 881.751,-391.278 885.295,-341.068"/>
<polygon fill="#9a32cd" stroke="#9a32cd" points="702.539,-704.038 693.109,-708.868 703.493,-710.973 702.539,-704.038"/>
<text text-anchor="middle" x="773" y="-720.475" font-family="Helvetica,sans-Serif" font-size="10.00">gridLayout</text>
<text text-anchor="middle" x="773" y="-707.475" font-family="Helvetica,sans-Serif" font-size="10.00">gridLayout_2</text>
</g>
<!-- Node9 -->
<g id="node16" class="node"><title>Node9</title>
<polygon fill="none" stroke="#bfbfbf" points="624.5,-855.975 624.5,-876.975 683.5,-876.975 683.5,-855.975 624.5,-855.975"/>
<text text-anchor="middle" x="654" y="-863.975" font-family="Helvetica,sans-Serif" font-size="10.00">QAction *</text>
</g>
<!-- Node9&#45;&gt;Node4 -->
<g id="edge16" class="edge"><title>Node9&#45;&gt;Node4</title>
<path fill="none" stroke="#9a32cd" stroke-dasharray="5,2" d="M693.912,-866.475C734.46,-866.475 797.202,-866.475 839.86,-866.475"/>
<polygon fill="#9a32cd" stroke="#9a32cd" points="693.855,-862.976 683.855,-866.475 693.855,-869.976 693.855,-862.976"/>
<text text-anchor="middle" x="773" y="-1000.48" font-family="Helvetica,sans-Serif" font-size="10.00">actionEdge_List</text>
<text text-anchor="middle" x="773" y="-987.475" font-family="Helvetica,sans-Serif" font-size="10.00">actionInsert_Edges</text>
<text text-anchor="middle" x="773" y="-974.475" font-family="Helvetica,sans-Serif" font-size="10.00">action_Export</text>
<text text-anchor="middle" x="773" y="-961.475" font-family="Helvetica,sans-Serif" font-size="10.00">action_Style</text>
<text text-anchor="middle" x="773" y="-948.475" font-family="Helvetica,sans-Serif" font-size="10.00">action_Reset_Zoom</text>
<text text-anchor="middle" x="773" y="-935.475" font-family="Helvetica,sans-Serif" font-size="10.00">action_Erase</text>
<text text-anchor="middle" x="773" y="-922.475" font-family="Helvetica,sans-Serif" font-size="10.00">actionEdit_Nodes</text>
<text text-anchor="middle" x="773" y="-909.475" font-family="Helvetica,sans-Serif" font-size="10.00">actionSave_As</text>
<text text-anchor="middle" x="773" y="-896.475" font-family="Helvetica,sans-Serif" font-size="10.00">actionShow_Knot_line</text>
<text text-anchor="middle" x="773" y="-883.475" font-family="Helvetica,sans-Serif" font-size="10.00">action_Undo</text>
<text text-anchor="middle" x="773" y="-870.475" font-family="Helvetica,sans-Serif" font-size="10.00">...</text>
</g>
<!-- Node10 -->
<g id="node18" class="node"><title>Node10</title>
<polygon fill="none" stroke="#bfbfbf" points="621.5,-814.975 621.5,-835.975 686.5,-835.975 686.5,-814.975 621.5,-814.975"/>
<text text-anchor="middle" x="654" y="-822.975" font-family="Helvetica,sans-Serif" font-size="10.00">QToolBar *</text>
</g>
<!-- Node10&#45;&gt;Node4 -->
<g id="edge18" class="edge"><title>Node10&#45;&gt;Node4</title>
<path fill="none" stroke="#9a32cd" stroke-dasharray="5,2" d="M696.935,-823.936C731.297,-823.736 780.442,-825.782 822,-836.475 838.4,-840.696 855.716,-849.084 868.196,-855.92"/>
<polygon fill="#9a32cd" stroke="#9a32cd" points="696.725,-820.438 686.77,-824.063 696.813,-827.437 696.725,-820.438"/>
<text text-anchor="middle" x="773" y="-853.475" font-family="Helvetica,sans-Serif" font-size="10.00">EditBar</text>
<text text-anchor="middle" x="773" y="-840.475" font-family="Helvetica,sans-Serif" font-size="10.00">MainToolBar</text>
</g>
<!-- Node11 -->
<g id="node20" class="node"><title>Node11</title>
<polygon fill="none" stroke="#bfbfbf" points="619,-1209.98 619,-1230.98 689,-1230.98 689,-1209.98 619,-1209.98"/>
<text text-anchor="middle" x="654" y="-1217.98" font-family="Helvetica,sans-Serif" font-size="10.00">QMenuBar *</text>
</g>
<!-- Node11&#45;&gt;Node4 -->
<g id="edge20" class="edge"><title>Node11&#45;&gt;Node4</title>
<path fill="none" stroke="#9a32cd" stroke-dasharray="5,2" d="M699.417,-1227.79C737.147,-1231.1 789.699,-1228.89 822,-1198.48 870.294,-1153.01 883.198,-929.072 885.559,-877.212"/>
<polygon fill="#9a32cd" stroke="#9a32cd" points="699.505,-1224.28 689.197,-1226.72 698.781,-1231.24 699.505,-1224.28"/>
<text text-anchor="middle" x="773" y="-1232.48" font-family="Helvetica,sans-Serif" font-size="10.00">menuBar</text>
</g>
<!-- Node12 -->
<g id="node22" class="node"><title>Node12</title>
<a xlink:href="classKnotView.html" target="_top" xlink:title="KnotView">
<polygon fill="none" stroke="black" points="624.5,-567.975 624.5,-588.975 683.5,-588.975 683.5,-567.975 624.5,-567.975"/>
<text text-anchor="middle" x="654" y="-575.975" font-family="Helvetica,sans-Serif" font-size="10.00">KnotView</text>
</a>
</g>
<!-- Node12&#45;&gt;Node4 -->
<g id="edge22" class="edge"><title>Node12&#45;&gt;Node4</title>
<path fill="none" stroke="#9a32cd" stroke-dasharray="5,2" d="M693.917,-582.855C732.044,-589.141 788.515,-604.286 822,-640.475 852.326,-673.251 877.603,-815.342 884.276,-855.731"/>
<polygon fill="#9a32cd" stroke="#9a32cd" points="694.095,-579.342 683.684,-581.307 693.048,-586.263 694.095,-579.342"/>
<text text-anchor="middle" x="773" y="-644.475" font-family="Helvetica,sans-Serif" font-size="10.00">canvas</text>
</g>
<!-- Node12&#45;&gt;Node41 -->
<g id="edge106" class="edge"><title>Node12&#45;&gt;Node41</title>
<path fill="none" stroke="#9a32cd" stroke-dasharray="5,2" d="M677.716,-561.452C712.147,-535.988 776.795,-485.298 822,-432.475 847.962,-402.139 870.81,-360.291 880.739,-340.996"/>
<polygon fill="#9a32cd" stroke="#9a32cd" points="675.243,-558.924 669.244,-567.657 679.38,-564.571 675.243,-558.924"/>
<text text-anchor="middle" x="773" y="-528.475" font-family="Helvetica,sans-Serif" font-size="10.00">preview</text>
</g>
<!-- Node13 -->
<g id="node24" class="node"><title>Node13</title>
<a xlink:href="classQGraphicsView.html" target="_top" xlink:title="QGraphicsView">
<polygon fill="none" stroke="black" points="400.5,-483.975 400.5,-504.975 485.5,-504.975 485.5,-483.975 400.5,-483.975"/>
<text text-anchor="middle" x="443" y="-491.975" font-family="Helvetica,sans-Serif" font-size="10.00">QGraphicsView</text>
</a>
</g>
<!-- Node13&#45;&gt;Node12 -->
<g id="edge24" class="edge"><title>Node13&#45;&gt;Node12</title>
<path fill="none" stroke="midnightblue" d="M485.337,-508.236C491.601,-510.307 497.974,-512.433 504,-514.475 539.677,-526.566 549.39,-527.603 584,-542.475 601.829,-550.137 621.416,-560.375 635.326,-567.974"/>
<polygon fill="midnightblue" stroke="midnightblue" points="486.24,-504.849 475.647,-505.047 484.052,-511.498 486.24,-504.849"/>
</g>
<!-- Node14 -->
<g id="node26" class="node"><title>Node14</title>
<a xlink:href="classNode.html" target="_top" xlink:title="Node">
<polygon fill="none" stroke="black" points="423,-684.975 423,-705.975 463,-705.975 463,-684.975 423,-684.975"/>
<text text-anchor="middle" x="443" y="-692.975" font-family="Helvetica,sans-Serif" font-size="10.00">Node</text>
</a>
</g>
<!-- Node14&#45;&gt;Node12 -->
<g id="edge26" class="edge"><title>Node14&#45;&gt;Node12</title>
<path fill="none" stroke="#9a32cd" stroke-dasharray="5,2" d="M473.338,-691.814C503.301,-687.108 549.517,-676.841 584,-655.475 612.258,-637.967 636.057,-605.849 647.209,-589.167"/>
<polygon fill="#9a32cd" stroke="#9a32cd" points="472.478,-688.403 463.087,-693.307 473.487,-695.33 472.478,-688.403"/>
<text text-anchor="middle" x="553" y="-684.475" font-family="Helvetica,sans-Serif" font-size="10.00">last_node</text>
</g>
<!-- Node15 -->
<g id="node28" class="node"><title>Node15</title>
<a xlink:href="classCustomItem.html" target="_top" xlink:title="CustomItem">
<polygon fill="none" stroke="black" points="176.5,-760.975 176.5,-781.975 247.5,-781.975 247.5,-760.975 176.5,-760.975"/>
<text text-anchor="middle" x="212" y="-768.975" font-family="Helvetica,sans-Serif" font-size="10.00">CustomItem</text>
</a>
</g>
<!-- Node15&#45;&gt;Node14 -->
<g id="edge28" class="edge"><title>Node15&#45;&gt;Node14</title>
<path fill="none" stroke="midnightblue" d="M258.003,-769.043C289.788,-765.563 331.947,-757.24 364,-737.475 374.753,-730.845 371.58,-722.619 382,-715.475 394.226,-707.094 410.213,-702.023 422.753,-699.085"/>
<polygon fill="midnightblue" stroke="midnightblue" points="257.266,-765.598 247.65,-770.047 257.942,-772.566 257.266,-765.598"/>
</g>
<!-- Node16 -->
<g id="node30" class="node"><title>Node16</title>
<a xlink:href="classQGraphicsItem.html" target="_top" xlink:title="QGraphicsItem">
<polygon fill="none" stroke="black" points="0.5,-780.975 0.5,-801.975 83.5,-801.975 83.5,-780.975 0.5,-780.975"/>
<text text-anchor="middle" x="42" y="-788.975" font-family="Helvetica,sans-Serif" font-size="10.00">QGraphicsItem</text>
</a>
</g>
<!-- Node16&#45;&gt;Node15 -->
<g id="edge30" class="edge"><title>Node16&#45;&gt;Node15</title>
<path fill="none" stroke="midnightblue" d="M93.5537,-785.41C120.304,-782.263 152.312,-778.498 176.307,-775.675"/>
<polygon fill="midnightblue" stroke="midnightblue" points="93.1092,-781.938 83.5867,-786.583 93.9272,-788.89 93.1092,-781.938"/>
</g>
<!-- Node17 -->
<g id="node32" class="node"><title>Node17</title>
<polygon fill="none" stroke="#bfbfbf" points="24.5,-740.975 24.5,-761.975 59.5,-761.975 59.5,-740.975 24.5,-740.975"/>
<text text-anchor="middle" x="42" y="-748.975" font-family="Helvetica,sans-Serif" font-size="10.00">bool</text>
</g>
<!-- Node17&#45;&gt;Node15 -->
<g id="edge32" class="edge"><title>Node17&#45;&gt;Node15</title>
<path fill="none" stroke="#9a32cd" stroke-dasharray="5,2" d="M69.8058,-754.747C98.8474,-758.163 144.505,-763.535 176.218,-767.266"/>
<polygon fill="#9a32cd" stroke="#9a32cd" points="69.8932,-751.233 59.5527,-753.54 69.0752,-758.185 69.8932,-751.233"/>
<text text-anchor="middle" x="121" y="-767.475" font-family="Helvetica,sans-Serif" font-size="10.00">highlight</text>
</g>
<!-- Node18 -->
<g id="node34" class="node"><title>Node18</title>
<polygon fill="none" stroke="#bfbfbf" points="197.5,-720.975 197.5,-741.975 226.5,-741.975 226.5,-720.975 197.5,-720.975"/>
<text text-anchor="middle" x="212" y="-728.975" font-family="Helvetica,sans-Serif" font-size="10.00">int</text>
</g>
<!-- Node18&#45;&gt;Node14 -->
<g id="edge34" class="edge"><title>Node18&#45;&gt;Node14</title>
<path fill="none" stroke="#9a32cd" stroke-dasharray="5,2" d="M236.823,-727.607C282.87,-720.431 380.667,-705.19 422.893,-698.609"/>
<polygon fill="#9a32cd" stroke="#9a32cd" points="236.143,-724.171 226.801,-729.169 237.221,-731.087 236.143,-724.171"/>
<text text-anchor="middle" x="324" y="-724.475" font-family="Helvetica,sans-Serif" font-size="10.00">radius</text>
</g>
<!-- Node19 -->
<g id="node36" class="node"><title>Node19</title>
<polygon fill="none" stroke="#bfbfbf" points="168.5,-657.975 168.5,-678.975 255.5,-678.975 255.5,-657.975 168.5,-657.975"/>
<text text-anchor="middle" x="212" y="-665.975" font-family="Helvetica,sans-Serif" font-size="10.00">QList&lt; Edge * &gt;</text>
</g>
<!-- Node19&#45;&gt;Node14 -->
<g id="edge36" class="edge"><title>Node19&#45;&gt;Node14</title>
<path fill="none" stroke="#9a32cd" stroke-dasharray="5,2" d="M265.76,-674.759C315.944,-680.625 388.153,-689.065 422.865,-693.122"/>
<polygon fill="#9a32cd" stroke="#9a32cd" points="266.06,-671.27 255.721,-673.586 265.247,-678.223 266.06,-671.27"/>
<text text-anchor="middle" x="324" y="-690.475" font-family="Helvetica,sans-Serif" font-size="10.00">edges</text>
</g>
<!-- Node25 -->
<g id="node48" class="node"><title>Node25</title>
<a xlink:href="classKnotGraph.html" target="_top" xlink:title="KnotGraph">
<polygon fill="none" stroke="black" points="411.5,-563.975 411.5,-584.975 474.5,-584.975 474.5,-563.975 411.5,-563.975"/>
<text text-anchor="middle" x="443" y="-571.975" font-family="Helvetica,sans-Serif" font-size="10.00">KnotGraph</text>
</a>
</g>
<!-- Node19&#45;&gt;Node25 -->
<g id="edge58" class="edge"><title>Node19&#45;&gt;Node25</title>
<path fill="none" stroke="#9a32cd" stroke-dasharray="5,2" d="M257.864,-655.07C266.543,-652.541 275.549,-649.923 284,-647.475 319.536,-637.185 334.664,-647.017 364,-624.475 376.33,-615.002 369.847,-604.175 382,-594.475 390.449,-587.732 401.253,-583.227 411.415,-580.233"/>
<polygon fill="#9a32cd" stroke="#9a32cd" points="256.872,-651.713 248.251,-657.873 258.831,-658.434 256.872,-651.713"/>
<text text-anchor="middle" x="324" y="-664.475" font-family="Helvetica,sans-Serif" font-size="10.00">traversed_edges</text>
<text text-anchor="middle" x="324" y="-651.475" font-family="Helvetica,sans-Serif" font-size="10.00">edges</text>
</g>
<!-- Node20 -->
<g id="node38" class="node"><title>Node20</title>
<polygon fill="none" stroke="#bfbfbf" points="406.5,-443.975 406.5,-464.975 479.5,-464.975 479.5,-443.975 406.5,-443.975"/>
<text text-anchor="middle" x="443" y="-451.975" font-family="Helvetica,sans-Serif" font-size="10.00">QUndoStack</text>
</g>
<!-- Node20&#45;&gt;Node12 -->
<g id="edge38" class="edge"><title>Node20&#45;&gt;Node12</title>
<path fill="none" stroke="#9a32cd" stroke-dasharray="5,2" d="M489.544,-464.81C518.376,-472.654 555.254,-485.396 584,-504.475 610.816,-522.274 634.883,-552.167 646.557,-567.962"/>
<polygon fill="#9a32cd" stroke="#9a32cd" points="490.269,-461.382 479.709,-462.238 488.498,-468.154 490.269,-461.382"/>
<text text-anchor="middle" x="553" y="-508.475" font-family="Helvetica,sans-Serif" font-size="10.00">undo_stack</text>
</g>
<!-- Node21 -->
<g id="node40" class="node"><title>Node21</title>
<polygon fill="none" stroke="#bfbfbf" points="392,-724.975 392,-745.975 494,-745.975 494,-724.975 392,-724.975"/>
<text text-anchor="middle" x="443" y="-732.975" font-family="Helvetica,sans-Serif" font-size="10.00">mouse_status_type</text>
</g>
<!-- Node21&#45;&gt;Node12 -->
<g id="edge40" class="edge"><title>Node21&#45;&gt;Node12</title>
<path fill="none" stroke="#9a32cd" stroke-dasharray="5,2" d="M503.978,-723.341C535.956,-716.063 571.108,-706.33 584,-696.475 621.66,-667.691 643.069,-612.354 650.736,-589.139"/>
<polygon fill="#9a32cd" stroke="#9a32cd" points="503.186,-719.932 494.184,-725.519 504.706,-726.765 503.186,-719.932"/>
<text text-anchor="middle" x="553" y="-723.475" font-family="Helvetica,sans-Serif" font-size="10.00">mouse_status</text>
</g>
<!-- Node22 -->
<g id="node42" class="node"><title>Node22</title>
<polygon fill="none" stroke="#bfbfbf" points="416.5,-770.975 416.5,-791.975 469.5,-791.975 469.5,-770.975 416.5,-770.975"/>
<text text-anchor="middle" x="443" y="-778.975" font-family="Helvetica,sans-Serif" font-size="10.00">QPointF</text>
</g>
<!-- Node22&#45;&gt;Node12 -->
<g id="edge42" class="edge"><title>Node22&#45;&gt;Node12</title>
<path fill="none" stroke="#9a32cd" stroke-dasharray="5,2" d="M479.679,-777.001C510.878,-771.441 555.096,-759.175 584,-732.475 598.618,-718.972 593.84,-709.627 602,-691.475 619.001,-653.658 639.751,-609.004 649.063,-589.041"/>
<polygon fill="#9a32cd" stroke="#9a32cd" points="478.944,-773.575 469.639,-778.641 480.072,-780.483 478.944,-773.575"/>
<text text-anchor="middle" x="553" y="-770.475" font-family="Helvetica,sans-Serif" font-size="10.00">oldpos</text>
</g>
<!-- Node33 -->
<g id="node66" class="node"><title>Node33</title>
<a xlink:href="classClipboardItem.html" target="_top" xlink:title="ClipboardItem">
<polygon fill="none" stroke="black" points="615.5,-774.975 615.5,-795.975 692.5,-795.975 692.5,-774.975 615.5,-774.975"/>
<text text-anchor="middle" x="654" y="-782.975" font-family="Helvetica,sans-Serif" font-size="10.00">ClipboardItem</text>
</a>
</g>
<!-- Node22&#45;&gt;Node33 -->
<g id="edge70" class="edge"><title>Node22&#45;&gt;Node33</title>
<path fill="none" stroke="#9a32cd" stroke-dasharray="5,2" d="M479.84,-782.174C517.799,-782.893 576.723,-784.01 615.338,-784.743"/>
<polygon fill="#9a32cd" stroke="#9a32cd" points="479.788,-778.672 469.723,-781.982 479.655,-785.671 479.788,-778.672"/>
<text text-anchor="middle" x="553" y="-788.475" font-family="Helvetica,sans-Serif" font-size="10.00">center</text>
</g>
<!-- Node23 -->
<g id="node44" class="node"><title>Node23</title>
<polygon fill="none" stroke="#bfbfbf" points="388,-643.975 388,-664.975 498,-664.975 498,-643.975 388,-643.975"/>
<text text-anchor="middle" x="443" y="-651.975" font-family="Helvetica,sans-Serif" font-size="10.00">QGraphicsRectItem *</text>
</g>
<!-- Node23&#45;&gt;Node12 -->
<g id="edge44" class="edge"><title>Node23&#45;&gt;Node12</title>
<path fill="none" stroke="#9a32cd" stroke-dasharray="5,2" d="M508.162,-641.702C532.432,-635.947 559.918,-628.222 584,-618.475 603.592,-610.546 624.425,-598.055 638.22,-589.141"/>
<polygon fill="#9a32cd" stroke="#9a32cd" points="507.289,-638.311 498.331,-643.969 508.862,-645.132 507.289,-638.311"/>
<text text-anchor="middle" x="553" y="-642.475" font-family="Helvetica,sans-Serif" font-size="10.00">rubberband</text>
</g>
<!-- Node24 -->
<g id="node46" class="node"><title>Node24</title>
<polygon fill="none" stroke="#bfbfbf" points="389.5,-603.975 389.5,-624.975 496.5,-624.975 496.5,-603.975 389.5,-603.975"/>
<text text-anchor="middle" x="443" y="-611.975" font-family="Helvetica,sans-Serif" font-size="10.00">QGraphicsLineItem *</text>
</g>
<!-- Node24&#45;&gt;Node12 -->
<g id="edge46" class="edge"><title>Node24&#45;&gt;Node12</title>
<path fill="none" stroke="#9a32cd" stroke-dasharray="5,2" d="M506.749,-603.599C545.799,-596.936 593.949,-588.721 624.323,-583.539"/>
<polygon fill="#9a32cd" stroke="#9a32cd" points="505.786,-600.213 496.517,-605.345 506.963,-607.113 505.786,-600.213"/>
<text text-anchor="middle" x="553" y="-605.475" font-family="Helvetica,sans-Serif" font-size="10.00">guide</text>
</g>
<!-- Node25&#45;&gt;Node12 -->
<g id="edge48" class="edge"><title>Node25&#45;&gt;Node12</title>
<path fill="none" stroke="#9a32cd" stroke-dasharray="5,2" d="M484.891,-574.381C512.942,-574.414 550.691,-574.644 584,-575.475 597.255,-575.806 611.912,-576.399 624.375,-576.971"/>
<polygon fill="#9a32cd" stroke="#9a32cd" points="484.646,-570.881 474.645,-574.377 484.644,-577.881 484.646,-570.881"/>
<text text-anchor="middle" x="553" y="-579.475" font-family="Helvetica,sans-Serif" font-size="10.00">knot</text>
</g>
<!-- Node26 -->
<g id="node50" class="node"><title>Node26</title>
<a xlink:href="classQGraphicsPathItem.html" target="_top" xlink:title="QGraphicsPathItem">
<polygon fill="none" stroke="black" points="160.5,-457.975 160.5,-478.975 263.5,-478.975 263.5,-457.975 160.5,-457.975"/>
<text text-anchor="middle" x="212" y="-465.975" font-family="Helvetica,sans-Serif" font-size="10.00">QGraphicsPathItem</text>
</a>
</g>
<!-- Node26&#45;&gt;Node25 -->
<g id="edge50" class="edge"><title>Node26&#45;&gt;Node25</title>
<path fill="none" stroke="midnightblue" d="M273.681,-472.868C304.008,-477.924 339.26,-488.511 364,-510.475 379.8,-524.503 366.535,-540.079 382,-554.475 390.076,-561.994 401.028,-566.688 411.424,-569.618"/>
<polygon fill="midnightblue" stroke="midnightblue" points="274.016,-469.379 263.608,-471.357 272.978,-476.302 274.016,-469.379"/>
</g>
<!-- Node27 -->
<g id="node52" class="node"><title>Node27</title>
<polygon fill="none" stroke="#bfbfbf" points="189.5,-577.975 189.5,-598.975 234.5,-598.975 234.5,-577.975 189.5,-577.975"/>
<text text-anchor="middle" x="212" y="-585.975" font-family="Helvetica,sans-Serif" font-size="10.00">double</text>
</g>
<!-- Node27&#45;&gt;Node25 -->
<g id="edge52" class="edge"><title>Node27&#45;&gt;Node25</title>
<path fill="none" stroke="#9a32cd" stroke-dasharray="5,2" d="M244.785,-586.488C289.051,-583.806 367.416,-579.056 411.18,-576.404"/>
<polygon fill="#9a32cd" stroke="#9a32cd" points="244.34,-583.009 234.57,-587.108 244.763,-589.996 244.34,-583.009"/>
<text text-anchor="middle" x="324" y="-614.475" font-family="Helvetica,sans-Serif" font-size="10.00">cusp_angle</text>
<text text-anchor="middle" x="324" y="-601.475" font-family="Helvetica,sans-Serif" font-size="10.00">crossing_distance</text>
<text text-anchor="middle" x="324" y="-588.475" font-family="Helvetica,sans-Serif" font-size="10.00">handle_length</text>
</g>
<!-- Node28 -->
<g id="node54" class="node"><title>Node28</title>
<polygon fill="none" stroke="#bfbfbf" points="158.5,-537.975 158.5,-558.975 265.5,-558.975 265.5,-537.975 158.5,-537.975"/>
<text text-anchor="middle" x="212" y="-545.975" font-family="Helvetica,sans-Serif" font-size="10.00">QPainterPathStroker</text>
</g>
<!-- Node28&#45;&gt;Node25 -->
<g id="edge54" class="edge"><title>Node28&#45;&gt;Node25</title>
<path fill="none" stroke="#9a32cd" stroke-dasharray="5,2" d="M275.725,-553.504C302.958,-555.87 335.076,-558.95 364,-562.475 379.561,-564.372 396.777,-566.933 411.155,-569.201"/>
<polygon fill="#9a32cd" stroke="#9a32cd" points="275.806,-549.998 265.544,-552.632 275.209,-556.972 275.806,-549.998"/>
<text text-anchor="middle" x="324" y="-566.475" font-family="Helvetica,sans-Serif" font-size="10.00">stroker</text>
</g>
<!-- Node29 -->
<g id="node56" class="node"><title>Node29</title>
<polygon fill="none" stroke="#bfbfbf" points="174.5,-497.975 174.5,-518.975 249.5,-518.975 249.5,-497.975 174.5,-497.975"/>
<text text-anchor="middle" x="212" y="-505.975" font-family="Helvetica,sans-Serif" font-size="10.00">QPainterPath</text>
</g>
<!-- Node29&#45;&gt;Node25 -->
<g id="edge56" class="edge"><title>Node29&#45;&gt;Node25</title>
<path fill="none" stroke="#9a32cd" stroke-dasharray="5,2" d="M259.672,-510.676C290.806,-513.732 331.55,-520.883 364,-537.475 373.797,-542.485 372.544,-548.848 382,-554.475 391.003,-559.833 401.618,-563.953 411.449,-567.021"/>
<polygon fill="#9a32cd" stroke="#9a32cd" points="259.774,-507.171 249.508,-509.789 259.166,-514.145 259.774,-507.171"/>
<text text-anchor="middle" x="324" y="-541.475" font-family="Helvetica,sans-Serif" font-size="10.00">knot</text>
</g>
<!-- Node30 -->
<g id="node59" class="node"><title>Node30</title>
<polygon fill="none" stroke="#bfbfbf" points="194.5,-410.975 194.5,-431.975 229.5,-431.975 229.5,-410.975 194.5,-410.975"/>
<text text-anchor="middle" x="212" y="-418.975" font-family="Helvetica,sans-Serif" font-size="10.00">long</text>
</g>
<!-- Node30&#45;&gt;Node25 -->
<g id="edge60" class="edge"><title>Node30&#45;&gt;Node25</title>
<path fill="none" stroke="#9a32cd" stroke-dasharray="5,2" d="M239.746,-424.821C278.823,-430.109 347.19,-441.666 364,-459.475 393.497,-490.727 353.644,-522.185 382,-554.475 389.501,-563.017 400.709,-567.927 411.478,-570.744"/>
<polygon fill="#9a32cd" stroke="#9a32cd" points="239.937,-421.316 229.569,-423.496 239.033,-428.258 239.937,-421.316"/>
<text text-anchor="middle" x="324" y="-463.475" font-family="Helvetica,sans-Serif" font-size="10.00">curve_style</text>
</g>
<!-- Node38 -->
<g id="node77" class="node"><title>Node38</title>
<a xlink:href="classStyleDialog.html" target="_top" xlink:title="StyleDialog">
<polygon fill="none" stroke="black" points="1300.5,-404.975 1300.5,-425.975 1367.5,-425.975 1367.5,-404.975 1300.5,-404.975"/>
<text text-anchor="middle" x="1334" y="-412.975" font-family="Helvetica,sans-Serif" font-size="10.00">StyleDialog</text>
</a>
</g>
<!-- Node30&#45;&gt;Node38 -->
<g id="edge108" class="edge"><title>Node30&#45;&gt;Node38</title>
<path fill="none" stroke="#9a32cd" stroke-dasharray="5,2" d="M239.735,-420.29C283.096,-418.541 369.588,-415.475 443,-415.475 443,-415.475 443,-415.475 1067,-415.475 1150.9,-415.475 1249.63,-415.475 1300.28,-415.475"/>
<polygon fill="#9a32cd" stroke="#9a32cd" points="239.522,-416.796 229.674,-420.703 239.809,-423.79 239.522,-416.796"/>
<text text-anchor="middle" x="773" y="-419.475" font-family="Helvetica,sans-Serif" font-size="10.00">curstyle</text>
</g>
<!-- Node31 -->
<g id="node61" class="node"><title>Node31</title>
<polygon fill="none" stroke="#bfbfbf" points="168,-360.975 168,-381.975 256,-381.975 256,-360.975 168,-360.975"/>
<text text-anchor="middle" x="212" y="-368.975" font-family="Helvetica,sans-Serif" font-size="10.00">QList&lt; Node * &gt;</text>
</g>
<!-- Node31&#45;&gt;Node12 -->
<g id="edge64" class="edge"><title>Node31&#45;&gt;Node12</title>
<path fill="none" stroke="#9a32cd" stroke-dasharray="5,2" d="M266.236,-368.051C295.415,-367.245 331.901,-367.908 364,-373.475 428.81,-384.716 444.74,-392.929 504,-421.475 541.988,-439.775 553.945,-442.901 584,-472.475 614.338,-502.329 638.718,-547.417 648.88,-567.8"/>
<polygon fill="#9a32cd" stroke="#9a32cd" points="266.115,-364.553 256.24,-368.392 266.353,-371.549 266.115,-364.553"/>
<text text-anchor="middle" x="443" y="-425.475" font-family="Helvetica,sans-Serif" font-size="10.00">moved_nodes</text>
</g>
<!-- Node31&#45;&gt;Node25 -->
<g id="edge62" class="edge"><title>Node31&#45;&gt;Node25</title>
<path fill="none" stroke="#9a32cd" stroke-dasharray="5,2" d="M266.259,-373.268C299.465,-377.386 340.042,-388.394 364,-416.475 404.146,-463.53 342.541,-506.844 382,-554.475 389.252,-563.23 400.409,-568.183 411.208,-570.974"/>
<polygon fill="#9a32cd" stroke="#9a32cd" points="266.531,-369.777 256.217,-372.2 265.791,-376.738 266.531,-369.777"/>
<text text-anchor="middle" x="324" y="-420.475" font-family="Helvetica,sans-Serif" font-size="10.00">nodes</text>
</g>
<!-- Node32 -->
<g id="node64" class="node"><title>Node32</title>
<polygon fill="none" stroke="#bfbfbf" points="410.5,-523.975 410.5,-544.975 475.5,-544.975 475.5,-523.975 410.5,-523.975"/>
<text text-anchor="middle" x="443" y="-531.975" font-family="Helvetica,sans-Serif" font-size="10.00">mode_type</text>
</g>
<!-- Node32&#45;&gt;Node12 -->
<g id="edge66" class="edge"><title>Node32&#45;&gt;Node12</title>
<path fill="none" stroke="#9a32cd" stroke-dasharray="5,2" d="M485.58,-540.478C513.68,-544.744 551.22,-551.027 584,-558.475 597.311,-561.5 611.849,-565.532 624.21,-569.184"/>
<polygon fill="#9a32cd" stroke="#9a32cd" points="486.089,-537.015 475.681,-538.999 485.054,-543.938 486.089,-537.015"/>
<text text-anchor="middle" x="553" y="-562.475" font-family="Helvetica,sans-Serif" font-size="10.00">mode</text>
</g>
<!-- Node33&#45;&gt;Node1 -->
<g id="edge68" class="edge"><title>Node33&#45;&gt;Node1</title>
<path fill="none" stroke="#9a32cd" stroke-dasharray="5,2" d="M702.776,-785.143C749.723,-784.852 822.716,-784.475 886,-784.475 886,-784.475 886,-784.475 1334,-784.475 1378.24,-784.475 1428.6,-777.471 1462.35,-771.752"/>
<polygon fill="#9a32cd" stroke="#9a32cd" points="702.564,-781.644 692.587,-785.207 702.609,-788.644 702.564,-781.644"/>
<text text-anchor="middle" x="1067" y="-788.475" font-family="Helvetica,sans-Serif" font-size="10.00">clipboard</text>
</g>
<!-- Node34 -->
<g id="node69" class="node"><title>Node34</title>
<polygon fill="none" stroke="#bfbfbf" points="382,-815.975 382,-836.975 504,-836.975 504,-815.975 382,-815.975"/>
<text text-anchor="middle" x="443" y="-823.975" font-family="Helvetica,sans-Serif" font-size="10.00">QList&lt; ClipboardEdge &gt;</text>
</g>
<!-- Node34&#45;&gt;Node33 -->
<g id="edge72" class="edge"><title>Node34&#45;&gt;Node33</title>
<path fill="none" stroke="#9a32cd" stroke-dasharray="5,2" d="M514.289,-814.539C536.649,-810.606 561.392,-806.061 584,-801.475 594.14,-799.419 605.064,-797.014 615.196,-794.703"/>
<polygon fill="#9a32cd" stroke="#9a32cd" points="513.448,-811.132 504.199,-816.3 514.652,-818.028 513.448,-811.132"/>
<text text-anchor="middle" x="553" y="-817.475" font-family="Helvetica,sans-Serif" font-size="10.00">edges</text>
</g>
<!-- Node35 -->
<g id="node71" class="node"><title>Node35</title>
<polygon fill="none" stroke="#bfbfbf" points="382,-855.975 382,-876.975 504,-876.975 504,-855.975 382,-855.975"/>
<text text-anchor="middle" x="443" y="-863.975" font-family="Helvetica,sans-Serif" font-size="10.00">QList&lt; ClipboardNode &gt;</text>
</g>
<!-- Node35&#45;&gt;Node33 -->
<g id="edge74" class="edge"><title>Node35&#45;&gt;Node33</title>
<path fill="none" stroke="#9a32cd" stroke-dasharray="5,2" d="M514.137,-858.271C537.858,-853.043 563.451,-844.485 584,-830.475 595.313,-822.763 591.158,-813.837 602,-805.475 606.825,-801.754 612.425,-798.653 618.125,-796.092"/>
<polygon fill="#9a32cd" stroke="#9a32cd" points="513.206,-854.889 504.106,-860.314 514.603,-861.748 513.206,-854.889"/>
<text text-anchor="middle" x="553" y="-860.475" font-family="Helvetica,sans-Serif" font-size="10.00">nodes</text>
</g>
<!-- Node36 -->
<g id="node73" class="node"><title>Node36</title>
<polygon fill="none" stroke="#bfbfbf" points="1299.5,-734.975 1299.5,-755.975 1368.5,-755.975 1368.5,-734.975 1299.5,-734.975"/>
<text text-anchor="middle" x="1334" y="-742.975" font-family="Helvetica,sans-Serif" font-size="10.00">QUndoView</text>
</g>
<!-- Node36&#45;&gt;Node1 -->
<g id="edge76" class="edge"><title>Node36&#45;&gt;Node1</title>
<path fill="none" stroke="#9a32cd" stroke-dasharray="5,2" d="M1378.75,-750.219C1398.73,-752.372 1422.55,-754.988 1444,-757.475 1449.94,-758.164 1456.23,-758.915 1462.38,-759.66"/>
<polygon fill="#9a32cd" stroke="#9a32cd" points="1379.01,-746.726 1368.69,-749.139 1378.26,-753.686 1379.01,-746.726"/>
<text text-anchor="middle" x="1418" y="-761.475" font-family="Helvetica,sans-Serif" font-size="10.00">undoView</text>
</g>
<!-- Node37 -->
<g id="node75" class="node"><title>Node37</title>
<polygon fill="none" stroke="#bfbfbf" points="1309,-694.975 1309,-715.975 1359,-715.975 1359,-694.975 1309,-694.975"/>
<text text-anchor="middle" x="1334" y="-702.975" font-family="Helvetica,sans-Serif" font-size="10.00">QString</text>
</g>
<!-- Node37&#45;&gt;Node1 -->
<g id="edge78" class="edge"><title>Node37&#45;&gt;Node1</title>
<path fill="none" stroke="#9a32cd" stroke-dasharray="5,2" d="M1369.23,-713.139C1391.11,-718.373 1419.61,-726.059 1444,-735.475 1457.36,-740.634 1471.73,-747.957 1482.7,-753.954"/>
<polygon fill="#9a32cd" stroke="#9a32cd" points="1369.9,-709.703 1359.37,-710.839 1368.31,-716.52 1369.9,-709.703"/>
<text text-anchor="middle" x="1418" y="-739.475" font-family="Helvetica,sans-Serif" font-size="10.00">filename</text>
</g>
<!-- Node38&#45;&gt;Node1 -->
<g id="edge80" class="edge"><title>Node38&#45;&gt;Node1</title>
<path fill="none" stroke="#9a32cd" stroke-dasharray="5,2" d="M1343.59,-435.509C1374.73,-500.587 1472.39,-704.676 1495.88,-753.774"/>
<polygon fill="#9a32cd" stroke="#9a32cd" points="1346.65,-433.813 1339.18,-426.303 1340.34,-436.834 1346.65,-433.813"/>
<text text-anchor="middle" x="1418" y="-646.475" font-family="Helvetica,sans-Serif" font-size="10.00">style_dialog</text>
</g>
<!-- Node39 -->
<g id="node79" class="node"><title>Node39</title>
<a xlink:href="classQDialog.html" target="_top" xlink:title="QDialog">
<polygon fill="none" stroke="black" points="1041,-365.975 1041,-386.975 1093,-386.975 1093,-365.975 1041,-365.975"/>
<text text-anchor="middle" x="1067" y="-373.975" font-family="Helvetica,sans-Serif" font-size="10.00">QDialog</text>
</a>
</g>
<!-- Node39&#45;&gt;Node38 -->
<g id="edge82" class="edge"><title>Node39&#45;&gt;Node38</title>
<path fill="none" stroke="midnightblue" d="M1103.2,-379.501C1145.03,-383.297 1215.82,-390.652 1276,-401.475 1283.95,-402.906 1292.44,-404.764 1300.41,-406.657"/>
<polygon fill="midnightblue" stroke="midnightblue" points="1103.48,-376.012 1093.21,-378.612 1102.86,-382.985 1103.48,-376.012"/>
</g>
<!-- Node40 -->
<g id="node81" class="node"><title>Node40</title>
<a xlink:href="classUi_1_1StyleDialog.html" target="_top" xlink:title="Ui::StyleDialog">
<polygon fill="none" stroke="black" points="1025.5,-323.975 1025.5,-344.975 1108.5,-344.975 1108.5,-323.975 1025.5,-323.975"/>
<text text-anchor="middle" x="1067" y="-331.975" font-family="Helvetica,sans-Serif" font-size="10.00">Ui::StyleDialog</text>
</a>
</g>
<!-- Node40&#45;&gt;Node38 -->
<g id="edge84" class="edge"><title>Node40&#45;&gt;Node38</title>
<path fill="none" stroke="#8b1a1a" d="M1118.79,-342.891C1161.8,-350.814 1224.11,-364.475 1276,-384.475 1290.38,-390.019 1305.72,-398.337 1317.02,-404.961"/>
<polygon fill="#8b1a1a" stroke="#8b1a1a" points="1119.29,-339.426 1108.83,-341.096 1118.05,-346.315 1119.29,-339.426"/>
</g>
<!-- Node41&#45;&gt;Node40 -->
<g id="edge86" class="edge"><title>Node41&#45;&gt;Node40</title>
<path fill="none" stroke="midnightblue" d="M937.425,-331.612C965.298,-332.228 999.29,-332.979 1025.46,-333.558"/>
<polygon fill="midnightblue" stroke="midnightblue" points="937.147,-328.105 927.072,-331.383 936.992,-335.103 937.147,-328.105"/>
</g>
<!-- Node42 -->
<g id="node85" class="node"><title>Node42</title>
<polygon fill="none" stroke="#bfbfbf" points="605,-4.97546 605,-25.9755 703,-25.9755 703,-4.97546 605,-4.97546"/>
<text text-anchor="middle" x="654" y="-12.9755" font-family="Helvetica,sans-Serif" font-size="10.00">QDoubleSpinBox *</text>
</g>
<!-- Node42&#45;&gt;Node41 -->
<g id="edge88" class="edge"><title>Node42&#45;&gt;Node41</title>
<path fill="none" stroke="#9a32cd" stroke-dasharray="5,2" d="M705.086,-3.24339C741.87,2.34402 790.389,2.64366 822,-24.4755 868.342,-64.2325 882.662,-270.482 885.45,-319.85"/>
<polygon fill="#9a32cd" stroke="#9a32cd" points="704.323,0.177271 695.046,-4.94116 705.49,-6.72474 704.323,0.177271"/>
<text text-anchor="middle" x="773" y="-80.4755" font-family="Helvetica,sans-Serif" font-size="10.00">outline_width_spinner</text>
<text text-anchor="middle" x="773" y="-67.4755" font-family="Helvetica,sans-Serif" font-size="10.00">knot_width_spinner</text>
<text text-anchor="middle" x="773" y="-54.4755" font-family="Helvetica,sans-Serif" font-size="10.00">handle_length_spinner</text>
<text text-anchor="middle" x="773" y="-41.4755" font-family="Helvetica,sans-Serif" font-size="10.00">crossing_gap_spinner</text>
<text text-anchor="middle" x="773" y="-28.4755" font-family="Helvetica,sans-Serif" font-size="10.00">cusp_angle_spinner</text>
</g>
<!-- Node43 -->
<g id="node88" class="node"><title>Node43</title>
<polygon fill="none" stroke="#bfbfbf" points="614,-357.975 614,-378.975 694,-378.975 694,-357.975 614,-357.975"/>
<text text-anchor="middle" x="654" y="-365.975" font-family="Helvetica,sans-Serif" font-size="10.00">QComboBox *</text>
</g>
<!-- Node43&#45;&gt;Node41 -->
<g id="edge92" class="edge"><title>Node43&#45;&gt;Node41</title>
<path fill="none" stroke="#9a32cd" stroke-dasharray="5,2" d="M704.189,-362.286C737.66,-357.918 782.586,-351.592 822,-344.475 829.387,-343.142 837.219,-341.565 844.776,-339.96"/>
<polygon fill="#9a32cd" stroke="#9a32cd" points="703.657,-358.826 694.188,-363.578 704.554,-365.768 703.657,-358.826"/>
<text text-anchor="middle" x="773" y="-376.475" font-family="Helvetica,sans-Serif" font-size="10.00">point_combo</text>
<text text-anchor="middle" x="773" y="-363.475" font-family="Helvetica,sans-Serif" font-size="10.00">style_combo</text>
</g>
<!-- Node44 -->
<g id="node90" class="node"><title>Node44</title>
<polygon fill="none" stroke="#bfbfbf" points="617,-317.975 617,-338.975 691,-338.975 691,-317.975 617,-317.975"/>
<text text-anchor="middle" x="654" y="-325.975" font-family="Helvetica,sans-Serif" font-size="10.00">QGroupBox *</text>
</g>
<!-- Node44&#45;&gt;Node41 -->
<g id="edge94" class="edge"><title>Node44&#45;&gt;Node41</title>
<path fill="none" stroke="#9a32cd" stroke-dasharray="5,2" d="M701.041,-328.881C743.229,-329.245 804.52,-329.773 844.811,-330.12"/>
<polygon fill="#9a32cd" stroke="#9a32cd" points="701.047,-325.381 691.018,-328.795 700.987,-332.381 701.047,-325.381"/>
<text text-anchor="middle" x="773" y="-334.475" font-family="Helvetica,sans-Serif" font-size="10.00">groupBox</text>
</g>
<!-- Node45 -->
<g id="node92" class="node"><title>Node45</title>
<polygon fill="none" stroke="#bfbfbf" points="627,-131.975 627,-152.975 681,-152.975 681,-131.975 627,-131.975"/>
<text text-anchor="middle" x="654" y="-139.975" font-family="Helvetica,sans-Serif" font-size="10.00">QLabel *</text>
</g>
<!-- Node45&#45;&gt;Node41 -->
<g id="edge96" class="edge"><title>Node45&#45;&gt;Node41</title>
<path fill="none" stroke="#9a32cd" stroke-dasharray="5,2" d="M691.408,-136.895C728.478,-133.516 784.936,-134.436 822,-163.475 873.082,-203.497 883.414,-289.48 885.486,-319.702"/>
<polygon fill="#9a32cd" stroke="#9a32cd" points="690.608,-133.461 681.034,-137.999 691.349,-140.421 690.608,-133.461"/>
<text text-anchor="middle" x="773" y="-271.475" font-family="Helvetica,sans-Serif" font-size="10.00">label_2</text>
<text text-anchor="middle" x="773" y="-258.475" font-family="Helvetica,sans-Serif" font-size="10.00">label_3</text>
<text text-anchor="middle" x="773" y="-245.475" font-family="Helvetica,sans-Serif" font-size="10.00">label_4</text>
<text text-anchor="middle" x="773" y="-232.475" font-family="Helvetica,sans-Serif" font-size="10.00">label_5</text>
<text text-anchor="middle" x="773" y="-219.475" font-family="Helvetica,sans-Serif" font-size="10.00">label_6</text>
<text text-anchor="middle" x="773" y="-206.475" font-family="Helvetica,sans-Serif" font-size="10.00">label_7</text>
<text text-anchor="middle" x="773" y="-193.475" font-family="Helvetica,sans-Serif" font-size="10.00">label_8</text>
<text text-anchor="middle" x="773" y="-180.475" font-family="Helvetica,sans-Serif" font-size="10.00">label_9</text>
<text text-anchor="middle" x="773" y="-167.475" font-family="Helvetica,sans-Serif" font-size="10.00">label</text>
</g>
<!-- Node46 -->
<g id="node94" class="node"><title>Node46</title>
<polygon fill="none" stroke="#bfbfbf" points="602,-91.9755 602,-112.975 706,-112.975 706,-91.9755 602,-91.9755"/>
<text text-anchor="middle" x="654" y="-99.9755" font-family="Helvetica,sans-Serif" font-size="10.00">QDialogButtonBox *</text>
</g>
<!-- Node46&#45;&gt;Node41 -->
<g id="edge98" class="edge"><title>Node46&#45;&gt;Node41</title>
<path fill="none" stroke="#9a32cd" stroke-dasharray="5,2" d="M716.37,-93.0875C751.106,-91.3896 793.054,-95.6543 822,-119.475 854.292,-146.05 878.084,-280.972 884.361,-319.93"/>
<polygon fill="#9a32cd" stroke="#9a32cd" points="716.06,-89.6002 706.313,-93.7515 716.522,-96.585 716.06,-89.6002"/>
<text text-anchor="middle" x="773" y="-123.475" font-family="Helvetica,sans-Serif" font-size="10.00">buttonBox</text>
</g>
<!-- Node47 -->
<g id="node96" class="node"><title>Node47</title>
<a xlink:href="classColorWidget.html" target="_top" xlink:title="ColorWidget">
<polygon fill="none" stroke="black" points="618.5,-270.975 618.5,-291.975 689.5,-291.975 689.5,-270.975 618.5,-270.975"/>
<text text-anchor="middle" x="654" y="-278.975" font-family="Helvetica,sans-Serif" font-size="10.00">ColorWidget</text>
</a>
</g>
<!-- Node47&#45;&gt;Node41 -->
<g id="edge100" class="edge"><title>Node47&#45;&gt;Node41</title>
<path fill="none" stroke="#9a32cd" stroke-dasharray="5,2" d="M699.922,-282.159C734.156,-283.68 781.749,-287.949 822,-299.475 838.498,-304.2 855.948,-312.933 868.453,-319.929"/>
<polygon fill="#9a32cd" stroke="#9a32cd" points="699.875,-278.655 689.749,-281.77 699.608,-285.65 699.875,-278.655"/>
<text text-anchor="middle" x="773" y="-316.475" font-family="Helvetica,sans-Serif" font-size="10.00">outline_color</text>
<text text-anchor="middle" x="773" y="-303.475" font-family="Helvetica,sans-Serif" font-size="10.00">color</text>
</g>
<!-- Node48 -->
<g id="node98" class="node"><title>Node48</title>
<a xlink:href="classQLineEdit.html" target="_top" xlink:title="QLineEdit">
<polygon fill="none" stroke="black" points="413.5,-283.975 413.5,-304.975 472.5,-304.975 472.5,-283.975 413.5,-283.975"/>
<text text-anchor="middle" x="443" y="-291.975" font-family="Helvetica,sans-Serif" font-size="10.00">QLineEdit</text>
</a>
</g>
<!-- Node48&#45;&gt;Node47 -->
<g id="edge102" class="edge"><title>Node48&#45;&gt;Node47</title>
<path fill="none" stroke="midnightblue" d="M483.242,-291.996C522.29,-289.59 580.978,-285.974 618.377,-283.67"/>
<polygon fill="midnightblue" stroke="midnightblue" points="482.549,-288.532 472.784,-292.64 482.98,-295.519 482.549,-288.532"/>
</g>
<!-- Node49 -->
<g id="node100" class="node"><title>Node49</title>
<polygon fill="none" stroke="#bfbfbf" points="405.5,-243.975 405.5,-264.975 480.5,-264.975 480.5,-243.975 405.5,-243.975"/>
<text text-anchor="middle" x="443" y="-251.975" font-family="Helvetica,sans-Serif" font-size="10.00">QColorDialog</text>
</g>
<!-- Node49&#45;&gt;Node47 -->
<g id="edge104" class="edge"><title>Node49&#45;&gt;Node47</title>
<path fill="none" stroke="#9a32cd" stroke-dasharray="5,2" d="M490.865,-258.803C518.199,-261.465 553.081,-265.185 584,-269.475 595.236,-271.035 607.437,-273.023 618.457,-274.931"/>
<polygon fill="#9a32cd" stroke="#9a32cd" points="491.071,-255.306 480.783,-257.835 490.403,-262.274 491.071,-255.306"/>
<text text-anchor="middle" x="553" y="-273.475" font-family="Helvetica,sans-Serif" font-size="10.00">color_dialog</text>
</g>
<!-- Node50 -->
<g id="node104" class="node"><title>Node50</title>
<polygon fill="none" stroke="#bfbfbf" points="970,-443.975 970,-464.975 1164,-464.975 1164,-443.975 970,-443.975"/>
<text text-anchor="middle" x="1067" y="-451.975" font-family="Helvetica,sans-Serif" font-size="10.00">QMap&lt; knot_curve_styler::style_id, int &gt;</text>
</g>
<!-- Node50&#45;&gt;Node38 -->
<g id="edge110" class="edge"><title>Node50&#45;&gt;Node38</title>
<path fill="none" stroke="#9a32cd" stroke-dasharray="5,2" d="M1174.19,-444.109C1206.98,-440.279 1243.08,-435.396 1276,-429.475 1283.95,-428.045 1292.44,-426.187 1300.41,-424.294"/>
<polygon fill="#9a32cd" stroke="#9a32cd" points="1173.66,-440.647 1164.12,-445.264 1174.46,-447.601 1173.66,-440.647"/>
<text text-anchor="middle" x="1229" y="-447.475" font-family="Helvetica,sans-Serif" font-size="10.00">combo_style</text>
</g>
</g>
</svg>
