<?xml version="1.0" encoding="UTF-8" standalone="no"?>
<!DOCTYPE svg PUBLIC "-//W3C//DTD SVG 1.1//EN"
 "http://www.w3.org/Graphics/SVG/1.1/DTD/svg11.dtd">
<!-- Generated by graphviz version 2.26.3 (20100126.1600)
 -->
<!-- Title: G Pages: 1 -->
<svg width="806pt" height="522pt"
 viewBox="0.00 0.00 806.00 522.00" xmlns="http://www.w3.org/2000/svg" xmlns:xlink="http://www.w3.org/1999/xlink">
<g id="graph1" class="graph" transform="scale(1 1) rotate(0) translate(4 518)">
<title>G</title>
<!-- Node1 -->
<g id="node1" class="node"><title>Node1</title>
<polygon fill="#bfbfbf" stroke="black" points="742,-437.5 742,-458.5 798,-458.5 798,-437.5 742,-437.5"/>
<text text-anchor="middle" x="770" y="-445.5" font-family="Helvetica,sans-Serif" font-size="10.00">AddEdge</text>
</g>
<!-- Node2 -->
<g id="node2" class="node"><title>Node2</title>
<a xlink:href="classLastNodeCommand.html" target="_top" xlink:title="LastNodeCommand">
<polygon fill="none" stroke="black" points="590,-492.5 590,-513.5 694,-513.5 694,-492.5 590,-492.5"/>
<text text-anchor="middle" x="642" y="-500.5" font-family="Helvetica,sans-Serif" font-size="10.00">LastNodeCommand</text>
</a>
</g>
<!-- Node2&#45;&gt;Node1 -->
<g id="edge2" class="edge"><title>Node2&#45;&gt;Node1</title>
<path fill="none" stroke="midnightblue" d="M675.934,-488.419C697.78,-479.032 725.673,-467.047 745.396,-458.572"/>
<polygon fill="midnightblue" stroke="midnightblue" points="674.486,-485.232 666.68,-492.395 677.249,-491.663 674.486,-485.232"/>
</g>
<!-- Node3 -->
<g id="node4" class="node"><title>Node3</title>
<a xlink:href="classQUndoCommand.html" target="_top" xlink:title="QUndoCommand">
<polygon fill="none" stroke="black" points="391,-492.5 391,-513.5 483,-513.5 483,-492.5 391,-492.5"/>
<text text-anchor="middle" x="437" y="-500.5" font-family="Helvetica,sans-Serif" font-size="10.00">QUndoCommand</text>
</a>
</g>
<!-- Node3&#45;&gt;Node2 -->
<g id="edge4" class="edge"><title>Node3&#45;&gt;Node2</title>
<path fill="none" stroke="midnightblue" d="M493.342,-503C523.417,-503 560.194,-503 589.644,-503"/>
<polygon fill="midnightblue" stroke="midnightblue" points="493.006,-499.5 483.006,-503 493.006,-506.5 493.006,-499.5"/>
</g>
<!-- Node4 -->
<g id="node6" class="node"><title>Node4</title>
<a xlink:href="classNode.html" target="_top" xlink:title="Node">
<polygon fill="none" stroke="black" points="417,-430.5 417,-451.5 457,-451.5 457,-430.5 417,-430.5"/>
<text text-anchor="middle" x="437" y="-438.5" font-family="Helvetica,sans-Serif" font-size="10.00">Node</text>
</a>
</g>
<!-- Node4&#45;&gt;Node1 -->
<g id="edge6" class="edge"><title>Node4&#45;&gt;Node1</title>
<path fill="none" stroke="#9a32cd" stroke-dasharray="5,2" d="M467.312,-441.637C531.319,-442.983 679.476,-446.097 741.687,-447.405"/>
<polygon fill="#9a32cd" stroke="#9a32cd" points="467.152,-438.133 457.081,-441.422 467.005,-445.132 467.152,-438.133"/>
<text text-anchor="middle" x="642" y="-463" font-family="Helvetica,sans-Serif" font-size="10.00">n1</text>
<text text-anchor="middle" x="642" y="-450" font-family="Helvetica,sans-Serif" font-size="10.00">n2</text>
</g>
<!-- Node10 -->
<g id="node18" class="node"><title>Node10</title>
<a xlink:href="classKnotView.html" target="_top" xlink:title="KnotView">
<polygon fill="none" stroke="black" points="612.5,-270.5 612.5,-291.5 671.5,-291.5 671.5,-270.5 612.5,-270.5"/>
<text text-anchor="middle" x="642" y="-278.5" font-family="Helvetica,sans-Serif" font-size="10.00">KnotView</text>
</a>
</g>
<!-- Node4&#45;&gt;Node10 -->
<g id="edge22" class="edge"><title>Node4&#45;&gt;Node10</title>
<path fill="none" stroke="#9a32cd" stroke-dasharray="5,2" d="M467.206,-432.533C501.717,-422.434 555.548,-405.255 572,-392 606.773,-363.985 629.333,-313.802 637.997,-291.817"/>
<polygon fill="#9a32cd" stroke="#9a32cd" points="465.816,-429.291 457.179,-435.427 467.757,-436.016 465.816,-429.291"/>
<text text-anchor="middle" x="541" y="-424" font-family="Helvetica,sans-Serif" font-size="10.00">last_node</text>
</g>
<!-- Node5 -->
<g id="node8" class="node"><title>Node5</title>
<a xlink:href="classCustomItem.html" target="_top" xlink:title="CustomItem">
<polygon fill="none" stroke="black" points="176.5,-456.5 176.5,-477.5 247.5,-477.5 247.5,-456.5 176.5,-456.5"/>
<text text-anchor="middle" x="212" y="-464.5" font-family="Helvetica,sans-Serif" font-size="10.00">CustomItem</text>
</a>
</g>
<!-- Node5&#45;&gt;Node4 -->
<g id="edge8" class="edge"><title>Node5&#45;&gt;Node4</title>
<path fill="none" stroke="midnightblue" d="M257.627,-461.728C306.351,-456.097 381.346,-447.431 416.932,-443.319"/>
<polygon fill="midnightblue" stroke="midnightblue" points="257.184,-458.255 247.652,-462.88 257.988,-465.209 257.184,-458.255"/>
</g>
<!-- Node6 -->
<g id="node10" class="node"><title>Node6</title>
<a xlink:href="classQGraphicsItem.html" target="_top" xlink:title="QGraphicsItem">
<polygon fill="none" stroke="black" points="0.5,-476.5 0.5,-497.5 83.5,-497.5 83.5,-476.5 0.5,-476.5"/>
<text text-anchor="middle" x="42" y="-484.5" font-family="Helvetica,sans-Serif" font-size="10.00">QGraphicsItem</text>
</a>
</g>
<!-- Node6&#45;&gt;Node5 -->
<g id="edge10" class="edge"><title>Node6&#45;&gt;Node5</title>
<path fill="none" stroke="midnightblue" d="M93.5537,-480.935C120.304,-477.788 152.312,-474.022 176.307,-471.199"/>
<polygon fill="midnightblue" stroke="midnightblue" points="93.1092,-477.463 83.5867,-482.107 93.9272,-484.415 93.1092,-477.463"/>
</g>
<!-- Node7 -->
<g id="node12" class="node"><title>Node7</title>
<polygon fill="none" stroke="#bfbfbf" points="24.5,-436.5 24.5,-457.5 59.5,-457.5 59.5,-436.5 24.5,-436.5"/>
<text text-anchor="middle" x="42" y="-444.5" font-family="Helvetica,sans-Serif" font-size="10.00">bool</text>
</g>
<!-- Node7&#45;&gt;Node5 -->
<g id="edge12" class="edge"><title>Node7&#45;&gt;Node5</title>
<path fill="none" stroke="#9a32cd" stroke-dasharray="5,2" d="M69.7979,-450.026C89.4223,-452.185 116.331,-455.192 140,-458 151.884,-459.41 164.863,-461.012 176.488,-462.471"/>
<polygon fill="#9a32cd" stroke="#9a32cd" points="70.0336,-446.531 59.7117,-448.92 69.2707,-453.489 70.0336,-446.531"/>
<text text-anchor="middle" x="121" y="-462" font-family="Helvetica,sans-Serif" font-size="10.00">highlight</text>
</g>
<!-- Node8 -->
<g id="node14" class="node"><title>Node8</title>
<polygon fill="none" stroke="#bfbfbf" points="197.5,-416.5 197.5,-437.5 226.5,-437.5 226.5,-416.5 197.5,-416.5"/>
<text text-anchor="middle" x="212" y="-424.5" font-family="Helvetica,sans-Serif" font-size="10.00">int</text>
</g>
<!-- Node8&#45;&gt;Node4 -->
<g id="edge14" class="edge"><title>Node8&#45;&gt;Node4</title>
<path fill="none" stroke="#9a32cd" stroke-dasharray="5,2" d="M236.712,-427.762C266.806,-428.776 319.175,-430.821 364,-434 381.907,-435.27 402.233,-437.265 416.882,-438.8"/>
<polygon fill="#9a32cd" stroke="#9a32cd" points="236.796,-424.262 226.687,-427.434 236.568,-431.259 236.796,-424.262"/>
<text text-anchor="middle" x="324" y="-438" font-family="Helvetica,sans-Serif" font-size="10.00">radius</text>
</g>
<!-- Node9 -->
<g id="node16" class="node"><title>Node9</title>
<polygon fill="none" stroke="#bfbfbf" points="168.5,-343.5 168.5,-364.5 255.5,-364.5 255.5,-343.5 168.5,-343.5"/>
<text text-anchor="middle" x="212" y="-351.5" font-family="Helvetica,sans-Serif" font-size="10.00">QList&lt; Edge * &gt;</text>
</g>
<!-- Node9&#45;&gt;Node4 -->
<g id="edge16" class="edge"><title>Node9&#45;&gt;Node4</title>
<path fill="none" stroke="#9a32cd" stroke-dasharray="5,2" d="M249.972,-368.161C280.843,-379.811 325.441,-396.959 364,-413 372.083,-416.363 373.881,-417.724 382,-421 393.401,-425.6 406.312,-430.32 416.758,-434.018"/>
<polygon fill="#9a32cd" stroke="#9a32cd" points="251.049,-364.826 240.457,-364.579 248.583,-371.377 251.049,-364.826"/>
<text text-anchor="middle" x="324" y="-417" font-family="Helvetica,sans-Serif" font-size="10.00">edges</text>
</g>
<!-- Node17 -->
<g id="node33" class="node"><title>Node17</title>
<a xlink:href="classKnotGraph.html" target="_top" xlink:title="KnotGraph">
<polygon fill="none" stroke="black" points="405.5,-150.5 405.5,-171.5 468.5,-171.5 468.5,-150.5 405.5,-150.5"/>
<text text-anchor="middle" x="437" y="-158.5" font-family="Helvetica,sans-Serif" font-size="10.00">KnotGraph</text>
</a>
</g>
<!-- Node9&#45;&gt;Node17 -->
<g id="edge44" class="edge"><title>Node9&#45;&gt;Node17</title>
<path fill="none" stroke="#9a32cd" stroke-dasharray="5,2" d="M265.845,-351.781C299.081,-347.431 339.846,-336.166 364,-308 401.111,-264.725 346.091,-225.278 382,-181 387.888,-173.74 396.647,-169.115 405.454,-166.169"/>
<polygon fill="#9a32cd" stroke="#9a32cd" points="265.341,-348.315 255.799,-352.919 266.13,-355.271 265.341,-348.315"/>
<text text-anchor="middle" x="324" y="-366" font-family="Helvetica,sans-Serif" font-size="10.00">traversed_edges</text>
<text text-anchor="middle" x="324" y="-353" font-family="Helvetica,sans-Serif" font-size="10.00">edges</text>
</g>
<!-- Node10&#45;&gt;Node1 -->
<g id="edge18" class="edge"><title>Node10&#45;&gt;Node1</title>
<path fill="none" stroke="#9a32cd" stroke-dasharray="5,2" d="M656.34,-299.709C683.205,-334.759 740.33,-409.289 761.701,-437.172"/>
<polygon fill="#9a32cd" stroke="#9a32cd" points="659.063,-297.508 650.202,-291.701 653.507,-301.767 659.063,-297.508"/>
<text text-anchor="middle" x="718" y="-389" font-family="Helvetica,sans-Serif" font-size="10.00">kv</text>
</g>
<!-- Node11 -->
<g id="node20" class="node"><title>Node11</title>
<a xlink:href="classQGraphicsView.html" target="_top" xlink:title="QGraphicsView">
<polygon fill="none" stroke="black" points="394.5,-390.5 394.5,-411.5 479.5,-411.5 479.5,-390.5 394.5,-390.5"/>
<text text-anchor="middle" x="437" y="-398.5" font-family="Helvetica,sans-Serif" font-size="10.00">QGraphicsView</text>
</a>
</g>
<!-- Node11&#45;&gt;Node10 -->
<g id="edge20" class="edge"><title>Node11&#45;&gt;Node10</title>
<path fill="none" stroke="midnightblue" d="M489.719,-394.642C516.009,-389.63 547.365,-380.732 572,-365 602.078,-345.792 625.731,-309.494 636.174,-291.566"/>
<polygon fill="midnightblue" stroke="midnightblue" points="488.783,-391.253 479.545,-396.44 490.001,-398.147 488.783,-391.253"/>
</g>
<!-- Node12 -->
<g id="node23" class="node"><title>Node12</title>
<polygon fill="none" stroke="#bfbfbf" points="400.5,-350.5 400.5,-371.5 473.5,-371.5 473.5,-350.5 400.5,-350.5"/>
<text text-anchor="middle" x="437" y="-358.5" font-family="Helvetica,sans-Serif" font-size="10.00">QUndoStack</text>
</g>
<!-- Node12&#45;&gt;Node10 -->
<g id="edge24" class="edge"><title>Node12&#45;&gt;Node10</title>
<path fill="none" stroke="#9a32cd" stroke-dasharray="5,2" d="M483.453,-353.295C510.092,-347.905 543.747,-339.416 572,-327 593.301,-317.639 615.32,-302.011 628.838,-291.606"/>
<polygon fill="#9a32cd" stroke="#9a32cd" points="482.76,-349.865 473.613,-355.211 484.098,-356.736 482.76,-349.865"/>
<text text-anchor="middle" x="541" y="-352" font-family="Helvetica,sans-Serif" font-size="10.00">undo_stack</text>
</g>
<!-- Node13 -->
<g id="node25" class="node"><title>Node13</title>
<polygon fill="none" stroke="#bfbfbf" points="386,-310.5 386,-331.5 488,-331.5 488,-310.5 386,-310.5"/>
<text text-anchor="middle" x="437" y="-318.5" font-family="Helvetica,sans-Serif" font-size="10.00">mouse_status_type</text>
</g>
<!-- Node13&#45;&gt;Node10 -->
<g id="edge26" class="edge"><title>Node13&#45;&gt;Node10</title>
<path fill="none" stroke="#9a32cd" stroke-dasharray="5,2" d="M498.173,-311.502C521.363,-307.659 547.965,-302.96 572,-298 585.35,-295.245 600.022,-291.754 612.47,-288.654"/>
<polygon fill="#9a32cd" stroke="#9a32cd" points="497.423,-308.078 488.121,-313.15 498.555,-314.986 497.423,-308.078"/>
<text text-anchor="middle" x="541" y="-314" font-family="Helvetica,sans-Serif" font-size="10.00">mouse_status</text>
</g>
<!-- Node14 -->
<g id="node27" class="node"><title>Node14</title>
<polygon fill="none" stroke="#bfbfbf" points="410.5,-270.5 410.5,-291.5 463.5,-291.5 463.5,-270.5 410.5,-270.5"/>
<text text-anchor="middle" x="437" y="-278.5" font-family="Helvetica,sans-Serif" font-size="10.00">QPointF</text>
</g>
<!-- Node14&#45;&gt;Node10 -->
<g id="edge28" class="edge"><title>Node14&#45;&gt;Node10</title>
<path fill="none" stroke="#9a32cd" stroke-dasharray="5,2" d="M473.838,-281C513.423,-281 575.575,-281 612.202,-281"/>
<polygon fill="#9a32cd" stroke="#9a32cd" points="473.8,-277.5 463.8,-281 473.8,-284.5 473.8,-277.5"/>
<text text-anchor="middle" x="541" y="-285" font-family="Helvetica,sans-Serif" font-size="10.00">oldpos</text>
</g>
<!-- Node15 -->
<g id="node29" class="node"><title>Node15</title>
<polygon fill="none" stroke="#bfbfbf" points="382,-230.5 382,-251.5 492,-251.5 492,-230.5 382,-230.5"/>
<text text-anchor="middle" x="437" y="-238.5" font-family="Helvetica,sans-Serif" font-size="10.00">QGraphicsRectItem *</text>
</g>
<!-- Node15&#45;&gt;Node10 -->
<g id="edge30" class="edge"><title>Node15&#45;&gt;Node10</title>
<path fill="none" stroke="#9a32cd" stroke-dasharray="5,2" d="M502.021,-251.138C524.276,-254.857 549.284,-259.312 572,-264 585.35,-266.755 600.022,-270.246 612.47,-273.346"/>
<polygon fill="#9a32cd" stroke="#9a32cd" points="502.445,-247.661 492.008,-249.483 501.304,-254.567 502.445,-247.661"/>
<text text-anchor="middle" x="541" y="-268" font-family="Helvetica,sans-Serif" font-size="10.00">rubberband</text>
</g>
<!-- Node16 -->
<g id="node31" class="node"><title>Node16</title>
<polygon fill="none" stroke="#bfbfbf" points="383.5,-190.5 383.5,-211.5 490.5,-211.5 490.5,-190.5 383.5,-190.5"/>
<text text-anchor="middle" x="437" y="-198.5" font-family="Helvetica,sans-Serif" font-size="10.00">QGraphicsLineItem *</text>
</g>
<!-- Node16&#45;&gt;Node10 -->
<g id="edge32" class="edge"><title>Node16&#45;&gt;Node10</title>
<path fill="none" stroke="#9a32cd" stroke-dasharray="5,2" d="M500.573,-213.094C523.612,-218.608 549.49,-226.149 572,-236 593.044,-245.209 614.951,-260.338 628.53,-270.481"/>
<polygon fill="#9a32cd" stroke="#9a32cd" points="501.084,-209.62 490.552,-210.778 499.507,-216.44 501.084,-209.62"/>
<text text-anchor="middle" x="541" y="-240" font-family="Helvetica,sans-Serif" font-size="10.00">guide</text>
</g>
<!-- Node17&#45;&gt;Node10 -->
<g id="edge34" class="edge"><title>Node17&#45;&gt;Node10</title>
<path fill="none" stroke="#9a32cd" stroke-dasharray="5,2" d="M478.538,-166.229C506.655,-171.254 543.689,-180.882 572,-199 601.482,-217.867 625.244,-252.925 635.911,-270.452"/>
<polygon fill="#9a32cd" stroke="#9a32cd" points="479.054,-162.766 468.616,-164.578 477.906,-169.672 479.054,-162.766"/>
<text text-anchor="middle" x="541" y="-203" font-family="Helvetica,sans-Serif" font-size="10.00">knot</text>
</g>
<!-- Node18 -->
<g id="node35" class="node"><title>Node18</title>
<a xlink:href="classQGraphicsPathItem.html" target="_top" xlink:title="QGraphicsPathItem">
<polygon fill="none" stroke="black" points="160.5,-284.5 160.5,-305.5 263.5,-305.5 263.5,-284.5 160.5,-284.5"/>
<text text-anchor="middle" x="212" y="-292.5" font-family="Helvetica,sans-Serif" font-size="10.00">QGraphicsPathItem</text>
</a>
</g>
<!-- Node18&#45;&gt;Node17 -->
<g id="edge36" class="edge"><title>Node18&#45;&gt;Node17</title>
<path fill="none" stroke="midnightblue" d="M273.954,-305.482C304.689,-307.04 340.226,-302.808 364,-281 397.279,-250.474 352.906,-215.538 382,-181 387.957,-173.929 396.628,-169.357 405.332,-166.402"/>
<polygon fill="midnightblue" stroke="midnightblue" points="273.964,-301.974 263.739,-304.748 273.463,-308.956 273.964,-301.974"/>
</g>
<!-- Node19 -->
<g id="node37" class="node"><title>Node19</title>
<polygon fill="none" stroke="#bfbfbf" points="189.5,-232.5 189.5,-253.5 234.5,-253.5 234.5,-232.5 189.5,-232.5"/>
<text text-anchor="middle" x="212" y="-240.5" font-family="Helvetica,sans-Serif" font-size="10.00">double</text>
</g>
<!-- Node19&#45;&gt;Node17 -->
<g id="edge38" class="edge"><title>Node19&#45;&gt;Node17</title>
<path fill="none" stroke="#9a32cd" stroke-dasharray="5,2" d="M244.609,-243.458C277.591,-242.357 328.622,-236.2 364,-211 376.665,-201.979 370.004,-190.893 382,-181 388.741,-175.441 397.16,-171.36 405.369,-168.391"/>
<polygon fill="#9a32cd" stroke="#9a32cd" points="244.506,-239.96 234.577,-243.656 244.644,-246.958 244.506,-239.96"/>
<text text-anchor="middle" x="324" y="-270" font-family="Helvetica,sans-Serif" font-size="10.00">cusp_angle</text>
<text text-anchor="middle" x="324" y="-257" font-family="Helvetica,sans-Serif" font-size="10.00">crossing_distance</text>
<text text-anchor="middle" x="324" y="-244" font-family="Helvetica,sans-Serif" font-size="10.00">handle_length</text>
</g>
<!-- Node20 -->
<g id="node39" class="node"><title>Node20</title>
<polygon fill="none" stroke="#bfbfbf" points="158.5,-192.5 158.5,-213.5 265.5,-213.5 265.5,-192.5 158.5,-192.5"/>
<text text-anchor="middle" x="212" y="-200.5" font-family="Helvetica,sans-Serif" font-size="10.00">QPainterPathStroker</text>
</g>
<!-- Node20&#45;&gt;Node17 -->
<g id="edge40" class="edge"><title>Node20&#45;&gt;Node17</title>
<path fill="none" stroke="#9a32cd" stroke-dasharray="5,2" d="M275.898,-194.844C303.16,-190.974 335.253,-185.899 364,-180 377.598,-177.209 392.451,-173.472 405.188,-170.051"/>
<polygon fill="#9a32cd" stroke="#9a32cd" points="275.123,-191.418 265.704,-196.267 276.092,-198.351 275.123,-191.418"/>
<text text-anchor="middle" x="324" y="-198" font-family="Helvetica,sans-Serif" font-size="10.00">stroker</text>
</g>
<!-- Node21 -->
<g id="node41" class="node"><title>Node21</title>
<polygon fill="none" stroke="#bfbfbf" points="174.5,-152.5 174.5,-173.5 249.5,-173.5 249.5,-152.5 174.5,-152.5"/>
<text text-anchor="middle" x="212" y="-160.5" font-family="Helvetica,sans-Serif" font-size="10.00">QPainterPath</text>
</g>
<!-- Node21&#45;&gt;Node17 -->
<g id="edge42" class="edge"><title>Node21&#45;&gt;Node17</title>
<path fill="none" stroke="#9a32cd" stroke-dasharray="5,2" d="M259.812,-162.575C303.72,-162.185 367.539,-161.617 405.403,-161.281"/>
<polygon fill="#9a32cd" stroke="#9a32cd" points="259.628,-159.076 249.66,-162.665 259.691,-166.076 259.628,-159.076"/>
<text text-anchor="middle" x="324" y="-167" font-family="Helvetica,sans-Serif" font-size="10.00">knot</text>
</g>
<!-- Node22 -->
<g id="node44" class="node"><title>Node22</title>
<polygon fill="none" stroke="#bfbfbf" points="194.5,-112.5 194.5,-133.5 229.5,-133.5 229.5,-112.5 194.5,-112.5"/>
<text text-anchor="middle" x="212" y="-120.5" font-family="Helvetica,sans-Serif" font-size="10.00">long</text>
</g>
<!-- Node22&#45;&gt;Node17 -->
<g id="edge46" class="edge"><title>Node22&#45;&gt;Node17</title>
<path fill="none" stroke="#9a32cd" stroke-dasharray="5,2" d="M239.782,-126.41C270.331,-130.303 320.82,-137.154 364,-145 377.659,-147.482 392.653,-150.684 405.48,-153.571"/>
<polygon fill="#9a32cd" stroke="#9a32cd" points="240.211,-122.937 229.852,-125.16 239.337,-129.882 240.211,-122.937"/>
<text text-anchor="middle" x="324" y="-149" font-family="Helvetica,sans-Serif" font-size="10.00">curve_style</text>
</g>
<!-- Node23 -->
<g id="node46" class="node"><title>Node23</title>
<polygon fill="none" stroke="#bfbfbf" points="168,-59.5 168,-80.5 256,-80.5 256,-59.5 168,-59.5"/>
<text text-anchor="middle" x="212" y="-67.5" font-family="Helvetica,sans-Serif" font-size="10.00">QList&lt; Node * &gt;</text>
</g>
<!-- Node23&#45;&gt;Node10 -->
<g id="edge50" class="edge"><title>Node23&#45;&gt;Node10</title>
<path fill="none" stroke="#9a32cd" stroke-dasharray="5,2" d="M266.08,-70.2764C343.603,-73.5806 486.386,-90.9111 572,-170 604.633,-200.146 628.167,-248.77 637.529,-270.231"/>
<polygon fill="#9a32cd" stroke="#9a32cd" points="266.165,-66.7773 256.044,-69.9119 265.911,-73.7727 266.165,-66.7773"/>
<text text-anchor="middle" x="437" y="-121" font-family="Helvetica,sans-Serif" font-size="10.00">moved_nodes</text>
</g>
<!-- Node23&#45;&gt;Node17 -->
<g id="edge48" class="edge"><title>Node23&#45;&gt;Node17</title>
<path fill="none" stroke="#9a32cd" stroke-dasharray="5,2" d="M266.069,-82.7134C295.669,-90.5705 332.606,-101.862 364,-116 385.313,-125.598 407.94,-140.349 422.254,-150.322"/>
<polygon fill="#9a32cd" stroke="#9a32cd" points="266.89,-79.3104 256.331,-80.1813 265.128,-86.0852 266.89,-79.3104"/>
<text text-anchor="middle" x="324" y="-120" font-family="Helvetica,sans-Serif" font-size="10.00">nodes</text>
</g>
<!-- Node24 -->
<g id="node49" class="node"><title>Node24</title>
<polygon fill="none" stroke="#bfbfbf" points="404.5,-0.5 404.5,-21.5 469.5,-21.5 469.5,-0.5 404.5,-0.5"/>
<text text-anchor="middle" x="437" y="-8.5" font-family="Helvetica,sans-Serif" font-size="10.00">mode_type</text>
</g>
<!-- Node24&#45;&gt;Node10 -->
<g id="edge52" class="edge"><title>Node24&#45;&gt;Node10</title>
<path fill="none" stroke="#9a32cd" stroke-dasharray="5,2" d="M479.711,-6.08787C509.077,-5.14227 547.116,-9.06811 572,-31 609.448,-64.0059 634.498,-227.054 640.569,-270.401"/>
<polygon fill="#9a32cd" stroke="#9a32cd" points="479.528,-2.59258 469.722,-6.60397 479.889,-9.58325 479.528,-2.59258"/>
<text text-anchor="middle" x="541" y="-35" font-family="Helvetica,sans-Serif" font-size="10.00">mode</text>
</g>
</g>
</svg>
