<?xml version="1.0" encoding="UTF-8" standalone="no"?>
<!DOCTYPE svg PUBLIC "-//W3C//DTD SVG 1.1//EN"
 "http://www.w3.org/Graphics/SVG/1.1/DTD/svg11.dtd">
<!-- Generated by graphviz version 2.26.3 (20100126.1600)
 -->
<!-- Title: G Pages: 1 -->
<svg width="508pt" height="88pt"
 viewBox="0.00 0.00 508.00 88.00" xmlns="http://www.w3.org/2000/svg" xmlns:xlink="http://www.w3.org/1999/xlink">
<g id="graph1" class="graph" transform="scale(1 1) rotate(0) translate(4 84)">
<title>G</title>
<!-- Node1 -->
<g id="node1" class="node"><title>Node1</title>
<polygon fill="#bfbfbf" stroke="black" points="207.5,-58.5 207.5,-79.5 298.5,-79.5 298.5,-58.5 207.5,-58.5"/>
<text text-anchor="middle" x="253" y="-66.5" font-family="Helvetica,sans-Serif" font-size="10.00">knot_curve_style</text>
</g>
<!-- Node2 -->
<g id="node3" class="node"><title>Node2</title>
<a xlink:href="classknot__curve__advanced__poly.html" target="_top" xlink:title="knot_curve_advanced_poly">
<polygon fill="none" stroke="black" points="-0.5,-0.5 -0.5,-21.5 134.5,-21.5 134.5,-0.5 -0.5,-0.5"/>
<text text-anchor="middle" x="67" y="-8.5" font-family="Helvetica,sans-Serif" font-size="10.00">knot_curve_advanced_poly</text>
</a>
</g>
<!-- Node1&#45;&gt;Node2 -->
<g id="edge2" class="edge"><title>Node1&#45;&gt;Node2</title>
<path fill="none" stroke="midnightblue" d="M209.427,-55.4127C176.242,-45.0646 131.221,-31.0258 100.746,-21.5231"/>
<polygon fill="midnightblue" stroke="midnightblue" points="208.728,-58.861 219.317,-58.4966 210.812,-52.1783 208.728,-58.861"/>
</g>
<!-- Node3 -->
<g id="node5" class="node"><title>Node3</title>
<a xlink:href="classknot__curve__ogee.html" target="_top" xlink:title="knot_curve_ogee">
<polygon fill="none" stroke="black" points="151.5,-0.5 151.5,-21.5 242.5,-21.5 242.5,-0.5 151.5,-0.5"/>
<text text-anchor="middle" x="197" y="-8.5" font-family="Helvetica,sans-Serif" font-size="10.00">knot_curve_ogee</text>
</a>
</g>
<!-- Node1&#45;&gt;Node3 -->
<g id="edge4" class="edge"><title>Node1&#45;&gt;Node3</title>
<path fill="none" stroke="midnightblue" d="M235.735,-51.118C226.388,-41.4377 215.161,-29.8098 207.206,-21.5707"/>
<polygon fill="midnightblue" stroke="midnightblue" points="233.265,-53.599 242.729,-58.3619 238.301,-48.7368 233.265,-53.599"/>
</g>
<!-- Node4 -->
<g id="node7" class="node"><title>Node4</title>
<a xlink:href="classknot__curve__pointed.html" target="_top" xlink:title="knot_curve_pointed">
<polygon fill="none" stroke="black" points="259.5,-0.5 259.5,-21.5 360.5,-21.5 360.5,-0.5 259.5,-0.5"/>
<text text-anchor="middle" x="310" y="-8.5" font-family="Helvetica,sans-Serif" font-size="10.00">knot_curve_pointed</text>
</a>
</g>
<!-- Node1&#45;&gt;Node4 -->
<g id="edge6" class="edge"><title>Node1&#45;&gt;Node4</title>
<path fill="none" stroke="midnightblue" d="M270.574,-51.118C280.087,-41.4377 291.514,-29.8098 299.612,-21.5707"/>
<polygon fill="midnightblue" stroke="midnightblue" points="267.968,-48.7763 263.455,-58.3619 272.96,-53.6829 267.968,-48.7763"/>
</g>
<!-- Node5 -->
<g id="node9" class="node"><title>Node5</title>
<a xlink:href="classknot__curve__simple__poly.html" target="_top" xlink:title="knot_curve_simple_poly">
<polygon fill="none" stroke="black" points="378,-0.5 378,-21.5 500,-21.5 500,-0.5 378,-0.5"/>
<text text-anchor="middle" x="439" y="-8.5" font-family="Helvetica,sans-Serif" font-size="10.00">knot_curve_simple_poly</text>
</a>
</g>
<!-- Node1&#45;&gt;Node5 -->
<g id="edge8" class="edge"><title>Node1&#45;&gt;Node5</title>
<path fill="none" stroke="midnightblue" d="M296.573,-55.4127C329.758,-45.0646 374.779,-31.0258 405.254,-21.5231"/>
<polygon fill="midnightblue" stroke="midnightblue" points="295.188,-52.1783 286.683,-58.4966 297.272,-58.861 295.188,-52.1783"/>
</g>
</g>
</svg>
