<?xml version="1.0" encoding="UTF-8" standalone="no"?>
<!DOCTYPE svg PUBLIC "-//W3C//DTD SVG 1.1//EN"
 "http://www.w3.org/Graphics/SVG/1.1/DTD/svg11.dtd">
<!-- Generated by graphviz version 2.26.3 (20100126.1600)
 -->
<!-- Title: G Pages: 1 -->
<svg width="104pt" height="146pt"
 viewBox="0.00 0.00 104.00 146.00" xmlns="http://www.w3.org/2000/svg" xmlns:xlink="http://www.w3.org/1999/xlink">
<g id="graph1" class="graph" transform="scale(1 1) rotate(0) translate(4 142)">
<title>G</title>
<!-- Node1 -->
<g id="node1" class="node"><title>Node1</title>
<polygon fill="#bfbfbf" stroke="black" points="5.5,-116.5 5.5,-137.5 88.5,-137.5 88.5,-116.5 5.5,-116.5"/>
<text text-anchor="middle" x="47" y="-124.5" font-family="Helvetica,sans-Serif" font-size="10.00">QGraphicsItem</text>
</g>
<!-- Node2 -->
<g id="node3" class="node"><title>Node2</title>
<a xlink:href="classCustomItem.html" target="_top" xlink:title="CustomItem">
<polygon fill="none" stroke="black" points="11.5,-58.5 11.5,-79.5 82.5,-79.5 82.5,-58.5 11.5,-58.5"/>
<text text-anchor="middle" x="47" y="-66.5" font-family="Helvetica,sans-Serif" font-size="10.00">CustomItem</text>
</a>
</g>
<!-- Node1&#45;&gt;Node2 -->
<g id="edge2" class="edge"><title>Node1&#45;&gt;Node2</title>
<path fill="none" stroke="midnightblue" d="M47,-106.191C47,-97.1684 47,-86.9941 47,-79.5707"/>
<polygon fill="midnightblue" stroke="midnightblue" points="43.5001,-106.362 47,-116.362 50.5001,-106.362 43.5001,-106.362"/>
</g>
<!-- Node3 -->
<g id="node5" class="node"><title>Node3</title>
<a xlink:href="classEdge.html" target="_top" xlink:title="Edge">
<polygon fill="none" stroke="black" points="-0.5,-0.5 -0.5,-21.5 38.5,-21.5 38.5,-0.5 -0.5,-0.5"/>
<text text-anchor="middle" x="19" y="-8.5" font-family="Helvetica,sans-Serif" font-size="10.00">Edge</text>
</a>
</g>
<!-- Node2&#45;&gt;Node3 -->
<g id="edge4" class="edge"><title>Node2&#45;&gt;Node3</title>
<path fill="none" stroke="midnightblue" d="M37.383,-49.079C32.9238,-39.8422 27.8049,-29.2388 24.1031,-21.5707"/>
<polygon fill="midnightblue" stroke="midnightblue" points="34.3649,-50.878 41.8644,-58.3619 40.6688,-47.8347 34.3649,-50.878"/>
</g>
<!-- Node4 -->
<g id="node7" class="node"><title>Node4</title>
<a xlink:href="classNode.html" target="_top" xlink:title="Node">
<polygon fill="none" stroke="black" points="56,-0.5 56,-21.5 96,-21.5 96,-0.5 56,-0.5"/>
<text text-anchor="middle" x="76" y="-8.5" font-family="Helvetica,sans-Serif" font-size="10.00">Node</text>
</a>
</g>
<!-- Node2&#45;&gt;Node4 -->
<g id="edge6" class="edge"><title>Node2&#45;&gt;Node4</title>
<path fill="none" stroke="midnightblue" d="M56.8133,-49.3733C61.4659,-40.0682 66.8398,-29.3204 70.7147,-21.5707"/>
<polygon fill="midnightblue" stroke="midnightblue" points="53.6607,-47.8524 52.319,-58.3619 59.9217,-50.9829 53.6607,-47.8524"/>
</g>
</g>
</svg>
