<?xml version="1.0" encoding="UTF-8" standalone="no"?>
<!DOCTYPE svg PUBLIC "-//W3C//DTD SVG 1.1//EN"
 "http://www.w3.org/Graphics/SVG/1.1/DTD/svg11.dtd">
<!-- Generated by graphviz version 2.26.3 (20100126.1600)
 -->
<!-- Title: G Pages: 1 -->
<svg width="808pt" height="618pt"
 viewBox="0.00 0.00 808.00 617.92" xmlns="http://www.w3.org/2000/svg" xmlns:xlink="http://www.w3.org/1999/xlink">
<g id="graph1" class="graph" transform="scale(1 1) rotate(0) translate(4 613.915)">
<title>G</title>
<!-- Node1 -->
<g id="node1" class="node"><title>Node1</title>
<polygon fill="#bfbfbf" stroke="black" points="742.5,-470.415 742.5,-491.415 799.5,-491.415 799.5,-470.415 742.5,-470.415"/>
<text text-anchor="middle" x="771" y="-478.415" font-family="Helvetica,sans-Serif" font-size="10.00">AddNode</text>
</g>
<!-- Node2 -->
<g id="node2" class="node"><title>Node2</title>
<a xlink:href="classLastNodeCommand.html" target="_top" xlink:title="LastNodeCommand">
<polygon fill="none" stroke="black" points="590,-588.415 590,-609.415 694,-609.415 694,-588.415 590,-588.415"/>
<text text-anchor="middle" x="642" y="-596.415" font-family="Helvetica,sans-Serif" font-size="10.00">LastNodeCommand</text>
</a>
</g>
<!-- Node2&#45;&gt;Node1 -->
<g id="edge2" class="edge"><title>Node2&#45;&gt;Node1</title>
<path fill="none" stroke="midnightblue" d="M701.912,-584.544C709.878,-580.951 717.518,-576.479 724,-570.915 749.414,-549.102 762.994,-510.092 768.307,-491.427"/>
<polygon fill="midnightblue" stroke="midnightblue" points="700.416,-581.373 692.46,-588.369 703.043,-587.862 700.416,-581.373"/>
</g>
<!-- Node3 -->
<g id="node4" class="node"><title>Node3</title>
<a xlink:href="classQUndoCommand.html" target="_top" xlink:title="QUndoCommand">
<polygon fill="none" stroke="black" points="391,-588.415 391,-609.415 483,-609.415 483,-588.415 391,-588.415"/>
<text text-anchor="middle" x="437" y="-596.415" font-family="Helvetica,sans-Serif" font-size="10.00">QUndoCommand</text>
</a>
</g>
<!-- Node3&#45;&gt;Node2 -->
<g id="edge4" class="edge"><title>Node3&#45;&gt;Node2</title>
<path fill="none" stroke="midnightblue" d="M493.342,-598.915C523.417,-598.915 560.194,-598.915 589.644,-598.915"/>
<polygon fill="midnightblue" stroke="midnightblue" points="493.006,-595.415 483.006,-598.915 493.006,-602.415 493.006,-595.415"/>
</g>
<!-- Node4 -->
<g id="node6" class="node"><title>Node4</title>
<a xlink:href="classNode.html" target="_top" xlink:title="Node">
<polygon fill="none" stroke="black" points="417,-541.415 417,-562.415 457,-562.415 457,-541.415 417,-541.415"/>
<text text-anchor="middle" x="437" y="-549.415" font-family="Helvetica,sans-Serif" font-size="10.00">Node</text>
</a>
</g>
<!-- Node4&#45;&gt;Node1 -->
<g id="edge6" class="edge"><title>Node4&#45;&gt;Node1</title>
<path fill="none" stroke="#9a32cd" stroke-dasharray="5,2" d="M467.49,-551.921C495.02,-551.445 536.529,-549.528 572,-542.915 635.143,-531.145 706.393,-505.89 744.152,-491.509"/>
<polygon fill="#9a32cd" stroke="#9a32cd" points="467.27,-548.423 457.312,-552.042 467.353,-555.423 467.27,-548.423"/>
<text text-anchor="middle" x="642" y="-542.915" font-family="Helvetica,sans-Serif" font-size="10.00">node</text>
</g>
<!-- Node11 -->
<g id="node20" class="node"><title>Node11</title>
<a xlink:href="classKnotView.html" target="_top" xlink:title="KnotView">
<polygon fill="none" stroke="black" points="612.5,-271.415 612.5,-292.415 671.5,-292.415 671.5,-271.415 612.5,-271.415"/>
<text text-anchor="middle" x="642" y="-279.415" font-family="Helvetica,sans-Serif" font-size="10.00">KnotView</text>
</a>
</g>
<!-- Node4&#45;&gt;Node11 -->
<g id="edge24" class="edge"><title>Node4&#45;&gt;Node11</title>
<path fill="none" stroke="#9a32cd" stroke-dasharray="5,2" d="M466.731,-542.76C505.31,-530.771 568.18,-510.813 572,-506.915 603.355,-474.923 632.291,-333.007 640.001,-292.652"/>
<polygon fill="#9a32cd" stroke="#9a32cd" points="465.546,-539.463 457.03,-545.766 467.618,-546.15 465.546,-539.463"/>
<text text-anchor="middle" x="541" y="-532.915" font-family="Helvetica,sans-Serif" font-size="10.00">last_node</text>
</g>
<!-- Node5 -->
<g id="node8" class="node"><title>Node5</title>
<a xlink:href="classCustomItem.html" target="_top" xlink:title="CustomItem">
<polygon fill="none" stroke="black" points="176.5,-578.415 176.5,-599.415 247.5,-599.415 247.5,-578.415 176.5,-578.415"/>
<text text-anchor="middle" x="212" y="-586.415" font-family="Helvetica,sans-Serif" font-size="10.00">CustomItem</text>
</a>
</g>
<!-- Node5&#45;&gt;Node4 -->
<g id="edge8" class="edge"><title>Node5&#45;&gt;Node4</title>
<path fill="none" stroke="midnightblue" d="M257.958,-582.981C288.167,-578.904 328.523,-573.122 364,-566.915 381.97,-563.771 402.29,-559.54 416.92,-556.373"/>
<polygon fill="midnightblue" stroke="midnightblue" points="257.168,-579.555 247.72,-584.35 258.096,-586.494 257.168,-579.555"/>
</g>
<!-- Node6 -->
<g id="node10" class="node"><title>Node6</title>
<a xlink:href="classQGraphicsItem.html" target="_top" xlink:title="QGraphicsItem">
<polygon fill="none" stroke="black" points="0.5,-578.415 0.5,-599.415 83.5,-599.415 83.5,-578.415 0.5,-578.415"/>
<text text-anchor="middle" x="42" y="-586.415" font-family="Helvetica,sans-Serif" font-size="10.00">QGraphicsItem</text>
</a>
</g>
<!-- Node6&#45;&gt;Node5 -->
<g id="edge10" class="edge"><title>Node6&#45;&gt;Node5</title>
<path fill="none" stroke="midnightblue" d="M93.9076,-588.915C120.585,-588.915 152.417,-588.915 176.307,-588.915"/>
<polygon fill="midnightblue" stroke="midnightblue" points="93.5867,-585.415 83.5867,-588.915 93.5866,-592.415 93.5867,-585.415"/>
</g>
<!-- Node7 -->
<g id="node12" class="node"><title>Node7</title>
<polygon fill="none" stroke="#bfbfbf" points="24.5,-457.415 24.5,-478.415 59.5,-478.415 59.5,-457.415 24.5,-457.415"/>
<text text-anchor="middle" x="42" y="-465.415" font-family="Helvetica,sans-Serif" font-size="10.00">bool</text>
</g>
<!-- Node7&#45;&gt;Node5 -->
<g id="edge12" class="edge"><title>Node7&#45;&gt;Node5</title>
<path fill="none" stroke="#9a32cd" stroke-dasharray="5,2" d="M58.5543,-485.874C79.7642,-507.989 118.527,-545.492 158,-568.915 164.104,-572.538 170.976,-575.689 177.721,-578.352"/>
<polygon fill="#9a32cd" stroke="#9a32cd" points="60.9772,-483.342 51.5654,-478.477 55.8891,-488.149 60.9772,-483.342"/>
<text text-anchor="middle" x="121" y="-558.915" font-family="Helvetica,sans-Serif" font-size="10.00">highlight</text>
</g>
<!-- Node16 -->
<g id="node31" class="node"><title>Node16</title>
<a xlink:href="classsnapping__grid.html" target="_top" xlink:title="snapping_grid">
<polygon fill="none" stroke="black" points="398.5,-298.415 398.5,-319.415 475.5,-319.415 475.5,-298.415 398.5,-298.415"/>
<text text-anchor="middle" x="437" y="-306.415" font-family="Helvetica,sans-Serif" font-size="10.00">snapping_grid</text>
</a>
</g>
<!-- Node7&#45;&gt;Node16 -->
<g id="edge38" class="edge"><title>Node7&#45;&gt;Node16</title>
<path fill="none" stroke="#9a32cd" stroke-dasharray="5,2" d="M62.5624,-450.973C84.6725,-433.761 121.577,-407.85 158,-394.915 244.91,-364.052 289.966,-424.915 364,-369.915 379.975,-358.048 367.479,-342.523 382,-328.915 386.671,-324.538 392.373,-321.105 398.317,-318.415"/>
<polygon fill="#9a32cd" stroke="#9a32cd" points="60.229,-448.357 54.5752,-457.317 64.5826,-453.838 60.229,-448.357"/>
<text text-anchor="middle" x="212" y="-398.915" font-family="Helvetica,sans-Serif" font-size="10.00">enabled</text>
</g>
<!-- Node8 -->
<g id="node14" class="node"><title>Node8</title>
<polygon fill="none" stroke="#bfbfbf" points="197.5,-538.415 197.5,-559.415 226.5,-559.415 226.5,-538.415 197.5,-538.415"/>
<text text-anchor="middle" x="212" y="-546.415" font-family="Helvetica,sans-Serif" font-size="10.00">int</text>
</g>
<!-- Node8&#45;&gt;Node4 -->
<g id="edge14" class="edge"><title>Node8&#45;&gt;Node4</title>
<path fill="none" stroke="#9a32cd" stroke-dasharray="5,2" d="M236.812,-549.246C281.709,-549.845 375.591,-551.097 416.835,-551.647"/>
<polygon fill="#9a32cd" stroke="#9a32cd" points="236.809,-545.746 226.763,-549.112 236.715,-552.745 236.809,-545.746"/>
<text text-anchor="middle" x="324" y="-553.915" font-family="Helvetica,sans-Serif" font-size="10.00">radius</text>
</g>
<!-- Node9 -->
<g id="node16" class="node"><title>Node9</title>
<polygon fill="none" stroke="#bfbfbf" points="168.5,-328.415 168.5,-349.415 255.5,-349.415 255.5,-328.415 168.5,-328.415"/>
<text text-anchor="middle" x="212" y="-336.415" font-family="Helvetica,sans-Serif" font-size="10.00">QList&lt; Edge * &gt;</text>
</g>
<!-- Node9&#45;&gt;Node4 -->
<g id="edge16" class="edge"><title>Node9&#45;&gt;Node4</title>
<path fill="none" stroke="#9a32cd" stroke-dasharray="5,2" d="M256.539,-354.861C260.107,-357.456 263.35,-360.455 266,-363.915 294.786,-401.507 256.422,-430.429 284,-468.915 316.915,-514.85 383.382,-537.964 416.82,-547.088"/>
<polygon fill="#9a32cd" stroke="#9a32cd" points="258.109,-351.719 247.747,-349.51 254.469,-357.699 258.109,-351.719"/>
<text text-anchor="middle" x="324" y="-530.915" font-family="Helvetica,sans-Serif" font-size="10.00">edges</text>
</g>
<!-- Node21 -->
<g id="node43" class="node"><title>Node21</title>
<a xlink:href="classKnotGraph.html" target="_top" xlink:title="KnotGraph">
<polygon fill="none" stroke="black" points="405.5,-247.415 405.5,-268.415 468.5,-268.415 468.5,-247.415 405.5,-247.415"/>
<text text-anchor="middle" x="437" y="-255.415" font-family="Helvetica,sans-Serif" font-size="10.00">KnotGraph</text>
</a>
</g>
<!-- Node9&#45;&gt;Node21 -->
<g id="edge56" class="edge"><title>Node9&#45;&gt;Node21</title>
<path fill="none" stroke="#9a32cd" stroke-dasharray="5,2" d="M265.94,-340.575C296.761,-339.151 334.936,-333.175 364,-314.915 375.901,-307.439 371.614,-298.384 382,-288.915 391.072,-280.644 402.733,-273.677 412.982,-268.456"/>
<polygon fill="#9a32cd" stroke="#9a32cd" points="265.678,-337.081 255.793,-340.894 265.898,-344.078 265.678,-337.081"/>
<text text-anchor="middle" x="324" y="-356.915" font-family="Helvetica,sans-Serif" font-size="10.00">traversed_edges</text>
<text text-anchor="middle" x="324" y="-343.915" font-family="Helvetica,sans-Serif" font-size="10.00">edges</text>
</g>
<!-- Node10 -->
<g id="node18" class="node"><title>Node10</title>
<polygon fill="none" stroke="#bfbfbf" points="168,-34.4154 168,-55.4154 256,-55.4154 256,-34.4154 168,-34.4154"/>
<text text-anchor="middle" x="212" y="-42.4154" font-family="Helvetica,sans-Serif" font-size="10.00">QList&lt; Node * &gt;</text>
</g>
<!-- Node10&#45;&gt;Node1 -->
<g id="edge18" class="edge"><title>Node10&#45;&gt;Node1</title>
<path fill="none" stroke="#9a32cd" stroke-dasharray="5,2" d="M250.482,-30.9566C321.546,-7.85124 474.953,29.2308 572,-40.9154 726.919,-152.892 763.738,-414.424 769.939,-470.294"/>
<polygon fill="#9a32cd" stroke="#9a32cd" points="248.989,-27.7648 240.611,-34.2497 251.205,-34.405 248.989,-27.7648"/>
<text text-anchor="middle" x="541" y="-44.9154" font-family="Helvetica,sans-Serif" font-size="10.00">links</text>
</g>
<!-- Node10&#45;&gt;Node11 -->
<g id="edge62" class="edge"><title>Node10&#45;&gt;Node11</title>
<path fill="none" stroke="#9a32cd" stroke-dasharray="5,2" d="M266.392,-34.9871C345.906,-23.9382 492.984,-17.2417 572,-99.9154 621.12,-151.31 636.757,-240.855 640.79,-271.376"/>
<polygon fill="#9a32cd" stroke="#9a32cd" points="265.49,-31.5818 256.103,-36.494 266.505,-38.5079 265.49,-31.5818"/>
<text text-anchor="middle" x="437" y="-53.9154" font-family="Helvetica,sans-Serif" font-size="10.00">moved_nodes</text>
</g>
<!-- Node10&#45;&gt;Node21 -->
<g id="edge60" class="edge"><title>Node10&#45;&gt;Node21</title>
<path fill="none" stroke="#9a32cd" stroke-dasharray="5,2" d="M266.149,-53.5161C307.051,-60.5311 357.27,-70.4634 364,-77.9154 411.961,-131.024 337.729,-181.693 382,-237.915 387.783,-245.259 396.513,-249.908 405.324,-252.85"/>
<polygon fill="#9a32cd" stroke="#9a32cd" points="266.694,-50.0587 256.251,-51.8434 265.528,-56.9609 266.694,-50.0587"/>
<text text-anchor="middle" x="324" y="-81.9154" font-family="Helvetica,sans-Serif" font-size="10.00">nodes</text>
</g>
<!-- Node11&#45;&gt;Node1 -->
<g id="edge20" class="edge"><title>Node11&#45;&gt;Node1</title>
<path fill="none" stroke="#9a32cd" stroke-dasharray="5,2" d="M654.505,-301.206C681.238,-342.445 743.205,-438.038 764.03,-470.163"/>
<polygon fill="#9a32cd" stroke="#9a32cd" points="657.312,-299.102 648.936,-292.614 651.438,-302.91 657.312,-299.102"/>
<text text-anchor="middle" x="718" y="-409.915" font-family="Helvetica,sans-Serif" font-size="10.00">kv</text>
</g>
<!-- Node12 -->
<g id="node22" class="node"><title>Node12</title>
<a xlink:href="classQGraphicsView.html" target="_top" xlink:title="QGraphicsView">
<polygon fill="none" stroke="black" points="394.5,-378.415 394.5,-399.415 479.5,-399.415 479.5,-378.415 394.5,-378.415"/>
<text text-anchor="middle" x="437" y="-386.415" font-family="Helvetica,sans-Serif" font-size="10.00">QGraphicsView</text>
</a>
</g>
<!-- Node12&#45;&gt;Node11 -->
<g id="edge22" class="edge"><title>Node12&#45;&gt;Node11</title>
<path fill="none" stroke="midnightblue" d="M489.676,-380.509C515.691,-374.801 546.816,-365.546 572,-350.915 598.559,-335.486 622.376,-307.642 634.177,-292.469"/>
<polygon fill="midnightblue" stroke="midnightblue" points="488.692,-377.139 479.613,-382.599 490.115,-383.993 488.692,-377.139"/>
</g>
<!-- Node13 -->
<g id="node25" class="node"><title>Node13</title>
<polygon fill="none" stroke="#bfbfbf" points="400.5,-338.415 400.5,-359.415 473.5,-359.415 473.5,-338.415 400.5,-338.415"/>
<text text-anchor="middle" x="437" y="-346.415" font-family="Helvetica,sans-Serif" font-size="10.00">QUndoStack</text>
</g>
<!-- Node13&#45;&gt;Node11 -->
<g id="edge26" class="edge"><title>Node13&#45;&gt;Node11</title>
<path fill="none" stroke="#9a32cd" stroke-dasharray="5,2" d="M483.805,-340.036C510.122,-334.411 543.345,-326.244 572,-315.915 589.921,-309.456 609.336,-299.798 623.163,-292.424"/>
<polygon fill="#9a32cd" stroke="#9a32cd" points="482.791,-336.672 473.717,-342.141 484.221,-343.525 482.791,-336.672"/>
<text text-anchor="middle" x="541" y="-337.915" font-family="Helvetica,sans-Serif" font-size="10.00">undo_stack</text>
</g>
<!-- Node14 -->
<g id="node27" class="node"><title>Node14</title>
<polygon fill="none" stroke="#bfbfbf" points="386,-207.415 386,-228.415 488,-228.415 488,-207.415 386,-207.415"/>
<text text-anchor="middle" x="437" y="-215.415" font-family="Helvetica,sans-Serif" font-size="10.00">mouse_status_type</text>
</g>
<!-- Node14&#45;&gt;Node11 -->
<g id="edge28" class="edge"><title>Node14&#45;&gt;Node11</title>
<path fill="none" stroke="#9a32cd" stroke-dasharray="5,2" d="M498.428,-226.344C521.86,-230.554 548.559,-236.575 572,-244.915 591.167,-251.735 611.568,-263.036 625.37,-271.357"/>
<polygon fill="#9a32cd" stroke="#9a32cd" points="498.711,-222.841 488.262,-224.592 497.522,-229.739 498.711,-222.841"/>
<text text-anchor="middle" x="541" y="-248.915" font-family="Helvetica,sans-Serif" font-size="10.00">mouse_status</text>
</g>
<!-- Node15 -->
<g id="node29" class="node"><title>Node15</title>
<polygon fill="none" stroke="#bfbfbf" points="185.5,-476.415 185.5,-497.415 238.5,-497.415 238.5,-476.415 185.5,-476.415"/>
<text text-anchor="middle" x="212" y="-484.415" font-family="Helvetica,sans-Serif" font-size="10.00">QPointF</text>
</g>
<!-- Node15&#45;&gt;Node11 -->
<g id="edge30" class="edge"><title>Node15&#45;&gt;Node11</title>
<path fill="none" stroke="#9a32cd" stroke-dasharray="5,2" d="M248.559,-499.084C279.741,-507.617 325.503,-515.739 364,-504.915 468.271,-475.599 492.34,-451.306 572,-377.915 600.823,-351.36 625.421,-311.342 636.188,-292.473"/>
<polygon fill="#9a32cd" stroke="#9a32cd" points="249.153,-495.612 238.574,-496.201 247.211,-502.338 249.153,-495.612"/>
<text text-anchor="middle" x="437" y="-502.915" font-family="Helvetica,sans-Serif" font-size="10.00">oldpos</text>
</g>
<!-- Node15&#45;&gt;Node16 -->
<g id="edge36" class="edge"><title>Node15&#45;&gt;Node16</title>
<path fill="none" stroke="#9a32cd" stroke-dasharray="5,2" d="M243.855,-472.17C256.247,-466.706 270.652,-460.686 284,-455.915 318.838,-443.464 339.298,-460.456 364,-432.915 395.321,-397.995 351.899,-364.893 382,-328.915 386.368,-323.694 392.217,-319.836 398.473,-316.985"/>
<polygon fill="#9a32cd" stroke="#9a32cd" points="242.105,-469.118 234.406,-476.397 244.964,-475.508 242.105,-469.118"/>
<text text-anchor="middle" x="324" y="-459.915" font-family="Helvetica,sans-Serif" font-size="10.00">origin</text>
</g>
<!-- Node16&#45;&gt;Node11 -->
<g id="edge32" class="edge"><title>Node16&#45;&gt;Node11</title>
<path fill="none" stroke="#9a32cd" stroke-dasharray="5,2" d="M485.474,-302.531C524.825,-297.348 579.053,-290.206 612.256,-285.833"/>
<polygon fill="#9a32cd" stroke="#9a32cd" points="485.016,-299.061 475.559,-303.837 485.93,-306.001 485.016,-299.061"/>
<text text-anchor="middle" x="541" y="-302.915" font-family="Helvetica,sans-Serif" font-size="10.00">grid</text>
</g>
<!-- Node17 -->
<g id="node33" class="node"><title>Node17</title>
<polygon fill="none" stroke="#bfbfbf" points="189.5,-266.415 189.5,-287.415 234.5,-287.415 234.5,-266.415 189.5,-266.415"/>
<text text-anchor="middle" x="212" y="-274.415" font-family="Helvetica,sans-Serif" font-size="10.00">double</text>
</g>
<!-- Node17&#45;&gt;Node16 -->
<g id="edge34" class="edge"><title>Node17&#45;&gt;Node16</title>
<path fill="none" stroke="#9a32cd" stroke-dasharray="5,2" d="M244.771,-281.576C285.548,-287.376 355.075,-297.264 398.393,-303.425"/>
<polygon fill="#9a32cd" stroke="#9a32cd" points="245.206,-278.103 234.812,-280.16 244.22,-285.033 245.206,-278.103"/>
<text text-anchor="middle" x="324" y="-301.915" font-family="Helvetica,sans-Serif" font-size="10.00">size</text>
</g>
<!-- Node17&#45;&gt;Node21 -->
<g id="edge50" class="edge"><title>Node17&#45;&gt;Node21</title>
<path fill="none" stroke="#9a32cd" stroke-dasharray="5,2" d="M241.355,-262.124C254.116,-256.484 269.452,-250.735 284,-247.915 325.421,-239.887 374.201,-245.633 405.35,-251.175"/>
<polygon fill="#9a32cd" stroke="#9a32cd" points="239.769,-259.001 232.153,-266.367 242.7,-265.358 239.769,-259.001"/>
<text text-anchor="middle" x="324" y="-277.915" font-family="Helvetica,sans-Serif" font-size="10.00">cusp_angle</text>
<text text-anchor="middle" x="324" y="-264.915" font-family="Helvetica,sans-Serif" font-size="10.00">crossing_distance</text>
<text text-anchor="middle" x="324" y="-251.915" font-family="Helvetica,sans-Serif" font-size="10.00">handle_length</text>
</g>
<!-- Node18 -->
<g id="node37" class="node"><title>Node18</title>
<polygon fill="none" stroke="#bfbfbf" points="180,-417.415 180,-438.415 244,-438.415 244,-417.415 180,-417.415"/>
<text text-anchor="middle" x="212" y="-425.415" font-family="Helvetica,sans-Serif" font-size="10.00">grid_shape</text>
</g>
<!-- Node18&#45;&gt;Node16 -->
<g id="edge40" class="edge"><title>Node18&#45;&gt;Node16</title>
<path fill="none" stroke="#9a32cd" stroke-dasharray="5,2" d="M254.045,-421.66C296.201,-415.024 355.994,-404.473 364,-396.915 386.734,-375.455 360.91,-351.994 382,-328.915 386.455,-324.04 392.194,-320.351 398.277,-317.561"/>
<polygon fill="#9a32cd" stroke="#9a32cd" points="253.36,-418.225 244.015,-423.218 254.434,-425.142 253.36,-418.225"/>
<text text-anchor="middle" x="324" y="-420.915" font-family="Helvetica,sans-Serif" font-size="10.00">shape</text>
</g>
<!-- Node19 -->
<g id="node39" class="node"><title>Node19</title>
<polygon fill="none" stroke="#bfbfbf" points="382,-167.415 382,-188.415 492,-188.415 492,-167.415 382,-167.415"/>
<text text-anchor="middle" x="437" y="-175.415" font-family="Helvetica,sans-Serif" font-size="10.00">QGraphicsRectItem *</text>
</g>
<!-- Node19&#45;&gt;Node11 -->
<g id="edge42" class="edge"><title>Node19&#45;&gt;Node11</title>
<path fill="none" stroke="#9a32cd" stroke-dasharray="5,2" d="M502.158,-186.96C525.252,-192.029 550.758,-199.864 572,-211.915 599.057,-227.266 622.846,-255.902 634.463,-271.364"/>
<polygon fill="#9a32cd" stroke="#9a32cd" points="502.586,-183.474 492.085,-184.886 501.174,-190.331 502.586,-183.474"/>
<text text-anchor="middle" x="541" y="-215.915" font-family="Helvetica,sans-Serif" font-size="10.00">rubberband</text>
</g>
<!-- Node20 -->
<g id="node41" class="node"><title>Node20</title>
<polygon fill="none" stroke="#bfbfbf" points="383.5,-127.415 383.5,-148.415 490.5,-148.415 490.5,-127.415 383.5,-127.415"/>
<text text-anchor="middle" x="437" y="-135.415" font-family="Helvetica,sans-Serif" font-size="10.00">QGraphicsLineItem *</text>
</g>
<!-- Node20&#45;&gt;Node11 -->
<g id="edge44" class="edge"><title>Node20&#45;&gt;Node11</title>
<path fill="none" stroke="#9a32cd" stroke-dasharray="5,2" d="M500.707,-144.456C524.779,-149.365 551.324,-157.941 572,-172.915 590.397,-186.239 623.345,-246.402 636.426,-271.19"/>
<polygon fill="#9a32cd" stroke="#9a32cd" points="501.037,-140.957 490.566,-142.569 499.757,-147.839 501.037,-140.957"/>
<text text-anchor="middle" x="541" y="-176.915" font-family="Helvetica,sans-Serif" font-size="10.00">guide</text>
</g>
<!-- Node21&#45;&gt;Node11 -->
<g id="edge46" class="edge"><title>Node21&#45;&gt;Node11</title>
<path fill="none" stroke="#9a32cd" stroke-dasharray="5,2" d="M478.67,-259.138C505.435,-260.306 540.886,-262.568 572,-266.915 585.294,-268.773 599.829,-271.733 612.193,-274.534"/>
<polygon fill="#9a32cd" stroke="#9a32cd" points="478.635,-255.634 468.502,-258.728 478.353,-262.628 478.635,-255.634"/>
<text text-anchor="middle" x="541" y="-270.915" font-family="Helvetica,sans-Serif" font-size="10.00">knot</text>
</g>
<!-- Node22 -->
<g id="node45" class="node"><title>Node22</title>
<a xlink:href="classQGraphicsPathItem.html" target="_top" xlink:title="QGraphicsPathItem">
<polygon fill="none" stroke="black" points="160.5,-86.4154 160.5,-107.415 263.5,-107.415 263.5,-86.4154 160.5,-86.4154"/>
<text text-anchor="middle" x="212" y="-94.4154" font-family="Helvetica,sans-Serif" font-size="10.00">QGraphicsPathItem</text>
</a>
</g>
<!-- Node22&#45;&gt;Node21 -->
<g id="edge48" class="edge"><title>Node22&#45;&gt;Node21</title>
<path fill="none" stroke="midnightblue" d="M274.085,-93.0843C305.202,-94.6361 341.046,-102.282 364,-125.915 399.126,-162.081 349.881,-199.054 382,-237.915 387.89,-245.042 396.543,-249.629 405.249,-252.582"/>
<polygon fill="midnightblue" stroke="midnightblue" points="273.839,-89.5755 263.739,-92.7773 273.631,-96.5725 273.839,-89.5755"/>
</g>
<!-- Node23 -->
<g id="node48" class="node"><title>Node23</title>
<polygon fill="none" stroke="#bfbfbf" points="158.5,-166.415 158.5,-187.415 265.5,-187.415 265.5,-166.415 158.5,-166.415"/>
<text text-anchor="middle" x="212" y="-174.415" font-family="Helvetica,sans-Serif" font-size="10.00">QPainterPathStroker</text>
</g>
<!-- Node23&#45;&gt;Node21 -->
<g id="edge52" class="edge"><title>Node23&#45;&gt;Node21</title>
<path fill="none" stroke="#9a32cd" stroke-dasharray="5,2" d="M275.858,-172.837C305.252,-174.088 339.053,-180.3 364,-198.915 379.3,-210.332 367.948,-224.993 382,-237.915 388.506,-243.899 396.943,-248.126 405.245,-251.098"/>
<polygon fill="#9a32cd" stroke="#9a32cd" points="275.749,-169.333 265.667,-172.589 275.579,-176.331 275.749,-169.333"/>
<text text-anchor="middle" x="324" y="-202.915" font-family="Helvetica,sans-Serif" font-size="10.00">stroker</text>
</g>
<!-- Node24 -->
<g id="node50" class="node"><title>Node24</title>
<polygon fill="none" stroke="#bfbfbf" points="174.5,-206.415 174.5,-227.415 249.5,-227.415 249.5,-206.415 174.5,-206.415"/>
<text text-anchor="middle" x="212" y="-214.415" font-family="Helvetica,sans-Serif" font-size="10.00">QPainterPath</text>
</g>
<!-- Node24&#45;&gt;Node21 -->
<g id="edge54" class="edge"><title>Node24&#45;&gt;Node21</title>
<path fill="none" stroke="#9a32cd" stroke-dasharray="5,2" d="M259.999,-215.131C290.397,-215.277 330.205,-217.843 364,-227.915 372.77,-230.529 373.674,-234.118 382,-237.915 389.395,-241.289 397.54,-244.507 405.243,-247.337"/>
<polygon fill="#9a32cd" stroke="#9a32cd" points="259.65,-211.633 249.664,-215.172 259.678,-218.633 259.65,-211.633"/>
<text text-anchor="middle" x="324" y="-231.915" font-family="Helvetica,sans-Serif" font-size="10.00">knot</text>
</g>
<!-- Node25 -->
<g id="node53" class="node"><title>Node25</title>
<polygon fill="none" stroke="#bfbfbf" points="194.5,-126.415 194.5,-147.415 229.5,-147.415 229.5,-126.415 194.5,-126.415"/>
<text text-anchor="middle" x="212" y="-134.415" font-family="Helvetica,sans-Serif" font-size="10.00">long</text>
</g>
<!-- Node25&#45;&gt;Node21 -->
<g id="edge58" class="edge"><title>Node25&#45;&gt;Node21</title>
<path fill="none" stroke="#9a32cd" stroke-dasharray="5,2" d="M239.779,-131.933C273.596,-127.587 330.347,-126.096 364,-156.915 391.197,-181.822 357.673,-210.199 382,-237.915 388.032,-244.788 396.621,-249.3 405.223,-252.262"/>
<polygon fill="#9a32cd" stroke="#9a32cd" points="239.054,-128.502 229.663,-133.407 240.063,-135.429 239.054,-128.502"/>
<text text-anchor="middle" x="324" y="-160.915" font-family="Helvetica,sans-Serif" font-size="10.00">curve_style</text>
</g>
<!-- Node26 -->
<g id="node57" class="node"><title>Node26</title>
<polygon fill="none" stroke="#bfbfbf" points="404.5,-87.4154 404.5,-108.415 469.5,-108.415 469.5,-87.4154 404.5,-87.4154"/>
<text text-anchor="middle" x="437" y="-95.4154" font-family="Helvetica,sans-Serif" font-size="10.00">mode_type</text>
</g>
<!-- Node26&#45;&gt;Node11 -->
<g id="edge64" class="edge"><title>Node26&#45;&gt;Node11</title>
<path fill="none" stroke="#9a32cd" stroke-dasharray="5,2" d="M479.906,-98.9758C508.797,-101.773 546.191,-109.691 572,-130.915 617.975,-168.723 635.285,-243.46 640.294,-271.212"/>
<polygon fill="#9a32cd" stroke="#9a32cd" points="479.93,-95.4667 469.684,-98.1617 479.374,-102.445 479.93,-95.4667"/>
<text text-anchor="middle" x="541" y="-134.915" font-family="Helvetica,sans-Serif" font-size="10.00">mode</text>
</g>
</g>
</svg>
