<?xml version="1.0" encoding="UTF-8" standalone="no"?>
<!DOCTYPE svg PUBLIC "-//W3C//DTD SVG 1.1//EN"
 "http://www.w3.org/Graphics/SVG/1.1/DTD/svg11.dtd">
<!-- Generated by graphviz version 2.26.3 (20100126.1600)
 -->
<!-- Title: G Pages: 1 -->
<svg width="1034pt" height="704pt"
 viewBox="0.00 0.00 1034.00 704.00" xmlns="http://www.w3.org/2000/svg" xmlns:xlink="http://www.w3.org/1999/xlink">
<g id="graph1" class="graph" transform="scale(1 1) rotate(0) translate(4 700)">
<title>G</title>
<!-- Node1 -->
<g id="node1" class="node"><title>Node1</title>
<polygon fill="#bfbfbf" stroke="black" points="932.5,-390.5 932.5,-411.5 1025.5,-411.5 1025.5,-390.5 932.5,-390.5"/>
<text text-anchor="middle" x="979" y="-398.5" font-family="Helvetica,sans-Serif" font-size="10.00">Ui::Knot_Window</text>
</g>
<!-- Node2 -->
<g id="node2" class="node"><title>Node2</title>
<a xlink:href="classUi__Knot__Window.html" target="_top" xlink:title="Ui_Knot_Window">
<polygon fill="none" stroke="black" points="802,-390.5 802,-411.5 894,-411.5 894,-390.5 802,-390.5"/>
<text text-anchor="middle" x="848" y="-398.5" font-family="Helvetica,sans-Serif" font-size="10.00">Ui_Knot_Window</text>
</a>
</g>
<!-- Node2&#45;&gt;Node1 -->
<g id="edge2" class="edge"><title>Node2&#45;&gt;Node1</title>
<path fill="none" stroke="midnightblue" d="M904.224,-401C913.603,-401 923.241,-401 932.347,-401"/>
<polygon fill="midnightblue" stroke="midnightblue" points="904.186,-397.5 894.186,-401 904.186,-404.5 904.186,-397.5"/>
</g>
<!-- Node3 -->
<g id="node4" class="node"><title>Node3</title>
<polygon fill="none" stroke="#bfbfbf" points="601.5,-589.5 601.5,-610.5 656.5,-610.5 656.5,-589.5 601.5,-589.5"/>
<text text-anchor="middle" x="629" y="-597.5" font-family="Helvetica,sans-Serif" font-size="10.00">QMenu *</text>
</g>
<!-- Node3&#45;&gt;Node2 -->
<g id="edge4" class="edge"><title>Node3&#45;&gt;Node2</title>
<path fill="none" stroke="#9a32cd" stroke-dasharray="5,2" d="M666.796,-604.818C701.109,-607.043 751.217,-604.641 784,-578 811.134,-555.949 837.626,-447.079 845.588,-411.949"/>
<polygon fill="#9a32cd" stroke="#9a32cd" points="666.94,-601.318 656.691,-604 666.376,-608.295 666.94,-601.318"/>
<text text-anchor="middle" x="735" y="-687" font-family="Helvetica,sans-Serif" font-size="10.00">menu_Zoom</text>
<text text-anchor="middle" x="735" y="-674" font-family="Helvetica,sans-Serif" font-size="10.00">menuNo_des</text>
<text text-anchor="middle" x="735" y="-661" font-family="Helvetica,sans-Serif" font-size="10.00">menu_Edit</text>
<text text-anchor="middle" x="735" y="-648" font-family="Helvetica,sans-Serif" font-size="10.00">menu_View</text>
<text text-anchor="middle" x="735" y="-635" font-family="Helvetica,sans-Serif" font-size="10.00">menu_File</text>
<text text-anchor="middle" x="735" y="-622" font-family="Helvetica,sans-Serif" font-size="10.00">menu_Toolbars</text>
<text text-anchor="middle" x="735" y="-609" font-family="Helvetica,sans-Serif" font-size="10.00">menu_Knot</text>
</g>
<!-- Node4 -->
<g id="node6" class="node"><title>Node4</title>
<polygon fill="none" stroke="#bfbfbf" points="592,-549.5 592,-570.5 666,-570.5 666,-549.5 592,-549.5"/>
<text text-anchor="middle" x="629" y="-557.5" font-family="Helvetica,sans-Serif" font-size="10.00">QStatusBar *</text>
</g>
<!-- Node4&#45;&gt;Node2 -->
<g id="edge6" class="edge"><title>Node4&#45;&gt;Node2</title>
<path fill="none" stroke="#9a32cd" stroke-dasharray="5,2" d="M676.574,-564.486C709.735,-565.121 753.351,-560.695 784,-538 827.039,-506.13 842.125,-438.057 846.478,-411.717"/>
<polygon fill="#9a32cd" stroke="#9a32cd" points="676.322,-560.975 666.205,-564.119 676.074,-567.971 676.322,-560.975"/>
<text text-anchor="middle" x="735" y="-568" font-family="Helvetica,sans-Serif" font-size="10.00">statusbar</text>
</g>
<!-- Node5 -->
<g id="node8" class="node"><title>Node5</title>
<polygon fill="none" stroke="#bfbfbf" points="598,-509.5 598,-530.5 660,-530.5 660,-509.5 598,-509.5"/>
<text text-anchor="middle" x="629" y="-517.5" font-family="Helvetica,sans-Serif" font-size="10.00">QWidget *</text>
</g>
<!-- Node5&#45;&gt;Node2 -->
<g id="edge8" class="edge"><title>Node5&#45;&gt;Node2</title>
<path fill="none" stroke="#9a32cd" stroke-dasharray="5,2" d="M670.346,-523.044C703.526,-523.504 750.014,-519.511 784,-498 817.073,-477.067 836.773,-432.156 844.376,-411.629"/>
<polygon fill="#9a32cd" stroke="#9a32cd" points="670.168,-519.538 660.074,-522.755 669.971,-526.535 670.168,-519.538"/>
<text text-anchor="middle" x="735" y="-526" font-family="Helvetica,sans-Serif" font-size="10.00">centralWidget</text>
</g>
<!-- Node6 -->
<g id="node10" class="node"><title>Node6</title>
<polygon fill="none" stroke="#bfbfbf" points="590,-469.5 590,-490.5 668,-490.5 668,-469.5 590,-469.5"/>
<text text-anchor="middle" x="629" y="-477.5" font-family="Helvetica,sans-Serif" font-size="10.00">QGridLayout *</text>
</g>
<!-- Node6&#45;&gt;Node2 -->
<g id="edge10" class="edge"><title>Node6&#45;&gt;Node2</title>
<path fill="none" stroke="#9a32cd" stroke-dasharray="5,2" d="M678.438,-482.137C710.013,-481.642 751.056,-477.45 784,-462 808.459,-450.53 829.537,-425.999 840.322,-411.787"/>
<polygon fill="#9a32cd" stroke="#9a32cd" points="678.106,-478.638 668.119,-482.175 678.131,-485.638 678.106,-478.638"/>
<text text-anchor="middle" x="735" y="-485" font-family="Helvetica,sans-Serif" font-size="10.00">gridLayout</text>
</g>
<!-- Node7 -->
<g id="node12" class="node"><title>Node7</title>
<polygon fill="none" stroke="#bfbfbf" points="599.5,-307.5 599.5,-328.5 658.5,-328.5 658.5,-307.5 599.5,-307.5"/>
<text text-anchor="middle" x="629" y="-315.5" font-family="Helvetica,sans-Serif" font-size="10.00">QAction *</text>
</g>
<!-- Node7&#45;&gt;Node2 -->
<g id="edge12" class="edge"><title>Node7&#45;&gt;Node2</title>
<path fill="none" stroke="#9a32cd" stroke-dasharray="5,2" d="M668.892,-307.417C701.607,-300.962 748.192,-297.012 784,-315 815.765,-330.957 835.757,-370.975 843.861,-390.269"/>
<polygon fill="#9a32cd" stroke="#9a32cd" points="667.837,-304.063 658.789,-309.576 669.3,-310.908 667.837,-304.063"/>
<text text-anchor="middle" x="735" y="-449" font-family="Helvetica,sans-Serif" font-size="10.00">actionEdge_List</text>
<text text-anchor="middle" x="735" y="-436" font-family="Helvetica,sans-Serif" font-size="10.00">actionInsert_Edges</text>
<text text-anchor="middle" x="735" y="-423" font-family="Helvetica,sans-Serif" font-size="10.00">action_Export</text>
<text text-anchor="middle" x="735" y="-410" font-family="Helvetica,sans-Serif" font-size="10.00">action_Style</text>
<text text-anchor="middle" x="735" y="-397" font-family="Helvetica,sans-Serif" font-size="10.00">action_Reset_Zoom</text>
<text text-anchor="middle" x="735" y="-384" font-family="Helvetica,sans-Serif" font-size="10.00">action_Erase</text>
<text text-anchor="middle" x="735" y="-371" font-family="Helvetica,sans-Serif" font-size="10.00">actionEdit_Nodes</text>
<text text-anchor="middle" x="735" y="-358" font-family="Helvetica,sans-Serif" font-size="10.00">actionSave_As</text>
<text text-anchor="middle" x="735" y="-345" font-family="Helvetica,sans-Serif" font-size="10.00">actionShow_Knot_line</text>
<text text-anchor="middle" x="735" y="-332" font-family="Helvetica,sans-Serif" font-size="10.00">action_Undo</text>
<text text-anchor="middle" x="735" y="-319" font-family="Helvetica,sans-Serif" font-size="10.00">...</text>
</g>
<!-- Node8 -->
<g id="node14" class="node"><title>Node8</title>
<polygon fill="none" stroke="#bfbfbf" points="596.5,-260.5 596.5,-281.5 661.5,-281.5 661.5,-260.5 596.5,-260.5"/>
<text text-anchor="middle" x="629" y="-268.5" font-family="Helvetica,sans-Serif" font-size="10.00">QToolBar *</text>
</g>
<!-- Node8&#45;&gt;Node2 -->
<g id="edge14" class="edge"><title>Node8&#45;&gt;Node2</title>
<path fill="none" stroke="#9a32cd" stroke-dasharray="5,2" d="M671.559,-259.911C704.724,-253.8 750.596,-251.134 784,-272 827.044,-298.887 842.066,-364.248 846.441,-390.159"/>
<polygon fill="#9a32cd" stroke="#9a32cd" points="670.814,-256.491 661.702,-261.896 672.196,-263.353 670.814,-256.491"/>
<text text-anchor="middle" x="735" y="-289" font-family="Helvetica,sans-Serif" font-size="10.00">EditBar</text>
<text text-anchor="middle" x="735" y="-276" font-family="Helvetica,sans-Serif" font-size="10.00">MainToolBar</text>
</g>
<!-- Node9 -->
<g id="node16" class="node"><title>Node9</title>
<polygon fill="none" stroke="#bfbfbf" points="594,-220.5 594,-241.5 664,-241.5 664,-220.5 594,-220.5"/>
<text text-anchor="middle" x="629" y="-228.5" font-family="Helvetica,sans-Serif" font-size="10.00">QMenuBar *</text>
</g>
<!-- Node9&#45;&gt;Node2 -->
<g id="edge16" class="edge"><title>Node9&#45;&gt;Node2</title>
<path fill="none" stroke="#9a32cd" stroke-dasharray="5,2" d="M674.201,-221.218C707.61,-216.656 752.568,-216.415 784,-239 835.326,-275.88 845.504,-360.518 847.511,-390.353"/>
<polygon fill="#9a32cd" stroke="#9a32cd" points="673.582,-217.772 664.231,-222.752 674.647,-224.691 673.582,-217.772"/>
<text text-anchor="middle" x="735" y="-243" font-family="Helvetica,sans-Serif" font-size="10.00">menuBar</text>
</g>
<!-- Node10 -->
<g id="node18" class="node"><title>Node10</title>
<a xlink:href="classKnotView.html" target="_top" xlink:title="KnotView">
<polygon fill="none" stroke="black" points="599.5,-180.5 599.5,-201.5 658.5,-201.5 658.5,-180.5 599.5,-180.5"/>
<text text-anchor="middle" x="629" y="-188.5" font-family="Helvetica,sans-Serif" font-size="10.00">KnotView</text>
</a>
</g>
<!-- Node10&#45;&gt;Node2 -->
<g id="edge18" class="edge"><title>Node10&#45;&gt;Node2</title>
<path fill="none" stroke="#9a32cd" stroke-dasharray="5,2" d="M668.817,-182.464C702.984,-177.56 751.685,-176.648 784,-202 814.98,-226.305 839.425,-352.391 846.154,-390.244"/>
<polygon fill="#9a32cd" stroke="#9a32cd" points="668.031,-179.045 658.714,-184.089 669.143,-185.956 668.031,-179.045"/>
<text text-anchor="middle" x="735" y="-206" font-family="Helvetica,sans-Serif" font-size="10.00">canvas</text>
</g>
<!-- Node11 -->
<g id="node20" class="node"><title>Node11</title>
<a xlink:href="classQGraphicsView.html" target="_top" xlink:title="QGraphicsView">
<polygon fill="none" stroke="black" points="394.5,-600.5 394.5,-621.5 479.5,-621.5 479.5,-600.5 394.5,-600.5"/>
<text text-anchor="middle" x="437" y="-608.5" font-family="Helvetica,sans-Serif" font-size="10.00">QGraphicsView</text>
</a>
</g>
<!-- Node11&#45;&gt;Node10 -->
<g id="edge20" class="edge"><title>Node11&#45;&gt;Node10</title>
<path fill="none" stroke="midnightblue" d="M484.172,-596.001C486.911,-594.477 489.546,-592.814 492,-591 539.464,-555.917 551.426,-540.321 572,-485 593.27,-427.807 556.495,-261.998 590,-211 592.507,-207.184 595.981,-204.059 599.831,-201.509"/>
<polygon fill="midnightblue" stroke="midnightblue" points="482.607,-592.869 475.157,-600.402 485.679,-599.159 482.607,-592.869"/>
</g>
<!-- Node12 -->
<g id="node22" class="node"><title>Node12</title>
<a xlink:href="classNode.html" target="_top" xlink:title="Node">
<polygon fill="none" stroke="black" points="417,-560.5 417,-581.5 457,-581.5 457,-560.5 417,-560.5"/>
<text text-anchor="middle" x="437" y="-568.5" font-family="Helvetica,sans-Serif" font-size="10.00">Node</text>
</a>
</g>
<!-- Node12&#45;&gt;Node10 -->
<g id="edge22" class="edge"><title>Node12&#45;&gt;Node10</title>
<path fill="none" stroke="#9a32cd" stroke-dasharray="5,2" d="M452.405,-552.018C481.27,-515.317 543.178,-430.993 572,-349 592.512,-290.647 554.398,-261.58 590,-211 592.628,-207.267 596.166,-204.185 600.044,-201.654"/>
<polygon fill="#9a32cd" stroke="#9a32cd" points="449.308,-550.289 445.819,-560.293 454.785,-554.648 449.308,-550.289"/>
<text text-anchor="middle" x="541" y="-472" font-family="Helvetica,sans-Serif" font-size="10.00">last_node</text>
</g>
<!-- Node13 -->
<g id="node24" class="node"><title>Node13</title>
<a xlink:href="classCustomItem.html" target="_top" xlink:title="CustomItem">
<polygon fill="none" stroke="black" points="176.5,-636.5 176.5,-657.5 247.5,-657.5 247.5,-636.5 176.5,-636.5"/>
<text text-anchor="middle" x="212" y="-644.5" font-family="Helvetica,sans-Serif" font-size="10.00">CustomItem</text>
</a>
</g>
<!-- Node13&#45;&gt;Node12 -->
<g id="edge24" class="edge"><title>Node13&#45;&gt;Node12</title>
<path fill="none" stroke="midnightblue" d="M257.872,-643.984C289.597,-640.165 331.738,-631.525 364,-612 374.517,-605.635 371.892,-597.996 382,-591 392.526,-583.714 406.014,-578.755 416.999,-575.598"/>
<polygon fill="midnightblue" stroke="midnightblue" points="257.106,-640.546 247.542,-645.103 257.86,-647.506 257.106,-640.546"/>
</g>
<!-- Node14 -->
<g id="node26" class="node"><title>Node14</title>
<a xlink:href="classQGraphicsItem.html" target="_top" xlink:title="QGraphicsItem">
<polygon fill="none" stroke="black" points="0.5,-656.5 0.5,-677.5 83.5,-677.5 83.5,-656.5 0.5,-656.5"/>
<text text-anchor="middle" x="42" y="-664.5" font-family="Helvetica,sans-Serif" font-size="10.00">QGraphicsItem</text>
</a>
</g>
<!-- Node14&#45;&gt;Node13 -->
<g id="edge26" class="edge"><title>Node14&#45;&gt;Node13</title>
<path fill="none" stroke="midnightblue" d="M93.5537,-660.935C120.304,-657.788 152.312,-654.022 176.307,-651.199"/>
<polygon fill="midnightblue" stroke="midnightblue" points="93.1092,-657.463 83.5867,-662.107 93.9272,-664.415 93.1092,-657.463"/>
</g>
<!-- Node15 -->
<g id="node28" class="node"><title>Node15</title>
<polygon fill="none" stroke="#bfbfbf" points="24.5,-616.5 24.5,-637.5 59.5,-637.5 59.5,-616.5 24.5,-616.5"/>
<text text-anchor="middle" x="42" y="-624.5" font-family="Helvetica,sans-Serif" font-size="10.00">bool</text>
</g>
<!-- Node15&#45;&gt;Node13 -->
<g id="edge28" class="edge"><title>Node15&#45;&gt;Node13</title>
<path fill="none" stroke="#9a32cd" stroke-dasharray="5,2" d="M69.7979,-630.026C89.4223,-632.185 116.331,-635.192 140,-638 151.884,-639.41 164.863,-641.012 176.488,-642.471"/>
<polygon fill="#9a32cd" stroke="#9a32cd" points="70.0336,-626.531 59.7117,-628.92 69.2707,-633.489 70.0336,-626.531"/>
<text text-anchor="middle" x="121" y="-642" font-family="Helvetica,sans-Serif" font-size="10.00">highlight</text>
</g>
<!-- Node16 -->
<g id="node30" class="node"><title>Node16</title>
<polygon fill="none" stroke="#bfbfbf" points="197.5,-596.5 197.5,-617.5 226.5,-617.5 226.5,-596.5 197.5,-596.5"/>
<text text-anchor="middle" x="212" y="-604.5" font-family="Helvetica,sans-Serif" font-size="10.00">int</text>
</g>
<!-- Node16&#45;&gt;Node12 -->
<g id="edge30" class="edge"><title>Node16&#45;&gt;Node12</title>
<path fill="none" stroke="#9a32cd" stroke-dasharray="5,2" d="M236.812,-603.03C281.709,-595.847 375.591,-580.825 416.835,-574.226"/>
<polygon fill="#9a32cd" stroke="#9a32cd" points="236.084,-599.602 226.763,-604.638 237.19,-606.514 236.084,-599.602"/>
<text text-anchor="middle" x="324" y="-599" font-family="Helvetica,sans-Serif" font-size="10.00">radius</text>
</g>
<!-- Node17 -->
<g id="node32" class="node"><title>Node17</title>
<polygon fill="none" stroke="#bfbfbf" points="168.5,-537.5 168.5,-558.5 255.5,-558.5 255.5,-537.5 168.5,-537.5"/>
<text text-anchor="middle" x="212" y="-545.5" font-family="Helvetica,sans-Serif" font-size="10.00">QList&lt; Edge * &gt;</text>
</g>
<!-- Node17&#45;&gt;Node12 -->
<g id="edge32" class="edge"><title>Node17&#45;&gt;Node12</title>
<path fill="none" stroke="#9a32cd" stroke-dasharray="5,2" d="M265.672,-553.486C314.177,-558.445 382.985,-565.479 416.737,-568.929"/>
<polygon fill="#9a32cd" stroke="#9a32cd" points="265.953,-549.997 255.649,-552.462 265.241,-556.961 265.953,-549.997"/>
<text text-anchor="middle" x="324" y="-566" font-family="Helvetica,sans-Serif" font-size="10.00">edges</text>
</g>
<!-- Node23 -->
<g id="node44" class="node"><title>Node23</title>
<a xlink:href="classKnotGraph.html" target="_top" xlink:title="KnotGraph">
<polygon fill="none" stroke="black" points="405.5,-370.5 405.5,-391.5 468.5,-391.5 468.5,-370.5 405.5,-370.5"/>
<text text-anchor="middle" x="437" y="-378.5" font-family="Helvetica,sans-Serif" font-size="10.00">KnotGraph</text>
</a>
</g>
<!-- Node17&#45;&gt;Node23 -->
<g id="edge54" class="edge"><title>Node17&#45;&gt;Node23</title>
<path fill="none" stroke="#9a32cd" stroke-dasharray="5,2" d="M254.51,-534.225C297.889,-520.052 359.491,-499.553 364,-496 400.776,-467.019 424.333,-414.074 433.12,-391.571"/>
<polygon fill="#9a32cd" stroke="#9a32cd" points="253.163,-530.983 244.741,-537.411 255.333,-537.638 253.163,-530.983"/>
<text text-anchor="middle" x="324" y="-541" font-family="Helvetica,sans-Serif" font-size="10.00">traversed_edges</text>
<text text-anchor="middle" x="324" y="-528" font-family="Helvetica,sans-Serif" font-size="10.00">edges</text>
</g>
<!-- Node18 -->
<g id="node34" class="node"><title>Node18</title>
<polygon fill="none" stroke="#bfbfbf" points="400.5,-200.5 400.5,-221.5 473.5,-221.5 473.5,-200.5 400.5,-200.5"/>
<text text-anchor="middle" x="437" y="-208.5" font-family="Helvetica,sans-Serif" font-size="10.00">QUndoStack</text>
</g>
<!-- Node18&#45;&gt;Node10 -->
<g id="edge34" class="edge"><title>Node18&#45;&gt;Node10</title>
<path fill="none" stroke="#9a32cd" stroke-dasharray="5,2" d="M483.849,-206.12C519.924,-202.362 568.68,-197.283 599.486,-194.074"/>
<polygon fill="#9a32cd" stroke="#9a32cd" points="483.149,-202.674 473.566,-207.191 483.874,-209.636 483.149,-202.674"/>
<text text-anchor="middle" x="541" y="-208" font-family="Helvetica,sans-Serif" font-size="10.00">undo_stack</text>
</g>
<!-- Node19 -->
<g id="node36" class="node"><title>Node19</title>
<polygon fill="none" stroke="#bfbfbf" points="386,-160.5 386,-181.5 488,-181.5 488,-160.5 386,-160.5"/>
<text text-anchor="middle" x="437" y="-168.5" font-family="Helvetica,sans-Serif" font-size="10.00">mouse_status_type</text>
</g>
<!-- Node19&#45;&gt;Node10 -->
<g id="edge36" class="edge"><title>Node19&#45;&gt;Node10</title>
<path fill="none" stroke="#9a32cd" stroke-dasharray="5,2" d="M498.132,-174.233C521.317,-175.798 547.926,-178.004 572,-181 580.873,-182.104 590.466,-183.649 599.206,-185.195"/>
<polygon fill="#9a32cd" stroke="#9a32cd" points="498.289,-170.736 488.083,-173.579 497.834,-177.721 498.289,-170.736"/>
<text text-anchor="middle" x="541" y="-185" font-family="Helvetica,sans-Serif" font-size="10.00">mouse_status</text>
</g>
<!-- Node20 -->
<g id="node38" class="node"><title>Node20</title>
<polygon fill="none" stroke="#bfbfbf" points="410.5,-120.5 410.5,-141.5 463.5,-141.5 463.5,-120.5 410.5,-120.5"/>
<text text-anchor="middle" x="437" y="-128.5" font-family="Helvetica,sans-Serif" font-size="10.00">QPointF</text>
</g>
<!-- Node20&#45;&gt;Node10 -->
<g id="edge38" class="edge"><title>Node20&#45;&gt;Node10</title>
<path fill="none" stroke="#9a32cd" stroke-dasharray="5,2" d="M473.575,-135.483C501.227,-139.608 539.796,-146.951 572,-159 586.668,-164.488 602.086,-173.358 613.182,-180.369"/>
<polygon fill="#9a32cd" stroke="#9a32cd" points="473.941,-132 463.548,-134.057 472.956,-138.93 473.941,-132"/>
<text text-anchor="middle" x="541" y="-163" font-family="Helvetica,sans-Serif" font-size="10.00">oldpos</text>
</g>
<!-- Node21 -->
<g id="node40" class="node"><title>Node21</title>
<polygon fill="none" stroke="#bfbfbf" points="382,-80.5 382,-101.5 492,-101.5 492,-80.5 382,-80.5"/>
<text text-anchor="middle" x="437" y="-88.5" font-family="Helvetica,sans-Serif" font-size="10.00">QGraphicsRectItem *</text>
</g>
<!-- Node21&#45;&gt;Node10 -->
<g id="edge40" class="edge"><title>Node21&#45;&gt;Node10</title>
<path fill="none" stroke="#9a32cd" stroke-dasharray="5,2" d="M502.046,-99.0697C525.354,-104.044 551.029,-112.068 572,-125 594.939,-139.145 613.535,-165.528 622.738,-180.292"/>
<polygon fill="#9a32cd" stroke="#9a32cd" points="502.712,-95.6338 492.222,-97.1191 501.349,-102.5 502.712,-95.6338"/>
<text text-anchor="middle" x="541" y="-129" font-family="Helvetica,sans-Serif" font-size="10.00">rubberband</text>
</g>
<!-- Node22 -->
<g id="node42" class="node"><title>Node22</title>
<polygon fill="none" stroke="#bfbfbf" points="383.5,-40.5 383.5,-61.5 490.5,-61.5 490.5,-40.5 383.5,-40.5"/>
<text text-anchor="middle" x="437" y="-48.5" font-family="Helvetica,sans-Serif" font-size="10.00">QGraphicsLineItem *</text>
</g>
<!-- Node22&#45;&gt;Node10 -->
<g id="edge42" class="edge"><title>Node22&#45;&gt;Node10</title>
<path fill="none" stroke="#9a32cd" stroke-dasharray="5,2" d="M500.68,-56.0729C525,-60.6583 551.727,-69.1987 572,-85 604.301,-110.176 620.553,-158.937 626.397,-180.41"/>
<polygon fill="#9a32cd" stroke="#9a32cd" points="501.233,-52.6168 490.788,-54.3943 500.062,-59.5181 501.233,-52.6168"/>
<text text-anchor="middle" x="541" y="-89" font-family="Helvetica,sans-Serif" font-size="10.00">guide</text>
</g>
<!-- Node23&#45;&gt;Node10 -->
<g id="edge44" class="edge"><title>Node23&#45;&gt;Node10</title>
<path fill="none" stroke="#9a32cd" stroke-dasharray="5,2" d="M465.612,-365.116C496.317,-346.633 544.388,-313.306 572,-272 587.709,-248.5 571.965,-232.766 590,-211 593.107,-207.25 597.098,-204.125 601.337,-201.547"/>
<polygon fill="#9a32cd" stroke="#9a32cd" points="463.527,-362.281 456.682,-370.368 467.076,-368.315 463.527,-362.281"/>
<text text-anchor="middle" x="541" y="-336" font-family="Helvetica,sans-Serif" font-size="10.00">knot</text>
</g>
<!-- Node24 -->
<g id="node46" class="node"><title>Node24</title>
<a xlink:href="classQGraphicsPathItem.html" target="_top" xlink:title="QGraphicsPathItem">
<polygon fill="none" stroke="black" points="160.5,-478.5 160.5,-499.5 263.5,-499.5 263.5,-478.5 160.5,-478.5"/>
<text text-anchor="middle" x="212" y="-486.5" font-family="Helvetica,sans-Serif" font-size="10.00">QGraphicsPathItem</text>
</a>
</g>
<!-- Node24&#45;&gt;Node23 -->
<g id="edge46" class="edge"><title>Node24&#45;&gt;Node23</title>
<path fill="none" stroke="midnightblue" d="M273.563,-492.658C302.586,-491.831 336.739,-487.001 364,-472 398.07,-453.253 422.097,-411.439 431.982,-391.704"/>
<polygon fill="midnightblue" stroke="midnightblue" points="273.482,-489.158 263.531,-492.793 273.577,-496.158 273.482,-489.158"/>
</g>
<!-- Node25 -->
<g id="node48" class="node"><title>Node25</title>
<polygon fill="none" stroke="#bfbfbf" points="189.5,-430.5 189.5,-451.5 234.5,-451.5 234.5,-430.5 189.5,-430.5"/>
<text text-anchor="middle" x="212" y="-438.5" font-family="Helvetica,sans-Serif" font-size="10.00">double</text>
</g>
<!-- Node25&#45;&gt;Node23 -->
<g id="edge48" class="edge"><title>Node25&#45;&gt;Node23</title>
<path fill="none" stroke="#9a32cd" stroke-dasharray="5,2" d="M245.01,-436.389C276.108,-431.6 323.795,-423.102 364,-411 381.319,-405.787 400.186,-397.973 414.401,-391.628"/>
<polygon fill="#9a32cd" stroke="#9a32cd" points="244.113,-432.984 234.742,-437.928 245.15,-439.907 244.113,-432.984"/>
<text text-anchor="middle" x="324" y="-459" font-family="Helvetica,sans-Serif" font-size="10.00">cusp_angle</text>
<text text-anchor="middle" x="324" y="-446" font-family="Helvetica,sans-Serif" font-size="10.00">crossing_distance</text>
<text text-anchor="middle" x="324" y="-433" font-family="Helvetica,sans-Serif" font-size="10.00">handle_length</text>
</g>
<!-- Node26 -->
<g id="node50" class="node"><title>Node26</title>
<polygon fill="none" stroke="#bfbfbf" points="158.5,-390.5 158.5,-411.5 265.5,-411.5 265.5,-390.5 158.5,-390.5"/>
<text text-anchor="middle" x="212" y="-398.5" font-family="Helvetica,sans-Serif" font-size="10.00">QPainterPathStroker</text>
</g>
<!-- Node26&#45;&gt;Node23 -->
<g id="edge50" class="edge"><title>Node26&#45;&gt;Node23</title>
<path fill="none" stroke="#9a32cd" stroke-dasharray="5,2" d="M275.825,-395.327C318.144,-391.565 371.848,-386.791 405.324,-383.816"/>
<polygon fill="#9a32cd" stroke="#9a32cd" points="275.258,-391.863 265.607,-396.235 275.878,-398.836 275.258,-391.863"/>
<text text-anchor="middle" x="324" y="-398" font-family="Helvetica,sans-Serif" font-size="10.00">stroker</text>
</g>
<!-- Node27 -->
<g id="node52" class="node"><title>Node27</title>
<polygon fill="none" stroke="#bfbfbf" points="174.5,-350.5 174.5,-371.5 249.5,-371.5 249.5,-350.5 174.5,-350.5"/>
<text text-anchor="middle" x="212" y="-358.5" font-family="Helvetica,sans-Serif" font-size="10.00">QPainterPath</text>
</g>
<!-- Node27&#45;&gt;Node23 -->
<g id="edge52" class="edge"><title>Node27&#45;&gt;Node23</title>
<path fill="none" stroke="#9a32cd" stroke-dasharray="5,2" d="M259.727,-363.276C289.709,-364.919 329.166,-367.473 364,-371 377.618,-372.379 392.605,-374.352 405.438,-376.182"/>
<polygon fill="#9a32cd" stroke="#9a32cd" points="259.713,-359.77 249.541,-362.732 259.34,-366.76 259.713,-359.77"/>
<text text-anchor="middle" x="324" y="-375" font-family="Helvetica,sans-Serif" font-size="10.00">knot</text>
</g>
<!-- Node28 -->
<g id="node55" class="node"><title>Node28</title>
<polygon fill="none" stroke="#bfbfbf" points="194.5,-310.5 194.5,-331.5 229.5,-331.5 229.5,-310.5 194.5,-310.5"/>
<text text-anchor="middle" x="212" y="-318.5" font-family="Helvetica,sans-Serif" font-size="10.00">long</text>
</g>
<!-- Node28&#45;&gt;Node23 -->
<g id="edge56" class="edge"><title>Node28&#45;&gt;Node23</title>
<path fill="none" stroke="#9a32cd" stroke-dasharray="5,2" d="M239.707,-323.5C270.577,-326.798 321.709,-333.795 364,-347 383.084,-352.959 403.626,-362.869 418.042,-370.458"/>
<polygon fill="#9a32cd" stroke="#9a32cd" points="239.982,-320.01 229.68,-322.484 239.276,-326.975 239.982,-320.01"/>
<text text-anchor="middle" x="324" y="-351" font-family="Helvetica,sans-Serif" font-size="10.00">curve_style</text>
</g>
<!-- Node29 -->
<g id="node57" class="node"><title>Node29</title>
<polygon fill="none" stroke="#bfbfbf" points="168,-260.5 168,-281.5 256,-281.5 256,-260.5 168,-260.5"/>
<text text-anchor="middle" x="212" y="-268.5" font-family="Helvetica,sans-Serif" font-size="10.00">QList&lt; Node * &gt;</text>
</g>
<!-- Node29&#45;&gt;Node10 -->
<g id="edge60" class="edge"><title>Node29&#45;&gt;Node10</title>
<path fill="none" stroke="#9a32cd" stroke-dasharray="5,2" d="M266.278,-269.645C338.001,-266.475 467.473,-255.935 572,-221 580.68,-218.099 581.927,-215.311 590,-211 595.772,-207.918 602.068,-204.649 607.883,-201.667"/>
<polygon fill="#9a32cd" stroke="#9a32cd" points="265.973,-266.155 256.125,-270.061 266.26,-273.149 265.973,-266.155"/>
<text text-anchor="middle" x="437" y="-265" font-family="Helvetica,sans-Serif" font-size="10.00">moved_nodes</text>
</g>
<!-- Node29&#45;&gt;Node23 -->
<g id="edge58" class="edge"><title>Node29&#45;&gt;Node23</title>
<path fill="none" stroke="#9a32cd" stroke-dasharray="5,2" d="M266.047,-278.869C296.256,-284.873 333.788,-295.087 364,-312 391.39,-327.334 416.353,-355.217 428.761,-370.421"/>
<polygon fill="#9a32cd" stroke="#9a32cd" points="266.58,-275.408 256.104,-276.991 265.281,-282.286 266.58,-275.408"/>
<text text-anchor="middle" x="324" y="-316" font-family="Helvetica,sans-Serif" font-size="10.00">nodes</text>
</g>
<!-- Node30 -->
<g id="node60" class="node"><title>Node30</title>
<polygon fill="none" stroke="#bfbfbf" points="404.5,-0.5 404.5,-21.5 469.5,-21.5 469.5,-0.5 404.5,-0.5"/>
<text text-anchor="middle" x="437" y="-8.5" font-family="Helvetica,sans-Serif" font-size="10.00">mode_type</text>
</g>
<!-- Node30&#45;&gt;Node10 -->
<g id="edge62" class="edge"><title>Node30&#45;&gt;Node10</title>
<path fill="none" stroke="#9a32cd" stroke-dasharray="5,2" d="M480.051,-10.7682C509.175,-12.8227 546.784,-20.0808 572,-42 615.06,-79.4303 625.729,-153.102 628.254,-180.452"/>
<polygon fill="#9a32cd" stroke="#9a32cd" points="479.914,-7.25628 469.744,-10.2292 479.548,-14.2467 479.914,-7.25628"/>
<text text-anchor="middle" x="541" y="-46" font-family="Helvetica,sans-Serif" font-size="10.00">mode</text>
</g>
</g>
</svg>
