<?xml version="1.0" encoding="UTF-8" standalone="no"?>
<!DOCTYPE svg PUBLIC "-//W3C//DTD SVG 1.1//EN"
 "http://www.w3.org/Graphics/SVG/1.1/DTD/svg11.dtd">
<!-- Generated by graphviz version 2.26.3 (20100126.1600)
 -->
<!-- Title: G Pages: 1 -->
<svg width="198pt" height="146pt"
 viewBox="0.00 0.00 198.00 146.00" xmlns="http://www.w3.org/2000/svg" xmlns:xlink="http://www.w3.org/1999/xlink">
<g id="graph1" class="graph" transform="scale(1 1) rotate(0) translate(4 142)">
<title>G</title>
<!-- Node1 -->
<g id="node1" class="node"><title>Node1</title>
<polygon fill="#bfbfbf" stroke="black" points="53.5,-0.5 53.5,-21.5 130.5,-21.5 130.5,-0.5 53.5,-0.5"/>
<text text-anchor="middle" x="92" y="-8.5" font-family="Helvetica,sans-Serif" font-size="10.00">Knot_Window</text>
</g>
<!-- Node2 -->
<g id="node2" class="node"><title>Node2</title>
<a xlink:href="classQMainWindow.html" target="_top" xlink:title="QMainWindow">
<polygon fill="none" stroke="black" points="0,-58.5 0,-79.5 80,-79.5 80,-58.5 0,-58.5"/>
<text text-anchor="middle" x="40" y="-66.5" font-family="Helvetica,sans-Serif" font-size="10.00">QMainWindow</text>
</a>
</g>
<!-- Node2&#45;&gt;Node1 -->
<g id="edge2" class="edge"><title>Node2&#45;&gt;Node1</title>
<path fill="none" stroke="midnightblue" d="M56.2904,-50.8299C64.9171,-41.2078 75.2092,-29.7282 82.5229,-21.5707"/>
<polygon fill="midnightblue" stroke="midnightblue" points="53.6071,-48.5798 49.5376,-58.3619 58.8191,-53.2526 53.6071,-48.5798"/>
</g>
<!-- Node3 -->
<g id="node4" class="node"><title>Node3</title>
<a xlink:href="classUi_1_1Knot__Window.html" target="_top" xlink:title="Ui::Knot_Window">
<polygon fill="none" stroke="black" points="97.5,-58.5 97.5,-79.5 190.5,-79.5 190.5,-58.5 97.5,-58.5"/>
<text text-anchor="middle" x="144" y="-66.5" font-family="Helvetica,sans-Serif" font-size="10.00">Ui::Knot_Window</text>
</a>
</g>
<!-- Node3&#45;&gt;Node1 -->
<g id="edge4" class="edge"><title>Node3&#45;&gt;Node1</title>
<path fill="none" stroke="#8b1a1a" d="M127.71,-50.8299C119.083,-41.2078 108.791,-29.7282 101.477,-21.5707"/>
<polygon fill="#8b1a1a" stroke="#8b1a1a" points="125.181,-53.2526 134.462,-58.3619 130.393,-48.5798 125.181,-53.2526"/>
</g>
<!-- Node4 -->
<g id="node6" class="node"><title>Node4</title>
<a xlink:href="classUi__Knot__Window.html" target="_top" xlink:title="Ui_Knot_Window">
<polygon fill="none" stroke="black" points="98,-116.5 98,-137.5 190,-137.5 190,-116.5 98,-116.5"/>
<text text-anchor="middle" x="144" y="-124.5" font-family="Helvetica,sans-Serif" font-size="10.00">Ui_Knot_Window</text>
</a>
</g>
<!-- Node4&#45;&gt;Node3 -->
<g id="edge6" class="edge"><title>Node4&#45;&gt;Node3</title>
<path fill="none" stroke="midnightblue" d="M144,-106.191C144,-97.1684 144,-86.9941 144,-79.5707"/>
<polygon fill="midnightblue" stroke="midnightblue" points="140.5,-106.362 144,-116.362 147.5,-106.362 140.5,-106.362"/>
</g>
</g>
</svg>
