<?xml version="1.0" encoding="UTF-8" standalone="no"?>
<!DOCTYPE svg PUBLIC "-//W3C//DTD SVG 1.1//EN"
 "http://www.w3.org/Graphics/SVG/1.1/DTD/svg11.dtd">
<!-- Generated by graphviz version 2.26.3 (20100126.1600)
 -->
<!-- Title: G Pages: 1 -->
<svg width="918pt" height="971pt"
 viewBox="0.00 0.00 918.00 971.00" xmlns="http://www.w3.org/2000/svg" xmlns:xlink="http://www.w3.org/1999/xlink">
<g id="graph1" class="graph" transform="scale(1 1) rotate(0) translate(4 967)">
<title>G</title>
<!-- Node1 -->
<g id="node1" class="node"><title>Node1</title>
<polygon fill="#bfbfbf" stroke="black" points="828,-676.5 828,-697.5 910,-697.5 910,-676.5 828,-676.5"/>
<text text-anchor="middle" x="869" y="-684.5" font-family="Helvetica,sans-Serif" font-size="10.00">Ui_StyleDialog</text>
</g>
<!-- Node2 -->
<g id="node2" class="node"><title>Node2</title>
<polygon fill="none" stroke="#bfbfbf" points="593,-880.5 593,-901.5 691,-901.5 691,-880.5 593,-880.5"/>
<text text-anchor="middle" x="642" y="-888.5" font-family="Helvetica,sans-Serif" font-size="10.00">QDoubleSpinBox *</text>
</g>
<!-- Node2&#45;&gt;Node1 -->
<g id="edge2" class="edge"><title>Node2&#45;&gt;Node1</title>
<path fill="none" stroke="#9a32cd" stroke-dasharray="5,2" d="M701.439,-898.001C736.733,-898.864 780.256,-893.738 810,-869 837.517,-846.115 860.515,-732.79 867.103,-697.506"/>
<polygon fill="#9a32cd" stroke="#9a32cd" points="701.384,-894.496 691.249,-897.583 701.098,-901.49 701.384,-894.496"/>
<text text-anchor="middle" x="761" y="-954" font-family="Helvetica,sans-Serif" font-size="10.00">outline_width_spinner</text>
<text text-anchor="middle" x="761" y="-941" font-family="Helvetica,sans-Serif" font-size="10.00">knot_width_spinner</text>
<text text-anchor="middle" x="761" y="-928" font-family="Helvetica,sans-Serif" font-size="10.00">handle_length_spinner</text>
<text text-anchor="middle" x="761" y="-915" font-family="Helvetica,sans-Serif" font-size="10.00">crossing_gap_spinner</text>
<text text-anchor="middle" x="761" y="-902" font-family="Helvetica,sans-Serif" font-size="10.00">cusp_angle_spinner</text>
</g>
<!-- Node3 -->
<g id="node4" class="node"><title>Node3</title>
<polygon fill="none" stroke="#bfbfbf" points="603,-831.5 603,-852.5 681,-852.5 681,-831.5 603,-831.5"/>
<text text-anchor="middle" x="642" y="-839.5" font-family="Helvetica,sans-Serif" font-size="10.00">QGridLayout *</text>
</g>
<!-- Node3&#45;&gt;Node1 -->
<g id="edge4" class="edge"><title>Node3&#45;&gt;Node1</title>
<path fill="none" stroke="#9a32cd" stroke-dasharray="5,2" d="M691.503,-840.791C734.195,-838.815 791.769,-833.623 810,-820 851.077,-789.305 864.108,-723.66 867.742,-697.795"/>
<polygon fill="#9a32cd" stroke="#9a32cd" points="691.122,-837.304 681.276,-841.217 691.413,-844.298 691.122,-837.304"/>
<text text-anchor="middle" x="761" y="-856" font-family="Helvetica,sans-Serif" font-size="10.00">gridLayout</text>
<text text-anchor="middle" x="761" y="-843" font-family="Helvetica,sans-Serif" font-size="10.00">gridLayout_2</text>
</g>
<!-- Node4 -->
<g id="node6" class="node"><title>Node4</title>
<polygon fill="none" stroke="#bfbfbf" points="602,-784.5 602,-805.5 682,-805.5 682,-784.5 602,-784.5"/>
<text text-anchor="middle" x="642" y="-792.5" font-family="Helvetica,sans-Serif" font-size="10.00">QComboBox *</text>
</g>
<!-- Node4&#45;&gt;Node1 -->
<g id="edge6" class="edge"><title>Node4&#45;&gt;Node1</title>
<path fill="none" stroke="#9a32cd" stroke-dasharray="5,2" d="M692.461,-792.187C734.609,-789.047 790.8,-782.776 810,-771 838.711,-753.39 857.187,-715.997 864.891,-697.631"/>
<polygon fill="#9a32cd" stroke="#9a32cd" points="692.079,-788.706 682.35,-792.902 692.572,-795.688 692.079,-788.706"/>
<text text-anchor="middle" x="761" y="-807" font-family="Helvetica,sans-Serif" font-size="10.00">point_combo</text>
<text text-anchor="middle" x="761" y="-794" font-family="Helvetica,sans-Serif" font-size="10.00">style_combo</text>
</g>
<!-- Node5 -->
<g id="node8" class="node"><title>Node5</title>
<polygon fill="none" stroke="#bfbfbf" points="605,-744.5 605,-765.5 679,-765.5 679,-744.5 605,-744.5"/>
<text text-anchor="middle" x="642" y="-752.5" font-family="Helvetica,sans-Serif" font-size="10.00">QGroupBox *</text>
</g>
<!-- Node5&#45;&gt;Node1 -->
<g id="edge8" class="edge"><title>Node5&#45;&gt;Node1</title>
<path fill="none" stroke="#9a32cd" stroke-dasharray="5,2" d="M689.552,-756.311C724.221,-755.633 771.642,-751.25 810,-735 829.94,-726.552 848.546,-709.229 859.343,-697.869"/>
<polygon fill="#9a32cd" stroke="#9a32cd" points="689.192,-752.814 679.227,-756.411 689.26,-759.814 689.192,-752.814"/>
<text text-anchor="middle" x="761" y="-759" font-family="Helvetica,sans-Serif" font-size="10.00">groupBox</text>
</g>
<!-- Node6 -->
<g id="node10" class="node"><title>Node6</title>
<polygon fill="none" stroke="#bfbfbf" points="615,-608.5 615,-629.5 669,-629.5 669,-608.5 615,-608.5"/>
<text text-anchor="middle" x="642" y="-616.5" font-family="Helvetica,sans-Serif" font-size="10.00">QLabel *</text>
</g>
<!-- Node6&#45;&gt;Node1 -->
<g id="edge10" class="edge"><title>Node6&#45;&gt;Node1</title>
<path fill="none" stroke="#9a32cd" stroke-dasharray="5,2" d="M679.085,-608.546C714.526,-600.648 768.54,-594.2 810,-614 837.204,-626.991 855.901,-659.329 864.18,-676.267"/>
<polygon fill="#9a32cd" stroke="#9a32cd" points="678.083,-605.187 669.163,-610.904 679.701,-611.997 678.083,-605.187"/>
<text text-anchor="middle" x="761" y="-722" font-family="Helvetica,sans-Serif" font-size="10.00">label_2</text>
<text text-anchor="middle" x="761" y="-709" font-family="Helvetica,sans-Serif" font-size="10.00">label_3</text>
<text text-anchor="middle" x="761" y="-696" font-family="Helvetica,sans-Serif" font-size="10.00">label_4</text>
<text text-anchor="middle" x="761" y="-683" font-family="Helvetica,sans-Serif" font-size="10.00">label_5</text>
<text text-anchor="middle" x="761" y="-670" font-family="Helvetica,sans-Serif" font-size="10.00">label_6</text>
<text text-anchor="middle" x="761" y="-657" font-family="Helvetica,sans-Serif" font-size="10.00">label_7</text>
<text text-anchor="middle" x="761" y="-644" font-family="Helvetica,sans-Serif" font-size="10.00">label_8</text>
<text text-anchor="middle" x="761" y="-631" font-family="Helvetica,sans-Serif" font-size="10.00">label_9</text>
<text text-anchor="middle" x="761" y="-618" font-family="Helvetica,sans-Serif" font-size="10.00">label</text>
</g>
<!-- Node7 -->
<g id="node12" class="node"><title>Node7</title>
<polygon fill="none" stroke="#bfbfbf" points="590,-568.5 590,-589.5 694,-589.5 694,-568.5 590,-568.5"/>
<text text-anchor="middle" x="642" y="-576.5" font-family="Helvetica,sans-Serif" font-size="10.00">QDialogButtonBox *</text>
</g>
<!-- Node7&#45;&gt;Node1 -->
<g id="edge12" class="edge"><title>Node7&#45;&gt;Node1</title>
<path fill="none" stroke="#9a32cd" stroke-dasharray="5,2" d="M698.113,-567.072C732.737,-562.773 776.734,-563.092 810,-583 845.091,-604 861.113,-654.266 866.635,-676.32"/>
<polygon fill="#9a32cd" stroke="#9a32cd" points="697.572,-563.613 688.153,-568.465 698.542,-570.546 697.572,-563.613"/>
<text text-anchor="middle" x="761" y="-587" font-family="Helvetica,sans-Serif" font-size="10.00">buttonBox</text>
</g>
<!-- Node8 -->
<g id="node14" class="node"><title>Node8</title>
<a xlink:href="classColorWidget.html" target="_top" xlink:title="ColorWidget">
<polygon fill="none" stroke="black" points="606.5,-524.5 606.5,-545.5 677.5,-545.5 677.5,-524.5 606.5,-524.5"/>
<text text-anchor="middle" x="642" y="-532.5" font-family="Helvetica,sans-Serif" font-size="10.00">ColorWidget</text>
</a>
</g>
<!-- Node8&#45;&gt;Node1 -->
<g id="edge14" class="edge"><title>Node8&#45;&gt;Node1</title>
<path fill="none" stroke="#9a32cd" stroke-dasharray="5,2" d="M685.074,-522.102C721.569,-513.925 773.618,-509.036 810,-534 834.766,-550.993 858.787,-643.913 866.467,-676.055"/>
<polygon fill="#9a32cd" stroke="#9a32cd" points="684.123,-518.731 675.219,-524.474 685.761,-525.537 684.123,-518.731"/>
<text text-anchor="middle" x="761" y="-551" font-family="Helvetica,sans-Serif" font-size="10.00">outline_color</text>
<text text-anchor="middle" x="761" y="-538" font-family="Helvetica,sans-Serif" font-size="10.00">color</text>
</g>
<!-- Node9 -->
<g id="node16" class="node"><title>Node9</title>
<a xlink:href="classQLineEdit.html" target="_top" xlink:title="QLineEdit">
<polygon fill="none" stroke="black" points="407.5,-564.5 407.5,-585.5 466.5,-585.5 466.5,-564.5 407.5,-564.5"/>
<text text-anchor="middle" x="437" y="-572.5" font-family="Helvetica,sans-Serif" font-size="10.00">QLineEdit</text>
</a>
</g>
<!-- Node9&#45;&gt;Node8 -->
<g id="edge16" class="edge"><title>Node9&#45;&gt;Node8</title>
<path fill="none" stroke="midnightblue" d="M476.811,-568.963C503.767,-564.692 540.138,-558.575 572,-552 583.268,-549.675 595.478,-546.825 606.497,-544.129"/>
<polygon fill="midnightblue" stroke="midnightblue" points="475.943,-565.556 466.606,-570.562 477.027,-572.471 475.943,-565.556"/>
</g>
<!-- Node10 -->
<g id="node18" class="node"><title>Node10</title>
<polygon fill="none" stroke="#bfbfbf" points="399.5,-524.5 399.5,-545.5 474.5,-545.5 474.5,-524.5 399.5,-524.5"/>
<text text-anchor="middle" x="437" y="-532.5" font-family="Helvetica,sans-Serif" font-size="10.00">QColorDialog</text>
</g>
<!-- Node10&#45;&gt;Node8 -->
<g id="edge18" class="edge"><title>Node10&#45;&gt;Node8</title>
<path fill="none" stroke="#9a32cd" stroke-dasharray="5,2" d="M484.698,-535C521.868,-535 572.659,-535 606.354,-535"/>
<polygon fill="#9a32cd" stroke="#9a32cd" points="484.6,-531.5 474.6,-535 484.6,-538.5 484.6,-531.5"/>
<text text-anchor="middle" x="541" y="-539" font-family="Helvetica,sans-Serif" font-size="10.00">color_dialog</text>
</g>
<!-- Node11 -->
<g id="node20" class="node"><title>Node11</title>
<a xlink:href="classKnotView.html" target="_top" xlink:title="KnotView">
<polygon fill="none" stroke="black" points="612.5,-200.5 612.5,-221.5 671.5,-221.5 671.5,-200.5 612.5,-200.5"/>
<text text-anchor="middle" x="642" y="-208.5" font-family="Helvetica,sans-Serif" font-size="10.00">KnotView</text>
</a>
</g>
<!-- Node11&#45;&gt;Node1 -->
<g id="edge20" class="edge"><title>Node11&#45;&gt;Node1</title>
<path fill="none" stroke="#9a32cd" stroke-dasharray="5,2" d="M655.349,-230.224C686.134,-275.244 763.051,-391.754 810,-498 838.898,-563.398 859.786,-647.294 866.603,-676.456"/>
<polygon fill="#9a32cd" stroke="#9a32cd" points="658.059,-227.987 649.508,-221.732 652.292,-231.954 658.059,-227.987"/>
<text text-anchor="middle" x="761" y="-502" font-family="Helvetica,sans-Serif" font-size="10.00">preview</text>
</g>
<!-- Node12 -->
<g id="node22" class="node"><title>Node12</title>
<a xlink:href="classQGraphicsView.html" target="_top" xlink:title="QGraphicsView">
<polygon fill="none" stroke="black" points="394.5,-484.5 394.5,-505.5 479.5,-505.5 479.5,-484.5 394.5,-484.5"/>
<text text-anchor="middle" x="437" y="-492.5" font-family="Helvetica,sans-Serif" font-size="10.00">QGraphicsView</text>
</a>
</g>
<!-- Node12&#45;&gt;Node11 -->
<g id="edge22" class="edge"><title>Node12&#45;&gt;Node11</title>
<path fill="none" stroke="midnightblue" d="M481.225,-480.522C484.948,-478.824 488.589,-476.983 492,-475 532.342,-451.545 545.472,-445.391 572,-407 615.136,-344.575 634.606,-252.675 640.21,-221.664"/>
<polygon fill="midnightblue" stroke="midnightblue" points="479.75,-477.345 471.884,-484.442 482.46,-483.799 479.75,-477.345"/>
</g>
<!-- Node13 -->
<g id="node24" class="node"><title>Node13</title>
<a xlink:href="classNode.html" target="_top" xlink:title="Node">
<polygon fill="none" stroke="black" points="417,-444.5 417,-465.5 457,-465.5 457,-444.5 417,-444.5"/>
<text text-anchor="middle" x="437" y="-452.5" font-family="Helvetica,sans-Serif" font-size="10.00">Node</text>
</a>
</g>
<!-- Node13&#45;&gt;Node11 -->
<g id="edge24" class="edge"><title>Node13&#45;&gt;Node11</title>
<path fill="none" stroke="#9a32cd" stroke-dasharray="5,2" d="M458.876,-437.684C487.148,-414.617 536.901,-371.623 572,-328 600.935,-292.038 626.404,-242.977 636.899,-221.638"/>
<polygon fill="#9a32cd" stroke="#9a32cd" points="456.412,-435.175 450.832,-444.182 460.81,-440.621 456.412,-435.175"/>
<text text-anchor="middle" x="541" y="-394" font-family="Helvetica,sans-Serif" font-size="10.00">last_node</text>
</g>
<!-- Node14 -->
<g id="node26" class="node"><title>Node14</title>
<a xlink:href="classCustomItem.html" target="_top" xlink:title="CustomItem">
<polygon fill="none" stroke="black" points="176.5,-604.5 176.5,-625.5 247.5,-625.5 247.5,-604.5 176.5,-604.5"/>
<text text-anchor="middle" x="212" y="-612.5" font-family="Helvetica,sans-Serif" font-size="10.00">CustomItem</text>
</a>
</g>
<!-- Node14&#45;&gt;Node13 -->
<g id="edge26" class="edge"><title>Node14&#45;&gt;Node13</title>
<path fill="none" stroke="midnightblue" d="M257.737,-622.257C291.64,-624.849 336.551,-621.958 364,-595 402.477,-557.212 347.861,-516.749 382,-475 390.49,-464.618 404.847,-459.625 416.764,-457.224"/>
<polygon fill="midnightblue" stroke="midnightblue" points="257.886,-618.756 247.6,-621.297 257.226,-625.725 257.886,-618.756"/>
</g>
<!-- Node15 -->
<g id="node28" class="node"><title>Node15</title>
<a xlink:href="classQGraphicsItem.html" target="_top" xlink:title="QGraphicsItem">
<polygon fill="none" stroke="black" points="0.5,-624.5 0.5,-645.5 83.5,-645.5 83.5,-624.5 0.5,-624.5"/>
<text text-anchor="middle" x="42" y="-632.5" font-family="Helvetica,sans-Serif" font-size="10.00">QGraphicsItem</text>
</a>
</g>
<!-- Node15&#45;&gt;Node14 -->
<g id="edge28" class="edge"><title>Node15&#45;&gt;Node14</title>
<path fill="none" stroke="midnightblue" d="M93.5537,-628.935C120.304,-625.788 152.312,-622.022 176.307,-619.199"/>
<polygon fill="midnightblue" stroke="midnightblue" points="93.1092,-625.463 83.5867,-630.107 93.9272,-632.415 93.1092,-625.463"/>
</g>
<!-- Node16 -->
<g id="node30" class="node"><title>Node16</title>
<polygon fill="none" stroke="#bfbfbf" points="24.5,-584.5 24.5,-605.5 59.5,-605.5 59.5,-584.5 24.5,-584.5"/>
<text text-anchor="middle" x="42" y="-592.5" font-family="Helvetica,sans-Serif" font-size="10.00">bool</text>
</g>
<!-- Node16&#45;&gt;Node14 -->
<g id="edge30" class="edge"><title>Node16&#45;&gt;Node14</title>
<path fill="none" stroke="#9a32cd" stroke-dasharray="5,2" d="M69.7979,-598.026C89.4223,-600.185 116.331,-603.192 140,-606 151.884,-607.41 164.863,-609.012 176.488,-610.471"/>
<polygon fill="#9a32cd" stroke="#9a32cd" points="70.0336,-594.531 59.7117,-596.92 69.2707,-601.489 70.0336,-594.531"/>
<text text-anchor="middle" x="121" y="-610" font-family="Helvetica,sans-Serif" font-size="10.00">highlight</text>
</g>
<!-- Node17 -->
<g id="node32" class="node"><title>Node17</title>
<polygon fill="none" stroke="#bfbfbf" points="197.5,-564.5 197.5,-585.5 226.5,-585.5 226.5,-564.5 197.5,-564.5"/>
<text text-anchor="middle" x="212" y="-572.5" font-family="Helvetica,sans-Serif" font-size="10.00">int</text>
</g>
<!-- Node17&#45;&gt;Node13 -->
<g id="edge32" class="edge"><title>Node17&#45;&gt;Node13</title>
<path fill="none" stroke="#9a32cd" stroke-dasharray="5,2" d="M237.103,-578.587C270.551,-581.85 329.514,-582.071 364,-550 389.102,-526.655 359.171,-500.572 382,-475 390.864,-465.071 405.058,-460.067 416.807,-457.547"/>
<polygon fill="#9a32cd" stroke="#9a32cd" points="237.143,-575.069 226.809,-577.406 236.345,-582.023 237.143,-575.069"/>
<text text-anchor="middle" x="324" y="-583" font-family="Helvetica,sans-Serif" font-size="10.00">radius</text>
</g>
<!-- Node18 -->
<g id="node34" class="node"><title>Node18</title>
<polygon fill="none" stroke="#bfbfbf" points="168.5,-505.5 168.5,-526.5 255.5,-526.5 255.5,-505.5 168.5,-505.5"/>
<text text-anchor="middle" x="212" y="-513.5" font-family="Helvetica,sans-Serif" font-size="10.00">QList&lt; Edge * &gt;</text>
</g>
<!-- Node18&#45;&gt;Node13 -->
<g id="edge34" class="edge"><title>Node18&#45;&gt;Node13</title>
<path fill="none" stroke="#9a32cd" stroke-dasharray="5,2" d="M257.197,-528.735C289.573,-535.077 332.789,-537.58 364,-517 380.955,-505.82 367.242,-488.952 382,-475 391.524,-465.996 405.416,-460.988 416.854,-458.235"/>
<polygon fill="#9a32cd" stroke="#9a32cd" points="257.607,-525.243 247.095,-526.566 256.138,-532.087 257.607,-525.243"/>
<text text-anchor="middle" x="324" y="-537" font-family="Helvetica,sans-Serif" font-size="10.00">edges</text>
</g>
<!-- Node24 -->
<g id="node46" class="node"><title>Node24</title>
<a xlink:href="classKnotGraph.html" target="_top" xlink:title="KnotGraph">
<polygon fill="none" stroke="black" points="405.5,-338.5 405.5,-359.5 468.5,-359.5 468.5,-338.5 405.5,-338.5"/>
<text text-anchor="middle" x="437" y="-346.5" font-family="Helvetica,sans-Serif" font-size="10.00">KnotGraph</text>
</a>
</g>
<!-- Node18&#45;&gt;Node24 -->
<g id="edge56" class="edge"><title>Node18&#45;&gt;Node24</title>
<path fill="none" stroke="#9a32cd" stroke-dasharray="5,2" d="M245.995,-501.471C257.914,-496.601 271.457,-491.316 284,-487 318.983,-474.962 334.495,-486.319 364,-464 376.098,-454.848 373.913,-447.835 382,-435 399.195,-407.71 419.74,-375.756 430.18,-359.563"/>
<polygon fill="#9a32cd" stroke="#9a32cd" points="244.323,-498.375 236.423,-505.434 247.001,-504.843 244.323,-498.375"/>
<text text-anchor="middle" x="324" y="-504" font-family="Helvetica,sans-Serif" font-size="10.00">traversed_edges</text>
<text text-anchor="middle" x="324" y="-491" font-family="Helvetica,sans-Serif" font-size="10.00">edges</text>
</g>
<!-- Node19 -->
<g id="node36" class="node"><title>Node19</title>
<polygon fill="none" stroke="#bfbfbf" points="400.5,-200.5 400.5,-221.5 473.5,-221.5 473.5,-200.5 400.5,-200.5"/>
<text text-anchor="middle" x="437" y="-208.5" font-family="Helvetica,sans-Serif" font-size="10.00">QUndoStack</text>
</g>
<!-- Node19&#45;&gt;Node11 -->
<g id="edge36" class="edge"><title>Node19&#45;&gt;Node11</title>
<path fill="none" stroke="#9a32cd" stroke-dasharray="5,2" d="M483.832,-211C523.328,-211 578.653,-211 612.314,-211"/>
<polygon fill="#9a32cd" stroke="#9a32cd" points="483.65,-207.5 473.65,-211 483.65,-214.5 483.65,-207.5"/>
<text text-anchor="middle" x="541" y="-215" font-family="Helvetica,sans-Serif" font-size="10.00">undo_stack</text>
</g>
<!-- Node20 -->
<g id="node38" class="node"><title>Node20</title>
<polygon fill="none" stroke="#bfbfbf" points="386,-160.5 386,-181.5 488,-181.5 488,-160.5 386,-160.5"/>
<text text-anchor="middle" x="437" y="-168.5" font-family="Helvetica,sans-Serif" font-size="10.00">mouse_status_type</text>
</g>
<!-- Node20&#45;&gt;Node11 -->
<g id="edge38" class="edge"><title>Node20&#45;&gt;Node11</title>
<path fill="none" stroke="#9a32cd" stroke-dasharray="5,2" d="M498.173,-180.498C521.363,-184.341 547.965,-189.04 572,-194 585.35,-196.755 600.022,-200.246 612.47,-203.346"/>
<polygon fill="#9a32cd" stroke="#9a32cd" points="498.555,-177.014 488.121,-178.85 497.423,-183.922 498.555,-177.014"/>
<text text-anchor="middle" x="541" y="-198" font-family="Helvetica,sans-Serif" font-size="10.00">mouse_status</text>
</g>
<!-- Node21 -->
<g id="node40" class="node"><title>Node21</title>
<polygon fill="none" stroke="#bfbfbf" points="410.5,-120.5 410.5,-141.5 463.5,-141.5 463.5,-120.5 410.5,-120.5"/>
<text text-anchor="middle" x="437" y="-128.5" font-family="Helvetica,sans-Serif" font-size="10.00">QPointF</text>
</g>
<!-- Node21&#45;&gt;Node11 -->
<g id="edge40" class="edge"><title>Node21&#45;&gt;Node11</title>
<path fill="none" stroke="#9a32cd" stroke-dasharray="5,2" d="M473.772,-137.25C501.526,-142.741 540.137,-152.056 572,-166 593.044,-175.209 614.951,-190.338 628.53,-200.481"/>
<polygon fill="#9a32cd" stroke="#9a32cd" points="474.182,-133.765 463.703,-135.331 472.871,-140.641 474.182,-133.765"/>
<text text-anchor="middle" x="541" y="-170" font-family="Helvetica,sans-Serif" font-size="10.00">oldpos</text>
</g>
<!-- Node22 -->
<g id="node42" class="node"><title>Node22</title>
<polygon fill="none" stroke="#bfbfbf" points="382,-80.5 382,-101.5 492,-101.5 492,-80.5 382,-80.5"/>
<text text-anchor="middle" x="437" y="-88.5" font-family="Helvetica,sans-Serif" font-size="10.00">QGraphicsRectItem *</text>
</g>
<!-- Node22&#45;&gt;Node11 -->
<g id="edge42" class="edge"><title>Node22&#45;&gt;Node11</title>
<path fill="none" stroke="#9a32cd" stroke-dasharray="5,2" d="M502.117,-101.187C525.432,-106.872 551.094,-115.621 572,-129 601.482,-147.867 625.244,-182.925 635.911,-200.452"/>
<polygon fill="#9a32cd" stroke="#9a32cd" points="502.818,-97.7567 492.289,-98.9331 501.253,-104.58 502.818,-97.7567"/>
<text text-anchor="middle" x="541" y="-133" font-family="Helvetica,sans-Serif" font-size="10.00">rubberband</text>
</g>
<!-- Node23 -->
<g id="node44" class="node"><title>Node23</title>
<polygon fill="none" stroke="#bfbfbf" points="383.5,-40.5 383.5,-61.5 490.5,-61.5 490.5,-40.5 383.5,-40.5"/>
<text text-anchor="middle" x="437" y="-48.5" font-family="Helvetica,sans-Serif" font-size="10.00">QGraphicsLineItem *</text>
</g>
<!-- Node23&#45;&gt;Node11 -->
<g id="edge44" class="edge"><title>Node23&#45;&gt;Node11</title>
<path fill="none" stroke="#9a32cd" stroke-dasharray="5,2" d="M500.551,-57.3354C524.853,-62.3258 551.601,-71.2096 572,-87 611.097,-117.265 631.83,-175.924 639.029,-200.14"/>
<polygon fill="#9a32cd" stroke="#9a32cd" points="501.142,-53.8853 490.669,-55.4865 499.855,-60.7659 501.142,-53.8853"/>
<text text-anchor="middle" x="541" y="-91" font-family="Helvetica,sans-Serif" font-size="10.00">guide</text>
</g>
<!-- Node24&#45;&gt;Node11 -->
<g id="edge46" class="edge"><title>Node24&#45;&gt;Node11</title>
<path fill="none" stroke="#9a32cd" stroke-dasharray="5,2" d="M467.304,-333.93C495.371,-319.465 537.809,-296.285 572,-272 594.342,-256.132 617.879,-234.439 631.172,-221.655"/>
<polygon fill="#9a32cd" stroke="#9a32cd" points="465.685,-330.827 458.37,-338.49 468.868,-337.061 465.685,-330.827"/>
<text text-anchor="middle" x="541" y="-315" font-family="Helvetica,sans-Serif" font-size="10.00">knot</text>
</g>
<!-- Node25 -->
<g id="node48" class="node"><title>Node25</title>
<a xlink:href="classQGraphicsPathItem.html" target="_top" xlink:title="QGraphicsPathItem">
<polygon fill="none" stroke="black" points="160.5,-446.5 160.5,-467.5 263.5,-467.5 263.5,-446.5 160.5,-446.5"/>
<text text-anchor="middle" x="212" y="-454.5" font-family="Helvetica,sans-Serif" font-size="10.00">QGraphicsPathItem</text>
</a>
</g>
<!-- Node25&#45;&gt;Node24 -->
<g id="edge48" class="edge"><title>Node25&#45;&gt;Node24</title>
<path fill="none" stroke="midnightblue" d="M273.563,-460.658C302.586,-459.831 336.739,-455.001 364,-440 398.07,-421.253 422.097,-379.439 431.982,-359.704"/>
<polygon fill="midnightblue" stroke="midnightblue" points="273.482,-457.158 263.531,-460.793 273.577,-464.158 273.482,-457.158"/>
</g>
<!-- Node26 -->
<g id="node50" class="node"><title>Node26</title>
<polygon fill="none" stroke="#bfbfbf" points="189.5,-398.5 189.5,-419.5 234.5,-419.5 234.5,-398.5 189.5,-398.5"/>
<text text-anchor="middle" x="212" y="-406.5" font-family="Helvetica,sans-Serif" font-size="10.00">double</text>
</g>
<!-- Node26&#45;&gt;Node24 -->
<g id="edge50" class="edge"><title>Node26&#45;&gt;Node24</title>
<path fill="none" stroke="#9a32cd" stroke-dasharray="5,2" d="M245.01,-404.389C276.108,-399.6 323.795,-391.102 364,-379 381.319,-373.787 400.186,-365.973 414.401,-359.628"/>
<polygon fill="#9a32cd" stroke="#9a32cd" points="244.113,-400.984 234.742,-405.928 245.15,-407.907 244.113,-400.984"/>
<text text-anchor="middle" x="324" y="-427" font-family="Helvetica,sans-Serif" font-size="10.00">cusp_angle</text>
<text text-anchor="middle" x="324" y="-414" font-family="Helvetica,sans-Serif" font-size="10.00">crossing_distance</text>
<text text-anchor="middle" x="324" y="-401" font-family="Helvetica,sans-Serif" font-size="10.00">handle_length</text>
</g>
<!-- Node27 -->
<g id="node52" class="node"><title>Node27</title>
<polygon fill="none" stroke="#bfbfbf" points="158.5,-358.5 158.5,-379.5 265.5,-379.5 265.5,-358.5 158.5,-358.5"/>
<text text-anchor="middle" x="212" y="-366.5" font-family="Helvetica,sans-Serif" font-size="10.00">QPainterPathStroker</text>
</g>
<!-- Node27&#45;&gt;Node24 -->
<g id="edge52" class="edge"><title>Node27&#45;&gt;Node24</title>
<path fill="none" stroke="#9a32cd" stroke-dasharray="5,2" d="M275.825,-363.327C318.144,-359.565 371.848,-354.791 405.324,-351.816"/>
<polygon fill="#9a32cd" stroke="#9a32cd" points="275.258,-359.863 265.607,-364.235 275.878,-366.836 275.258,-359.863"/>
<text text-anchor="middle" x="324" y="-366" font-family="Helvetica,sans-Serif" font-size="10.00">stroker</text>
</g>
<!-- Node28 -->
<g id="node54" class="node"><title>Node28</title>
<polygon fill="none" stroke="#bfbfbf" points="174.5,-318.5 174.5,-339.5 249.5,-339.5 249.5,-318.5 174.5,-318.5"/>
<text text-anchor="middle" x="212" y="-326.5" font-family="Helvetica,sans-Serif" font-size="10.00">QPainterPath</text>
</g>
<!-- Node28&#45;&gt;Node24 -->
<g id="edge54" class="edge"><title>Node28&#45;&gt;Node24</title>
<path fill="none" stroke="#9a32cd" stroke-dasharray="5,2" d="M259.727,-331.276C289.709,-332.919 329.166,-335.473 364,-339 377.618,-340.379 392.605,-342.352 405.438,-344.182"/>
<polygon fill="#9a32cd" stroke="#9a32cd" points="259.713,-327.77 249.541,-330.732 259.34,-334.76 259.713,-327.77"/>
<text text-anchor="middle" x="324" y="-343" font-family="Helvetica,sans-Serif" font-size="10.00">knot</text>
</g>
<!-- Node29 -->
<g id="node57" class="node"><title>Node29</title>
<polygon fill="none" stroke="#bfbfbf" points="194.5,-278.5 194.5,-299.5 229.5,-299.5 229.5,-278.5 194.5,-278.5"/>
<text text-anchor="middle" x="212" y="-286.5" font-family="Helvetica,sans-Serif" font-size="10.00">long</text>
</g>
<!-- Node29&#45;&gt;Node24 -->
<g id="edge58" class="edge"><title>Node29&#45;&gt;Node24</title>
<path fill="none" stroke="#9a32cd" stroke-dasharray="5,2" d="M239.707,-291.5C270.577,-294.798 321.709,-301.795 364,-315 383.084,-320.959 403.626,-330.869 418.042,-338.458"/>
<polygon fill="#9a32cd" stroke="#9a32cd" points="239.982,-288.01 229.68,-290.484 239.276,-294.975 239.982,-288.01"/>
<text text-anchor="middle" x="324" y="-319" font-family="Helvetica,sans-Serif" font-size="10.00">curve_style</text>
</g>
<!-- Node30 -->
<g id="node59" class="node"><title>Node30</title>
<polygon fill="none" stroke="#bfbfbf" points="168,-228.5 168,-249.5 256,-249.5 256,-228.5 168,-228.5"/>
<text text-anchor="middle" x="212" y="-236.5" font-family="Helvetica,sans-Serif" font-size="10.00">QList&lt; Node * &gt;</text>
</g>
<!-- Node30&#45;&gt;Node11 -->
<g id="edge62" class="edge"><title>Node30&#45;&gt;Node11</title>
<path fill="none" stroke="#9a32cd" stroke-dasharray="5,2" d="M266.041,-240.941C336.73,-242.661 464.265,-242.947 572,-228 585.378,-226.144 599.927,-222.828 612.278,-219.615"/>
<polygon fill="#9a32cd" stroke="#9a32cd" points="266.122,-237.442 256.034,-240.679 265.938,-244.44 266.122,-237.442"/>
<text text-anchor="middle" x="437" y="-246" font-family="Helvetica,sans-Serif" font-size="10.00">moved_nodes</text>
</g>
<!-- Node30&#45;&gt;Node24 -->
<g id="edge60" class="edge"><title>Node30&#45;&gt;Node24</title>
<path fill="none" stroke="#9a32cd" stroke-dasharray="5,2" d="M266.001,-247.369C296.195,-253.617 333.728,-264.076 364,-281 391.061,-296.129 415.969,-323.347 428.505,-338.351"/>
<polygon fill="#9a32cd" stroke="#9a32cd" points="266.552,-243.91 256.063,-245.408 265.197,-250.778 266.552,-243.91"/>
<text text-anchor="middle" x="324" y="-285" font-family="Helvetica,sans-Serif" font-size="10.00">nodes</text>
</g>
<!-- Node31 -->
<g id="node62" class="node"><title>Node31</title>
<polygon fill="none" stroke="#bfbfbf" points="404.5,-0.5 404.5,-21.5 469.5,-21.5 469.5,-0.5 404.5,-0.5"/>
<text text-anchor="middle" x="437" y="-8.5" font-family="Helvetica,sans-Serif" font-size="10.00">mode_type</text>
</g>
<!-- Node31&#45;&gt;Node11 -->
<g id="edge64" class="edge"><title>Node31&#45;&gt;Node11</title>
<path fill="none" stroke="#9a32cd" stroke-dasharray="5,2" d="M479.872,-11.3599C508.913,-13.7552 546.498,-21.329 572,-43 622.322,-85.7635 637.134,-170.677 640.877,-200.415"/>
<polygon fill="#9a32cd" stroke="#9a32cd" points="479.803,-7.84823 469.598,-10.6953 479.351,-14.8336 479.803,-7.84823"/>
<text text-anchor="middle" x="541" y="-47" font-family="Helvetica,sans-Serif" font-size="10.00">mode</text>
</g>
</g>
</svg>
