<?xml version="1.0" encoding="UTF-8" standalone="no"?>
<!DOCTYPE svg PUBLIC "-//W3C//DTD SVG 1.1//EN"
 "http://www.w3.org/Graphics/SVG/1.1/DTD/svg11.dtd">
<!-- Generated by graphviz version 2.26.3 (20100126.1600)
 -->
<!-- Title: G Pages: 1 -->
<svg width="1034pt" height="744pt"
 viewBox="0.00 0.00 1034.00 744.00" xmlns="http://www.w3.org/2000/svg" xmlns:xlink="http://www.w3.org/1999/xlink">
<g id="graph1" class="graph" transform="scale(1 1) rotate(0) translate(4 740)">
<title>G</title>
<!-- Node1 -->
<g id="node1" class="node"><title>Node1</title>
<polygon fill="#bfbfbf" stroke="black" points="932.5,-417.5 932.5,-438.5 1025.5,-438.5 1025.5,-417.5 932.5,-417.5"/>
<text text-anchor="middle" x="979" y="-425.5" font-family="Helvetica,sans-Serif" font-size="10.00">Ui::Knot_Window</text>
</g>
<!-- Node2 -->
<g id="node2" class="node"><title>Node2</title>
<a xlink:href="classUi__Knot__Window.html" target="_top" xlink:title="Ui_Knot_Window">
<polygon fill="none" stroke="black" points="802,-417.5 802,-438.5 894,-438.5 894,-417.5 802,-417.5"/>
<text text-anchor="middle" x="848" y="-425.5" font-family="Helvetica,sans-Serif" font-size="10.00">Ui_Knot_Window</text>
</a>
</g>
<!-- Node2&#45;&gt;Node1 -->
<g id="edge2" class="edge"><title>Node2&#45;&gt;Node1</title>
<path fill="none" stroke="midnightblue" d="M904.224,-428C913.603,-428 923.241,-428 932.347,-428"/>
<polygon fill="midnightblue" stroke="midnightblue" points="904.186,-424.5 894.186,-428 904.186,-431.5 904.186,-424.5"/>
</g>
<!-- Node3 -->
<g id="node4" class="node"><title>Node3</title>
<polygon fill="none" stroke="#bfbfbf" points="601.5,-616.5 601.5,-637.5 656.5,-637.5 656.5,-616.5 601.5,-616.5"/>
<text text-anchor="middle" x="629" y="-624.5" font-family="Helvetica,sans-Serif" font-size="10.00">QMenu *</text>
</g>
<!-- Node3&#45;&gt;Node2 -->
<g id="edge4" class="edge"><title>Node3&#45;&gt;Node2</title>
<path fill="none" stroke="#9a32cd" stroke-dasharray="5,2" d="M666.796,-631.818C701.109,-634.043 751.217,-631.641 784,-605 811.134,-582.949 837.626,-474.079 845.588,-438.949"/>
<polygon fill="#9a32cd" stroke="#9a32cd" points="666.94,-628.318 656.691,-631 666.376,-635.295 666.94,-628.318"/>
<text text-anchor="middle" x="735" y="-727" font-family="Helvetica,sans-Serif" font-size="10.00">menu_Zoom</text>
<text text-anchor="middle" x="735" y="-714" font-family="Helvetica,sans-Serif" font-size="10.00">menuNo_des</text>
<text text-anchor="middle" x="735" y="-701" font-family="Helvetica,sans-Serif" font-size="10.00">menu_Settings</text>
<text text-anchor="middle" x="735" y="-688" font-family="Helvetica,sans-Serif" font-size="10.00">menu_Edit</text>
<text text-anchor="middle" x="735" y="-675" font-family="Helvetica,sans-Serif" font-size="10.00">menu_View</text>
<text text-anchor="middle" x="735" y="-662" font-family="Helvetica,sans-Serif" font-size="10.00">menu_File</text>
<text text-anchor="middle" x="735" y="-649" font-family="Helvetica,sans-Serif" font-size="10.00">menu_Toolbars</text>
<text text-anchor="middle" x="735" y="-636" font-family="Helvetica,sans-Serif" font-size="10.00">menu_Knot</text>
</g>
<!-- Node4 -->
<g id="node6" class="node"><title>Node4</title>
<polygon fill="none" stroke="#bfbfbf" points="592,-576.5 592,-597.5 666,-597.5 666,-576.5 592,-576.5"/>
<text text-anchor="middle" x="629" y="-584.5" font-family="Helvetica,sans-Serif" font-size="10.00">QStatusBar *</text>
</g>
<!-- Node4&#45;&gt;Node2 -->
<g id="edge6" class="edge"><title>Node4&#45;&gt;Node2</title>
<path fill="none" stroke="#9a32cd" stroke-dasharray="5,2" d="M676.574,-591.486C709.735,-592.121 753.351,-587.695 784,-565 827.039,-533.13 842.125,-465.057 846.478,-438.717"/>
<polygon fill="#9a32cd" stroke="#9a32cd" points="676.322,-587.975 666.205,-591.119 676.074,-594.971 676.322,-587.975"/>
<text text-anchor="middle" x="735" y="-595" font-family="Helvetica,sans-Serif" font-size="10.00">statusbar</text>
</g>
<!-- Node5 -->
<g id="node8" class="node"><title>Node5</title>
<polygon fill="none" stroke="#bfbfbf" points="598,-536.5 598,-557.5 660,-557.5 660,-536.5 598,-536.5"/>
<text text-anchor="middle" x="629" y="-544.5" font-family="Helvetica,sans-Serif" font-size="10.00">QWidget *</text>
</g>
<!-- Node5&#45;&gt;Node2 -->
<g id="edge8" class="edge"><title>Node5&#45;&gt;Node2</title>
<path fill="none" stroke="#9a32cd" stroke-dasharray="5,2" d="M670.346,-550.044C703.526,-550.504 750.014,-546.511 784,-525 817.073,-504.067 836.773,-459.156 844.376,-438.629"/>
<polygon fill="#9a32cd" stroke="#9a32cd" points="670.168,-546.538 660.074,-549.755 669.971,-553.535 670.168,-546.538"/>
<text text-anchor="middle" x="735" y="-553" font-family="Helvetica,sans-Serif" font-size="10.00">centralWidget</text>
</g>
<!-- Node6 -->
<g id="node10" class="node"><title>Node6</title>
<polygon fill="none" stroke="#bfbfbf" points="590,-496.5 590,-517.5 668,-517.5 668,-496.5 590,-496.5"/>
<text text-anchor="middle" x="629" y="-504.5" font-family="Helvetica,sans-Serif" font-size="10.00">QGridLayout *</text>
</g>
<!-- Node6&#45;&gt;Node2 -->
<g id="edge10" class="edge"><title>Node6&#45;&gt;Node2</title>
<path fill="none" stroke="#9a32cd" stroke-dasharray="5,2" d="M678.438,-509.137C710.013,-508.642 751.056,-504.45 784,-489 808.459,-477.53 829.537,-452.999 840.322,-438.787"/>
<polygon fill="#9a32cd" stroke="#9a32cd" points="678.106,-505.638 668.119,-509.175 678.131,-512.638 678.106,-505.638"/>
<text text-anchor="middle" x="735" y="-512" font-family="Helvetica,sans-Serif" font-size="10.00">gridLayout</text>
</g>
<!-- Node7 -->
<g id="node12" class="node"><title>Node7</title>
<polygon fill="none" stroke="#bfbfbf" points="599.5,-334.5 599.5,-355.5 658.5,-355.5 658.5,-334.5 599.5,-334.5"/>
<text text-anchor="middle" x="629" y="-342.5" font-family="Helvetica,sans-Serif" font-size="10.00">QAction *</text>
</g>
<!-- Node7&#45;&gt;Node2 -->
<g id="edge12" class="edge"><title>Node7&#45;&gt;Node2</title>
<path fill="none" stroke="#9a32cd" stroke-dasharray="5,2" d="M668.892,-334.417C701.607,-327.962 748.192,-324.012 784,-342 815.765,-357.957 835.757,-397.975 843.861,-417.269"/>
<polygon fill="#9a32cd" stroke="#9a32cd" points="667.837,-331.063 658.789,-336.576 669.3,-337.908 667.837,-331.063"/>
<text text-anchor="middle" x="735" y="-476" font-family="Helvetica,sans-Serif" font-size="10.00">actionEdge_List</text>
<text text-anchor="middle" x="735" y="-463" font-family="Helvetica,sans-Serif" font-size="10.00">actionInsert_Edges</text>
<text text-anchor="middle" x="735" y="-450" font-family="Helvetica,sans-Serif" font-size="10.00">action_Export</text>
<text text-anchor="middle" x="735" y="-437" font-family="Helvetica,sans-Serif" font-size="10.00">actionConfigure_G_rid</text>
<text text-anchor="middle" x="735" y="-424" font-family="Helvetica,sans-Serif" font-size="10.00">action_Style</text>
<text text-anchor="middle" x="735" y="-411" font-family="Helvetica,sans-Serif" font-size="10.00">action_Reset_Zoom</text>
<text text-anchor="middle" x="735" y="-398" font-family="Helvetica,sans-Serif" font-size="10.00">action_Erase</text>
<text text-anchor="middle" x="735" y="-385" font-family="Helvetica,sans-Serif" font-size="10.00">actionEdit_Nodes</text>
<text text-anchor="middle" x="735" y="-372" font-family="Helvetica,sans-Serif" font-size="10.00">actionSave_As</text>
<text text-anchor="middle" x="735" y="-359" font-family="Helvetica,sans-Serif" font-size="10.00">actionShow_Knot_line</text>
<text text-anchor="middle" x="735" y="-346" font-family="Helvetica,sans-Serif" font-size="10.00">...</text>
</g>
<!-- Node8 -->
<g id="node14" class="node"><title>Node8</title>
<polygon fill="none" stroke="#bfbfbf" points="596.5,-287.5 596.5,-308.5 661.5,-308.5 661.5,-287.5 596.5,-287.5"/>
<text text-anchor="middle" x="629" y="-295.5" font-family="Helvetica,sans-Serif" font-size="10.00">QToolBar *</text>
</g>
<!-- Node8&#45;&gt;Node2 -->
<g id="edge14" class="edge"><title>Node8&#45;&gt;Node2</title>
<path fill="none" stroke="#9a32cd" stroke-dasharray="5,2" d="M671.54,-286.549C704.694,-280.176 750.561,-277.191 784,-298 827.571,-325.114 842.341,-391.567 846.544,-417.444"/>
<polygon fill="#9a32cd" stroke="#9a32cd" points="670.756,-283.137 661.686,-288.613 672.191,-289.988 670.756,-283.137"/>
<text text-anchor="middle" x="735" y="-315" font-family="Helvetica,sans-Serif" font-size="10.00">EditBar</text>
<text text-anchor="middle" x="735" y="-302" font-family="Helvetica,sans-Serif" font-size="10.00">MainToolBar</text>
</g>
<!-- Node9 -->
<g id="node16" class="node"><title>Node9</title>
<polygon fill="none" stroke="#bfbfbf" points="594,-247.5 594,-268.5 664,-268.5 664,-247.5 594,-247.5"/>
<text text-anchor="middle" x="629" y="-255.5" font-family="Helvetica,sans-Serif" font-size="10.00">QMenuBar *</text>
</g>
<!-- Node9&#45;&gt;Node2 -->
<g id="edge16" class="edge"><title>Node9&#45;&gt;Node2</title>
<path fill="none" stroke="#9a32cd" stroke-dasharray="5,2" d="M674.178,-247.853C707.576,-243.037 752.529,-242.49 784,-265 835.681,-301.965 845.634,-387.216 847.546,-417.273"/>
<polygon fill="#9a32cd" stroke="#9a32cd" points="673.526,-244.413 664.212,-249.464 674.643,-251.323 673.526,-244.413"/>
<text text-anchor="middle" x="735" y="-269" font-family="Helvetica,sans-Serif" font-size="10.00">menuBar</text>
</g>
<!-- Node10 -->
<g id="node18" class="node"><title>Node10</title>
<a xlink:href="classKnotView.html" target="_top" xlink:title="KnotView">
<polygon fill="none" stroke="black" points="599.5,-207.5 599.5,-228.5 658.5,-228.5 658.5,-207.5 599.5,-207.5"/>
<text text-anchor="middle" x="629" y="-215.5" font-family="Helvetica,sans-Serif" font-size="10.00">KnotView</text>
</a>
</g>
<!-- Node10&#45;&gt;Node2 -->
<g id="edge18" class="edge"><title>Node10&#45;&gt;Node2</title>
<path fill="none" stroke="#9a32cd" stroke-dasharray="5,2" d="M668.817,-209.464C702.984,-204.56 751.685,-203.648 784,-229 814.98,-253.305 839.425,-379.391 846.154,-417.244"/>
<polygon fill="#9a32cd" stroke="#9a32cd" points="668.031,-206.045 658.714,-211.089 669.143,-212.956 668.031,-206.045"/>
<text text-anchor="middle" x="735" y="-233" font-family="Helvetica,sans-Serif" font-size="10.00">canvas</text>
</g>
<!-- Node11 -->
<g id="node20" class="node"><title>Node11</title>
<a xlink:href="classQGraphicsView.html" target="_top" xlink:title="QGraphicsView">
<polygon fill="none" stroke="black" points="394.5,-628.5 394.5,-649.5 479.5,-649.5 479.5,-628.5 394.5,-628.5"/>
<text text-anchor="middle" x="437" y="-636.5" font-family="Helvetica,sans-Serif" font-size="10.00">QGraphicsView</text>
</a>
</g>
<!-- Node11&#45;&gt;Node10 -->
<g id="edge20" class="edge"><title>Node11&#45;&gt;Node10</title>
<path fill="none" stroke="midnightblue" d="M490.057,-645.016C518.589,-645.089 551.939,-639.491 572,-617 600.063,-585.538 567.172,-273.443 590,-238 592.39,-234.29 595.699,-231.234 599.387,-228.727"/>
<polygon fill="midnightblue" stroke="midnightblue" points="489.883,-641.51 479.796,-644.753 489.704,-648.508 489.883,-641.51"/>
</g>
<!-- Node12 -->
<g id="node22" class="node"><title>Node12</title>
<a xlink:href="classNode.html" target="_top" xlink:title="Node">
<polygon fill="none" stroke="black" points="417,-422.5 417,-443.5 457,-443.5 457,-422.5 417,-422.5"/>
<text text-anchor="middle" x="437" y="-430.5" font-family="Helvetica,sans-Serif" font-size="10.00">Node</text>
</a>
</g>
<!-- Node12&#45;&gt;Node10 -->
<g id="edge22" class="edge"><title>Node12&#45;&gt;Node10</title>
<path fill="none" stroke="#9a32cd" stroke-dasharray="5,2" d="M451.948,-414.379C477.009,-383.088 528.986,-317.895 572,-262 580.132,-251.433 579.807,-246.595 590,-238 594.188,-234.468 599.106,-231.341 604.011,-228.67"/>
<polygon fill="#9a32cd" stroke="#9a32cd" points="449.146,-412.277 445.623,-422.269 454.608,-416.656 449.146,-412.277"/>
<text text-anchor="middle" x="541" y="-341" font-family="Helvetica,sans-Serif" font-size="10.00">last_node</text>
</g>
<!-- Node13 -->
<g id="node24" class="node"><title>Node13</title>
<a xlink:href="classCustomItem.html" target="_top" xlink:title="CustomItem">
<polygon fill="none" stroke="black" points="176.5,-480.5 176.5,-501.5 247.5,-501.5 247.5,-480.5 176.5,-480.5"/>
<text text-anchor="middle" x="212" y="-488.5" font-family="Helvetica,sans-Serif" font-size="10.00">CustomItem</text>
</a>
</g>
<!-- Node13&#45;&gt;Node12 -->
<g id="edge24" class="edge"><title>Node13&#45;&gt;Node12</title>
<path fill="none" stroke="midnightblue" d="M257.743,-494.473C288.556,-495.334 329.679,-493.57 364,-482 388.011,-473.906 411.577,-455.706 425.179,-443.909"/>
<polygon fill="midnightblue" stroke="midnightblue" points="257.839,-490.974 247.714,-494.091 257.573,-497.969 257.839,-490.974"/>
</g>
<!-- Node14 -->
<g id="node26" class="node"><title>Node14</title>
<a xlink:href="classQGraphicsItem.html" target="_top" xlink:title="QGraphicsItem">
<polygon fill="none" stroke="black" points="0.5,-480.5 0.5,-501.5 83.5,-501.5 83.5,-480.5 0.5,-480.5"/>
<text text-anchor="middle" x="42" y="-488.5" font-family="Helvetica,sans-Serif" font-size="10.00">QGraphicsItem</text>
</a>
</g>
<!-- Node14&#45;&gt;Node13 -->
<g id="edge26" class="edge"><title>Node14&#45;&gt;Node13</title>
<path fill="none" stroke="midnightblue" d="M93.9076,-491C120.585,-491 152.417,-491 176.307,-491"/>
<polygon fill="midnightblue" stroke="midnightblue" points="93.5867,-487.5 83.5867,-491 93.5866,-494.5 93.5867,-487.5"/>
</g>
<!-- Node15 -->
<g id="node28" class="node"><title>Node15</title>
<polygon fill="none" stroke="#bfbfbf" points="24.5,-589.5 24.5,-610.5 59.5,-610.5 59.5,-589.5 24.5,-589.5"/>
<text text-anchor="middle" x="42" y="-597.5" font-family="Helvetica,sans-Serif" font-size="10.00">bool</text>
</g>
<!-- Node15&#45;&gt;Node13 -->
<g id="edge28" class="edge"><title>Node15&#45;&gt;Node13</title>
<path fill="none" stroke="#9a32cd" stroke-dasharray="5,2" d="M60.9748,-582.535C82.9698,-563.011 120.958,-531.457 158,-511 164.476,-507.424 171.72,-504.244 178.747,-501.53"/>
<polygon fill="#9a32cd" stroke="#9a32cd" points="58.4581,-580.091 53.3634,-589.381 63.1391,-585.296 58.4581,-580.091"/>
<text text-anchor="middle" x="121" y="-550" font-family="Helvetica,sans-Serif" font-size="10.00">highlight</text>
</g>
<!-- Node21 -->
<g id="node40" class="node"><title>Node21</title>
<a xlink:href="classsnapping__grid.html" target="_top" xlink:title="snapping_grid">
<polygon fill="none" stroke="black" points="398.5,-588.5 398.5,-609.5 475.5,-609.5 475.5,-588.5 398.5,-588.5"/>
<text text-anchor="middle" x="437" y="-596.5" font-family="Helvetica,sans-Serif" font-size="10.00">snapping_grid</text>
</a>
</g>
<!-- Node15&#45;&gt;Node21 -->
<g id="edge46" class="edge"><title>Node15&#45;&gt;Node21</title>
<path fill="none" stroke="#9a32cd" stroke-dasharray="5,2" d="M68.6539,-612.982C91.6848,-623.434 126.183,-637.293 158,-643 248.246,-659.188 278.473,-665.038 364,-632 373.205,-628.444 373.28,-623.619 382,-619 388.734,-615.433 396.243,-612.239 403.495,-609.507"/>
<polygon fill="#9a32cd" stroke="#9a32cd" points="70.0709,-609.781 59.5269,-608.744 67.123,-616.13 70.0709,-609.781"/>
<text text-anchor="middle" x="212" y="-660" font-family="Helvetica,sans-Serif" font-size="10.00">enabled</text>
</g>
<!-- Node16 -->
<g id="node30" class="node"><title>Node16</title>
<polygon fill="none" stroke="#bfbfbf" points="197.5,-520.5 197.5,-541.5 226.5,-541.5 226.5,-520.5 197.5,-520.5"/>
<text text-anchor="middle" x="212" y="-528.5" font-family="Helvetica,sans-Serif" font-size="10.00">int</text>
</g>
<!-- Node16&#45;&gt;Node12 -->
<g id="edge30" class="edge"><title>Node16&#45;&gt;Node12</title>
<path fill="none" stroke="#9a32cd" stroke-dasharray="5,2" d="M236.718,-530.497C267.98,-528.946 322.709,-523.124 364,-502 392.101,-487.624 416.958,-459.084 429.11,-443.595"/>
<polygon fill="#9a32cd" stroke="#9a32cd" points="236.556,-527.001 226.699,-530.886 236.827,-533.996 236.556,-527.001"/>
<text text-anchor="middle" x="324" y="-529" font-family="Helvetica,sans-Serif" font-size="10.00">radius</text>
</g>
<!-- Node17 -->
<g id="node32" class="node"><title>Node17</title>
<polygon fill="none" stroke="#bfbfbf" points="168.5,-351.5 168.5,-372.5 255.5,-372.5 255.5,-351.5 168.5,-351.5"/>
<text text-anchor="middle" x="212" y="-359.5" font-family="Helvetica,sans-Serif" font-size="10.00">QList&lt; Edge * &gt;</text>
</g>
<!-- Node17&#45;&gt;Node12 -->
<g id="edge32" class="edge"><title>Node17&#45;&gt;Node12</title>
<path fill="none" stroke="#9a32cd" stroke-dasharray="5,2" d="M265.775,-357.011C295.707,-356.216 333.056,-358.583 364,-371 391.468,-382.023 416.031,-407.691 428.449,-422.31"/>
<polygon fill="#9a32cd" stroke="#9a32cd" points="265.375,-353.524 255.52,-357.413 265.649,-360.519 265.375,-353.524"/>
<text text-anchor="middle" x="324" y="-375" font-family="Helvetica,sans-Serif" font-size="10.00">edges</text>
</g>
<!-- Node26 -->
<g id="node52" class="node"><title>Node26</title>
<a xlink:href="classKnotGraph.html" target="_top" xlink:title="KnotGraph">
<polygon fill="none" stroke="black" points="405.5,-249.5 405.5,-270.5 468.5,-270.5 468.5,-249.5 405.5,-249.5"/>
<text text-anchor="middle" x="437" y="-257.5" font-family="Helvetica,sans-Serif" font-size="10.00">KnotGraph</text>
</a>
</g>
<!-- Node17&#45;&gt;Node26 -->
<g id="edge64" class="edge"><title>Node17&#45;&gt;Node26</title>
<path fill="none" stroke="#9a32cd" stroke-dasharray="5,2" d="M241.879,-346.789C254.73,-340.426 269.989,-333.108 284,-327 318.955,-311.763 329.088,-311.337 364,-296 382.113,-288.043 402.247,-278.023 416.775,-270.575"/>
<polygon fill="#9a32cd" stroke="#9a32cd" points="239.965,-343.832 232.583,-351.432 243.093,-350.095 239.965,-343.832"/>
<text text-anchor="middle" x="324" y="-344" font-family="Helvetica,sans-Serif" font-size="10.00">traversed_edges</text>
<text text-anchor="middle" x="324" y="-331" font-family="Helvetica,sans-Serif" font-size="10.00">edges</text>
</g>
<!-- Node18 -->
<g id="node34" class="node"><title>Node18</title>
<polygon fill="none" stroke="#bfbfbf" points="400.5,-160.5 400.5,-181.5 473.5,-181.5 473.5,-160.5 400.5,-160.5"/>
<text text-anchor="middle" x="437" y="-168.5" font-family="Helvetica,sans-Serif" font-size="10.00">QUndoStack</text>
</g>
<!-- Node18&#45;&gt;Node10 -->
<g id="edge34" class="edge"><title>Node18&#45;&gt;Node10</title>
<path fill="none" stroke="#9a32cd" stroke-dasharray="5,2" d="M483.831,-174.509C510.156,-177.329 543.379,-182.312 572,-191 585.307,-195.039 599.439,-201.716 610.303,-207.419"/>
<polygon fill="#9a32cd" stroke="#9a32cd" points="484.038,-171.013 473.739,-173.498 483.34,-177.978 484.038,-171.013"/>
<text text-anchor="middle" x="541" y="-195" font-family="Helvetica,sans-Serif" font-size="10.00">undo_stack</text>
</g>
<!-- Node19 -->
<g id="node36" class="node"><title>Node19</title>
<polygon fill="none" stroke="#bfbfbf" points="386,-120.5 386,-141.5 488,-141.5 488,-120.5 386,-120.5"/>
<text text-anchor="middle" x="437" y="-128.5" font-family="Helvetica,sans-Serif" font-size="10.00">mouse_status_type</text>
</g>
<!-- Node19&#45;&gt;Node10 -->
<g id="edge36" class="edge"><title>Node19&#45;&gt;Node10</title>
<path fill="none" stroke="#9a32cd" stroke-dasharray="5,2" d="M498.245,-137.125C522.329,-141.403 549.533,-148.667 572,-161 593.101,-172.583 611.578,-194.332 621.432,-207.358"/>
<polygon fill="#9a32cd" stroke="#9a32cd" points="498.572,-133.632 488.137,-135.468 497.439,-140.54 498.572,-133.632"/>
<text text-anchor="middle" x="541" y="-165" font-family="Helvetica,sans-Serif" font-size="10.00">mouse_status</text>
</g>
<!-- Node20 -->
<g id="node38" class="node"><title>Node20</title>
<polygon fill="none" stroke="#bfbfbf" points="185.5,-568.5 185.5,-589.5 238.5,-589.5 238.5,-568.5 185.5,-568.5"/>
<text text-anchor="middle" x="212" y="-576.5" font-family="Helvetica,sans-Serif" font-size="10.00">QPointF</text>
</g>
<!-- Node20&#45;&gt;Node10 -->
<g id="edge38" class="edge"><title>Node20&#45;&gt;Node10</title>
<path fill="none" stroke="#9a32cd" stroke-dasharray="5,2" d="M248.622,-573.972C280.206,-568.738 326.511,-558.885 364,-542 427.177,-513.546 441.272,-500.198 492,-453 533.417,-414.466 549.098,-405.727 572,-354 593.121,-306.294 559.455,-280.296 590,-238 592.673,-234.299 596.235,-231.234 600.123,-228.71"/>
<polygon fill="#9a32cd" stroke="#9a32cd" points="247.839,-570.553 238.509,-575.574 248.934,-577.467 247.839,-570.553"/>
<text text-anchor="middle" x="437" y="-537" font-family="Helvetica,sans-Serif" font-size="10.00">oldpos</text>
</g>
<!-- Node20&#45;&gt;Node21 -->
<g id="edge44" class="edge"><title>Node20&#45;&gt;Node21</title>
<path fill="none" stroke="#9a32cd" stroke-dasharray="5,2" d="M248.922,-581.6C279.72,-583.844 324.748,-587.301 364,-591 375.17,-592.053 387.287,-593.327 398.379,-594.546"/>
<polygon fill="#9a32cd" stroke="#9a32cd" points="248.881,-578.088 238.655,-580.858 248.377,-585.07 248.881,-578.088"/>
<text text-anchor="middle" x="324" y="-595" font-family="Helvetica,sans-Serif" font-size="10.00">origin</text>
</g>
<!-- Node21&#45;&gt;Node10 -->
<g id="edge40" class="edge"><title>Node21&#45;&gt;Node10</title>
<path fill="none" stroke="#9a32cd" stroke-dasharray="5,2" d="M485.687,-602.55C515.225,-601.827 551.131,-595.273 572,-571 620.314,-514.806 549.668,-300.172 590,-238 592.402,-234.297 595.717,-231.246 599.409,-228.741"/>
<polygon fill="#9a32cd" stroke="#9a32cd" points="485.529,-599.051 475.54,-602.583 485.551,-606.051 485.529,-599.051"/>
<text text-anchor="middle" x="541" y="-604" font-family="Helvetica,sans-Serif" font-size="10.00">grid</text>
</g>
<!-- Node22 -->
<g id="node42" class="node"><title>Node22</title>
<polygon fill="none" stroke="#bfbfbf" points="189.5,-402.5 189.5,-423.5 234.5,-423.5 234.5,-402.5 189.5,-402.5"/>
<text text-anchor="middle" x="212" y="-410.5" font-family="Helvetica,sans-Serif" font-size="10.00">double</text>
</g>
<!-- Node22&#45;&gt;Node21 -->
<g id="edge42" class="edge"><title>Node22&#45;&gt;Node21</title>
<path fill="none" stroke="#9a32cd" stroke-dasharray="5,2" d="M243.842,-427.651C287.811,-447.942 361.978,-482.416 364,-485 388.87,-516.782 356.88,-542.414 382,-574 386.897,-580.157 393.645,-584.852 400.739,-588.413"/>
<polygon fill="#9a32cd" stroke="#9a32cd" points="245.238,-424.44 234.691,-423.431 242.307,-430.797 245.238,-424.44"/>
<text text-anchor="middle" x="324" y="-489" font-family="Helvetica,sans-Serif" font-size="10.00">size</text>
</g>
<!-- Node22&#45;&gt;Node26 -->
<g id="edge58" class="edge"><title>Node22&#45;&gt;Node26</title>
<path fill="none" stroke="#9a32cd" stroke-dasharray="5,2" d="M244.981,-409.901C283.76,-405.716 345.229,-397.221 364,-384 405.052,-355.086 426.642,-295.134 434.024,-270.708"/>
<polygon fill="#9a32cd" stroke="#9a32cd" points="244.284,-406.454 234.699,-410.968 245.007,-413.417 244.284,-406.454"/>
<text text-anchor="middle" x="324" y="-434" font-family="Helvetica,sans-Serif" font-size="10.00">cusp_angle</text>
<text text-anchor="middle" x="324" y="-421" font-family="Helvetica,sans-Serif" font-size="10.00">crossing_distance</text>
<text text-anchor="middle" x="324" y="-408" font-family="Helvetica,sans-Serif" font-size="10.00">handle_length</text>
</g>
<!-- Node23 -->
<g id="node46" class="node"><title>Node23</title>
<polygon fill="none" stroke="#bfbfbf" points="180,-612.5 180,-633.5 244,-633.5 244,-612.5 180,-612.5"/>
<text text-anchor="middle" x="212" y="-620.5" font-family="Helvetica,sans-Serif" font-size="10.00">grid_shape</text>
</g>
<!-- Node23&#45;&gt;Node21 -->
<g id="edge48" class="edge"><title>Node23&#45;&gt;Node21</title>
<path fill="none" stroke="#9a32cd" stroke-dasharray="5,2" d="M254.287,-618.489C295.714,-614.071 358.304,-607.394 398.411,-603.116"/>
<polygon fill="#9a32cd" stroke="#9a32cd" points="253.809,-615.02 244.237,-619.561 254.552,-621.981 253.809,-615.02"/>
<text text-anchor="middle" x="324" y="-619" font-family="Helvetica,sans-Serif" font-size="10.00">shape</text>
</g>
<!-- Node24 -->
<g id="node48" class="node"><title>Node24</title>
<polygon fill="none" stroke="#bfbfbf" points="382,-80.5 382,-101.5 492,-101.5 492,-80.5 382,-80.5"/>
<text text-anchor="middle" x="437" y="-88.5" font-family="Helvetica,sans-Serif" font-size="10.00">QGraphicsRectItem *</text>
</g>
<!-- Node24&#45;&gt;Node10 -->
<g id="edge50" class="edge"><title>Node24&#45;&gt;Node10</title>
<path fill="none" stroke="#9a32cd" stroke-dasharray="5,2" d="M502.093,-95.8446C525.867,-100.204 551.842,-108.255 572,-123 601.806,-144.803 618.965,-187.339 625.682,-207.244"/>
<polygon fill="#9a32cd" stroke="#9a32cd" points="502.499,-92.3643 492.063,-94.1933 501.362,-99.2713 502.499,-92.3643"/>
<text text-anchor="middle" x="541" y="-127" font-family="Helvetica,sans-Serif" font-size="10.00">rubberband</text>
</g>
<!-- Node25 -->
<g id="node50" class="node"><title>Node25</title>
<polygon fill="none" stroke="#bfbfbf" points="383.5,-40.5 383.5,-61.5 490.5,-61.5 490.5,-40.5 383.5,-40.5"/>
<text text-anchor="middle" x="437" y="-48.5" font-family="Helvetica,sans-Serif" font-size="10.00">QGraphicsLineItem *</text>
</g>
<!-- Node25&#45;&gt;Node10 -->
<g id="edge52" class="edge"><title>Node25&#45;&gt;Node10</title>
<path fill="none" stroke="#9a32cd" stroke-dasharray="5,2" d="M500.797,-52.8638C525.384,-56.5154 552.27,-64.4625 572,-81 612.079,-114.593 624.437,-181.055 627.836,-207.135"/>
<polygon fill="#9a32cd" stroke="#9a32cd" points="501.153,-49.3809 490.791,-51.5879 500.268,-56.3247 501.153,-49.3809"/>
<text text-anchor="middle" x="541" y="-85" font-family="Helvetica,sans-Serif" font-size="10.00">guide</text>
</g>
<!-- Node26&#45;&gt;Node10 -->
<g id="edge54" class="edge"><title>Node26&#45;&gt;Node10</title>
<path fill="none" stroke="#9a32cd" stroke-dasharray="5,2" d="M478.861,-251.726C505.564,-246.347 540.88,-239.047 572,-232 580.945,-229.975 590.645,-227.643 599.464,-225.471"/>
<polygon fill="#9a32cd" stroke="#9a32cd" points="477.828,-248.363 468.712,-253.761 479.205,-255.226 477.828,-248.363"/>
<text text-anchor="middle" x="541" y="-249" font-family="Helvetica,sans-Serif" font-size="10.00">knot</text>
</g>
<!-- Node27 -->
<g id="node54" class="node"><title>Node27</title>
<a xlink:href="classQGraphicsPathItem.html" target="_top" xlink:title="QGraphicsPathItem">
<polygon fill="none" stroke="black" points="160.5,-291.5 160.5,-312.5 263.5,-312.5 263.5,-291.5 160.5,-291.5"/>
<text text-anchor="middle" x="212" y="-299.5" font-family="Helvetica,sans-Serif" font-size="10.00">QGraphicsPathItem</text>
</a>
</g>
<!-- Node27&#45;&gt;Node26 -->
<g id="edge56" class="edge"><title>Node27&#45;&gt;Node26</title>
<path fill="none" stroke="midnightblue" d="M273.651,-290.749C301.29,-285.678 334.289,-279.585 364,-274 377.57,-271.449 392.549,-268.585 405.389,-266.115"/>
<polygon fill="midnightblue" stroke="midnightblue" points="272.932,-287.322 263.727,-292.568 274.194,-294.208 272.932,-287.322"/>
</g>
<!-- Node28 -->
<g id="node57" class="node"><title>Node28</title>
<polygon fill="none" stroke="#bfbfbf" points="158.5,-251.5 158.5,-272.5 265.5,-272.5 265.5,-251.5 158.5,-251.5"/>
<text text-anchor="middle" x="212" y="-259.5" font-family="Helvetica,sans-Serif" font-size="10.00">QPainterPathStroker</text>
</g>
<!-- Node28&#45;&gt;Node26 -->
<g id="edge60" class="edge"><title>Node28&#45;&gt;Node26</title>
<path fill="none" stroke="#9a32cd" stroke-dasharray="5,2" d="M275.875,-261.088C278.62,-261.057 281.338,-261.027 284,-261 325.967,-260.571 374.412,-260.291 405.352,-260.139"/>
<polygon fill="#9a32cd" stroke="#9a32cd" points="275.82,-257.588 265.863,-261.209 275.904,-264.588 275.82,-257.588"/>
<text text-anchor="middle" x="324" y="-265" font-family="Helvetica,sans-Serif" font-size="10.00">stroker</text>
</g>
<!-- Node29 -->
<g id="node59" class="node"><title>Node29</title>
<polygon fill="none" stroke="#bfbfbf" points="174.5,-211.5 174.5,-232.5 249.5,-232.5 249.5,-211.5 174.5,-211.5"/>
<text text-anchor="middle" x="212" y="-219.5" font-family="Helvetica,sans-Serif" font-size="10.00">QPainterPath</text>
</g>
<!-- Node29&#45;&gt;Node26 -->
<g id="edge62" class="edge"><title>Node29&#45;&gt;Node26</title>
<path fill="none" stroke="#9a32cd" stroke-dasharray="5,2" d="M259.799,-228.02C289.808,-232.021 329.268,-237.689 364,-244 377.659,-246.482 392.653,-249.684 405.48,-252.571"/>
<polygon fill="#9a32cd" stroke="#9a32cd" points="259.973,-224.513 249.602,-226.676 259.058,-231.453 259.973,-224.513"/>
<text text-anchor="middle" x="324" y="-248" font-family="Helvetica,sans-Serif" font-size="10.00">knot</text>
</g>
<!-- Node30 -->
<g id="node62" class="node"><title>Node30</title>
<polygon fill="none" stroke="#bfbfbf" points="194.5,-171.5 194.5,-192.5 229.5,-192.5 229.5,-171.5 194.5,-171.5"/>
<text text-anchor="middle" x="212" y="-179.5" font-family="Helvetica,sans-Serif" font-size="10.00">long</text>
</g>
<!-- Node30&#45;&gt;Node26 -->
<g id="edge66" class="edge"><title>Node30&#45;&gt;Node26</title>
<path fill="none" stroke="#9a32cd" stroke-dasharray="5,2" d="M240.039,-182.973C272.022,-185.193 324.933,-192.325 364,-215 374.343,-221.003 372.353,-227.932 382,-235 389.784,-240.703 399.077,-245.536 407.788,-249.387"/>
<polygon fill="#9a32cd" stroke="#9a32cd" points="239.841,-179.456 229.656,-182.375 239.438,-186.444 239.841,-179.456"/>
<text text-anchor="middle" x="324" y="-219" font-family="Helvetica,sans-Serif" font-size="10.00">curve_style</text>
</g>
<!-- Node31 -->
<g id="node64" class="node"><title>Node31</title>
<polygon fill="none" stroke="#bfbfbf" points="168,-119.5 168,-140.5 256,-140.5 256,-119.5 168,-119.5"/>
<text text-anchor="middle" x="212" y="-127.5" font-family="Helvetica,sans-Serif" font-size="10.00">QList&lt; Node * &gt;</text>
</g>
<!-- Node31&#45;&gt;Node10 -->
<g id="edge70" class="edge"><title>Node31&#45;&gt;Node10</title>
<path fill="none" stroke="#9a32cd" stroke-dasharray="5,2" d="M259.564,-117.539C292.136,-111.966 334.592,-110.884 364,-133 385.571,-149.223 361.173,-173.832 382,-191 414.454,-217.752 540.78,-219.415 599.139,-218.688"/>
<polygon fill="#9a32cd" stroke="#9a32cd" points="258.534,-114.172 249.366,-119.482 259.844,-121.048 258.534,-114.172"/>
<text text-anchor="middle" x="437" y="-220" font-family="Helvetica,sans-Serif" font-size="10.00">moved_nodes</text>
</g>
<!-- Node31&#45;&gt;Node26 -->
<g id="edge68" class="edge"><title>Node31&#45;&gt;Node26</title>
<path fill="none" stroke="#9a32cd" stroke-dasharray="5,2" d="M266.232,-132.09C298.609,-136.156 338.297,-146.52 364,-172 384.681,-192.501 362.991,-212.94 382,-235 388.162,-242.151 396.789,-247.364 405.387,-251.118"/>
<polygon fill="#9a32cd" stroke="#9a32cd" points="266.323,-128.58 256.004,-130.98 265.568,-135.539 266.323,-128.58"/>
<text text-anchor="middle" x="324" y="-176" font-family="Helvetica,sans-Serif" font-size="10.00">nodes</text>
</g>
<!-- Node32 -->
<g id="node67" class="node"><title>Node32</title>
<polygon fill="none" stroke="#bfbfbf" points="404.5,-0.5 404.5,-21.5 469.5,-21.5 469.5,-0.5 404.5,-0.5"/>
<text text-anchor="middle" x="437" y="-8.5" font-family="Helvetica,sans-Serif" font-size="10.00">mode_type</text>
</g>
<!-- Node32&#45;&gt;Node10 -->
<g id="edge72" class="edge"><title>Node32&#45;&gt;Node10</title>
<path fill="none" stroke="#9a32cd" stroke-dasharray="5,2" d="M480.076,-8.86153C509.378,-9.73801 547.192,-15.7646 572,-38 598.241,-61.519 620.609,-172.494 627.101,-207.438"/>
<polygon fill="#9a32cd" stroke="#9a32cd" points="479.741,-5.35787 469.705,-8.75115 479.667,-12.3575 479.741,-5.35787"/>
<text text-anchor="middle" x="541" y="-42" font-family="Helvetica,sans-Serif" font-size="10.00">mode</text>
</g>
</g>
</svg>
