<?xml version="1.0" encoding="UTF-8" standalone="no"?>
<!DOCTYPE svg PUBLIC "-//W3C//DTD SVG 1.1//EN"
 "http://www.w3.org/Graphics/SVG/1.1/DTD/svg11.dtd">
<!-- Generated by graphviz version 2.26.3 (20100126.1600)
 -->
<!-- Title: G Pages: 1 -->
<svg width="485pt" height="146pt"
 viewBox="0.00 0.00 485.00 146.00" xmlns="http://www.w3.org/2000/svg" xmlns:xlink="http://www.w3.org/1999/xlink">
<g id="graph1" class="graph" transform="scale(1 1) rotate(0) translate(4 142)">
<title>G</title>
<!-- Node1 -->
<g id="node1" class="node"><title>Node1</title>
<polygon fill="#bfbfbf" stroke="black" points="213,-116.5 213,-137.5 305,-137.5 305,-116.5 213,-116.5"/>
<text text-anchor="middle" x="259" y="-124.5" font-family="Helvetica,sans-Serif" font-size="10.00">QUndoCommand</text>
</g>
<!-- Node2 -->
<g id="node3" class="node"><title>Node2</title>
<a xlink:href="classLastNodeCommand.html" target="_top" xlink:title="LastNodeCommand">
<polygon fill="none" stroke="black" points="13,-58.5 13,-79.5 117,-79.5 117,-58.5 13,-58.5"/>
<text text-anchor="middle" x="65" y="-66.5" font-family="Helvetica,sans-Serif" font-size="10.00">LastNodeCommand</text>
</a>
</g>
<!-- Node1&#45;&gt;Node2 -->
<g id="edge2" class="edge"><title>Node1&#45;&gt;Node2</title>
<path fill="none" stroke="midnightblue" d="M214,-113.546C179.345,-103.186 132.12,-89.0668 100.198,-79.5231"/>
<polygon fill="midnightblue" stroke="midnightblue" points="213.285,-116.985 223.868,-116.497 215.29,-110.279 213.285,-116.985"/>
</g>
<!-- Node5 -->
<g id="node9" class="node"><title>Node5</title>
<a xlink:href="classMoveNodes.html" target="_top" xlink:title="MoveNodes">
<polygon fill="none" stroke="black" points="134.5,-58.5 134.5,-79.5 203.5,-79.5 203.5,-58.5 134.5,-58.5"/>
<text text-anchor="middle" x="169" y="-66.5" font-family="Helvetica,sans-Serif" font-size="10.00">MoveNodes</text>
</a>
</g>
<!-- Node1&#45;&gt;Node5 -->
<g id="edge8" class="edge"><title>Node1&#45;&gt;Node5</title>
<path fill="none" stroke="midnightblue" d="M233.895,-110.821C218.393,-100.831 198.947,-88.2993 185.403,-79.5707"/>
<polygon fill="midnightblue" stroke="midnightblue" points="232.191,-113.887 242.493,-116.362 235.983,-108.003 232.191,-113.887"/>
</g>
<!-- Node6 -->
<g id="node11" class="node"><title>Node6</title>
<a xlink:href="classRemoveEdge.html" target="_top" xlink:title="RemoveEdge">
<polygon fill="none" stroke="black" points="221,-58.5 221,-79.5 297,-79.5 297,-58.5 221,-58.5"/>
<text text-anchor="middle" x="259" y="-66.5" font-family="Helvetica,sans-Serif" font-size="10.00">RemoveEdge</text>
</a>
</g>
<!-- Node1&#45;&gt;Node6 -->
<g id="edge10" class="edge"><title>Node1&#45;&gt;Node6</title>
<path fill="none" stroke="midnightblue" d="M259,-106.191C259,-97.1684 259,-86.9941 259,-79.5707"/>
<polygon fill="midnightblue" stroke="midnightblue" points="255.5,-106.362 259,-116.362 262.5,-106.362 255.5,-106.362"/>
</g>
<!-- Node7 -->
<g id="node13" class="node"><title>Node7</title>
<a xlink:href="classRemoveNode.html" target="_top" xlink:title="RemoveNode">
<polygon fill="none" stroke="black" points="314.5,-58.5 314.5,-79.5 391.5,-79.5 391.5,-58.5 314.5,-58.5"/>
<text text-anchor="middle" x="353" y="-66.5" font-family="Helvetica,sans-Serif" font-size="10.00">RemoveNode</text>
</a>
</g>
<!-- Node1&#45;&gt;Node7 -->
<g id="edge12" class="edge"><title>Node1&#45;&gt;Node7</title>
<path fill="none" stroke="midnightblue" d="M284.767,-111.101C301.031,-101.066 321.59,-88.3808 335.868,-79.5707"/>
<polygon fill="midnightblue" stroke="midnightblue" points="282.914,-108.132 276.241,-116.362 286.589,-114.089 282.914,-108.132"/>
</g>
<!-- Node8 -->
<g id="node15" class="node"><title>Node8</title>
<a xlink:href="classToggleEdge.html" target="_top" xlink:title="ToggleEdge">
<polygon fill="none" stroke="black" points="409,-58.5 409,-79.5 477,-79.5 477,-58.5 409,-58.5"/>
<text text-anchor="middle" x="443" y="-66.5" font-family="Helvetica,sans-Serif" font-size="10.00">ToggleEdge</text>
</a>
</g>
<!-- Node1&#45;&gt;Node8 -->
<g id="edge14" class="edge"><title>Node1&#45;&gt;Node8</title>
<path fill="none" stroke="midnightblue" d="M302.104,-113.413C334.933,-103.065 379.47,-89.0258 409.616,-79.5231"/>
<polygon fill="midnightblue" stroke="midnightblue" points="300.806,-110.152 292.321,-116.497 302.911,-116.828 300.806,-110.152"/>
</g>
<!-- Node3 -->
<g id="node5" class="node"><title>Node3</title>
<a xlink:href="classAddEdge.html" target="_top" xlink:title="AddEdge">
<polygon fill="none" stroke="black" points="0,-0.5 0,-21.5 56,-21.5 56,-0.5 0,-0.5"/>
<text text-anchor="middle" x="28" y="-8.5" font-family="Helvetica,sans-Serif" font-size="10.00">AddEdge</text>
</a>
</g>
<!-- Node2&#45;&gt;Node3 -->
<g id="edge4" class="edge"><title>Node2&#45;&gt;Node3</title>
<path fill="none" stroke="midnightblue" d="M52.6667,-49.6667C46.688,-40.2948 39.7392,-29.4019 34.7433,-21.5707"/>
<polygon fill="midnightblue" stroke="midnightblue" points="49.8847,-51.8136 58.2136,-58.3619 55.7862,-48.0489 49.8847,-51.8136"/>
</g>
<!-- Node4 -->
<g id="node7" class="node"><title>Node4</title>
<a xlink:href="classAddNode.html" target="_top" xlink:title="AddNode">
<polygon fill="none" stroke="black" points="73.5,-0.5 73.5,-21.5 130.5,-21.5 130.5,-0.5 73.5,-0.5"/>
<text text-anchor="middle" x="102" y="-8.5" font-family="Helvetica,sans-Serif" font-size="10.00">AddNode</text>
</a>
</g>
<!-- Node2&#45;&gt;Node4 -->
<g id="edge6" class="edge"><title>Node2&#45;&gt;Node4</title>
<path fill="none" stroke="midnightblue" d="M77.3333,-49.6667C83.312,-40.2948 90.2608,-29.4019 95.2567,-21.5707"/>
<polygon fill="midnightblue" stroke="midnightblue" points="74.2138,-48.0489 71.7864,-58.3619 80.1153,-51.8136 74.2138,-48.0489"/>
</g>
</g>
</svg>
