<?xml version="1.0" encoding="UTF-8" standalone="no"?>
<!DOCTYPE svg PUBLIC "-//W3C//DTD SVG 1.1//EN"
 "http://www.w3.org/Graphics/SVG/1.1/DTD/svg11.dtd">
<!-- Generated by graphviz version 2.26.3 (20100126.1600)
 -->
<!-- Title: G Pages: 1 -->
<svg width="222pt" height="102pt"
 viewBox="0.00 0.00 222.00 102.00" xmlns="http://www.w3.org/2000/svg" xmlns:xlink="http://www.w3.org/1999/xlink">
<g id="graph1" class="graph" transform="scale(1 1) rotate(0) translate(4 98)">
<title>G</title>
<!-- Node1 -->
<g id="node1" class="node"><title>Node1</title>
<polygon fill="#bfbfbf" stroke="black" points="63.5,-0.5 63.5,-21.5 134.5,-21.5 134.5,-0.5 63.5,-0.5"/>
<text text-anchor="middle" x="99" y="-8.5" font-family="Helvetica,sans-Serif" font-size="10.00">ColorWidget</text>
</g>
<!-- Node2 -->
<g id="node2" class="node"><title>Node2</title>
<a xlink:href="classQLineEdit.html" target="_top" xlink:title="QLineEdit">
<polygon fill="none" stroke="black" points="-0.5,-72.5 -0.5,-93.5 58.5,-93.5 58.5,-72.5 -0.5,-72.5"/>
<text text-anchor="middle" x="29" y="-80.5" font-family="Helvetica,sans-Serif" font-size="10.00">QLineEdit</text>
</a>
</g>
<!-- Node2&#45;&gt;Node1 -->
<g id="edge2" class="edge"><title>Node2&#45;&gt;Node1</title>
<path fill="none" stroke="midnightblue" d="M46.5314,-64.9677C59.7909,-51.3294 77.5485,-33.0644 88.6289,-21.6674"/>
<polygon fill="midnightblue" stroke="midnightblue" points="43.7901,-62.7664 39.3287,-72.3762 48.809,-67.646 43.7901,-62.7664"/>
</g>
<!-- Node3 -->
<g id="node4" class="node"><title>Node3</title>
<polygon fill="none" stroke="#bfbfbf" points="75.5,-72.5 75.5,-93.5 122.5,-93.5 122.5,-72.5 75.5,-72.5"/>
<text text-anchor="middle" x="99" y="-80.5" font-family="Helvetica,sans-Serif" font-size="10.00">QColor</text>
</g>
<!-- Node3&#45;&gt;Node1 -->
<g id="edge4" class="edge"><title>Node3&#45;&gt;Node1</title>
<path fill="none" stroke="#9a32cd" stroke-dasharray="5,2" d="M99,-62.2348C99,-48.969 99,-32.3188 99,-21.6674"/>
<polygon fill="#9a32cd" stroke="#9a32cd" points="95.5001,-62.3761 99,-72.3762 102.5,-62.3762 95.5001,-62.3761"/>
<text text-anchor="middle" x="104.5" y="-44.5" font-family="Helvetica,sans-Serif" font-size="10.00">clr</text>
</g>
<!-- Node4 -->
<g id="node6" class="node"><title>Node4</title>
<polygon fill="none" stroke="#bfbfbf" points="139.5,-72.5 139.5,-93.5 214.5,-93.5 214.5,-72.5 139.5,-72.5"/>
<text text-anchor="middle" x="177" y="-80.5" font-family="Helvetica,sans-Serif" font-size="10.00">QColorDialog</text>
</g>
<!-- Node4&#45;&gt;Node1 -->
<g id="edge6" class="edge"><title>Node4&#45;&gt;Node1</title>
<path fill="none" stroke="#9a32cd" stroke-dasharray="5,2" d="M157.878,-65.3488C143.061,-51.6714 123.019,-33.1709 110.556,-21.6674"/>
<polygon fill="#9a32cd" stroke="#9a32cd" points="155.769,-68.1651 165.491,-72.3762 160.517,-63.0215 155.769,-68.1651"/>
<text text-anchor="middle" x="170" y="-44.5" font-family="Helvetica,sans-Serif" font-size="10.00">color_dialog</text>
</g>
</g>
</svg>
