<?xml version="1.0" encoding="UTF-8" standalone="no"?>
<!DOCTYPE svg PUBLIC "-//W3C//DTD SVG 1.1//EN"
 "http://www.w3.org/Graphics/SVG/1.1/DTD/svg11.dtd">
<!-- Generated by graphviz version 2.26.3 (20100126.1600)
 -->
<!-- Title: G Pages: 1 -->
<svg width="707pt" height="364pt"
 viewBox="0.00 0.00 707.00 364.00" xmlns="http://www.w3.org/2000/svg" xmlns:xlink="http://www.w3.org/1999/xlink">
<g id="graph1" class="graph" transform="scale(1 1) rotate(0) translate(4 360)">
<title>G</title>
<!-- Node1 -->
<g id="node1" class="node"><title>Node1</title>
<polygon fill="#bfbfbf" stroke="black" points="429.5,-0.5 429.5,-21.5 506.5,-21.5 506.5,-0.5 429.5,-0.5"/>
<text text-anchor="middle" x="468" y="-8.5" font-family="Helvetica,sans-Serif" font-size="10.00">Knot_Window</text>
</g>
<!-- Node2 -->
<g id="node2" class="node"><title>Node2</title>
<a xlink:href="classQMainWindow.html" target="_top" xlink:title="QMainWindow">
<polygon fill="none" stroke="black" points="177,-72.5 177,-93.5 257,-93.5 257,-72.5 177,-72.5"/>
<text text-anchor="middle" x="217" y="-80.5" font-family="Helvetica,sans-Serif" font-size="10.00">QMainWindow</text>
</a>
</g>
<!-- Node2&#45;&gt;Node1 -->
<g id="edge2" class="edge"><title>Node2&#45;&gt;Node1</title>
<path fill="none" stroke="midnightblue" d="M263.673,-69.6117C312.063,-55.7309 386.724,-34.3142 431.135,-21.5747"/>
<polygon fill="midnightblue" stroke="midnightblue" points="262.414,-66.3318 253.766,-72.4535 264.344,-73.0604 262.414,-66.3318"/>
</g>
<!-- Node3 -->
<g id="node4" class="node"><title>Node3</title>
<a xlink:href="classUi_1_1Knot__Window.html" target="_top" xlink:title="Ui::Knot_Window">
<polygon fill="none" stroke="black" points="274.5,-72.5 274.5,-93.5 367.5,-93.5 367.5,-72.5 274.5,-72.5"/>
<text text-anchor="middle" x="321" y="-80.5" font-family="Helvetica,sans-Serif" font-size="10.00">Ui::Knot_Window</text>
</a>
</g>
<!-- Node3&#45;&gt;Node1 -->
<g id="edge4" class="edge"><title>Node3&#45;&gt;Node1</title>
<path fill="none" stroke="#8b1a1a" d="M351.739,-67.9443C380.006,-54.099 421.212,-33.9165 446.221,-21.6674"/>
<polygon fill="#8b1a1a" stroke="#8b1a1a" points="350.131,-64.8342 342.69,-72.3762 353.211,-71.1206 350.131,-64.8342"/>
</g>
<!-- Node4 -->
<g id="node6" class="node"><title>Node4</title>
<a xlink:href="classUi__Knot__Window.html" target="_top" xlink:title="Ui_Knot_Window">
<polygon fill="none" stroke="black" points="275,-132.5 275,-153.5 367,-153.5 367,-132.5 275,-132.5"/>
<text text-anchor="middle" x="321" y="-140.5" font-family="Helvetica,sans-Serif" font-size="10.00">Ui_Knot_Window</text>
</a>
</g>
<!-- Node4&#45;&gt;Node3 -->
<g id="edge6" class="edge"><title>Node4&#45;&gt;Node3</title>
<path fill="none" stroke="midnightblue" d="M321,-122.231C321,-112.592 321,-101.544 321,-93.6339"/>
<polygon fill="midnightblue" stroke="midnightblue" points="317.5,-122.273 321,-132.273 324.5,-122.273 317.5,-122.273"/>
</g>
<!-- Node5 -->
<g id="node8" class="node"><title>Node5</title>
<polygon fill="none" stroke="#bfbfbf" points="-0.5,-334.5 -0.5,-355.5 54.5,-355.5 54.5,-334.5 -0.5,-334.5"/>
<text text-anchor="middle" x="27" y="-342.5" font-family="Helvetica,sans-Serif" font-size="10.00">QMenu *</text>
</g>
<!-- Node5&#45;&gt;Node4 -->
<g id="edge8" class="edge"><title>Node5&#45;&gt;Node4</title>
<path fill="none" stroke="#9a32cd" stroke-dasharray="5,2" d="M20.3949,-324.366C10.2528,-288.218 -4.14939,-213.358 35,-172 51.1467,-154.943 198.199,-147.29 274.902,-144.434"/>
<polygon fill="#9a32cd" stroke="#9a32cd" points="17.1331,-325.677 23.3416,-334.262 23.842,-323.679 17.1331,-325.677"/>
<text text-anchor="middle" x="68.5" y="-280.5" font-family="Helvetica,sans-Serif" font-size="10.00">menu_Zoom</text>
<text text-anchor="middle" x="68.5" y="-267.5" font-family="Helvetica,sans-Serif" font-size="10.00">menuNo_des</text>
<text text-anchor="middle" x="68.5" y="-254.5" font-family="Helvetica,sans-Serif" font-size="10.00">menu_Edit</text>
<text text-anchor="middle" x="68.5" y="-241.5" font-family="Helvetica,sans-Serif" font-size="10.00">menu_View</text>
<text text-anchor="middle" x="68.5" y="-228.5" font-family="Helvetica,sans-Serif" font-size="10.00">menu_File</text>
<text text-anchor="middle" x="68.5" y="-215.5" font-family="Helvetica,sans-Serif" font-size="10.00">menu_Toolbars</text>
<text text-anchor="middle" x="68.5" y="-202.5" font-family="Helvetica,sans-Serif" font-size="10.00">menu_Knot</text>
</g>
<!-- Node6 -->
<g id="node10" class="node"><title>Node6</title>
<polygon fill="none" stroke="#bfbfbf" points="76,-334.5 76,-355.5 150,-355.5 150,-334.5 76,-334.5"/>
<text text-anchor="middle" x="113" y="-342.5" font-family="Helvetica,sans-Serif" font-size="10.00">QStatusBar *</text>
</g>
<!-- Node6&#45;&gt;Node4 -->
<g id="edge10" class="edge"><title>Node6&#45;&gt;Node4</title>
<path fill="none" stroke="#9a32cd" stroke-dasharray="5,2" d="M109.282,-324.252C104.082,-287.925 99.3699,-212.795 140,-172 158.415,-153.51 227.518,-146.809 274.808,-144.38"/>
<polygon fill="#9a32cd" stroke="#9a32cd" points="105.837,-324.872 110.863,-334.199 112.75,-323.774 105.837,-324.872"/>
<text text-anchor="middle" x="160.5" y="-241.5" font-family="Helvetica,sans-Serif" font-size="10.00">statusbar</text>
</g>
<!-- Node7 -->
<g id="node12" class="node"><title>Node7</title>
<polygon fill="none" stroke="#bfbfbf" points="168,-334.5 168,-355.5 230,-355.5 230,-334.5 168,-334.5"/>
<text text-anchor="middle" x="199" y="-342.5" font-family="Helvetica,sans-Serif" font-size="10.00">QWidget *</text>
</g>
<!-- Node7&#45;&gt;Node4 -->
<g id="edge12" class="edge"><title>Node7&#45;&gt;Node4</title>
<path fill="none" stroke="#9a32cd" stroke-dasharray="5,2" d="M193.212,-324.401C184.598,-288.907 173.008,-215.824 209,-172 217.541,-161.6 247.827,-154.142 274.754,-149.396"/>
<polygon fill="#9a32cd" stroke="#9a32cd" points="189.838,-325.332 195.734,-334.135 196.614,-323.577 189.838,-325.332"/>
<text text-anchor="middle" x="239.5" y="-241.5" font-family="Helvetica,sans-Serif" font-size="10.00">centralWidget</text>
</g>
<!-- Node8 -->
<g id="node14" class="node"><title>Node8</title>
<polygon fill="none" stroke="#bfbfbf" points="248,-334.5 248,-355.5 326,-355.5 326,-334.5 248,-334.5"/>
<text text-anchor="middle" x="287" y="-342.5" font-family="Helvetica,sans-Serif" font-size="10.00">QGridLayout *</text>
</g>
<!-- Node8&#45;&gt;Node4 -->
<g id="edge14" class="edge"><title>Node8&#45;&gt;Node4</title>
<path fill="none" stroke="#9a32cd" stroke-dasharray="5,2" d="M281.878,-324.169C274.699,-290.447 264.938,-222.579 288,-172 291.354,-164.644 297.588,-158.408 303.743,-153.625"/>
<polygon fill="#9a32cd" stroke="#9a32cd" points="278.533,-325.246 284.162,-334.222 285.359,-323.695 278.533,-325.246"/>
<text text-anchor="middle" x="311" y="-241.5" font-family="Helvetica,sans-Serif" font-size="10.00">gridLayout</text>
</g>
<!-- Node9 -->
<g id="node16" class="node"><title>Node9</title>
<polygon fill="none" stroke="#bfbfbf" points="343.5,-334.5 343.5,-355.5 402.5,-355.5 402.5,-334.5 343.5,-334.5"/>
<text text-anchor="middle" x="373" y="-342.5" font-family="Helvetica,sans-Serif" font-size="10.00">QAction *</text>
</g>
<!-- Node9&#45;&gt;Node4 -->
<g id="edge16" class="edge"><title>Node9&#45;&gt;Node4</title>
<path fill="none" stroke="#9a32cd" stroke-dasharray="5,2" d="M361.118,-325.61C359.548,-322.478 358.103,-319.208 357,-316 335.92,-254.713 352.527,-234.107 334,-172 332.139,-165.761 329.231,-159.112 326.638,-153.757"/>
<polygon fill="#9a32cd" stroke="#9a32cd" points="358.079,-327.348 365.988,-334.398 364.202,-323.955 358.079,-327.348"/>
<text text-anchor="middle" x="405.5" y="-306.5" font-family="Helvetica,sans-Serif" font-size="10.00">actionEdge_List</text>
<text text-anchor="middle" x="405.5" y="-293.5" font-family="Helvetica,sans-Serif" font-size="10.00">actionInsert_Edges</text>
<text text-anchor="middle" x="405.5" y="-280.5" font-family="Helvetica,sans-Serif" font-size="10.00">action_Export</text>
<text text-anchor="middle" x="405.5" y="-267.5" font-family="Helvetica,sans-Serif" font-size="10.00">actionConfigure_G_rid</text>
<text text-anchor="middle" x="405.5" y="-254.5" font-family="Helvetica,sans-Serif" font-size="10.00">action_Style</text>
<text text-anchor="middle" x="405.5" y="-241.5" font-family="Helvetica,sans-Serif" font-size="10.00">action_Reset_Zoom</text>
<text text-anchor="middle" x="405.5" y="-228.5" font-family="Helvetica,sans-Serif" font-size="10.00">action_Erase</text>
<text text-anchor="middle" x="405.5" y="-215.5" font-family="Helvetica,sans-Serif" font-size="10.00">actionSave_As</text>
<text text-anchor="middle" x="405.5" y="-202.5" font-family="Helvetica,sans-Serif" font-size="10.00">actionShow_Knot_line</text>
<text text-anchor="middle" x="405.5" y="-189.5" font-family="Helvetica,sans-Serif" font-size="10.00">action_Undo</text>
<text text-anchor="middle" x="405.5" y="-176.5" font-family="Helvetica,sans-Serif" font-size="10.00">...</text>
</g>
<!-- Node10 -->
<g id="node18" class="node"><title>Node10</title>
<polygon fill="none" stroke="#bfbfbf" points="441.5,-334.5 441.5,-355.5 506.5,-355.5 506.5,-334.5 441.5,-334.5"/>
<text text-anchor="middle" x="474" y="-342.5" font-family="Helvetica,sans-Serif" font-size="10.00">QToolBar *</text>
</g>
<!-- Node10&#45;&gt;Node4 -->
<g id="edge18" class="edge"><title>Node10&#45;&gt;Node4</title>
<path fill="none" stroke="#9a32cd" stroke-dasharray="5,2" d="M474.499,-324.321C475.039,-283.35 473.843,-193.925 454,-172 442.423,-159.209 400.792,-151.575 367.153,-147.377"/>
<polygon fill="#9a32cd" stroke="#9a32cd" points="470.996,-324.433 474.315,-334.495 477.995,-324.56 470.996,-324.433"/>
<text text-anchor="middle" x="502.5" y="-248" font-family="Helvetica,sans-Serif" font-size="10.00">EditBar</text>
<text text-anchor="middle" x="502.5" y="-235" font-family="Helvetica,sans-Serif" font-size="10.00">MainToolBar</text>
</g>
<!-- Node11 -->
<g id="node20" class="node"><title>Node11</title>
<polygon fill="none" stroke="#bfbfbf" points="523.5,-334.5 523.5,-355.5 588.5,-355.5 588.5,-334.5 523.5,-334.5"/>
<text text-anchor="middle" x="556" y="-342.5" font-family="Helvetica,sans-Serif" font-size="10.00">KnotView *</text>
</g>
<!-- Node11&#45;&gt;Node4 -->
<g id="edge20" class="edge"><title>Node11&#45;&gt;Node4</title>
<path fill="none" stroke="#9a32cd" stroke-dasharray="5,2" d="M560.504,-324.239C567.046,-287.89 574.37,-212.728 534,-172 522.44,-160.337 426.099,-151.004 367.015,-146.309"/>
<polygon fill="#9a32cd" stroke="#9a32cd" points="557.042,-323.705 558.552,-334.192 563.911,-325.052 557.042,-323.705"/>
<text text-anchor="middle" x="581" y="-241.5" font-family="Helvetica,sans-Serif" font-size="10.00">canvas</text>
</g>
<!-- Node12 -->
<g id="node22" class="node"><title>Node12</title>
<polygon fill="none" stroke="#bfbfbf" points="606,-334.5 606,-355.5 676,-355.5 676,-334.5 606,-334.5"/>
<text text-anchor="middle" x="641" y="-342.5" font-family="Helvetica,sans-Serif" font-size="10.00">QMenuBar *</text>
</g>
<!-- Node12&#45;&gt;Node4 -->
<g id="edge22" class="edge"><title>Node12&#45;&gt;Node4</title>
<path fill="none" stroke="#9a32cd" stroke-dasharray="5,2" d="M643.137,-324.345C645.674,-287.538 644.975,-210.834 601,-172 583.852,-156.857 441.986,-148.351 367.025,-144.875"/>
<polygon fill="#9a32cd" stroke="#9a32cd" points="639.641,-324.142 642.29,-334.401 646.617,-324.73 639.641,-324.142"/>
<text text-anchor="middle" x="663" y="-241.5" font-family="Helvetica,sans-Serif" font-size="10.00">menuBar</text>
</g>
<!-- Node13 -->
<g id="node24" class="node"><title>Node13</title>
<polygon fill="none" stroke="#bfbfbf" points="384.5,-72.5 384.5,-93.5 461.5,-93.5 461.5,-72.5 384.5,-72.5"/>
<text text-anchor="middle" x="423" y="-80.5" font-family="Helvetica,sans-Serif" font-size="10.00">ClipboardItem</text>
</g>
<!-- Node13&#45;&gt;Node1 -->
<g id="edge24" class="edge"><title>Node13&#45;&gt;Node1</title>
<path fill="none" stroke="#9a32cd" stroke-dasharray="5,2" d="M434.994,-63.8099C443.431,-50.3106 454.409,-32.7449 461.333,-21.6674"/>
<polygon fill="#9a32cd" stroke="#9a32cd" points="431.972,-62.0411 429.64,-72.3762 437.908,-65.7512 431.972,-62.0411"/>
<text text-anchor="middle" x="470" y="-44.5" font-family="Helvetica,sans-Serif" font-size="10.00">clipboard</text>
</g>
<!-- Node14 -->
<g id="node26" class="node"><title>Node14</title>
<polygon fill="none" stroke="#bfbfbf" points="478.5,-72.5 478.5,-93.5 547.5,-93.5 547.5,-72.5 478.5,-72.5"/>
<text text-anchor="middle" x="513" y="-80.5" font-family="Helvetica,sans-Serif" font-size="10.00">QUndoView</text>
</g>
<!-- Node14&#45;&gt;Node1 -->
<g id="edge26" class="edge"><title>Node14&#45;&gt;Node1</title>
<path fill="none" stroke="#9a32cd" stroke-dasharray="5,2" d="M503.965,-63.3447C500.26,-55.8544 495.732,-47.3551 491,-40 486.897,-33.6232 481.69,-26.9636 477.268,-21.6367"/>
<polygon fill="#9a32cd" stroke="#9a32cd" points="500.837,-64.9173 508.309,-72.4292 507.152,-61.8976 500.837,-64.9173"/>
<text text-anchor="middle" x="521.5" y="-44.5" font-family="Helvetica,sans-Serif" font-size="10.00">undoView</text>
</g>
<!-- Node15 -->
<g id="node28" class="node"><title>Node15</title>
<polygon fill="none" stroke="#bfbfbf" points="565,-72.5 565,-93.5 615,-93.5 615,-72.5 565,-72.5"/>
<text text-anchor="middle" x="590" y="-80.5" font-family="Helvetica,sans-Serif" font-size="10.00">QString</text>
</g>
<!-- Node15&#45;&gt;Node1 -->
<g id="edge28" class="edge"><title>Node15&#45;&gt;Node1</title>
<path fill="none" stroke="#9a32cd" stroke-dasharray="5,2" d="M574.883,-64.5539C567.235,-56.1561 557.382,-46.6343 547,-40 534.689,-32.133 519.941,-25.9871 506.539,-21.418"/>
<polygon fill="#9a32cd" stroke="#9a32cd" points="572.277,-66.8908 581.486,-72.1301 577.554,-62.2917 572.277,-66.8908"/>
<text text-anchor="middle" x="581.5" y="-44.5" font-family="Helvetica,sans-Serif" font-size="10.00">filename</text>
</g>
<!-- Node16 -->
<g id="node30" class="node"><title>Node16</title>
<polygon fill="none" stroke="#bfbfbf" points="632.5,-72.5 632.5,-93.5 699.5,-93.5 699.5,-72.5 632.5,-72.5"/>
<text text-anchor="middle" x="666" y="-80.5" font-family="Helvetica,sans-Serif" font-size="10.00">StyleDialog</text>
</g>
<!-- Node16&#45;&gt;Node1 -->
<g id="edge30" class="edge"><title>Node16&#45;&gt;Node1</title>
<path fill="none" stroke="#9a32cd" stroke-dasharray="5,2" d="M645.525,-65.703C633.996,-56.7904 618.946,-46.4646 604,-40 572.757,-26.4864 534.673,-19.0614 506.762,-15.1176"/>
<polygon fill="#9a32cd" stroke="#9a32cd" points="643.599,-68.6442 653.595,-72.1558 647.971,-63.1771 643.599,-68.6442"/>
<text text-anchor="middle" x="653" y="-44.5" font-family="Helvetica,sans-Serif" font-size="10.00">style_dialog</text>
</g>
</g>
</svg>
