<?xml version="1.0" encoding="UTF-8" standalone="no"?>
<!DOCTYPE svg PUBLIC "-//W3C//DTD SVG 1.1//EN"
 "http://www.w3.org/Graphics/SVG/1.1/DTD/svg11.dtd">
<!-- Generated by graphviz version 2.26.3 (20100126.1600)
 -->
<!-- Title: G Pages: 1 -->
<svg width="256pt" height="102pt"
 viewBox="0.00 0.00 256.00 102.00" xmlns="http://www.w3.org/2000/svg" xmlns:xlink="http://www.w3.org/1999/xlink">
<g id="graph1" class="graph" transform="scale(1 1) rotate(0) translate(4 98)">
<title>G</title>
<!-- Node1 -->
<g id="node1" class="node"><title>Node1</title>
<polygon fill="#bfbfbf" stroke="black" points="79.5,-0.5 79.5,-21.5 156.5,-21.5 156.5,-0.5 79.5,-0.5"/>
<text text-anchor="middle" x="118" y="-8.5" font-family="Helvetica,sans-Serif" font-size="10.00">snapping_grid</text>
</g>
<!-- Node2 -->
<g id="node2" class="node"><title>Node2</title>
<polygon fill="none" stroke="#bfbfbf" points="-0.5,-72.5 -0.5,-93.5 44.5,-93.5 44.5,-72.5 -0.5,-72.5"/>
<text text-anchor="middle" x="22" y="-80.5" font-family="Helvetica,sans-Serif" font-size="10.00">double</text>
</g>
<!-- Node2&#45;&gt;Node1 -->
<g id="edge2" class="edge"><title>Node2&#45;&gt;Node1</title>
<path fill="none" stroke="#9a32cd" stroke-dasharray="5,2" d="M41.8394,-65.7389C51.3707,-57.6698 63.0733,-48.0818 74,-40 82.6794,-33.5803 92.7059,-26.9173 100.994,-21.5993"/>
<polygon fill="#9a32cd" stroke="#9a32cd" points="39.4201,-63.2026 34.0966,-72.3629 43.9706,-68.5217 39.4201,-63.2026"/>
<text text-anchor="middle" x="83.5" y="-44.5" font-family="Helvetica,sans-Serif" font-size="10.00">size</text>
</g>
<!-- Node3 -->
<g id="node4" class="node"><title>Node3</title>
<polygon fill="none" stroke="#bfbfbf" points="61.5,-72.5 61.5,-93.5 114.5,-93.5 114.5,-72.5 61.5,-72.5"/>
<text text-anchor="middle" x="88" y="-80.5" font-family="Helvetica,sans-Serif" font-size="10.00">QPointF</text>
</g>
<!-- Node3&#45;&gt;Node1 -->
<g id="edge4" class="edge"><title>Node3&#45;&gt;Node1</title>
<path fill="none" stroke="#9a32cd" stroke-dasharray="5,2" d="M94.4807,-62.5258C96.9347,-55.3204 99.8915,-47.2213 103,-40 105.689,-33.7523 109.153,-26.9897 112.075,-21.5678"/>
<polygon fill="#9a32cd" stroke="#9a32cd" points="91.0864,-61.6439 91.2861,-72.2368 97.7358,-63.8313 91.0864,-61.6439"/>
<text text-anchor="middle" x="115" y="-44.5" font-family="Helvetica,sans-Serif" font-size="10.00">origin</text>
</g>
<!-- Node4 -->
<g id="node6" class="node"><title>Node4</title>
<polygon fill="none" stroke="#bfbfbf" points="131.5,-72.5 131.5,-93.5 166.5,-93.5 166.5,-72.5 131.5,-72.5"/>
<text text-anchor="middle" x="149" y="-80.5" font-family="Helvetica,sans-Serif" font-size="10.00">bool</text>
</g>
<!-- Node4&#45;&gt;Node1 -->
<g id="edge6" class="edge"><title>Node4&#45;&gt;Node1</title>
<path fill="none" stroke="#9a32cd" stroke-dasharray="5,2" d="M140.4,-63.0266C134.636,-49.6374 127.271,-32.5318 122.593,-21.6674"/>
<polygon fill="#9a32cd" stroke="#9a32cd" points="137.257,-64.5754 144.426,-72.3762 143.686,-61.8072 137.257,-64.5754"/>
<text text-anchor="middle" x="153" y="-44.5" font-family="Helvetica,sans-Serif" font-size="10.00">enabled</text>
</g>
<!-- Node5 -->
<g id="node8" class="node"><title>Node5</title>
<polygon fill="none" stroke="#bfbfbf" points="184,-72.5 184,-93.5 248,-93.5 248,-72.5 184,-72.5"/>
<text text-anchor="middle" x="216" y="-80.5" font-family="Helvetica,sans-Serif" font-size="10.00">grid_shape</text>
</g>
<!-- Node5&#45;&gt;Node1 -->
<g id="edge8" class="edge"><title>Node5&#45;&gt;Node1</title>
<path fill="none" stroke="#9a32cd" stroke-dasharray="5,2" d="M200.392,-64.5223C192.934,-56.3821 183.56,-47.0806 174,-40 164.322,-32.832 152.622,-26.4696 142.424,-21.5441"/>
<polygon fill="#9a32cd" stroke="#9a32cd" points="197.898,-66.9846 207.148,-72.1503 203.138,-62.3436 197.898,-66.9846"/>
<text text-anchor="middle" x="202.5" y="-44.5" font-family="Helvetica,sans-Serif" font-size="10.00">shape</text>
</g>
</g>
</svg>
