<?xml version="1.0" encoding="UTF-8" standalone="no"?>
<!DOCTYPE svg PUBLIC "-//W3C//DTD SVG 1.1//EN"
 "http://www.w3.org/Graphics/SVG/1.1/DTD/svg11.dtd">
<!-- Generated by graphviz version 2.26.3 (20100126.1600)
 -->
<!-- Title: G Pages: 1 -->
<svg width="814pt" height="659pt"
 viewBox="0.00 0.00 814.00 659.00" xmlns="http://www.w3.org/2000/svg" xmlns:xlink="http://www.w3.org/1999/xlink">
<g id="graph1" class="graph" transform="scale(1 1) rotate(0) translate(4 655)">
<title>G</title>
<!-- Node1 -->
<g id="node1" class="node"><title>Node1</title>
<polygon fill="#bfbfbf" stroke="black" points="730,-343.5 730,-364.5 806,-364.5 806,-343.5 730,-343.5"/>
<text text-anchor="middle" x="768" y="-351.5" font-family="Helvetica,sans-Serif" font-size="10.00">RemoveEdge</text>
</g>
<!-- Node2 -->
<g id="node2" class="node"><title>Node2</title>
<a xlink:href="classQUndoCommand.html" target="_top" xlink:title="QUndoCommand">
<polygon fill="none" stroke="black" points="590,-383.5 590,-404.5 682,-404.5 682,-383.5 590,-383.5"/>
<text text-anchor="middle" x="636" y="-391.5" font-family="Helvetica,sans-Serif" font-size="10.00">QUndoCommand</text>
</a>
</g>
<!-- Node2&#45;&gt;Node1 -->
<g id="edge2" class="edge"><title>Node2&#45;&gt;Node1</title>
<path fill="none" stroke="midnightblue" d="M680.49,-380.543C690.834,-377.412 701.802,-374.091 712,-371 718.904,-368.907 726.285,-366.668 733.349,-364.524"/>
<polygon fill="midnightblue" stroke="midnightblue" points="679.368,-377.226 670.81,-383.472 681.395,-383.926 679.368,-377.226"/>
</g>
<!-- Node3 -->
<g id="node4" class="node"><title>Node3</title>
<a xlink:href="classNode.html" target="_top" xlink:title="Node">
<polygon fill="none" stroke="black" points="417,-61.5 417,-82.5 457,-82.5 457,-61.5 417,-61.5"/>
<text text-anchor="middle" x="437" y="-69.5" font-family="Helvetica,sans-Serif" font-size="10.00">Node</text>
</a>
</g>
<!-- Node3&#45;&gt;Node1 -->
<g id="edge4" class="edge"><title>Node3&#45;&gt;Node1</title>
<path fill="none" stroke="#9a32cd" stroke-dasharray="5,2" d="M467.294,-75.1428C496.207,-79.3231 539.983,-88.83 572,-110 670.352,-175.032 742.797,-305.134 762.587,-343.265"/>
<polygon fill="#9a32cd" stroke="#9a32cd" points="467.735,-71.6708 457.363,-73.832 466.819,-78.6106 467.735,-71.6708"/>
<text text-anchor="middle" x="636" y="-231" font-family="Helvetica,sans-Serif" font-size="10.00">n1</text>
<text text-anchor="middle" x="636" y="-218" font-family="Helvetica,sans-Serif" font-size="10.00">n2</text>
</g>
<!-- Node9 -->
<g id="node16" class="node"><title>Node9</title>
<a xlink:href="classKnotView.html" target="_top" xlink:title="KnotView">
<polygon fill="none" stroke="black" points="606.5,-343.5 606.5,-364.5 665.5,-364.5 665.5,-343.5 606.5,-343.5"/>
<text text-anchor="middle" x="636" y="-351.5" font-family="Helvetica,sans-Serif" font-size="10.00">KnotView</text>
</a>
</g>
<!-- Node3&#45;&gt;Node9 -->
<g id="edge20" class="edge"><title>Node3&#45;&gt;Node9</title>
<path fill="none" stroke="#9a32cd" stroke-dasharray="5,2" d="M466.29,-86.3608C496.747,-102.689 543.831,-132.072 572,-170 614.147,-226.748 630.133,-313.477 634.582,-343.41"/>
<polygon fill="#9a32cd" stroke="#9a32cd" points="467.895,-83.2503 457.412,-81.7176 464.651,-89.4533 467.895,-83.2503"/>
<text text-anchor="middle" x="541" y="-174" font-family="Helvetica,sans-Serif" font-size="10.00">last_node</text>
</g>
<!-- Node4 -->
<g id="node6" class="node"><title>Node4</title>
<a xlink:href="classCustomItem.html" target="_top" xlink:title="CustomItem">
<polygon fill="none" stroke="black" points="176.5,-45.5 176.5,-66.5 247.5,-66.5 247.5,-45.5 176.5,-45.5"/>
<text text-anchor="middle" x="212" y="-53.5" font-family="Helvetica,sans-Serif" font-size="10.00">CustomItem</text>
</a>
</g>
<!-- Node4&#45;&gt;Node3 -->
<g id="edge6" class="edge"><title>Node4&#45;&gt;Node3</title>
<path fill="none" stroke="midnightblue" d="M258.034,-51.5941C288.275,-49.5587 328.637,-48.4734 364,-53 382.186,-55.3279 402.313,-60.792 416.82,-65.2659"/>
<polygon fill="midnightblue" stroke="midnightblue" points="257.502,-48.1237 247.785,-52.3461 258.014,-55.105 257.502,-48.1237"/>
</g>
<!-- Node5 -->
<g id="node8" class="node"><title>Node5</title>
<a xlink:href="classQGraphicsItem.html" target="_top" xlink:title="QGraphicsItem">
<polygon fill="none" stroke="black" points="0.5,-45.5 0.5,-66.5 83.5,-66.5 83.5,-45.5 0.5,-45.5"/>
<text text-anchor="middle" x="42" y="-53.5" font-family="Helvetica,sans-Serif" font-size="10.00">QGraphicsItem</text>
</a>
</g>
<!-- Node5&#45;&gt;Node4 -->
<g id="edge8" class="edge"><title>Node5&#45;&gt;Node4</title>
<path fill="none" stroke="midnightblue" d="M93.9076,-56C120.585,-56 152.417,-56 176.307,-56"/>
<polygon fill="midnightblue" stroke="midnightblue" points="93.5867,-52.5001 83.5867,-56 93.5866,-59.5001 93.5867,-52.5001"/>
</g>
<!-- Node6 -->
<g id="node10" class="node"><title>Node6</title>
<polygon fill="none" stroke="#bfbfbf" points="24.5,-275.5 24.5,-296.5 59.5,-296.5 59.5,-275.5 24.5,-275.5"/>
<text text-anchor="middle" x="42" y="-283.5" font-family="Helvetica,sans-Serif" font-size="10.00">bool</text>
</g>
<!-- Node6&#45;&gt;Node4 -->
<g id="edge10" class="edge"><title>Node6&#45;&gt;Node4</title>
<path fill="none" stroke="#9a32cd" stroke-dasharray="5,2" d="M49.1026,-265.863C63.8667,-226.47 101.289,-138.327 158,-84 165.55,-76.7677 175.336,-70.9417 184.5,-66.5159"/>
<polygon fill="#9a32cd" stroke="#9a32cd" points="45.7605,-264.812 45.6157,-275.405 52.3353,-267.214 45.7605,-264.812"/>
<text text-anchor="middle" x="121" y="-157" font-family="Helvetica,sans-Serif" font-size="10.00">highlight</text>
</g>
<!-- Node14 -->
<g id="node27" class="node"><title>Node14</title>
<a xlink:href="classsnapping__grid.html" target="_top" xlink:title="snapping_grid">
<polygon fill="none" stroke="black" points="398.5,-420.5 398.5,-441.5 475.5,-441.5 475.5,-420.5 398.5,-420.5"/>
<text text-anchor="middle" x="437" y="-428.5" font-family="Helvetica,sans-Serif" font-size="10.00">snapping_grid</text>
</a>
</g>
<!-- Node6&#45;&gt;Node14 -->
<g id="edge34" class="edge"><title>Node6&#45;&gt;Node14</title>
<path fill="none" stroke="#9a32cd" stroke-dasharray="5,2" d="M49.1665,-306.351C63.3378,-343.055 98.8016,-419.362 158,-450 241.432,-493.18 358.137,-460.229 410.15,-441.566"/>
<polygon fill="#9a32cd" stroke="#9a32cd" points="52.3528,-304.878 45.5899,-296.722 45.7908,-307.315 52.3528,-304.878"/>
<text text-anchor="middle" x="212" y="-475" font-family="Helvetica,sans-Serif" font-size="10.00">enabled</text>
</g>
<!-- Node7 -->
<g id="node12" class="node"><title>Node7</title>
<polygon fill="none" stroke="#bfbfbf" points="197.5,-0.5 197.5,-21.5 226.5,-21.5 226.5,-0.5 197.5,-0.5"/>
<text text-anchor="middle" x="212" y="-8.5" font-family="Helvetica,sans-Serif" font-size="10.00">int</text>
</g>
<!-- Node7&#45;&gt;Node3 -->
<g id="edge12" class="edge"><title>Node7&#45;&gt;Node3</title>
<path fill="none" stroke="#9a32cd" stroke-dasharray="5,2" d="M236.839,-11.6791C267.459,-13.1352 320.749,-17.7016 364,-32 385.131,-38.9855 407.255,-52.0417 421.532,-61.3368"/>
<polygon fill="#9a32cd" stroke="#9a32cd" points="236.776,-8.17385 226.644,-11.2711 236.496,-15.1683 236.776,-8.17385"/>
<text text-anchor="middle" x="324" y="-36" font-family="Helvetica,sans-Serif" font-size="10.00">radius</text>
</g>
<!-- Node8 -->
<g id="node14" class="node"><title>Node8</title>
<polygon fill="none" stroke="#bfbfbf" points="168.5,-93.5 168.5,-114.5 255.5,-114.5 255.5,-93.5 168.5,-93.5"/>
<text text-anchor="middle" x="212" y="-101.5" font-family="Helvetica,sans-Serif" font-size="10.00">QList&lt; Edge * &gt;</text>
</g>
<!-- Node8&#45;&gt;Node3 -->
<g id="edge14" class="edge"><title>Node8&#45;&gt;Node3</title>
<path fill="none" stroke="#9a32cd" stroke-dasharray="5,2" d="M240.156,-88.7658C253.112,-82.5813 268.927,-76.1583 284,-73 330.797,-63.1941 387.427,-66.6834 416.926,-69.6194"/>
<polygon fill="#9a32cd" stroke="#9a32cd" points="238.257,-85.8011 230.865,-93.3907 241.377,-92.0677 238.257,-85.8011"/>
<text text-anchor="middle" x="324" y="-77" font-family="Helvetica,sans-Serif" font-size="10.00">edges</text>
</g>
<!-- Node19 -->
<g id="node39" class="node"><title>Node19</title>
<a xlink:href="classKnotGraph.html" target="_top" xlink:title="KnotGraph">
<polygon fill="none" stroke="black" points="405.5,-253.5 405.5,-274.5 468.5,-274.5 468.5,-253.5 405.5,-253.5"/>
<text text-anchor="middle" x="437" y="-261.5" font-family="Helvetica,sans-Serif" font-size="10.00">KnotGraph</text>
</a>
</g>
<!-- Node8&#45;&gt;Node19 -->
<g id="edge52" class="edge"><title>Node8&#45;&gt;Node19</title>
<path fill="none" stroke="#9a32cd" stroke-dasharray="5,2" d="M266.088,-93.3293C298.597,-90.2429 338.479,-92.857 364,-117 405.414,-156.178 346.091,-199.722 382,-244 387.888,-251.26 396.647,-255.885 405.454,-258.831"/>
<polygon fill="#9a32cd" stroke="#9a32cd" points="265.354,-89.8907 255.82,-94.5117 266.155,-96.8447 265.354,-89.8907"/>
<text text-anchor="middle" x="324" y="-134" font-family="Helvetica,sans-Serif" font-size="10.00">traversed_edges</text>
<text text-anchor="middle" x="324" y="-121" font-family="Helvetica,sans-Serif" font-size="10.00">edges</text>
</g>
<!-- Node9&#45;&gt;Node1 -->
<g id="edge16" class="edge"><title>Node9&#45;&gt;Node1</title>
<path fill="none" stroke="#9a32cd" stroke-dasharray="5,2" d="M675.888,-354C693.04,-354 712.997,-354 729.941,-354"/>
<polygon fill="#9a32cd" stroke="#9a32cd" points="675.623,-350.5 665.623,-354 675.623,-357.5 675.623,-350.5"/>
<text text-anchor="middle" x="706" y="-358" font-family="Helvetica,sans-Serif" font-size="10.00">kv</text>
</g>
<!-- Node10 -->
<g id="node18" class="node"><title>Node10</title>
<a xlink:href="classQGraphicsView.html" target="_top" xlink:title="QGraphicsView">
<polygon fill="none" stroke="black" points="394.5,-589.5 394.5,-610.5 479.5,-610.5 479.5,-589.5 394.5,-589.5"/>
<text text-anchor="middle" x="437" y="-597.5" font-family="Helvetica,sans-Serif" font-size="10.00">QGraphicsView</text>
</a>
</g>
<!-- Node10&#45;&gt;Node9 -->
<g id="edge18" class="edge"><title>Node10&#45;&gt;Node9</title>
<path fill="none" stroke="midnightblue" d="M489.932,-606.574C518.263,-606.955 551.456,-601.813 572,-580 603.505,-546.548 563.154,-411.295 590,-374 594.07,-368.346 600.088,-364.272 606.44,-361.344"/>
<polygon fill="midnightblue" stroke="midnightblue" points="489.868,-603.07 479.747,-606.205 489.614,-610.065 489.868,-603.07"/>
</g>
<!-- Node11 -->
<g id="node21" class="node"><title>Node11</title>
<polygon fill="none" stroke="#bfbfbf" points="400.5,-549.5 400.5,-570.5 473.5,-570.5 473.5,-549.5 400.5,-549.5"/>
<text text-anchor="middle" x="437" y="-557.5" font-family="Helvetica,sans-Serif" font-size="10.00">QUndoStack</text>
</g>
<!-- Node11&#45;&gt;Node9 -->
<g id="edge22" class="edge"><title>Node11&#45;&gt;Node9</title>
<path fill="none" stroke="#9a32cd" stroke-dasharray="5,2" d="M483.903,-564.7C513.408,-564.887 549.945,-559.544 572,-536 621.526,-483.131 546.99,-432.293 590,-374 594.033,-368.534 599.878,-364.543 606.058,-361.634"/>
<polygon fill="#9a32cd" stroke="#9a32cd" points="483.887,-561.199 473.795,-564.425 483.696,-568.196 483.887,-561.199"/>
<text text-anchor="middle" x="541" y="-567" font-family="Helvetica,sans-Serif" font-size="10.00">undo_stack</text>
</g>
<!-- Node12 -->
<g id="node23" class="node"><title>Node12</title>
<polygon fill="none" stroke="#bfbfbf" points="386,-509.5 386,-530.5 488,-530.5 488,-509.5 386,-509.5"/>
<text text-anchor="middle" x="437" y="-517.5" font-family="Helvetica,sans-Serif" font-size="10.00">mouse_status_type</text>
</g>
<!-- Node12&#45;&gt;Node9 -->
<g id="edge24" class="edge"><title>Node12&#45;&gt;Node9</title>
<path fill="none" stroke="#9a32cd" stroke-dasharray="5,2" d="M498.28,-521.981C524.459,-519.503 553.244,-511.78 572,-492 608.503,-453.504 557.64,-416.039 590,-374 594.143,-368.617 600.032,-364.658 606.218,-361.755"/>
<polygon fill="#9a32cd" stroke="#9a32cd" points="497.75,-518.51 488.022,-522.707 498.244,-525.493 497.75,-518.51"/>
<text text-anchor="middle" x="541" y="-523" font-family="Helvetica,sans-Serif" font-size="10.00">mouse_status</text>
</g>
<!-- Node13 -->
<g id="node25" class="node"><title>Node13</title>
<polygon fill="none" stroke="#bfbfbf" points="185.5,-517.5 185.5,-538.5 238.5,-538.5 238.5,-517.5 185.5,-517.5"/>
<text text-anchor="middle" x="212" y="-525.5" font-family="Helvetica,sans-Serif" font-size="10.00">QPointF</text>
</g>
<!-- Node13&#45;&gt;Node9 -->
<g id="edge26" class="edge"><title>Node13&#45;&gt;Node9</title>
<path fill="none" stroke="#9a32cd" stroke-dasharray="5,2" d="M248.692,-537.05C281.571,-542.976 329.755,-546.055 364,-524 379.375,-514.098 368.217,-499.019 382,-487 449.711,-427.953 508.566,-481.619 572,-418 586.918,-403.038 575.224,-389.102 590,-374 594.507,-369.394 600.252,-365.78 606.142,-362.968"/>
<polygon fill="#9a32cd" stroke="#9a32cd" points="249.081,-533.559 238.592,-535.054 247.724,-540.426 249.081,-533.559"/>
<text text-anchor="middle" x="437" y="-491" font-family="Helvetica,sans-Serif" font-size="10.00">oldpos</text>
</g>
<!-- Node13&#45;&gt;Node14 -->
<g id="edge32" class="edge"><title>Node13&#45;&gt;Node14</title>
<path fill="none" stroke="#9a32cd" stroke-dasharray="5,2" d="M248.709,-519.101C292.186,-508.449 359.352,-491.591 364,-488 376.912,-478.023 369.978,-467.033 382,-456 388.491,-450.043 396.644,-445.303 404.67,-441.624"/>
<polygon fill="#9a32cd" stroke="#9a32cd" points="247.637,-515.76 238.753,-521.533 249.298,-522.56 247.637,-515.76"/>
<text text-anchor="middle" x="324" y="-514" font-family="Helvetica,sans-Serif" font-size="10.00">origin</text>
</g>
<!-- Node14&#45;&gt;Node9 -->
<g id="edge28" class="edge"><title>Node14&#45;&gt;Node9</title>
<path fill="none" stroke="#9a32cd" stroke-dasharray="5,2" d="M473.689,-416.804C512.773,-401.681 573.73,-378.094 608.758,-364.541"/>
<polygon fill="#9a32cd" stroke="#9a32cd" points="472.316,-413.582 464.253,-420.455 474.842,-420.11 472.316,-413.582"/>
<text text-anchor="middle" x="541" y="-405" font-family="Helvetica,sans-Serif" font-size="10.00">grid</text>
</g>
<!-- Node15 -->
<g id="node29" class="node"><title>Node15</title>
<polygon fill="none" stroke="#bfbfbf" points="189.5,-362.5 189.5,-383.5 234.5,-383.5 234.5,-362.5 189.5,-362.5"/>
<text text-anchor="middle" x="212" y="-370.5" font-family="Helvetica,sans-Serif" font-size="10.00">double</text>
</g>
<!-- Node15&#45;&gt;Node14 -->
<g id="edge30" class="edge"><title>Node15&#45;&gt;Node14</title>
<path fill="none" stroke="#9a32cd" stroke-dasharray="5,2" d="M244.512,-381.381C285.252,-391.883 354.983,-409.858 398.393,-421.048"/>
<polygon fill="#9a32cd" stroke="#9a32cd" points="245.37,-377.988 234.812,-378.881 243.622,-384.766 245.37,-377.988"/>
<text text-anchor="middle" x="324" y="-414" font-family="Helvetica,sans-Serif" font-size="10.00">size</text>
</g>
<!-- Node15&#45;&gt;Node19 -->
<g id="edge46" class="edge"><title>Node15&#45;&gt;Node19</title>
<path fill="none" stroke="#9a32cd" stroke-dasharray="5,2" d="M244.291,-361.185C275.621,-349.262 324.142,-329.571 364,-308 372.456,-303.424 373.841,-301.087 382,-296 393.906,-288.578 407.535,-280.644 418.247,-274.533"/>
<polygon fill="#9a32cd" stroke="#9a32cd" points="242.88,-357.976 234.755,-364.776 245.347,-364.527 242.88,-357.976"/>
<text text-anchor="middle" x="324" y="-374" font-family="Helvetica,sans-Serif" font-size="10.00">cusp_angle</text>
<text text-anchor="middle" x="324" y="-361" font-family="Helvetica,sans-Serif" font-size="10.00">crossing_distance</text>
<text text-anchor="middle" x="324" y="-348" font-family="Helvetica,sans-Serif" font-size="10.00">handle_length</text>
</g>
<!-- Node16 -->
<g id="node33" class="node"><title>Node16</title>
<polygon fill="none" stroke="#bfbfbf" points="180,-419.5 180,-440.5 244,-440.5 244,-419.5 180,-419.5"/>
<text text-anchor="middle" x="212" y="-427.5" font-family="Helvetica,sans-Serif" font-size="10.00">grid_shape</text>
</g>
<!-- Node16&#45;&gt;Node14 -->
<g id="edge36" class="edge"><title>Node16&#45;&gt;Node14</title>
<path fill="none" stroke="#9a32cd" stroke-dasharray="5,2" d="M254.287,-430.188C295.714,-430.372 358.304,-430.65 398.411,-430.828"/>
<polygon fill="#9a32cd" stroke="#9a32cd" points="254.253,-426.688 244.237,-430.143 254.221,-433.688 254.253,-426.688"/>
<text text-anchor="middle" x="324" y="-434" font-family="Helvetica,sans-Serif" font-size="10.00">shape</text>
</g>
<!-- Node17 -->
<g id="node35" class="node"><title>Node17</title>
<polygon fill="none" stroke="#bfbfbf" points="382,-213.5 382,-234.5 492,-234.5 492,-213.5 382,-213.5"/>
<text text-anchor="middle" x="437" y="-221.5" font-family="Helvetica,sans-Serif" font-size="10.00">QGraphicsRectItem *</text>
</g>
<!-- Node17&#45;&gt;Node9 -->
<g id="edge38" class="edge"><title>Node17&#45;&gt;Node9</title>
<path fill="none" stroke="#9a32cd" stroke-dasharray="5,2" d="M502.133,-228.127C525.794,-232.171 551.682,-239.797 572,-254 604.774,-276.91 624.629,-322.525 632.324,-343.276"/>
<polygon fill="#9a32cd" stroke="#9a32cd" points="502.565,-224.652 492.152,-226.604 501.509,-231.572 502.565,-224.652"/>
<text text-anchor="middle" x="541" y="-258" font-family="Helvetica,sans-Serif" font-size="10.00">rubberband</text>
</g>
<!-- Node18 -->
<g id="node37" class="node"><title>Node18</title>
<polygon fill="none" stroke="#bfbfbf" points="383.5,-173.5 383.5,-194.5 490.5,-194.5 490.5,-173.5 383.5,-173.5"/>
<text text-anchor="middle" x="437" y="-181.5" font-family="Helvetica,sans-Serif" font-size="10.00">QGraphicsLineItem *</text>
</g>
<!-- Node18&#45;&gt;Node9 -->
<g id="edge40" class="edge"><title>Node18&#45;&gt;Node9</title>
<path fill="none" stroke="#9a32cd" stroke-dasharray="5,2" d="M500.507,-185.66C525.05,-189.169 551.983,-196.874 572,-213 614.707,-247.405 629.99,-316.513 634.437,-343.169"/>
<polygon fill="#9a32cd" stroke="#9a32cd" points="500.874,-182.179 490.523,-184.438 500.023,-189.127 500.874,-182.179"/>
<text text-anchor="middle" x="541" y="-217" font-family="Helvetica,sans-Serif" font-size="10.00">guide</text>
</g>
<!-- Node19&#45;&gt;Node9 -->
<g id="edge42" class="edge"><title>Node19&#45;&gt;Node9</title>
<path fill="none" stroke="#9a32cd" stroke-dasharray="5,2" d="M478.91,-266.164C506.678,-269.052 543.163,-275.713 572,-291 596.244,-303.853 617.403,-328.81 628.259,-343.154"/>
<polygon fill="#9a32cd" stroke="#9a32cd" points="479.005,-262.659 468.728,-265.232 478.367,-269.629 479.005,-262.659"/>
<text text-anchor="middle" x="541" y="-295" font-family="Helvetica,sans-Serif" font-size="10.00">knot</text>
</g>
<!-- Node20 -->
<g id="node41" class="node"><title>Node20</title>
<a xlink:href="classQGraphicsPathItem.html" target="_top" xlink:title="QGraphicsPathItem">
<polygon fill="none" stroke="black" points="160.5,-260.5 160.5,-281.5 263.5,-281.5 263.5,-260.5 160.5,-260.5"/>
<text text-anchor="middle" x="212" y="-268.5" font-family="Helvetica,sans-Serif" font-size="10.00">QGraphicsPathItem</text>
</a>
</g>
<!-- Node20&#45;&gt;Node19 -->
<g id="edge44" class="edge"><title>Node20&#45;&gt;Node19</title>
<path fill="none" stroke="midnightblue" d="M273.628,-269.083C316.304,-267.755 371.352,-266.042 405.405,-264.983"/>
<polygon fill="midnightblue" stroke="midnightblue" points="273.506,-265.585 263.62,-269.394 273.724,-272.581 273.506,-265.585"/>
</g>
<!-- Node21 -->
<g id="node44" class="node"><title>Node21</title>
<polygon fill="none" stroke="#bfbfbf" points="158.5,-220.5 158.5,-241.5 265.5,-241.5 265.5,-220.5 158.5,-220.5"/>
<text text-anchor="middle" x="212" y="-228.5" font-family="Helvetica,sans-Serif" font-size="10.00">QPainterPathStroker</text>
</g>
<!-- Node21&#45;&gt;Node19 -->
<g id="edge48" class="edge"><title>Node21&#45;&gt;Node19</title>
<path fill="none" stroke="#9a32cd" stroke-dasharray="5,2" d="M275.804,-237.338C303.05,-240.359 335.156,-244.337 364,-249 377.667,-251.209 392.662,-254.192 405.487,-256.916"/>
<polygon fill="#9a32cd" stroke="#9a32cd" points="275.937,-233.832 265.616,-236.228 275.178,-240.791 275.937,-233.832"/>
<text text-anchor="middle" x="324" y="-253" font-family="Helvetica,sans-Serif" font-size="10.00">stroker</text>
</g>
<!-- Node22 -->
<g id="node46" class="node"><title>Node22</title>
<polygon fill="none" stroke="#bfbfbf" points="174.5,-180.5 174.5,-201.5 249.5,-201.5 249.5,-180.5 174.5,-180.5"/>
<text text-anchor="middle" x="212" y="-188.5" font-family="Helvetica,sans-Serif" font-size="10.00">QPainterPath</text>
</g>
<!-- Node22&#45;&gt;Node19 -->
<g id="edge50" class="edge"><title>Node22&#45;&gt;Node19</title>
<path fill="none" stroke="#9a32cd" stroke-dasharray="5,2" d="M259.946,-191.943C291.54,-194.524 332.7,-201.775 364,-221 375.061,-227.794 371.494,-236.376 382,-244 388.907,-249.013 397.204,-252.889 405.233,-255.835"/>
<polygon fill="#9a32cd" stroke="#9a32cd" points="259.842,-188.428 249.627,-191.236 259.364,-195.411 259.842,-188.428"/>
<text text-anchor="middle" x="324" y="-225" font-family="Helvetica,sans-Serif" font-size="10.00">knot</text>
</g>
<!-- Node23 -->
<g id="node49" class="node"><title>Node23</title>
<polygon fill="none" stroke="#bfbfbf" points="194.5,-140.5 194.5,-161.5 229.5,-161.5 229.5,-140.5 194.5,-140.5"/>
<text text-anchor="middle" x="212" y="-148.5" font-family="Helvetica,sans-Serif" font-size="10.00">long</text>
</g>
<!-- Node23&#45;&gt;Node19 -->
<g id="edge54" class="edge"><title>Node23&#45;&gt;Node19</title>
<path fill="none" stroke="#9a32cd" stroke-dasharray="5,2" d="M239.688,-147.519C273.413,-144.919 330.07,-146.089 364,-177 386.793,-197.765 361.158,-221.277 382,-244 388.181,-250.739 396.814,-255.211 405.41,-258.178"/>
<polygon fill="#9a32cd" stroke="#9a32cd" points="239.232,-144.046 229.602,-148.463 239.884,-151.016 239.232,-144.046"/>
<text text-anchor="middle" x="324" y="-181" font-family="Helvetica,sans-Serif" font-size="10.00">curve_style</text>
</g>
<!-- Node24 -->
<g id="node51" class="node"><title>Node24</title>
<polygon fill="none" stroke="#bfbfbf" points="168,-305.5 168,-326.5 256,-326.5 256,-305.5 168,-305.5"/>
<text text-anchor="middle" x="212" y="-313.5" font-family="Helvetica,sans-Serif" font-size="10.00">QList&lt; Node * &gt;</text>
</g>
<!-- Node24&#45;&gt;Node9 -->
<g id="edge58" class="edge"><title>Node24&#45;&gt;Node9</title>
<path fill="none" stroke="#9a32cd" stroke-dasharray="5,2" d="M266.238,-320.861C356.773,-328.975 535.711,-345.012 606.334,-351.341"/>
<polygon fill="#9a32cd" stroke="#9a32cd" points="266.448,-317.366 256.176,-319.959 265.823,-324.338 266.448,-317.366"/>
<text text-anchor="middle" x="437" y="-344" font-family="Helvetica,sans-Serif" font-size="10.00">moved_nodes</text>
</g>
<!-- Node24&#45;&gt;Node19 -->
<g id="edge56" class="edge"><title>Node24&#45;&gt;Node19</title>
<path fill="none" stroke="#9a32cd" stroke-dasharray="5,2" d="M248.553,-302.043C259.807,-298.089 272.312,-294.04 284,-291 325.376,-280.239 374.167,-272.453 405.33,-268.084"/>
<polygon fill="#9a32cd" stroke="#9a32cd" points="247.263,-298.787 239.037,-305.464 249.631,-305.374 247.263,-298.787"/>
<text text-anchor="middle" x="324" y="-295" font-family="Helvetica,sans-Serif" font-size="10.00">nodes</text>
</g>
<!-- Node25 -->
<g id="node54" class="node"><title>Node25</title>
<polygon fill="none" stroke="#bfbfbf" points="404.5,-629.5 404.5,-650.5 469.5,-650.5 469.5,-629.5 404.5,-629.5"/>
<text text-anchor="middle" x="437" y="-637.5" font-family="Helvetica,sans-Serif" font-size="10.00">mode_type</text>
</g>
<!-- Node25&#45;&gt;Node9 -->
<g id="edge60" class="edge"><title>Node25&#45;&gt;Node9</title>
<path fill="none" stroke="#9a32cd" stroke-dasharray="5,2" d="M480.157,-641.392C510.627,-639.85 549.834,-632.276 572,-606 605.343,-566.475 559.994,-416.115 590,-374 594.042,-368.326 600.051,-364.245 606.401,-361.316"/>
<polygon fill="#9a32cd" stroke="#9a32cd" points="479.675,-637.905 469.785,-641.707 479.887,-644.902 479.675,-637.905"/>
<text text-anchor="middle" x="541" y="-641" font-family="Helvetica,sans-Serif" font-size="10.00">mode</text>
</g>
</g>
</svg>
