<?xml version="1.0" encoding="UTF-8" standalone="no"?>
<!DOCTYPE svg PUBLIC "-//W3C//DTD SVG 1.1//EN"
 "http://www.w3.org/Graphics/SVG/1.1/DTD/svg11.dtd">
<!-- Generated by graphviz version 2.26.3 (20100126.1600)
 -->
<!-- Title: G Pages: 1 -->
<svg width="296pt" height="285pt"
 viewBox="0.00 0.00 296.00 285.00" xmlns="http://www.w3.org/2000/svg" xmlns:xlink="http://www.w3.org/1999/xlink">
<g id="graph1" class="graph" transform="scale(1 1) rotate(0) translate(4 281)">
<title>G</title>
<!-- Node1 -->
<g id="node1" class="node"><title>Node1</title>
<polygon fill="#bfbfbf" stroke="black" points="224.5,-127.5 224.5,-148.5 287.5,-148.5 287.5,-127.5 224.5,-127.5"/>
<text text-anchor="middle" x="256" y="-135.5" font-family="Helvetica,sans-Serif" font-size="10.00">KnotGraph</text>
</g>
<!-- Node2 -->
<g id="node2" class="node"><title>Node2</title>
<a xlink:href="classQGraphicsPathItem.html" target="_top" xlink:title="QGraphicsPathItem">
<polygon fill="none" stroke="black" points="2.5,-255.5 2.5,-276.5 105.5,-276.5 105.5,-255.5 2.5,-255.5"/>
<text text-anchor="middle" x="54" y="-263.5" font-family="Helvetica,sans-Serif" font-size="10.00">QGraphicsPathItem</text>
</a>
</g>
<!-- Node2&#45;&gt;Node1 -->
<g id="edge2" class="edge"><title>Node2&#45;&gt;Node1</title>
<path fill="none" stroke="midnightblue" d="M116.086,-272.081C145.844,-271.855 180.473,-266.652 206,-248 239.537,-223.495 251.107,-171.094 254.628,-148.607"/>
<polygon fill="midnightblue" stroke="midnightblue" points="115.824,-268.578 105.786,-271.967 115.747,-275.578 115.824,-268.578"/>
</g>
<!-- Node3 -->
<g id="node4" class="node"><title>Node3</title>
<polygon fill="none" stroke="#bfbfbf" points="31.5,-203.5 31.5,-224.5 76.5,-224.5 76.5,-203.5 31.5,-203.5"/>
<text text-anchor="middle" x="54" y="-211.5" font-family="Helvetica,sans-Serif" font-size="10.00">double</text>
</g>
<!-- Node3&#45;&gt;Node1 -->
<g id="edge4" class="edge"><title>Node3&#45;&gt;Node1</title>
<path fill="none" stroke="#9a32cd" stroke-dasharray="5,2" d="M86.6764,-211.949C118.579,-208.861 167.769,-201.16 206,-182 222.333,-173.814 237.551,-158.972 246.809,-148.809"/>
<polygon fill="#9a32cd" stroke="#9a32cd" points="86.2197,-208.475 76.5606,-212.828 86.8263,-215.449 86.2197,-208.475"/>
<text text-anchor="middle" x="166" y="-235" font-family="Helvetica,sans-Serif" font-size="10.00">cusp_angle</text>
<text text-anchor="middle" x="166" y="-222" font-family="Helvetica,sans-Serif" font-size="10.00">crossing_distance</text>
<text text-anchor="middle" x="166" y="-209" font-family="Helvetica,sans-Serif" font-size="10.00">handle_length</text>
</g>
<!-- Node4 -->
<g id="node6" class="node"><title>Node4</title>
<polygon fill="none" stroke="#bfbfbf" points="0.5,-163.5 0.5,-184.5 107.5,-184.5 107.5,-163.5 0.5,-163.5"/>
<text text-anchor="middle" x="54" y="-171.5" font-family="Helvetica,sans-Serif" font-size="10.00">QPainterPathStroker</text>
</g>
<!-- Node4&#45;&gt;Node1 -->
<g id="edge6" class="edge"><title>Node4&#45;&gt;Node1</title>
<path fill="none" stroke="#9a32cd" stroke-dasharray="5,2" d="M117.96,-166.611C145.232,-162.978 177.316,-158.065 206,-152 211.997,-150.732 218.336,-149.15 224.412,-147.51"/>
<polygon fill="#9a32cd" stroke="#9a32cd" points="117.224,-163.177 107.76,-167.94 118.129,-170.118 117.224,-163.177"/>
<text text-anchor="middle" x="166" y="-169" font-family="Helvetica,sans-Serif" font-size="10.00">stroker</text>
</g>
<!-- Node5 -->
<g id="node8" class="node"><title>Node5</title>
<polygon fill="none" stroke="#bfbfbf" points="16.5,-123.5 16.5,-144.5 91.5,-144.5 91.5,-123.5 16.5,-123.5"/>
<text text-anchor="middle" x="54" y="-131.5" font-family="Helvetica,sans-Serif" font-size="10.00">QPainterPath</text>
</g>
<!-- Node5&#45;&gt;Node1 -->
<g id="edge8" class="edge"><title>Node5&#45;&gt;Node1</title>
<path fill="none" stroke="#9a32cd" stroke-dasharray="5,2" d="M101.8,-134.947C139.651,-135.696 191.453,-136.722 224.324,-137.373"/>
<polygon fill="#9a32cd" stroke="#9a32cd" points="101.589,-131.442 91.5212,-134.743 101.45,-138.44 101.589,-131.442"/>
<text text-anchor="middle" x="166" y="-140" font-family="Helvetica,sans-Serif" font-size="10.00">knot</text>
</g>
<!-- Node6 -->
<g id="node10" class="node"><title>Node6</title>
<polygon fill="none" stroke="#bfbfbf" points="10.5,-80.5 10.5,-101.5 97.5,-101.5 97.5,-80.5 10.5,-80.5"/>
<text text-anchor="middle" x="54" y="-88.5" font-family="Helvetica,sans-Serif" font-size="10.00">QList&lt; Edge * &gt;</text>
</g>
<!-- Node6&#45;&gt;Node1 -->
<g id="edge10" class="edge"><title>Node6&#45;&gt;Node1</title>
<path fill="none" stroke="#9a32cd" stroke-dasharray="5,2" d="M107.951,-89.622C137.633,-90.4192 174.686,-94.0071 206,-105 220.132,-109.961 234.185,-119.782 243.778,-127.426"/>
<polygon fill="#9a32cd" stroke="#9a32cd" points="107.839,-86.1197 97.781,-89.4489 107.72,-93.1187 107.839,-86.1197"/>
<text text-anchor="middle" x="166" y="-122" font-family="Helvetica,sans-Serif" font-size="10.00">traversed_edges</text>
<text text-anchor="middle" x="166" y="-109" font-family="Helvetica,sans-Serif" font-size="10.00">edges</text>
</g>
<!-- Node7 -->
<g id="node12" class="node"><title>Node7</title>
<polygon fill="none" stroke="#bfbfbf" points="36.5,-40.5 36.5,-61.5 71.5,-61.5 71.5,-40.5 36.5,-40.5"/>
<text text-anchor="middle" x="54" y="-48.5" font-family="Helvetica,sans-Serif" font-size="10.00">long</text>
</g>
<!-- Node7&#45;&gt;Node1 -->
<g id="edge12" class="edge"><title>Node7&#45;&gt;Node1</title>
<path fill="none" stroke="#9a32cd" stroke-dasharray="5,2" d="M81.8245,-48.992C113.953,-47.9718 167.335,-50.3759 206,-73 227.873,-85.7986 243.502,-112.224 250.995,-127.139"/>
<polygon fill="#9a32cd" stroke="#9a32cd" points="81.6272,-45.4973 71.7954,-49.445 81.9431,-52.4902 81.6272,-45.4973"/>
<text text-anchor="middle" x="166" y="-77" font-family="Helvetica,sans-Serif" font-size="10.00">curve_style</text>
</g>
<!-- Node8 -->
<g id="node14" class="node"><title>Node8</title>
<polygon fill="none" stroke="#bfbfbf" points="10,-0.5 10,-21.5 98,-21.5 98,-0.5 10,-0.5"/>
<text text-anchor="middle" x="54" y="-8.5" font-family="Helvetica,sans-Serif" font-size="10.00">QList&lt; Node * &gt;</text>
</g>
<!-- Node8&#45;&gt;Node1 -->
<g id="edge14" class="edge"><title>Node8&#45;&gt;Node1</title>
<path fill="none" stroke="#9a32cd" stroke-dasharray="5,2" d="M108.392,-6.80267C139.707,-7.13695 178.229,-12.5359 206,-33 237.858,-56.4758 250.243,-105.553 254.298,-127.269"/>
<polygon fill="#9a32cd" stroke="#9a32cd" points="108.052,-3.30469 98.075,-6.86903 108.097,-10.3045 108.052,-3.30469"/>
<text text-anchor="middle" x="166" y="-37" font-family="Helvetica,sans-Serif" font-size="10.00">nodes</text>
</g>
</g>
</svg>
