<?xml version="1.0" encoding="UTF-8" standalone="no"?>
<!DOCTYPE svg PUBLIC "-//W3C//DTD SVG 1.1//EN"
 "http://www.w3.org/Graphics/SVG/1.1/DTD/svg11.dtd">
<!-- Generated by graphviz version 2.26.3 (20100126.1600)
 -->
<!-- Title: G Pages: 1 -->
<svg width="246pt" height="88pt"
 viewBox="0.00 0.00 246.00 88.00" xmlns="http://www.w3.org/2000/svg" xmlns:xlink="http://www.w3.org/1999/xlink">
<g id="graph1" class="graph" transform="scale(1 1) rotate(0) translate(4 84)">
<title>G</title>
<!-- Node1 -->
<g id="node1" class="node"><title>Node1</title>
<polygon fill="#bfbfbf" stroke="black" points="97,-58.5 97,-79.5 149,-79.5 149,-58.5 97,-58.5"/>
<text text-anchor="middle" x="123" y="-66.5" font-family="Helvetica,sans-Serif" font-size="10.00">QDialog</text>
</g>
<!-- Node2 -->
<g id="node3" class="node"><title>Node2</title>
<a xlink:href="classconfig__dialog.html" target="_top" xlink:title="config_dialog">
<polygon fill="none" stroke="black" points="0,-0.5 0,-21.5 74,-21.5 74,-0.5 0,-0.5"/>
<text text-anchor="middle" x="37" y="-8.5" font-family="Helvetica,sans-Serif" font-size="10.00">config_dialog</text>
</a>
</g>
<!-- Node1&#45;&gt;Node2 -->
<g id="edge2" class="edge"><title>Node1&#45;&gt;Node2</title>
<path fill="none" stroke="midnightblue" d="M98.5949,-52.5407C83.8512,-42.5973 65.4952,-30.2177 52.6737,-21.5707"/>
<polygon fill="midnightblue" stroke="midnightblue" points="96.9785,-55.6722 107.226,-58.3619 100.893,-49.8687 96.9785,-55.6722"/>
</g>
<!-- Node3 -->
<g id="node5" class="node"><title>Node3</title>
<a xlink:href="classGridConfig.html" target="_top" xlink:title="GridConfig">
<polygon fill="none" stroke="black" points="91.5,-0.5 91.5,-21.5 154.5,-21.5 154.5,-0.5 91.5,-0.5"/>
<text text-anchor="middle" x="123" y="-8.5" font-family="Helvetica,sans-Serif" font-size="10.00">GridConfig</text>
</a>
</g>
<!-- Node1&#45;&gt;Node3 -->
<g id="edge4" class="edge"><title>Node1&#45;&gt;Node3</title>
<path fill="none" stroke="midnightblue" d="M123,-48.1906C123,-39.1684 123,-28.9941 123,-21.5707"/>
<polygon fill="midnightblue" stroke="midnightblue" points="119.5,-48.3619 123,-58.3619 126.5,-48.3619 119.5,-48.3619"/>
</g>
<!-- Node4 -->
<g id="node7" class="node"><title>Node4</title>
<a xlink:href="classStyleDialog.html" target="_top" xlink:title="StyleDialog">
<polygon fill="none" stroke="black" points="171.5,-0.5 171.5,-21.5 238.5,-21.5 238.5,-0.5 171.5,-0.5"/>
<text text-anchor="middle" x="205" y="-8.5" font-family="Helvetica,sans-Serif" font-size="10.00">StyleDialog</text>
</a>
</g>
<!-- Node1&#45;&gt;Node4 -->
<g id="edge6" class="edge"><title>Node1&#45;&gt;Node4</title>
<path fill="none" stroke="midnightblue" d="M146.27,-52.5407C160.328,-42.5973 177.83,-30.2177 190.055,-21.5707"/>
<polygon fill="midnightblue" stroke="midnightblue" points="144.183,-49.7298 138.04,-58.3619 148.225,-55.4447 144.183,-49.7298"/>
</g>
</g>
</svg>
