<?xml version="1.0" encoding="UTF-8" standalone="no"?>
<!DOCTYPE svg PUBLIC "-//W3C//DTD SVG 1.1//EN"
 "http://www.w3.org/Graphics/SVG/1.1/DTD/svg11.dtd">
<!-- Generated by graphviz version 2.26.3 (20100126.1600)
 -->
<!-- Title: G Pages: 1 -->
<svg width="658pt" height="686pt"
 viewBox="0.00 0.00 658.00 686.00" xmlns="http://www.w3.org/2000/svg" xmlns:xlink="http://www.w3.org/1999/xlink">
<g id="graph1" class="graph" transform="scale(1 1) rotate(0) translate(4 682)">
<title>G</title>
<!-- Node1 -->
<g id="node1" class="node"><title>Node1</title>
<polygon fill="#bfbfbf" stroke="black" points="590.5,-180.5 590.5,-201.5 649.5,-201.5 649.5,-180.5 590.5,-180.5"/>
<text text-anchor="middle" x="620" y="-188.5" font-family="Helvetica,sans-Serif" font-size="10.00">KnotView</text>
</g>
<!-- Node2 -->
<g id="node2" class="node"><title>Node2</title>
<a xlink:href="classQGraphicsView.html" target="_top" xlink:title="QGraphicsView">
<polygon fill="none" stroke="black" points="394.5,-600.5 394.5,-621.5 479.5,-621.5 479.5,-600.5 394.5,-600.5"/>
<text text-anchor="middle" x="437" y="-608.5" font-family="Helvetica,sans-Serif" font-size="10.00">QGraphicsView</text>
</a>
</g>
<!-- Node2&#45;&gt;Node1 -->
<g id="edge2" class="edge"><title>Node2&#45;&gt;Node1</title>
<path fill="none" stroke="midnightblue" d="M484.653,-595.898C487.23,-594.406 489.701,-592.776 492,-591 541.555,-552.706 548.445,-533.029 572,-475 592.923,-423.454 613.735,-246.974 618.824,-201.669"/>
<polygon fill="midnightblue" stroke="midnightblue" points="482.943,-592.84 475.583,-600.462 486.09,-599.093 482.943,-592.84"/>
</g>
<!-- Node3 -->
<g id="node4" class="node"><title>Node3</title>
<a xlink:href="classNode.html" target="_top" xlink:title="Node">
<polygon fill="none" stroke="black" points="417,-560.5 417,-581.5 457,-581.5 457,-560.5 417,-560.5"/>
<text text-anchor="middle" x="437" y="-568.5" font-family="Helvetica,sans-Serif" font-size="10.00">Node</text>
</a>
</g>
<!-- Node3&#45;&gt;Node1 -->
<g id="edge4" class="edge"><title>Node3&#45;&gt;Node1</title>
<path fill="none" stroke="#9a32cd" stroke-dasharray="5,2" d="M450.699,-551.556C477.139,-513.329 535.783,-425.043 572,-344 594.944,-292.659 611.565,-227.08 617.556,-201.698"/>
<polygon fill="#9a32cd" stroke="#9a32cd" points="447.549,-549.955 444.705,-560.161 453.293,-553.957 447.549,-549.955"/>
<text text-anchor="middle" x="541" y="-462" font-family="Helvetica,sans-Serif" font-size="10.00">last_node</text>
</g>
<!-- Node4 -->
<g id="node6" class="node"><title>Node4</title>
<a xlink:href="classCustomItem.html" target="_top" xlink:title="CustomItem">
<polygon fill="none" stroke="black" points="176.5,-636.5 176.5,-657.5 247.5,-657.5 247.5,-636.5 176.5,-636.5"/>
<text text-anchor="middle" x="212" y="-644.5" font-family="Helvetica,sans-Serif" font-size="10.00">CustomItem</text>
</a>
</g>
<!-- Node4&#45;&gt;Node3 -->
<g id="edge6" class="edge"><title>Node4&#45;&gt;Node3</title>
<path fill="none" stroke="midnightblue" d="M257.872,-643.984C289.597,-640.165 331.738,-631.525 364,-612 374.517,-605.635 371.892,-597.996 382,-591 392.526,-583.714 406.014,-578.755 416.999,-575.598"/>
<polygon fill="midnightblue" stroke="midnightblue" points="257.106,-640.546 247.542,-645.103 257.86,-647.506 257.106,-640.546"/>
</g>
<!-- Node5 -->
<g id="node8" class="node"><title>Node5</title>
<a xlink:href="classQGraphicsItem.html" target="_top" xlink:title="QGraphicsItem">
<polygon fill="none" stroke="black" points="0.5,-656.5 0.5,-677.5 83.5,-677.5 83.5,-656.5 0.5,-656.5"/>
<text text-anchor="middle" x="42" y="-664.5" font-family="Helvetica,sans-Serif" font-size="10.00">QGraphicsItem</text>
</a>
</g>
<!-- Node5&#45;&gt;Node4 -->
<g id="edge8" class="edge"><title>Node5&#45;&gt;Node4</title>
<path fill="none" stroke="midnightblue" d="M93.5537,-660.935C120.304,-657.788 152.312,-654.022 176.307,-651.199"/>
<polygon fill="midnightblue" stroke="midnightblue" points="93.1092,-657.463 83.5867,-662.107 93.9272,-664.415 93.1092,-657.463"/>
</g>
<!-- Node6 -->
<g id="node10" class="node"><title>Node6</title>
<polygon fill="none" stroke="#bfbfbf" points="24.5,-616.5 24.5,-637.5 59.5,-637.5 59.5,-616.5 24.5,-616.5"/>
<text text-anchor="middle" x="42" y="-624.5" font-family="Helvetica,sans-Serif" font-size="10.00">bool</text>
</g>
<!-- Node6&#45;&gt;Node4 -->
<g id="edge10" class="edge"><title>Node6&#45;&gt;Node4</title>
<path fill="none" stroke="#9a32cd" stroke-dasharray="5,2" d="M69.7979,-630.026C89.4223,-632.185 116.331,-635.192 140,-638 151.884,-639.41 164.863,-641.012 176.488,-642.471"/>
<polygon fill="#9a32cd" stroke="#9a32cd" points="70.0336,-626.531 59.7117,-628.92 69.2707,-633.489 70.0336,-626.531"/>
<text text-anchor="middle" x="121" y="-642" font-family="Helvetica,sans-Serif" font-size="10.00">highlight</text>
</g>
<!-- Node7 -->
<g id="node12" class="node"><title>Node7</title>
<polygon fill="none" stroke="#bfbfbf" points="197.5,-596.5 197.5,-617.5 226.5,-617.5 226.5,-596.5 197.5,-596.5"/>
<text text-anchor="middle" x="212" y="-604.5" font-family="Helvetica,sans-Serif" font-size="10.00">int</text>
</g>
<!-- Node7&#45;&gt;Node3 -->
<g id="edge12" class="edge"><title>Node7&#45;&gt;Node3</title>
<path fill="none" stroke="#9a32cd" stroke-dasharray="5,2" d="M236.812,-603.03C281.709,-595.847 375.591,-580.825 416.835,-574.226"/>
<polygon fill="#9a32cd" stroke="#9a32cd" points="236.084,-599.602 226.763,-604.638 237.19,-606.514 236.084,-599.602"/>
<text text-anchor="middle" x="324" y="-599" font-family="Helvetica,sans-Serif" font-size="10.00">radius</text>
</g>
<!-- Node8 -->
<g id="node14" class="node"><title>Node8</title>
<polygon fill="none" stroke="#bfbfbf" points="168.5,-537.5 168.5,-558.5 255.5,-558.5 255.5,-537.5 168.5,-537.5"/>
<text text-anchor="middle" x="212" y="-545.5" font-family="Helvetica,sans-Serif" font-size="10.00">QList&lt; Edge * &gt;</text>
</g>
<!-- Node8&#45;&gt;Node3 -->
<g id="edge14" class="edge"><title>Node8&#45;&gt;Node3</title>
<path fill="none" stroke="#9a32cd" stroke-dasharray="5,2" d="M265.672,-553.486C314.177,-558.445 382.985,-565.479 416.737,-568.929"/>
<polygon fill="#9a32cd" stroke="#9a32cd" points="265.953,-549.997 255.649,-552.462 265.241,-556.961 265.953,-549.997"/>
<text text-anchor="middle" x="324" y="-566" font-family="Helvetica,sans-Serif" font-size="10.00">edges</text>
</g>
<!-- Node14 -->
<g id="node26" class="node"><title>Node14</title>
<a xlink:href="classKnotGraph.html" target="_top" xlink:title="KnotGraph">
<polygon fill="none" stroke="black" points="405.5,-370.5 405.5,-391.5 468.5,-391.5 468.5,-370.5 405.5,-370.5"/>
<text text-anchor="middle" x="437" y="-378.5" font-family="Helvetica,sans-Serif" font-size="10.00">KnotGraph</text>
</a>
</g>
<!-- Node8&#45;&gt;Node14 -->
<g id="edge36" class="edge"><title>Node8&#45;&gt;Node14</title>
<path fill="none" stroke="#9a32cd" stroke-dasharray="5,2" d="M254.51,-534.225C297.889,-520.052 359.491,-499.553 364,-496 400.776,-467.019 424.333,-414.074 433.12,-391.571"/>
<polygon fill="#9a32cd" stroke="#9a32cd" points="253.163,-530.983 244.741,-537.411 255.333,-537.638 253.163,-530.983"/>
<text text-anchor="middle" x="324" y="-541" font-family="Helvetica,sans-Serif" font-size="10.00">traversed_edges</text>
<text text-anchor="middle" x="324" y="-528" font-family="Helvetica,sans-Serif" font-size="10.00">edges</text>
</g>
<!-- Node9 -->
<g id="node16" class="node"><title>Node9</title>
<polygon fill="none" stroke="#bfbfbf" points="400.5,-200.5 400.5,-221.5 473.5,-221.5 473.5,-200.5 400.5,-200.5"/>
<text text-anchor="middle" x="437" y="-208.5" font-family="Helvetica,sans-Serif" font-size="10.00">QUndoStack</text>
</g>
<!-- Node9&#45;&gt;Node1 -->
<g id="edge16" class="edge"><title>Node9&#45;&gt;Node1</title>
<path fill="none" stroke="#9a32cd" stroke-dasharray="5,2" d="M483.647,-205.902C517.244,-202.23 561.561,-197.387 590.411,-194.234"/>
<polygon fill="#9a32cd" stroke="#9a32cd" points="483.153,-202.435 473.593,-207.001 483.914,-209.394 483.153,-202.435"/>
<text text-anchor="middle" x="541" y="-207" font-family="Helvetica,sans-Serif" font-size="10.00">undo_stack</text>
</g>
<!-- Node10 -->
<g id="node18" class="node"><title>Node10</title>
<polygon fill="none" stroke="#bfbfbf" points="386,-160.5 386,-181.5 488,-181.5 488,-160.5 386,-160.5"/>
<text text-anchor="middle" x="437" y="-168.5" font-family="Helvetica,sans-Serif" font-size="10.00">mouse_status_type</text>
</g>
<!-- Node10&#45;&gt;Node1 -->
<g id="edge18" class="edge"><title>Node10&#45;&gt;Node1</title>
<path fill="none" stroke="#9a32cd" stroke-dasharray="5,2" d="M498.222,-173.023C521.418,-174.329 548.011,-176.474 572,-180 578.006,-180.883 584.372,-182.122 590.437,-183.452"/>
<polygon fill="#9a32cd" stroke="#9a32cd" points="498.336,-169.525 488.167,-172.497 497.97,-176.515 498.336,-169.525"/>
<text text-anchor="middle" x="541" y="-184" font-family="Helvetica,sans-Serif" font-size="10.00">mouse_status</text>
</g>
<!-- Node11 -->
<g id="node20" class="node"><title>Node11</title>
<polygon fill="none" stroke="#bfbfbf" points="410.5,-120.5 410.5,-141.5 463.5,-141.5 463.5,-120.5 410.5,-120.5"/>
<text text-anchor="middle" x="437" y="-128.5" font-family="Helvetica,sans-Serif" font-size="10.00">QPointF</text>
</g>
<!-- Node11&#45;&gt;Node1 -->
<g id="edge20" class="edge"><title>Node11&#45;&gt;Node1</title>
<path fill="none" stroke="#9a32cd" stroke-dasharray="5,2" d="M473.704,-133.824C501.574,-136.963 540.367,-143.503 572,-157 585.526,-162.771 599.023,-172.807 608.243,-180.485"/>
<polygon fill="#9a32cd" stroke="#9a32cd" points="473.901,-130.326 463.594,-132.78 473.182,-137.289 473.901,-130.326"/>
<text text-anchor="middle" x="541" y="-161" font-family="Helvetica,sans-Serif" font-size="10.00">oldpos</text>
</g>
<!-- Node12 -->
<g id="node22" class="node"><title>Node12</title>
<polygon fill="none" stroke="#bfbfbf" points="382,-80.5 382,-101.5 492,-101.5 492,-80.5 382,-80.5"/>
<text text-anchor="middle" x="437" y="-88.5" font-family="Helvetica,sans-Serif" font-size="10.00">QGraphicsRectItem *</text>
</g>
<!-- Node12&#45;&gt;Node1 -->
<g id="edge22" class="edge"><title>Node12&#45;&gt;Node1</title>
<path fill="none" stroke="#9a32cd" stroke-dasharray="5,2" d="M502.128,-96.7634C525.672,-101.24 551.484,-109.131 572,-123 593.549,-137.567 608.525,-165.267 615.518,-180.431"/>
<polygon fill="#9a32cd" stroke="#9a32cd" points="502.648,-93.3016 492.198,-95.0462 501.455,-100.199 502.648,-93.3016"/>
<text text-anchor="middle" x="541" y="-127" font-family="Helvetica,sans-Serif" font-size="10.00">rubberband</text>
</g>
<!-- Node13 -->
<g id="node24" class="node"><title>Node13</title>
<polygon fill="none" stroke="#bfbfbf" points="383.5,-40.5 383.5,-61.5 490.5,-61.5 490.5,-40.5 383.5,-40.5"/>
<text text-anchor="middle" x="437" y="-48.5" font-family="Helvetica,sans-Serif" font-size="10.00">QGraphicsLineItem *</text>
</g>
<!-- Node13&#45;&gt;Node1 -->
<g id="edge24" class="edge"><title>Node13&#45;&gt;Node1</title>
<path fill="none" stroke="#9a32cd" stroke-dasharray="5,2" d="M500.65,-54.1501C525.214,-58.2162 552.124,-66.5069 572,-83 602.948,-108.681 614.644,-158.346 618.426,-180.215"/>
<polygon fill="#9a32cd" stroke="#9a32cd" points="501.054,-50.6722 490.655,-52.6997 500.048,-57.5996 501.054,-50.6722"/>
<text text-anchor="middle" x="541" y="-87" font-family="Helvetica,sans-Serif" font-size="10.00">guide</text>
</g>
<!-- Node14&#45;&gt;Node1 -->
<g id="edge26" class="edge"><title>Node14&#45;&gt;Node1</title>
<path fill="none" stroke="#9a32cd" stroke-dasharray="5,2" d="M462.329,-364.662C491.291,-345.111 538.955,-310.193 572,-272 591.465,-249.502 607.514,-218.053 615.166,-201.752"/>
<polygon fill="#9a32cd" stroke="#9a32cd" points="460.362,-361.767 453.978,-370.223 464.242,-367.593 460.362,-361.767"/>
<text text-anchor="middle" x="541" y="-331" font-family="Helvetica,sans-Serif" font-size="10.00">knot</text>
</g>
<!-- Node15 -->
<g id="node28" class="node"><title>Node15</title>
<a xlink:href="classQGraphicsPathItem.html" target="_top" xlink:title="QGraphicsPathItem">
<polygon fill="none" stroke="black" points="160.5,-478.5 160.5,-499.5 263.5,-499.5 263.5,-478.5 160.5,-478.5"/>
<text text-anchor="middle" x="212" y="-486.5" font-family="Helvetica,sans-Serif" font-size="10.00">QGraphicsPathItem</text>
</a>
</g>
<!-- Node15&#45;&gt;Node14 -->
<g id="edge28" class="edge"><title>Node15&#45;&gt;Node14</title>
<path fill="none" stroke="midnightblue" d="M273.563,-492.658C302.586,-491.831 336.739,-487.001 364,-472 398.07,-453.253 422.097,-411.439 431.982,-391.704"/>
<polygon fill="midnightblue" stroke="midnightblue" points="273.482,-489.158 263.531,-492.793 273.577,-496.158 273.482,-489.158"/>
</g>
<!-- Node16 -->
<g id="node30" class="node"><title>Node16</title>
<polygon fill="none" stroke="#bfbfbf" points="189.5,-430.5 189.5,-451.5 234.5,-451.5 234.5,-430.5 189.5,-430.5"/>
<text text-anchor="middle" x="212" y="-438.5" font-family="Helvetica,sans-Serif" font-size="10.00">double</text>
</g>
<!-- Node16&#45;&gt;Node14 -->
<g id="edge30" class="edge"><title>Node16&#45;&gt;Node14</title>
<path fill="none" stroke="#9a32cd" stroke-dasharray="5,2" d="M245.01,-436.389C276.108,-431.6 323.795,-423.102 364,-411 381.319,-405.787 400.186,-397.973 414.401,-391.628"/>
<polygon fill="#9a32cd" stroke="#9a32cd" points="244.113,-432.984 234.742,-437.928 245.15,-439.907 244.113,-432.984"/>
<text text-anchor="middle" x="324" y="-459" font-family="Helvetica,sans-Serif" font-size="10.00">cusp_angle</text>
<text text-anchor="middle" x="324" y="-446" font-family="Helvetica,sans-Serif" font-size="10.00">crossing_distance</text>
<text text-anchor="middle" x="324" y="-433" font-family="Helvetica,sans-Serif" font-size="10.00">handle_length</text>
</g>
<!-- Node17 -->
<g id="node32" class="node"><title>Node17</title>
<polygon fill="none" stroke="#bfbfbf" points="158.5,-390.5 158.5,-411.5 265.5,-411.5 265.5,-390.5 158.5,-390.5"/>
<text text-anchor="middle" x="212" y="-398.5" font-family="Helvetica,sans-Serif" font-size="10.00">QPainterPathStroker</text>
</g>
<!-- Node17&#45;&gt;Node14 -->
<g id="edge32" class="edge"><title>Node17&#45;&gt;Node14</title>
<path fill="none" stroke="#9a32cd" stroke-dasharray="5,2" d="M275.825,-395.327C318.144,-391.565 371.848,-386.791 405.324,-383.816"/>
<polygon fill="#9a32cd" stroke="#9a32cd" points="275.258,-391.863 265.607,-396.235 275.878,-398.836 275.258,-391.863"/>
<text text-anchor="middle" x="324" y="-398" font-family="Helvetica,sans-Serif" font-size="10.00">stroker</text>
</g>
<!-- Node18 -->
<g id="node34" class="node"><title>Node18</title>
<polygon fill="none" stroke="#bfbfbf" points="174.5,-350.5 174.5,-371.5 249.5,-371.5 249.5,-350.5 174.5,-350.5"/>
<text text-anchor="middle" x="212" y="-358.5" font-family="Helvetica,sans-Serif" font-size="10.00">QPainterPath</text>
</g>
<!-- Node18&#45;&gt;Node14 -->
<g id="edge34" class="edge"><title>Node18&#45;&gt;Node14</title>
<path fill="none" stroke="#9a32cd" stroke-dasharray="5,2" d="M259.727,-363.276C289.709,-364.919 329.166,-367.473 364,-371 377.618,-372.379 392.605,-374.352 405.438,-376.182"/>
<polygon fill="#9a32cd" stroke="#9a32cd" points="259.713,-359.77 249.541,-362.732 259.34,-366.76 259.713,-359.77"/>
<text text-anchor="middle" x="324" y="-375" font-family="Helvetica,sans-Serif" font-size="10.00">knot</text>
</g>
<!-- Node19 -->
<g id="node37" class="node"><title>Node19</title>
<polygon fill="none" stroke="#bfbfbf" points="194.5,-310.5 194.5,-331.5 229.5,-331.5 229.5,-310.5 194.5,-310.5"/>
<text text-anchor="middle" x="212" y="-318.5" font-family="Helvetica,sans-Serif" font-size="10.00">long</text>
</g>
<!-- Node19&#45;&gt;Node14 -->
<g id="edge38" class="edge"><title>Node19&#45;&gt;Node14</title>
<path fill="none" stroke="#9a32cd" stroke-dasharray="5,2" d="M239.707,-323.5C270.577,-326.798 321.709,-333.795 364,-347 383.084,-352.959 403.626,-362.869 418.042,-370.458"/>
<polygon fill="#9a32cd" stroke="#9a32cd" points="239.982,-320.01 229.68,-322.484 239.276,-326.975 239.982,-320.01"/>
<text text-anchor="middle" x="324" y="-351" font-family="Helvetica,sans-Serif" font-size="10.00">curve_style</text>
</g>
<!-- Node20 -->
<g id="node39" class="node"><title>Node20</title>
<polygon fill="none" stroke="#bfbfbf" points="168,-260.5 168,-281.5 256,-281.5 256,-260.5 168,-260.5"/>
<text text-anchor="middle" x="212" y="-268.5" font-family="Helvetica,sans-Serif" font-size="10.00">QList&lt; Node * &gt;</text>
</g>
<!-- Node20&#45;&gt;Node1 -->
<g id="edge42" class="edge"><title>Node20&#45;&gt;Node1</title>
<path fill="none" stroke="#9a32cd" stroke-dasharray="5,2" d="M266.185,-270.039C338.069,-267.271 467.995,-257.037 572,-220 584.107,-215.689 596.49,-208.113 605.646,-201.786"/>
<polygon fill="#9a32cd" stroke="#9a32cd" points="265.882,-266.547 256.011,-270.395 266.127,-273.543 265.882,-266.547"/>
<text text-anchor="middle" x="437" y="-265" font-family="Helvetica,sans-Serif" font-size="10.00">moved_nodes</text>
</g>
<!-- Node20&#45;&gt;Node14 -->
<g id="edge40" class="edge"><title>Node20&#45;&gt;Node14</title>
<path fill="none" stroke="#9a32cd" stroke-dasharray="5,2" d="M266.047,-278.869C296.256,-284.873 333.788,-295.087 364,-312 391.39,-327.334 416.353,-355.217 428.761,-370.421"/>
<polygon fill="#9a32cd" stroke="#9a32cd" points="266.58,-275.408 256.104,-276.991 265.281,-282.286 266.58,-275.408"/>
<text text-anchor="middle" x="324" y="-316" font-family="Helvetica,sans-Serif" font-size="10.00">nodes</text>
</g>
<!-- Node21 -->
<g id="node42" class="node"><title>Node21</title>
<polygon fill="none" stroke="#bfbfbf" points="404.5,-0.5 404.5,-21.5 469.5,-21.5 469.5,-0.5 404.5,-0.5"/>
<text text-anchor="middle" x="437" y="-8.5" font-family="Helvetica,sans-Serif" font-size="10.00">mode_type</text>
</g>
<!-- Node21&#45;&gt;Node1 -->
<g id="edge44" class="edge"><title>Node21&#45;&gt;Node1</title>
<path fill="none" stroke="#9a32cd" stroke-dasharray="5,2" d="M480.121,-9.58649C509.445,-10.9373 547.265,-17.5365 572,-40 593.484,-59.5106 612.161,-149.439 618.063,-180.452"/>
<polygon fill="#9a32cd" stroke="#9a32cd" points="479.833,-6.07753 469.742,-9.30661 479.644,-13.075 479.833,-6.07753"/>
<text text-anchor="middle" x="541" y="-44" font-family="Helvetica,sans-Serif" font-size="10.00">mode</text>
</g>
</g>
</svg>
