<?xml version="1.0" encoding="UTF-8" standalone="no"?>
<!DOCTYPE svg PUBLIC "-//W3C//DTD SVG 1.1//EN"
 "http://www.w3.org/Graphics/SVG/1.1/DTD/svg11.dtd">
<!-- Generated by graphviz version 2.26.3 (20100126.1600)
 -->
<!-- Title: G Pages: 1 -->
<svg width="158pt" height="102pt"
 viewBox="0.00 0.00 158.00 102.00" xmlns="http://www.w3.org/2000/svg" xmlns:xlink="http://www.w3.org/1999/xlink">
<g id="graph1" class="graph" transform="scale(1 1) rotate(0) translate(4 98)">
<title>G</title>
<!-- Node1 -->
<g id="node1" class="node"><title>Node1</title>
<polygon fill="#bfbfbf" stroke="black" points="35.5,-0.5 35.5,-21.5 106.5,-21.5 106.5,-0.5 35.5,-0.5"/>
<text text-anchor="middle" x="71" y="-8.5" font-family="Helvetica,sans-Serif" font-size="10.00">ColorWidget</text>
</g>
<!-- Node2 -->
<g id="node2" class="node"><title>Node2</title>
<a xlink:href="classQLineEdit.html" target="_top" xlink:title="QLineEdit">
<polygon fill="none" stroke="black" points="-0.5,-72.5 -0.5,-93.5 58.5,-93.5 58.5,-72.5 -0.5,-72.5"/>
<text text-anchor="middle" x="29" y="-80.5" font-family="Helvetica,sans-Serif" font-size="10.00">QLineEdit</text>
</a>
</g>
<!-- Node2&#45;&gt;Node1 -->
<g id="edge2" class="edge"><title>Node2&#45;&gt;Node1</title>
<path fill="none" stroke="midnightblue" d="M40.422,-63.4193C48.2655,-49.9734 58.3776,-32.6384 64.7773,-21.6674"/>
<polygon fill="midnightblue" stroke="midnightblue" points="37.2128,-61.9748 35.1972,-72.3762 43.2592,-65.5019 37.2128,-61.9748"/>
</g>
<!-- Node3 -->
<g id="node4" class="node"><title>Node3</title>
<polygon fill="none" stroke="#bfbfbf" points="75.5,-72.5 75.5,-93.5 150.5,-93.5 150.5,-72.5 75.5,-72.5"/>
<text text-anchor="middle" x="113" y="-80.5" font-family="Helvetica,sans-Serif" font-size="10.00">QColorDialog</text>
</g>
<!-- Node3&#45;&gt;Node1 -->
<g id="edge4" class="edge"><title>Node3&#45;&gt;Node1</title>
<path fill="none" stroke="#9a32cd" stroke-dasharray="5,2" d="M101.578,-63.4193C93.7345,-49.9734 83.6224,-32.6384 77.2227,-21.6674"/>
<polygon fill="#9a32cd" stroke="#9a32cd" points="98.7408,-65.5019 106.803,-72.3762 104.787,-61.9748 98.7408,-65.5019"/>
<text text-anchor="middle" x="121" y="-44.5" font-family="Helvetica,sans-Serif" font-size="10.00">color_dialog</text>
</g>
</g>
</svg>
