<?xml version="1.0" encoding="UTF-8" standalone="no"?>
<!DOCTYPE svg PUBLIC "-//W3C//DTD SVG 1.1//EN"
 "http://www.w3.org/Graphics/SVG/1.1/DTD/svg11.dtd">
<!-- Generated by graphviz version 2.26.3 (20100126.1600)
 -->
<!-- Title: G Pages: 1 -->
<svg width="816pt" height="727pt"
 viewBox="0.00 0.00 816.00 727.00" xmlns="http://www.w3.org/2000/svg" xmlns:xlink="http://www.w3.org/1999/xlink">
<g id="graph1" class="graph" transform="scale(1 1) rotate(0) translate(4 723)">
<title>G</title>
<!-- Node1 -->
<g id="node1" class="node"><title>Node1</title>
<polygon fill="#bfbfbf" stroke="black" points="730.5,-378.5 730.5,-399.5 807.5,-399.5 807.5,-378.5 730.5,-378.5"/>
<text text-anchor="middle" x="769" y="-386.5" font-family="Helvetica,sans-Serif" font-size="10.00">RemoveNode</text>
</g>
<!-- Node2 -->
<g id="node2" class="node"><title>Node2</title>
<a xlink:href="classQUndoCommand.html" target="_top" xlink:title="QUndoCommand">
<polygon fill="none" stroke="black" points="590,-470.5 590,-491.5 682,-491.5 682,-470.5 590,-470.5"/>
<text text-anchor="middle" x="636" y="-478.5" font-family="Helvetica,sans-Serif" font-size="10.00">QUndoCommand</text>
</a>
</g>
<!-- Node2&#45;&gt;Node1 -->
<g id="edge2" class="edge"><title>Node2&#45;&gt;Node1</title>
<path fill="none" stroke="midnightblue" d="M685.272,-466.875C694.56,-463.116 703.893,-458.524 712,-453 733.641,-438.255 752.467,-413.534 762.12,-399.524"/>
<polygon fill="midnightblue" stroke="midnightblue" points="683.787,-463.694 675.662,-470.494 686.254,-470.245 683.787,-463.694"/>
</g>
<!-- Node3 -->
<g id="node4" class="node"><title>Node3</title>
<a xlink:href="classNode.html" target="_top" xlink:title="Node">
<polygon fill="none" stroke="black" points="417,-633.5 417,-654.5 457,-654.5 457,-633.5 417,-633.5"/>
<text text-anchor="middle" x="437" y="-641.5" font-family="Helvetica,sans-Serif" font-size="10.00">Node</text>
</a>
</g>
<!-- Node3&#45;&gt;Node1 -->
<g id="edge4" class="edge"><title>Node3&#45;&gt;Node1</title>
<path fill="none" stroke="#9a32cd" stroke-dasharray="5,2" d="M447.053,-624.434C468.183,-585.205 521.004,-496.551 590,-448 632.816,-417.872 692.034,-402.357 730.426,-394.958"/>
<polygon fill="#9a32cd" stroke="#9a32cd" points="443.952,-622.811 442.373,-633.288 450.14,-626.082 443.952,-622.811"/>
<text text-anchor="middle" x="636" y="-452" font-family="Helvetica,sans-Serif" font-size="10.00">node</text>
</g>
<!-- Node10 -->
<g id="node18" class="node"><title>Node10</title>
<a xlink:href="classKnotView.html" target="_top" xlink:title="KnotView">
<polygon fill="none" stroke="black" points="606.5,-200.5 606.5,-221.5 665.5,-221.5 665.5,-200.5 606.5,-200.5"/>
<text text-anchor="middle" x="636" y="-208.5" font-family="Helvetica,sans-Serif" font-size="10.00">KnotView</text>
</a>
</g>
<!-- Node3&#45;&gt;Node10 -->
<g id="edge22" class="edge"><title>Node3&#45;&gt;Node10</title>
<path fill="none" stroke="#9a32cd" stroke-dasharray="5,2" d="M443.755,-623.799C454.333,-592.016 475.322,-528.353 492,-474 500.417,-446.569 490.461,-433.013 510,-412 530.013,-390.476 551.323,-409.887 572,-389 620.287,-340.224 632.388,-252.45 635.203,-221.864"/>
<polygon fill="#9a32cd" stroke="#9a32cd" points="440.432,-622.702 440.588,-633.295 447.072,-624.916 440.432,-622.702"/>
<text text-anchor="middle" x="541" y="-416" font-family="Helvetica,sans-Serif" font-size="10.00">last_node</text>
</g>
<!-- Node4 -->
<g id="node6" class="node"><title>Node4</title>
<a xlink:href="classCustomItem.html" target="_top" xlink:title="CustomItem">
<polygon fill="none" stroke="black" points="176.5,-657.5 176.5,-678.5 247.5,-678.5 247.5,-657.5 176.5,-657.5"/>
<text text-anchor="middle" x="212" y="-665.5" font-family="Helvetica,sans-Serif" font-size="10.00">CustomItem</text>
</a>
</g>
<!-- Node4&#45;&gt;Node3 -->
<g id="edge6" class="edge"><title>Node4&#45;&gt;Node3</title>
<path fill="none" stroke="midnightblue" d="M257.989,-666.457C288.211,-665.078 328.569,-662.545 364,-658 382.048,-655.685 402.36,-651.673 416.967,-648.536"/>
<polygon fill="midnightblue" stroke="midnightblue" points="257.586,-662.971 247.746,-666.898 257.887,-669.964 257.586,-662.971"/>
</g>
<!-- Node5 -->
<g id="node8" class="node"><title>Node5</title>
<a xlink:href="classQGraphicsItem.html" target="_top" xlink:title="QGraphicsItem">
<polygon fill="none" stroke="black" points="0.5,-677.5 0.5,-698.5 83.5,-698.5 83.5,-677.5 0.5,-677.5"/>
<text text-anchor="middle" x="42" y="-685.5" font-family="Helvetica,sans-Serif" font-size="10.00">QGraphicsItem</text>
</a>
</g>
<!-- Node5&#45;&gt;Node4 -->
<g id="edge8" class="edge"><title>Node5&#45;&gt;Node4</title>
<path fill="none" stroke="midnightblue" d="M93.5537,-681.935C120.304,-678.788 152.312,-675.022 176.307,-672.199"/>
<polygon fill="midnightblue" stroke="midnightblue" points="93.1092,-678.463 83.5867,-683.107 93.9272,-685.415 93.1092,-678.463"/>
</g>
<!-- Node6 -->
<g id="node10" class="node"><title>Node6</title>
<polygon fill="none" stroke="#bfbfbf" points="24.5,-637.5 24.5,-658.5 59.5,-658.5 59.5,-637.5 24.5,-637.5"/>
<text text-anchor="middle" x="42" y="-645.5" font-family="Helvetica,sans-Serif" font-size="10.00">bool</text>
</g>
<!-- Node6&#45;&gt;Node4 -->
<g id="edge10" class="edge"><title>Node6&#45;&gt;Node4</title>
<path fill="none" stroke="#9a32cd" stroke-dasharray="5,2" d="M69.7979,-651.026C89.4223,-653.185 116.331,-656.192 140,-659 151.884,-660.41 164.863,-662.012 176.488,-663.471"/>
<polygon fill="#9a32cd" stroke="#9a32cd" points="70.0336,-647.531 59.7117,-649.92 69.2707,-654.489 70.0336,-647.531"/>
<text text-anchor="middle" x="121" y="-663" font-family="Helvetica,sans-Serif" font-size="10.00">highlight</text>
</g>
<!-- Node7 -->
<g id="node12" class="node"><title>Node7</title>
<polygon fill="none" stroke="#bfbfbf" points="197.5,-697.5 197.5,-718.5 226.5,-718.5 226.5,-697.5 197.5,-697.5"/>
<text text-anchor="middle" x="212" y="-705.5" font-family="Helvetica,sans-Serif" font-size="10.00">int</text>
</g>
<!-- Node7&#45;&gt;Node3 -->
<g id="edge12" class="edge"><title>Node7&#45;&gt;Node3</title>
<path fill="none" stroke="#9a32cd" stroke-dasharray="5,2" d="M237.065,-704.047C267.509,-698.906 320.222,-688.912 364,-675 382.371,-669.162 402.481,-660.438 416.934,-653.731"/>
<polygon fill="#9a32cd" stroke="#9a32cd" points="236.213,-700.64 226.915,-705.719 237.351,-707.547 236.213,-700.64"/>
<text text-anchor="middle" x="324" y="-698" font-family="Helvetica,sans-Serif" font-size="10.00">radius</text>
</g>
<!-- Node8 -->
<g id="node14" class="node"><title>Node8</title>
<polygon fill="none" stroke="#bfbfbf" points="168.5,-602.5 168.5,-623.5 255.5,-623.5 255.5,-602.5 168.5,-602.5"/>
<text text-anchor="middle" x="212" y="-610.5" font-family="Helvetica,sans-Serif" font-size="10.00">QList&lt; Edge * &gt;</text>
</g>
<!-- Node8&#45;&gt;Node3 -->
<g id="edge14" class="edge"><title>Node8&#45;&gt;Node3</title>
<path fill="none" stroke="#9a32cd" stroke-dasharray="5,2" d="M265.672,-620.395C314.177,-627.078 382.985,-636.558 416.737,-641.208"/>
<polygon fill="#9a32cd" stroke="#9a32cd" points="266.033,-616.912 255.649,-619.014 265.078,-623.846 266.033,-616.912"/>
<text text-anchor="middle" x="324" y="-638" font-family="Helvetica,sans-Serif" font-size="10.00">edges</text>
</g>
<!-- Node17 -->
<g id="node33" class="node"><title>Node17</title>
<a xlink:href="classKnotGraph.html" target="_top" xlink:title="KnotGraph">
<polygon fill="none" stroke="black" points="405.5,-443.5 405.5,-464.5 468.5,-464.5 468.5,-443.5 405.5,-443.5"/>
<text text-anchor="middle" x="437" y="-451.5" font-family="Helvetica,sans-Serif" font-size="10.00">KnotGraph</text>
</a>
</g>
<!-- Node8&#45;&gt;Node17 -->
<g id="edge44" class="edge"><title>Node8&#45;&gt;Node17</title>
<path fill="none" stroke="#9a32cd" stroke-dasharray="5,2" d="M261.439,-599.792C304.984,-588.089 361.844,-572.61 364,-571 402.179,-542.498 425.113,-487.609 433.433,-464.579"/>
<polygon fill="#9a32cd" stroke="#9a32cd" points="260.289,-596.477 251.538,-602.449 262.104,-603.237 260.289,-596.477"/>
<text text-anchor="middle" x="324" y="-610" font-family="Helvetica,sans-Serif" font-size="10.00">traversed_edges</text>
<text text-anchor="middle" x="324" y="-597" font-family="Helvetica,sans-Serif" font-size="10.00">edges</text>
</g>
<!-- Node9 -->
<g id="node16" class="node"><title>Node9</title>
<polygon fill="none" stroke="#bfbfbf" points="168,-320.5 168,-341.5 256,-341.5 256,-320.5 168,-320.5"/>
<text text-anchor="middle" x="212" y="-328.5" font-family="Helvetica,sans-Serif" font-size="10.00">QList&lt; Node * &gt;</text>
</g>
<!-- Node9&#45;&gt;Node1 -->
<g id="edge16" class="edge"><title>Node9&#45;&gt;Node1</title>
<path fill="none" stroke="#9a32cd" stroke-dasharray="5,2" d="M266.056,-327.59C336.76,-324.079 464.313,-321.006 572,-336 632.511,-344.426 700.921,-365.561 739.11,-378.452"/>
<polygon fill="#9a32cd" stroke="#9a32cd" points="265.851,-324.096 256.046,-328.109 266.214,-331.087 265.851,-324.096"/>
<text text-anchor="middle" x="541" y="-340" font-family="Helvetica,sans-Serif" font-size="10.00">links</text>
</g>
<!-- Node9&#45;&gt;Node10 -->
<g id="edge50" class="edge"><title>Node9&#45;&gt;Node10</title>
<path fill="none" stroke="#9a32cd" stroke-dasharray="5,2" d="M266.034,-320.004C363.018,-300.188 557.899,-259.981 572,-254 591.224,-245.846 610.785,-231.662 623.133,-221.825"/>
<polygon fill="#9a32cd" stroke="#9a32cd" points="265.215,-316.599 256.117,-322.028 266.615,-323.457 265.215,-316.599"/>
<text text-anchor="middle" x="437" y="-300" font-family="Helvetica,sans-Serif" font-size="10.00">moved_nodes</text>
</g>
<!-- Node9&#45;&gt;Node17 -->
<g id="edge48" class="edge"><title>Node9&#45;&gt;Node17</title>
<path fill="none" stroke="#9a32cd" stroke-dasharray="5,2" d="M261.938,-344.505C292.69,-354.06 332.178,-368.624 364,-388 389.684,-403.639 414.556,-428.969 427.593,-443.274"/>
<polygon fill="#9a32cd" stroke="#9a32cd" points="262.867,-341.129 252.282,-341.579 260.837,-347.828 262.867,-341.129"/>
<text text-anchor="middle" x="324" y="-392" font-family="Helvetica,sans-Serif" font-size="10.00">nodes</text>
</g>
<!-- Node10&#45;&gt;Node1 -->
<g id="edge18" class="edge"><title>Node10&#45;&gt;Node1</title>
<path fill="none" stroke="#9a32cd" stroke-dasharray="5,2" d="M650.117,-229.669C665.41,-249.915 690.505,-283.2 712,-312 729.509,-335.459 749.884,-363.057 760.909,-378.014"/>
<polygon fill="#9a32cd" stroke="#9a32cd" points="652.836,-227.463 644.015,-221.595 647.252,-231.683 652.836,-227.463"/>
<text text-anchor="middle" x="706" y="-316" font-family="Helvetica,sans-Serif" font-size="10.00">kv</text>
</g>
<!-- Node11 -->
<g id="node20" class="node"><title>Node11</title>
<a xlink:href="classQGraphicsView.html" target="_top" xlink:title="QGraphicsView">
<polygon fill="none" stroke="black" points="394.5,-200.5 394.5,-221.5 479.5,-221.5 479.5,-200.5 394.5,-200.5"/>
<text text-anchor="middle" x="437" y="-208.5" font-family="Helvetica,sans-Serif" font-size="10.00">QGraphicsView</text>
</a>
</g>
<!-- Node11&#45;&gt;Node10 -->
<g id="edge20" class="edge"><title>Node11&#45;&gt;Node10</title>
<path fill="none" stroke="midnightblue" d="M489.872,-211C527.112,-211 575.615,-211 606.29,-211"/>
<polygon fill="midnightblue" stroke="midnightblue" points="489.691,-207.5 479.69,-211 489.69,-214.5 489.691,-207.5"/>
</g>
<!-- Node12 -->
<g id="node23" class="node"><title>Node12</title>
<polygon fill="none" stroke="#bfbfbf" points="400.5,-160.5 400.5,-181.5 473.5,-181.5 473.5,-160.5 400.5,-160.5"/>
<text text-anchor="middle" x="437" y="-168.5" font-family="Helvetica,sans-Serif" font-size="10.00">QUndoStack</text>
</g>
<!-- Node12&#45;&gt;Node10 -->
<g id="edge24" class="edge"><title>Node12&#45;&gt;Node10</title>
<path fill="none" stroke="#9a32cd" stroke-dasharray="5,2" d="M483.56,-177.863C509.672,-181.979 542.774,-187.643 572,-194 583.234,-196.444 595.457,-199.572 606.182,-202.478"/>
<polygon fill="#9a32cd" stroke="#9a32cd" points="483.976,-174.386 473.557,-176.308 482.9,-181.303 483.976,-174.386"/>
<text text-anchor="middle" x="541" y="-198" font-family="Helvetica,sans-Serif" font-size="10.00">undo_stack</text>
</g>
<!-- Node13 -->
<g id="node25" class="node"><title>Node13</title>
<polygon fill="none" stroke="#bfbfbf" points="386,-120.5 386,-141.5 488,-141.5 488,-120.5 386,-120.5"/>
<text text-anchor="middle" x="437" y="-128.5" font-family="Helvetica,sans-Serif" font-size="10.00">mouse_status_type</text>
</g>
<!-- Node13&#45;&gt;Node10 -->
<g id="edge26" class="edge"><title>Node13&#45;&gt;Node10</title>
<path fill="none" stroke="#9a32cd" stroke-dasharray="5,2" d="M498.119,-141.957C521.845,-147.456 548.83,-155.282 572,-166 591.478,-175.01 611.292,-190.039 623.607,-200.226"/>
<polygon fill="#9a32cd" stroke="#9a32cd" points="498.692,-138.499 488.17,-139.742 497.17,-145.332 498.692,-138.499"/>
<text text-anchor="middle" x="541" y="-170" font-family="Helvetica,sans-Serif" font-size="10.00">mouse_status</text>
</g>
<!-- Node14 -->
<g id="node27" class="node"><title>Node14</title>
<polygon fill="none" stroke="#bfbfbf" points="410.5,-80.5 410.5,-101.5 463.5,-101.5 463.5,-80.5 410.5,-80.5"/>
<text text-anchor="middle" x="437" y="-88.5" font-family="Helvetica,sans-Serif" font-size="10.00">QPointF</text>
</g>
<!-- Node14&#45;&gt;Node10 -->
<g id="edge28" class="edge"><title>Node14&#45;&gt;Node10</title>
<path fill="none" stroke="#9a32cd" stroke-dasharray="5,2" d="M473.708,-94.9963C502.45,-99.5462 542.383,-109.117 572,-129 600.038,-147.823 621.264,-182.901 630.669,-200.442"/>
<polygon fill="#9a32cd" stroke="#9a32cd" points="474.065,-91.5114 463.666,-93.5374 473.059,-98.4387 474.065,-91.5114"/>
<text text-anchor="middle" x="541" y="-133" font-family="Helvetica,sans-Serif" font-size="10.00">oldpos</text>
</g>
<!-- Node15 -->
<g id="node29" class="node"><title>Node15</title>
<polygon fill="none" stroke="#bfbfbf" points="382,-40.5 382,-61.5 492,-61.5 492,-40.5 382,-40.5"/>
<text text-anchor="middle" x="437" y="-48.5" font-family="Helvetica,sans-Serif" font-size="10.00">QGraphicsRectItem *</text>
</g>
<!-- Node15&#45;&gt;Node10 -->
<g id="edge30" class="edge"><title>Node15&#45;&gt;Node10</title>
<path fill="none" stroke="#9a32cd" stroke-dasharray="5,2" d="M502.387,-57.2614C526.316,-62.2597 552.321,-71.1683 572,-87 609.752,-117.371 627.579,-175.971 633.572,-200.155"/>
<polygon fill="#9a32cd" stroke="#9a32cd" points="502.76,-53.7699 492.284,-55.3499 501.459,-60.6479 502.76,-53.7699"/>
<text text-anchor="middle" x="541" y="-91" font-family="Helvetica,sans-Serif" font-size="10.00">rubberband</text>
</g>
<!-- Node16 -->
<g id="node31" class="node"><title>Node16</title>
<polygon fill="none" stroke="#bfbfbf" points="383.5,-0.5 383.5,-21.5 490.5,-21.5 490.5,-0.5 383.5,-0.5"/>
<text text-anchor="middle" x="437" y="-8.5" font-family="Helvetica,sans-Serif" font-size="10.00">QGraphicsLineItem *</text>
</g>
<!-- Node16&#45;&gt;Node10 -->
<g id="edge32" class="edge"><title>Node16&#45;&gt;Node10</title>
<path fill="none" stroke="#9a32cd" stroke-dasharray="5,2" d="M500.808,-13.5614C525.523,-17.5282 552.499,-25.9042 572,-43 621.051,-86.002 632.668,-170.765 635.28,-200.439"/>
<polygon fill="#9a32cd" stroke="#9a32cd" points="501.133,-10.073 490.747,-12.1616 500.169,-17.0063 501.133,-10.073"/>
<text text-anchor="middle" x="541" y="-47" font-family="Helvetica,sans-Serif" font-size="10.00">guide</text>
</g>
<!-- Node17&#45;&gt;Node10 -->
<g id="edge34" class="edge"><title>Node17&#45;&gt;Node10</title>
<path fill="none" stroke="#9a32cd" stroke-dasharray="5,2" d="M450.509,-435.157C463.878,-417.706 485.801,-392.093 510,-376 534.473,-359.725 550.521,-373.062 572,-353 612.314,-315.346 629.018,-247.532 634.141,-221.536"/>
<polygon fill="#9a32cd" stroke="#9a32cd" points="447.502,-433.336 444.332,-443.445 453.114,-437.519 447.502,-433.336"/>
<text text-anchor="middle" x="541" y="-380" font-family="Helvetica,sans-Serif" font-size="10.00">knot</text>
</g>
<!-- Node18 -->
<g id="node35" class="node"><title>Node18</title>
<a xlink:href="classQGraphicsPathItem.html" target="_top" xlink:title="QGraphicsPathItem">
<polygon fill="none" stroke="black" points="160.5,-551.5 160.5,-572.5 263.5,-572.5 263.5,-551.5 160.5,-551.5"/>
<text text-anchor="middle" x="212" y="-559.5" font-family="Helvetica,sans-Serif" font-size="10.00">QGraphicsPathItem</text>
</a>
</g>
<!-- Node18&#45;&gt;Node17 -->
<g id="edge36" class="edge"><title>Node18&#45;&gt;Node17</title>
<path fill="none" stroke="midnightblue" d="M273.58,-566.737C302.606,-566.354 336.758,-561.947 364,-547 398.73,-527.944 422.585,-484.762 432.223,-464.662"/>
<polygon fill="midnightblue" stroke="midnightblue" points="273.554,-563.237 263.546,-566.715 273.538,-570.237 273.554,-563.237"/>
</g>
<!-- Node19 -->
<g id="node37" class="node"><title>Node19</title>
<polygon fill="none" stroke="#bfbfbf" points="189.5,-503.5 189.5,-524.5 234.5,-524.5 234.5,-503.5 189.5,-503.5"/>
<text text-anchor="middle" x="212" y="-511.5" font-family="Helvetica,sans-Serif" font-size="10.00">double</text>
</g>
<!-- Node19&#45;&gt;Node17 -->
<g id="edge38" class="edge"><title>Node19&#45;&gt;Node17</title>
<path fill="none" stroke="#9a32cd" stroke-dasharray="5,2" d="M244.78,-509.807C275.898,-505.346 323.762,-497.229 364,-485 381.785,-479.595 401.113,-471.27 415.411,-464.607"/>
<polygon fill="#9a32cd" stroke="#9a32cd" points="243.935,-506.391 234.512,-511.233 244.899,-513.324 243.935,-506.391"/>
<text text-anchor="middle" x="324" y="-534" font-family="Helvetica,sans-Serif" font-size="10.00">cusp_angle</text>
<text text-anchor="middle" x="324" y="-521" font-family="Helvetica,sans-Serif" font-size="10.00">crossing_distance</text>
<text text-anchor="middle" x="324" y="-508" font-family="Helvetica,sans-Serif" font-size="10.00">handle_length</text>
</g>
<!-- Node20 -->
<g id="node39" class="node"><title>Node20</title>
<polygon fill="none" stroke="#bfbfbf" points="158.5,-463.5 158.5,-484.5 265.5,-484.5 265.5,-463.5 158.5,-463.5"/>
<text text-anchor="middle" x="212" y="-471.5" font-family="Helvetica,sans-Serif" font-size="10.00">QPainterPathStroker</text>
</g>
<!-- Node20&#45;&gt;Node17 -->
<g id="edge40" class="edge"><title>Node20&#45;&gt;Node17</title>
<path fill="none" stroke="#9a32cd" stroke-dasharray="5,2" d="M275.825,-468.327C318.144,-464.565 371.848,-459.791 405.324,-456.816"/>
<polygon fill="#9a32cd" stroke="#9a32cd" points="275.258,-464.863 265.607,-469.235 275.878,-471.836 275.258,-464.863"/>
<text text-anchor="middle" x="324" y="-472" font-family="Helvetica,sans-Serif" font-size="10.00">stroker</text>
</g>
<!-- Node21 -->
<g id="node41" class="node"><title>Node21</title>
<polygon fill="none" stroke="#bfbfbf" points="174.5,-423.5 174.5,-444.5 249.5,-444.5 249.5,-423.5 174.5,-423.5"/>
<text text-anchor="middle" x="212" y="-431.5" font-family="Helvetica,sans-Serif" font-size="10.00">QPainterPath</text>
</g>
<!-- Node21&#45;&gt;Node17 -->
<g id="edge42" class="edge"><title>Node21&#45;&gt;Node17</title>
<path fill="none" stroke="#9a32cd" stroke-dasharray="5,2" d="M259.708,-436.833C289.683,-438.767 329.138,-441.592 364,-445 377.599,-446.329 392.583,-448.12 405.418,-449.754"/>
<polygon fill="#9a32cd" stroke="#9a32cd" points="259.726,-433.327 249.524,-436.187 259.282,-440.313 259.726,-433.327"/>
<text text-anchor="middle" x="324" y="-449" font-family="Helvetica,sans-Serif" font-size="10.00">knot</text>
</g>
<!-- Node22 -->
<g id="node44" class="node"><title>Node22</title>
<polygon fill="none" stroke="#bfbfbf" points="194.5,-383.5 194.5,-404.5 229.5,-404.5 229.5,-383.5 194.5,-383.5"/>
<text text-anchor="middle" x="212" y="-391.5" font-family="Helvetica,sans-Serif" font-size="10.00">long</text>
</g>
<!-- Node22&#45;&gt;Node17 -->
<g id="edge46" class="edge"><title>Node22&#45;&gt;Node17</title>
<path fill="none" stroke="#9a32cd" stroke-dasharray="5,2" d="M239.646,-397.142C270.463,-401.091 321.547,-408.977 364,-422 382.256,-427.6 402.043,-436.462 416.405,-443.441"/>
<polygon fill="#9a32cd" stroke="#9a32cd" points="239.992,-393.658 229.639,-395.907 239.135,-400.605 239.992,-393.658"/>
<text text-anchor="middle" x="324" y="-426" font-family="Helvetica,sans-Serif" font-size="10.00">curve_style</text>
</g>
<!-- Node23 -->
<g id="node48" class="node"><title>Node23</title>
<polygon fill="none" stroke="#bfbfbf" points="404.5,-240.5 404.5,-261.5 469.5,-261.5 469.5,-240.5 404.5,-240.5"/>
<text text-anchor="middle" x="437" y="-248.5" font-family="Helvetica,sans-Serif" font-size="10.00">mode_type</text>
</g>
<!-- Node23&#45;&gt;Node10 -->
<g id="edge52" class="edge"><title>Node23&#45;&gt;Node10</title>
<path fill="none" stroke="#9a32cd" stroke-dasharray="5,2" d="M479.628,-243.074C506.222,-238.058 541.144,-231.345 572,-225 583.252,-222.686 595.588,-220.019 606.4,-217.637"/>
<polygon fill="#9a32cd" stroke="#9a32cd" points="478.687,-239.689 469.506,-244.976 479.98,-246.569 478.687,-239.689"/>
<text text-anchor="middle" x="541" y="-241" font-family="Helvetica,sans-Serif" font-size="10.00">mode</text>
</g>
</g>
</svg>
