<?xml version="1.0" encoding="UTF-8" standalone="no"?>
<!DOCTYPE svg PUBLIC "-//W3C//DTD SVG 1.1//EN"
 "http://www.w3.org/Graphics/SVG/1.1/DTD/svg11.dtd">
<!-- Generated by graphviz version 2.26.3 (20100126.1600)
 -->
<!-- Title: G Pages: 1 -->
<svg width="620pt" height="436pt"
 viewBox="0.00 0.00 620.00 436.00" xmlns="http://www.w3.org/2000/svg" xmlns:xlink="http://www.w3.org/1999/xlink">
<g id="graph1" class="graph" transform="scale(1 1) rotate(0) translate(4 432)">
<title>G</title>
<!-- Node1 -->
<g id="node1" class="node"><title>Node1</title>
<polygon fill="#bfbfbf" stroke="black" points="316,-406.5 316,-427.5 390,-427.5 390,-406.5 316,-406.5"/>
<text text-anchor="middle" x="353" y="-414.5" font-family="Helvetica,sans-Serif" font-size="10.00">clipboard.hpp</text>
</g>
<!-- Node2 -->
<g id="node3" class="node"><title>Node2</title>
<a xlink:href="knotview_8hpp.html" target="_top" xlink:title="knotview.hpp">
<polygon fill="none" stroke="black" points="316,-348.5 316,-369.5 390,-369.5 390,-348.5 316,-348.5"/>
<text text-anchor="middle" x="353" y="-356.5" font-family="Helvetica,sans-Serif" font-size="10.00">knotview.hpp</text>
</a>
</g>
<!-- Node1&#45;&gt;Node2 -->
<g id="edge2" class="edge"><title>Node1&#45;&gt;Node2</title>
<path fill="none" stroke="midnightblue" d="M353,-406.362C353,-398.922 353,-388.743 353,-379.728"/>
<polygon fill="midnightblue" stroke="midnightblue" points="356.5,-379.571 353,-369.571 349.5,-379.571 356.5,-379.571"/>
</g>
<!-- Node3 -->
<g id="node5" class="node"><title>Node3</title>
<polygon fill="none" stroke="#bfbfbf" points="-0.5,-290.5 -0.5,-311.5 84.5,-311.5 84.5,-290.5 -0.5,-290.5"/>
<text text-anchor="middle" x="42" y="-298.5" font-family="Helvetica,sans-Serif" font-size="10.00">QGraphicsView</text>
</g>
<!-- Node2&#45;&gt;Node3 -->
<g id="edge4" class="edge"><title>Node2&#45;&gt;Node3</title>
<path fill="none" stroke="midnightblue" d="M315.812,-352.286C266.134,-343.286 175.389,-326.732 98,-312 96.9293,-311.796 95.8473,-311.59 94.7568,-311.381"/>
<polygon fill="midnightblue" stroke="midnightblue" points="95.2767,-307.917 84.7948,-309.46 93.9511,-314.79 95.2767,-307.917"/>
</g>
<!-- Node4 -->
<g id="node7" class="node"><title>Node4</title>
<a xlink:href="node_8hpp.html" target="_top" xlink:title="node.hpp">
<polygon fill="none" stroke="black" points="238,-174.5 238,-195.5 294,-195.5 294,-174.5 238,-174.5"/>
<text text-anchor="middle" x="266" y="-182.5" font-family="Helvetica,sans-Serif" font-size="10.00">node.hpp</text>
</a>
</g>
<!-- Node2&#45;&gt;Node4 -->
<g id="edge6" class="edge"><title>Node2&#45;&gt;Node4</title>
<path fill="none" stroke="midnightblue" d="M315.925,-350.934C270.002,-338.735 193.717,-310.727 160,-254 141.514,-222.897 190.74,-203.247 228.17,-193.192"/>
<polygon fill="midnightblue" stroke="midnightblue" points="229.037,-196.583 237.865,-190.725 227.311,-189.8 229.037,-196.583"/>
</g>
<!-- Node7 -->
<g id="node13" class="node"><title>Node7</title>
<a xlink:href="edge_8hpp.html" target="_top" xlink:title="edge.hpp">
<polygon fill="none" stroke="black" points="408,-116.5 408,-137.5 464,-137.5 464,-116.5 408,-116.5"/>
<text text-anchor="middle" x="436" y="-124.5" font-family="Helvetica,sans-Serif" font-size="10.00">edge.hpp</text>
</a>
</g>
<!-- Node2&#45;&gt;Node7 -->
<g id="edge16" class="edge"><title>Node2&#45;&gt;Node7</title>
<path fill="none" stroke="midnightblue" d="M367.133,-348.422C389.163,-331.157 431.493,-294.736 454,-254 471.536,-222.263 481.169,-208.497 470,-174 466.638,-163.618 460.031,-153.604 453.528,-145.507"/>
<polygon fill="midnightblue" stroke="midnightblue" points="456.101,-143.131 446.929,-137.827 450.792,-147.693 456.101,-143.131"/>
</g>
<!-- Node8 -->
<g id="node17" class="node"><title>Node8</title>
<polygon fill="none" stroke="#bfbfbf" points="539.5,-290.5 539.5,-311.5 612.5,-311.5 612.5,-290.5 539.5,-290.5"/>
<text text-anchor="middle" x="576" y="-298.5" font-family="Helvetica,sans-Serif" font-size="10.00">QUndoStack</text>
</g>
<!-- Node2&#45;&gt;Node8 -->
<g id="edge18" class="edge"><title>Node2&#45;&gt;Node8</title>
<path fill="none" stroke="midnightblue" d="M390.074,-349.357C428.289,-339.418 487.97,-323.896 529.364,-313.129"/>
<polygon fill="midnightblue" stroke="midnightblue" points="530.411,-316.474 539.208,-310.569 528.649,-309.699 530.411,-316.474"/>
</g>
<!-- Node9 -->
<g id="node19" class="node"><title>Node9</title>
<a xlink:href="knotgraph_8hpp.html" target="_top" xlink:title="knotgraph.hpp">
<polygon fill="none" stroke="black" points="314,-290.5 314,-311.5 392,-311.5 392,-290.5 314,-290.5"/>
<text text-anchor="middle" x="353" y="-298.5" font-family="Helvetica,sans-Serif" font-size="10.00">knotgraph.hpp</text>
</a>
</g>
<!-- Node2&#45;&gt;Node9 -->
<g id="edge20" class="edge"><title>Node2&#45;&gt;Node9</title>
<path fill="none" stroke="midnightblue" d="M353,-348.362C353,-340.922 353,-330.743 353,-321.728"/>
<polygon fill="midnightblue" stroke="midnightblue" points="356.5,-321.571 353,-311.571 349.5,-321.571 356.5,-321.571"/>
</g>
<!-- Node5 -->
<g id="node9" class="node"><title>Node5</title>
<a xlink:href="custom__item_8hpp.html" target="_top" xlink:title="custom_item.hpp">
<polygon fill="none" stroke="black" points="343,-58.5 343,-79.5 435,-79.5 435,-58.5 343,-58.5"/>
<text text-anchor="middle" x="389" y="-66.5" font-family="Helvetica,sans-Serif" font-size="10.00">custom_item.hpp</text>
</a>
</g>
<!-- Node4&#45;&gt;Node5 -->
<g id="edge8" class="edge"><title>Node4&#45;&gt;Node5</title>
<path fill="none" stroke="midnightblue" d="M277.351,-174.295C298.586,-154.268 344.504,-110.964 370.349,-86.5893"/>
<polygon fill="midnightblue" stroke="midnightblue" points="372.803,-89.0865 377.676,-79.6792 368,-83.994 372.803,-89.0865"/>
</g>
<!-- Node4&#45;&gt;Node7 -->
<g id="edge12" class="edge"><title>Node4&#45;&gt;Node7</title>
<path fill="none" stroke="midnightblue" d="M294.072,-175.422C322.494,-165.725 366.633,-150.666 398.137,-139.918"/>
<polygon fill="midnightblue" stroke="midnightblue" points="399.552,-143.133 407.886,-136.592 397.292,-136.508 399.552,-143.133"/>
</g>
<!-- Node6 -->
<g id="node11" class="node"><title>Node6</title>
<polygon fill="none" stroke="#bfbfbf" points="347.5,-0.5 347.5,-21.5 430.5,-21.5 430.5,-0.5 347.5,-0.5"/>
<text text-anchor="middle" x="389" y="-8.5" font-family="Helvetica,sans-Serif" font-size="10.00">QGraphicsItem</text>
</g>
<!-- Node5&#45;&gt;Node6 -->
<g id="edge10" class="edge"><title>Node5&#45;&gt;Node6</title>
<path fill="none" stroke="midnightblue" d="M389,-58.3619C389,-50.9219 389,-40.7427 389,-31.7276"/>
<polygon fill="midnightblue" stroke="midnightblue" points="392.5,-31.5706 389,-21.5707 385.5,-31.5707 392.5,-31.5706"/>
</g>
<!-- Node7&#45;&gt;Node5 -->
<g id="edge14" class="edge"><title>Node7&#45;&gt;Node5</title>
<path fill="none" stroke="midnightblue" d="M427.379,-116.362C420.82,-108.268 411.634,-96.9318 403.894,-87.3796"/>
<polygon fill="midnightblue" stroke="midnightblue" points="406.581,-85.1364 397.566,-79.5707 401.142,-89.5436 406.581,-85.1364"/>
</g>
<!-- Node9&#45;&gt;Node4 -->
<g id="edge24" class="edge"><title>Node9&#45;&gt;Node4</title>
<path fill="none" stroke="midnightblue" d="M313.874,-296.595C265.275,-290.225 186.595,-276.654 169,-254 148.433,-227.519 192.897,-206.889 228.224,-195.33"/>
<polygon fill="midnightblue" stroke="midnightblue" points="229.382,-198.635 237.884,-192.313 227.295,-191.953 229.382,-198.635"/>
</g>
<!-- Node9&#45;&gt;Node7 -->
<g id="edge26" class="edge"><title>Node9&#45;&gt;Node7</title>
<path fill="none" stroke="midnightblue" d="M380.703,-290.389C397.81,-282.599 419.077,-270.494 433,-254 456.786,-225.822 462.04,-210.197 455,-174 453.208,-164.787 449.612,-155.094 446.026,-146.919"/>
<polygon fill="midnightblue" stroke="midnightblue" points="449.185,-145.412 441.779,-137.836 442.844,-148.377 449.185,-145.412"/>
</g>
<!-- Node10 -->
<g id="node21" class="node"><title>Node10</title>
<polygon fill="none" stroke="#bfbfbf" points="371.5,-174.5 371.5,-195.5 446.5,-195.5 446.5,-174.5 371.5,-174.5"/>
<text text-anchor="middle" x="409" y="-182.5" font-family="Helvetica,sans-Serif" font-size="10.00">QPainterPath</text>
</g>
<!-- Node9&#45;&gt;Node10 -->
<g id="edge22" class="edge"><title>Node9&#45;&gt;Node10</title>
<path fill="none" stroke="midnightblue" d="M377.066,-290.38C391.512,-282.585 408.656,-270.48 417,-254 424.553,-239.082 421.577,-220.082 417.263,-205.799"/>
<polygon fill="midnightblue" stroke="midnightblue" points="420.43,-204.248 413.854,-195.941 413.814,-206.536 420.43,-204.248"/>
</g>
<!-- Node11 -->
<g id="node25" class="node"><title>Node11</title>
<polygon fill="none" stroke="#bfbfbf" points="177.5,-232.5 177.5,-253.5 280.5,-253.5 280.5,-232.5 177.5,-232.5"/>
<text text-anchor="middle" x="229" y="-240.5" font-family="Helvetica,sans-Serif" font-size="10.00">QGraphicsPathItem</text>
</g>
<!-- Node9&#45;&gt;Node11 -->
<g id="edge28" class="edge"><title>Node9&#45;&gt;Node11</title>
<path fill="none" stroke="midnightblue" d="M330.545,-290.497C311.09,-281.397 282.72,-268.127 260.909,-257.925"/>
<polygon fill="midnightblue" stroke="midnightblue" points="262.248,-254.688 251.707,-253.621 259.283,-261.028 262.248,-254.688"/>
</g>
<!-- Node12 -->
<g id="node27" class="node"><title>Node12</title>
<a xlink:href="knot__curve__style_8hpp.html" target="_top" xlink:title="knot_curve_style.hpp">
<polygon fill="none" stroke="black" points="298,-232.5 298,-253.5 408,-253.5 408,-232.5 298,-232.5"/>
<text text-anchor="middle" x="353" y="-240.5" font-family="Helvetica,sans-Serif" font-size="10.00">knot_curve_style.hpp</text>
</a>
</g>
<!-- Node9&#45;&gt;Node12 -->
<g id="edge30" class="edge"><title>Node9&#45;&gt;Node12</title>
<path fill="none" stroke="midnightblue" d="M353,-290.362C353,-282.922 353,-272.743 353,-263.728"/>
<polygon fill="midnightblue" stroke="midnightblue" points="356.5,-263.571 353,-253.571 349.5,-263.571 356.5,-263.571"/>
</g>
<!-- Node12&#45;&gt;Node4 -->
<g id="edge32" class="edge"><title>Node12&#45;&gt;Node4</title>
<path fill="none" stroke="midnightblue" d="M337.043,-232.362C324.043,-223.696 305.469,-211.313 290.573,-201.382"/>
<polygon fill="midnightblue" stroke="midnightblue" points="292.118,-198.206 281.856,-195.571 288.235,-204.03 292.118,-198.206"/>
</g>
<!-- Node12&#45;&gt;Node10 -->
<g id="edge34" class="edge"><title>Node12&#45;&gt;Node10</title>
<path fill="none" stroke="midnightblue" d="M363.271,-232.362C371.244,-224.104 382.475,-212.472 391.811,-202.803"/>
<polygon fill="midnightblue" stroke="midnightblue" points="394.366,-205.196 398.794,-195.571 389.33,-200.334 394.366,-205.196"/>
</g>
<!-- Node13 -->
<g id="node31" class="node"><title>Node13</title>
<polygon fill="none" stroke="#bfbfbf" points="311.5,-174.5 311.5,-195.5 354.5,-195.5 354.5,-174.5 311.5,-174.5"/>
<text text-anchor="middle" x="333" y="-182.5" font-family="Helvetica,sans-Serif" font-size="10.00">QMap</text>
</g>
<!-- Node12&#45;&gt;Node13 -->
<g id="edge36" class="edge"><title>Node12&#45;&gt;Node13</title>
<path fill="none" stroke="midnightblue" d="M349.332,-232.362C346.71,-224.758 343.101,-214.294 339.943,-205.135"/>
<polygon fill="midnightblue" stroke="midnightblue" points="343.214,-203.883 336.645,-195.571 336.596,-206.165 343.214,-203.883"/>
</g>
</g>
</svg>
