<?xml version="1.0" encoding="UTF-8" standalone="no"?>
<!DOCTYPE svg PUBLIC "-//W3C//DTD SVG 1.1//EN"
 "http://www.w3.org/Graphics/SVG/1.1/DTD/svg11.dtd">
<!-- Generated by graphviz version 2.26.3 (20100126.1600)
 -->
<!-- Title: G Pages: 1 -->
<svg width="658pt" height="494pt"
 viewBox="0.00 0.00 658.00 494.00" xmlns="http://www.w3.org/2000/svg" xmlns:xlink="http://www.w3.org/1999/xlink">
<g id="graph1" class="graph" transform="scale(1 1) rotate(0) translate(4 490)">
<title>G</title>
<!-- Node1 -->
<g id="node1" class="node"><title>Node1</title>
<polygon fill="#bfbfbf" stroke="black" points="385,-464.5 385,-485.5 459,-485.5 459,-464.5 385,-464.5"/>
<text text-anchor="middle" x="422" y="-472.5" font-family="Helvetica,sans-Serif" font-size="10.00">clipboard.cpp</text>
</g>
<!-- Node2 -->
<g id="node3" class="node"><title>Node2</title>
<a xlink:href="clipboard_8hpp.html" target="_top" xlink:title="clipboard.hpp">
<polygon fill="none" stroke="black" points="385,-406.5 385,-427.5 459,-427.5 459,-406.5 385,-406.5"/>
<text text-anchor="middle" x="422" y="-414.5" font-family="Helvetica,sans-Serif" font-size="10.00">clipboard.hpp</text>
</a>
</g>
<!-- Node1&#45;&gt;Node2 -->
<g id="edge2" class="edge"><title>Node1&#45;&gt;Node2</title>
<path fill="none" stroke="midnightblue" d="M422,-464.362C422,-456.922 422,-446.743 422,-437.728"/>
<polygon fill="midnightblue" stroke="midnightblue" points="425.5,-437.571 422,-427.571 418.5,-437.571 425.5,-437.571"/>
</g>
<!-- Node3 -->
<g id="node5" class="node"><title>Node3</title>
<a xlink:href="knotview_8hpp.html" target="_top" xlink:title="knotview.hpp">
<polygon fill="none" stroke="black" points="385,-348.5 385,-369.5 459,-369.5 459,-348.5 385,-348.5"/>
<text text-anchor="middle" x="422" y="-356.5" font-family="Helvetica,sans-Serif" font-size="10.00">knotview.hpp</text>
</a>
</g>
<!-- Node2&#45;&gt;Node3 -->
<g id="edge4" class="edge"><title>Node2&#45;&gt;Node3</title>
<path fill="none" stroke="midnightblue" d="M422,-406.362C422,-398.922 422,-388.743 422,-379.728"/>
<polygon fill="midnightblue" stroke="midnightblue" points="425.5,-379.571 422,-369.571 418.5,-379.571 425.5,-379.571"/>
</g>
<!-- Node4 -->
<g id="node7" class="node"><title>Node4</title>
<polygon fill="none" stroke="#bfbfbf" points="-0.5,-290.5 -0.5,-311.5 84.5,-311.5 84.5,-290.5 -0.5,-290.5"/>
<text text-anchor="middle" x="42" y="-298.5" font-family="Helvetica,sans-Serif" font-size="10.00">QGraphicsView</text>
</g>
<!-- Node3&#45;&gt;Node4 -->
<g id="edge6" class="edge"><title>Node3&#45;&gt;Node4</title>
<path fill="none" stroke="midnightblue" d="M384.977,-354.241C324.698,-346.356 201.653,-329.687 98,-312 96.9256,-311.817 95.8402,-311.629 94.7467,-311.437"/>
<polygon fill="midnightblue" stroke="midnightblue" points="95.2283,-307.967 84.7644,-309.628 93.98,-314.855 95.2283,-307.967"/>
</g>
<!-- Node5 -->
<g id="node9" class="node"><title>Node5</title>
<a xlink:href="node_8hpp.html" target="_top" xlink:title="node.hpp">
<polygon fill="none" stroke="black" points="388,-174.5 388,-195.5 444,-195.5 444,-174.5 388,-174.5"/>
<text text-anchor="middle" x="416" y="-182.5" font-family="Helvetica,sans-Serif" font-size="10.00">node.hpp</text>
</a>
</g>
<!-- Node3&#45;&gt;Node5 -->
<g id="edge8" class="edge"><title>Node3&#45;&gt;Node5</title>
<path fill="none" stroke="midnightblue" d="M432.008,-348.274C451.365,-326.164 490.387,-274.068 471,-232 465.234,-219.489 454.313,-209.071 443.713,-201.249"/>
<polygon fill="midnightblue" stroke="midnightblue" points="445.613,-198.308 435.385,-195.542 441.656,-204.082 445.613,-198.308"/>
</g>
<!-- Node8 -->
<g id="node15" class="node"><title>Node8</title>
<a xlink:href="edge_8hpp.html" target="_top" xlink:title="edge.hpp">
<polygon fill="none" stroke="black" points="227,-116.5 227,-137.5 283,-137.5 283,-116.5 227,-116.5"/>
<text text-anchor="middle" x="255" y="-124.5" font-family="Helvetica,sans-Serif" font-size="10.00">edge.hpp</text>
</a>
</g>
<!-- Node3&#45;&gt;Node8 -->
<g id="edge18" class="edge"><title>Node3&#45;&gt;Node8</title>
<path fill="none" stroke="midnightblue" d="M384.666,-354.776C328.989,-346.334 225.272,-321.915 174,-254 152.337,-225.306 143.164,-204.624 162,-174 174.054,-154.402 197.087,-142.676 217.213,-135.838"/>
<polygon fill="midnightblue" stroke="midnightblue" points="218.287,-139.169 226.799,-132.86 216.211,-132.484 218.287,-139.169"/>
</g>
<!-- Node9 -->
<g id="node19" class="node"><title>Node9</title>
<polygon fill="none" stroke="#bfbfbf" points="577.5,-290.5 577.5,-311.5 650.5,-311.5 650.5,-290.5 577.5,-290.5"/>
<text text-anchor="middle" x="614" y="-298.5" font-family="Helvetica,sans-Serif" font-size="10.00">QUndoStack</text>
</g>
<!-- Node3&#45;&gt;Node9 -->
<g id="edge20" class="edge"><title>Node3&#45;&gt;Node9</title>
<path fill="none" stroke="midnightblue" d="M456.77,-348.497C488.342,-338.959 535.079,-324.841 569.393,-314.475"/>
<polygon fill="midnightblue" stroke="midnightblue" points="570.604,-317.765 579.165,-311.523 568.58,-311.064 570.604,-317.765"/>
</g>
<!-- Node10 -->
<g id="node21" class="node"><title>Node10</title>
<a xlink:href="knotgraph_8hpp.html" target="_top" xlink:title="knotgraph.hpp">
<polygon fill="none" stroke="black" points="294,-290.5 294,-311.5 372,-311.5 372,-290.5 294,-290.5"/>
<text text-anchor="middle" x="333" y="-298.5" font-family="Helvetica,sans-Serif" font-size="10.00">knotgraph.hpp</text>
</a>
</g>
<!-- Node3&#45;&gt;Node10 -->
<g id="edge22" class="edge"><title>Node3&#45;&gt;Node10</title>
<path fill="none" stroke="midnightblue" d="M405.676,-348.362C392.252,-339.614 373.017,-327.079 357.707,-317.101"/>
<polygon fill="midnightblue" stroke="midnightblue" points="359.509,-314.098 349.22,-311.571 355.688,-319.963 359.509,-314.098"/>
</g>
<!-- Node15 -->
<g id="node35" class="node"><title>Node15</title>
<a xlink:href="snapping__grid_8hpp.html" target="_top" xlink:title="snapping_grid.hpp">
<polygon fill="none" stroke="black" points="472.5,-116.5 472.5,-137.5 567.5,-137.5 567.5,-116.5 472.5,-116.5"/>
<text text-anchor="middle" x="520" y="-124.5" font-family="Helvetica,sans-Serif" font-size="10.00">snapping_grid.hpp</text>
</a>
</g>
<!-- Node3&#45;&gt;Node15 -->
<g id="edge40" class="edge"><title>Node3&#45;&gt;Node15</title>
<path fill="none" stroke="midnightblue" d="M439.496,-348.408C451.829,-340.036 467.738,-327.242 477,-312 509.138,-259.11 517.265,-184.333 519.314,-148.191"/>
<polygon fill="midnightblue" stroke="midnightblue" points="522.824,-148.041 519.788,-137.891 515.832,-147.719 522.824,-148.041"/>
</g>
<!-- Node6 -->
<g id="node11" class="node"><title>Node6</title>
<a xlink:href="custom__item_8hpp.html" target="_top" xlink:title="custom_item.hpp">
<polygon fill="none" stroke="black" points="370,-58.5 370,-79.5 462,-79.5 462,-58.5 370,-58.5"/>
<text text-anchor="middle" x="416" y="-66.5" font-family="Helvetica,sans-Serif" font-size="10.00">custom_item.hpp</text>
</a>
</g>
<!-- Node5&#45;&gt;Node6 -->
<g id="edge10" class="edge"><title>Node5&#45;&gt;Node6</title>
<path fill="none" stroke="midnightblue" d="M416,-174.295C416,-155.131 416,-114.654 416,-89.8434"/>
<polygon fill="midnightblue" stroke="midnightblue" points="419.5,-89.6792 416,-79.6792 412.5,-89.6792 419.5,-89.6792"/>
</g>
<!-- Node5&#45;&gt;Node8 -->
<g id="edge14" class="edge"><title>Node5&#45;&gt;Node8</title>
<path fill="none" stroke="midnightblue" d="M387.956,-174.897C361.569,-165.391 321.862,-151.087 292.71,-140.585"/>
<polygon fill="midnightblue" stroke="midnightblue" points="293.857,-137.278 283.263,-137.182 291.485,-143.864 293.857,-137.278"/>
</g>
<!-- Node7 -->
<g id="node13" class="node"><title>Node7</title>
<polygon fill="none" stroke="#bfbfbf" points="418.5,-0.5 418.5,-21.5 501.5,-21.5 501.5,-0.5 418.5,-0.5"/>
<text text-anchor="middle" x="460" y="-8.5" font-family="Helvetica,sans-Serif" font-size="10.00">QGraphicsItem</text>
</g>
<!-- Node6&#45;&gt;Node7 -->
<g id="edge12" class="edge"><title>Node6&#45;&gt;Node7</title>
<path fill="none" stroke="midnightblue" d="M424.07,-58.3619C430.149,-50.3496 438.637,-39.1605 445.837,-29.6696"/>
<polygon fill="midnightblue" stroke="midnightblue" points="448.725,-31.653 451.981,-21.5707 443.149,-27.4222 448.725,-31.653"/>
</g>
<!-- Node8&#45;&gt;Node6 -->
<g id="edge16" class="edge"><title>Node8&#45;&gt;Node6</title>
<path fill="none" stroke="midnightblue" d="M283.044,-116.897C309.108,-107.508 348.165,-93.4373 377.212,-82.9733"/>
<polygon fill="midnightblue" stroke="midnightblue" points="378.424,-86.257 386.646,-79.5749 376.051,-79.6713 378.424,-86.257"/>
</g>
<!-- Node10&#45;&gt;Node5 -->
<g id="edge26" class="edge"><title>Node10&#45;&gt;Node5</title>
<path fill="none" stroke="midnightblue" d="M372.211,-291.074C404.058,-282.125 445.238,-268.222 455,-254 466.538,-237.19 451.655,-216.724 437.07,-202.465"/>
<polygon fill="midnightblue" stroke="midnightblue" points="439.348,-199.805 429.611,-195.627 434.617,-204.965 439.348,-199.805"/>
</g>
<!-- Node10&#45;&gt;Node8 -->
<g id="edge28" class="edge"><title>Node10&#45;&gt;Node8</title>
<path fill="none" stroke="midnightblue" d="M293.969,-296.027C264.011,-290.392 223.288,-278.559 196,-254 174.865,-234.979 175.145,-223.762 169,-196 166.887,-186.453 164.012,-182.41 169,-174 179.472,-156.343 199.177,-144.889 217.085,-137.714"/>
<polygon fill="midnightblue" stroke="midnightblue" points="218.597,-140.887 226.779,-134.156 216.185,-134.316 218.597,-140.887"/>
</g>
<!-- Node11 -->
<g id="node23" class="node"><title>Node11</title>
<polygon fill="none" stroke="#bfbfbf" points="177.5,-174.5 177.5,-195.5 252.5,-195.5 252.5,-174.5 177.5,-174.5"/>
<text text-anchor="middle" x="215" y="-182.5" font-family="Helvetica,sans-Serif" font-size="10.00">QPainterPath</text>
</g>
<!-- Node10&#45;&gt;Node11 -->
<g id="edge24" class="edge"><title>Node10&#45;&gt;Node11</title>
<path fill="none" stroke="midnightblue" d="M293.814,-291.595C260.767,-282.776 217.253,-268.767 207,-254 197.26,-239.971 200.745,-220.346 205.803,-205.611"/>
<polygon fill="midnightblue" stroke="midnightblue" points="209.22,-206.484 209.598,-195.896 202.7,-203.937 209.22,-206.484"/>
</g>
<!-- Node12 -->
<g id="node27" class="node"><title>Node12</title>
<polygon fill="none" stroke="#bfbfbf" points="343.5,-232.5 343.5,-253.5 446.5,-253.5 446.5,-232.5 343.5,-232.5"/>
<text text-anchor="middle" x="395" y="-240.5" font-family="Helvetica,sans-Serif" font-size="10.00">QGraphicsPathItem</text>
</g>
<!-- Node10&#45;&gt;Node12 -->
<g id="edge30" class="edge"><title>Node10&#45;&gt;Node12</title>
<path fill="none" stroke="midnightblue" d="M344.372,-290.362C353.286,-282.023 365.879,-270.242 376.276,-260.516"/>
<polygon fill="midnightblue" stroke="midnightblue" points="378.789,-262.958 383.7,-253.571 374.007,-257.846 378.789,-262.958"/>
</g>
<!-- Node13 -->
<g id="node29" class="node"><title>Node13</title>
<a xlink:href="knot__curve__style_8hpp.html" target="_top" xlink:title="knot_curve_style.hpp">
<polygon fill="none" stroke="black" points="216,-232.5 216,-253.5 326,-253.5 326,-232.5 216,-232.5"/>
<text text-anchor="middle" x="271" y="-240.5" font-family="Helvetica,sans-Serif" font-size="10.00">knot_curve_style.hpp</text>
</a>
</g>
<!-- Node10&#45;&gt;Node13 -->
<g id="edge32" class="edge"><title>Node10&#45;&gt;Node13</title>
<path fill="none" stroke="midnightblue" d="M321.628,-290.362C312.714,-282.023 300.121,-270.242 289.724,-260.516"/>
<polygon fill="midnightblue" stroke="midnightblue" points="291.993,-257.846 282.3,-253.571 287.211,-262.958 291.993,-257.846"/>
</g>
<!-- Node13&#45;&gt;Node5 -->
<g id="edge34" class="edge"><title>Node13&#45;&gt;Node5</title>
<path fill="none" stroke="midnightblue" d="M297.258,-232.497C320.416,-223.234 354.375,-209.65 380.052,-199.379"/>
<polygon fill="midnightblue" stroke="midnightblue" points="381.462,-202.585 389.447,-195.621 378.862,-196.086 381.462,-202.585"/>
</g>
<!-- Node13&#45;&gt;Node11 -->
<g id="edge36" class="edge"><title>Node13&#45;&gt;Node11</title>
<path fill="none" stroke="midnightblue" d="M260.729,-232.362C252.756,-224.104 241.525,-212.472 232.189,-202.803"/>
<polygon fill="midnightblue" stroke="midnightblue" points="234.67,-200.334 225.206,-195.571 229.634,-205.196 234.67,-200.334"/>
</g>
<!-- Node14 -->
<g id="node33" class="node"><title>Node14</title>
<polygon fill="none" stroke="#bfbfbf" points="269.5,-174.5 269.5,-195.5 312.5,-195.5 312.5,-174.5 269.5,-174.5"/>
<text text-anchor="middle" x="291" y="-182.5" font-family="Helvetica,sans-Serif" font-size="10.00">QMap</text>
</g>
<!-- Node13&#45;&gt;Node14 -->
<g id="edge38" class="edge"><title>Node13&#45;&gt;Node14</title>
<path fill="none" stroke="midnightblue" d="M274.668,-232.362C277.29,-224.758 280.899,-214.294 284.057,-205.135"/>
<polygon fill="midnightblue" stroke="midnightblue" points="287.404,-206.165 287.355,-195.571 280.786,-203.883 287.404,-206.165"/>
</g>
<!-- Node15&#45;&gt;Node7 -->
<g id="edge42" class="edge"><title>Node15&#45;&gt;Node7</title>
<path fill="none" stroke="midnightblue" d="M514.463,-116.295C504.417,-96.8724 483.046,-55.5561 470.265,-30.8462"/>
<polygon fill="midnightblue" stroke="midnightblue" points="473.227,-28.9534 465.524,-21.6792 467.009,-32.1694 473.227,-28.9534"/>
</g>
</g>
</svg>
