<?xml version="1.0" encoding="UTF-8" standalone="no"?>
<!DOCTYPE svg PUBLIC "-//W3C//DTD SVG 1.1//EN"
 "http://www.w3.org/Graphics/SVG/1.1/DTD/svg11.dtd">
<!-- Generated by graphviz version 2.26.3 (20100126.1600)
 -->
<!-- Title: G Pages: 1 -->
<svg width="452pt" height="88pt"
 viewBox="0.00 0.00 452.00 88.00" xmlns="http://www.w3.org/2000/svg" xmlns:xlink="http://www.w3.org/1999/xlink">
<g id="graph1" class="graph" transform="scale(1 1) rotate(0) translate(4 84)">
<title>G</title>
<!-- Node1 -->
<g id="node1" class="node"><title>Node1</title>
<polygon fill="#bfbfbf" stroke="black" points="159,-58.5 159,-79.5 249,-79.5 249,-58.5 159,-58.5"/>
<text text-anchor="middle" x="204" y="-66.5" font-family="Helvetica,sans-Serif" font-size="10.00">color_widget.hpp</text>
</g>
<!-- Node2 -->
<g id="node3" class="node"><title>Node2</title>
<polygon fill="none" stroke="#bfbfbf" points="-0.5,-0.5 -0.5,-21.5 58.5,-21.5 58.5,-0.5 -0.5,-0.5"/>
<text text-anchor="middle" x="29" y="-8.5" font-family="Helvetica,sans-Serif" font-size="10.00">QLineEdit</text>
</g>
<!-- Node1&#45;&gt;Node2 -->
<g id="edge2" class="edge"><title>Node1&#45;&gt;Node2</title>
<path fill="none" stroke="midnightblue" d="M172.309,-58.4966C143.157,-48.8349 99.8206,-34.472 68.4402,-24.0716"/>
<polygon fill="midnightblue" stroke="midnightblue" points="69.2983,-20.6688 58.7049,-20.8451 67.0961,-27.3134 69.2983,-20.6688"/>
</g>
<!-- Node3 -->
<g id="node5" class="node"><title>Node3</title>
<polygon fill="none" stroke="#bfbfbf" points="75.5,-0.5 75.5,-21.5 150.5,-21.5 150.5,-0.5 75.5,-0.5"/>
<text text-anchor="middle" x="113" y="-8.5" font-family="Helvetica,sans-Serif" font-size="10.00">QColorDialog</text>
</g>
<!-- Node1&#45;&gt;Node3 -->
<g id="edge4" class="edge"><title>Node1&#45;&gt;Node3</title>
<path fill="none" stroke="midnightblue" d="M187.309,-58.3619C173.584,-49.6138 153.916,-37.0786 138.263,-27.1015"/>
<polygon fill="midnightblue" stroke="midnightblue" points="139.899,-23.994 129.585,-21.5707 136.137,-29.8969 139.899,-23.994"/>
</g>
<!-- Node4 -->
<g id="node7" class="node"><title>Node4</title>
<polygon fill="none" stroke="#bfbfbf" points="168,-0.5 168,-21.5 240,-21.5 240,-0.5 168,-0.5"/>
<text text-anchor="middle" x="204" y="-8.5" font-family="Helvetica,sans-Serif" font-size="10.00">QPaintEvent</text>
</g>
<!-- Node1&#45;&gt;Node4 -->
<g id="edge6" class="edge"><title>Node1&#45;&gt;Node4</title>
<path fill="none" stroke="midnightblue" d="M204,-58.3619C204,-50.9219 204,-40.7427 204,-31.7276"/>
<polygon fill="midnightblue" stroke="midnightblue" points="207.5,-31.5706 204,-21.5707 200.5,-31.5707 207.5,-31.5706"/>
</g>
<!-- Node5 -->
<g id="node9" class="node"><title>Node5</title>
<polygon fill="none" stroke="#bfbfbf" points="257.5,-0.5 257.5,-21.5 312.5,-21.5 312.5,-0.5 257.5,-0.5"/>
<text text-anchor="middle" x="285" y="-8.5" font-family="Helvetica,sans-Serif" font-size="10.00">QPainter</text>
</g>
<!-- Node1&#45;&gt;Node5 -->
<g id="edge8" class="edge"><title>Node1&#45;&gt;Node5</title>
<path fill="none" stroke="midnightblue" d="M218.857,-58.3619C230.846,-49.7773 247.927,-37.5459 261.728,-27.6636"/>
<polygon fill="midnightblue" stroke="midnightblue" points="264.145,-30.2383 270.238,-21.5707 260.069,-24.5469 264.145,-30.2383"/>
</g>
<!-- Node6 -->
<g id="node11" class="node"><title>Node6</title>
<polygon fill="none" stroke="#bfbfbf" points="329.5,-0.5 329.5,-21.5 444.5,-21.5 444.5,-0.5 329.5,-0.5"/>
<text text-anchor="middle" x="387" y="-8.5" font-family="Helvetica,sans-Serif" font-size="10.00">QStyleOptionFrameV3</text>
</g>
<!-- Node1&#45;&gt;Node6 -->
<g id="edge10" class="edge"><title>Node1&#45;&gt;Node6</title>
<path fill="none" stroke="midnightblue" d="M237.14,-58.4966C267.103,-49.0001 311.396,-34.9619 344.062,-24.6087"/>
<polygon fill="midnightblue" stroke="midnightblue" points="345.323,-27.8809 353.798,-21.5231 343.208,-21.208 345.323,-27.8809"/>
</g>
</g>
</svg>
