<?xml version="1.0" encoding="UTF-8" standalone="no"?>
<!DOCTYPE svg PUBLIC "-//W3C//DTD SVG 1.1//EN"
 "http://www.w3.org/Graphics/SVG/1.1/DTD/svg11.dtd">
<!-- Generated by graphviz version 2.26.3 (20100126.1600)
 -->
<!-- Title: G Pages: 1 -->
<svg width="441pt" height="262pt"
 viewBox="0.00 0.00 441.00 262.00" xmlns="http://www.w3.org/2000/svg" xmlns:xlink="http://www.w3.org/1999/xlink">
<g id="graph1" class="graph" transform="scale(1 1) rotate(0) translate(4 258)">
<title>G</title>
<!-- Node1 -->
<g id="node1" class="node"><title>Node1</title>
<polygon fill="#bfbfbf" stroke="black" points="271,-232.5 271,-253.5 361,-253.5 361,-232.5 271,-232.5"/>
<text text-anchor="middle" x="316" y="-240.5" font-family="Helvetica,sans-Serif" font-size="10.00">color_widget.hpp</text>
</g>
<!-- Node2 -->
<g id="node3" class="node"><title>Node2</title>
<a xlink:href="ui__style__dialog_8h.html" target="_top" xlink:title="ui_style_dialog.h">
<polygon fill="none" stroke="black" points="212.5,-174.5 212.5,-195.5 301.5,-195.5 301.5,-174.5 212.5,-174.5"/>
<text text-anchor="middle" x="257" y="-182.5" font-family="Helvetica,sans-Serif" font-size="10.00">ui_style_dialog.h</text>
</a>
</g>
<!-- Node1&#45;&gt;Node2 -->
<g id="edge2" class="edge"><title>Node1&#45;&gt;Node2</title>
<path fill="none" stroke="midnightblue" d="M297.81,-225.118C287.963,-215.438 276.134,-203.81 267.753,-195.571"/>
<polygon fill="midnightblue" stroke="midnightblue" points="295.594,-227.847 305.178,-232.362 300.501,-222.856 295.594,-227.847"/>
</g>
<!-- Node10 -->
<g id="node19" class="node"><title>Node10</title>
<a xlink:href="moc__color__widget_8cpp.html" target="_top" xlink:title="moc_color_widget.cpp">
<polygon fill="none" stroke="black" points="319,-174.5 319,-195.5 433,-195.5 433,-174.5 319,-174.5"/>
<text text-anchor="middle" x="376" y="-182.5" font-family="Helvetica,sans-Serif" font-size="10.00">moc_color_widget.cpp</text>
</a>
</g>
<!-- Node1&#45;&gt;Node10 -->
<g id="edge18" class="edge"><title>Node1&#45;&gt;Node10</title>
<path fill="none" stroke="midnightblue" d="M334.202,-225.405C344.274,-215.668 356.457,-203.891 365.065,-195.571"/>
<polygon fill="midnightblue" stroke="midnightblue" points="331.762,-222.895 327.005,-232.362 336.627,-227.928 331.762,-222.895"/>
</g>
<!-- Node3 -->
<g id="node5" class="node"><title>Node3</title>
<a xlink:href="style__dialog_8hpp.html" target="_top" xlink:title="style_dialog.hpp">
<polygon fill="none" stroke="black" points="213.5,-116.5 213.5,-137.5 300.5,-137.5 300.5,-116.5 213.5,-116.5"/>
<text text-anchor="middle" x="257" y="-124.5" font-family="Helvetica,sans-Serif" font-size="10.00">style_dialog.hpp</text>
</a>
</g>
<!-- Node2&#45;&gt;Node3 -->
<g id="edge4" class="edge"><title>Node2&#45;&gt;Node3</title>
<path fill="none" stroke="midnightblue" d="M257,-164.191C257,-155.168 257,-144.994 257,-137.571"/>
<polygon fill="midnightblue" stroke="midnightblue" points="253.5,-164.362 257,-174.362 260.5,-164.362 253.5,-164.362"/>
</g>
<!-- Node4 -->
<g id="node7" class="node"><title>Node4</title>
<a xlink:href="knot__window_8hpp.html" target="_top" xlink:title="knot_window.hpp">
<polygon fill="none" stroke="black" points="92,-58.5 92,-79.5 184,-79.5 184,-58.5 92,-58.5"/>
<text text-anchor="middle" x="138" y="-66.5" font-family="Helvetica,sans-Serif" font-size="10.00">knot_window.hpp</text>
</a>
</g>
<!-- Node3&#45;&gt;Node4 -->
<g id="edge6" class="edge"><title>Node3&#45;&gt;Node4</title>
<path fill="none" stroke="midnightblue" d="M226.366,-112.069C205.526,-101.912 178.451,-88.7157 159.792,-79.6212"/>
<polygon fill="midnightblue" stroke="midnightblue" points="224.927,-115.262 235.45,-116.497 227.994,-108.969 224.927,-115.262"/>
</g>
<!-- Node8 -->
<g id="node15" class="node"><title>Node8</title>
<a xlink:href="moc__style__dialog_8cpp.html" target="_top" xlink:title="moc_style_dialog.cpp">
<polygon fill="none" stroke="black" points="201.5,-58.5 201.5,-79.5 312.5,-79.5 312.5,-58.5 201.5,-58.5"/>
<text text-anchor="middle" x="257" y="-66.5" font-family="Helvetica,sans-Serif" font-size="10.00">moc_style_dialog.cpp</text>
</a>
</g>
<!-- Node3&#45;&gt;Node8 -->
<g id="edge14" class="edge"><title>Node3&#45;&gt;Node8</title>
<path fill="none" stroke="midnightblue" d="M257,-106.191C257,-97.1684 257,-86.9941 257,-79.5707"/>
<polygon fill="midnightblue" stroke="midnightblue" points="253.5,-106.362 257,-116.362 260.5,-106.362 253.5,-106.362"/>
</g>
<!-- Node9 -->
<g id="node17" class="node"><title>Node9</title>
<a xlink:href="style__dialog_8cpp.html" target="_top" xlink:title="style_dialog.cpp">
<polygon fill="none" stroke="black" points="329.5,-58.5 329.5,-79.5 416.5,-79.5 416.5,-58.5 329.5,-58.5"/>
<text text-anchor="middle" x="373" y="-66.5" font-family="Helvetica,sans-Serif" font-size="10.00">style_dialog.cpp</text>
</a>
</g>
<!-- Node3&#45;&gt;Node9 -->
<g id="edge16" class="edge"><title>Node3&#45;&gt;Node9</title>
<path fill="none" stroke="midnightblue" d="M287.136,-111.932C307.414,-101.793 333.65,-88.6748 351.758,-79.6212"/>
<polygon fill="midnightblue" stroke="midnightblue" points="285.386,-108.894 278.007,-116.497 288.516,-115.155 285.386,-108.894"/>
</g>
<!-- Node5 -->
<g id="node9" class="node"><title>Node5</title>
<a xlink:href="knot__window_8cpp.html" target="_top" xlink:title="knot_window.cpp">
<polygon fill="none" stroke="black" points="0,-0.5 0,-21.5 92,-21.5 92,-0.5 0,-0.5"/>
<text text-anchor="middle" x="46" y="-8.5" font-family="Helvetica,sans-Serif" font-size="10.00">knot_window.cpp</text>
</a>
</g>
<!-- Node4&#45;&gt;Node5 -->
<g id="edge8" class="edge"><title>Node4&#45;&gt;Node5</title>
<path fill="none" stroke="midnightblue" d="M112.338,-52.8215C96.4909,-42.8312 76.6126,-30.2993 62.7672,-21.5707"/>
<polygon fill="midnightblue" stroke="midnightblue" points="110.8,-55.9896 121.126,-58.3619 114.533,-50.0681 110.8,-55.9896"/>
</g>
<!-- Node6 -->
<g id="node11" class="node"><title>Node6</title>
<a xlink:href="main_8cpp.html" target="_top" xlink:title="main.cpp">
<polygon fill="none" stroke="black" points="110,-0.5 110,-21.5 166,-21.5 166,-0.5 110,-0.5"/>
<text text-anchor="middle" x="138" y="-8.5" font-family="Helvetica,sans-Serif" font-size="10.00">main.cpp</text>
</a>
</g>
<!-- Node4&#45;&gt;Node6 -->
<g id="edge10" class="edge"><title>Node4&#45;&gt;Node6</title>
<path fill="none" stroke="midnightblue" d="M138,-48.1906C138,-39.1684 138,-28.9941 138,-21.5707"/>
<polygon fill="midnightblue" stroke="midnightblue" points="134.5,-48.3619 138,-58.3619 141.5,-48.3619 134.5,-48.3619"/>
</g>
<!-- Node7 -->
<g id="node13" class="node"><title>Node7</title>
<a xlink:href="moc__knot__window_8cpp.html" target="_top" xlink:title="moc_knot_window.cpp">
<polygon fill="none" stroke="black" points="184,-0.5 184,-21.5 300,-21.5 300,-0.5 184,-0.5"/>
<text text-anchor="middle" x="242" y="-8.5" font-family="Helvetica,sans-Serif" font-size="10.00">moc_knot_window.cpp</text>
</a>
</g>
<!-- Node4&#45;&gt;Node7 -->
<g id="edge12" class="edge"><title>Node4&#45;&gt;Node7</title>
<path fill="none" stroke="midnightblue" d="M166.01,-53.379C184.081,-43.3011 207.102,-30.4624 223.046,-21.5707"/>
<polygon fill="midnightblue" stroke="midnightblue" points="164.104,-50.4344 157.075,-58.3619 167.514,-56.548 164.104,-50.4344"/>
</g>
</g>
</svg>
