<?xml version="1.0" encoding="UTF-8" standalone="no"?>
<!DOCTYPE svg PUBLIC "-//W3C//DTD SVG 1.1//EN"
 "http://www.w3.org/Graphics/SVG/1.1/DTD/svg11.dtd">
<!-- Generated by graphviz version 2.26.3 (20100126.1600)
 -->
<!-- Title: G Pages: 1 -->
<svg width="1482pt" height="204pt"
 viewBox="0.00 0.00 1482.00 204.00" xmlns="http://www.w3.org/2000/svg" xmlns:xlink="http://www.w3.org/1999/xlink">
<g id="graph1" class="graph" transform="scale(1 1) rotate(0) translate(4 200)">
<title>G</title>
<!-- Node1 -->
<g id="node1" class="node"><title>Node1</title>
<polygon fill="#bfbfbf" stroke="black" points="674,-174.5 674,-195.5 766,-195.5 766,-174.5 674,-174.5"/>
<text text-anchor="middle" x="720" y="-182.5" font-family="Helvetica,sans-Serif" font-size="10.00">config_dialog.cpp</text>
</g>
<!-- Node2 -->
<g id="node3" class="node"><title>Node2</title>
<a xlink:href="config__dialog_8hpp.html" target="_top" xlink:title="config_dialog.hpp">
<polygon fill="none" stroke="black" points="674,-116.5 674,-137.5 766,-137.5 766,-116.5 674,-116.5"/>
<text text-anchor="middle" x="720" y="-124.5" font-family="Helvetica,sans-Serif" font-size="10.00">config_dialog.hpp</text>
</a>
</g>
<!-- Node1&#45;&gt;Node2 -->
<g id="edge2" class="edge"><title>Node1&#45;&gt;Node2</title>
<path fill="none" stroke="midnightblue" d="M720,-174.362C720,-166.922 720,-156.743 720,-147.728"/>
<polygon fill="midnightblue" stroke="midnightblue" points="723.5,-147.571 720,-137.571 716.5,-147.571 723.5,-147.571"/>
</g>
<!-- Node3 -->
<g id="node5" class="node"><title>Node3</title>
<a xlink:href="ui__config__dialog_8h.html" target="_top" xlink:title="ui_config_dialog.h">
<polygon fill="none" stroke="black" points="672.5,-58.5 672.5,-79.5 767.5,-79.5 767.5,-58.5 672.5,-58.5"/>
<text text-anchor="middle" x="720" y="-66.5" font-family="Helvetica,sans-Serif" font-size="10.00">ui_config_dialog.h</text>
</a>
</g>
<!-- Node2&#45;&gt;Node3 -->
<g id="edge4" class="edge"><title>Node2&#45;&gt;Node3</title>
<path fill="none" stroke="midnightblue" d="M720,-116.362C720,-108.922 720,-98.7427 720,-89.7276"/>
<polygon fill="midnightblue" stroke="midnightblue" points="723.5,-89.5706 720,-79.5707 716.5,-89.5707 723.5,-89.5706"/>
</g>
<!-- Node4 -->
<g id="node7" class="node"><title>Node4</title>
<polygon fill="none" stroke="#bfbfbf" points="-0.5,-0.5 -0.5,-21.5 88.5,-21.5 88.5,-0.5 -0.5,-0.5"/>
<text text-anchor="middle" x="44" y="-8.5" font-family="Helvetica,sans-Serif" font-size="10.00">QtCore/QVariant</text>
</g>
<!-- Node3&#45;&gt;Node4 -->
<g id="edge6" class="edge"><title>Node3&#45;&gt;Node4</title>
<path fill="none" stroke="midnightblue" d="M672.492,-67.5121C569.57,-63.8376 318.231,-52.4287 98.8406,-22.1224"/>
<polygon fill="midnightblue" stroke="midnightblue" points="99.1365,-18.6299 88.7482,-20.7117 98.1673,-25.5625 99.1365,-18.6299"/>
</g>
<!-- Node5 -->
<g id="node9" class="node"><title>Node5</title>
<polygon fill="none" stroke="#bfbfbf" points="106,-0.5 106,-21.5 186,-21.5 186,-0.5 106,-0.5"/>
<text text-anchor="middle" x="146" y="-8.5" font-family="Helvetica,sans-Serif" font-size="10.00">QtGui/QAction</text>
</g>
<!-- Node3&#45;&gt;Node5 -->
<g id="edge8" class="edge"><title>Node3&#45;&gt;Node5</title>
<path fill="none" stroke="midnightblue" d="M672.327,-66.8355C581.496,-62.256 377.275,-49.7732 196.01,-21.986"/>
<polygon fill="midnightblue" stroke="midnightblue" points="196.448,-18.512 186.029,-20.4366 195.374,-25.4292 196.448,-18.512"/>
</g>
<!-- Node6 -->
<g id="node11" class="node"><title>Node6</title>
<polygon fill="none" stroke="#bfbfbf" points="203.5,-0.5 203.5,-21.5 304.5,-21.5 304.5,-0.5 203.5,-0.5"/>
<text text-anchor="middle" x="254" y="-8.5" font-family="Helvetica,sans-Serif" font-size="10.00">QtGui/QApplication</text>
</g>
<!-- Node3&#45;&gt;Node6 -->
<g id="edge10" class="edge"><title>Node3&#45;&gt;Node6</title>
<path fill="none" stroke="midnightblue" d="M672.237,-64.5683C597.913,-57.4346 449.871,-42.2762 314.917,-22.2195"/>
<polygon fill="midnightblue" stroke="midnightblue" points="315.219,-18.7258 304.811,-20.7046 314.182,-25.6485 315.219,-18.7258"/>
</g>
<!-- Node7 -->
<g id="node13" class="node"><title>Node7</title>
<polygon fill="none" stroke="#bfbfbf" points="321.5,-0.5 321.5,-21.5 428.5,-21.5 428.5,-0.5 321.5,-0.5"/>
<text text-anchor="middle" x="375" y="-8.5" font-family="Helvetica,sans-Serif" font-size="10.00">QtGui/QButtonGroup</text>
</g>
<!-- Node3&#45;&gt;Node7 -->
<g id="edge12" class="edge"><title>Node3&#45;&gt;Node7</title>
<path fill="none" stroke="midnightblue" d="M672.404,-61.2596C618.178,-52.4042 526.627,-37.3429 438.64,-22.2706"/>
<polygon fill="midnightblue" stroke="midnightblue" points="439.21,-18.8173 428.762,-20.5758 438.026,-25.7165 439.21,-18.8173"/>
</g>
<!-- Node8 -->
<g id="node15" class="node"><title>Node8</title>
<polygon fill="none" stroke="#bfbfbf" points="446,-0.5 446,-21.5 544,-21.5 544,-0.5 446,-0.5"/>
<text text-anchor="middle" x="495" y="-8.5" font-family="Helvetica,sans-Serif" font-size="10.00">QtGui/QCheckBox</text>
</g>
<!-- Node3&#45;&gt;Node8 -->
<g id="edge14" class="edge"><title>Node3&#45;&gt;Node8</title>
<path fill="none" stroke="midnightblue" d="M679.254,-58.4966C641.779,-48.8364 586.073,-34.4765 545.728,-24.0765"/>
<polygon fill="midnightblue" stroke="midnightblue" points="546.379,-20.6301 535.822,-21.5231 544.632,-27.4085 546.379,-20.6301"/>
</g>
<!-- Node9 -->
<g id="node17" class="node"><title>Node9</title>
<polygon fill="none" stroke="#bfbfbf" points="561.5,-0.5 561.5,-21.5 662.5,-21.5 662.5,-0.5 561.5,-0.5"/>
<text text-anchor="middle" x="612" y="-8.5" font-family="Helvetica,sans-Serif" font-size="10.00">QtGui/QComboBox</text>
</g>
<!-- Node3&#45;&gt;Node9 -->
<g id="edge16" class="edge"><title>Node3&#45;&gt;Node9</title>
<path fill="none" stroke="midnightblue" d="M700.442,-58.4966C683.802,-49.5602 659.673,-36.602 640.82,-26.4772"/>
<polygon fill="midnightblue" stroke="midnightblue" points="642.243,-23.2691 631.777,-21.6212 638.931,-29.436 642.243,-23.2691"/>
</g>
<!-- Node10 -->
<g id="node19" class="node"><title>Node10</title>
<polygon fill="none" stroke="#bfbfbf" points="680,-0.5 680,-21.5 760,-21.5 760,-0.5 680,-0.5"/>
<text text-anchor="middle" x="720" y="-8.5" font-family="Helvetica,sans-Serif" font-size="10.00">QtGui/QDialog</text>
</g>
<!-- Node3&#45;&gt;Node10 -->
<g id="edge18" class="edge"><title>Node3&#45;&gt;Node10</title>
<path fill="none" stroke="midnightblue" d="M720,-58.3619C720,-50.9219 720,-40.7427 720,-31.7276"/>
<polygon fill="midnightblue" stroke="midnightblue" points="723.5,-31.5706 720,-21.5707 716.5,-31.5707 723.5,-31.5706"/>
</g>
<!-- Node11 -->
<g id="node21" class="node"><title>Node11</title>
<polygon fill="none" stroke="#bfbfbf" points="778,-0.5 778,-21.5 904,-21.5 904,-0.5 778,-0.5"/>
<text text-anchor="middle" x="841" y="-8.5" font-family="Helvetica,sans-Serif" font-size="10.00">QtGui/QDialogButtonBox</text>
</g>
<!-- Node3&#45;&gt;Node11 -->
<g id="edge20" class="edge"><title>Node3&#45;&gt;Node11</title>
<path fill="none" stroke="midnightblue" d="M741.912,-58.4966C760.811,-49.4378 788.331,-36.2462 809.576,-26.0628"/>
<polygon fill="midnightblue" stroke="midnightblue" points="811.337,-29.0999 818.842,-21.6212 808.311,-22.7876 811.337,-29.0999"/>
</g>
<!-- Node12 -->
<g id="node23" class="node"><title>Node12</title>
<polygon fill="none" stroke="#bfbfbf" points="922,-0.5 922,-21.5 1022,-21.5 1022,-0.5 922,-0.5"/>
<text text-anchor="middle" x="972" y="-8.5" font-family="Helvetica,sans-Serif" font-size="10.00">QtGui/QGridLayout</text>
</g>
<!-- Node3&#45;&gt;Node12 -->
<g id="edge22" class="edge"><title>Node3&#45;&gt;Node12</title>
<path fill="none" stroke="midnightblue" d="M765.635,-58.4966C807.963,-48.7545 871.058,-34.2328 916.33,-23.813"/>
<polygon fill="midnightblue" stroke="midnightblue" points="917.319,-27.1769 926.279,-21.5231 915.749,-20.3553 917.319,-27.1769"/>
</g>
<!-- Node13 -->
<g id="node25" class="node"><title>Node13</title>
<polygon fill="none" stroke="#bfbfbf" points="1040,-0.5 1040,-21.5 1136,-21.5 1136,-0.5 1040,-0.5"/>
<text text-anchor="middle" x="1088" y="-8.5" font-family="Helvetica,sans-Serif" font-size="10.00">QtGui/QGroupBox</text>
</g>
<!-- Node3&#45;&gt;Node13 -->
<g id="edge24" class="edge"><title>Node3&#45;&gt;Node13</title>
<path fill="none" stroke="midnightblue" d="M767.516,-62.4314C826.633,-54.1232 930.904,-39.0248 1029.95,-22.1332"/>
<polygon fill="midnightblue" stroke="midnightblue" points="1030.56,-25.5797 1039.82,-20.44 1029.38,-18.6804 1030.56,-25.5797"/>
</g>
<!-- Node14 -->
<g id="node27" class="node"><title>Node14</title>
<polygon fill="none" stroke="#bfbfbf" points="1154,-0.5 1154,-21.5 1260,-21.5 1260,-0.5 1154,-0.5"/>
<text text-anchor="middle" x="1207" y="-8.5" font-family="Helvetica,sans-Serif" font-size="10.00">QtGui/QHeaderView</text>
</g>
<!-- Node3&#45;&gt;Node14 -->
<g id="edge26" class="edge"><title>Node3&#45;&gt;Node14</title>
<path fill="none" stroke="midnightblue" d="M767.613,-64.76C844.496,-57.6892 1000.96,-42.3729 1143.69,-22.1168"/>
<polygon fill="midnightblue" stroke="midnightblue" points="1144.53,-25.5312 1153.94,-20.6499 1143.54,-18.6018 1144.53,-25.5312"/>
</g>
<!-- Node15 -->
<g id="node29" class="node"><title>Node15</title>
<polygon fill="none" stroke="#bfbfbf" points="1278,-0.5 1278,-21.5 1354,-21.5 1354,-0.5 1278,-0.5"/>
<text text-anchor="middle" x="1316" y="-8.5" font-family="Helvetica,sans-Serif" font-size="10.00">QtGui/QLabel</text>
</g>
<!-- Node3&#45;&gt;Node15 -->
<g id="edge28" class="edge"><title>Node3&#45;&gt;Node15</title>
<path fill="none" stroke="midnightblue" d="M767.646,-67.2391C861.602,-63.2656 1077.47,-51.6553 1267.96,-21.9745"/>
<polygon fill="midnightblue" stroke="midnightblue" points="1268.54,-25.4262 1277.87,-20.4098 1267.45,-18.5119 1268.54,-25.4262"/>
</g>
<!-- Node16 -->
<g id="node31" class="node"><title>Node16</title>
<polygon fill="none" stroke="#bfbfbf" points="1371.5,-0.5 1371.5,-21.5 1474.5,-21.5 1474.5,-0.5 1371.5,-0.5"/>
<text text-anchor="middle" x="1423" y="-8.5" font-family="Helvetica,sans-Serif" font-size="10.00">QtGui/QSpacerItem</text>
</g>
<!-- Node3&#45;&gt;Node16 -->
<g id="edge30" class="edge"><title>Node3&#45;&gt;Node16</title>
<path fill="none" stroke="midnightblue" d="M767.769,-67.28C873.167,-63.1035 1133.72,-50.6855 1361.22,-22.1218"/>
<polygon fill="midnightblue" stroke="midnightblue" points="1361.87,-25.5683 1371.34,-20.8372 1360.98,-18.624 1361.87,-25.5683"/>
</g>
</g>
</svg>
