<?xml version="1.0" encoding="UTF-8" standalone="no"?>
<!DOCTYPE svg PUBLIC "-//W3C//DTD SVG 1.1//EN"
 "http://www.w3.org/Graphics/SVG/1.1/DTD/svg11.dtd">
<!-- Generated by graphviz version 2.26.3 (20100126.1600)
 -->
<!-- Title: G Pages: 1 -->
<svg width="594pt" height="552pt"
 viewBox="0.00 0.00 593.92 552.00" xmlns="http://www.w3.org/2000/svg" xmlns:xlink="http://www.w3.org/1999/xlink">
<g id="graph1" class="graph" transform="scale(1 1) rotate(0) translate(4 548)">
<title>G</title>
<!-- Node1 -->
<g id="node1" class="node"><title>Node1</title>
<polygon fill="#bfbfbf" stroke="black" points="292,-522.5 292,-543.5 384,-543.5 384,-522.5 292,-522.5"/>
<text text-anchor="middle" x="338" y="-530.5" font-family="Helvetica,sans-Serif" font-size="10.00">custom_item.hpp</text>
</g>
<!-- Node2 -->
<g id="node3" class="node"><title>Node2</title>
<a xlink:href="node_8hpp.html" target="_top" xlink:title="node.hpp">
<polygon fill="none" stroke="black" points="358,-406.5 358,-427.5 414,-427.5 414,-406.5 358,-406.5"/>
<text text-anchor="middle" x="386" y="-414.5" font-family="Helvetica,sans-Serif" font-size="10.00">node.hpp</text>
</a>
</g>
<!-- Node1&#45;&gt;Node2 -->
<g id="edge2" class="edge"><title>Node1&#45;&gt;Node2</title>
<path fill="none" stroke="midnightblue" d="M346.363,-512.79C356.609,-488.029 373.588,-446.996 381.581,-427.679"/>
<polygon fill="midnightblue" stroke="midnightblue" points="343.019,-511.716 342.43,-522.295 349.487,-514.393 343.019,-511.716"/>
</g>
<!-- Node24 -->
<g id="node54" class="node"><title>Node24</title>
<a xlink:href="edge_8hpp.html" target="_top" xlink:title="edge.hpp">
<polygon fill="none" stroke="black" points="273,-464.5 273,-485.5 329,-485.5 329,-464.5 273,-464.5"/>
<text text-anchor="middle" x="301" y="-472.5" font-family="Helvetica,sans-Serif" font-size="10.00">edge.hpp</text>
</a>
</g>
<!-- Node1&#45;&gt;Node24 -->
<g id="edge60" class="edge"><title>Node1&#45;&gt;Node24</title>
<path fill="none" stroke="midnightblue" d="M325.667,-513.667C319.688,-504.295 312.739,-493.402 307.743,-485.571"/>
<polygon fill="midnightblue" stroke="midnightblue" points="322.885,-515.814 331.214,-522.362 328.786,-512.049 322.885,-515.814"/>
</g>
<!-- Node3 -->
<g id="node5" class="node"><title>Node3</title>
<a xlink:href="knotview_8hpp.html" target="_top" xlink:title="knotview.hpp">
<polygon fill="none" stroke="black" points="234,-232.5 234,-253.5 308,-253.5 308,-232.5 234,-232.5"/>
<text text-anchor="middle" x="271" y="-240.5" font-family="Helvetica,sans-Serif" font-size="10.00">knotview.hpp</text>
</a>
</g>
<!-- Node2&#45;&gt;Node3 -->
<g id="edge4" class="edge"><title>Node2&#45;&gt;Node3</title>
<path fill="none" stroke="midnightblue" d="M424.348,-412.638C472.639,-406.265 551.441,-392.638 569,-370 590.791,-341.905 592.1,-317.029 569,-290 552.22,-270.366 384.381,-253.085 308.229,-246.188"/>
<polygon fill="midnightblue" stroke="midnightblue" points="423.725,-409.19 414.247,-413.925 424.609,-416.133 423.725,-409.19"/>
</g>
<!-- Node18 -->
<g id="node39" class="node"><title>Node18</title>
<a xlink:href="knotgraph_8hpp.html" target="_top" xlink:title="knotgraph.hpp">
<polygon fill="none" stroke="black" points="138,-290.5 138,-311.5 216,-311.5 216,-290.5 138,-290.5"/>
<text text-anchor="middle" x="177" y="-298.5" font-family="Helvetica,sans-Serif" font-size="10.00">knotgraph.hpp</text>
</a>
</g>
<!-- Node2&#45;&gt;Node18 -->
<g id="edge42" class="edge"><title>Node2&#45;&gt;Node18</title>
<path fill="none" stroke="midnightblue" d="M399.012,-397.474C407.237,-382.456 414.368,-361.975 403,-348 379.861,-319.554 274.317,-307.76 216.006,-303.346"/>
<polygon fill="midnightblue" stroke="midnightblue" points="395.781,-396.057 393.632,-406.431 401.781,-399.661 395.781,-396.057"/>
</g>
<!-- Node20 -->
<g id="node45" class="node"><title>Node20</title>
<a xlink:href="knot__curve__style_8hpp.html" target="_top" xlink:title="knot_curve_style.hpp">
<polygon fill="none" stroke="black" points="450,-348.5 450,-369.5 560,-369.5 560,-348.5 450,-348.5"/>
<text text-anchor="middle" x="505" y="-356.5" font-family="Helvetica,sans-Serif" font-size="10.00">knot_curve_style.hpp</text>
</a>
</g>
<!-- Node2&#45;&gt;Node20 -->
<g id="edge50" class="edge"><title>Node2&#45;&gt;Node20</title>
<path fill="none" stroke="midnightblue" d="M416.634,-402.069C437.474,-391.912 464.549,-378.716 483.208,-369.621"/>
<polygon fill="midnightblue" stroke="midnightblue" points="415.006,-398.969 407.55,-406.497 418.073,-405.262 415.006,-398.969"/>
</g>
<!-- Node22 -->
<g id="node50" class="node"><title>Node22</title>
<a xlink:href="edge_8cpp.html" target="_top" xlink:title="edge.cpp">
<polygon fill="none" stroke="black" points="264,-348.5 264,-369.5 320,-369.5 320,-348.5 264,-348.5"/>
<text text-anchor="middle" x="292" y="-356.5" font-family="Helvetica,sans-Serif" font-size="10.00">edge.cpp</text>
</a>
</g>
<!-- Node2&#45;&gt;Node22 -->
<g id="edge56" class="edge"><title>Node2&#45;&gt;Node22</title>
<path fill="none" stroke="midnightblue" d="M360.233,-401.101C343.969,-391.066 323.41,-378.381 309.132,-369.571"/>
<polygon fill="midnightblue" stroke="midnightblue" points="358.411,-404.089 368.759,-406.362 362.086,-398.132 358.411,-404.089"/>
</g>
<!-- Node23 -->
<g id="node52" class="node"><title>Node23</title>
<a xlink:href="node_8cpp.html" target="_top" xlink:title="node.cpp">
<polygon fill="none" stroke="black" points="338,-348.5 338,-369.5 394,-369.5 394,-348.5 338,-348.5"/>
<text text-anchor="middle" x="366" y="-356.5" font-family="Helvetica,sans-Serif" font-size="10.00">node.cpp</text>
</a>
</g>
<!-- Node2&#45;&gt;Node23 -->
<g id="edge58" class="edge"><title>Node2&#45;&gt;Node23</title>
<path fill="none" stroke="midnightblue" d="M379.029,-396.784C375.868,-387.617 372.261,-377.157 369.645,-369.571"/>
<polygon fill="midnightblue" stroke="midnightblue" points="375.763,-398.049 382.332,-406.362 382.381,-395.767 375.763,-398.049"/>
</g>
<!-- Node4 -->
<g id="node7" class="node"><title>Node4</title>
<a xlink:href="clipboard_8hpp.html" target="_top" xlink:title="clipboard.hpp">
<polygon fill="none" stroke="black" points="398,-174.5 398,-195.5 472,-195.5 472,-174.5 398,-174.5"/>
<text text-anchor="middle" x="435" y="-182.5" font-family="Helvetica,sans-Serif" font-size="10.00">clipboard.hpp</text>
</a>
</g>
<!-- Node3&#45;&gt;Node4 -->
<g id="edge6" class="edge"><title>Node3&#45;&gt;Node4</title>
<path fill="none" stroke="midnightblue" d="M310.178,-229.144C339.363,-218.823 378.607,-204.944 405.245,-195.523"/>
<polygon fill="midnightblue" stroke="midnightblue" points="308.96,-225.863 300.699,-232.497 311.294,-232.462 308.96,-225.863"/>
</g>
<!-- Node10 -->
<g id="node19" class="node"><title>Node10</title>
<a xlink:href="commands_8hpp.html" target="_top" xlink:title="commands.hpp">
<polygon fill="none" stroke="black" points="-0.5,-174.5 -0.5,-195.5 82.5,-195.5 82.5,-174.5 -0.5,-174.5"/>
<text text-anchor="middle" x="41" y="-182.5" font-family="Helvetica,sans-Serif" font-size="10.00">commands.hpp</text>
</a>
</g>
<!-- Node3&#45;&gt;Node10 -->
<g id="edge18" class="edge"><title>Node3&#45;&gt;Node10</title>
<path fill="none" stroke="midnightblue" d="M223.931,-231.13C182.469,-220.675 122.644,-205.589 82.831,-195.549"/>
<polygon fill="midnightblue" stroke="midnightblue" points="223.239,-234.565 233.791,-233.617 224.95,-227.778 223.239,-234.565"/>
</g>
<!-- Node11 -->
<g id="node22" class="node"><title>Node11</title>
<a xlink:href="knotview_8cpp.html" target="_top" xlink:title="knotview.cpp">
<polygon fill="none" stroke="black" points="73,-116.5 73,-137.5 147,-137.5 147,-116.5 73,-116.5"/>
<text text-anchor="middle" x="110" y="-124.5" font-family="Helvetica,sans-Serif" font-size="10.00">knotview.cpp</text>
</a>
</g>
<!-- Node3&#45;&gt;Node11 -->
<g id="edge38" class="edge"><title>Node3&#45;&gt;Node11</title>
<path fill="none" stroke="midnightblue" d="M268.006,-222.337C264.779,-207.103 258.202,-186.872 245,-174 218.524,-148.186 177.135,-136.499 147.162,-131.24"/>
<polygon fill="midnightblue" stroke="midnightblue" points="264.596,-223.147 269.811,-232.37 271.485,-221.908 264.596,-223.147"/>
</g>
<!-- Node12 -->
<g id="node24" class="node"><title>Node12</title>
<a xlink:href="ui__knot__window_8h.html" target="_top" xlink:title="ui_knot_window.h">
<polygon fill="none" stroke="black" points="462.5,-116.5 462.5,-137.5 557.5,-137.5 557.5,-116.5 462.5,-116.5"/>
<text text-anchor="middle" x="510" y="-124.5" font-family="Helvetica,sans-Serif" font-size="10.00">ui_knot_window.h</text>
</a>
</g>
<!-- Node3&#45;&gt;Node12 -->
<g id="edge24" class="edge"><title>Node3&#45;&gt;Node12</title>
<path fill="none" stroke="midnightblue" d="M318.338,-237.495C372.455,-230.344 456.703,-216.323 481,-196 498.941,-180.994 505.99,-152.978 508.594,-137.665"/>
<polygon fill="midnightblue" stroke="midnightblue" points="317.745,-234.042 308.274,-238.792 318.64,-240.985 317.745,-234.042"/>
</g>
<!-- Node13 -->
<g id="node27" class="node"><title>Node13</title>
<a xlink:href="ui__style__dialog_8h.html" target="_top" xlink:title="ui_style_dialog.h">
<polygon fill="none" stroke="black" points="291.5,-174.5 291.5,-195.5 380.5,-195.5 380.5,-174.5 291.5,-174.5"/>
<text text-anchor="middle" x="336" y="-182.5" font-family="Helvetica,sans-Serif" font-size="10.00">ui_style_dialog.h</text>
</a>
</g>
<!-- Node3&#45;&gt;Node13 -->
<g id="edge28" class="edge"><title>Node3&#45;&gt;Node13</title>
<path fill="none" stroke="midnightblue" d="M290.398,-225.691C301.371,-215.9 314.737,-203.973 324.154,-195.571"/>
<polygon fill="midnightblue" stroke="midnightblue" points="288.053,-223.092 282.922,-232.362 292.714,-228.315 288.053,-223.092"/>
</g>
<!-- Node17 -->
<g id="node37" class="node"><title>Node17</title>
<a xlink:href="moc__knotview_8cpp.html" target="_top" xlink:title="moc_knotview.cpp">
<polygon fill="none" stroke="black" points="138,-174.5 138,-195.5 236,-195.5 236,-174.5 138,-174.5"/>
<text text-anchor="middle" x="187" y="-182.5" font-family="Helvetica,sans-Serif" font-size="10.00">moc_knotview.cpp</text>
</a>
</g>
<!-- Node3&#45;&gt;Node17 -->
<g id="edge40" class="edge"><title>Node3&#45;&gt;Node17</title>
<path fill="none" stroke="midnightblue" d="M247.162,-226.541C232.762,-216.597 214.833,-204.218 202.309,-195.571"/>
<polygon fill="midnightblue" stroke="midnightblue" points="245.375,-229.56 255.593,-232.362 249.353,-223.8 245.375,-229.56"/>
</g>
<!-- Node5 -->
<g id="node9" class="node"><title>Node5</title>
<a xlink:href="clipboard_8cpp.html" target="_top" xlink:title="clipboard.cpp">
<polygon fill="none" stroke="black" points="333,-116.5 333,-137.5 407,-137.5 407,-116.5 333,-116.5"/>
<text text-anchor="middle" x="370" y="-124.5" font-family="Helvetica,sans-Serif" font-size="10.00">clipboard.cpp</text>
</a>
</g>
<!-- Node4&#45;&gt;Node5 -->
<g id="edge8" class="edge"><title>Node4&#45;&gt;Node5</title>
<path fill="none" stroke="midnightblue" d="M415.602,-167.691C404.629,-157.9 391.263,-145.973 381.846,-137.571"/>
<polygon fill="midnightblue" stroke="midnightblue" points="413.286,-170.315 423.078,-174.362 417.947,-165.092 413.286,-170.315"/>
</g>
<!-- Node6 -->
<g id="node11" class="node"><title>Node6</title>
<a xlink:href="knot__window_8hpp.html" target="_top" xlink:title="knot_window.hpp">
<polygon fill="none" stroke="black" points="375,-58.5 375,-79.5 467,-79.5 467,-58.5 375,-58.5"/>
<text text-anchor="middle" x="421" y="-66.5" font-family="Helvetica,sans-Serif" font-size="10.00">knot_window.hpp</text>
</a>
</g>
<!-- Node4&#45;&gt;Node6 -->
<g id="edge10" class="edge"><title>Node4&#45;&gt;Node6</title>
<path fill="none" stroke="midnightblue" d="M432.48,-164.123C429.484,-139.298 424.599,-98.8235 422.289,-79.6792"/>
<polygon fill="midnightblue" stroke="midnightblue" points="429.035,-164.786 433.708,-174.295 435.985,-163.948 429.035,-164.786"/>
</g>
<!-- Node7 -->
<g id="node13" class="node"><title>Node7</title>
<a xlink:href="knot__window_8cpp.html" target="_top" xlink:title="knot_window.cpp">
<polygon fill="none" stroke="black" points="126,-0.5 126,-21.5 218,-21.5 218,-0.5 126,-0.5"/>
<text text-anchor="middle" x="172" y="-8.5" font-family="Helvetica,sans-Serif" font-size="10.00">knot_window.cpp</text>
</a>
</g>
<!-- Node6&#45;&gt;Node7 -->
<g id="edge12" class="edge"><title>Node6&#45;&gt;Node7</title>
<path fill="none" stroke="midnightblue" d="M366.083,-56.2081C321.373,-45.7938 259.028,-31.2716 217.177,-21.5231"/>
<polygon fill="midnightblue" stroke="midnightblue" points="365.375,-59.6367 375.908,-58.4966 366.963,-52.8192 365.375,-59.6367"/>
</g>
<!-- Node8 -->
<g id="node15" class="node"><title>Node8</title>
<a xlink:href="main_8cpp.html" target="_top" xlink:title="main.cpp">
<polygon fill="none" stroke="black" points="445,-0.5 445,-21.5 501,-21.5 501,-0.5 445,-0.5"/>
<text text-anchor="middle" x="473" y="-8.5" font-family="Helvetica,sans-Serif" font-size="10.00">main.cpp</text>
</a>
</g>
<!-- Node6&#45;&gt;Node8 -->
<g id="edge14" class="edge"><title>Node6&#45;&gt;Node8</title>
<path fill="none" stroke="midnightblue" d="M437.29,-50.8299C445.917,-41.2078 456.209,-29.7282 463.523,-21.5707"/>
<polygon fill="midnightblue" stroke="midnightblue" points="434.607,-48.5798 430.538,-58.3619 439.819,-53.2526 434.607,-48.5798"/>
</g>
<!-- Node9 -->
<g id="node17" class="node"><title>Node9</title>
<a xlink:href="moc__knot__window_8cpp.html" target="_top" xlink:title="moc_knot_window.cpp">
<polygon fill="none" stroke="black" points="311,-0.5 311,-21.5 427,-21.5 427,-0.5 311,-0.5"/>
<text text-anchor="middle" x="369" y="-8.5" font-family="Helvetica,sans-Serif" font-size="10.00">moc_knot_window.cpp</text>
</a>
</g>
<!-- Node6&#45;&gt;Node9 -->
<g id="edge16" class="edge"><title>Node6&#45;&gt;Node9</title>
<path fill="none" stroke="midnightblue" d="M404.71,-50.8299C396.083,-41.2078 385.791,-29.7282 378.477,-21.5707"/>
<polygon fill="midnightblue" stroke="midnightblue" points="402.181,-53.2526 411.462,-58.3619 407.393,-48.5798 402.181,-53.2526"/>
</g>
<!-- Node10&#45;&gt;Node7 -->
<g id="edge20" class="edge"><title>Node10&#45;&gt;Node7</title>
<path fill="none" stroke="midnightblue" d="M45.3479,-164.237C48.9345,-149.969 54.9263,-130.974 64,-116 88.8014,-75.0722 133.333,-39.0032 156.713,-21.7606"/>
<polygon fill="midnightblue" stroke="midnightblue" points="41.9147,-163.548 43.0629,-174.081 48.7334,-165.131 41.9147,-163.548"/>
</g>
<!-- Node10&#45;&gt;Node11 -->
<g id="edge22" class="edge"><title>Node10&#45;&gt;Node11</title>
<path fill="none" stroke="midnightblue" d="M61.592,-167.691C73.2401,-157.9 87.4287,-145.973 97.4246,-137.571"/>
<polygon fill="midnightblue" stroke="midnightblue" points="59.0585,-165.248 53.6557,-174.362 63.5626,-170.607 59.0585,-165.248"/>
</g>
<!-- Node12&#45;&gt;Node6 -->
<g id="edge26" class="edge"><title>Node12&#45;&gt;Node6</title>
<path fill="none" stroke="midnightblue" d="M485.174,-110.821C469.844,-100.831 450.614,-88.2993 437.22,-79.5707"/>
<polygon fill="midnightblue" stroke="midnightblue" points="483.387,-113.834 493.676,-116.362 487.209,-107.97 483.387,-113.834"/>
</g>
<!-- Node14 -->
<g id="node29" class="node"><title>Node14</title>
<a xlink:href="style__dialog_8hpp.html" target="_top" xlink:title="style_dialog.hpp">
<polygon fill="none" stroke="black" points="228.5,-116.5 228.5,-137.5 315.5,-137.5 315.5,-116.5 228.5,-116.5"/>
<text text-anchor="middle" x="272" y="-124.5" font-family="Helvetica,sans-Serif" font-size="10.00">style_dialog.hpp</text>
</a>
</g>
<!-- Node13&#45;&gt;Node14 -->
<g id="edge30" class="edge"><title>Node13&#45;&gt;Node14</title>
<path fill="none" stroke="midnightblue" d="M316.585,-167.405C305.841,-157.668 292.846,-145.891 283.664,-137.571"/>
<polygon fill="midnightblue" stroke="midnightblue" points="314.501,-170.24 324.261,-174.362 319.202,-165.053 314.501,-170.24"/>
</g>
<!-- Node14&#45;&gt;Node6 -->
<g id="edge32" class="edge"><title>Node14&#45;&gt;Node6</title>
<path fill="none" stroke="midnightblue" d="M308.637,-112.739C335.038,-102.462 370.08,-88.821 393.967,-79.5231"/>
<polygon fill="midnightblue" stroke="midnightblue" points="307.032,-109.607 298.983,-116.497 309.571,-116.131 307.032,-109.607"/>
</g>
<!-- Node15 -->
<g id="node32" class="node"><title>Node15</title>
<a xlink:href="moc__style__dialog_8cpp.html" target="_top" xlink:title="moc_style_dialog.cpp">
<polygon fill="none" stroke="black" points="128.5,-58.5 128.5,-79.5 239.5,-79.5 239.5,-58.5 128.5,-58.5"/>
<text text-anchor="middle" x="184" y="-66.5" font-family="Helvetica,sans-Serif" font-size="10.00">moc_style_dialog.cpp</text>
</a>
</g>
<!-- Node14&#45;&gt;Node15 -->
<g id="edge34" class="edge"><title>Node14&#45;&gt;Node15</title>
<path fill="none" stroke="midnightblue" d="M247.453,-110.821C232.296,-100.831 213.282,-88.2993 200.038,-79.5707"/>
<polygon fill="midnightblue" stroke="midnightblue" points="245.584,-113.781 255.859,-116.362 249.436,-107.936 245.584,-113.781"/>
</g>
<!-- Node16 -->
<g id="node34" class="node"><title>Node16</title>
<a xlink:href="style__dialog_8cpp.html" target="_top" xlink:title="style_dialog.cpp">
<polygon fill="none" stroke="black" points="256.5,-58.5 256.5,-79.5 343.5,-79.5 343.5,-58.5 256.5,-58.5"/>
<text text-anchor="middle" x="300" y="-66.5" font-family="Helvetica,sans-Serif" font-size="10.00">style_dialog.cpp</text>
</a>
</g>
<!-- Node14&#45;&gt;Node16 -->
<g id="edge36" class="edge"><title>Node14&#45;&gt;Node16</title>
<path fill="none" stroke="midnightblue" d="M281.617,-107.079C286.076,-97.8422 291.195,-87.2388 294.897,-79.5707"/>
<polygon fill="midnightblue" stroke="midnightblue" points="278.331,-105.835 277.136,-116.362 284.635,-108.878 278.331,-105.835"/>
</g>
<!-- Node18&#45;&gt;Node3 -->
<g id="edge44" class="edge"><title>Node18&#45;&gt;Node3</title>
<path fill="none" stroke="midnightblue" d="M202.767,-285.101C219.031,-275.066 239.59,-262.381 253.868,-253.571"/>
<polygon fill="midnightblue" stroke="midnightblue" points="200.914,-282.132 194.241,-290.362 204.589,-288.089 200.914,-282.132"/>
</g>
<!-- Node18&#45;&gt;Node11 -->
<g id="edge48" class="edge"><title>Node18&#45;&gt;Node11</title>
<path fill="none" stroke="midnightblue" d="M154.008,-284.024C144.761,-275.967 134.908,-265.568 129,-254 108.922,-214.689 108.536,-160.215 109.392,-137.549"/>
<polygon fill="midnightblue" stroke="midnightblue" points="151.913,-286.832 161.863,-290.472 156.354,-281.422 151.913,-286.832"/>
</g>
<!-- Node19 -->
<g id="node42" class="node"><title>Node19</title>
<a xlink:href="knotgraph_8cpp.html" target="_top" xlink:title="knotgraph.cpp">
<polygon fill="none" stroke="black" points="138,-232.5 138,-253.5 216,-253.5 216,-232.5 138,-232.5"/>
<text text-anchor="middle" x="177" y="-240.5" font-family="Helvetica,sans-Serif" font-size="10.00">knotgraph.cpp</text>
</a>
</g>
<!-- Node18&#45;&gt;Node19 -->
<g id="edge46" class="edge"><title>Node18&#45;&gt;Node19</title>
<path fill="none" stroke="midnightblue" d="M177,-280.191C177,-271.168 177,-260.994 177,-253.571"/>
<polygon fill="midnightblue" stroke="midnightblue" points="173.5,-280.362 177,-290.362 180.5,-280.362 173.5,-280.362"/>
</g>
<!-- Node20&#45;&gt;Node18 -->
<g id="edge52" class="edge"><title>Node20&#45;&gt;Node18</title>
<path fill="none" stroke="midnightblue" d="M439.725,-347.457C372.896,-335.64 271.232,-317.663 216.011,-307.898"/>
<polygon fill="midnightblue" stroke="midnightblue" points="439.273,-350.932 449.73,-349.227 440.492,-344.039 439.273,-350.932"/>
</g>
<!-- Node21 -->
<g id="node48" class="node"><title>Node21</title>
<a xlink:href="knot__curve__style_8cpp.html" target="_top" xlink:title="knot_curve_style.cpp">
<polygon fill="none" stroke="black" points="450,-290.5 450,-311.5 560,-311.5 560,-290.5 450,-290.5"/>
<text text-anchor="middle" x="505" y="-298.5" font-family="Helvetica,sans-Serif" font-size="10.00">knot_curve_style.cpp</text>
</a>
</g>
<!-- Node20&#45;&gt;Node21 -->
<g id="edge54" class="edge"><title>Node20&#45;&gt;Node21</title>
<path fill="none" stroke="midnightblue" d="M505,-338.191C505,-329.168 505,-318.994 505,-311.571"/>
<polygon fill="midnightblue" stroke="midnightblue" points="501.5,-338.362 505,-348.362 508.5,-338.362 501.5,-338.362"/>
</g>
<!-- Node24&#45;&gt;Node2 -->
<g id="edge62" class="edge"><title>Node24&#45;&gt;Node2</title>
<path fill="none" stroke="midnightblue" d="M325.121,-458.541C339.694,-448.597 357.836,-436.218 370.509,-427.571"/>
<polygon fill="midnightblue" stroke="midnightblue" points="322.878,-455.834 316.59,-464.362 326.823,-461.617 322.878,-455.834"/>
</g>
<!-- Node24&#45;&gt;Node3 -->
<g id="edge64" class="edge"><title>Node24&#45;&gt;Node3</title>
<path fill="none" stroke="midnightblue" d="M289.53,-455.524C278.184,-435.04 261.591,-401.471 255,-370 246.071,-327.368 260.194,-275.571 267.304,-253.633"/>
<polygon fill="midnightblue" stroke="midnightblue" points="286.626,-457.498 294.611,-464.462 292.712,-454.039 286.626,-457.498"/>
</g>
<!-- Node24&#45;&gt;Node18 -->
<g id="edge66" class="edge"><title>Node24&#45;&gt;Node18</title>
<path fill="none" stroke="midnightblue" d="M264.482,-460.018C249.575,-452.341 233.236,-441.689 222,-428 192.466,-392.019 181.656,-335.236 178.307,-311.733"/>
<polygon fill="midnightblue" stroke="midnightblue" points="262.996,-463.187 273.52,-464.413 266.058,-456.892 262.996,-463.187"/>
</g>
<!-- Node24&#45;&gt;Node22 -->
<g id="edge68" class="edge"><title>Node24&#45;&gt;Node22</title>
<path fill="none" stroke="midnightblue" d="M299.38,-454.123C297.454,-429.298 294.314,-388.824 292.829,-369.679"/>
<polygon fill="midnightblue" stroke="midnightblue" points="295.906,-454.596 300.169,-464.295 302.885,-454.054 295.906,-454.596"/>
</g>
<!-- Node24&#45;&gt;Node23 -->
<g id="edge70" class="edge"><title>Node24&#45;&gt;Node23</title>
<path fill="none" stroke="midnightblue" d="M311.955,-455.45C325.787,-430.764 349.095,-389.168 360.016,-369.679"/>
<polygon fill="midnightblue" stroke="midnightblue" points="308.834,-453.86 306.999,-464.295 314.94,-457.282 308.834,-453.86"/>
</g>
</g>
</svg>
