<?xml version="1.0" encoding="UTF-8" standalone="no"?>
<!DOCTYPE svg PUBLIC "-//W3C//DTD SVG 1.1//EN"
 "http://www.w3.org/Graphics/SVG/1.1/DTD/svg11.dtd">
<!-- Generated by graphviz version 2.26.3 (20100126.1600)
 -->
<!-- Title: G Pages: 1 -->
<svg width="148pt" height="262pt"
 viewBox="0.00 0.00 147.95 262.00" xmlns="http://www.w3.org/2000/svg" xmlns:xlink="http://www.w3.org/1999/xlink">
<g id="graph1" class="graph" transform="scale(1 1) rotate(0) translate(4 258)">
<title>G</title>
<!-- Node1 -->
<g id="node1" class="node"><title>Node1</title>
<polygon fill="#bfbfbf" stroke="black" points="10.9501,-232.5 10.9501,-253.5 66.9501,-253.5 66.9501,-232.5 10.9501,-232.5"/>
<text text-anchor="middle" x="38.9501" y="-240.5" font-family="Helvetica,sans-Serif" font-size="10.00">edge.cpp</text>
</g>
<!-- Node2 -->
<g id="node3" class="node"><title>Node2</title>
<a xlink:href="edge_8hpp.html" target="_top" xlink:title="edge.hpp">
<polygon fill="none" stroke="black" points="27.9501,-116.5 27.9501,-137.5 83.9501,-137.5 83.9501,-116.5 27.9501,-116.5"/>
<text text-anchor="middle" x="55.9501" y="-124.5" font-family="Helvetica,sans-Serif" font-size="10.00">edge.hpp</text>
</a>
</g>
<!-- Node1&#45;&gt;Node2 -->
<g id="edge2" class="edge"><title>Node1&#45;&gt;Node2</title>
<path fill="none" stroke="midnightblue" d="M26.7867,-232.434C12.9452,-219.057 -6.58269,-195.195 2.95011,-174 8.46766,-161.733 18.9451,-151.368 29.137,-143.52"/>
<polygon fill="midnightblue" stroke="midnightblue" points="31.4145,-146.194 37.516,-137.533 27.3448,-140.499 31.4145,-146.194"/>
</g>
<!-- Node5 -->
<g id="node9" class="node"><title>Node5</title>
<polygon fill="none" stroke="#bfbfbf" points="11.4501,-174.5 11.4501,-195.5 66.4501,-195.5 66.4501,-174.5 11.4501,-174.5"/>
<text text-anchor="middle" x="38.9501" y="-182.5" font-family="Helvetica,sans-Serif" font-size="10.00">QPainter</text>
</g>
<!-- Node1&#45;&gt;Node5 -->
<g id="edge8" class="edge"><title>Node1&#45;&gt;Node5</title>
<path fill="none" stroke="midnightblue" d="M38.9501,-232.362C38.9501,-224.922 38.9501,-214.743 38.9501,-205.728"/>
<polygon fill="midnightblue" stroke="midnightblue" points="42.4502,-205.571 38.9501,-195.571 35.4502,-205.571 42.4502,-205.571"/>
</g>
<!-- Node6 -->
<g id="node11" class="node"><title>Node6</title>
<a xlink:href="node_8hpp.html" target="_top" xlink:title="node.hpp">
<polygon fill="none" stroke="black" points="83.9501,-174.5 83.9501,-195.5 139.95,-195.5 139.95,-174.5 83.9501,-174.5"/>
<text text-anchor="middle" x="111.95" y="-182.5" font-family="Helvetica,sans-Serif" font-size="10.00">node.hpp</text>
</a>
</g>
<!-- Node1&#45;&gt;Node6 -->
<g id="edge10" class="edge"><title>Node1&#45;&gt;Node6</title>
<path fill="none" stroke="midnightblue" d="M52.3394,-232.362C63.0413,-223.859 78.2461,-211.779 90.6208,-201.947"/>
<polygon fill="midnightblue" stroke="midnightblue" points="92.9934,-204.532 98.6457,-195.571 88.6388,-199.051 92.9934,-204.532"/>
</g>
<!-- Node3 -->
<g id="node5" class="node"><title>Node3</title>
<a xlink:href="custom__item_8hpp.html" target="_top" xlink:title="custom_item.hpp">
<polygon fill="none" stroke="black" points="37.9501,-58.5 37.9501,-79.5 129.95,-79.5 129.95,-58.5 37.9501,-58.5"/>
<text text-anchor="middle" x="83.9501" y="-66.5" font-family="Helvetica,sans-Serif" font-size="10.00">custom_item.hpp</text>
</a>
</g>
<!-- Node2&#45;&gt;Node3 -->
<g id="edge4" class="edge"><title>Node2&#45;&gt;Node3</title>
<path fill="none" stroke="midnightblue" d="M61.0857,-116.362C64.7959,-108.677 69.917,-98.0686 74.3722,-88.8399"/>
<polygon fill="midnightblue" stroke="midnightblue" points="77.6514,-90.0978 78.847,-79.5707 71.3476,-87.0545 77.6514,-90.0978"/>
</g>
<!-- Node4 -->
<g id="node7" class="node"><title>Node4</title>
<polygon fill="none" stroke="#bfbfbf" points="42.4501,-0.5 42.4501,-21.5 125.45,-21.5 125.45,-0.5 42.4501,-0.5"/>
<text text-anchor="middle" x="83.9501" y="-8.5" font-family="Helvetica,sans-Serif" font-size="10.00">QGraphicsItem</text>
</g>
<!-- Node3&#45;&gt;Node4 -->
<g id="edge6" class="edge"><title>Node3&#45;&gt;Node4</title>
<path fill="none" stroke="midnightblue" d="M83.9501,-58.3619C83.9501,-50.9219 83.9501,-40.7427 83.9501,-31.7276"/>
<polygon fill="midnightblue" stroke="midnightblue" points="87.4502,-31.5706 83.9501,-21.5707 80.4502,-31.5707 87.4502,-31.5706"/>
</g>
<!-- Node6&#45;&gt;Node2 -->
<g id="edge14" class="edge"><title>Node6&#45;&gt;Node2</title>
<path fill="none" stroke="midnightblue" d="M101.679,-174.362C93.706,-166.104 82.4753,-154.472 73.1391,-144.803"/>
<polygon fill="midnightblue" stroke="midnightblue" points="75.6201,-142.334 66.1563,-137.571 70.5843,-147.196 75.6201,-142.334"/>
</g>
<!-- Node6&#45;&gt;Node3 -->
<g id="edge12" class="edge"><title>Node6&#45;&gt;Node3</title>
<path fill="none" stroke="midnightblue" d="M109.366,-174.295C104.72,-155.045 94.8819,-114.289 88.9006,-89.5091"/>
<polygon fill="midnightblue" stroke="midnightblue" points="92.2766,-88.5788 86.5278,-79.6792 85.472,-90.2213 92.2766,-88.5788"/>
</g>
</g>
</svg>
