<?xml version="1.0" encoding="UTF-8" standalone="no"?>
<!DOCTYPE svg PUBLIC "-//W3C//DTD SVG 1.1//EN"
 "http://www.w3.org/Graphics/SVG/1.1/DTD/svg11.dtd">
<!-- Generated by graphviz version 2.26.3 (20100126.1600)
 -->
<!-- Title: G Pages: 1 -->
<svg width="534pt" height="494pt"
 viewBox="0.00 0.00 534.30 494.00" xmlns="http://www.w3.org/2000/svg" xmlns:xlink="http://www.w3.org/1999/xlink">
<g id="graph1" class="graph" transform="scale(1 1) rotate(0) translate(4 490)">
<title>G</title>
<!-- Node1 -->
<g id="node1" class="node"><title>Node1</title>
<polygon fill="#bfbfbf" stroke="black" points="151.3,-464.5 151.3,-485.5 207.3,-485.5 207.3,-464.5 151.3,-464.5"/>
<text text-anchor="middle" x="179.3" y="-472.5" font-family="Helvetica,sans-Serif" font-size="10.00">edge.hpp</text>
</g>
<!-- Node2 -->
<g id="node3" class="node"><title>Node2</title>
<a xlink:href="node_8hpp.html" target="_top" xlink:title="node.hpp">
<polygon fill="none" stroke="black" points="151.3,-406.5 151.3,-427.5 207.3,-427.5 207.3,-406.5 151.3,-406.5"/>
<text text-anchor="middle" x="179.3" y="-414.5" font-family="Helvetica,sans-Serif" font-size="10.00">node.hpp</text>
</a>
</g>
<!-- Node1&#45;&gt;Node2 -->
<g id="edge2" class="edge"><title>Node1&#45;&gt;Node2</title>
<path fill="none" stroke="midnightblue" d="M179.3,-454.191C179.3,-445.168 179.3,-434.994 179.3,-427.571"/>
<polygon fill="midnightblue" stroke="midnightblue" points="175.8,-454.362 179.3,-464.362 182.8,-454.362 175.8,-454.362"/>
</g>
<!-- Node3 -->
<g id="node5" class="node"><title>Node3</title>
<a xlink:href="knotview_8hpp.html" target="_top" xlink:title="knotview.hpp">
<polygon fill="none" stroke="black" points="225.3,-232.5 225.3,-253.5 299.3,-253.5 299.3,-232.5 225.3,-232.5"/>
<text text-anchor="middle" x="262.3" y="-240.5" font-family="Helvetica,sans-Serif" font-size="10.00">knotview.hpp</text>
</a>
</g>
<!-- Node1&#45;&gt;Node3 -->
<g id="edge60" class="edge"><title>Node1&#45;&gt;Node3</title>
<path fill="none" stroke="midnightblue" d="M217.089,-464.844C259.541,-451.164 326.293,-422.276 355.3,-370 381.023,-323.642 314.352,-274.612 280.549,-253.582"/>
<polygon fill="midnightblue" stroke="midnightblue" points="215.9,-461.548 207.38,-467.845 217.968,-468.236 215.9,-461.548"/>
</g>
<!-- Node18 -->
<g id="node39" class="node"><title>Node18</title>
<a xlink:href="knotgraph_8hpp.html" target="_top" xlink:title="knotgraph.hpp">
<polygon fill="none" stroke="black" points="28.2998,-290.5 28.2998,-311.5 106.3,-311.5 106.3,-290.5 28.2998,-290.5"/>
<text text-anchor="middle" x="67.2998" y="-298.5" font-family="Helvetica,sans-Serif" font-size="10.00">knotgraph.hpp</text>
</a>
</g>
<!-- Node1&#45;&gt;Node18 -->
<g id="edge62" class="edge"><title>Node1&#45;&gt;Node18</title>
<path fill="none" stroke="midnightblue" d="M141.419,-464.894C98.8825,-451.261 32.0503,-422.418 3.29985,-370 -9.82185,-346.076 21.4115,-324.003 44.7144,-311.546"/>
<polygon fill="midnightblue" stroke="midnightblue" points="140.562,-468.292 151.149,-467.884 142.618,-461.601 140.562,-468.292"/>
</g>
<!-- Node22 -->
<g id="node50" class="node"><title>Node22</title>
<a xlink:href="edge_8cpp.html" target="_top" xlink:title="edge.cpp">
<polygon fill="none" stroke="black" points="12.2998,-348.5 12.2998,-369.5 68.2998,-369.5 68.2998,-348.5 12.2998,-348.5"/>
<text text-anchor="middle" x="40.2998" y="-356.5" font-family="Helvetica,sans-Serif" font-size="10.00">edge.cpp</text>
</a>
</g>
<!-- Node1&#45;&gt;Node22 -->
<g id="edge64" class="edge"><title>Node1&#45;&gt;Node22</title>
<path fill="none" stroke="midnightblue" d="M158.562,-457.693C129.406,-433.362 77.1733,-389.772 53.0965,-369.679"/>
<polygon fill="midnightblue" stroke="midnightblue" points="156.552,-460.575 166.472,-464.295 161.037,-455.2 156.552,-460.575"/>
</g>
<!-- Node23 -->
<g id="node52" class="node"><title>Node23</title>
<a xlink:href="node_8cpp.html" target="_top" xlink:title="node.cpp">
<polygon fill="none" stroke="black" points="290.3,-348.5 290.3,-369.5 346.3,-369.5 346.3,-348.5 290.3,-348.5"/>
<text text-anchor="middle" x="318.3" y="-356.5" font-family="Helvetica,sans-Serif" font-size="10.00">node.cpp</text>
</a>
</g>
<!-- Node1&#45;&gt;Node23 -->
<g id="edge66" class="edge"><title>Node1&#45;&gt;Node23</title>
<path fill="none" stroke="midnightblue" d="M200.038,-457.693C229.194,-433.362 281.426,-389.772 305.503,-369.679"/>
<polygon fill="midnightblue" stroke="midnightblue" points="197.563,-455.2 192.127,-464.295 202.048,-460.575 197.563,-455.2"/>
</g>
<!-- Node2&#45;&gt;Node3 -->
<g id="edge4" class="edge"><title>Node2&#45;&gt;Node3</title>
<path fill="none" stroke="midnightblue" d="M210.28,-401.296C222.49,-393.533 235.448,-383.012 243.3,-370 266.106,-332.206 265,-276.902 263.328,-253.783"/>
<polygon fill="midnightblue" stroke="midnightblue" points="208.41,-398.336 201.605,-406.457 211.989,-404.352 208.41,-398.336"/>
</g>
<!-- Node2&#45;&gt;Node18 -->
<g id="edge42" class="edge"><title>Node2&#45;&gt;Node18</title>
<path fill="none" stroke="midnightblue" d="M153.294,-400.797C141.012,-392.449 126.604,-381.598 115.3,-370 97.3734,-351.608 81.4083,-325.892 73.1808,-311.615"/>
<polygon fill="midnightblue" stroke="midnightblue" points="151.514,-403.816 161.787,-406.408 155.372,-397.975 151.514,-403.816"/>
</g>
<!-- Node20 -->
<g id="node45" class="node"><title>Node20</title>
<a xlink:href="knot__curve__style_8hpp.html" target="_top" xlink:title="knot_curve_style.hpp">
<polygon fill="none" stroke="black" points="124.3,-348.5 124.3,-369.5 234.3,-369.5 234.3,-348.5 124.3,-348.5"/>
<text text-anchor="middle" x="179.3" y="-356.5" font-family="Helvetica,sans-Serif" font-size="10.00">knot_curve_style.hpp</text>
</a>
</g>
<!-- Node2&#45;&gt;Node20 -->
<g id="edge50" class="edge"><title>Node2&#45;&gt;Node20</title>
<path fill="none" stroke="midnightblue" d="M179.3,-396.191C179.3,-387.168 179.3,-376.994 179.3,-369.571"/>
<polygon fill="midnightblue" stroke="midnightblue" points="175.8,-396.362 179.3,-406.362 182.8,-396.362 175.8,-396.362"/>
</g>
<!-- Node2&#45;&gt;Node22 -->
<g id="edge56" class="edge"><title>Node2&#45;&gt;Node22</title>
<path fill="none" stroke="midnightblue" d="M144.826,-402.615C120.318,-392.389 87.9423,-378.88 65.7542,-369.621"/>
<polygon fill="midnightblue" stroke="midnightblue" points="143.551,-405.876 154.128,-406.497 146.247,-399.416 143.551,-405.876"/>
</g>
<!-- Node2&#45;&gt;Node23 -->
<g id="edge58" class="edge"><title>Node2&#45;&gt;Node23</title>
<path fill="none" stroke="midnightblue" d="M213.773,-402.615C238.282,-392.389 270.657,-378.88 292.846,-369.621"/>
<polygon fill="midnightblue" stroke="midnightblue" points="212.353,-399.416 204.472,-406.497 215.048,-405.876 212.353,-399.416"/>
</g>
<!-- Node4 -->
<g id="node7" class="node"><title>Node4</title>
<a xlink:href="clipboard_8hpp.html" target="_top" xlink:title="clipboard.hpp">
<polygon fill="none" stroke="black" points="452.3,-174.5 452.3,-195.5 526.3,-195.5 526.3,-174.5 452.3,-174.5"/>
<text text-anchor="middle" x="489.3" y="-182.5" font-family="Helvetica,sans-Serif" font-size="10.00">clipboard.hpp</text>
</a>
</g>
<!-- Node3&#45;&gt;Node4 -->
<g id="edge6" class="edge"><title>Node3&#45;&gt;Node4</title>
<path fill="none" stroke="midnightblue" d="M309.322,-230.986C351.652,-220.17 413.033,-204.487 452.049,-194.518"/>
<polygon fill="midnightblue" stroke="midnightblue" points="308.352,-227.621 299.53,-233.487 310.085,-234.403 308.352,-227.621"/>
</g>
<!-- Node10 -->
<g id="node19" class="node"><title>Node10</title>
<a xlink:href="commands_8hpp.html" target="_top" xlink:title="commands.hpp">
<polygon fill="none" stroke="black" points="91.7998,-174.5 91.7998,-195.5 174.8,-195.5 174.8,-174.5 91.7998,-174.5"/>
<text text-anchor="middle" x="133.3" y="-182.5" font-family="Helvetica,sans-Serif" font-size="10.00">commands.hpp</text>
</a>
</g>
<!-- Node3&#45;&gt;Node10 -->
<g id="edge18" class="edge"><title>Node3&#45;&gt;Node10</title>
<path fill="none" stroke="midnightblue" d="M229.701,-228.343C207.03,-218.15 177.333,-204.798 156.923,-195.621"/>
<polygon fill="midnightblue" stroke="midnightblue" points="228.383,-231.588 238.939,-232.497 231.254,-225.204 228.383,-231.588"/>
</g>
<!-- Node11 -->
<g id="node22" class="node"><title>Node11</title>
<a xlink:href="knotview_8cpp.html" target="_top" xlink:title="knotview.cpp">
<polygon fill="none" stroke="black" points="27.2998,-116.5 27.2998,-137.5 101.3,-137.5 101.3,-116.5 27.2998,-116.5"/>
<text text-anchor="middle" x="64.2998" y="-124.5" font-family="Helvetica,sans-Serif" font-size="10.00">knotview.cpp</text>
</a>
</g>
<!-- Node3&#45;&gt;Node11 -->
<g id="edge38" class="edge"><title>Node3&#45;&gt;Node11</title>
<path fill="none" stroke="midnightblue" d="M215.2,-236.057C168.662,-228.273 101.824,-214.304 83.2998,-196 67.4797,-180.367 64.4938,-152.861 64.1289,-137.729"/>
<polygon fill="midnightblue" stroke="midnightblue" points="214.656,-239.515 225.089,-237.67 215.783,-232.606 214.656,-239.515"/>
</g>
<!-- Node12 -->
<g id="node24" class="node"><title>Node12</title>
<a xlink:href="ui__knot__window_8h.html" target="_top" xlink:title="ui_knot_window.h">
<polygon fill="none" stroke="black" points="296.8,-116.5 296.8,-137.5 391.8,-137.5 391.8,-116.5 296.8,-116.5"/>
<text text-anchor="middle" x="344.3" y="-124.5" font-family="Helvetica,sans-Serif" font-size="10.00">ui_knot_window.h</text>
</a>
</g>
<!-- Node3&#45;&gt;Node12 -->
<g id="edge24" class="edge"><title>Node3&#45;&gt;Node12</title>
<path fill="none" stroke="midnightblue" d="M275.66,-224.101C293.049,-199.502 322.852,-157.341 336.751,-137.679"/>
<polygon fill="midnightblue" stroke="midnightblue" points="272.782,-222.109 269.867,-232.295 278.498,-226.149 272.782,-222.109"/>
</g>
<!-- Node13 -->
<g id="node27" class="node"><title>Node13</title>
<a xlink:href="ui__style__dialog_8h.html" target="_top" xlink:title="ui_style_dialog.h">
<polygon fill="none" stroke="black" points="191.8,-174.5 191.8,-195.5 280.8,-195.5 280.8,-174.5 191.8,-174.5"/>
<text text-anchor="middle" x="236.3" y="-182.5" font-family="Helvetica,sans-Serif" font-size="10.00">ui_style_dialog.h</text>
</a>
</g>
<!-- Node3&#45;&gt;Node13 -->
<g id="edge28" class="edge"><title>Node3&#45;&gt;Node13</title>
<path fill="none" stroke="midnightblue" d="M253.37,-223.079C249.229,-213.842 244.476,-203.239 241.038,-195.571"/>
<polygon fill="midnightblue" stroke="midnightblue" points="250.247,-224.669 257.531,-232.362 256.634,-221.805 250.247,-224.669"/>
</g>
<!-- Node17 -->
<g id="node37" class="node"><title>Node17</title>
<a xlink:href="moc__knotview_8cpp.html" target="_top" xlink:title="moc_knotview.cpp">
<polygon fill="none" stroke="black" points="336.3,-174.5 336.3,-195.5 434.3,-195.5 434.3,-174.5 336.3,-174.5"/>
<text text-anchor="middle" x="385.3" y="-182.5" font-family="Helvetica,sans-Serif" font-size="10.00">moc_knotview.cpp</text>
</a>
</g>
<!-- Node3&#45;&gt;Node17 -->
<g id="edge40" class="edge"><title>Node3&#45;&gt;Node17</title>
<path fill="none" stroke="midnightblue" d="M293.673,-228.206C315.251,-218.031 343.402,-204.757 362.776,-195.621"/>
<polygon fill="midnightblue" stroke="midnightblue" points="292.126,-225.066 284.574,-232.497 295.112,-231.397 292.126,-225.066"/>
</g>
<!-- Node5 -->
<g id="node9" class="node"><title>Node5</title>
<a xlink:href="clipboard_8cpp.html" target="_top" xlink:title="clipboard.cpp">
<polygon fill="none" stroke="black" points="409.3,-116.5 409.3,-137.5 483.3,-137.5 483.3,-116.5 409.3,-116.5"/>
<text text-anchor="middle" x="446.3" y="-124.5" font-family="Helvetica,sans-Serif" font-size="10.00">clipboard.cpp</text>
</a>
</g>
<!-- Node4&#45;&gt;Node5 -->
<g id="edge8" class="edge"><title>Node4&#45;&gt;Node5</title>
<path fill="none" stroke="midnightblue" d="M475.399,-166.25C468.356,-156.75 460.064,-145.565 454.137,-137.571"/>
<polygon fill="midnightblue" stroke="midnightblue" points="472.646,-168.413 481.413,-174.362 478.269,-164.244 472.646,-168.413"/>
</g>
<!-- Node6 -->
<g id="node11" class="node"><title>Node6</title>
<a xlink:href="knot__window_8hpp.html" target="_top" xlink:title="knot_window.hpp">
<polygon fill="none" stroke="black" points="391.3,-58.5 391.3,-79.5 483.3,-79.5 483.3,-58.5 391.3,-58.5"/>
<text text-anchor="middle" x="437.3" y="-66.5" font-family="Helvetica,sans-Serif" font-size="10.00">knot_window.hpp</text>
</a>
</g>
<!-- Node4&#45;&gt;Node6 -->
<g id="edge10" class="edge"><title>Node4&#45;&gt;Node6</title>
<path fill="none" stroke="midnightblue" d="M494.999,-164.316C497.799,-150.084 499.258,-131.099 492.3,-116 484.993,-100.144 469.406,-87.6504 456.685,-79.5423"/>
<polygon fill="midnightblue" stroke="midnightblue" points="491.573,-163.596 492.714,-174.129 498.391,-165.184 491.573,-163.596"/>
</g>
<!-- Node7 -->
<g id="node13" class="node"><title>Node7</title>
<a xlink:href="knot__window_8cpp.html" target="_top" xlink:title="knot_window.cpp">
<polygon fill="none" stroke="black" points="177.3,-0.5 177.3,-21.5 269.3,-21.5 269.3,-0.5 177.3,-0.5"/>
<text text-anchor="middle" x="223.3" y="-8.5" font-family="Helvetica,sans-Serif" font-size="10.00">knot_window.cpp</text>
</a>
</g>
<!-- Node6&#45;&gt;Node7 -->
<g id="edge12" class="edge"><title>Node6&#45;&gt;Node7</title>
<path fill="none" stroke="midnightblue" d="M388.642,-55.8123C350.329,-45.4285 297.642,-31.1487 262.126,-21.5231"/>
<polygon fill="midnightblue" stroke="midnightblue" points="387.979,-59.2588 398.546,-58.4966 389.81,-52.5025 387.979,-59.2588"/>
</g>
<!-- Node8 -->
<g id="node15" class="node"><title>Node8</title>
<a xlink:href="main_8cpp.html" target="_top" xlink:title="main.cpp">
<polygon fill="none" stroke="black" points="461.3,-0.5 461.3,-21.5 517.3,-21.5 517.3,-0.5 461.3,-0.5"/>
<text text-anchor="middle" x="489.3" y="-8.5" font-family="Helvetica,sans-Serif" font-size="10.00">main.cpp</text>
</a>
</g>
<!-- Node6&#45;&gt;Node8 -->
<g id="edge14" class="edge"><title>Node6&#45;&gt;Node8</title>
<path fill="none" stroke="midnightblue" d="M453.59,-50.8299C462.217,-41.2078 472.509,-29.7282 479.823,-21.5707"/>
<polygon fill="midnightblue" stroke="midnightblue" points="450.907,-48.5798 446.837,-58.3619 456.119,-53.2526 450.907,-48.5798"/>
</g>
<!-- Node9 -->
<g id="node17" class="node"><title>Node9</title>
<a xlink:href="moc__knot__window_8cpp.html" target="_top" xlink:title="moc_knot_window.cpp">
<polygon fill="none" stroke="black" points="327.3,-0.5 327.3,-21.5 443.3,-21.5 443.3,-0.5 327.3,-0.5"/>
<text text-anchor="middle" x="385.3" y="-8.5" font-family="Helvetica,sans-Serif" font-size="10.00">moc_knot_window.cpp</text>
</a>
</g>
<!-- Node6&#45;&gt;Node9 -->
<g id="edge16" class="edge"><title>Node6&#45;&gt;Node9</title>
<path fill="none" stroke="midnightblue" d="M421.009,-50.8299C412.383,-41.2078 402.091,-29.7282 394.777,-21.5707"/>
<polygon fill="midnightblue" stroke="midnightblue" points="418.481,-53.2526 427.762,-58.3619 423.693,-48.5798 418.481,-53.2526"/>
</g>
<!-- Node10&#45;&gt;Node7 -->
<g id="edge20" class="edge"><title>Node10&#45;&gt;Node7</title>
<path fill="none" stroke="midnightblue" d="M131.031,-164.371C129.15,-137.669 129.531,-90.6957 150.3,-58 160.968,-41.2053 180.043,-29.2343 196.019,-21.5777"/>
<polygon fill="midnightblue" stroke="midnightblue" points="127.557,-164.819 131.923,-174.473 134.53,-164.204 127.557,-164.819"/>
</g>
<!-- Node10&#45;&gt;Node11 -->
<g id="edge22" class="edge"><title>Node10&#45;&gt;Node11</title>
<path fill="none" stroke="midnightblue" d="M112.708,-167.691C101.06,-157.9 86.8711,-145.973 76.8753,-137.571"/>
<polygon fill="midnightblue" stroke="midnightblue" points="110.737,-170.607 120.644,-174.362 115.241,-165.248 110.737,-170.607"/>
</g>
<!-- Node12&#45;&gt;Node6 -->
<g id="edge26" class="edge"><title>Node12&#45;&gt;Node6</title>
<path fill="none" stroke="midnightblue" d="M370.241,-110.821C386.26,-100.831 406.354,-88.2993 420.35,-79.5707"/>
<polygon fill="midnightblue" stroke="midnightblue" points="367.99,-108.1 361.357,-116.362 371.695,-114.04 367.99,-108.1"/>
</g>
<!-- Node14 -->
<g id="node29" class="node"><title>Node14</title>
<a xlink:href="style__dialog_8hpp.html" target="_top" xlink:title="style_dialog.hpp">
<polygon fill="none" stroke="black" points="192.8,-116.5 192.8,-137.5 279.8,-137.5 279.8,-116.5 192.8,-116.5"/>
<text text-anchor="middle" x="236.3" y="-124.5" font-family="Helvetica,sans-Serif" font-size="10.00">style_dialog.hpp</text>
</a>
</g>
<!-- Node13&#45;&gt;Node14 -->
<g id="edge30" class="edge"><title>Node13&#45;&gt;Node14</title>
<path fill="none" stroke="midnightblue" d="M236.3,-164.191C236.3,-155.168 236.3,-144.994 236.3,-137.571"/>
<polygon fill="midnightblue" stroke="midnightblue" points="232.8,-164.362 236.3,-174.362 239.8,-164.362 232.8,-164.362"/>
</g>
<!-- Node14&#45;&gt;Node6 -->
<g id="edge32" class="edge"><title>Node14&#45;&gt;Node6</title>
<path fill="none" stroke="midnightblue" d="M282.462,-113.68C318.408,-103.307 367.616,-89.1078 400.832,-79.5231"/>
<polygon fill="midnightblue" stroke="midnightblue" points="281.337,-110.361 272.699,-116.497 283.278,-117.087 281.337,-110.361"/>
</g>
<!-- Node15 -->
<g id="node32" class="node"><title>Node15</title>
<a xlink:href="moc__style__dialog_8cpp.html" target="_top" xlink:title="moc_style_dialog.cpp">
<polygon fill="none" stroke="black" points="158.8,-58.5 158.8,-79.5 269.8,-79.5 269.8,-58.5 158.8,-58.5"/>
<text text-anchor="middle" x="214.3" y="-66.5" font-family="Helvetica,sans-Serif" font-size="10.00">moc_style_dialog.cpp</text>
</a>
</g>
<!-- Node14&#45;&gt;Node15 -->
<g id="edge34" class="edge"><title>Node14&#45;&gt;Node15</title>
<path fill="none" stroke="midnightblue" d="M228.632,-106.784C225.155,-97.617 221.187,-87.1572 218.309,-79.5707"/>
<polygon fill="midnightblue" stroke="midnightblue" points="225.446,-108.253 232.265,-116.362 231.991,-105.771 225.446,-108.253"/>
</g>
<!-- Node16 -->
<g id="node34" class="node"><title>Node16</title>
<a xlink:href="style__dialog_8cpp.html" target="_top" xlink:title="style_dialog.cpp">
<polygon fill="none" stroke="black" points="286.8,-58.5 286.8,-79.5 373.8,-79.5 373.8,-58.5 286.8,-58.5"/>
<text text-anchor="middle" x="330.3" y="-66.5" font-family="Helvetica,sans-Serif" font-size="10.00">style_dialog.cpp</text>
</a>
</g>
<!-- Node14&#45;&gt;Node16 -->
<g id="edge36" class="edge"><title>Node14&#45;&gt;Node16</title>
<path fill="none" stroke="midnightblue" d="M262.067,-111.101C278.331,-101.066 298.89,-88.3808 313.168,-79.5707"/>
<polygon fill="midnightblue" stroke="midnightblue" points="260.213,-108.132 253.541,-116.362 263.889,-114.089 260.213,-108.132"/>
</g>
<!-- Node18&#45;&gt;Node3 -->
<g id="edge44" class="edge"><title>Node18&#45;&gt;Node3</title>
<path fill="none" stroke="midnightblue" d="M112.532,-287.546C147.365,-277.186 194.834,-263.067 226.921,-253.523"/>
<polygon fill="midnightblue" stroke="midnightblue" points="111.2,-284.291 102.613,-290.497 113.196,-291 111.2,-284.291"/>
</g>
<!-- Node18&#45;&gt;Node11 -->
<g id="edge48" class="edge"><title>Node18&#45;&gt;Node11</title>
<path fill="none" stroke="midnightblue" d="M55.7026,-281.25C51.5519,-273.099 47.3862,-263.378 45.2998,-254 35.8111,-211.346 51.9895,-159.561 60.0943,-137.63"/>
<polygon fill="midnightblue" stroke="midnightblue" points="52.764,-283.172 60.6173,-290.284 58.9131,-279.827 52.764,-283.172"/>
</g>
<!-- Node19 -->
<g id="node42" class="node"><title>Node19</title>
<a xlink:href="knotgraph_8cpp.html" target="_top" xlink:title="knotgraph.cpp">
<polygon fill="none" stroke="black" points="54.2998,-232.5 54.2998,-253.5 132.3,-253.5 132.3,-232.5 54.2998,-232.5"/>
<text text-anchor="middle" x="93.2998" y="-240.5" font-family="Helvetica,sans-Serif" font-size="10.00">knotgraph.cpp</text>
</a>
</g>
<!-- Node18&#45;&gt;Node19 -->
<g id="edge46" class="edge"><title>Node18&#45;&gt;Node19</title>
<path fill="none" stroke="midnightblue" d="M76.23,-281.079C80.3706,-271.842 85.1238,-261.239 88.5613,-253.571"/>
<polygon fill="midnightblue" stroke="midnightblue" points="72.9655,-279.805 72.0686,-290.362 79.3531,-282.669 72.9655,-279.805"/>
</g>
<!-- Node20&#45;&gt;Node18 -->
<g id="edge52" class="edge"><title>Node20&#45;&gt;Node18</title>
<path fill="none" stroke="midnightblue" d="M149.937,-343.794C130.396,-333.675 105.213,-320.634 87.8098,-311.621"/>
<polygon fill="midnightblue" stroke="midnightblue" points="148.528,-347.006 159.017,-348.497 151.747,-340.79 148.528,-347.006"/>
</g>
<!-- Node21 -->
<g id="node48" class="node"><title>Node21</title>
<a xlink:href="knot__curve__style_8cpp.html" target="_top" xlink:title="knot_curve_style.cpp">
<polygon fill="none" stroke="black" points="124.3,-290.5 124.3,-311.5 234.3,-311.5 234.3,-290.5 124.3,-290.5"/>
<text text-anchor="middle" x="179.3" y="-298.5" font-family="Helvetica,sans-Serif" font-size="10.00">knot_curve_style.cpp</text>
</a>
</g>
<!-- Node20&#45;&gt;Node21 -->
<g id="edge54" class="edge"><title>Node20&#45;&gt;Node21</title>
<path fill="none" stroke="midnightblue" d="M179.3,-338.191C179.3,-329.168 179.3,-318.994 179.3,-311.571"/>
<polygon fill="midnightblue" stroke="midnightblue" points="175.8,-338.362 179.3,-348.362 182.8,-338.362 175.8,-338.362"/>
</g>
</g>
</svg>
