<?xml version="1.0" encoding="UTF-8" standalone="no"?>
<!DOCTYPE svg PUBLIC "-//W3C//DTD SVG 1.1//EN"
 "http://www.w3.org/Graphics/SVG/1.1/DTD/svg11.dtd">
<!-- Generated by graphviz version 2.26.3 (20100126.1600)
 -->
<!-- Title: G Pages: 1 -->
<svg width="1452pt" height="204pt"
 viewBox="0.00 0.00 1452.00 204.00" xmlns="http://www.w3.org/2000/svg" xmlns:xlink="http://www.w3.org/1999/xlink">
<g id="graph1" class="graph" transform="scale(1 1) rotate(0) translate(4 200)">
<title>G</title>
<!-- Node1 -->
<g id="node1" class="node"><title>Node1</title>
<polygon fill="#bfbfbf" stroke="black" points="881.5,-174.5 881.5,-195.5 958.5,-195.5 958.5,-174.5 881.5,-174.5"/>
<text text-anchor="middle" x="920" y="-182.5" font-family="Helvetica,sans-Serif" font-size="10.00">gridconfig.cpp</text>
</g>
<!-- Node2 -->
<g id="node3" class="node"><title>Node2</title>
<a xlink:href="gridconfig_8hpp.html" target="_top" xlink:title="gridconfig.hpp">
<polygon fill="none" stroke="black" points="881.5,-116.5 881.5,-137.5 958.5,-137.5 958.5,-116.5 881.5,-116.5"/>
<text text-anchor="middle" x="920" y="-124.5" font-family="Helvetica,sans-Serif" font-size="10.00">gridconfig.hpp</text>
</a>
</g>
<!-- Node1&#45;&gt;Node2 -->
<g id="edge2" class="edge"><title>Node1&#45;&gt;Node2</title>
<path fill="none" stroke="midnightblue" d="M920,-174.362C920,-166.922 920,-156.743 920,-147.728"/>
<polygon fill="midnightblue" stroke="midnightblue" points="923.5,-147.571 920,-137.571 916.5,-147.571 923.5,-147.571"/>
</g>
<!-- Node3 -->
<g id="node5" class="node"><title>Node3</title>
<a xlink:href="ui__gridconfig_8h.html" target="_top" xlink:title="ui_gridconfig.h">
<polygon fill="none" stroke="black" points="685,-58.5 685,-79.5 765,-79.5 765,-58.5 685,-58.5"/>
<text text-anchor="middle" x="725" y="-66.5" font-family="Helvetica,sans-Serif" font-size="10.00">ui_gridconfig.h</text>
</a>
</g>
<!-- Node2&#45;&gt;Node3 -->
<g id="edge4" class="edge"><title>Node2&#45;&gt;Node3</title>
<path fill="none" stroke="midnightblue" d="M884.687,-116.497C852.621,-106.959 805.155,-92.8408 770.304,-82.475"/>
<polygon fill="midnightblue" stroke="midnightblue" points="770.962,-79.0193 760.379,-79.5231 768.966,-85.7288 770.962,-79.0193"/>
</g>
<!-- Node16 -->
<g id="node31" class="node"><title>Node16</title>
<a xlink:href="snapping__grid_8hpp.html" target="_top" xlink:title="snapping_grid.hpp">
<polygon fill="none" stroke="black" points="1068.5,-58.5 1068.5,-79.5 1163.5,-79.5 1163.5,-58.5 1068.5,-58.5"/>
<text text-anchor="middle" x="1116" y="-66.5" font-family="Helvetica,sans-Serif" font-size="10.00">snapping_grid.hpp</text>
</a>
</g>
<!-- Node2&#45;&gt;Node16 -->
<g id="edge30" class="edge"><title>Node2&#45;&gt;Node16</title>
<path fill="none" stroke="midnightblue" d="M955.494,-116.497C987.724,-106.959 1035.43,-92.8408 1070.46,-82.475"/>
<polygon fill="midnightblue" stroke="midnightblue" points="1071.84,-85.7168 1080.44,-79.5231 1069.86,-79.0045 1071.84,-85.7168"/>
</g>
<!-- Node4 -->
<g id="node7" class="node"><title>Node4</title>
<polygon fill="none" stroke="#bfbfbf" points="-0.5,-0.5 -0.5,-21.5 88.5,-21.5 88.5,-0.5 -0.5,-0.5"/>
<text text-anchor="middle" x="44" y="-8.5" font-family="Helvetica,sans-Serif" font-size="10.00">QtCore/QVariant</text>
</g>
<!-- Node3&#45;&gt;Node4 -->
<g id="edge6" class="edge"><title>Node3&#45;&gt;Node4</title>
<path fill="none" stroke="midnightblue" d="M684.765,-67.8013C586.321,-64.4813 325.39,-53.3458 98.8288,-22.1196"/>
<polygon fill="midnightblue" stroke="midnightblue" points="99.1355,-18.6285 88.7479,-20.7136 98.1685,-25.5614 99.1355,-18.6285"/>
</g>
<!-- Node5 -->
<g id="node9" class="node"><title>Node5</title>
<polygon fill="none" stroke="#bfbfbf" points="106,-0.5 106,-21.5 186,-21.5 186,-0.5 106,-0.5"/>
<text text-anchor="middle" x="146" y="-8.5" font-family="Helvetica,sans-Serif" font-size="10.00">QtGui/QAction</text>
</g>
<!-- Node3&#45;&gt;Node5 -->
<g id="edge8" class="edge"><title>Node3&#45;&gt;Node5</title>
<path fill="none" stroke="midnightblue" d="M684.889,-67.2584C597.703,-63.0834 384.309,-50.7571 196.106,-21.9989"/>
<polygon fill="midnightblue" stroke="midnightblue" points="196.446,-18.51 186.029,-20.4394 195.376,-25.4276 196.446,-18.51"/>
</g>
<!-- Node6 -->
<g id="node11" class="node"><title>Node6</title>
<polygon fill="none" stroke="#bfbfbf" points="203.5,-0.5 203.5,-21.5 304.5,-21.5 304.5,-0.5 203.5,-0.5"/>
<text text-anchor="middle" x="254" y="-8.5" font-family="Helvetica,sans-Serif" font-size="10.00">QtGui/QApplication</text>
</g>
<!-- Node3&#45;&gt;Node6 -->
<g id="edge10" class="edge"><title>Node3&#45;&gt;Node6</title>
<path fill="none" stroke="midnightblue" d="M684.815,-65.3683C612.701,-58.6446 456.357,-43.1294 314.963,-22.2236"/>
<polygon fill="midnightblue" stroke="midnightblue" points="315.217,-18.7228 304.81,-20.7091 314.184,-25.6462 315.217,-18.7228"/>
</g>
<!-- Node7 -->
<g id="node13" class="node"><title>Node7</title>
<polygon fill="none" stroke="#bfbfbf" points="321.5,-0.5 321.5,-21.5 428.5,-21.5 428.5,-0.5 321.5,-0.5"/>
<text text-anchor="middle" x="375" y="-8.5" font-family="Helvetica,sans-Serif" font-size="10.00">QtGui/QButtonGroup</text>
</g>
<!-- Node3&#45;&gt;Node7 -->
<g id="edge12" class="edge"><title>Node3&#45;&gt;Node7</title>
<path fill="none" stroke="midnightblue" d="M684.903,-62.6358C631.137,-54.0626 532.44,-38.1869 438.693,-22.2743"/>
<polygon fill="midnightblue" stroke="midnightblue" points="439.206,-18.8113 428.761,-20.585 438.032,-25.7123 439.206,-18.8113"/>
</g>
<!-- Node8 -->
<g id="node15" class="node"><title>Node8</title>
<polygon fill="none" stroke="#bfbfbf" points="445.5,-0.5 445.5,-21.5 546.5,-21.5 546.5,-0.5 445.5,-0.5"/>
<text text-anchor="middle" x="496" y="-8.5" font-family="Helvetica,sans-Serif" font-size="10.00">QtGui/QComboBox</text>
</g>
<!-- Node3&#45;&gt;Node8 -->
<g id="edge14" class="edge"><title>Node3&#45;&gt;Node8</title>
<path fill="none" stroke="midnightblue" d="M684.849,-58.8308C646.691,-49.1663 589.125,-34.5861 547.583,-24.0646"/>
<polygon fill="midnightblue" stroke="midnightblue" points="548.207,-20.6123 537.654,-21.5499 546.488,-27.398 548.207,-20.6123"/>
</g>
<!-- Node9 -->
<g id="node17" class="node"><title>Node9</title>
<polygon fill="none" stroke="#bfbfbf" points="564,-0.5 564,-21.5 644,-21.5 644,-0.5 564,-0.5"/>
<text text-anchor="middle" x="604" y="-8.5" font-family="Helvetica,sans-Serif" font-size="10.00">QtGui/QDialog</text>
</g>
<!-- Node3&#45;&gt;Node9 -->
<g id="edge16" class="edge"><title>Node3&#45;&gt;Node9</title>
<path fill="none" stroke="midnightblue" d="M703.088,-58.4966C684.189,-49.4378 656.669,-36.2462 635.424,-26.0628"/>
<polygon fill="midnightblue" stroke="midnightblue" points="636.689,-22.7876 626.158,-21.6212 633.663,-29.0999 636.689,-22.7876"/>
</g>
<!-- Node10 -->
<g id="node19" class="node"><title>Node10</title>
<polygon fill="none" stroke="#bfbfbf" points="662,-0.5 662,-21.5 788,-21.5 788,-0.5 662,-0.5"/>
<text text-anchor="middle" x="725" y="-8.5" font-family="Helvetica,sans-Serif" font-size="10.00">QtGui/QDialogButtonBox</text>
</g>
<!-- Node3&#45;&gt;Node10 -->
<g id="edge18" class="edge"><title>Node3&#45;&gt;Node10</title>
<path fill="none" stroke="midnightblue" d="M725,-58.3619C725,-50.9219 725,-40.7427 725,-31.7276"/>
<polygon fill="midnightblue" stroke="midnightblue" points="728.5,-31.5706 725,-21.5707 721.5,-31.5707 728.5,-31.5706"/>
</g>
<!-- Node11 -->
<g id="node21" class="node"><title>Node11</title>
<polygon fill="none" stroke="#bfbfbf" points="806,-0.5 806,-21.5 906,-21.5 906,-0.5 806,-0.5"/>
<text text-anchor="middle" x="856" y="-8.5" font-family="Helvetica,sans-Serif" font-size="10.00">QtGui/QGridLayout</text>
</g>
<!-- Node3&#45;&gt;Node11 -->
<g id="edge20" class="edge"><title>Node3&#45;&gt;Node11</title>
<path fill="none" stroke="midnightblue" d="M748.723,-58.4966C769.368,-49.3562 799.516,-36.0082 822.599,-25.7883"/>
<polygon fill="midnightblue" stroke="midnightblue" points="824.284,-28.8701 832.011,-21.6212 821.45,-22.4694 824.284,-28.8701"/>
</g>
<!-- Node12 -->
<g id="node23" class="node"><title>Node12</title>
<polygon fill="none" stroke="#bfbfbf" points="924,-0.5 924,-21.5 1020,-21.5 1020,-0.5 924,-0.5"/>
<text text-anchor="middle" x="972" y="-8.5" font-family="Helvetica,sans-Serif" font-size="10.00">QtGui/QGroupBox</text>
</g>
<!-- Node3&#45;&gt;Node12 -->
<g id="edge22" class="edge"><title>Node3&#45;&gt;Node12</title>
<path fill="none" stroke="midnightblue" d="M765.235,-59.5522C806.625,-49.833 871.372,-34.6294 917.375,-23.827"/>
<polygon fill="midnightblue" stroke="midnightblue" points="918.247,-27.2175 927.182,-21.5241 916.646,-20.4029 918.247,-27.2175"/>
</g>
<!-- Node13 -->
<g id="node25" class="node"><title>Node13</title>
<polygon fill="none" stroke="#bfbfbf" points="1038,-0.5 1038,-21.5 1144,-21.5 1144,-0.5 1038,-0.5"/>
<text text-anchor="middle" x="1091" y="-8.5" font-family="Helvetica,sans-Serif" font-size="10.00">QtGui/QHeaderView</text>
</g>
<!-- Node3&#45;&gt;Node13 -->
<g id="edge24" class="edge"><title>Node3&#45;&gt;Node13</title>
<path fill="none" stroke="midnightblue" d="M765.369,-63.0502C821.764,-54.6742 927.593,-38.7243 1027.91,-22.1555"/>
<polygon fill="midnightblue" stroke="midnightblue" points="1028.62,-25.586 1037.91,-20.4985 1027.48,-18.6801 1028.62,-25.586"/>
</g>
<!-- Node14 -->
<g id="node27" class="node"><title>Node14</title>
<polygon fill="none" stroke="#bfbfbf" points="1162,-0.5 1162,-21.5 1238,-21.5 1238,-0.5 1162,-0.5"/>
<text text-anchor="middle" x="1200" y="-8.5" font-family="Helvetica,sans-Serif" font-size="10.00">QtGui/QLabel</text>
</g>
<!-- Node3&#45;&gt;Node14 -->
<g id="edge26" class="edge"><title>Node3&#45;&gt;Node14</title>
<path fill="none" stroke="midnightblue" d="M765.053,-66.2215C839.368,-60.7167 1003.75,-46.9016 1151.69,-22.062"/>
<polygon fill="midnightblue" stroke="midnightblue" points="1152.59,-25.4595 1161.86,-20.3323 1151.41,-18.5586 1152.59,-25.4595"/>
</g>
<!-- Node15 -->
<g id="node29" class="node"><title>Node15</title>
<polygon fill="none" stroke="#bfbfbf" points="1255.5,-0.5 1255.5,-21.5 1344.5,-21.5 1344.5,-0.5 1255.5,-0.5"/>
<text text-anchor="middle" x="1300" y="-8.5" font-family="Helvetica,sans-Serif" font-size="10.00">QtGui/QSpinBox</text>
</g>
<!-- Node3&#45;&gt;Node15 -->
<g id="edge28" class="edge"><title>Node3&#45;&gt;Node15</title>
<path fill="none" stroke="midnightblue" d="M765.133,-66.9617C851.313,-62.2464 1060.59,-48.9854 1245.09,-22.16"/>
<polygon fill="midnightblue" stroke="midnightblue" points="1245.86,-25.584 1255.25,-20.6655 1244.84,-18.6585 1245.86,-25.584"/>
</g>
<!-- Node17 -->
<g id="node33" class="node"><title>Node17</title>
<polygon fill="none" stroke="#bfbfbf" points="1361.5,-0.5 1361.5,-21.5 1444.5,-21.5 1444.5,-0.5 1361.5,-0.5"/>
<text text-anchor="middle" x="1403" y="-8.5" font-family="Helvetica,sans-Serif" font-size="10.00">QGraphicsItem</text>
</g>
<!-- Node16&#45;&gt;Node17 -->
<g id="edge32" class="edge"><title>Node16&#45;&gt;Node17</title>
<path fill="none" stroke="midnightblue" d="M1163.72,-59.838C1209.48,-50.9865 1280.75,-37.0209 1351.32,-22.326"/>
<polygon fill="midnightblue" stroke="midnightblue" points="1352.2,-25.7184 1361.27,-20.2481 1350.77,-18.8662 1352.2,-25.7184"/>
</g>
</g>
</svg>
