<?xml version="1.0" encoding="UTF-8" standalone="no"?>
<!DOCTYPE svg PUBLIC "-//W3C//DTD SVG 1.1//EN"
 "http://www.w3.org/Graphics/SVG/1.1/DTD/svg11.dtd">
<!-- Generated by graphviz version 2.26.3 (20100126.1600)
 -->
<!-- Title: G Pages: 1 -->
<svg width="312pt" height="88pt"
 viewBox="0.00 0.00 312.00 88.00" xmlns="http://www.w3.org/2000/svg" xmlns:xlink="http://www.w3.org/1999/xlink">
<g id="graph1" class="graph" transform="scale(1 1) rotate(0) translate(4 84)">
<title>G</title>
<!-- Node1 -->
<g id="node1" class="node"><title>Node1</title>
<polygon fill="#bfbfbf" stroke="black" points="101.5,-58.5 101.5,-79.5 178.5,-79.5 178.5,-58.5 101.5,-58.5"/>
<text text-anchor="middle" x="140" y="-66.5" font-family="Helvetica,sans-Serif" font-size="10.00">gridconfig.hpp</text>
</g>
<!-- Node2 -->
<g id="node3" class="node"><title>Node2</title>
<a xlink:href="gridconfig_8cpp.html" target="_top" xlink:title="gridconfig.cpp">
<polygon fill="none" stroke="black" points="-0.5,-0.5 -0.5,-21.5 76.5,-21.5 76.5,-0.5 -0.5,-0.5"/>
<text text-anchor="middle" x="38" y="-8.5" font-family="Helvetica,sans-Serif" font-size="10.00">gridconfig.cpp</text>
</a>
</g>
<!-- Node1&#45;&gt;Node2 -->
<g id="edge2" class="edge"><title>Node1&#45;&gt;Node2</title>
<path fill="none" stroke="midnightblue" d="M112.529,-53.379C94.8053,-43.3011 72.227,-30.4624 56.5898,-21.5707"/>
<polygon fill="midnightblue" stroke="midnightblue" points="110.869,-56.4614 121.292,-58.3619 114.329,-50.3763 110.869,-56.4614"/>
</g>
<!-- Node3 -->
<g id="node5" class="node"><title>Node3</title>
<a xlink:href="knot__window_8cpp.html" target="_top" xlink:title="knot_window.cpp">
<polygon fill="none" stroke="black" points="94,-0.5 94,-21.5 186,-21.5 186,-0.5 94,-0.5"/>
<text text-anchor="middle" x="140" y="-8.5" font-family="Helvetica,sans-Serif" font-size="10.00">knot_window.cpp</text>
</a>
</g>
<!-- Node1&#45;&gt;Node3 -->
<g id="edge4" class="edge"><title>Node1&#45;&gt;Node3</title>
<path fill="none" stroke="midnightblue" d="M140,-48.1906C140,-39.1684 140,-28.9941 140,-21.5707"/>
<polygon fill="midnightblue" stroke="midnightblue" points="136.5,-48.3619 140,-58.3619 143.5,-48.3619 136.5,-48.3619"/>
</g>
<!-- Node4 -->
<g id="node7" class="node"><title>Node4</title>
<a xlink:href="moc__gridconfig_8cpp.html" target="_top" xlink:title="moc_gridconfig.cpp">
<polygon fill="none" stroke="black" points="203.5,-0.5 203.5,-21.5 304.5,-21.5 304.5,-0.5 203.5,-0.5"/>
<text text-anchor="middle" x="254" y="-8.5" font-family="Helvetica,sans-Serif" font-size="10.00">moc_gridconfig.cpp</text>
</a>
</g>
<!-- Node1&#45;&gt;Node4 -->
<g id="edge6" class="edge"><title>Node1&#45;&gt;Node4</title>
<path fill="none" stroke="midnightblue" d="M169.617,-53.9319C189.544,-43.7932 215.329,-30.6748 233.124,-21.6212"/>
<polygon fill="midnightblue" stroke="midnightblue" points="167.97,-50.8425 160.645,-58.4966 171.144,-57.0815 167.97,-50.8425"/>
</g>
</g>
</svg>
