<?xml version="1.0" encoding="UTF-8" standalone="no"?>
<!DOCTYPE svg PUBLIC "-//W3C//DTD SVG 1.1//EN"
 "http://www.w3.org/Graphics/SVG/1.1/DTD/svg11.dtd">
<!-- Generated by graphviz version 2.26.3 (20100126.1600)
 -->
<!-- Title: G Pages: 1 -->
<svg width="276pt" height="70pt"
 viewBox="0.00 0.00 276.00 70.00" xmlns="http://www.w3.org/2000/svg" xmlns:xlink="http://www.w3.org/1999/xlink">
<g id="graph1" class="graph" transform="scale(1 1) rotate(0) translate(4 66)">
<title>G</title>
<!-- Node1 -->
<g id="node1" class="node"><title>Node1</title>
<a xlink:href="classQGraphicsItem.html" target="_top" xlink:title="QGraphicsItem">
<polygon fill="none" stroke="black" points="0.5,-20.5 0.5,-41.5 83.5,-41.5 83.5,-20.5 0.5,-20.5"/>
<text text-anchor="middle" x="42" y="-28.5" font-family="Helvetica,sans-Serif" font-size="10.00">QGraphicsItem</text>
</a>
</g>
<!-- Node2 -->
<g id="node3" class="node"><title>Node2</title>
<a xlink:href="classCustomItem.html" target="_top" xlink:title="CustomItem">
<polygon fill="none" stroke="black" points="120.5,-20.5 120.5,-41.5 191.5,-41.5 191.5,-20.5 120.5,-20.5"/>
<text text-anchor="middle" x="156" y="-28.5" font-family="Helvetica,sans-Serif" font-size="10.00">CustomItem</text>
</a>
</g>
<!-- Node1&#45;&gt;Node2 -->
<g id="edge2" class="edge"><title>Node1&#45;&gt;Node2</title>
<path fill="none" stroke="midnightblue" d="M94.0585,-31C102.902,-31 111.905,-31 120.208,-31"/>
<polygon fill="midnightblue" stroke="midnightblue" points="93.8021,-27.5001 83.8021,-31 93.802,-34.5001 93.8021,-27.5001"/>
</g>
<!-- Node3 -->
<g id="node5" class="node"><title>Node3</title>
<a xlink:href="classEdge.html" target="_top" xlink:title="Edge">
<polygon fill="none" stroke="black" points="228.5,-40.5 228.5,-61.5 267.5,-61.5 267.5,-40.5 228.5,-40.5"/>
<text text-anchor="middle" x="248" y="-48.5" font-family="Helvetica,sans-Serif" font-size="10.00">Edge</text>
</a>
</g>
<!-- Node2&#45;&gt;Node3 -->
<g id="edge4" class="edge"><title>Node2&#45;&gt;Node3</title>
<path fill="none" stroke="midnightblue" d="M201.418,-40.8734C210.945,-42.9446 220.506,-45.023 228.465,-46.7532"/>
<polygon fill="midnightblue" stroke="midnightblue" points="202.085,-37.4368 191.57,-38.7325 200.598,-44.277 202.085,-37.4368"/>
</g>
<!-- Node4 -->
<g id="node7" class="node"><title>Node4</title>
<a xlink:href="classNode.html" target="_top" xlink:title="Node">
<polygon fill="none" stroke="black" points="228,-0.5 228,-21.5 268,-21.5 268,-0.5 228,-0.5"/>
<text text-anchor="middle" x="248" y="-8.5" font-family="Helvetica,sans-Serif" font-size="10.00">Node</text>
</a>
</g>
<!-- Node2&#45;&gt;Node4 -->
<g id="edge6" class="edge"><title>Node2&#45;&gt;Node4</title>
<path fill="none" stroke="midnightblue" d="M201.553,-21.0971C210.829,-19.0807 220.128,-17.0591 227.943,-15.3601"/>
<polygon fill="midnightblue" stroke="midnightblue" points="200.598,-17.723 191.57,-23.2675 202.085,-24.5632 200.598,-17.723"/>
</g>
</g>
</svg>
