<?xml version="1.0" encoding="UTF-8" standalone="no"?>
<!DOCTYPE svg PUBLIC "-//W3C//DTD SVG 1.1//EN"
 "http://www.w3.org/Graphics/SVG/1.1/DTD/svg11.dtd">
<!-- Generated by graphviz version 2.26.3 (20100126.1600)
 -->
<!-- Title: G Pages: 1 -->
<svg width="314pt" height="70pt"
 viewBox="0.00 0.00 314.00 70.00" xmlns="http://www.w3.org/2000/svg" xmlns:xlink="http://www.w3.org/1999/xlink">
<g id="graph1" class="graph" transform="scale(1 1) rotate(0) translate(4 66)">
<title>G</title>
<!-- Node1 -->
<g id="node1" class="node"><title>Node1</title>
<a xlink:href="classQDialog.html" target="_top" xlink:title="QDialog">
<polygon fill="none" stroke="black" points="134,-40.5 134,-61.5 186,-61.5 186,-40.5 134,-40.5"/>
<text text-anchor="middle" x="160" y="-48.5" font-family="Helvetica,sans-Serif" font-size="10.00">QDialog</text>
</a>
</g>
<!-- Node2 -->
<g id="node3" class="node"><title>Node2</title>
<a xlink:href="classStyleDialog.html" target="_top" xlink:title="StyleDialog">
<polygon fill="none" stroke="black" points="238.5,-20.5 238.5,-41.5 305.5,-41.5 305.5,-20.5 238.5,-20.5"/>
<text text-anchor="middle" x="272" y="-28.5" font-family="Helvetica,sans-Serif" font-size="10.00">StyleDialog</text>
</a>
</g>
<!-- Node1&#45;&gt;Node2 -->
<g id="edge2" class="edge"><title>Node1&#45;&gt;Node2</title>
<path fill="none" stroke="midnightblue" d="M196.184,-44.5386C209.694,-42.126 224.972,-39.3979 238.254,-37.0261"/>
<polygon fill="midnightblue" stroke="midnightblue" points="195.488,-41.1074 186.259,-46.3109 196.719,-47.9984 195.488,-41.1074"/>
</g>
<!-- Node3 -->
<g id="node4" class="node"><title>Node3</title>
<a xlink:href="classUi__StyleDialog.html" target="_top" xlink:title="Ui_StyleDialog">
<polygon fill="none" stroke="black" points="0,-0.5 0,-21.5 82,-21.5 82,-0.5 0,-0.5"/>
<text text-anchor="middle" x="41" y="-8.5" font-family="Helvetica,sans-Serif" font-size="10.00">Ui_StyleDialog</text>
</a>
</g>
<!-- Node4 -->
<g id="node6" class="node"><title>Node4</title>
<a xlink:href="classUi_1_1StyleDialog.html" target="_top" xlink:title="Ui::StyleDialog">
<polygon fill="none" stroke="black" points="118.5,-0.5 118.5,-21.5 201.5,-21.5 201.5,-0.5 118.5,-0.5"/>
<text text-anchor="middle" x="160" y="-8.5" font-family="Helvetica,sans-Serif" font-size="10.00">Ui::StyleDialog</text>
</a>
</g>
<!-- Node3&#45;&gt;Node4 -->
<g id="edge4" class="edge"><title>Node3&#45;&gt;Node4</title>
<path fill="none" stroke="midnightblue" d="M92.3421,-11C101.04,-11 109.974,-11 118.383,-11"/>
<polygon fill="midnightblue" stroke="midnightblue" points="92.2865,-7.5001 82.2865,-11 92.2864,-14.5001 92.2865,-7.5001"/>
</g>
<!-- Node4&#45;&gt;Node2 -->
<g id="edge6" class="edge"><title>Node4&#45;&gt;Node2</title>
<path fill="none" stroke="#8b1a1a" d="M211.765,-20.2437C220.775,-21.8527 229.932,-23.4879 238.297,-24.9815"/>
<polygon fill="#8b1a1a" stroke="#8b1a1a" points="212.164,-16.7598 201.705,-18.4473 210.934,-23.6507 212.164,-16.7598"/>
</g>
</g>
</svg>
