<?xml version="1.0" encoding="UTF-8" standalone="no"?>
<!DOCTYPE svg PUBLIC "-//W3C//DTD SVG 1.1//EN"
 "http://www.w3.org/Graphics/SVG/1.1/DTD/svg11.dtd">
<!-- Generated by graphviz version 2.26.3 (20100126.1600)
 -->
<!-- Title: G Pages: 1 -->
<svg width="334pt" height="210pt"
 viewBox="0.00 0.00 334.00 210.00" xmlns="http://www.w3.org/2000/svg" xmlns:xlink="http://www.w3.org/1999/xlink">
<g id="graph1" class="graph" transform="scale(1 1) rotate(0) translate(4 206)">
<title>G</title>
<!-- Node1 -->
<g id="node1" class="node"><title>Node1</title>
<a xlink:href="classQUndoCommand.html" target="_top" xlink:title="QUndoCommand">
<polygon fill="none" stroke="black" points="0,-80.5 0,-101.5 92,-101.5 92,-80.5 0,-80.5"/>
<text text-anchor="middle" x="46" y="-88.5" font-family="Helvetica,sans-Serif" font-size="10.00">QUndoCommand</text>
</a>
</g>
<!-- Node2 -->
<g id="node3" class="node"><title>Node2</title>
<a xlink:href="classLastNodeCommand.html" target="_top" xlink:title="LastNodeCommand">
<polygon fill="none" stroke="black" points="128,-160.5 128,-181.5 232,-181.5 232,-160.5 128,-160.5"/>
<text text-anchor="middle" x="180" y="-168.5" font-family="Helvetica,sans-Serif" font-size="10.00">LastNodeCommand</text>
</a>
</g>
<!-- Node1&#45;&gt;Node2 -->
<g id="edge2" class="edge"><title>Node1&#45;&gt;Node2</title>
<path fill="none" stroke="midnightblue" d="M66.4544,-108.343C82.4525,-121.302 105.657,-138.811 128,-151 134.453,-154.521 141.658,-157.714 148.599,-160.463"/>
<polygon fill="midnightblue" stroke="midnightblue" points="68.3028,-105.331 58.3591,-101.673 63.8517,-110.733 68.3028,-105.331"/>
</g>
<!-- Node5 -->
<g id="node9" class="node"><title>Node5</title>
<a xlink:href="classMoveNodes.html" target="_top" xlink:title="MoveNodes">
<polygon fill="none" stroke="black" points="145.5,-120.5 145.5,-141.5 214.5,-141.5 214.5,-120.5 145.5,-120.5"/>
<text text-anchor="middle" x="180" y="-128.5" font-family="Helvetica,sans-Serif" font-size="10.00">MoveNodes</text>
</a>
</g>
<!-- Node1&#45;&gt;Node5 -->
<g id="edge8" class="edge"><title>Node1&#45;&gt;Node5</title>
<path fill="none" stroke="midnightblue" d="M90.8297,-104.382C108.655,-109.703 128.84,-115.728 145.492,-120.699"/>
<polygon fill="midnightblue" stroke="midnightblue" points="91.7903,-101.016 81.2069,-101.51 89.788,-107.724 91.7903,-101.016"/>
</g>
<!-- Node6 -->
<g id="node11" class="node"><title>Node6</title>
<a xlink:href="classRemoveEdge.html" target="_top" xlink:title="RemoveEdge">
<polygon fill="none" stroke="black" points="142,-80.5 142,-101.5 218,-101.5 218,-80.5 142,-80.5"/>
<text text-anchor="middle" x="180" y="-88.5" font-family="Helvetica,sans-Serif" font-size="10.00">RemoveEdge</text>
</a>
</g>
<!-- Node1&#45;&gt;Node6 -->
<g id="edge10" class="edge"><title>Node1&#45;&gt;Node6</title>
<path fill="none" stroke="midnightblue" d="M102.175,-91C115.529,-91 129.471,-91 141.806,-91"/>
<polygon fill="midnightblue" stroke="midnightblue" points="102.115,-87.5001 92.1152,-91 102.115,-94.5001 102.115,-87.5001"/>
</g>
<!-- Node7 -->
<g id="node13" class="node"><title>Node7</title>
<a xlink:href="classRemoveNode.html" target="_top" xlink:title="RemoveNode">
<polygon fill="none" stroke="black" points="141.5,-40.5 141.5,-61.5 218.5,-61.5 218.5,-40.5 141.5,-40.5"/>
<text text-anchor="middle" x="180" y="-48.5" font-family="Helvetica,sans-Serif" font-size="10.00">RemoveNode</text>
</a>
</g>
<!-- Node1&#45;&gt;Node7 -->
<g id="edge12" class="edge"><title>Node1&#45;&gt;Node7</title>
<path fill="none" stroke="midnightblue" d="M91.1626,-77.5186C108.575,-72.3208 128.197,-66.4635 144.563,-61.5782"/>
<polygon fill="midnightblue" stroke="midnightblue" points="89.788,-74.2763 81.2069,-80.4905 91.7903,-80.9838 89.788,-74.2763"/>
</g>
<!-- Node8 -->
<g id="node15" class="node"><title>Node8</title>
<a xlink:href="classToggleEdge.html" target="_top" xlink:title="ToggleEdge">
<polygon fill="none" stroke="black" points="146,-0.5 146,-21.5 214,-21.5 214,-0.5 146,-0.5"/>
<text text-anchor="middle" x="180" y="-8.5" font-family="Helvetica,sans-Serif" font-size="10.00">ToggleEdge</text>
</a>
</g>
<!-- Node1&#45;&gt;Node8 -->
<g id="edge14" class="edge"><title>Node1&#45;&gt;Node8</title>
<path fill="none" stroke="midnightblue" d="M66.4544,-73.6573C82.4525,-60.6975 105.657,-43.1894 128,-31 134.453,-27.4794 141.658,-24.2864 148.599,-21.5369"/>
<polygon fill="midnightblue" stroke="midnightblue" points="63.8517,-71.2666 58.3591,-80.3265 68.3028,-76.6693 63.8517,-71.2666"/>
</g>
<!-- Node3 -->
<g id="node5" class="node"><title>Node3</title>
<a xlink:href="classAddEdge.html" target="_top" xlink:title="AddEdge">
<polygon fill="none" stroke="black" points="269,-180.5 269,-201.5 325,-201.5 325,-180.5 269,-180.5"/>
<text text-anchor="middle" x="297" y="-188.5" font-family="Helvetica,sans-Serif" font-size="10.00">AddEdge</text>
</a>
</g>
<!-- Node2&#45;&gt;Node3 -->
<g id="edge4" class="edge"><title>Node2&#45;&gt;Node3</title>
<path fill="none" stroke="midnightblue" d="M242.365,-181.661C251.597,-183.239 260.701,-184.795 268.75,-186.171"/>
<polygon fill="midnightblue" stroke="midnightblue" points="242.787,-178.182 232.34,-179.947 241.608,-185.082 242.787,-178.182"/>
</g>
<!-- Node4 -->
<g id="node7" class="node"><title>Node4</title>
<a xlink:href="classAddNode.html" target="_top" xlink:title="AddNode">
<polygon fill="none" stroke="black" points="268.5,-140.5 268.5,-161.5 325.5,-161.5 325.5,-140.5 268.5,-140.5"/>
<text text-anchor="middle" x="297" y="-148.5" font-family="Helvetica,sans-Serif" font-size="10.00">AddNode</text>
</a>
</g>
<!-- Node2&#45;&gt;Node4 -->
<g id="edge6" class="edge"><title>Node2&#45;&gt;Node4</title>
<path fill="none" stroke="midnightblue" d="M242.268,-160.356C251.411,-158.793 260.432,-157.251 268.43,-155.884"/>
<polygon fill="midnightblue" stroke="midnightblue" points="241.608,-156.918 232.34,-162.053 242.787,-163.818 241.608,-156.918"/>
</g>
</g>
</svg>
