<?xml version="1.0" encoding="UTF-8" standalone="no"?>
<!DOCTYPE svg PUBLIC "-//W3C//DTD SVG 1.1//EN"
 "http://www.w3.org/Graphics/SVG/1.1/DTD/svg11.dtd">
<!-- Generated by graphviz version 2.26.3 (20100126.1600)
 -->
<!-- Title: G Pages: 1 -->
<svg width="272pt" height="150pt"
 viewBox="0.00 0.00 272.00 150.00" xmlns="http://www.w3.org/2000/svg" xmlns:xlink="http://www.w3.org/1999/xlink">
<g id="graph1" class="graph" transform="scale(1 1) rotate(0) translate(4 146)">
<title>G</title>
<!-- Node1 -->
<g id="node1" class="node"><title>Node1</title>
<a xlink:href="classknot__curve__style.html" target="_top" xlink:title="knot_curve_style">
<polygon fill="none" stroke="black" points="0.5,-60.5 0.5,-81.5 91.5,-81.5 91.5,-60.5 0.5,-60.5"/>
<text text-anchor="middle" x="46" y="-68.5" font-family="Helvetica,sans-Serif" font-size="10.00">knot_curve_style</text>
</a>
</g>
<!-- Node2 -->
<g id="node3" class="node"><title>Node2</title>
<a xlink:href="classknot__curve__advanced__poly.html" target="_top" xlink:title="knot_curve_advanced_poly">
<polygon fill="none" stroke="black" points="128.5,-120.5 128.5,-141.5 263.5,-141.5 263.5,-120.5 128.5,-120.5"/>
<text text-anchor="middle" x="196" y="-128.5" font-family="Helvetica,sans-Serif" font-size="10.00">knot_curve_advanced_poly</text>
</a>
</g>
<!-- Node1&#45;&gt;Node2 -->
<g id="edge2" class="edge"><title>Node1&#45;&gt;Node2</title>
<path fill="none" stroke="midnightblue" d="M74.545,-86.3913C90.0714,-94.3861 109.778,-103.933 128,-111 136.949,-114.47 146.757,-117.683 156.071,-120.472"/>
<polygon fill="midnightblue" stroke="midnightblue" points="75.9525,-83.1778 65.4684,-81.65 72.7115,-89.3823 75.9525,-83.1778"/>
</g>
<!-- Node3 -->
<g id="node5" class="node"><title>Node3</title>
<a xlink:href="classknot__curve__ogee.html" target="_top" xlink:title="knot_curve_ogee">
<polygon fill="none" stroke="black" points="150.5,-80.5 150.5,-101.5 241.5,-101.5 241.5,-80.5 150.5,-80.5"/>
<text text-anchor="middle" x="196" y="-88.5" font-family="Helvetica,sans-Serif" font-size="10.00">knot_curve_ogee</text>
</a>
</g>
<!-- Node1&#45;&gt;Node3 -->
<g id="edge4" class="edge"><title>Node1&#45;&gt;Node3</title>
<path fill="none" stroke="midnightblue" d="M102.094,-78.4792C118.046,-80.6061 135.218,-82.8958 150.461,-84.9281"/>
<polygon fill="midnightblue" stroke="midnightblue" points="102.195,-74.9618 91.82,-77.1093 101.27,-81.9004 102.195,-74.9618"/>
</g>
<!-- Node4 -->
<g id="node7" class="node"><title>Node4</title>
<a xlink:href="classknot__curve__pointed.html" target="_top" xlink:title="knot_curve_pointed">
<polygon fill="none" stroke="black" points="145.5,-40.5 145.5,-61.5 246.5,-61.5 246.5,-40.5 145.5,-40.5"/>
<text text-anchor="middle" x="196" y="-48.5" font-family="Helvetica,sans-Serif" font-size="10.00">knot_curve_pointed</text>
</a>
</g>
<!-- Node1&#45;&gt;Node4 -->
<g id="edge6" class="edge"><title>Node1&#45;&gt;Node4</title>
<path fill="none" stroke="midnightblue" d="M102.003,-63.5329C116.271,-61.6306 131.52,-59.5974 145.495,-57.7341"/>
<polygon fill="midnightblue" stroke="midnightblue" points="101.27,-60.0996 91.82,-64.8907 102.195,-67.0382 101.27,-60.0996"/>
</g>
<!-- Node5 -->
<g id="node9" class="node"><title>Node5</title>
<a xlink:href="classknot__curve__simple__poly.html" target="_top" xlink:title="knot_curve_simple_poly">
<polygon fill="none" stroke="black" points="135,-0.5 135,-21.5 257,-21.5 257,-0.5 135,-0.5"/>
<text text-anchor="middle" x="196" y="-8.5" font-family="Helvetica,sans-Serif" font-size="10.00">knot_curve_simple_poly</text>
</a>
</g>
<!-- Node1&#45;&gt;Node5 -->
<g id="edge8" class="edge"><title>Node1&#45;&gt;Node5</title>
<path fill="none" stroke="midnightblue" d="M74.545,-55.6087C90.0714,-47.6139 109.778,-38.0667 128,-31 136.949,-27.5296 146.757,-24.3172 156.071,-21.5279"/>
<polygon fill="midnightblue" stroke="midnightblue" points="72.7115,-52.6177 65.4684,-60.35 75.9525,-58.8222 72.7115,-52.6177"/>
</g>
</g>
</svg>
