<?xml version="1.0" encoding="UTF-8" standalone="no"?>
<!DOCTYPE svg PUBLIC "-//W3C//DTD SVG 1.1//EN"
 "http://www.w3.org/Graphics/SVG/1.1/DTD/svg11.dtd">
<!-- Generated by graphviz version 2.26.3 (20100126.1600)
 -->
<!-- Title: G Pages: 1 -->
<svg width="334pt" height="150pt"
 viewBox="0.00 0.00 334.00 150.00" xmlns="http://www.w3.org/2000/svg" xmlns:xlink="http://www.w3.org/1999/xlink">
<g id="graph1" class="graph" transform="scale(1 1) rotate(0) translate(4 146)">
<title>G</title>
<!-- Node1 -->
<g id="node1" class="node"><title>Node1</title>
<a xlink:href="classQDialog.html" target="_top" xlink:title="QDialog">
<polygon fill="none" stroke="black" points="145,-80.5 145,-101.5 197,-101.5 197,-80.5 145,-80.5"/>
<text text-anchor="middle" x="171" y="-88.5" font-family="Helvetica,sans-Serif" font-size="10.00">QDialog</text>
</a>
</g>
<!-- Node2 -->
<g id="node3" class="node"><title>Node2</title>
<a xlink:href="classconfig__dialog.html" target="_top" xlink:title="config_dialog">
<polygon fill="none" stroke="black" points="252,-110.5 252,-131.5 326,-131.5 326,-110.5 252,-110.5"/>
<text text-anchor="middle" x="289" y="-118.5" font-family="Helvetica,sans-Serif" font-size="10.00">config_dialog</text>
</a>
</g>
<!-- Node1&#45;&gt;Node2 -->
<g id="edge2" class="edge"><title>Node1&#45;&gt;Node2</title>
<path fill="none" stroke="midnightblue" d="M207.061,-100.168C221.205,-103.764 237.432,-107.89 251.694,-111.516"/>
<polygon fill="midnightblue" stroke="midnightblue" points="207.742,-96.7299 197.188,-97.658 206.017,-103.514 207.742,-96.7299"/>
</g>
<!-- Node3 -->
<g id="node5" class="node"><title>Node3</title>
<a xlink:href="classGridConfig.html" target="_top" xlink:title="GridConfig">
<polygon fill="none" stroke="black" points="257.5,-50.5 257.5,-71.5 320.5,-71.5 320.5,-50.5 257.5,-50.5"/>
<text text-anchor="middle" x="289" y="-58.5" font-family="Helvetica,sans-Serif" font-size="10.00">GridConfig</text>
</a>
</g>
<!-- Node1&#45;&gt;Node3 -->
<g id="edge4" class="edge"><title>Node1&#45;&gt;Node3</title>
<path fill="none" stroke="midnightblue" d="M207.281,-81.776C223.313,-77.7002 241.985,-72.9529 257.431,-69.0259"/>
<polygon fill="midnightblue" stroke="midnightblue" points="206.017,-78.4859 197.188,-84.342 207.742,-85.2701 206.017,-78.4859"/>
</g>
<!-- Node4 -->
<g id="node7" class="node"><title>Node4</title>
<a xlink:href="classStyleDialog.html" target="_top" xlink:title="StyleDialog">
<polygon fill="none" stroke="black" points="255.5,-0.5 255.5,-21.5 322.5,-21.5 322.5,-0.5 255.5,-0.5"/>
<text text-anchor="middle" x="289" y="-8.5" font-family="Helvetica,sans-Serif" font-size="10.00">StyleDialog</text>
</a>
</g>
<!-- Node1&#45;&gt;Node4 -->
<g id="edge6" class="edge"><title>Node1&#45;&gt;Node4</title>
<path fill="none" stroke="midnightblue" d="M206.55,-76.3229C209.808,-74.6445 213.005,-72.8628 216,-71 233.685,-59.999 235.911,-54.2255 252,-41 259.922,-34.4883 268.85,-27.2462 275.951,-21.5091"/>
<polygon fill="midnightblue" stroke="midnightblue" points="204.821,-73.2707 197.328,-80.7613 207.857,-79.5782 204.821,-73.2707"/>
</g>
<!-- Node5 -->
<g id="node8" class="node"><title>Node5</title>
<a xlink:href="classUi__config__dialog.html" target="_top" xlink:title="Ui_config_dialog">
<polygon fill="none" stroke="black" points="0.5,-120.5 0.5,-141.5 89.5,-141.5 89.5,-120.5 0.5,-120.5"/>
<text text-anchor="middle" x="45" y="-128.5" font-family="Helvetica,sans-Serif" font-size="10.00">Ui_config_dialog</text>
</a>
</g>
<!-- Node6 -->
<g id="node10" class="node"><title>Node6</title>
<a xlink:href="classUi_1_1config__dialog.html" target="_top" xlink:title="Ui::config_dialog">
<polygon fill="none" stroke="black" points="126.5,-120.5 126.5,-141.5 215.5,-141.5 215.5,-120.5 126.5,-120.5"/>
<text text-anchor="middle" x="171" y="-128.5" font-family="Helvetica,sans-Serif" font-size="10.00">Ui::config_dialog</text>
</a>
</g>
<!-- Node5&#45;&gt;Node6 -->
<g id="edge8" class="edge"><title>Node5&#45;&gt;Node6</title>
<path fill="none" stroke="midnightblue" d="M99.9866,-131C108.802,-131 117.831,-131 126.367,-131"/>
<polygon fill="midnightblue" stroke="midnightblue" points="99.7777,-127.5 89.7777,-131 99.7776,-134.5 99.7777,-127.5"/>
</g>
<!-- Node6&#45;&gt;Node2 -->
<g id="edge10" class="edge"><title>Node6&#45;&gt;Node2</title>
<path fill="none" stroke="#8b1a1a" d="M225.783,-126.357C234.537,-125.616 243.415,-124.863 251.641,-124.166"/>
<polygon fill="#8b1a1a" stroke="#8b1a1a" points="225.279,-122.887 215.611,-127.219 225.871,-129.862 225.279,-122.887"/>
</g>
<!-- Node7 -->
<g id="node12" class="node"><title>Node7</title>
<a xlink:href="classUi__GridConfig.html" target="_top" xlink:title="Ui_GridConfig">
<polygon fill="none" stroke="black" points="6,-40.5 6,-61.5 84,-61.5 84,-40.5 6,-40.5"/>
<text text-anchor="middle" x="45" y="-48.5" font-family="Helvetica,sans-Serif" font-size="10.00">Ui_GridConfig</text>
</a>
</g>
<!-- Node8 -->
<g id="node14" class="node"><title>Node8</title>
<a xlink:href="classUi_1_1GridConfig.html" target="_top" xlink:title="Ui::GridConfig">
<polygon fill="none" stroke="black" points="131.5,-40.5 131.5,-61.5 210.5,-61.5 210.5,-40.5 131.5,-40.5"/>
<text text-anchor="middle" x="171" y="-48.5" font-family="Helvetica,sans-Serif" font-size="10.00">Ui::GridConfig</text>
</a>
</g>
<!-- Node7&#45;&gt;Node8 -->
<g id="edge12" class="edge"><title>Node7&#45;&gt;Node8</title>
<path fill="none" stroke="midnightblue" d="M94.2979,-51C106.605,-51 119.645,-51 131.414,-51"/>
<polygon fill="midnightblue" stroke="midnightblue" points="94.1765,-47.5001 84.1765,-51 94.1765,-54.5001 94.1765,-47.5001"/>
</g>
<!-- Node8&#45;&gt;Node3 -->
<g id="edge14" class="edge"><title>Node8&#45;&gt;Node3</title>
<path fill="none" stroke="#8b1a1a" d="M220.868,-55.2261C233.282,-56.2781 246.248,-57.377 257.497,-58.3302"/>
<polygon fill="#8b1a1a" stroke="#8b1a1a" points="220.88,-51.7147 210.621,-54.3577 220.289,-58.6897 220.88,-51.7147"/>
</g>
<!-- Node9 -->
<g id="node16" class="node"><title>Node9</title>
<a xlink:href="classUi__StyleDialog.html" target="_top" xlink:title="Ui_StyleDialog">
<polygon fill="none" stroke="black" points="4,-0.5 4,-21.5 86,-21.5 86,-0.5 4,-0.5"/>
<text text-anchor="middle" x="45" y="-8.5" font-family="Helvetica,sans-Serif" font-size="10.00">Ui_StyleDialog</text>
</a>
</g>
<!-- Node10 -->
<g id="node18" class="node"><title>Node10</title>
<a xlink:href="classUi_1_1StyleDialog.html" target="_top" xlink:title="Ui::StyleDialog">
<polygon fill="none" stroke="black" points="129.5,-0.5 129.5,-21.5 212.5,-21.5 212.5,-0.5 129.5,-0.5"/>
<text text-anchor="middle" x="171" y="-8.5" font-family="Helvetica,sans-Serif" font-size="10.00">Ui::StyleDialog</text>
</a>
</g>
<!-- Node9&#45;&gt;Node10 -->
<g id="edge16" class="edge"><title>Node9&#45;&gt;Node10</title>
<path fill="none" stroke="midnightblue" d="M96.5032,-11C107.388,-11 118.746,-11 129.219,-11"/>
<polygon fill="midnightblue" stroke="midnightblue" points="96.2571,-7.5001 86.2571,-11 96.2571,-14.5001 96.2571,-7.5001"/>
</g>
<!-- Node10&#45;&gt;Node4 -->
<g id="edge18" class="edge"><title>Node10&#45;&gt;Node4</title>
<path fill="none" stroke="#8b1a1a" d="M222.927,-11C233.852,-11 245.106,-11 255.16,-11"/>
<polygon fill="#8b1a1a" stroke="#8b1a1a" points="222.602,-7.5001 212.602,-11 222.602,-14.5001 222.602,-7.5001"/>
</g>
</g>
</svg>
