<?xml version="1.0" encoding="UTF-8" standalone="no"?>
<!DOCTYPE svg PUBLIC "-//W3C//DTD SVG 1.1//EN"
 "http://www.w3.org/Graphics/SVG/1.1/DTD/svg11.dtd">
<!-- Generated by graphviz version 2.26.3 (20100126.1600)
 -->
<!-- Title: G Pages: 1 -->
<svg width="344pt" height="70pt"
 viewBox="0.00 0.00 344.00 70.00" xmlns="http://www.w3.org/2000/svg" xmlns:xlink="http://www.w3.org/1999/xlink">
<g id="graph1" class="graph" transform="scale(1 1) rotate(0) translate(4 66)">
<title>G</title>
<!-- Node1 -->
<g id="node1" class="node"><title>Node1</title>
<a xlink:href="classQMainWindow.html" target="_top" xlink:title="QMainWindow">
<polygon fill="none" stroke="black" points="135,-40.5 135,-61.5 215,-61.5 215,-40.5 135,-40.5"/>
<text text-anchor="middle" x="175" y="-48.5" font-family="Helvetica,sans-Serif" font-size="10.00">QMainWindow</text>
</a>
</g>
<!-- Node2 -->
<g id="node3" class="node"><title>Node2</title>
<a xlink:href="classKnot__Window.html" target="_top" xlink:title="Knot_Window">
<polygon fill="none" stroke="black" points="258.5,-20.5 258.5,-41.5 335.5,-41.5 335.5,-20.5 258.5,-20.5"/>
<text text-anchor="middle" x="297" y="-28.5" font-family="Helvetica,sans-Serif" font-size="10.00">Knot_Window</text>
</a>
</g>
<!-- Node1&#45;&gt;Node2 -->
<g id="edge2" class="edge"><title>Node1&#45;&gt;Node2</title>
<path fill="none" stroke="midnightblue" d="M225.27,-42.7591C236.338,-40.9446 247.893,-39.0504 258.414,-37.3256"/>
<polygon fill="midnightblue" stroke="midnightblue" points="224.588,-39.3241 215.285,-44.3958 225.72,-46.2319 224.588,-39.3241"/>
</g>
<!-- Node3 -->
<g id="node4" class="node"><title>Node3</title>
<a xlink:href="classUi__Knot__Window.html" target="_top" xlink:title="Ui_Knot_Window">
<polygon fill="none" stroke="black" points="0,-0.5 0,-21.5 92,-21.5 92,-0.5 0,-0.5"/>
<text text-anchor="middle" x="46" y="-8.5" font-family="Helvetica,sans-Serif" font-size="10.00">Ui_Knot_Window</text>
</a>
</g>
<!-- Node4 -->
<g id="node6" class="node"><title>Node4</title>
<a xlink:href="classUi_1_1Knot__Window.html" target="_top" xlink:title="Ui::Knot_Window">
<polygon fill="none" stroke="black" points="128.5,-0.5 128.5,-21.5 221.5,-21.5 221.5,-0.5 128.5,-0.5"/>
<text text-anchor="middle" x="175" y="-8.5" font-family="Helvetica,sans-Serif" font-size="10.00">Ui::Knot_Window</text>
</a>
</g>
<!-- Node3&#45;&gt;Node4 -->
<g id="edge4" class="edge"><title>Node3&#45;&gt;Node4</title>
<path fill="none" stroke="midnightblue" d="M102.259,-11C110.933,-11 119.81,-11 128.247,-11"/>
<polygon fill="midnightblue" stroke="midnightblue" points="102.208,-7.5001 92.2076,-11 102.208,-14.5001 102.208,-7.5001"/>
</g>
<!-- Node4&#45;&gt;Node2 -->
<g id="edge6" class="edge"><title>Node4&#45;&gt;Node2</title>
<path fill="none" stroke="#8b1a1a" d="M231.876,-20.324C240.866,-21.7977 249.976,-23.2911 258.419,-24.6753"/>
<polygon fill="#8b1a1a" stroke="#8b1a1a" points="232.254,-16.8393 221.819,-18.6753 231.122,-23.7471 232.254,-16.8393"/>
</g>
</g>
</svg>
