<?xml version="1.0" encoding="UTF-8" standalone="no"?>
<!DOCTYPE svg PUBLIC "-//W3C//DTD SVG 1.1//EN"
 "http://www.w3.org/Graphics/SVG/1.1/DTD/svg11.dtd">
<!-- Generated by graphviz version 2.26.3 (20100126.1600)
 -->
<!-- Title: G Pages: 1 -->
<svg width="604pt" height="262pt"
 viewBox="0.00 0.00 604.00 262.00" xmlns="http://www.w3.org/2000/svg" xmlns:xlink="http://www.w3.org/1999/xlink">
<g id="graph1" class="graph" transform="scale(1 1) rotate(0) translate(4 258)">
<title>G</title>
<!-- Node1 -->
<g id="node1" class="node"><title>Node1</title>
<polygon fill="#bfbfbf" stroke="black" points="310,-232.5 310,-253.5 384,-253.5 384,-232.5 310,-232.5"/>
<text text-anchor="middle" x="347" y="-240.5" font-family="Helvetica,sans-Serif" font-size="10.00">knotview.hpp</text>
</g>
<!-- Node2 -->
<g id="node3" class="node"><title>Node2</title>
<a xlink:href="clipboard_8hpp.html" target="_top" xlink:title="clipboard.hpp">
<polygon fill="none" stroke="black" points="65,-174.5 65,-195.5 139,-195.5 139,-174.5 65,-174.5"/>
<text text-anchor="middle" x="102" y="-182.5" font-family="Helvetica,sans-Serif" font-size="10.00">clipboard.hpp</text>
</a>
</g>
<!-- Node1&#45;&gt;Node2 -->
<g id="edge2" class="edge"><title>Node1&#45;&gt;Node2</title>
<path fill="none" stroke="midnightblue" d="M299.889,-231.847C253.053,-220.76 182.162,-203.977 139.158,-193.797"/>
<polygon fill="midnightblue" stroke="midnightblue" points="299.252,-235.293 309.79,-234.191 300.865,-228.481 299.252,-235.293"/>
</g>
<!-- Node8 -->
<g id="node15" class="node"><title>Node8</title>
<a xlink:href="commands_8hpp.html" target="_top" xlink:title="commands.hpp">
<polygon fill="none" stroke="black" points="359.5,-174.5 359.5,-195.5 442.5,-195.5 442.5,-174.5 359.5,-174.5"/>
<text text-anchor="middle" x="401" y="-182.5" font-family="Helvetica,sans-Serif" font-size="10.00">commands.hpp</text>
</a>
</g>
<!-- Node1&#45;&gt;Node8 -->
<g id="edge14" class="edge"><title>Node1&#45;&gt;Node8</title>
<path fill="none" stroke="midnightblue" d="M363.917,-224.83C372.875,-215.208 383.563,-203.728 391.158,-195.571"/>
<polygon fill="midnightblue" stroke="midnightblue" points="361.157,-222.658 356.904,-232.362 366.28,-227.428 361.157,-222.658"/>
</g>
<!-- Node9 -->
<g id="node18" class="node"><title>Node9</title>
<a xlink:href="knotview_8cpp.html" target="_top" xlink:title="knotview.cpp">
<polygon fill="none" stroke="black" points="435,-116.5 435,-137.5 509,-137.5 509,-116.5 435,-116.5"/>
<text text-anchor="middle" x="472" y="-124.5" font-family="Helvetica,sans-Serif" font-size="10.00">knotview.cpp</text>
</a>
</g>
<!-- Node1&#45;&gt;Node9 -->
<g id="edge34" class="edge"><title>Node1&#45;&gt;Node9</title>
<path fill="none" stroke="midnightblue" d="M393.806,-231.297C413.889,-224.118 436.108,-212.948 451,-196 465.712,-179.256 470.118,-152.438 471.437,-137.65"/>
<polygon fill="midnightblue" stroke="midnightblue" points="392.543,-228.029 384.16,-234.508 394.754,-234.67 392.543,-228.029"/>
</g>
<!-- Node10 -->
<g id="node20" class="node"><title>Node10</title>
<a xlink:href="ui__knot__window_8h.html" target="_top" xlink:title="ui_knot_window.h">
<polygon fill="none" stroke="black" points="130.5,-116.5 130.5,-137.5 225.5,-137.5 225.5,-116.5 130.5,-116.5"/>
<text text-anchor="middle" x="178" y="-124.5" font-family="Helvetica,sans-Serif" font-size="10.00">ui_knot_window.h</text>
</a>
</g>
<!-- Node1&#45;&gt;Node10 -->
<g id="edge20" class="edge"><title>Node1&#45;&gt;Node10</title>
<path fill="none" stroke="midnightblue" d="M304.469,-228.799C284.195,-220.901 260.233,-209.85 241,-196 217.569,-179.127 196.264,-152.36 185.456,-137.614"/>
<polygon fill="midnightblue" stroke="midnightblue" points="303.496,-232.173 314.088,-232.421 305.963,-225.622 303.496,-232.173"/>
</g>
<!-- Node11 -->
<g id="node23" class="node"><title>Node11</title>
<a xlink:href="ui__style__dialog_8h.html" target="_top" xlink:title="ui_style_dialog.h">
<polygon fill="none" stroke="black" points="249.5,-174.5 249.5,-195.5 338.5,-195.5 338.5,-174.5 249.5,-174.5"/>
<text text-anchor="middle" x="294" y="-182.5" font-family="Helvetica,sans-Serif" font-size="10.00">ui_style_dialog.h</text>
</a>
</g>
<!-- Node1&#45;&gt;Node11 -->
<g id="edge24" class="edge"><title>Node1&#45;&gt;Node11</title>
<path fill="none" stroke="midnightblue" d="M330.396,-224.83C321.604,-215.208 311.114,-203.728 303.659,-195.571"/>
<polygon fill="midnightblue" stroke="midnightblue" points="327.949,-227.341 337.279,-232.362 333.117,-222.619 327.949,-227.341"/>
</g>
<!-- Node15 -->
<g id="node33" class="node"><title>Node15</title>
<a xlink:href="moc__knotview_8cpp.html" target="_top" xlink:title="moc_knotview.cpp">
<polygon fill="none" stroke="black" points="498,-174.5 498,-195.5 596,-195.5 596,-174.5 498,-174.5"/>
<text text-anchor="middle" x="547" y="-182.5" font-family="Helvetica,sans-Serif" font-size="10.00">moc_knotview.cpp</text>
</a>
</g>
<!-- Node1&#45;&gt;Node15 -->
<g id="edge36" class="edge"><title>Node1&#45;&gt;Node15</title>
<path fill="none" stroke="midnightblue" d="M392.933,-229.68C428.7,-219.307 477.663,-205.108 510.714,-195.523"/>
<polygon fill="midnightblue" stroke="midnightblue" points="391.848,-226.35 383.218,-232.497 393.798,-233.073 391.848,-226.35"/>
</g>
<!-- Node3 -->
<g id="node5" class="node"><title>Node3</title>
<a xlink:href="clipboard_8cpp.html" target="_top" xlink:title="clipboard.cpp">
<polygon fill="none" stroke="black" points="0,-116.5 0,-137.5 74,-137.5 74,-116.5 0,-116.5"/>
<text text-anchor="middle" x="37" y="-124.5" font-family="Helvetica,sans-Serif" font-size="10.00">clipboard.cpp</text>
</a>
</g>
<!-- Node2&#45;&gt;Node3 -->
<g id="edge4" class="edge"><title>Node2&#45;&gt;Node3</title>
<path fill="none" stroke="midnightblue" d="M82.6017,-167.691C71.6289,-157.9 58.2628,-145.973 48.8464,-137.571"/>
<polygon fill="midnightblue" stroke="midnightblue" points="80.2863,-170.315 90.078,-174.362 84.9468,-165.092 80.2863,-170.315"/>
</g>
<!-- Node4 -->
<g id="node7" class="node"><title>Node4</title>
<a xlink:href="knot__window_8hpp.html" target="_top" xlink:title="knot_window.hpp">
<polygon fill="none" stroke="black" points="55,-58.5 55,-79.5 147,-79.5 147,-58.5 55,-58.5"/>
<text text-anchor="middle" x="101" y="-66.5" font-family="Helvetica,sans-Serif" font-size="10.00">knot_window.hpp</text>
</a>
</g>
<!-- Node2&#45;&gt;Node4 -->
<g id="edge6" class="edge"><title>Node2&#45;&gt;Node4</title>
<path fill="none" stroke="midnightblue" d="M101.82,-164.123C101.606,-139.298 101.257,-98.8235 101.092,-79.6792"/>
<polygon fill="midnightblue" stroke="midnightblue" points="98.3215,-164.325 101.908,-174.295 105.321,-164.265 98.3215,-164.325"/>
</g>
<!-- Node5 -->
<g id="node9" class="node"><title>Node5</title>
<a xlink:href="knot__window_8cpp.html" target="_top" xlink:title="knot_window.cpp">
<polygon fill="none" stroke="black" points="295,-0.5 295,-21.5 387,-21.5 387,-0.5 295,-0.5"/>
<text text-anchor="middle" x="341" y="-8.5" font-family="Helvetica,sans-Serif" font-size="10.00">knot_window.cpp</text>
</a>
</g>
<!-- Node4&#45;&gt;Node5 -->
<g id="edge8" class="edge"><title>Node4&#45;&gt;Node5</title>
<path fill="none" stroke="midnightblue" d="M154.204,-56.1424C197.278,-45.7328 257.202,-31.2511 297.456,-21.5231"/>
<polygon fill="midnightblue" stroke="midnightblue" points="153.36,-52.7455 144.462,-58.4966 155.005,-59.5496 153.36,-52.7455"/>
</g>
<!-- Node6 -->
<g id="node11" class="node"><title>Node6</title>
<a xlink:href="main_8cpp.html" target="_top" xlink:title="main.cpp">
<polygon fill="none" stroke="black" points="21,-0.5 21,-21.5 77,-21.5 77,-0.5 21,-0.5"/>
<text text-anchor="middle" x="49" y="-8.5" font-family="Helvetica,sans-Serif" font-size="10.00">main.cpp</text>
</a>
</g>
<!-- Node4&#45;&gt;Node6 -->
<g id="edge10" class="edge"><title>Node4&#45;&gt;Node6</title>
<path fill="none" stroke="midnightblue" d="M84.7096,-50.8299C76.0829,-41.2078 65.7908,-29.7282 58.4771,-21.5707"/>
<polygon fill="midnightblue" stroke="midnightblue" points="82.1809,-53.2526 91.4624,-58.3619 87.3929,-48.5798 82.1809,-53.2526"/>
</g>
<!-- Node7 -->
<g id="node13" class="node"><title>Node7</title>
<a xlink:href="moc__knot__window_8cpp.html" target="_top" xlink:title="moc_knot_window.cpp">
<polygon fill="none" stroke="black" points="95,-0.5 95,-21.5 211,-21.5 211,-0.5 95,-0.5"/>
<text text-anchor="middle" x="153" y="-8.5" font-family="Helvetica,sans-Serif" font-size="10.00">moc_knot_window.cpp</text>
</a>
</g>
<!-- Node4&#45;&gt;Node7 -->
<g id="edge12" class="edge"><title>Node4&#45;&gt;Node7</title>
<path fill="none" stroke="midnightblue" d="M117.29,-50.8299C125.917,-41.2078 136.209,-29.7282 143.523,-21.5707"/>
<polygon fill="midnightblue" stroke="midnightblue" points="114.607,-48.5798 110.538,-58.3619 119.819,-53.2526 114.607,-48.5798"/>
</g>
<!-- Node8&#45;&gt;Node5 -->
<g id="edge16" class="edge"><title>Node8&#45;&gt;Node5</title>
<path fill="none" stroke="midnightblue" d="M403.016,-163.893C404.607,-137.716 404.328,-92.3514 388,-58 380.966,-43.2005 367.274,-30.3583 356.475,-21.8555"/>
<polygon fill="midnightblue" stroke="midnightblue" points="399.504,-163.919 402.234,-174.156 406.484,-164.451 399.504,-163.919"/>
</g>
<!-- Node8&#45;&gt;Node9 -->
<g id="edge18" class="edge"><title>Node8&#45;&gt;Node9</title>
<path fill="none" stroke="midnightblue" d="M421.841,-167.975C433.891,-158.132 448.675,-146.055 459.06,-137.571"/>
<polygon fill="midnightblue" stroke="midnightblue" points="419.553,-165.325 414.022,-174.362 423.981,-170.746 419.553,-165.325"/>
</g>
<!-- Node10&#45;&gt;Node4 -->
<g id="edge22" class="edge"><title>Node10&#45;&gt;Node4</title>
<path fill="none" stroke="midnightblue" d="M155.774,-110.259C142.639,-100.364 126.405,-88.1361 115.033,-79.5707"/>
<polygon fill="midnightblue" stroke="midnightblue" points="153.784,-113.141 163.877,-116.362 157.995,-107.55 153.784,-113.141"/>
</g>
<!-- Node12 -->
<g id="node25" class="node"><title>Node12</title>
<a xlink:href="style__dialog_8hpp.html" target="_top" xlink:title="style_dialog.hpp">
<polygon fill="none" stroke="black" points="242.5,-116.5 242.5,-137.5 329.5,-137.5 329.5,-116.5 242.5,-116.5"/>
<text text-anchor="middle" x="286" y="-124.5" font-family="Helvetica,sans-Serif" font-size="10.00">style_dialog.hpp</text>
</a>
</g>
<!-- Node11&#45;&gt;Node12 -->
<g id="edge26" class="edge"><title>Node11&#45;&gt;Node12</title>
<path fill="none" stroke="midnightblue" d="M291.13,-164.191C289.885,-155.168 288.482,-144.994 287.458,-137.571"/>
<polygon fill="midnightblue" stroke="midnightblue" points="287.699,-164.934 292.533,-174.362 294.633,-163.977 287.699,-164.934"/>
</g>
<!-- Node12&#45;&gt;Node4 -->
<g id="edge28" class="edge"><title>Node12&#45;&gt;Node4</title>
<path fill="none" stroke="midnightblue" d="M242.661,-113.413C209.654,-103.065 164.876,-89.0258 134.565,-79.5231"/>
<polygon fill="midnightblue" stroke="midnightblue" points="241.909,-116.845 252.498,-116.497 244.003,-110.165 241.909,-116.845"/>
</g>
<!-- Node13 -->
<g id="node28" class="node"><title>Node13</title>
<a xlink:href="moc__style__dialog_8cpp.html" target="_top" xlink:title="moc_style_dialog.cpp">
<polygon fill="none" stroke="black" points="164.5,-58.5 164.5,-79.5 275.5,-79.5 275.5,-58.5 164.5,-58.5"/>
<text text-anchor="middle" x="220" y="-66.5" font-family="Helvetica,sans-Serif" font-size="10.00">moc_style_dialog.cpp</text>
</a>
</g>
<!-- Node12&#45;&gt;Node13 -->
<g id="edge30" class="edge"><title>Node12&#45;&gt;Node13</title>
<path fill="none" stroke="midnightblue" d="M266.303,-109.691C255.162,-99.8996 241.59,-87.973 232.029,-79.5707"/>
<polygon fill="midnightblue" stroke="midnightblue" points="264.072,-112.39 273.895,-116.362 268.693,-107.132 264.072,-112.39"/>
</g>
<!-- Node14 -->
<g id="node30" class="node"><title>Node14</title>
<a xlink:href="style__dialog_8cpp.html" target="_top" xlink:title="style_dialog.cpp">
<polygon fill="none" stroke="black" points="292.5,-58.5 292.5,-79.5 379.5,-79.5 379.5,-58.5 292.5,-58.5"/>
<text text-anchor="middle" x="336" y="-66.5" font-family="Helvetica,sans-Serif" font-size="10.00">style_dialog.cpp</text>
</a>
</g>
<!-- Node12&#45;&gt;Node14 -->
<g id="edge32" class="edge"><title>Node12&#45;&gt;Node14</title>
<path fill="none" stroke="midnightblue" d="M301.913,-108.541C310.156,-98.9786 319.925,-87.6467 326.887,-79.5707"/>
<polygon fill="midnightblue" stroke="midnightblue" points="299.049,-106.502 295.171,-116.362 304.351,-111.073 299.049,-106.502"/>
</g>
</g>
</svg>
