<?xml version="1.0" encoding="UTF-8" standalone="no"?>
<!DOCTYPE svg PUBLIC "-//W3C//DTD SVG 1.1//EN"
 "http://www.w3.org/Graphics/SVG/1.1/DTD/svg11.dtd">
<!-- Generated by graphviz version 2.26.3 (20100126.1600)
 -->
<!-- Title: G Pages: 1 -->
<svg width="2633pt" height="610pt"
 viewBox="0.00 0.00 2632.54 610.00" xmlns="http://www.w3.org/2000/svg" xmlns:xlink="http://www.w3.org/1999/xlink">
<g id="graph1" class="graph" transform="scale(1 1) rotate(0) translate(4 606)">
<title>G</title>
<!-- Node1 -->
<g id="node1" class="node"><title>Node1</title>
<polygon fill="#bfbfbf" stroke="black" points="2290,-580.5 2290,-601.5 2382,-601.5 2382,-580.5 2290,-580.5"/>
<text text-anchor="middle" x="2336" y="-588.5" font-family="Helvetica,sans-Serif" font-size="10.00">knot_window.cpp</text>
</g>
<!-- Node2 -->
<g id="node3" class="node"><title>Node2</title>
<a xlink:href="knot__window_8hpp.html" target="_top" xlink:title="knot_window.hpp">
<polygon fill="none" stroke="black" points="2078,-522.5 2078,-543.5 2170,-543.5 2170,-522.5 2078,-522.5"/>
<text text-anchor="middle" x="2124" y="-530.5" font-family="Helvetica,sans-Serif" font-size="10.00">knot_window.hpp</text>
</a>
</g>
<!-- Node1&#45;&gt;Node2 -->
<g id="edge2" class="edge"><title>Node1&#45;&gt;Node2</title>
<path fill="none" stroke="midnightblue" d="M2297.61,-580.497C2262.45,-570.877 2210.26,-556.598 2172.28,-546.209"/>
<polygon fill="midnightblue" stroke="midnightblue" points="2173.03,-542.786 2162.46,-543.523 2171.19,-549.538 2173.03,-542.786"/>
</g>
<!-- Node44 -->
<g id="node102" class="node"><title>Node44</title>
<a xlink:href="commands_8hpp.html" target="_top" xlink:title="commands.hpp">
<polygon fill="none" stroke="black" points="2248.5,-522.5 2248.5,-543.5 2331.5,-543.5 2331.5,-522.5 2248.5,-522.5"/>
<text text-anchor="middle" x="2290" y="-530.5" font-family="Helvetica,sans-Serif" font-size="10.00">commands.hpp</text>
</a>
</g>
<!-- Node1&#45;&gt;Node44 -->
<g id="edge116" class="edge"><title>Node1&#45;&gt;Node44</title>
<path fill="none" stroke="midnightblue" d="M2327.56,-580.362C2321.21,-572.35 2312.33,-561.161 2304.81,-551.67"/>
<polygon fill="midnightblue" stroke="midnightblue" points="2307.34,-549.231 2298.38,-543.571 2301.86,-553.581 2307.34,-549.231"/>
</g>
<!-- Node46 -->
<g id="node107" class="node"><title>Node46</title>
<polygon fill="none" stroke="#bfbfbf" points="2349,-522.5 2349,-543.5 2417,-543.5 2417,-522.5 2349,-522.5"/>
<text text-anchor="middle" x="2383" y="-530.5" font-family="Helvetica,sans-Serif" font-size="10.00">QFileDialog</text>
</g>
<!-- Node1&#45;&gt;Node46 -->
<g id="edge122" class="edge"><title>Node1&#45;&gt;Node46</title>
<path fill="none" stroke="midnightblue" d="M2344.62,-580.362C2351.18,-572.268 2360.37,-560.932 2368.11,-551.38"/>
<polygon fill="midnightblue" stroke="midnightblue" points="2370.86,-553.544 2374.43,-543.571 2365.42,-549.136 2370.86,-553.544"/>
</g>
<!-- Node47 -->
<g id="node109" class="node"><title>Node47</title>
<polygon fill="none" stroke="#bfbfbf" points="2434.5,-522.5 2434.5,-543.5 2515.5,-543.5 2515.5,-522.5 2434.5,-522.5"/>
<text text-anchor="middle" x="2475" y="-530.5" font-family="Helvetica,sans-Serif" font-size="10.00">QMessageBox</text>
</g>
<!-- Node1&#45;&gt;Node47 -->
<g id="edge124" class="edge"><title>Node1&#45;&gt;Node47</title>
<path fill="none" stroke="midnightblue" d="M2361.17,-580.497C2383.27,-571.275 2415.64,-557.769 2440.21,-547.515"/>
<polygon fill="midnightblue" stroke="midnightblue" points="2441.66,-550.702 2449.55,-543.621 2438.97,-544.242 2441.66,-550.702"/>
</g>
<!-- Node3 -->
<g id="node5" class="node"><title>Node3</title>
<a xlink:href="ui__knot__window_8h.html" target="_top" xlink:title="ui_knot_window.h">
<polygon fill="none" stroke="black" points="695.5,-406.5 695.5,-427.5 790.5,-427.5 790.5,-406.5 695.5,-406.5"/>
<text text-anchor="middle" x="743" y="-414.5" font-family="Helvetica,sans-Serif" font-size="10.00">ui_knot_window.h</text>
</a>
</g>
<!-- Node2&#45;&gt;Node3 -->
<g id="edge4" class="edge"><title>Node2&#45;&gt;Node3</title>
<path fill="none" stroke="midnightblue" d="M2103.87,-522.34C2086.17,-512.92 2059.77,-498.74 2037,-486 2019.97,-476.472 2017.75,-469.414 1999,-464 1883.25,-430.577 1032.4,-419.842 800.97,-417.524"/>
<polygon fill="midnightblue" stroke="midnightblue" points="800.777,-414.022 790.743,-417.423 800.708,-421.022 800.777,-414.022"/>
</g>
<!-- Node22 -->
<g id="node45" class="node"><title>Node22</title>
<polygon fill="none" stroke="#bfbfbf" points="2057.5,-290.5 2057.5,-311.5 2130.5,-311.5 2130.5,-290.5 2057.5,-290.5"/>
<text text-anchor="middle" x="2094" y="-298.5" font-family="Helvetica,sans-Serif" font-size="10.00">QUndoStack</text>
</g>
<!-- Node2&#45;&gt;Node22 -->
<g id="edge66" class="edge"><title>Node2&#45;&gt;Node22</title>
<path fill="none" stroke="midnightblue" d="M2129.01,-522.464C2133.16,-513.125 2138.72,-498.991 2141,-486 2151.59,-425.588 2164.47,-404.665 2141,-348 2136.15,-336.291 2126.81,-325.978 2117.73,-318.019"/>
<polygon fill="midnightblue" stroke="midnightblue" points="2119.89,-315.266 2109.93,-311.654 2115.46,-320.689 2119.89,-315.266"/>
</g>
<!-- Node28 -->
<g id="node62" class="node"><title>Node28</title>
<polygon fill="none" stroke="#bfbfbf" points="1921.5,-464.5 1921.5,-485.5 1990.5,-485.5 1990.5,-464.5 1921.5,-464.5"/>
<text text-anchor="middle" x="1956" y="-472.5" font-family="Helvetica,sans-Serif" font-size="10.00">QUndoView</text>
</g>
<!-- Node2&#45;&gt;Node28 -->
<g id="edge68" class="edge"><title>Node2&#45;&gt;Node28</title>
<path fill="none" stroke="midnightblue" d="M2093.58,-522.497C2066.31,-513.082 2026.11,-499.204 1996.2,-488.877"/>
<polygon fill="midnightblue" stroke="midnightblue" points="1997.08,-485.478 1986.48,-485.523 1994.79,-492.095 1997.08,-485.478"/>
</g>
<!-- Node29 -->
<g id="node64" class="node"><title>Node29</title>
<a xlink:href="style__dialog_8hpp.html" target="_top" xlink:title="style_dialog.hpp">
<polygon fill="none" stroke="black" points="2045.5,-464.5 2045.5,-485.5 2132.5,-485.5 2132.5,-464.5 2045.5,-464.5"/>
<text text-anchor="middle" x="2089" y="-472.5" font-family="Helvetica,sans-Serif" font-size="10.00">style_dialog.hpp</text>
</a>
</g>
<!-- Node2&#45;&gt;Node29 -->
<g id="edge70" class="edge"><title>Node2&#45;&gt;Node29</title>
<path fill="none" stroke="midnightblue" d="M2117.58,-522.362C2112.84,-514.513 2106.27,-503.616 2100.62,-494.253"/>
<polygon fill="midnightblue" stroke="midnightblue" points="2103.54,-492.324 2095.38,-485.571 2097.55,-495.941 2103.54,-492.324"/>
</g>
<!-- Node43 -->
<g id="node99" class="node"><title>Node43</title>
<a xlink:href="clipboard_8hpp.html" target="_top" xlink:title="clipboard.hpp">
<polygon fill="none" stroke="black" points="2188,-406.5 2188,-427.5 2262,-427.5 2262,-406.5 2188,-406.5"/>
<text text-anchor="middle" x="2225" y="-414.5" font-family="Helvetica,sans-Serif" font-size="10.00">clipboard.hpp</text>
</a>
</g>
<!-- Node2&#45;&gt;Node43 -->
<g id="edge112" class="edge"><title>Node2&#45;&gt;Node43</title>
<path fill="none" stroke="midnightblue" d="M2136.51,-522.37C2147,-513.199 2162.13,-499.359 2174,-486 2188.12,-470.105 2202.35,-450.485 2212.18,-436.235"/>
<polygon fill="midnightblue" stroke="midnightblue" points="2215.23,-437.977 2217.95,-427.739 2209.44,-434.041 2215.23,-437.977"/>
</g>
<!-- Node4 -->
<g id="node7" class="node"><title>Node4</title>
<polygon fill="none" stroke="#bfbfbf" points="647.5,-348.5 647.5,-369.5 736.5,-369.5 736.5,-348.5 647.5,-348.5"/>
<text text-anchor="middle" x="692" y="-356.5" font-family="Helvetica,sans-Serif" font-size="10.00">QtCore/QVariant</text>
</g>
<!-- Node3&#45;&gt;Node4 -->
<g id="edge6" class="edge"><title>Node3&#45;&gt;Node4</title>
<path fill="none" stroke="midnightblue" d="M733.646,-406.362C726.457,-398.186 716.359,-386.702 707.907,-377.091"/>
<polygon fill="midnightblue" stroke="midnightblue" points="710.527,-374.769 701.295,-369.571 705.27,-379.392 710.527,-374.769"/>
</g>
<!-- Node5 -->
<g id="node9" class="node"><title>Node5</title>
<polygon fill="none" stroke="#bfbfbf" points="754,-348.5 754,-369.5 834,-369.5 834,-348.5 754,-348.5"/>
<text text-anchor="middle" x="794" y="-356.5" font-family="Helvetica,sans-Serif" font-size="10.00">QtGui/QAction</text>
</g>
<!-- Node3&#45;&gt;Node5 -->
<g id="edge8" class="edge"><title>Node3&#45;&gt;Node5</title>
<path fill="none" stroke="midnightblue" d="M752.354,-406.362C759.543,-398.186 769.641,-386.702 778.093,-377.091"/>
<polygon fill="midnightblue" stroke="midnightblue" points="780.73,-379.392 784.705,-369.571 775.473,-374.769 780.73,-379.392"/>
</g>
<!-- Node6 -->
<g id="node11" class="node"><title>Node6</title>
<polygon fill="none" stroke="#bfbfbf" points="851.5,-348.5 851.5,-369.5 952.5,-369.5 952.5,-348.5 851.5,-348.5"/>
<text text-anchor="middle" x="902" y="-356.5" font-family="Helvetica,sans-Serif" font-size="10.00">QtGui/QApplication</text>
</g>
<!-- Node3&#45;&gt;Node6 -->
<g id="edge10" class="edge"><title>Node3&#45;&gt;Node6</title>
<path fill="none" stroke="midnightblue" d="M771.794,-406.497C797.491,-397.123 835.318,-383.324 863.587,-373.012"/>
<polygon fill="midnightblue" stroke="midnightblue" points="864.957,-376.238 873.152,-369.523 862.558,-369.662 864.957,-376.238"/>
</g>
<!-- Node7 -->
<g id="node13" class="node"><title>Node7</title>
<polygon fill="none" stroke="#bfbfbf" points="969.5,-348.5 969.5,-369.5 1076.5,-369.5 1076.5,-348.5 969.5,-348.5"/>
<text text-anchor="middle" x="1023" y="-356.5" font-family="Helvetica,sans-Serif" font-size="10.00">QtGui/QButtonGroup</text>
</g>
<!-- Node3&#45;&gt;Node7 -->
<g id="edge12" class="edge"><title>Node3&#45;&gt;Node7</title>
<path fill="none" stroke="midnightblue" d="M790.816,-407.095C838.113,-397.298 910.68,-382.266 962.082,-371.619"/>
<polygon fill="midnightblue" stroke="midnightblue" points="962.984,-375.006 972.066,-369.551 961.564,-368.152 962.984,-375.006"/>
</g>
<!-- Node8 -->
<g id="node15" class="node"><title>Node8</title>
<polygon fill="none" stroke="#bfbfbf" points="1094,-348.5 1094,-369.5 1194,-369.5 1194,-348.5 1094,-348.5"/>
<text text-anchor="middle" x="1144" y="-356.5" font-family="Helvetica,sans-Serif" font-size="10.00">QtGui/QGridLayout</text>
</g>
<!-- Node3&#45;&gt;Node8 -->
<g id="edge14" class="edge"><title>Node3&#45;&gt;Node8</title>
<path fill="none" stroke="midnightblue" d="M790.688,-411.177C854.939,-403.17 973.099,-387.877 1083.81,-370.138"/>
<polygon fill="midnightblue" stroke="midnightblue" points="1084.5,-373.572 1093.82,-368.525 1083.39,-366.661 1084.5,-373.572"/>
</g>
<!-- Node9 -->
<g id="node17" class="node"><title>Node9</title>
<polygon fill="none" stroke="#bfbfbf" points="1212,-348.5 1212,-369.5 1318,-369.5 1318,-348.5 1212,-348.5"/>
<text text-anchor="middle" x="1265" y="-356.5" font-family="Helvetica,sans-Serif" font-size="10.00">QtGui/QHeaderView</text>
</g>
<!-- Node3&#45;&gt;Node9 -->
<g id="edge16" class="edge"><title>Node3&#45;&gt;Node9</title>
<path fill="none" stroke="midnightblue" d="M790.819,-413.284C872.766,-406.661 1045.5,-391.588 1201.68,-370.103"/>
<polygon fill="midnightblue" stroke="midnightblue" points="1202.52,-373.521 1211.94,-368.679 1201.55,-366.587 1202.52,-373.521"/>
</g>
<!-- Node10 -->
<g id="node19" class="node"><title>Node10</title>
<polygon fill="none" stroke="#bfbfbf" points="203.5,-348.5 203.5,-369.5 312.5,-369.5 312.5,-348.5 203.5,-348.5"/>
<text text-anchor="middle" x="258" y="-356.5" font-family="Helvetica,sans-Serif" font-size="10.00">QtGui/QMainWindow</text>
</g>
<!-- Node3&#45;&gt;Node10 -->
<g id="edge18" class="edge"><title>Node3&#45;&gt;Node10</title>
<path fill="none" stroke="midnightblue" d="M695.414,-412.669C618.969,-405.501 463.861,-390.082 322.738,-370.187"/>
<polygon fill="midnightblue" stroke="midnightblue" points="322.996,-366.689 312.603,-368.747 322.011,-373.619 322.996,-366.689"/>
</g>
<!-- Node11 -->
<g id="node21" class="node"><title>Node11</title>
<polygon fill="none" stroke="#bfbfbf" points="329.5,-348.5 329.5,-369.5 406.5,-369.5 406.5,-348.5 329.5,-348.5"/>
<text text-anchor="middle" x="368" y="-356.5" font-family="Helvetica,sans-Serif" font-size="10.00">QtGui/QMenu</text>
</g>
<!-- Node3&#45;&gt;Node11 -->
<g id="edge20" class="edge"><title>Node3&#45;&gt;Node11</title>
<path fill="none" stroke="midnightblue" d="M695.256,-411.489C633.216,-404.035 521.343,-389.594 416.767,-370.224"/>
<polygon fill="midnightblue" stroke="midnightblue" points="417.145,-366.734 406.672,-368.334 415.857,-373.614 417.145,-366.734"/>
</g>
<!-- Node12 -->
<g id="node23" class="node"><title>Node12</title>
<polygon fill="none" stroke="#bfbfbf" points="424,-348.5 424,-369.5 516,-369.5 516,-348.5 424,-348.5"/>
<text text-anchor="middle" x="470" y="-356.5" font-family="Helvetica,sans-Serif" font-size="10.00">QtGui/QMenuBar</text>
</g>
<!-- Node3&#45;&gt;Node12 -->
<g id="edge22" class="edge"><title>Node3&#45;&gt;Node12</title>
<path fill="none" stroke="midnightblue" d="M695.447,-406.897C648.283,-396.877 576.026,-381.526 526.087,-370.916"/>
<polygon fill="midnightblue" stroke="midnightblue" points="526.607,-367.448 516.098,-368.794 525.153,-374.296 526.607,-367.448"/>
</g>
<!-- Node13 -->
<g id="node25" class="node"><title>Node13</title>
<polygon fill="none" stroke="#bfbfbf" points="534,-348.5 534,-369.5 630,-369.5 630,-348.5 534,-348.5"/>
<text text-anchor="middle" x="582" y="-356.5" font-family="Helvetica,sans-Serif" font-size="10.00">QtGui/QStatusBar</text>
</g>
<!-- Node3&#45;&gt;Node13 -->
<g id="edge24" class="edge"><title>Node3&#45;&gt;Node13</title>
<path fill="none" stroke="midnightblue" d="M713.844,-406.497C687.824,-397.123 649.521,-383.324 620.896,-373.012"/>
<polygon fill="midnightblue" stroke="midnightblue" points="621.805,-369.62 611.211,-369.523 619.432,-376.205 621.805,-369.62"/>
</g>
<!-- Node14 -->
<g id="node27" class="node"><title>Node14</title>
<polygon fill="none" stroke="#bfbfbf" points="0,-348.5 0,-369.5 86,-369.5 86,-348.5 0,-348.5"/>
<text text-anchor="middle" x="43" y="-356.5" font-family="Helvetica,sans-Serif" font-size="10.00">QtGui/QToolBar</text>
</g>
<!-- Node3&#45;&gt;Node14 -->
<g id="edge26" class="edge"><title>Node3&#45;&gt;Node14</title>
<path fill="none" stroke="midnightblue" d="M695.205,-415.758C589.135,-412.522 325.951,-401.856 96.2707,-370.012"/>
<polygon fill="midnightblue" stroke="midnightblue" points="96.4395,-366.502 86.0501,-368.578 95.4667,-373.434 96.4395,-366.502"/>
</g>
<!-- Node15 -->
<g id="node29" class="node"><title>Node15</title>
<polygon fill="none" stroke="#bfbfbf" points="103.5,-348.5 103.5,-369.5 186.5,-369.5 186.5,-348.5 103.5,-348.5"/>
<text text-anchor="middle" x="145" y="-356.5" font-family="Helvetica,sans-Serif" font-size="10.00">QtGui/QWidget</text>
</g>
<!-- Node3&#45;&gt;Node15 -->
<g id="edge28" class="edge"><title>Node3&#45;&gt;Node15</title>
<path fill="none" stroke="midnightblue" d="M695.474,-415.022C601.793,-410.669 386.586,-398.424 196.826,-370.129"/>
<polygon fill="midnightblue" stroke="midnightblue" points="197.076,-366.627 186.665,-368.594 196.031,-373.548 197.076,-366.627"/>
</g>
<!-- Node16 -->
<g id="node31" class="node"><title>Node16</title>
<a xlink:href="knotview_8hpp.html" target="_top" xlink:title="knotview.hpp">
<polygon fill="none" stroke="black" points="2188,-348.5 2188,-369.5 2262,-369.5 2262,-348.5 2188,-348.5"/>
<text text-anchor="middle" x="2225" y="-356.5" font-family="Helvetica,sans-Serif" font-size="10.00">knotview.hpp</text>
</a>
</g>
<!-- Node3&#45;&gt;Node16 -->
<g id="edge30" class="edge"><title>Node3&#45;&gt;Node16</title>
<path fill="none" stroke="midnightblue" d="M790.72,-416.016C1003.85,-411.526 1870.08,-392.241 2141,-370 2152.9,-369.023 2165.71,-367.559 2177.65,-366.015"/>
<polygon fill="midnightblue" stroke="midnightblue" points="2178.42,-369.442 2187.87,-364.648 2177.49,-362.504 2178.42,-369.442"/>
</g>
<!-- Node17 -->
<g id="node33" class="node"><title>Node17</title>
<polygon fill="none" stroke="#bfbfbf" points="2147.5,-290.5 2147.5,-311.5 2232.5,-311.5 2232.5,-290.5 2147.5,-290.5"/>
<text text-anchor="middle" x="2190" y="-298.5" font-family="Helvetica,sans-Serif" font-size="10.00">QGraphicsView</text>
</g>
<!-- Node16&#45;&gt;Node17 -->
<g id="edge32" class="edge"><title>Node16&#45;&gt;Node17</title>
<path fill="none" stroke="midnightblue" d="M2218.58,-348.362C2213.84,-340.513 2207.27,-329.616 2201.62,-320.253"/>
<polygon fill="midnightblue" stroke="midnightblue" points="2204.54,-318.324 2196.38,-311.571 2198.55,-321.941 2204.54,-318.324"/>
</g>
<!-- Node18 -->
<g id="node35" class="node"><title>Node18</title>
<a xlink:href="node_8hpp.html" target="_top" xlink:title="node.hpp">
<polygon fill="none" stroke="black" points="2544,-174.5 2544,-195.5 2600,-195.5 2600,-174.5 2544,-174.5"/>
<text text-anchor="middle" x="2572" y="-182.5" font-family="Helvetica,sans-Serif" font-size="10.00">node.hpp</text>
</a>
</g>
<!-- Node16&#45;&gt;Node18 -->
<g id="edge34" class="edge"><title>Node16&#45;&gt;Node18</title>
<path fill="none" stroke="midnightblue" d="M2262.24,-354.901C2352.13,-344.154 2576.74,-311.915 2620,-254 2632.98,-236.618 2614.7,-216.154 2597.08,-202.05"/>
<polygon fill="midnightblue" stroke="midnightblue" points="2598.72,-198.902 2588.63,-195.678 2594.51,-204.492 2598.72,-198.902"/>
</g>
<!-- Node21 -->
<g id="node41" class="node"><title>Node21</title>
<a xlink:href="edge_8hpp.html" target="_top" xlink:title="edge.hpp">
<polygon fill="none" stroke="black" points="2324,-116.5 2324,-137.5 2380,-137.5 2380,-116.5 2324,-116.5"/>
<text text-anchor="middle" x="2352" y="-124.5" font-family="Helvetica,sans-Serif" font-size="10.00">edge.hpp</text>
</a>
</g>
<!-- Node16&#45;&gt;Node21 -->
<g id="edge44" class="edge"><title>Node16&#45;&gt;Node21</title>
<path fill="none" stroke="midnightblue" d="M2230.79,-348.429C2250.54,-312.346 2315.5,-193.683 2341.3,-146.55"/>
<polygon fill="midnightblue" stroke="midnightblue" points="2344.45,-148.086 2346.18,-137.634 2338.31,-144.725 2344.45,-148.086"/>
</g>
<!-- Node16&#45;&gt;Node22 -->
<g id="edge46" class="edge"><title>Node16&#45;&gt;Node22</title>
<path fill="none" stroke="midnightblue" d="M2201.28,-348.497C2180.63,-339.356 2150.48,-326.008 2127.4,-315.788"/>
<polygon fill="midnightblue" stroke="midnightblue" points="2128.55,-312.469 2117.99,-311.621 2125.72,-318.87 2128.55,-312.469"/>
</g>
<!-- Node23 -->
<g id="node47" class="node"><title>Node23</title>
<a xlink:href="knotgraph_8hpp.html" target="_top" xlink:title="knotgraph.hpp">
<polygon fill="none" stroke="black" points="2337,-290.5 2337,-311.5 2415,-311.5 2415,-290.5 2337,-290.5"/>
<text text-anchor="middle" x="2376" y="-298.5" font-family="Helvetica,sans-Serif" font-size="10.00">knotgraph.hpp</text>
</a>
</g>
<!-- Node16&#45;&gt;Node23 -->
<g id="edge48" class="edge"><title>Node16&#45;&gt;Node23</title>
<path fill="none" stroke="midnightblue" d="M2252.34,-348.497C2276.64,-339.164 2312.36,-325.445 2339.17,-315.147"/>
<polygon fill="midnightblue" stroke="midnightblue" points="2340.52,-318.376 2348.6,-311.523 2338.01,-311.842 2340.52,-318.376"/>
</g>
<!-- Node19 -->
<g id="node37" class="node"><title>Node19</title>
<a xlink:href="custom__item_8hpp.html" target="_top" xlink:title="custom_item.hpp">
<polygon fill="none" stroke="black" points="2388,-58.5 2388,-79.5 2480,-79.5 2480,-58.5 2388,-58.5"/>
<text text-anchor="middle" x="2434" y="-66.5" font-family="Helvetica,sans-Serif" font-size="10.00">custom_item.hpp</text>
</a>
</g>
<!-- Node18&#45;&gt;Node19 -->
<g id="edge36" class="edge"><title>Node18&#45;&gt;Node19</title>
<path fill="none" stroke="midnightblue" d="M2559.26,-174.295C2535.34,-154.182 2483.48,-110.59 2454.55,-86.2752"/>
<polygon fill="midnightblue" stroke="midnightblue" points="2456.61,-83.4346 2446.7,-79.6792 2452.11,-88.793 2456.61,-83.4346"/>
</g>
<!-- Node18&#45;&gt;Node21 -->
<g id="edge40" class="edge"><title>Node18&#45;&gt;Node21</title>
<path fill="none" stroke="midnightblue" d="M2543.75,-176.482C2540.8,-175.628 2537.84,-174.787 2535,-174 2485.16,-160.195 2427.29,-145.566 2390.19,-136.365"/>
<polygon fill="midnightblue" stroke="midnightblue" points="2390.85,-132.922 2380.3,-133.919 2389.17,-139.717 2390.85,-132.922"/>
</g>
<!-- Node20 -->
<g id="node39" class="node"><title>Node20</title>
<polygon fill="none" stroke="#bfbfbf" points="2392.5,-0.5 2392.5,-21.5 2475.5,-21.5 2475.5,-0.5 2392.5,-0.5"/>
<text text-anchor="middle" x="2434" y="-8.5" font-family="Helvetica,sans-Serif" font-size="10.00">QGraphicsItem</text>
</g>
<!-- Node19&#45;&gt;Node20 -->
<g id="edge38" class="edge"><title>Node19&#45;&gt;Node20</title>
<path fill="none" stroke="midnightblue" d="M2434,-58.3619C2434,-50.9219 2434,-40.7427 2434,-31.7276"/>
<polygon fill="midnightblue" stroke="midnightblue" points="2437.5,-31.5706 2434,-21.5707 2430.5,-31.5707 2437.5,-31.5706"/>
</g>
<!-- Node21&#45;&gt;Node19 -->
<g id="edge42" class="edge"><title>Node21&#45;&gt;Node19</title>
<path fill="none" stroke="midnightblue" d="M2367.04,-116.362C2379.29,-107.696 2396.8,-95.3126 2410.84,-85.3819"/>
<polygon fill="midnightblue" stroke="midnightblue" points="2412.91,-88.2028 2419.06,-79.5707 2408.87,-82.4879 2412.91,-88.2028"/>
</g>
<!-- Node23&#45;&gt;Node18 -->
<g id="edge52" class="edge"><title>Node23&#45;&gt;Node18</title>
<path fill="none" stroke="midnightblue" d="M2415.18,-298.681C2473.74,-294.303 2579.75,-282.557 2603,-254 2615.31,-238.877 2602.91,-218.081 2590.32,-203.282"/>
<polygon fill="midnightblue" stroke="midnightblue" points="2592.79,-200.79 2583.47,-195.752 2587.61,-205.503 2592.79,-200.79"/>
</g>
<!-- Node23&#45;&gt;Node21 -->
<g id="edge54" class="edge"><title>Node23&#45;&gt;Node21</title>
<path fill="none" stroke="midnightblue" d="M2367.25,-290.199C2360.51,-281.144 2351.73,-267.553 2348,-254 2338,-217.688 2343.12,-173.322 2347.64,-147.796"/>
<polygon fill="midnightblue" stroke="midnightblue" points="2351.11,-148.269 2349.55,-137.789 2344.24,-146.953 2351.11,-148.269"/>
</g>
<!-- Node24 -->
<g id="node49" class="node"><title>Node24</title>
<polygon fill="none" stroke="#bfbfbf" points="2375.5,-174.5 2375.5,-195.5 2450.5,-195.5 2450.5,-174.5 2375.5,-174.5"/>
<text text-anchor="middle" x="2413" y="-182.5" font-family="Helvetica,sans-Serif" font-size="10.00">QPainterPath</text>
</g>
<!-- Node23&#45;&gt;Node24 -->
<g id="edge50" class="edge"><title>Node23&#45;&gt;Node24</title>
<path fill="none" stroke="midnightblue" d="M2368.03,-290.35C2358.69,-276.475 2345.62,-251.667 2355,-232 2361.03,-219.353 2372.31,-209.007 2383.33,-201.272"/>
<polygon fill="midnightblue" stroke="midnightblue" points="2385.53,-204.018 2392.01,-195.636 2381.71,-198.148 2385.53,-204.018"/>
</g>
<!-- Node25 -->
<g id="node53" class="node"><title>Node25</title>
<polygon fill="none" stroke="#bfbfbf" points="2363.5,-232.5 2363.5,-253.5 2466.5,-253.5 2466.5,-232.5 2363.5,-232.5"/>
<text text-anchor="middle" x="2415" y="-240.5" font-family="Helvetica,sans-Serif" font-size="10.00">QGraphicsPathItem</text>
</g>
<!-- Node23&#45;&gt;Node25 -->
<g id="edge56" class="edge"><title>Node23&#45;&gt;Node25</title>
<path fill="none" stroke="midnightblue" d="M2383.15,-290.362C2388.49,-282.431 2395.91,-271.389 2402.25,-261.961"/>
<polygon fill="midnightblue" stroke="midnightblue" points="2405.22,-263.822 2407.89,-253.571 2399.41,-259.916 2405.22,-263.822"/>
</g>
<!-- Node26 -->
<g id="node55" class="node"><title>Node26</title>
<a xlink:href="knot__curve__style_8hpp.html" target="_top" xlink:title="knot_curve_style.hpp">
<polygon fill="none" stroke="black" points="2484,-232.5 2484,-253.5 2594,-253.5 2594,-232.5 2484,-232.5"/>
<text text-anchor="middle" x="2539" y="-240.5" font-family="Helvetica,sans-Serif" font-size="10.00">knot_curve_style.hpp</text>
</a>
</g>
<!-- Node23&#45;&gt;Node26 -->
<g id="edge58" class="edge"><title>Node23&#45;&gt;Node26</title>
<path fill="none" stroke="midnightblue" d="M2405.52,-290.497C2431.98,-281.082 2470.98,-267.204 2500,-256.877"/>
<polygon fill="midnightblue" stroke="midnightblue" points="2501.18,-260.173 2509.43,-253.523 2498.83,-253.578 2501.18,-260.173"/>
</g>
<!-- Node26&#45;&gt;Node18 -->
<g id="edge60" class="edge"><title>Node26&#45;&gt;Node18</title>
<path fill="none" stroke="midnightblue" d="M2545.05,-232.362C2549.47,-224.595 2555.59,-213.843 2560.88,-204.546"/>
<polygon fill="midnightblue" stroke="midnightblue" points="2564.08,-205.993 2565.99,-195.571 2558,-202.531 2564.08,-205.993"/>
</g>
<!-- Node26&#45;&gt;Node24 -->
<g id="edge62" class="edge"><title>Node26&#45;&gt;Node24</title>
<path fill="none" stroke="midnightblue" d="M2516.18,-232.497C2496.41,-223.397 2467.59,-210.127 2445.42,-199.925"/>
<polygon fill="midnightblue" stroke="midnightblue" points="2446.62,-196.623 2436.07,-195.621 2443.69,-202.982 2446.62,-196.623"/>
</g>
<!-- Node27 -->
<g id="node59" class="node"><title>Node27</title>
<polygon fill="none" stroke="#bfbfbf" points="2483.5,-174.5 2483.5,-195.5 2526.5,-195.5 2526.5,-174.5 2483.5,-174.5"/>
<text text-anchor="middle" x="2505" y="-182.5" font-family="Helvetica,sans-Serif" font-size="10.00">QMap</text>
</g>
<!-- Node26&#45;&gt;Node27 -->
<g id="edge64" class="edge"><title>Node26&#45;&gt;Node27</title>
<path fill="none" stroke="midnightblue" d="M2532.76,-232.362C2528.16,-224.513 2521.77,-213.616 2516.29,-204.253"/>
<polygon fill="midnightblue" stroke="midnightblue" points="2519.27,-202.428 2511.2,-195.571 2513.23,-205.968 2519.27,-202.428"/>
</g>
<!-- Node30 -->
<g id="node66" class="node"><title>Node30</title>
<a xlink:href="ui__style__dialog_8h.html" target="_top" xlink:title="ui_style_dialog.h">
<polygon fill="none" stroke="black" points="1462.5,-406.5 1462.5,-427.5 1551.5,-427.5 1551.5,-406.5 1462.5,-406.5"/>
<text text-anchor="middle" x="1507" y="-414.5" font-family="Helvetica,sans-Serif" font-size="10.00">ui_style_dialog.h</text>
</a>
</g>
<!-- Node29&#45;&gt;Node30 -->
<g id="edge72" class="edge"><title>Node29&#45;&gt;Node30</title>
<path fill="none" stroke="midnightblue" d="M2045.2,-466.082C2040.75,-465.316 2036.29,-464.605 2032,-464 1861.29,-439.95 1657.53,-425.845 1561.8,-420.071"/>
<polygon fill="midnightblue" stroke="midnightblue" points="1561.96,-416.575 1551.77,-419.473 1561.55,-423.562 1561.96,-416.575"/>
</g>
<!-- Node30&#45;&gt;Node4 -->
<g id="edge74" class="edge"><title>Node30&#45;&gt;Node4</title>
<path fill="none" stroke="midnightblue" d="M1462.12,-416.469C1345.56,-414.613 1023.61,-406.443 746.977,-370.115"/>
<polygon fill="midnightblue" stroke="midnightblue" points="747.116,-366.603 736.742,-368.755 746.194,-373.542 747.116,-366.603"/>
</g>
<!-- Node30&#45;&gt;Node5 -->
<g id="edge76" class="edge"><title>Node30&#45;&gt;Node5</title>
<path fill="none" stroke="midnightblue" d="M1462.46,-416.153C1356.76,-413.65 1082.46,-404.259 844.261,-369.99"/>
<polygon fill="midnightblue" stroke="midnightblue" points="844.42,-366.477 834.02,-368.498 843.411,-373.403 844.42,-366.477"/>
</g>
<!-- Node30&#45;&gt;Node6 -->
<g id="edge78" class="edge"><title>Node30&#45;&gt;Node6</title>
<path fill="none" stroke="midnightblue" d="M1462.25,-414.644C1370.4,-409.486 1153.82,-395.663 962.74,-370.141"/>
<polygon fill="midnightblue" stroke="midnightblue" points="963.176,-366.668 952.797,-368.799 962.239,-373.605 963.176,-366.668"/>
</g>
<!-- Node30&#45;&gt;Node7 -->
<g id="edge80" class="edge"><title>Node30&#45;&gt;Node7</title>
<path fill="none" stroke="midnightblue" d="M1462.22,-412.973C1386.83,-405.983 1229.58,-390.507 1086.98,-370.222"/>
<polygon fill="midnightblue" stroke="midnightblue" points="1087.13,-366.708 1076.73,-368.753 1086.14,-373.637 1087.13,-366.708"/>
</g>
<!-- Node30&#45;&gt;Node8 -->
<g id="edge90" class="edge"><title>Node30&#45;&gt;Node8</title>
<path fill="none" stroke="midnightblue" d="M1462.37,-410.542C1405.02,-402.144 1302.12,-386.75 1204.26,-370.179"/>
<polygon fill="midnightblue" stroke="midnightblue" points="1204.64,-366.693 1194.19,-368.467 1203.46,-373.594 1204.64,-366.693"/>
</g>
<!-- Node30&#45;&gt;Node9 -->
<g id="edge94" class="edge"><title>Node30&#45;&gt;Node9</title>
<path fill="none" stroke="midnightblue" d="M1463.18,-406.497C1422.61,-396.775 1362.19,-382.294 1318.74,-371.879"/>
<polygon fill="midnightblue" stroke="midnightblue" points="1319.45,-368.45 1308.91,-369.523 1317.82,-375.257 1319.45,-368.45"/>
</g>
<!-- Node30&#45;&gt;Node16 -->
<g id="edge110" class="edge"><title>Node30&#45;&gt;Node16</title>
<path fill="none" stroke="midnightblue" d="M1551.66,-414.555C1655.33,-408.69 1920.31,-392.612 2141,-370 2152.88,-368.783 2165.68,-367.231 2177.61,-365.679"/>
<polygon fill="midnightblue" stroke="midnightblue" points="2178.38,-369.108 2187.84,-364.324 2177.46,-362.168 2178.38,-369.108"/>
</g>
<!-- Node31 -->
<g id="node72" class="node"><title>Node31</title>
<polygon fill="none" stroke="#bfbfbf" points="1933.5,-348.5 1933.5,-369.5 2034.5,-369.5 2034.5,-348.5 1933.5,-348.5"/>
<text text-anchor="middle" x="1984" y="-356.5" font-family="Helvetica,sans-Serif" font-size="10.00">QtGui/QComboBox</text>
</g>
<!-- Node30&#45;&gt;Node31 -->
<g id="edge82" class="edge"><title>Node30&#45;&gt;Node31</title>
<path fill="none" stroke="midnightblue" d="M1551.68,-413.047C1626.5,-406.193 1782.06,-390.948 1923.06,-370.216"/>
<polygon fill="midnightblue" stroke="midnightblue" points="1923.81,-373.644 1933.19,-368.714 1922.79,-366.72 1923.81,-373.644"/>
</g>
<!-- Node32 -->
<g id="node74" class="node"><title>Node32</title>
<polygon fill="none" stroke="#bfbfbf" points="2052,-348.5 2052,-369.5 2132,-369.5 2132,-348.5 2052,-348.5"/>
<text text-anchor="middle" x="2092" y="-356.5" font-family="Helvetica,sans-Serif" font-size="10.00">QtGui/QDialog</text>
</g>
<!-- Node30&#45;&gt;Node32 -->
<g id="edge84" class="edge"><title>Node30&#45;&gt;Node32</title>
<path fill="none" stroke="midnightblue" d="M1551.71,-415.097C1642.38,-410.804 1854.45,-398.552 2041.93,-369.991"/>
<polygon fill="midnightblue" stroke="midnightblue" points="2042.62,-373.427 2051.97,-368.443 2041.56,-366.508 2042.62,-373.427"/>
</g>
<!-- Node33 -->
<g id="node76" class="node"><title>Node33</title>
<polygon fill="none" stroke="#bfbfbf" points="1444,-348.5 1444,-369.5 1570,-369.5 1570,-348.5 1444,-348.5"/>
<text text-anchor="middle" x="1507" y="-356.5" font-family="Helvetica,sans-Serif" font-size="10.00">QtGui/QDialogButtonBox</text>
</g>
<!-- Node30&#45;&gt;Node33 -->
<g id="edge86" class="edge"><title>Node30&#45;&gt;Node33</title>
<path fill="none" stroke="midnightblue" d="M1507,-406.362C1507,-398.922 1507,-388.743 1507,-379.728"/>
<polygon fill="midnightblue" stroke="midnightblue" points="1510.5,-379.571 1507,-369.571 1503.5,-379.571 1510.5,-379.571"/>
</g>
<!-- Node34 -->
<g id="node78" class="node"><title>Node34</title>
<polygon fill="none" stroke="#bfbfbf" points="1588,-348.5 1588,-369.5 1708,-369.5 1708,-348.5 1588,-348.5"/>
<text text-anchor="middle" x="1648" y="-356.5" font-family="Helvetica,sans-Serif" font-size="10.00">QtGui/QDoubleSpinBox</text>
</g>
<!-- Node30&#45;&gt;Node34 -->
<g id="edge88" class="edge"><title>Node30&#45;&gt;Node34</title>
<path fill="none" stroke="midnightblue" d="M1532.53,-406.497C1554.95,-397.275 1587.78,-383.769 1612.71,-373.515"/>
<polygon fill="midnightblue" stroke="midnightblue" points="1614.26,-376.662 1622.18,-369.621 1611.6,-370.189 1614.26,-376.662"/>
</g>
<!-- Node35 -->
<g id="node81" class="node"><title>Node35</title>
<polygon fill="none" stroke="#bfbfbf" points="1726,-348.5 1726,-369.5 1822,-369.5 1822,-348.5 1726,-348.5"/>
<text text-anchor="middle" x="1774" y="-356.5" font-family="Helvetica,sans-Serif" font-size="10.00">QtGui/QGroupBox</text>
</g>
<!-- Node30&#45;&gt;Node35 -->
<g id="edge92" class="edge"><title>Node30&#45;&gt;Node35</title>
<path fill="none" stroke="midnightblue" d="M1551.69,-407.292C1596.69,-397.517 1666.33,-382.39 1715.66,-371.674"/>
<polygon fill="midnightblue" stroke="midnightblue" points="1716.52,-375.069 1725.55,-369.525 1715.03,-368.228 1716.52,-375.069"/>
</g>
<!-- Node36 -->
<g id="node84" class="node"><title>Node36</title>
<polygon fill="none" stroke="#bfbfbf" points="1840,-348.5 1840,-369.5 1916,-369.5 1916,-348.5 1840,-348.5"/>
<text text-anchor="middle" x="1878" y="-356.5" font-family="Helvetica,sans-Serif" font-size="10.00">QtGui/QLabel</text>
</g>
<!-- Node30&#45;&gt;Node36 -->
<g id="edge96" class="edge"><title>Node30&#45;&gt;Node36</title>
<path fill="none" stroke="midnightblue" d="M1551.75,-411.743C1612.55,-404.328 1724.81,-389.676 1830.01,-370.071"/>
<polygon fill="midnightblue" stroke="midnightblue" points="1830.66,-373.51 1839.84,-368.22 1829.36,-366.631 1830.66,-373.51"/>
</g>
<!-- Node37 -->
<g id="node86" class="node"><title>Node37</title>
<a xlink:href="color__widget_8hpp.html" target="_top" xlink:title="color_widget.hpp">
<polygon fill="none" stroke="black" points="1336,-348.5 1336,-369.5 1426,-369.5 1426,-348.5 1336,-348.5"/>
<text text-anchor="middle" x="1381" y="-356.5" font-family="Helvetica,sans-Serif" font-size="10.00">color_widget.hpp</text>
</a>
</g>
<!-- Node30&#45;&gt;Node37 -->
<g id="edge98" class="edge"><title>Node30&#45;&gt;Node37</title>
<path fill="none" stroke="midnightblue" d="M1484.18,-406.497C1464.41,-397.397 1435.59,-384.127 1413.42,-373.925"/>
<polygon fill="midnightblue" stroke="midnightblue" points="1414.62,-370.623 1404.07,-369.621 1411.69,-376.982 1414.62,-370.623"/>
</g>
<!-- Node38 -->
<g id="node88" class="node"><title>Node38</title>
<polygon fill="none" stroke="#bfbfbf" points="1267.5,-290.5 1267.5,-311.5 1326.5,-311.5 1326.5,-290.5 1267.5,-290.5"/>
<text text-anchor="middle" x="1297" y="-298.5" font-family="Helvetica,sans-Serif" font-size="10.00">QLineEdit</text>
</g>
<!-- Node37&#45;&gt;Node38 -->
<g id="edge100" class="edge"><title>Node37&#45;&gt;Node38</title>
<path fill="none" stroke="midnightblue" d="M1365.59,-348.362C1353.04,-339.696 1335.11,-327.313 1320.73,-317.382"/>
<polygon fill="midnightblue" stroke="midnightblue" points="1322.53,-314.372 1312.31,-311.571 1318.55,-320.133 1322.53,-314.372"/>
</g>
<!-- Node39 -->
<g id="node90" class="node"><title>Node39</title>
<polygon fill="none" stroke="#bfbfbf" points="1343.5,-290.5 1343.5,-311.5 1418.5,-311.5 1418.5,-290.5 1343.5,-290.5"/>
<text text-anchor="middle" x="1381" y="-298.5" font-family="Helvetica,sans-Serif" font-size="10.00">QColorDialog</text>
</g>
<!-- Node37&#45;&gt;Node39 -->
<g id="edge102" class="edge"><title>Node37&#45;&gt;Node39</title>
<path fill="none" stroke="midnightblue" d="M1381,-348.362C1381,-340.922 1381,-330.743 1381,-321.728"/>
<polygon fill="midnightblue" stroke="midnightblue" points="1384.5,-321.571 1381,-311.571 1377.5,-321.571 1384.5,-321.571"/>
</g>
<!-- Node40 -->
<g id="node92" class="node"><title>Node40</title>
<polygon fill="none" stroke="#bfbfbf" points="1436,-290.5 1436,-311.5 1508,-311.5 1508,-290.5 1436,-290.5"/>
<text text-anchor="middle" x="1472" y="-298.5" font-family="Helvetica,sans-Serif" font-size="10.00">QPaintEvent</text>
</g>
<!-- Node37&#45;&gt;Node40 -->
<g id="edge104" class="edge"><title>Node37&#45;&gt;Node40</title>
<path fill="none" stroke="midnightblue" d="M1397.69,-348.362C1411.42,-339.614 1431.08,-327.079 1446.74,-317.101"/>
<polygon fill="midnightblue" stroke="midnightblue" points="1448.86,-319.897 1455.42,-311.571 1445.1,-313.994 1448.86,-319.897"/>
</g>
<!-- Node41 -->
<g id="node94" class="node"><title>Node41</title>
<polygon fill="none" stroke="#bfbfbf" points="1525.5,-290.5 1525.5,-311.5 1580.5,-311.5 1580.5,-290.5 1525.5,-290.5"/>
<text text-anchor="middle" x="1553" y="-298.5" font-family="Helvetica,sans-Serif" font-size="10.00">QPainter</text>
</g>
<!-- Node37&#45;&gt;Node41 -->
<g id="edge106" class="edge"><title>Node37&#45;&gt;Node41</title>
<path fill="none" stroke="midnightblue" d="M1412.15,-348.497C1441.32,-338.658 1484.96,-323.945 1515.92,-313.505"/>
<polygon fill="midnightblue" stroke="midnightblue" points="1517.13,-316.789 1525.49,-310.277 1514.89,-310.156 1517.13,-316.789"/>
</g>
<!-- Node42 -->
<g id="node96" class="node"><title>Node42</title>
<polygon fill="none" stroke="#bfbfbf" points="1135.5,-290.5 1135.5,-311.5 1250.5,-311.5 1250.5,-290.5 1135.5,-290.5"/>
<text text-anchor="middle" x="1193" y="-298.5" font-family="Helvetica,sans-Serif" font-size="10.00">QStyleOptionFrameV3</text>
</g>
<!-- Node37&#45;&gt;Node42 -->
<g id="edge108" class="edge"><title>Node37&#45;&gt;Node42</title>
<path fill="none" stroke="midnightblue" d="M1346.95,-348.497C1316.04,-338.959 1270.28,-324.841 1236.68,-314.475"/>
<polygon fill="midnightblue" stroke="midnightblue" points="1237.7,-311.127 1227.11,-311.523 1235.63,-317.816 1237.7,-311.127"/>
</g>
<!-- Node43&#45;&gt;Node16 -->
<g id="edge114" class="edge"><title>Node43&#45;&gt;Node16</title>
<path fill="none" stroke="midnightblue" d="M2225,-406.362C2225,-398.922 2225,-388.743 2225,-379.728"/>
<polygon fill="midnightblue" stroke="midnightblue" points="2228.5,-379.571 2225,-369.571 2221.5,-379.571 2228.5,-379.571"/>
</g>
<!-- Node44&#45;&gt;Node16 -->
<g id="edge118" class="edge"><title>Node44&#45;&gt;Node16</title>
<path fill="none" stroke="midnightblue" d="M2290.54,-522.483C2291.27,-499.881 2290.66,-445.523 2271,-406 2265.39,-394.73 2256.08,-384.449 2247.3,-376.397"/>
<polygon fill="midnightblue" stroke="midnightblue" points="2249.36,-373.551 2239.51,-369.664 2244.79,-378.849 2249.36,-373.551"/>
</g>
<!-- Node45 -->
<g id="node105" class="node"><title>Node45</title>
<polygon fill="none" stroke="#bfbfbf" points="2318,-464.5 2318,-485.5 2410,-485.5 2410,-464.5 2318,-464.5"/>
<text text-anchor="middle" x="2364" y="-472.5" font-family="Helvetica,sans-Serif" font-size="10.00">QUndoCommand</text>
</g>
<!-- Node44&#45;&gt;Node45 -->
<g id="edge120" class="edge"><title>Node44&#45;&gt;Node45</title>
<path fill="none" stroke="midnightblue" d="M2303.57,-522.362C2314.42,-513.859 2329.83,-501.779 2342.38,-491.947"/>
<polygon fill="midnightblue" stroke="midnightblue" points="2344.8,-494.494 2350.51,-485.571 2340.48,-488.985 2344.8,-494.494"/>
</g>
</g>
</svg>
