<?xml version="1.0" encoding="UTF-8" standalone="no"?>
<!DOCTYPE svg PUBLIC "-//W3C//DTD SVG 1.1//EN"
 "http://www.w3.org/Graphics/SVG/1.1/DTD/svg11.dtd">
<!-- Generated by graphviz version 2.26.3 (20100126.1600)
 -->
<!-- Title: G Pages: 1 -->
<svg width="234pt" height="262pt"
 viewBox="0.00 0.00 234.00 262.00" xmlns="http://www.w3.org/2000/svg" xmlns:xlink="http://www.w3.org/1999/xlink">
<g id="graph1" class="graph" transform="scale(1 1) rotate(0) translate(4 258)">
<title>G</title>
<!-- Node1 -->
<g id="node1" class="node"><title>Node1</title>
<polygon fill="#bfbfbf" stroke="black" points="74,-232.5 74,-253.5 184,-253.5 184,-232.5 74,-232.5"/>
<text text-anchor="middle" x="129" y="-240.5" font-family="Helvetica,sans-Serif" font-size="10.00">knot_curve_style.hpp</text>
</g>
<!-- Node2 -->
<g id="node3" class="node"><title>Node2</title>
<a xlink:href="node_8hpp.html" target="_top" xlink:title="node.hpp">
<polygon fill="none" stroke="black" points="18,-174.5 18,-195.5 74,-195.5 74,-174.5 18,-174.5"/>
<text text-anchor="middle" x="46" y="-182.5" font-family="Helvetica,sans-Serif" font-size="10.00">node.hpp</text>
</a>
</g>
<!-- Node1&#45;&gt;Node2 -->
<g id="edge2" class="edge"><title>Node1&#45;&gt;Node2</title>
<path fill="none" stroke="midnightblue" d="M113.777,-232.362C101.375,-223.696 83.6542,-211.313 69.443,-201.382"/>
<polygon fill="midnightblue" stroke="midnightblue" points="71.3288,-198.43 61.127,-195.571 67.3191,-204.168 71.3288,-198.43"/>
</g>
<!-- Node6 -->
<g id="node12" class="node"><title>Node6</title>
<polygon fill="none" stroke="#bfbfbf" points="91.5,-174.5 91.5,-195.5 166.5,-195.5 166.5,-174.5 91.5,-174.5"/>
<text text-anchor="middle" x="129" y="-182.5" font-family="Helvetica,sans-Serif" font-size="10.00">QPainterPath</text>
</g>
<!-- Node1&#45;&gt;Node6 -->
<g id="edge12" class="edge"><title>Node1&#45;&gt;Node6</title>
<path fill="none" stroke="midnightblue" d="M129,-232.362C129,-224.922 129,-214.743 129,-205.728"/>
<polygon fill="midnightblue" stroke="midnightblue" points="132.5,-205.571 129,-195.571 125.5,-205.571 132.5,-205.571"/>
</g>
<!-- Node7 -->
<g id="node14" class="node"><title>Node7</title>
<polygon fill="none" stroke="#bfbfbf" points="183.5,-174.5 183.5,-195.5 226.5,-195.5 226.5,-174.5 183.5,-174.5"/>
<text text-anchor="middle" x="205" y="-182.5" font-family="Helvetica,sans-Serif" font-size="10.00">QMap</text>
</g>
<!-- Node1&#45;&gt;Node7 -->
<g id="edge14" class="edge"><title>Node1&#45;&gt;Node7</title>
<path fill="none" stroke="midnightblue" d="M142.94,-232.362C154.188,-223.777 170.216,-211.546 183.165,-201.664"/>
<polygon fill="midnightblue" stroke="midnightblue" points="185.323,-204.42 191.149,-195.571 181.076,-198.855 185.323,-204.42"/>
</g>
<!-- Node3 -->
<g id="node5" class="node"><title>Node3</title>
<a xlink:href="custom__item_8hpp.html" target="_top" xlink:title="custom_item.hpp">
<polygon fill="none" stroke="black" points="0,-58.5 0,-79.5 92,-79.5 92,-58.5 0,-58.5"/>
<text text-anchor="middle" x="46" y="-66.5" font-family="Helvetica,sans-Serif" font-size="10.00">custom_item.hpp</text>
</a>
</g>
<!-- Node2&#45;&gt;Node3 -->
<g id="edge4" class="edge"><title>Node2&#45;&gt;Node3</title>
<path fill="none" stroke="midnightblue" d="M43.3414,-174.256C41.142,-164.784 38.1928,-150.572 37,-138 36.0764,-128.266 36.0764,-125.734 37,-116 37.8294,-107.259 39.5079,-97.7244 41.1931,-89.5417"/>
<polygon fill="midnightblue" stroke="midnightblue" points="44.6184,-90.2612 43.3414,-79.7436 37.7808,-88.762 44.6184,-90.2612"/>
</g>
<!-- Node5 -->
<g id="node9" class="node"><title>Node5</title>
<a xlink:href="edge_8hpp.html" target="_top" xlink:title="edge.hpp">
<polygon fill="none" stroke="black" points="46,-116.5 46,-137.5 102,-137.5 102,-116.5 46,-116.5"/>
<text text-anchor="middle" x="74" y="-124.5" font-family="Helvetica,sans-Serif" font-size="10.00">edge.hpp</text>
</a>
</g>
<!-- Node2&#45;&gt;Node5 -->
<g id="edge8" class="edge"><title>Node2&#45;&gt;Node5</title>
<path fill="none" stroke="midnightblue" d="M51.1356,-174.362C54.8458,-166.677 59.9669,-156.069 64.4221,-146.84"/>
<polygon fill="midnightblue" stroke="midnightblue" points="67.7013,-148.098 68.8969,-137.571 61.3974,-145.055 67.7013,-148.098"/>
</g>
<!-- Node4 -->
<g id="node7" class="node"><title>Node4</title>
<polygon fill="none" stroke="#bfbfbf" points="4.5,-0.5 4.5,-21.5 87.5,-21.5 87.5,-0.5 4.5,-0.5"/>
<text text-anchor="middle" x="46" y="-8.5" font-family="Helvetica,sans-Serif" font-size="10.00">QGraphicsItem</text>
</g>
<!-- Node3&#45;&gt;Node4 -->
<g id="edge6" class="edge"><title>Node3&#45;&gt;Node4</title>
<path fill="none" stroke="midnightblue" d="M46,-58.3619C46,-50.9219 46,-40.7427 46,-31.7276"/>
<polygon fill="midnightblue" stroke="midnightblue" points="49.5001,-31.5706 46,-21.5707 42.5001,-31.5707 49.5001,-31.5706"/>
</g>
<!-- Node5&#45;&gt;Node3 -->
<g id="edge10" class="edge"><title>Node5&#45;&gt;Node3</title>
<path fill="none" stroke="midnightblue" d="M68.8644,-116.362C65.1542,-108.677 60.0331,-98.0686 55.5779,-88.8399"/>
<polygon fill="midnightblue" stroke="midnightblue" points="58.6026,-87.0545 51.1031,-79.5707 52.2987,-90.0978 58.6026,-87.0545"/>
</g>
</g>
</svg>
