<?xml version="1.0" encoding="UTF-8" standalone="no"?>
<!DOCTYPE svg PUBLIC "-//W3C//DTD SVG 1.1//EN"
 "http://www.w3.org/Graphics/SVG/1.1/DTD/svg11.dtd">
<!-- Generated by graphviz version 2.26.3 (20100126.1600)
 -->
<!-- Title: G Pages: 1 -->
<svg width="1139pt" height="494pt"
 viewBox="0.00 0.00 1139.00 494.00" xmlns="http://www.w3.org/2000/svg" xmlns:xlink="http://www.w3.org/1999/xlink">
<g id="graph1" class="graph" transform="scale(1 1) rotate(0) translate(4 490)">
<title>G</title>
<!-- Node1 -->
<g id="node1" class="node"><title>Node1</title>
<polygon fill="#bfbfbf" stroke="black" points="493,-464.5 493,-485.5 567,-485.5 567,-464.5 493,-464.5"/>
<text text-anchor="middle" x="530" y="-472.5" font-family="Helvetica,sans-Serif" font-size="10.00">knotview.cpp</text>
</g>
<!-- Node2 -->
<g id="node3" class="node"><title>Node2</title>
<a xlink:href="knotview_8hpp.html" target="_top" xlink:title="knotview.hpp">
<polygon fill="none" stroke="black" points="389,-348.5 389,-369.5 463,-369.5 463,-348.5 389,-348.5"/>
<text text-anchor="middle" x="426" y="-356.5" font-family="Helvetica,sans-Serif" font-size="10.00">knotview.hpp</text>
</a>
</g>
<!-- Node1&#45;&gt;Node2 -->
<g id="edge2" class="edge"><title>Node1&#45;&gt;Node2</title>
<path fill="none" stroke="midnightblue" d="M492.726,-473.148C432.671,-469.297 318.711,-458.117 294,-428 266.666,-394.686 330.854,-375.505 378.992,-366.174"/>
<polygon fill="midnightblue" stroke="midnightblue" points="379.783,-369.588 388.982,-364.331 378.513,-362.704 379.783,-369.588"/>
</g>
<!-- Node6 -->
<g id="node11" class="node"><title>Node6</title>
<polygon fill="none" stroke="#bfbfbf" points="125.5,-0.5 125.5,-21.5 208.5,-21.5 208.5,-0.5 125.5,-0.5"/>
<text text-anchor="middle" x="167" y="-8.5" font-family="Helvetica,sans-Serif" font-size="10.00">QGraphicsItem</text>
</g>
<!-- Node1&#45;&gt;Node6 -->
<g id="edge40" class="edge"><title>Node1&#45;&gt;Node6</title>
<path fill="none" stroke="midnightblue" d="M492.731,-470.825C372.092,-456.815 0,-409.51 0,-359 0,-359 0,-359 0,-127 0,-70.0303 66.366,-38.7892 115.424,-23.478"/>
<polygon fill="midnightblue" stroke="midnightblue" points="116.706,-26.7481 125.29,-20.5371 114.706,-20.0398 116.706,-26.7481"/>
</g>
<!-- Node9 -->
<g id="node19" class="node"><title>Node9</title>
<a xlink:href="knotgraph_8hpp.html" target="_top" xlink:title="knotgraph.hpp">
<polygon fill="none" stroke="black" points="202,-290.5 202,-311.5 280,-311.5 280,-290.5 202,-290.5"/>
<text text-anchor="middle" x="241" y="-298.5" font-family="Helvetica,sans-Serif" font-size="10.00">knotgraph.hpp</text>
</a>
</g>
<!-- Node1&#45;&gt;Node9 -->
<g id="edge50" class="edge"><title>Node1&#45;&gt;Node9</title>
<path fill="none" stroke="midnightblue" d="M492.701,-472.417C431.788,-467.472 314.657,-454.702 284,-428 252.852,-400.871 244.225,-350.333 241.863,-321.872"/>
<polygon fill="midnightblue" stroke="midnightblue" points="245.351,-321.566 241.216,-311.812 238.365,-322.016 245.351,-321.566"/>
</g>
<!-- Node14 -->
<g id="node33" class="node"><title>Node14</title>
<polygon fill="none" stroke="#bfbfbf" points="302.5,-406.5 302.5,-427.5 381.5,-427.5 381.5,-406.5 302.5,-406.5"/>
<text text-anchor="middle" x="342" y="-414.5" font-family="Helvetica,sans-Serif" font-size="10.00">QMouseEvent</text>
</g>
<!-- Node1&#45;&gt;Node14 -->
<g id="edge38" class="edge"><title>Node1&#45;&gt;Node14</title>
<path fill="none" stroke="midnightblue" d="M495.955,-464.497C465.04,-454.959 419.277,-440.841 385.678,-430.475"/>
<polygon fill="midnightblue" stroke="midnightblue" points="386.697,-427.127 376.109,-427.523 384.633,-433.816 386.697,-427.127"/>
</g>
<!-- Node15 -->
<g id="node36" class="node"><title>Node15</title>
<polygon fill="none" stroke="#bfbfbf" points="399,-406.5 399,-427.5 471,-427.5 471,-406.5 399,-406.5"/>
<text text-anchor="middle" x="435" y="-414.5" font-family="Helvetica,sans-Serif" font-size="10.00">QApplication</text>
</g>
<!-- Node1&#45;&gt;Node15 -->
<g id="edge42" class="edge"><title>Node1&#45;&gt;Node15</title>
<path fill="none" stroke="midnightblue" d="M512.576,-464.362C498.113,-455.532 477.331,-442.844 460.916,-432.822"/>
<polygon fill="midnightblue" stroke="midnightblue" points="462.673,-429.794 452.314,-427.571 459.025,-435.769 462.673,-429.794"/>
</g>
<!-- Node16 -->
<g id="node38" class="node"><title>Node16</title>
<a xlink:href="commands_8hpp.html" target="_top" xlink:title="commands.hpp">
<polygon fill="none" stroke="black" points="488.5,-406.5 488.5,-427.5 571.5,-427.5 571.5,-406.5 488.5,-406.5"/>
<text text-anchor="middle" x="530" y="-414.5" font-family="Helvetica,sans-Serif" font-size="10.00">commands.hpp</text>
</a>
</g>
<!-- Node1&#45;&gt;Node16 -->
<g id="edge44" class="edge"><title>Node1&#45;&gt;Node16</title>
<path fill="none" stroke="midnightblue" d="M530,-464.362C530,-456.922 530,-446.743 530,-437.728"/>
<polygon fill="midnightblue" stroke="midnightblue" points="533.5,-437.571 530,-427.571 526.5,-437.571 533.5,-437.571"/>
</g>
<!-- Node18 -->
<g id="node44" class="node"><title>Node18</title>
<polygon fill="none" stroke="#bfbfbf" points="588.5,-406.5 588.5,-427.5 687.5,-427.5 687.5,-406.5 588.5,-406.5"/>
<text text-anchor="middle" x="638" y="-414.5" font-family="Helvetica,sans-Serif" font-size="10.00">QXmlStreamWriter</text>
</g>
<!-- Node1&#45;&gt;Node18 -->
<g id="edge52" class="edge"><title>Node1&#45;&gt;Node18</title>
<path fill="none" stroke="midnightblue" d="M549.558,-464.497C566.198,-455.56 590.327,-442.602 609.18,-432.477"/>
<polygon fill="midnightblue" stroke="midnightblue" points="611.069,-435.436 618.223,-427.621 607.757,-429.269 611.069,-435.436"/>
</g>
<!-- Node19 -->
<g id="node46" class="node"><title>Node19</title>
<polygon fill="none" stroke="#bfbfbf" points="705,-406.5 705,-427.5 795,-427.5 795,-406.5 705,-406.5"/>
<text text-anchor="middle" x="750" y="-414.5" font-family="Helvetica,sans-Serif" font-size="10.00">QDomDocument</text>
</g>
<!-- Node1&#45;&gt;Node19 -->
<g id="edge54" class="edge"><title>Node1&#45;&gt;Node19</title>
<path fill="none" stroke="midnightblue" d="M567.32,-465.161C603.824,-455.537 659.656,-440.818 699.988,-430.185"/>
<polygon fill="midnightblue" stroke="midnightblue" points="701.109,-433.509 709.886,-427.575 699.325,-426.74 701.109,-433.509"/>
</g>
<!-- Node20 -->
<g id="node48" class="node"><title>Node20</title>
<polygon fill="none" stroke="#bfbfbf" points="813,-406.5 813,-427.5 897,-427.5 897,-406.5 813,-406.5"/>
<text text-anchor="middle" x="855" y="-414.5" font-family="Helvetica,sans-Serif" font-size="10.00">QSvgGenerator</text>
</g>
<!-- Node1&#45;&gt;Node20 -->
<g id="edge56" class="edge"><title>Node1&#45;&gt;Node20</title>
<path fill="none" stroke="midnightblue" d="M567.319,-469.115C618.277,-460.966 712.715,-445.462 802.89,-428.161"/>
<polygon fill="midnightblue" stroke="midnightblue" points="803.572,-431.594 812.728,-426.262 802.246,-424.72 803.572,-431.594"/>
</g>
<!-- Node21 -->
<g id="node50" class="node"><title>Node21</title>
<polygon fill="none" stroke="#bfbfbf" points="915,-406.5 915,-427.5 979,-427.5 979,-406.5 915,-406.5"/>
<text text-anchor="middle" x="947" y="-414.5" font-family="Helvetica,sans-Serif" font-size="10.00">QScrollBar</text>
</g>
<!-- Node1&#45;&gt;Node21 -->
<g id="edge58" class="edge"><title>Node1&#45;&gt;Node21</title>
<path fill="none" stroke="midnightblue" d="M567.094,-472.07C633.135,-466.487 775.539,-452.786 904.795,-428.027"/>
<polygon fill="midnightblue" stroke="midnightblue" points="905.72,-431.413 914.869,-426.069 904.385,-424.541 905.72,-431.413"/>
</g>
<!-- Node22 -->
<g id="node52" class="node"><title>Node22</title>
<polygon fill="none" stroke="#bfbfbf" points="997,-406.5 997,-427.5 1131,-427.5 1131,-406.5 997,-406.5"/>
<text text-anchor="middle" x="1064" y="-414.5" font-family="Helvetica,sans-Serif" font-size="10.00">QStyleOptionGraphicsItem</text>
</g>
<!-- Node1&#45;&gt;Node22 -->
<g id="edge60" class="edge"><title>Node1&#45;&gt;Node22</title>
<path fill="none" stroke="midnightblue" d="M567.163,-471.713C643.623,-464.837 824.311,-448.004 986.708,-428.121"/>
<polygon fill="midnightblue" stroke="midnightblue" points="987.386,-431.564 996.884,-426.868 986.531,-424.617 987.386,-431.564"/>
</g>
<!-- Node3 -->
<g id="node5" class="node"><title>Node3</title>
<polygon fill="none" stroke="#bfbfbf" points="479.5,-290.5 479.5,-311.5 564.5,-311.5 564.5,-290.5 479.5,-290.5"/>
<text text-anchor="middle" x="522" y="-298.5" font-family="Helvetica,sans-Serif" font-size="10.00">QGraphicsView</text>
</g>
<!-- Node2&#45;&gt;Node3 -->
<g id="edge4" class="edge"><title>Node2&#45;&gt;Node3</title>
<path fill="none" stroke="midnightblue" d="M443.608,-348.362C458.223,-339.532 479.224,-326.844 495.811,-316.822"/>
<polygon fill="midnightblue" stroke="midnightblue" points="497.754,-319.738 504.504,-311.571 494.135,-313.746 497.754,-319.738"/>
</g>
<!-- Node4 -->
<g id="node7" class="node"><title>Node4</title>
<a xlink:href="node_8hpp.html" target="_top" xlink:title="node.hpp">
<polygon fill="none" stroke="black" points="306,-174.5 306,-195.5 362,-195.5 362,-174.5 306,-174.5"/>
<text text-anchor="middle" x="334" y="-182.5" font-family="Helvetica,sans-Serif" font-size="10.00">node.hpp</text>
</a>
</g>
<!-- Node2&#45;&gt;Node4 -->
<g id="edge6" class="edge"><title>Node2&#45;&gt;Node4</title>
<path fill="none" stroke="midnightblue" d="M413.06,-348.169C403.154,-339.303 389.748,-325.982 381,-312 359.397,-277.47 345.508,-231.511 338.786,-205.407"/>
<polygon fill="midnightblue" stroke="midnightblue" points="342.141,-204.393 336.342,-195.526 335.346,-206.074 342.141,-204.393"/>
</g>
<!-- Node7 -->
<g id="node13" class="node"><title>Node7</title>
<a xlink:href="edge_8hpp.html" target="_top" xlink:title="edge.hpp">
<polygon fill="none" stroke="black" points="367,-116.5 367,-137.5 423,-137.5 423,-116.5 367,-116.5"/>
<text text-anchor="middle" x="395" y="-124.5" font-family="Helvetica,sans-Serif" font-size="10.00">edge.hpp</text>
</a>
</g>
<!-- Node2&#45;&gt;Node7 -->
<g id="edge16" class="edge"><title>Node2&#45;&gt;Node7</title>
<path fill="none" stroke="midnightblue" d="M463.08,-349.573C504.399,-338.697 566.325,-321.143 573,-312 578.766,-304.103 576.939,-298.949 573,-290 542.394,-220.474 465.871,-167.676 423.812,-142.781"/>
<polygon fill="midnightblue" stroke="midnightblue" points="425.303,-139.599 414.896,-137.616 421.794,-145.657 425.303,-139.599"/>
</g>
<!-- Node8 -->
<g id="node17" class="node"><title>Node8</title>
<polygon fill="none" stroke="#bfbfbf" points="389.5,-290.5 389.5,-311.5 462.5,-311.5 462.5,-290.5 389.5,-290.5"/>
<text text-anchor="middle" x="426" y="-298.5" font-family="Helvetica,sans-Serif" font-size="10.00">QUndoStack</text>
</g>
<!-- Node2&#45;&gt;Node8 -->
<g id="edge18" class="edge"><title>Node2&#45;&gt;Node8</title>
<path fill="none" stroke="midnightblue" d="M426,-348.362C426,-340.922 426,-330.743 426,-321.728"/>
<polygon fill="midnightblue" stroke="midnightblue" points="429.5,-321.571 426,-311.571 422.5,-321.571 429.5,-321.571"/>
</g>
<!-- Node2&#45;&gt;Node9 -->
<g id="edge20" class="edge"><title>Node2&#45;&gt;Node9</title>
<path fill="none" stroke="midnightblue" d="M392.498,-348.497C362.207,-339 317.43,-324.962 284.407,-314.609"/>
<polygon fill="midnightblue" stroke="midnightblue" points="285.154,-311.175 274.565,-311.523 283.06,-317.854 285.154,-311.175"/>
</g>
<!-- Node5 -->
<g id="node9" class="node"><title>Node5</title>
<a xlink:href="custom__item_8hpp.html" target="_top" xlink:title="custom_item.hpp">
<polygon fill="none" stroke="black" points="288,-58.5 288,-79.5 380,-79.5 380,-58.5 288,-58.5"/>
<text text-anchor="middle" x="334" y="-66.5" font-family="Helvetica,sans-Serif" font-size="10.00">custom_item.hpp</text>
</a>
</g>
<!-- Node4&#45;&gt;Node5 -->
<g id="edge8" class="edge"><title>Node4&#45;&gt;Node5</title>
<path fill="none" stroke="midnightblue" d="M334,-174.295C334,-155.131 334,-114.654 334,-89.8434"/>
<polygon fill="midnightblue" stroke="midnightblue" points="337.5,-89.6792 334,-79.6792 330.5,-89.6792 337.5,-89.6792"/>
</g>
<!-- Node4&#45;&gt;Node7 -->
<g id="edge12" class="edge"><title>Node4&#45;&gt;Node7</title>
<path fill="none" stroke="midnightblue" d="M345.188,-174.362C353.959,-166.023 366.349,-154.242 376.578,-144.516"/>
<polygon fill="midnightblue" stroke="midnightblue" points="379.047,-146.998 383.883,-137.571 374.224,-141.925 379.047,-146.998"/>
</g>
<!-- Node5&#45;&gt;Node6 -->
<g id="edge10" class="edge"><title>Node5&#45;&gt;Node6</title>
<path fill="none" stroke="midnightblue" d="M303.758,-58.4966C276.65,-49.082 236.69,-35.2036 206.957,-24.8773"/>
<polygon fill="midnightblue" stroke="midnightblue" points="207.894,-21.4977 197.299,-21.5231 205.597,-28.1102 207.894,-21.4977"/>
</g>
<!-- Node7&#45;&gt;Node5 -->
<g id="edge14" class="edge"><title>Node7&#45;&gt;Node5</title>
<path fill="none" stroke="midnightblue" d="M383.812,-116.362C375.041,-108.023 362.651,-96.2418 352.422,-86.5162"/>
<polygon fill="midnightblue" stroke="midnightblue" points="354.776,-83.9248 345.117,-79.5707 349.953,-88.9978 354.776,-83.9248"/>
</g>
<!-- Node9&#45;&gt;Node4 -->
<g id="edge24" class="edge"><title>Node9&#45;&gt;Node4</title>
<path fill="none" stroke="midnightblue" d="M260.561,-290.485C274.515,-282.152 292.881,-269.372 305,-254 316.394,-239.548 324.056,-219.969 328.629,-205.358"/>
<polygon fill="midnightblue" stroke="midnightblue" points="331.994,-206.321 331.422,-195.742 325.272,-204.369 331.994,-206.321"/>
</g>
<!-- Node9&#45;&gt;Node7 -->
<g id="edge26" class="edge"><title>Node9&#45;&gt;Node7</title>
<path fill="none" stroke="midnightblue" d="M266.113,-290.429C283.987,-282.15 307.938,-269.463 326,-254 350.785,-232.782 355.436,-224.675 371,-196 379.389,-180.544 385.732,-161.589 389.783,-147.46"/>
<polygon fill="midnightblue" stroke="midnightblue" points="393.181,-148.301 392.431,-137.733 386.427,-146.463 393.181,-148.301"/>
</g>
<!-- Node10 -->
<g id="node21" class="node"><title>Node10</title>
<polygon fill="none" stroke="#bfbfbf" points="123.5,-174.5 123.5,-195.5 198.5,-195.5 198.5,-174.5 123.5,-174.5"/>
<text text-anchor="middle" x="161" y="-182.5" font-family="Helvetica,sans-Serif" font-size="10.00">QPainterPath</text>
</g>
<!-- Node9&#45;&gt;Node10 -->
<g id="edge22" class="edge"><title>Node9&#45;&gt;Node10</title>
<path fill="none" stroke="midnightblue" d="M219.414,-290.374C205.247,-282.302 187.467,-269.885 177,-254 167.511,-239.599 163.617,-220.267 162.035,-205.73"/>
<polygon fill="midnightblue" stroke="midnightblue" points="165.519,-205.393 161.222,-195.709 158.542,-205.959 165.519,-205.393"/>
</g>
<!-- Node11 -->
<g id="node25" class="node"><title>Node11</title>
<polygon fill="none" stroke="#bfbfbf" points="27.5,-232.5 27.5,-253.5 130.5,-253.5 130.5,-232.5 27.5,-232.5"/>
<text text-anchor="middle" x="79" y="-240.5" font-family="Helvetica,sans-Serif" font-size="10.00">QGraphicsPathItem</text>
</g>
<!-- Node9&#45;&gt;Node11 -->
<g id="edge28" class="edge"><title>Node9&#45;&gt;Node11</title>
<path fill="none" stroke="midnightblue" d="M211.663,-290.497C185.481,-281.123 146.94,-267.324 118.137,-257.012"/>
<polygon fill="midnightblue" stroke="midnightblue" points="118.987,-253.599 108.392,-253.523 116.627,-260.189 118.987,-253.599"/>
</g>
<!-- Node12 -->
<g id="node27" class="node"><title>Node12</title>
<a xlink:href="knot__curve__style_8hpp.html" target="_top" xlink:title="knot_curve_style.hpp">
<polygon fill="none" stroke="black" points="186,-232.5 186,-253.5 296,-253.5 296,-232.5 186,-232.5"/>
<text text-anchor="middle" x="241" y="-240.5" font-family="Helvetica,sans-Serif" font-size="10.00">knot_curve_style.hpp</text>
</a>
</g>
<!-- Node9&#45;&gt;Node12 -->
<g id="edge30" class="edge"><title>Node9&#45;&gt;Node12</title>
<path fill="none" stroke="midnightblue" d="M241,-290.362C241,-282.922 241,-272.743 241,-263.728"/>
<polygon fill="midnightblue" stroke="midnightblue" points="244.5,-263.571 241,-253.571 237.5,-263.571 244.5,-263.571"/>
</g>
<!-- Node12&#45;&gt;Node4 -->
<g id="edge32" class="edge"><title>Node12&#45;&gt;Node4</title>
<path fill="none" stroke="midnightblue" d="M258.058,-232.362C272.085,-223.614 292.184,-211.079 308.182,-201.101"/>
<polygon fill="midnightblue" stroke="midnightblue" points="310.418,-203.832 317.051,-195.571 306.713,-197.893 310.418,-203.832"/>
</g>
<!-- Node12&#45;&gt;Node10 -->
<g id="edge34" class="edge"><title>Node12&#45;&gt;Node10</title>
<path fill="none" stroke="midnightblue" d="M226.327,-232.362C214.486,-223.777 197.615,-211.546 183.984,-201.664"/>
<polygon fill="midnightblue" stroke="midnightblue" points="185.731,-198.607 175.58,-195.571 181.622,-204.274 185.731,-198.607"/>
</g>
<!-- Node13 -->
<g id="node31" class="node"><title>Node13</title>
<polygon fill="none" stroke="#bfbfbf" points="219.5,-174.5 219.5,-195.5 262.5,-195.5 262.5,-174.5 219.5,-174.5"/>
<text text-anchor="middle" x="241" y="-182.5" font-family="Helvetica,sans-Serif" font-size="10.00">QMap</text>
</g>
<!-- Node12&#45;&gt;Node13 -->
<g id="edge36" class="edge"><title>Node12&#45;&gt;Node13</title>
<path fill="none" stroke="midnightblue" d="M241,-232.362C241,-224.922 241,-214.743 241,-205.728"/>
<polygon fill="midnightblue" stroke="midnightblue" points="244.5,-205.571 241,-195.571 237.5,-205.571 244.5,-205.571"/>
</g>
<!-- Node16&#45;&gt;Node2 -->
<g id="edge46" class="edge"><title>Node16&#45;&gt;Node2</title>
<path fill="none" stroke="midnightblue" d="M510.925,-406.362C494.945,-397.45 471.919,-384.609 453.873,-374.545"/>
<polygon fill="midnightblue" stroke="midnightblue" points="455.393,-371.385 444.954,-369.571 451.983,-377.498 455.393,-371.385"/>
</g>
<!-- Node17 -->
<g id="node41" class="node"><title>Node17</title>
<polygon fill="none" stroke="#bfbfbf" points="484,-348.5 484,-369.5 576,-369.5 576,-348.5 484,-348.5"/>
<text text-anchor="middle" x="530" y="-356.5" font-family="Helvetica,sans-Serif" font-size="10.00">QUndoCommand</text>
</g>
<!-- Node16&#45;&gt;Node17 -->
<g id="edge48" class="edge"><title>Node16&#45;&gt;Node17</title>
<path fill="none" stroke="midnightblue" d="M530,-406.362C530,-398.922 530,-388.743 530,-379.728"/>
<polygon fill="midnightblue" stroke="midnightblue" points="533.5,-379.571 530,-369.571 526.5,-379.571 533.5,-379.571"/>
</g>
</g>
</svg>
