<?xml version="1.0" encoding="UTF-8" standalone="no"?>
<!DOCTYPE svg PUBLIC "-//W3C//DTD SVG 1.1//EN"
 "http://www.w3.org/Graphics/SVG/1.1/DTD/svg11.dtd">
<!-- Generated by graphviz version 2.26.3 (20100126.1600)
 -->
<!-- Title: G Pages: 1 -->
<svg width="1111pt" height="494pt"
 viewBox="0.00 0.00 1111.00 494.00" xmlns="http://www.w3.org/2000/svg" xmlns:xlink="http://www.w3.org/1999/xlink">
<g id="graph1" class="graph" transform="scale(1 1) rotate(0) translate(4 490)">
<title>G</title>
<!-- Node1 -->
<g id="node1" class="node"><title>Node1</title>
<polygon fill="#bfbfbf" stroke="black" points="470,-464.5 470,-485.5 544,-485.5 544,-464.5 470,-464.5"/>
<text text-anchor="middle" x="507" y="-472.5" font-family="Helvetica,sans-Serif" font-size="10.00">knotview.cpp</text>
</g>
<!-- Node2 -->
<g id="node3" class="node"><title>Node2</title>
<a xlink:href="knotview_8hpp.html" target="_top" xlink:title="knotview.hpp">
<polygon fill="none" stroke="black" points="135,-348.5 135,-369.5 209,-369.5 209,-348.5 135,-348.5"/>
<text text-anchor="middle" x="172" y="-356.5" font-family="Helvetica,sans-Serif" font-size="10.00">knotview.hpp</text>
</a>
</g>
<!-- Node1&#45;&gt;Node2 -->
<g id="edge2" class="edge"><title>Node1&#45;&gt;Node2</title>
<path fill="none" stroke="midnightblue" d="M469.772,-472.309C402.487,-466.886 263.816,-452.977 223,-428 203.955,-416.346 189.728,-394.684 181.206,-378.729"/>
<polygon fill="midnightblue" stroke="midnightblue" points="184.269,-377.03 176.645,-369.673 178.018,-380.179 184.269,-377.03"/>
</g>
<!-- Node6 -->
<g id="node11" class="node"><title>Node6</title>
<polygon fill="none" stroke="#bfbfbf" points="33.5,-0.5 33.5,-21.5 116.5,-21.5 116.5,-0.5 33.5,-0.5"/>
<text text-anchor="middle" x="75" y="-8.5" font-family="Helvetica,sans-Serif" font-size="10.00">QGraphicsItem</text>
</g>
<!-- Node1&#45;&gt;Node6 -->
<g id="edge44" class="edge"><title>Node1&#45;&gt;Node6</title>
<path fill="none" stroke="midnightblue" d="M469.719,-474.44C352.634,-471.686 0,-455.39 0,-359 0,-359 0,-359 0,-127 0,-86.8458 32.0839,-49.5945 54.2825,-28.6261"/>
<polygon fill="midnightblue" stroke="midnightblue" points="56.8949,-30.9812 61.936,-21.6624 52.184,-25.8036 56.8949,-30.9812"/>
</g>
<!-- Node9 -->
<g id="node19" class="node"><title>Node9</title>
<a xlink:href="knotgraph_8hpp.html" target="_top" xlink:title="knotgraph.hpp">
<polygon fill="none" stroke="black" points="334,-290.5 334,-311.5 412,-311.5 412,-290.5 334,-290.5"/>
<text text-anchor="middle" x="373" y="-298.5" font-family="Helvetica,sans-Serif" font-size="10.00">knotgraph.hpp</text>
</a>
</g>
<!-- Node1&#45;&gt;Node9 -->
<g id="edge54" class="edge"><title>Node1&#45;&gt;Node9</title>
<path fill="none" stroke="midnightblue" d="M469.908,-467.728C432.427,-459.538 378.334,-445.113 366,-428 343.317,-396.529 355.063,-348.443 364.666,-321.367"/>
<polygon fill="midnightblue" stroke="midnightblue" points="368.027,-322.374 368.292,-311.783 361.48,-319.897 368.027,-322.374"/>
</g>
<!-- Node15 -->
<g id="node36" class="node"><title>Node15</title>
<polygon fill="none" stroke="#bfbfbf" points="374.5,-406.5 374.5,-427.5 453.5,-427.5 453.5,-406.5 374.5,-406.5"/>
<text text-anchor="middle" x="414" y="-414.5" font-family="Helvetica,sans-Serif" font-size="10.00">QMouseEvent</text>
</g>
<!-- Node1&#45;&gt;Node15 -->
<g id="edge42" class="edge"><title>Node1&#45;&gt;Node15</title>
<path fill="none" stroke="midnightblue" d="M489.942,-464.362C475.915,-455.614 455.816,-443.079 439.818,-433.101"/>
<polygon fill="midnightblue" stroke="midnightblue" points="441.287,-429.893 430.949,-427.571 437.582,-435.832 441.287,-429.893"/>
</g>
<!-- Node16 -->
<g id="node39" class="node"><title>Node16</title>
<polygon fill="none" stroke="#bfbfbf" points="471,-406.5 471,-427.5 543,-427.5 543,-406.5 471,-406.5"/>
<text text-anchor="middle" x="507" y="-414.5" font-family="Helvetica,sans-Serif" font-size="10.00">QApplication</text>
</g>
<!-- Node1&#45;&gt;Node16 -->
<g id="edge46" class="edge"><title>Node1&#45;&gt;Node16</title>
<path fill="none" stroke="midnightblue" d="M507,-464.362C507,-456.922 507,-446.743 507,-437.728"/>
<polygon fill="midnightblue" stroke="midnightblue" points="510.5,-437.571 507,-427.571 503.5,-437.571 510.5,-437.571"/>
</g>
<!-- Node17 -->
<g id="node41" class="node"><title>Node17</title>
<a xlink:href="commands_8hpp.html" target="_top" xlink:title="commands.hpp">
<polygon fill="none" stroke="black" points="231.5,-406.5 231.5,-427.5 314.5,-427.5 314.5,-406.5 231.5,-406.5"/>
<text text-anchor="middle" x="273" y="-414.5" font-family="Helvetica,sans-Serif" font-size="10.00">commands.hpp</text>
</a>
</g>
<!-- Node1&#45;&gt;Node17 -->
<g id="edge48" class="edge"><title>Node1&#45;&gt;Node17</title>
<path fill="none" stroke="midnightblue" d="M469.922,-465.81C430.707,-456.09 368.547,-440.683 324.568,-429.782"/>
<polygon fill="midnightblue" stroke="midnightblue" points="325.189,-426.33 314.641,-427.321 323.505,-433.124 325.189,-426.33"/>
</g>
<!-- Node19 -->
<g id="node47" class="node"><title>Node19</title>
<polygon fill="none" stroke="#bfbfbf" points="560.5,-406.5 560.5,-427.5 659.5,-427.5 659.5,-406.5 560.5,-406.5"/>
<text text-anchor="middle" x="610" y="-414.5" font-family="Helvetica,sans-Serif" font-size="10.00">QXmlStreamWriter</text>
</g>
<!-- Node1&#45;&gt;Node19 -->
<g id="edge56" class="edge"><title>Node1&#45;&gt;Node19</title>
<path fill="none" stroke="midnightblue" d="M525.892,-464.362C541.718,-455.45 564.523,-442.609 582.395,-432.545"/>
<polygon fill="midnightblue" stroke="midnightblue" points="584.232,-435.527 591.228,-427.571 580.797,-429.428 584.232,-435.527"/>
</g>
<!-- Node20 -->
<g id="node49" class="node"><title>Node20</title>
<polygon fill="none" stroke="#bfbfbf" points="677,-406.5 677,-427.5 767,-427.5 767,-406.5 677,-406.5"/>
<text text-anchor="middle" x="722" y="-414.5" font-family="Helvetica,sans-Serif" font-size="10.00">QDomDocument</text>
</g>
<!-- Node1&#45;&gt;Node20 -->
<g id="edge58" class="edge"><title>Node1&#45;&gt;Node20</title>
<path fill="none" stroke="midnightblue" d="M544.45,-464.897C580.012,-455.304 633.689,-440.823 672.713,-430.296"/>
<polygon fill="midnightblue" stroke="midnightblue" points="674.057,-433.559 682.8,-427.575 672.234,-426.8 674.057,-433.559"/>
</g>
<!-- Node21 -->
<g id="node51" class="node"><title>Node21</title>
<polygon fill="none" stroke="#bfbfbf" points="785,-406.5 785,-427.5 869,-427.5 869,-406.5 785,-406.5"/>
<text text-anchor="middle" x="827" y="-414.5" font-family="Helvetica,sans-Serif" font-size="10.00">QSvgGenerator</text>
</g>
<!-- Node1&#45;&gt;Node21 -->
<g id="edge60" class="edge"><title>Node1&#45;&gt;Node21</title>
<path fill="none" stroke="midnightblue" d="M544.071,-468.998C594.149,-460.787 686.429,-445.288 774.806,-428.183"/>
<polygon fill="midnightblue" stroke="midnightblue" points="775.578,-431.598 784.726,-426.252 774.241,-424.727 775.578,-431.598"/>
</g>
<!-- Node22 -->
<g id="node53" class="node"><title>Node22</title>
<polygon fill="none" stroke="#bfbfbf" points="887,-406.5 887,-427.5 951,-427.5 951,-406.5 887,-406.5"/>
<text text-anchor="middle" x="919" y="-414.5" font-family="Helvetica,sans-Serif" font-size="10.00">QScrollBar</text>
</g>
<!-- Node1&#45;&gt;Node22 -->
<g id="edge62" class="edge"><title>Node1&#45;&gt;Node22</title>
<path fill="none" stroke="midnightblue" d="M544.127,-471.983C609.522,-466.304 749.609,-452.513 876.943,-428.002"/>
<polygon fill="midnightblue" stroke="midnightblue" points="877.724,-431.415 886.868,-426.064 876.383,-424.545 877.724,-431.415"/>
</g>
<!-- Node23 -->
<g id="node55" class="node"><title>Node23</title>
<polygon fill="none" stroke="#bfbfbf" points="969,-406.5 969,-427.5 1103,-427.5 1103,-406.5 969,-406.5"/>
<text text-anchor="middle" x="1036" y="-414.5" font-family="Helvetica,sans-Serif" font-size="10.00">QStyleOptionGraphicsItem</text>
</g>
<!-- Node1&#45;&gt;Node23 -->
<g id="edge64" class="edge"><title>Node1&#45;&gt;Node23</title>
<path fill="none" stroke="midnightblue" d="M544.051,-471.667C619.845,-464.737 798.298,-447.86 958.825,-428.108"/>
<polygon fill="midnightblue" stroke="midnightblue" points="959.388,-431.566 968.883,-426.864 958.529,-424.618 959.388,-431.566"/>
</g>
<!-- Node3 -->
<g id="node5" class="node"><title>Node3</title>
<polygon fill="none" stroke="#bfbfbf" points="103.5,-290.5 103.5,-311.5 188.5,-311.5 188.5,-290.5 103.5,-290.5"/>
<text text-anchor="middle" x="146" y="-298.5" font-family="Helvetica,sans-Serif" font-size="10.00">QGraphicsView</text>
</g>
<!-- Node2&#45;&gt;Node3 -->
<g id="edge4" class="edge"><title>Node2&#45;&gt;Node3</title>
<path fill="none" stroke="midnightblue" d="M167.231,-348.362C163.786,-340.677 159.031,-330.069 154.894,-320.84"/>
<polygon fill="midnightblue" stroke="midnightblue" points="158.023,-319.264 150.739,-311.571 151.635,-322.127 158.023,-319.264"/>
</g>
<!-- Node4 -->
<g id="node7" class="node"><title>Node4</title>
<a xlink:href="node_8hpp.html" target="_top" xlink:title="node.hpp">
<polygon fill="none" stroke="black" points="281,-174.5 281,-195.5 337,-195.5 337,-174.5 281,-174.5"/>
<text text-anchor="middle" x="309" y="-182.5" font-family="Helvetica,sans-Serif" font-size="10.00">node.hpp</text>
</a>
</g>
<!-- Node2&#45;&gt;Node4 -->
<g id="edge6" class="edge"><title>Node2&#45;&gt;Node4</title>
<path fill="none" stroke="midnightblue" d="M180.364,-348.377C202.953,-319.688 265.421,-240.348 294.17,-203.835"/>
<polygon fill="midnightblue" stroke="midnightblue" points="296.96,-205.95 300.396,-195.928 291.46,-201.619 296.96,-205.95"/>
</g>
<!-- Node7 -->
<g id="node13" class="node"><title>Node7</title>
<a xlink:href="edge_8hpp.html" target="_top" xlink:title="edge.hpp">
<polygon fill="none" stroke="black" points="225,-116.5 225,-137.5 281,-137.5 281,-116.5 225,-116.5"/>
<text text-anchor="middle" x="253" y="-124.5" font-family="Helvetica,sans-Serif" font-size="10.00">edge.hpp</text>
</a>
</g>
<!-- Node2&#45;&gt;Node7 -->
<g id="edge16" class="edge"><title>Node2&#45;&gt;Node7</title>
<path fill="none" stroke="midnightblue" d="M140.464,-348.438C123.76,-341.048 104.734,-329.346 95,-312 90.2149,-303.473 91.3287,-299.062 95,-290 121.988,-223.381 190.714,-168.954 228.01,-143.16"/>
<polygon fill="midnightblue" stroke="midnightblue" points="230.023,-146.024 236.337,-137.516 226.095,-140.23 230.023,-146.024"/>
</g>
<!-- Node8 -->
<g id="node17" class="node"><title>Node8</title>
<polygon fill="none" stroke="#bfbfbf" points="243.5,-290.5 243.5,-311.5 316.5,-311.5 316.5,-290.5 243.5,-290.5"/>
<text text-anchor="middle" x="280" y="-298.5" font-family="Helvetica,sans-Serif" font-size="10.00">QUndoStack</text>
</g>
<!-- Node2&#45;&gt;Node8 -->
<g id="edge18" class="edge"><title>Node2&#45;&gt;Node8</title>
<path fill="none" stroke="midnightblue" d="M191.558,-348.497C208.198,-339.56 232.327,-326.602 251.18,-316.477"/>
<polygon fill="midnightblue" stroke="midnightblue" points="253.069,-319.436 260.223,-311.621 249.757,-313.269 253.069,-319.436"/>
</g>
<!-- Node2&#45;&gt;Node9 -->
<g id="edge20" class="edge"><title>Node2&#45;&gt;Node9</title>
<path fill="none" stroke="midnightblue" d="M208.4,-348.497C241.594,-338.918 290.799,-324.72 326.764,-314.342"/>
<polygon fill="midnightblue" stroke="midnightblue" points="327.895,-317.658 336.532,-311.523 325.954,-310.933 327.895,-317.658"/>
</g>
<!-- Node14 -->
<g id="node33" class="node"><title>Node14</title>
<a xlink:href="snapping__grid_8hpp.html" target="_top" xlink:title="snapping_grid.hpp">
<polygon fill="none" stroke="black" points="27.5,-116.5 27.5,-137.5 122.5,-137.5 122.5,-116.5 27.5,-116.5"/>
<text text-anchor="middle" x="75" y="-124.5" font-family="Helvetica,sans-Serif" font-size="10.00">snapping_grid.hpp</text>
</a>
</g>
<!-- Node2&#45;&gt;Node14 -->
<g id="edge38" class="edge"><title>Node2&#45;&gt;Node14</title>
<path fill="none" stroke="midnightblue" d="M136.887,-348.354C119.157,-341.07 99.1019,-329.497 88,-312 55.3272,-260.507 63.8852,-183.94 70.5486,-147.59"/>
<polygon fill="midnightblue" stroke="midnightblue" points="74.0034,-148.161 72.508,-137.672 67.1361,-146.804 74.0034,-148.161"/>
</g>
<!-- Node5 -->
<g id="node9" class="node"><title>Node5</title>
<a xlink:href="custom__item_8hpp.html" target="_top" xlink:title="custom_item.hpp">
<polygon fill="none" stroke="black" points="207,-58.5 207,-79.5 299,-79.5 299,-58.5 207,-58.5"/>
<text text-anchor="middle" x="253" y="-66.5" font-family="Helvetica,sans-Serif" font-size="10.00">custom_item.hpp</text>
</a>
</g>
<!-- Node4&#45;&gt;Node5 -->
<g id="edge8" class="edge"><title>Node4&#45;&gt;Node5</title>
<path fill="none" stroke="midnightblue" d="M307.401,-174.237C305.023,-160.238 299.749,-135.297 290,-116 284.802,-105.711 277.156,-95.5087 270.161,-87.2518"/>
<polygon fill="midnightblue" stroke="midnightblue" points="272.743,-84.8883 263.499,-79.7124 267.498,-89.5235 272.743,-84.8883"/>
</g>
<!-- Node4&#45;&gt;Node7 -->
<g id="edge12" class="edge"><title>Node4&#45;&gt;Node7</title>
<path fill="none" stroke="midnightblue" d="M298.729,-174.362C290.756,-166.104 279.525,-154.472 270.189,-144.803"/>
<polygon fill="midnightblue" stroke="midnightblue" points="272.67,-142.334 263.206,-137.571 267.634,-147.196 272.67,-142.334"/>
</g>
<!-- Node5&#45;&gt;Node6 -->
<g id="edge10" class="edge"><title>Node5&#45;&gt;Node6</title>
<path fill="none" stroke="midnightblue" d="M220.766,-58.4966C191.747,-49.0411 148.91,-35.0829 117.176,-24.7428"/>
<polygon fill="midnightblue" stroke="midnightblue" points="117.887,-21.2934 107.295,-21.5231 115.719,-27.949 117.887,-21.2934"/>
</g>
<!-- Node7&#45;&gt;Node5 -->
<g id="edge14" class="edge"><title>Node7&#45;&gt;Node5</title>
<path fill="none" stroke="midnightblue" d="M253,-116.362C253,-108.922 253,-98.7427 253,-89.7276"/>
<polygon fill="midnightblue" stroke="midnightblue" points="256.5,-89.5706 253,-79.5707 249.5,-89.5707 256.5,-89.5706"/>
</g>
<!-- Node9&#45;&gt;Node4 -->
<g id="edge24" class="edge"><title>Node9&#45;&gt;Node4</title>
<path fill="none" stroke="midnightblue" d="M350.446,-290.466C336.383,-282.575 319.41,-270.331 311,-254 303.305,-239.057 303.441,-219.778 305.137,-205.398"/>
<polygon fill="midnightblue" stroke="midnightblue" points="308.598,-205.921 306.635,-195.51 301.677,-204.873 308.598,-205.921"/>
</g>
<!-- Node9&#45;&gt;Node7 -->
<g id="edge26" class="edge"><title>Node9&#45;&gt;Node7</title>
<path fill="none" stroke="midnightblue" d="M349.893,-290.355C334.211,-282.2 313.882,-269.693 300,-254 272.618,-223.047 260.68,-174.723 255.887,-147.478"/>
<polygon fill="midnightblue" stroke="midnightblue" points="259.329,-146.837 254.291,-137.517 252.417,-147.945 259.329,-146.837"/>
</g>
<!-- Node10 -->
<g id="node21" class="node"><title>Node10</title>
<polygon fill="none" stroke="#bfbfbf" points="477.5,-174.5 477.5,-195.5 552.5,-195.5 552.5,-174.5 477.5,-174.5"/>
<text text-anchor="middle" x="515" y="-182.5" font-family="Helvetica,sans-Serif" font-size="10.00">QPainterPath</text>
</g>
<!-- Node9&#45;&gt;Node10 -->
<g id="edge22" class="edge"><title>Node9&#45;&gt;Node10</title>
<path fill="none" stroke="midnightblue" d="M412.123,-296.714C461.21,-290.436 541.145,-276.928 559,-254 572.053,-237.238 554.845,-216.516 538.275,-202.179"/>
<polygon fill="midnightblue" stroke="midnightblue" points="540.289,-199.306 530.326,-195.699 535.865,-204.731 540.289,-199.306"/>
</g>
<!-- Node11 -->
<g id="node25" class="node"><title>Node11</title>
<polygon fill="none" stroke="#bfbfbf" points="447.5,-232.5 447.5,-253.5 550.5,-253.5 550.5,-232.5 447.5,-232.5"/>
<text text-anchor="middle" x="499" y="-240.5" font-family="Helvetica,sans-Serif" font-size="10.00">QGraphicsPathItem</text>
</g>
<!-- Node9&#45;&gt;Node11 -->
<g id="edge28" class="edge"><title>Node9&#45;&gt;Node11</title>
<path fill="none" stroke="midnightblue" d="M395.818,-290.497C415.586,-281.397 444.413,-268.127 466.576,-257.925"/>
<polygon fill="midnightblue" stroke="midnightblue" points="468.306,-260.982 475.926,-253.621 465.379,-254.623 468.306,-260.982"/>
</g>
<!-- Node12 -->
<g id="node27" class="node"><title>Node12</title>
<a xlink:href="knot__curve__style_8hpp.html" target="_top" xlink:title="knot_curve_style.hpp">
<polygon fill="none" stroke="black" points="320,-232.5 320,-253.5 430,-253.5 430,-232.5 320,-232.5"/>
<text text-anchor="middle" x="375" y="-240.5" font-family="Helvetica,sans-Serif" font-size="10.00">knot_curve_style.hpp</text>
</a>
</g>
<!-- Node9&#45;&gt;Node12 -->
<g id="edge30" class="edge"><title>Node9&#45;&gt;Node12</title>
<path fill="none" stroke="midnightblue" d="M373.367,-290.362C373.623,-282.922 373.974,-272.743 374.285,-263.728"/>
<polygon fill="midnightblue" stroke="midnightblue" points="377.789,-263.685 374.635,-253.571 370.793,-263.444 377.789,-263.685"/>
</g>
<!-- Node12&#45;&gt;Node4 -->
<g id="edge32" class="edge"><title>Node12&#45;&gt;Node4</title>
<path fill="none" stroke="midnightblue" d="M362.895,-232.362C353.312,-223.941 339.736,-212.011 328.607,-202.231"/>
<polygon fill="midnightblue" stroke="midnightblue" points="330.851,-199.543 321.029,-195.571 326.23,-204.801 330.851,-199.543"/>
</g>
<!-- Node12&#45;&gt;Node10 -->
<g id="edge34" class="edge"><title>Node12&#45;&gt;Node10</title>
<path fill="none" stroke="midnightblue" d="M400.353,-232.497C422.613,-223.275 455.212,-209.769 479.963,-199.515"/>
<polygon fill="midnightblue" stroke="midnightblue" points="481.464,-202.682 489.363,-195.621 478.784,-196.215 481.464,-202.682"/>
</g>
<!-- Node13 -->
<g id="node31" class="node"><title>Node13</title>
<polygon fill="none" stroke="#bfbfbf" points="354.5,-174.5 354.5,-195.5 397.5,-195.5 397.5,-174.5 354.5,-174.5"/>
<text text-anchor="middle" x="376" y="-182.5" font-family="Helvetica,sans-Serif" font-size="10.00">QMap</text>
</g>
<!-- Node12&#45;&gt;Node13 -->
<g id="edge36" class="edge"><title>Node12&#45;&gt;Node13</title>
<path fill="none" stroke="midnightblue" d="M375.183,-232.362C375.312,-224.922 375.487,-214.743 375.643,-205.728"/>
<polygon fill="midnightblue" stroke="midnightblue" points="379.145,-205.63 375.818,-195.571 372.146,-205.509 379.145,-205.63"/>
</g>
<!-- Node14&#45;&gt;Node6 -->
<g id="edge40" class="edge"><title>Node14&#45;&gt;Node6</title>
<path fill="none" stroke="midnightblue" d="M75,-116.295C75,-97.1314 75,-56.654 75,-31.8434"/>
<polygon fill="midnightblue" stroke="midnightblue" points="78.5001,-31.6792 75,-21.6792 71.5001,-31.6792 78.5001,-31.6792"/>
</g>
<!-- Node17&#45;&gt;Node2 -->
<g id="edge50" class="edge"><title>Node17&#45;&gt;Node2</title>
<path fill="none" stroke="midnightblue" d="M254.475,-406.362C239.099,-397.532 217.004,-384.844 199.553,-374.822"/>
<polygon fill="midnightblue" stroke="midnightblue" points="200.822,-371.515 190.408,-369.571 197.336,-377.586 200.822,-371.515"/>
</g>
<!-- Node18 -->
<g id="node44" class="node"><title>Node18</title>
<polygon fill="none" stroke="#bfbfbf" points="227,-348.5 227,-369.5 319,-369.5 319,-348.5 227,-348.5"/>
<text text-anchor="middle" x="273" y="-356.5" font-family="Helvetica,sans-Serif" font-size="10.00">QUndoCommand</text>
</g>
<!-- Node17&#45;&gt;Node18 -->
<g id="edge52" class="edge"><title>Node17&#45;&gt;Node18</title>
<path fill="none" stroke="midnightblue" d="M273,-406.362C273,-398.922 273,-388.743 273,-379.728"/>
<polygon fill="midnightblue" stroke="midnightblue" points="276.5,-379.571 273,-369.571 269.5,-379.571 276.5,-379.571"/>
</g>
</g>
</svg>
