<?xml version="1.0" encoding="UTF-8" standalone="no"?>
<!DOCTYPE svg PUBLIC "-//W3C//DTD SVG 1.1//EN"
 "http://www.w3.org/Graphics/SVG/1.1/DTD/svg11.dtd">
<!-- Generated by graphviz version 2.26.3 (20100126.1600)
 -->
<!-- Title: G Pages: 1 -->
<svg width="318pt" height="378pt"
 viewBox="0.00 0.00 317.94 378.00" xmlns="http://www.w3.org/2000/svg" xmlns:xlink="http://www.w3.org/1999/xlink">
<g id="graph1" class="graph" transform="scale(1 1) rotate(0) translate(4 374)">
<title>G</title>
<!-- Node1 -->
<g id="node1" class="node"><title>Node1</title>
<polygon fill="#bfbfbf" stroke="black" points="163.144,-348.5 163.144,-369.5 241.144,-369.5 241.144,-348.5 163.144,-348.5"/>
<text text-anchor="middle" x="202.144" y="-356.5" font-family="Helvetica,sans-Serif" font-size="10.00">knotgraph.cpp</text>
</g>
<!-- Node2 -->
<g id="node3" class="node"><title>Node2</title>
<a xlink:href="knotgraph_8hpp.html" target="_top" xlink:title="knotgraph.hpp">
<polygon fill="none" stroke="black" points="81.1436,-290.5 81.1436,-311.5 159.144,-311.5 159.144,-290.5 81.1436,-290.5"/>
<text text-anchor="middle" x="120.144" y="-298.5" font-family="Helvetica,sans-Serif" font-size="10.00">knotgraph.hpp</text>
</a>
</g>
<!-- Node1&#45;&gt;Node2 -->
<g id="edge2" class="edge"><title>Node1&#45;&gt;Node2</title>
<path fill="none" stroke="midnightblue" d="M187.104,-348.362C174.851,-339.696 157.344,-327.313 143.304,-317.382"/>
<polygon fill="midnightblue" stroke="midnightblue" points="145.274,-314.488 135.088,-311.571 141.231,-320.203 145.274,-314.488"/>
</g>
<!-- Node11 -->
<g id="node25" class="node"><title>Node11</title>
<polygon fill="none" stroke="#bfbfbf" points="177.144,-290.5 177.144,-311.5 227.144,-311.5 227.144,-290.5 177.144,-290.5"/>
<text text-anchor="middle" x="202.144" y="-298.5" font-family="Helvetica,sans-Serif" font-size="10.00">QBrush</text>
</g>
<!-- Node1&#45;&gt;Node11 -->
<g id="edge28" class="edge"><title>Node1&#45;&gt;Node11</title>
<path fill="none" stroke="midnightblue" d="M202.144,-348.362C202.144,-340.922 202.144,-330.743 202.144,-321.728"/>
<polygon fill="midnightblue" stroke="midnightblue" points="205.644,-321.571 202.144,-311.571 198.644,-321.571 205.644,-321.571"/>
</g>
<!-- Node12 -->
<g id="node27" class="node"><title>Node12</title>
<polygon fill="none" stroke="#bfbfbf" points="244.644,-290.5 244.644,-311.5 285.644,-311.5 285.644,-290.5 244.644,-290.5"/>
<text text-anchor="middle" x="265.144" y="-298.5" font-family="Helvetica,sans-Serif" font-size="10.00">QPen</text>
</g>
<!-- Node1&#45;&gt;Node12 -->
<g id="edge30" class="edge"><title>Node1&#45;&gt;Node12</title>
<path fill="none" stroke="midnightblue" d="M213.699,-348.362C222.757,-340.023 235.553,-328.242 246.117,-318.516"/>
<polygon fill="midnightblue" stroke="midnightblue" points="248.675,-320.919 253.662,-311.571 243.934,-315.769 248.675,-320.919"/>
</g>
<!-- Node3 -->
<g id="node5" class="node"><title>Node3</title>
<polygon fill="none" stroke="#bfbfbf" points="16.6436,-174.5 16.6436,-195.5 91.6436,-195.5 91.6436,-174.5 16.6436,-174.5"/>
<text text-anchor="middle" x="54.1436" y="-182.5" font-family="Helvetica,sans-Serif" font-size="10.00">QPainterPath</text>
</g>
<!-- Node2&#45;&gt;Node3 -->
<g id="edge4" class="edge"><title>Node2&#45;&gt;Node3</title>
<path fill="none" stroke="midnightblue" d="M96.5607,-290.471C82.1148,-282.649 64.7898,-270.48 56.1436,-254 48.3348,-239.116 48.4818,-219.831 50.2112,-205.434"/>
<polygon fill="midnightblue" stroke="midnightblue" points="53.6733,-205.948 51.7366,-195.531 46.7549,-204.882 53.6733,-205.948"/>
</g>
<!-- Node4 -->
<g id="node7" class="node"><title>Node4</title>
<a xlink:href="node_8hpp.html" target="_top" xlink:title="node.hpp">
<polygon fill="none" stroke="black" points="169.144,-174.5 169.144,-195.5 225.144,-195.5 225.144,-174.5 169.144,-174.5"/>
<text text-anchor="middle" x="197.144" y="-182.5" font-family="Helvetica,sans-Serif" font-size="10.00">node.hpp</text>
</a>
</g>
<!-- Node2&#45;&gt;Node4 -->
<g id="edge6" class="edge"><title>Node2&#45;&gt;Node4</title>
<path fill="none" stroke="midnightblue" d="M159.455,-291.592C212.824,-278.731 301.881,-256.913 304.144,-254 326.782,-224.853 274.375,-204.375 235.183,-193.656"/>
<polygon fill="midnightblue" stroke="midnightblue" points="235.867,-190.217 225.307,-191.08 234.1,-196.991 235.867,-190.217"/>
</g>
<!-- Node7 -->
<g id="node13" class="node"><title>Node7</title>
<a xlink:href="edge_8hpp.html" target="_top" xlink:title="edge.hpp">
<polygon fill="none" stroke="black" points="113.144,-116.5 113.144,-137.5 169.144,-137.5 169.144,-116.5 113.144,-116.5"/>
<text text-anchor="middle" x="141.144" y="-124.5" font-family="Helvetica,sans-Serif" font-size="10.00">edge.hpp</text>
</a>
</g>
<!-- Node2&#45;&gt;Node7 -->
<g id="edge16" class="edge"><title>Node2&#45;&gt;Node7</title>
<path fill="none" stroke="midnightblue" d="M97.8229,-290.454C56.5121,-269.488 -24.7872,-220.564 8.14357,-174 19.3728,-158.122 67.8599,-143.855 103.053,-135.312"/>
<polygon fill="midnightblue" stroke="midnightblue" points="104.111,-138.659 113.038,-132.953 102.501,-131.846 104.111,-138.659"/>
</g>
<!-- Node8 -->
<g id="node17" class="node"><title>Node8</title>
<polygon fill="none" stroke="#bfbfbf" points="192.644,-232.5 192.644,-253.5 295.644,-253.5 295.644,-232.5 192.644,-232.5"/>
<text text-anchor="middle" x="244.144" y="-240.5" font-family="Helvetica,sans-Serif" font-size="10.00">QGraphicsPathItem</text>
</g>
<!-- Node2&#45;&gt;Node8 -->
<g id="edge18" class="edge"><title>Node2&#45;&gt;Node8</title>
<path fill="none" stroke="midnightblue" d="M142.599,-290.497C162.053,-281.397 190.423,-268.127 212.234,-257.925"/>
<polygon fill="midnightblue" stroke="midnightblue" points="213.861,-261.028 221.436,-253.621 210.895,-254.688 213.861,-261.028"/>
</g>
<!-- Node9 -->
<g id="node19" class="node"><title>Node9</title>
<a xlink:href="knot__curve__style_8hpp.html" target="_top" xlink:title="knot_curve_style.hpp">
<polygon fill="none" stroke="black" points="65.1436,-232.5 65.1436,-253.5 175.144,-253.5 175.144,-232.5 65.1436,-232.5"/>
<text text-anchor="middle" x="120.144" y="-240.5" font-family="Helvetica,sans-Serif" font-size="10.00">knot_curve_style.hpp</text>
</a>
</g>
<!-- Node2&#45;&gt;Node9 -->
<g id="edge20" class="edge"><title>Node2&#45;&gt;Node9</title>
<path fill="none" stroke="midnightblue" d="M120.144,-290.362C120.144,-282.922 120.144,-272.743 120.144,-263.728"/>
<polygon fill="midnightblue" stroke="midnightblue" points="123.644,-263.571 120.144,-253.571 116.644,-263.571 123.644,-263.571"/>
</g>
<!-- Node5 -->
<g id="node9" class="node"><title>Node5</title>
<a xlink:href="custom__item_8hpp.html" target="_top" xlink:title="custom_item.hpp">
<polygon fill="none" stroke="black" points="123.144,-58.5 123.144,-79.5 215.144,-79.5 215.144,-58.5 123.144,-58.5"/>
<text text-anchor="middle" x="169.144" y="-66.5" font-family="Helvetica,sans-Serif" font-size="10.00">custom_item.hpp</text>
</a>
</g>
<!-- Node4&#45;&gt;Node5 -->
<g id="edge8" class="edge"><title>Node4&#45;&gt;Node5</title>
<path fill="none" stroke="midnightblue" d="M194.56,-174.295C189.913,-155.045 180.075,-114.289 174.094,-89.5091"/>
<polygon fill="midnightblue" stroke="midnightblue" points="177.47,-88.5788 171.721,-79.6792 170.666,-90.2213 177.47,-88.5788"/>
</g>
<!-- Node4&#45;&gt;Node7 -->
<g id="edge12" class="edge"><title>Node4&#45;&gt;Node7</title>
<path fill="none" stroke="midnightblue" d="M186.872,-174.362C178.899,-166.104 167.669,-154.472 158.333,-144.803"/>
<polygon fill="midnightblue" stroke="midnightblue" points="160.814,-142.334 151.35,-137.571 155.778,-147.196 160.814,-142.334"/>
</g>
<!-- Node6 -->
<g id="node11" class="node"><title>Node6</title>
<polygon fill="none" stroke="#bfbfbf" points="127.644,-0.5 127.644,-21.5 210.644,-21.5 210.644,-0.5 127.644,-0.5"/>
<text text-anchor="middle" x="169.144" y="-8.5" font-family="Helvetica,sans-Serif" font-size="10.00">QGraphicsItem</text>
</g>
<!-- Node5&#45;&gt;Node6 -->
<g id="edge10" class="edge"><title>Node5&#45;&gt;Node6</title>
<path fill="none" stroke="midnightblue" d="M169.144,-58.3619C169.144,-50.9219 169.144,-40.7427 169.144,-31.7276"/>
<polygon fill="midnightblue" stroke="midnightblue" points="172.644,-31.5706 169.144,-21.5707 165.644,-31.5707 172.644,-31.5706"/>
</g>
<!-- Node7&#45;&gt;Node5 -->
<g id="edge14" class="edge"><title>Node7&#45;&gt;Node5</title>
<path fill="none" stroke="midnightblue" d="M146.279,-116.362C149.989,-108.677 155.11,-98.0686 159.566,-88.8399"/>
<polygon fill="midnightblue" stroke="midnightblue" points="162.845,-90.0978 164.04,-79.5707 156.541,-87.0545 162.845,-90.0978"/>
</g>
<!-- Node9&#45;&gt;Node3 -->
<g id="edge24" class="edge"><title>Node9&#45;&gt;Node3</title>
<path fill="none" stroke="midnightblue" d="M108.038,-232.362C98.4555,-223.941 84.8797,-212.011 73.751,-202.231"/>
<polygon fill="midnightblue" stroke="midnightblue" points="75.9943,-199.543 66.1722,-195.571 71.3735,-204.801 75.9943,-199.543"/>
</g>
<!-- Node9&#45;&gt;Node4 -->
<g id="edge22" class="edge"><title>Node9&#45;&gt;Node4</title>
<path fill="none" stroke="midnightblue" d="M134.267,-232.362C145.663,-223.777 161.902,-211.546 175.021,-201.664"/>
<polygon fill="midnightblue" stroke="midnightblue" points="177.228,-204.383 183.11,-195.571 173.017,-198.792 177.228,-204.383"/>
</g>
<!-- Node10 -->
<g id="node23" class="node"><title>Node10</title>
<polygon fill="none" stroke="#bfbfbf" points="108.644,-174.5 108.644,-195.5 151.644,-195.5 151.644,-174.5 108.644,-174.5"/>
<text text-anchor="middle" x="130.144" y="-182.5" font-family="Helvetica,sans-Serif" font-size="10.00">QMap</text>
</g>
<!-- Node9&#45;&gt;Node10 -->
<g id="edge26" class="edge"><title>Node9&#45;&gt;Node10</title>
<path fill="none" stroke="midnightblue" d="M121.978,-232.362C123.275,-224.84 125.054,-214.519 126.621,-205.431"/>
<polygon fill="midnightblue" stroke="midnightblue" points="130.071,-206.02 128.321,-195.571 123.173,-204.831 130.071,-206.02"/>
</g>
</g>
</svg>
