<?xml version="1.0" encoding="UTF-8" standalone="no"?>
<!DOCTYPE svg PUBLIC "-//W3C//DTD SVG 1.1//EN"
 "http://www.w3.org/Graphics/SVG/1.1/DTD/svg11.dtd">
<!-- Generated by graphviz version 2.26.3 (20100126.1600)
 -->
<!-- Title: G Pages: 1 -->
<svg width="1458pt" height="204pt"
 viewBox="0.00 0.00 1458.00 204.00" xmlns="http://www.w3.org/2000/svg" xmlns:xlink="http://www.w3.org/1999/xlink">
<g id="graph1" class="graph" transform="scale(1 1) rotate(0) translate(4 200)">
<title>G</title>
<!-- Node1 -->
<g id="node1" class="node"><title>Node1</title>
<polygon fill="#bfbfbf" stroke="black" points="1123,-174.5 1123,-195.5 1215,-195.5 1215,-174.5 1123,-174.5"/>
<text text-anchor="middle" x="1169" y="-182.5" font-family="Helvetica,sans-Serif" font-size="10.00">knot_window.cpp</text>
</g>
<!-- Node2 -->
<g id="node3" class="node"><title>Node2</title>
<a xlink:href="knot__window_8hpp.html" target="_top" xlink:title="knot_window.hpp">
<polygon fill="none" stroke="black" points="885,-116.5 885,-137.5 977,-137.5 977,-116.5 885,-116.5"/>
<text text-anchor="middle" x="931" y="-124.5" font-family="Helvetica,sans-Serif" font-size="10.00">knot_window.hpp</text>
</a>
</g>
<!-- Node1&#45;&gt;Node2 -->
<g id="edge2" class="edge"><title>Node1&#45;&gt;Node2</title>
<path fill="none" stroke="midnightblue" d="M1125.9,-174.497C1086.09,-164.795 1026.83,-150.355 984.117,-139.945"/>
<polygon fill="midnightblue" stroke="midnightblue" points="984.725,-136.49 974.181,-137.523 983.068,-143.291 984.725,-136.49"/>
</g>
<!-- Node21 -->
<g id="node41" class="node"><title>Node21</title>
<polygon fill="none" stroke="#bfbfbf" points="994.5,-116.5 994.5,-137.5 1117.5,-137.5 1117.5,-116.5 994.5,-116.5"/>
<text text-anchor="middle" x="1056" y="-124.5" font-family="Helvetica,sans-Serif" font-size="10.00">graphics/commands.hpp</text>
</g>
<!-- Node1&#45;&gt;Node21 -->
<g id="edge40" class="edge"><title>Node1&#45;&gt;Node21</title>
<path fill="none" stroke="midnightblue" d="M1148.54,-174.497C1130.97,-165.479 1105.42,-152.365 1085.61,-142.201"/>
<polygon fill="midnightblue" stroke="midnightblue" points="1087.19,-139.074 1076.69,-137.621 1083.99,-145.301 1087.19,-139.074"/>
</g>
<!-- Node22 -->
<g id="node43" class="node"><title>Node22</title>
<polygon fill="none" stroke="#bfbfbf" points="1135,-116.5 1135,-137.5 1203,-137.5 1203,-116.5 1135,-116.5"/>
<text text-anchor="middle" x="1169" y="-124.5" font-family="Helvetica,sans-Serif" font-size="10.00">QFileDialog</text>
</g>
<!-- Node1&#45;&gt;Node22 -->
<g id="edge42" class="edge"><title>Node1&#45;&gt;Node22</title>
<path fill="none" stroke="midnightblue" d="M1169,-174.362C1169,-166.922 1169,-156.743 1169,-147.728"/>
<polygon fill="midnightblue" stroke="midnightblue" points="1172.5,-147.571 1169,-137.571 1165.5,-147.571 1172.5,-147.571"/>
</g>
<!-- Node23 -->
<g id="node45" class="node"><title>Node23</title>
<polygon fill="none" stroke="#bfbfbf" points="1220.5,-116.5 1220.5,-137.5 1301.5,-137.5 1301.5,-116.5 1220.5,-116.5"/>
<text text-anchor="middle" x="1261" y="-124.5" font-family="Helvetica,sans-Serif" font-size="10.00">QMessageBox</text>
</g>
<!-- Node1&#45;&gt;Node23 -->
<g id="edge44" class="edge"><title>Node1&#45;&gt;Node23</title>
<path fill="none" stroke="midnightblue" d="M1185.87,-174.362C1199.75,-165.614 1219.63,-153.079 1235.46,-143.101"/>
<polygon fill="midnightblue" stroke="midnightblue" points="1237.64,-145.864 1244.23,-137.571 1233.91,-139.943 1237.64,-145.864"/>
</g>
<!-- Node24 -->
<g id="node47" class="node"><title>Node24</title>
<polygon fill="none" stroke="#bfbfbf" points="1318.5,-116.5 1318.5,-137.5 1429.5,-137.5 1429.5,-116.5 1318.5,-116.5"/>
<text text-anchor="middle" x="1374" y="-124.5" font-family="Helvetica,sans-Serif" font-size="10.00">dialogs/gridconfig.hpp</text>
</g>
<!-- Node1&#45;&gt;Node24 -->
<g id="edge46" class="edge"><title>Node1&#45;&gt;Node24</title>
<path fill="none" stroke="midnightblue" d="M1206.12,-174.497C1239.98,-164.918 1290.16,-150.72 1326.84,-140.342"/>
<polygon fill="midnightblue" stroke="midnightblue" points="1328.14,-143.613 1336.81,-137.523 1326.23,-136.878 1328.14,-143.613"/>
</g>
<!-- Node3 -->
<g id="node5" class="node"><title>Node3</title>
<a xlink:href="ui__knot__window_8h.html" target="_top" xlink:title="ui_knot_window.h">
<polygon fill="none" stroke="black" points="694.5,-58.5 694.5,-79.5 789.5,-79.5 789.5,-58.5 694.5,-58.5"/>
<text text-anchor="middle" x="742" y="-66.5" font-family="Helvetica,sans-Serif" font-size="10.00">ui_knot_window.h</text>
</a>
</g>
<!-- Node2&#45;&gt;Node3 -->
<g id="edge4" class="edge"><title>Node2&#45;&gt;Node3</title>
<path fill="none" stroke="midnightblue" d="M896.774,-116.497C865.695,-106.959 819.688,-92.8408 785.91,-82.475"/>
<polygon fill="midnightblue" stroke="midnightblue" points="786.877,-79.1109 776.291,-79.5231 784.824,-85.8029 786.877,-79.1109"/>
</g>
<!-- Node17 -->
<g id="node33" class="node"><title>Node17</title>
<polygon fill="none" stroke="#bfbfbf" points="806.5,-58.5 806.5,-79.5 879.5,-79.5 879.5,-58.5 806.5,-58.5"/>
<text text-anchor="middle" x="843" y="-66.5" font-family="Helvetica,sans-Serif" font-size="10.00">QUndoStack</text>
</g>
<!-- Node2&#45;&gt;Node17 -->
<g id="edge32" class="edge"><title>Node2&#45;&gt;Node17</title>
<path fill="none" stroke="midnightblue" d="M914.859,-116.362C901.586,-107.614 882.568,-95.0786 867.43,-85.1015"/>
<polygon fill="midnightblue" stroke="midnightblue" points="869.314,-82.1515 859.038,-79.5707 865.462,-87.9962 869.314,-82.1515"/>
</g>
<!-- Node18 -->
<g id="node35" class="node"><title>Node18</title>
<polygon fill="none" stroke="#bfbfbf" points="896.5,-58.5 896.5,-79.5 965.5,-79.5 965.5,-58.5 896.5,-58.5"/>
<text text-anchor="middle" x="931" y="-66.5" font-family="Helvetica,sans-Serif" font-size="10.00">QUndoView</text>
</g>
<!-- Node2&#45;&gt;Node18 -->
<g id="edge34" class="edge"><title>Node2&#45;&gt;Node18</title>
<path fill="none" stroke="midnightblue" d="M931,-116.362C931,-108.922 931,-98.7427 931,-89.7276"/>
<polygon fill="midnightblue" stroke="midnightblue" points="934.5,-89.5706 931,-79.5707 927.5,-89.5707 934.5,-89.5706"/>
</g>
<!-- Node19 -->
<g id="node37" class="node"><title>Node19</title>
<polygon fill="none" stroke="#bfbfbf" points="982.5,-58.5 982.5,-79.5 1103.5,-79.5 1103.5,-58.5 982.5,-58.5"/>
<text text-anchor="middle" x="1043" y="-66.5" font-family="Helvetica,sans-Serif" font-size="10.00">dialogs/style_dialog.hpp</text>
</g>
<!-- Node2&#45;&gt;Node19 -->
<g id="edge36" class="edge"><title>Node2&#45;&gt;Node19</title>
<path fill="none" stroke="midnightblue" d="M951.282,-116.497C968.618,-107.519 993.79,-94.4835 1013.38,-84.3387"/>
<polygon fill="midnightblue" stroke="midnightblue" points="1015.22,-87.3278 1022.49,-79.6212 1012,-81.1118 1015.22,-87.3278"/>
</g>
<!-- Node20 -->
<g id="node39" class="node"><title>Node20</title>
<polygon fill="none" stroke="#bfbfbf" points="1121,-58.5 1121,-79.5 1235,-79.5 1235,-58.5 1121,-58.5"/>
<text text-anchor="middle" x="1178" y="-66.5" font-family="Helvetica,sans-Serif" font-size="10.00">graphics/clipboard.hpp</text>
</g>
<!-- Node2&#45;&gt;Node20 -->
<g id="edge38" class="edge"><title>Node2&#45;&gt;Node20</title>
<path fill="none" stroke="midnightblue" d="M975.73,-116.497C1017.22,-106.755 1079.06,-92.2328 1123.43,-81.813"/>
<polygon fill="midnightblue" stroke="midnightblue" points="1124.25,-85.2165 1133.19,-79.5231 1122.65,-78.4018 1124.25,-85.2165"/>
</g>
<!-- Node4 -->
<g id="node7" class="node"><title>Node4</title>
<polygon fill="none" stroke="#bfbfbf" points="-0.5,-0.5 -0.5,-21.5 88.5,-21.5 88.5,-0.5 -0.5,-0.5"/>
<text text-anchor="middle" x="44" y="-8.5" font-family="Helvetica,sans-Serif" font-size="10.00">QtCore/QVariant</text>
</g>
<!-- Node3&#45;&gt;Node4 -->
<g id="edge6" class="edge"><title>Node3&#45;&gt;Node4</title>
<path fill="none" stroke="midnightblue" d="M694.435,-67.6804C588.873,-64.2904 326.94,-53.3322 98.8945,-22.1251"/>
<polygon fill="midnightblue" stroke="midnightblue" points="99.1326,-18.6247 88.747,-20.7198 98.1724,-25.5586 99.1326,-18.6247"/>
</g>
<!-- Node5 -->
<g id="node9" class="node"><title>Node5</title>
<polygon fill="none" stroke="#bfbfbf" points="106,-0.5 106,-21.5 186,-21.5 186,-0.5 106,-0.5"/>
<text text-anchor="middle" x="146" y="-8.5" font-family="Helvetica,sans-Serif" font-size="10.00">QtGui/QAction</text>
</g>
<!-- Node3&#45;&gt;Node5 -->
<g id="edge8" class="edge"><title>Node3&#45;&gt;Node5</title>
<path fill="none" stroke="midnightblue" d="M694.183,-67.0662C600.458,-62.8056 385.93,-50.7378 196.188,-22.0067"/>
<polygon fill="midnightblue" stroke="midnightblue" points="196.442,-18.5049 186.027,-20.4484 195.381,-25.424 196.442,-18.5049"/>
</g>
<!-- Node6 -->
<g id="node11" class="node"><title>Node6</title>
<polygon fill="none" stroke="#bfbfbf" points="203.5,-0.5 203.5,-21.5 304.5,-21.5 304.5,-0.5 203.5,-0.5"/>
<text text-anchor="middle" x="254" y="-8.5" font-family="Helvetica,sans-Serif" font-size="10.00">QtGui/QApplication</text>
</g>
<!-- Node3&#45;&gt;Node6 -->
<g id="edge10" class="edge"><title>Node3&#45;&gt;Node6</title>
<path fill="none" stroke="midnightblue" d="M694.238,-64.9495C616.72,-58.117 458.504,-43.0996 315.106,-22.2358"/>
<polygon fill="midnightblue" stroke="midnightblue" points="315.211,-18.7137 304.808,-20.7236 314.193,-25.6395 315.211,-18.7137"/>
</g>
<!-- Node7 -->
<g id="node13" class="node"><title>Node7</title>
<polygon fill="none" stroke="#bfbfbf" points="321.5,-0.5 321.5,-21.5 428.5,-21.5 428.5,-0.5 321.5,-0.5"/>
<text text-anchor="middle" x="375" y="-8.5" font-family="Helvetica,sans-Serif" font-size="10.00">QtGui/QButtonGroup</text>
</g>
<!-- Node3&#45;&gt;Node7 -->
<g id="edge12" class="edge"><title>Node3&#45;&gt;Node7</title>
<path fill="none" stroke="midnightblue" d="M694.4,-62.0066C636.336,-53.4001 534.928,-38.1245 438.655,-22.2515"/>
<polygon fill="midnightblue" stroke="midnightblue" points="439.193,-18.793 428.756,-20.6142 438.05,-25.6992 439.193,-18.793"/>
</g>
<!-- Node8 -->
<g id="node15" class="node"><title>Node8</title>
<polygon fill="none" stroke="#bfbfbf" points="446,-0.5 446,-21.5 546,-21.5 546,-0.5 446,-0.5"/>
<text text-anchor="middle" x="496" y="-8.5" font-family="Helvetica,sans-Serif" font-size="10.00">QtGui/QGridLayout</text>
</g>
<!-- Node3&#45;&gt;Node8 -->
<g id="edge14" class="edge"><title>Node3&#45;&gt;Node8</title>
<path fill="none" stroke="midnightblue" d="M697.451,-58.4966C656.218,-48.775 594.798,-34.2938 550.624,-23.8787"/>
<polygon fill="midnightblue" stroke="midnightblue" points="551.169,-20.4113 540.632,-21.5231 549.562,-27.2245 551.169,-20.4113"/>
</g>
<!-- Node9 -->
<g id="node17" class="node"><title>Node9</title>
<polygon fill="none" stroke="#bfbfbf" points="564,-0.5 564,-21.5 670,-21.5 670,-0.5 564,-0.5"/>
<text text-anchor="middle" x="617" y="-8.5" font-family="Helvetica,sans-Serif" font-size="10.00">QtGui/QHeaderView</text>
</g>
<!-- Node3&#45;&gt;Node9 -->
<g id="edge16" class="edge"><title>Node3&#45;&gt;Node9</title>
<path fill="none" stroke="midnightblue" d="M719.363,-58.4966C699.752,-49.397 671.154,-36.1273 649.167,-25.9253"/>
<polygon fill="midnightblue" stroke="midnightblue" points="650.435,-22.6554 639.891,-21.6212 647.488,-29.0051 650.435,-22.6554"/>
</g>
<!-- Node10 -->
<g id="node19" class="node"><title>Node10</title>
<polygon fill="none" stroke="#bfbfbf" points="687.5,-0.5 687.5,-21.5 796.5,-21.5 796.5,-0.5 687.5,-0.5"/>
<text text-anchor="middle" x="742" y="-8.5" font-family="Helvetica,sans-Serif" font-size="10.00">QtGui/QMainWindow</text>
</g>
<!-- Node3&#45;&gt;Node10 -->
<g id="edge18" class="edge"><title>Node3&#45;&gt;Node10</title>
<path fill="none" stroke="midnightblue" d="M742,-58.3619C742,-50.9219 742,-40.7427 742,-31.7276"/>
<polygon fill="midnightblue" stroke="midnightblue" points="745.5,-31.5706 742,-21.5707 738.5,-31.5707 745.5,-31.5706"/>
</g>
<!-- Node11 -->
<g id="node21" class="node"><title>Node11</title>
<polygon fill="none" stroke="#bfbfbf" points="813.5,-0.5 813.5,-21.5 890.5,-21.5 890.5,-0.5 813.5,-0.5"/>
<text text-anchor="middle" x="852" y="-8.5" font-family="Helvetica,sans-Serif" font-size="10.00">QtGui/QMenu</text>
</g>
<!-- Node3&#45;&gt;Node11 -->
<g id="edge20" class="edge"><title>Node3&#45;&gt;Node11</title>
<path fill="none" stroke="midnightblue" d="M761.92,-58.4966C778.946,-49.5194 803.669,-36.4835 822.909,-26.3387"/>
<polygon fill="midnightblue" stroke="midnightblue" points="824.643,-29.3814 831.856,-21.6212 821.378,-23.1894 824.643,-29.3814"/>
</g>
<!-- Node12 -->
<g id="node23" class="node"><title>Node12</title>
<polygon fill="none" stroke="#bfbfbf" points="908,-0.5 908,-21.5 1000,-21.5 1000,-0.5 908,-0.5"/>
<text text-anchor="middle" x="954" y="-8.5" font-family="Helvetica,sans-Serif" font-size="10.00">QtGui/QMenuBar</text>
</g>
<!-- Node3&#45;&gt;Node12 -->
<g id="edge22" class="edge"><title>Node3&#45;&gt;Node12</title>
<path fill="none" stroke="midnightblue" d="M780.392,-58.4966C815.552,-48.8773 867.745,-34.5981 905.719,-24.209"/>
<polygon fill="midnightblue" stroke="midnightblue" points="906.814,-27.5379 915.536,-21.5231 904.967,-20.7861 906.814,-27.5379"/>
</g>
<!-- Node13 -->
<g id="node25" class="node"><title>Node13</title>
<polygon fill="none" stroke="#bfbfbf" points="1018,-0.5 1018,-21.5 1114,-21.5 1114,-0.5 1018,-0.5"/>
<text text-anchor="middle" x="1066" y="-8.5" font-family="Helvetica,sans-Serif" font-size="10.00">QtGui/QStatusBar</text>
</g>
<!-- Node3&#45;&gt;Node13 -->
<g id="edge24" class="edge"><title>Node3&#45;&gt;Node13</title>
<path fill="none" stroke="midnightblue" d="M789.643,-59.5575C792.47,-59.0235 795.271,-58.5007 798,-58 888.464,-41.4005 913.742,-39.1517 1007.87,-22.1776"/>
<polygon fill="midnightblue" stroke="midnightblue" points="1008.6,-25.6023 1017.81,-20.3755 1007.35,-18.7144 1008.6,-25.6023"/>
</g>
<!-- Node14 -->
<g id="node27" class="node"><title>Node14</title>
<polygon fill="none" stroke="#bfbfbf" points="1132,-0.5 1132,-21.5 1218,-21.5 1218,-0.5 1132,-0.5"/>
<text text-anchor="middle" x="1175" y="-8.5" font-family="Helvetica,sans-Serif" font-size="10.00">QtGui/QToolBar</text>
</g>
<!-- Node3&#45;&gt;Node14 -->
<g id="edge26" class="edge"><title>Node3&#45;&gt;Node14</title>
<path fill="none" stroke="midnightblue" d="M789.611,-59.3665C792.446,-58.8805 795.258,-58.4204 798,-58 938.423,-36.4698 977.76,-44.6735 1121.83,-22.0592"/>
<polygon fill="midnightblue" stroke="midnightblue" points="1122.61,-25.4801 1131.93,-20.4509 1121.5,-18.5672 1122.61,-25.4801"/>
</g>
<!-- Node15 -->
<g id="node29" class="node"><title>Node15</title>
<polygon fill="none" stroke="#bfbfbf" points="1235.5,-0.5 1235.5,-21.5 1318.5,-21.5 1318.5,-0.5 1235.5,-0.5"/>
<text text-anchor="middle" x="1277" y="-8.5" font-family="Helvetica,sans-Serif" font-size="10.00">QtGui/QWidget</text>
</g>
<!-- Node3&#45;&gt;Node15 -->
<g id="edge28" class="edge"><title>Node3&#45;&gt;Node15</title>
<path fill="none" stroke="midnightblue" d="M789.599,-59.2796C792.436,-58.8155 795.252,-58.3839 798,-58 984.257,-31.9727 1036.05,-49.9791 1225.34,-22.0966"/>
<polygon fill="midnightblue" stroke="midnightblue" points="1225.96,-25.5417 1235.34,-20.6001 1224.93,-18.6188 1225.96,-25.5417"/>
</g>
<!-- Node16 -->
<g id="node31" class="node"><title>Node16</title>
<polygon fill="none" stroke="#bfbfbf" points="1336,-0.5 1336,-21.5 1450,-21.5 1450,-0.5 1336,-0.5"/>
<text text-anchor="middle" x="1393" y="-8.5" font-family="Helvetica,sans-Serif" font-size="10.00">graphics/knotview.hpp</text>
</g>
<!-- Node3&#45;&gt;Node16 -->
<g id="edge30" class="edge"><title>Node3&#45;&gt;Node16</title>
<path fill="none" stroke="midnightblue" d="M789.592,-59.228C792.431,-58.7769 795.25,-58.3623 798,-58 1028.33,-27.664 1091.17,-48.7857 1325.6,-22.0623"/>
<polygon fill="midnightblue" stroke="midnightblue" points="1326.28,-25.5073 1335.81,-20.8809 1325.47,-18.5538 1326.28,-25.5073"/>
</g>
</g>
</svg>
