<?xml version="1.0" encoding="UTF-8" standalone="no"?>
<!DOCTYPE svg PUBLIC "-//W3C//DTD SVG 1.1//EN"
 "http://www.w3.org/Graphics/SVG/1.1/DTD/svg11.dtd">
<!-- Generated by graphviz version 2.26.3 (20100126.1600)
 -->
<!-- Title: G Pages: 1 -->
<svg width="2515pt" height="552pt"
 viewBox="0.00 0.00 2515.00 552.00" xmlns="http://www.w3.org/2000/svg" xmlns:xlink="http://www.w3.org/1999/xlink">
<g id="graph1" class="graph" transform="scale(1 1) rotate(0) translate(4 548)">
<title>G</title>
<!-- Node1 -->
<g id="node1" class="node"><title>Node1</title>
<polygon fill="#bfbfbf" stroke="black" points="2196,-522.5 2196,-543.5 2288,-543.5 2288,-522.5 2196,-522.5"/>
<text text-anchor="middle" x="2242" y="-530.5" font-family="Helvetica,sans-Serif" font-size="10.00">knot_window.hpp</text>
</g>
<!-- Node2 -->
<g id="node3" class="node"><title>Node2</title>
<a xlink:href="ui__knot__window_8h.html" target="_top" xlink:title="ui_knot_window.h">
<polygon fill="none" stroke="black" points="1710.5,-406.5 1710.5,-427.5 1805.5,-427.5 1805.5,-406.5 1710.5,-406.5"/>
<text text-anchor="middle" x="1758" y="-414.5" font-family="Helvetica,sans-Serif" font-size="10.00">ui_knot_window.h</text>
</a>
</g>
<!-- Node1&#45;&gt;Node2 -->
<g id="edge2" class="edge"><title>Node1&#45;&gt;Node2</title>
<path fill="none" stroke="midnightblue" d="M2197.77,-522.398C2108.74,-501.061 1908.23,-453.004 1811.79,-429.893"/>
<polygon fill="midnightblue" stroke="midnightblue" points="1812.5,-426.462 1801.96,-427.535 1810.87,-433.27 1812.5,-426.462"/>
</g>
<!-- Node21 -->
<g id="node43" class="node"><title>Node21</title>
<polygon fill="none" stroke="#bfbfbf" points="2374.5,-290.5 2374.5,-311.5 2447.5,-311.5 2447.5,-290.5 2374.5,-290.5"/>
<text text-anchor="middle" x="2411" y="-298.5" font-family="Helvetica,sans-Serif" font-size="10.00">QUndoStack</text>
</g>
<!-- Node1&#45;&gt;Node21 -->
<g id="edge68" class="edge"><title>Node1&#45;&gt;Node21</title>
<path fill="none" stroke="midnightblue" d="M2255.48,-522.31C2284.83,-498.299 2354.89,-436.929 2392,-370 2400.27,-355.081 2405.14,-336.318 2407.87,-322.125"/>
<polygon fill="midnightblue" stroke="midnightblue" points="2411.38,-322.331 2409.63,-311.883 2404.49,-321.147 2411.38,-322.331"/>
</g>
<!-- Node28 -->
<g id="node63" class="node"><title>Node28</title>
<polygon fill="none" stroke="#bfbfbf" points="2438.5,-464.5 2438.5,-485.5 2507.5,-485.5 2507.5,-464.5 2438.5,-464.5"/>
<text text-anchor="middle" x="2473" y="-472.5" font-family="Helvetica,sans-Serif" font-size="10.00">QUndoView</text>
</g>
<!-- Node1&#45;&gt;Node28 -->
<g id="edge70" class="edge"><title>Node1&#45;&gt;Node28</title>
<path fill="none" stroke="midnightblue" d="M2283.83,-522.497C2324.67,-512.243 2386.6,-496.694 2428.37,-486.207"/>
<polygon fill="midnightblue" stroke="midnightblue" points="2429.42,-489.551 2438.26,-483.721 2427.71,-482.762 2429.42,-489.551"/>
</g>
<!-- Node29 -->
<g id="node65" class="node"><title>Node29</title>
<a xlink:href="style__dialog_8hpp.html" target="_top" xlink:title="style_dialog.hpp">
<polygon fill="none" stroke="black" points="1280.5,-464.5 1280.5,-485.5 1367.5,-485.5 1367.5,-464.5 1280.5,-464.5"/>
<text text-anchor="middle" x="1324" y="-472.5" font-family="Helvetica,sans-Serif" font-size="10.00">style_dialog.hpp</text>
</a>
</g>
<!-- Node1&#45;&gt;Node29 -->
<g id="edge72" class="edge"><title>Node1&#45;&gt;Node29</title>
<path fill="none" stroke="midnightblue" d="M2195.85,-530.084C2041.44,-520.329 1543.37,-488.86 1377.96,-478.409"/>
<polygon fill="midnightblue" stroke="midnightblue" points="1377.75,-474.889 1367.55,-477.752 1377.31,-481.875 1377.75,-474.889"/>
</g>
<!-- Node43 -->
<g id="node100" class="node"><title>Node43</title>
<a xlink:href="clipboard_8hpp.html" target="_top" xlink:title="clipboard.hpp">
<polygon fill="none" stroke="black" points="2205,-406.5 2205,-427.5 2279,-427.5 2279,-406.5 2205,-406.5"/>
<text text-anchor="middle" x="2242" y="-414.5" font-family="Helvetica,sans-Serif" font-size="10.00">clipboard.hpp</text>
</a>
</g>
<!-- Node1&#45;&gt;Node43 -->
<g id="edge114" class="edge"><title>Node1&#45;&gt;Node43</title>
<path fill="none" stroke="midnightblue" d="M2242,-522.295C2242,-503.131 2242,-462.654 2242,-437.843"/>
<polygon fill="midnightblue" stroke="midnightblue" points="2245.5,-437.679 2242,-427.679 2238.5,-437.679 2245.5,-437.679"/>
</g>
<!-- Node3 -->
<g id="node5" class="node"><title>Node3</title>
<polygon fill="none" stroke="#bfbfbf" points="972.5,-348.5 972.5,-369.5 1061.5,-369.5 1061.5,-348.5 972.5,-348.5"/>
<text text-anchor="middle" x="1017" y="-356.5" font-family="Helvetica,sans-Serif" font-size="10.00">QtCore/QVariant</text>
</g>
<!-- Node2&#45;&gt;Node3 -->
<g id="edge4" class="edge"><title>Node2&#45;&gt;Node3</title>
<path fill="none" stroke="midnightblue" d="M1710.23,-415.978C1599.54,-413.128 1316.87,-403.089 1071.91,-370.119"/>
<polygon fill="midnightblue" stroke="midnightblue" points="1072.13,-366.616 1061.75,-368.734 1071.18,-373.552 1072.13,-366.616"/>
</g>
<!-- Node4 -->
<g id="node7" class="node"><title>Node4</title>
<polygon fill="none" stroke="#bfbfbf" points="1079,-348.5 1079,-369.5 1159,-369.5 1159,-348.5 1079,-348.5"/>
<text text-anchor="middle" x="1119" y="-356.5" font-family="Helvetica,sans-Serif" font-size="10.00">QtGui/QAction</text>
</g>
<!-- Node2&#45;&gt;Node4 -->
<g id="edge6" class="edge"><title>Node2&#45;&gt;Node4</title>
<path fill="none" stroke="midnightblue" d="M1710.32,-415.487C1611.26,-411.85 1375.9,-400.651 1169.16,-369.991"/>
<polygon fill="midnightblue" stroke="midnightblue" points="1169.43,-366.493 1159.02,-368.469 1168.39,-373.416 1169.43,-366.493"/>
</g>
<!-- Node5 -->
<g id="node9" class="node"><title>Node5</title>
<polygon fill="none" stroke="#bfbfbf" points="1176.5,-348.5 1176.5,-369.5 1277.5,-369.5 1277.5,-348.5 1176.5,-348.5"/>
<text text-anchor="middle" x="1227" y="-356.5" font-family="Helvetica,sans-Serif" font-size="10.00">QtGui/QApplication</text>
</g>
<!-- Node2&#45;&gt;Node5 -->
<g id="edge8" class="edge"><title>Node2&#45;&gt;Node5</title>
<path fill="none" stroke="midnightblue" d="M1710.27,-413.597C1626.64,-407.341 1448.01,-392.67 1287.84,-370.179"/>
<polygon fill="midnightblue" stroke="midnightblue" points="1288.2,-366.694 1277.8,-368.756 1287.21,-373.625 1288.2,-366.694"/>
</g>
<!-- Node6 -->
<g id="node11" class="node"><title>Node6</title>
<polygon fill="none" stroke="#bfbfbf" points="1294.5,-348.5 1294.5,-369.5 1401.5,-369.5 1401.5,-348.5 1294.5,-348.5"/>
<text text-anchor="middle" x="1348" y="-356.5" font-family="Helvetica,sans-Serif" font-size="10.00">QtGui/QButtonGroup</text>
</g>
<!-- Node2&#45;&gt;Node6 -->
<g id="edge10" class="edge"><title>Node2&#45;&gt;Node6</title>
<path fill="none" stroke="midnightblue" d="M1710.35,-411.197C1645.19,-403.124 1524.41,-387.661 1411.91,-370.257"/>
<polygon fill="midnightblue" stroke="midnightblue" points="1412.16,-366.755 1401.75,-368.676 1411.09,-373.671 1412.16,-366.755"/>
</g>
<!-- Node7 -->
<g id="node13" class="node"><title>Node7</title>
<polygon fill="none" stroke="#bfbfbf" points="1419,-348.5 1419,-369.5 1519,-369.5 1519,-348.5 1419,-348.5"/>
<text text-anchor="middle" x="1469" y="-356.5" font-family="Helvetica,sans-Serif" font-size="10.00">QtGui/QGridLayout</text>
</g>
<!-- Node2&#45;&gt;Node7 -->
<g id="edge12" class="edge"><title>Node2&#45;&gt;Node7</title>
<path fill="none" stroke="midnightblue" d="M1710.28,-407.422C1660.73,-397.478 1583.07,-381.894 1529.31,-371.103"/>
<polygon fill="midnightblue" stroke="midnightblue" points="1529.71,-367.615 1519.22,-369.079 1528.34,-374.478 1529.71,-367.615"/>
</g>
<!-- Node8 -->
<g id="node15" class="node"><title>Node8</title>
<polygon fill="none" stroke="#bfbfbf" points="1537,-348.5 1537,-369.5 1643,-369.5 1643,-348.5 1537,-348.5"/>
<text text-anchor="middle" x="1590" y="-356.5" font-family="Helvetica,sans-Serif" font-size="10.00">QtGui/QHeaderView</text>
</g>
<!-- Node2&#45;&gt;Node8 -->
<g id="edge14" class="edge"><title>Node2&#45;&gt;Node8</title>
<path fill="none" stroke="midnightblue" d="M1727.58,-406.497C1700.31,-397.082 1660.11,-383.204 1630.2,-372.877"/>
<polygon fill="midnightblue" stroke="midnightblue" points="1631.08,-369.478 1620.48,-369.523 1628.79,-376.095 1631.08,-369.478"/>
</g>
<!-- Node9 -->
<g id="node17" class="node"><title>Node9</title>
<polygon fill="none" stroke="#bfbfbf" points="1760.5,-348.5 1760.5,-369.5 1869.5,-369.5 1869.5,-348.5 1760.5,-348.5"/>
<text text-anchor="middle" x="1815" y="-356.5" font-family="Helvetica,sans-Serif" font-size="10.00">QtGui/QMainWindow</text>
</g>
<!-- Node2&#45;&gt;Node9 -->
<g id="edge16" class="edge"><title>Node2&#45;&gt;Node9</title>
<path fill="none" stroke="midnightblue" d="M1768.45,-406.362C1776.57,-398.104 1788,-386.472 1797.5,-376.803"/>
<polygon fill="midnightblue" stroke="midnightblue" points="1800.1,-379.156 1804.61,-369.571 1795.11,-374.25 1800.1,-379.156"/>
</g>
<!-- Node10 -->
<g id="node19" class="node"><title>Node10</title>
<polygon fill="none" stroke="#bfbfbf" points="1886.5,-348.5 1886.5,-369.5 1963.5,-369.5 1963.5,-348.5 1886.5,-348.5"/>
<text text-anchor="middle" x="1925" y="-356.5" font-family="Helvetica,sans-Serif" font-size="10.00">QtGui/QMenu</text>
</g>
<!-- Node2&#45;&gt;Node10 -->
<g id="edge18" class="edge"><title>Node2&#45;&gt;Node10</title>
<path fill="none" stroke="midnightblue" d="M1788.24,-406.497C1815.35,-397.082 1855.31,-383.204 1885.04,-372.877"/>
<polygon fill="midnightblue" stroke="midnightblue" points="1886.4,-376.11 1894.7,-369.523 1884.11,-369.498 1886.4,-376.11"/>
</g>
<!-- Node11 -->
<g id="node21" class="node"><title>Node11</title>
<polygon fill="none" stroke="#bfbfbf" points="1981,-348.5 1981,-369.5 2073,-369.5 2073,-348.5 1981,-348.5"/>
<text text-anchor="middle" x="2027" y="-356.5" font-family="Helvetica,sans-Serif" font-size="10.00">QtGui/QMenuBar</text>
</g>
<!-- Node2&#45;&gt;Node11 -->
<g id="edge20" class="edge"><title>Node2&#45;&gt;Node11</title>
<path fill="none" stroke="midnightblue" d="M1805.78,-406.698C1851.97,-396.739 1921.94,-381.652 1970.78,-371.121"/>
<polygon fill="midnightblue" stroke="midnightblue" points="1971.53,-374.542 1980.56,-369.012 1970.05,-367.699 1971.53,-374.542"/>
</g>
<!-- Node12 -->
<g id="node23" class="node"><title>Node12</title>
<polygon fill="none" stroke="#bfbfbf" points="2091,-348.5 2091,-369.5 2187,-369.5 2187,-348.5 2091,-348.5"/>
<text text-anchor="middle" x="2139" y="-356.5" font-family="Helvetica,sans-Serif" font-size="10.00">QtGui/QStatusBar</text>
</g>
<!-- Node2&#45;&gt;Node12 -->
<g id="edge22" class="edge"><title>Node2&#45;&gt;Node12</title>
<path fill="none" stroke="midnightblue" d="M1805.6,-410.802C1866.88,-402.665 1976.91,-387.528 2080.79,-370.149"/>
<polygon fill="midnightblue" stroke="midnightblue" points="2081.55,-373.572 2090.83,-368.46 2080.38,-366.669 2081.55,-373.572"/>
</g>
<!-- Node13 -->
<g id="node25" class="node"><title>Node13</title>
<polygon fill="none" stroke="#bfbfbf" points="2297,-348.5 2297,-369.5 2383,-369.5 2383,-348.5 2297,-348.5"/>
<text text-anchor="middle" x="2340" y="-356.5" font-family="Helvetica,sans-Serif" font-size="10.00">QtGui/QToolBar</text>
</g>
<!-- Node2&#45;&gt;Node13 -->
<g id="edge24" class="edge"><title>Node2&#45;&gt;Node13</title>
<path fill="none" stroke="midnightblue" d="M1805.74,-414.691C1897.2,-409.851 2103.59,-396.917 2286.85,-370.023"/>
<polygon fill="midnightblue" stroke="midnightblue" points="2287.56,-373.455 2296.94,-368.524 2286.54,-366.531 2287.56,-373.455"/>
</g>
<!-- Node14 -->
<g id="node27" class="node"><title>Node14</title>
<polygon fill="none" stroke="#bfbfbf" points="1660.5,-348.5 1660.5,-369.5 1743.5,-369.5 1743.5,-348.5 1660.5,-348.5"/>
<text text-anchor="middle" x="1702" y="-356.5" font-family="Helvetica,sans-Serif" font-size="10.00">QtGui/QWidget</text>
</g>
<!-- Node2&#45;&gt;Node14 -->
<g id="edge26" class="edge"><title>Node2&#45;&gt;Node14</title>
<path fill="none" stroke="midnightblue" d="M1747.73,-406.362C1739.76,-398.104 1728.53,-386.472 1719.19,-376.803"/>
<polygon fill="midnightblue" stroke="midnightblue" points="1721.67,-374.334 1712.21,-369.571 1716.63,-379.196 1721.67,-374.334"/>
</g>
<!-- Node15 -->
<g id="node29" class="node"><title>Node15</title>
<a xlink:href="knotview_8hpp.html" target="_top" xlink:title="knotview.hpp">
<polygon fill="none" stroke="black" points="2205,-348.5 2205,-369.5 2279,-369.5 2279,-348.5 2205,-348.5"/>
<text text-anchor="middle" x="2242" y="-356.5" font-family="Helvetica,sans-Serif" font-size="10.00">knotview.hpp</text>
</a>
</g>
<!-- Node2&#45;&gt;Node15 -->
<g id="edge28" class="edge"><title>Node2&#45;&gt;Node15</title>
<path fill="none" stroke="midnightblue" d="M1805.59,-413.895C1884.51,-408.311 2047.53,-394.929 2194.8,-370.03"/>
<polygon fill="midnightblue" stroke="midnightblue" points="2195.66,-373.434 2204.93,-368.295 2194.48,-366.534 2195.66,-373.434"/>
</g>
<!-- Node16 -->
<g id="node31" class="node"><title>Node16</title>
<polygon fill="none" stroke="#bfbfbf" points="2272.5,-290.5 2272.5,-311.5 2357.5,-311.5 2357.5,-290.5 2272.5,-290.5"/>
<text text-anchor="middle" x="2315" y="-298.5" font-family="Helvetica,sans-Serif" font-size="10.00">QGraphicsView</text>
</g>
<!-- Node15&#45;&gt;Node16 -->
<g id="edge30" class="edge"><title>Node15&#45;&gt;Node16</title>
<path fill="none" stroke="midnightblue" d="M2255.39,-348.362C2266.09,-339.859 2281.3,-327.779 2293.67,-317.947"/>
<polygon fill="midnightblue" stroke="midnightblue" points="2296.04,-320.532 2301.7,-311.571 2291.69,-315.051 2296.04,-320.532"/>
</g>
<!-- Node17 -->
<g id="node33" class="node"><title>Node17</title>
<a xlink:href="node_8hpp.html" target="_top" xlink:title="node.hpp">
<polygon fill="none" stroke="black" points="2083,-174.5 2083,-195.5 2139,-195.5 2139,-174.5 2083,-174.5"/>
<text text-anchor="middle" x="2111" y="-182.5" font-family="Helvetica,sans-Serif" font-size="10.00">node.hpp</text>
</a>
</g>
<!-- Node15&#45;&gt;Node17 -->
<g id="edge32" class="edge"><title>Node15&#45;&gt;Node17</title>
<path fill="none" stroke="midnightblue" d="M2237.12,-348.382C2226.34,-325.582 2198.83,-270.864 2166,-232 2156.66,-220.947 2144.59,-210.324 2134.14,-201.982"/>
<polygon fill="midnightblue" stroke="midnightblue" points="2136.23,-199.177 2126.18,-195.817 2131.94,-204.709 2136.23,-199.177"/>
</g>
<!-- Node20 -->
<g id="node39" class="node"><title>Node20</title>
<a xlink:href="edge_8hpp.html" target="_top" xlink:title="edge.hpp">
<polygon fill="none" stroke="black" points="1922,-116.5 1922,-137.5 1978,-137.5 1978,-116.5 1922,-116.5"/>
<text text-anchor="middle" x="1950" y="-124.5" font-family="Helvetica,sans-Serif" font-size="10.00">edge.hpp</text>
</a>
</g>
<!-- Node15&#45;&gt;Node20 -->
<g id="edge42" class="edge"><title>Node15&#45;&gt;Node20</title>
<path fill="none" stroke="midnightblue" d="M2204.89,-349.892C2201.89,-349.227 2198.9,-348.587 2196,-348 2047.79,-317.967 1960.11,-374.688 1869,-254 1847.34,-225.306 1838.16,-204.624 1857,-174 1869.05,-154.402 1892.09,-142.676 1912.21,-135.838"/>
<polygon fill="midnightblue" stroke="midnightblue" points="1913.29,-139.169 1921.8,-132.86 1911.21,-132.484 1913.29,-139.169"/>
</g>
<!-- Node15&#45;&gt;Node21 -->
<g id="edge44" class="edge"><title>Node15&#45;&gt;Node21</title>
<path fill="none" stroke="midnightblue" d="M2272.6,-348.497C2300.04,-339.082 2340.48,-325.204 2370.56,-314.877"/>
<polygon fill="midnightblue" stroke="midnightblue" points="2372.02,-318.08 2380.34,-311.523 2369.74,-311.459 2372.02,-318.08"/>
</g>
<!-- Node22 -->
<g id="node45" class="node"><title>Node22</title>
<a xlink:href="knotgraph_8hpp.html" target="_top" xlink:title="knotgraph.hpp">
<polygon fill="none" stroke="black" points="1989,-290.5 1989,-311.5 2067,-311.5 2067,-290.5 1989,-290.5"/>
<text text-anchor="middle" x="2028" y="-298.5" font-family="Helvetica,sans-Serif" font-size="10.00">knotgraph.hpp</text>
</a>
</g>
<!-- Node15&#45;&gt;Node22 -->
<g id="edge46" class="edge"><title>Node15&#45;&gt;Node22</title>
<path fill="none" stroke="midnightblue" d="M2204.72,-348.897C2169.33,-339.304 2115.9,-324.823 2077.06,-314.296"/>
<polygon fill="midnightblue" stroke="midnightblue" points="2077.58,-310.813 2067.02,-311.575 2075.75,-317.569 2077.58,-310.813"/>
</g>
<!-- Node27 -->
<g id="node59" class="node"><title>Node27</title>
<a xlink:href="snapping__grid_8hpp.html" target="_top" xlink:title="snapping_grid.hpp">
<polygon fill="none" stroke="black" points="2167.5,-116.5 2167.5,-137.5 2262.5,-137.5 2262.5,-116.5 2167.5,-116.5"/>
<text text-anchor="middle" x="2215" y="-124.5" font-family="Helvetica,sans-Serif" font-size="10.00">snapping_grid.hpp</text>
</a>
</g>
<!-- Node15&#45;&gt;Node27 -->
<g id="edge64" class="edge"><title>Node15&#45;&gt;Node27</title>
<path fill="none" stroke="midnightblue" d="M2240.77,-348.429C2236.61,-312.648 2222.99,-195.663 2217.41,-147.748"/>
<polygon fill="midnightblue" stroke="midnightblue" points="2220.87,-147.162 2216.24,-137.634 2213.92,-147.971 2220.87,-147.162"/>
</g>
<!-- Node18 -->
<g id="node35" class="node"><title>Node18</title>
<a xlink:href="custom__item_8hpp.html" target="_top" xlink:title="custom_item.hpp">
<polygon fill="none" stroke="black" points="2065,-58.5 2065,-79.5 2157,-79.5 2157,-58.5 2065,-58.5"/>
<text text-anchor="middle" x="2111" y="-66.5" font-family="Helvetica,sans-Serif" font-size="10.00">custom_item.hpp</text>
</a>
</g>
<!-- Node17&#45;&gt;Node18 -->
<g id="edge34" class="edge"><title>Node17&#45;&gt;Node18</title>
<path fill="none" stroke="midnightblue" d="M2111,-174.295C2111,-155.131 2111,-114.654 2111,-89.8434"/>
<polygon fill="midnightblue" stroke="midnightblue" points="2114.5,-89.6792 2111,-79.6792 2107.5,-89.6792 2114.5,-89.6792"/>
</g>
<!-- Node17&#45;&gt;Node20 -->
<g id="edge38" class="edge"><title>Node17&#45;&gt;Node20</title>
<path fill="none" stroke="midnightblue" d="M2082.96,-174.897C2056.57,-165.391 2016.86,-151.087 1987.71,-140.585"/>
<polygon fill="midnightblue" stroke="midnightblue" points="1988.86,-137.278 1978.26,-137.182 1986.48,-143.864 1988.86,-137.278"/>
</g>
<!-- Node19 -->
<g id="node37" class="node"><title>Node19</title>
<polygon fill="none" stroke="#bfbfbf" points="2113.5,-0.5 2113.5,-21.5 2196.5,-21.5 2196.5,-0.5 2113.5,-0.5"/>
<text text-anchor="middle" x="2155" y="-8.5" font-family="Helvetica,sans-Serif" font-size="10.00">QGraphicsItem</text>
</g>
<!-- Node18&#45;&gt;Node19 -->
<g id="edge36" class="edge"><title>Node18&#45;&gt;Node19</title>
<path fill="none" stroke="midnightblue" d="M2119.07,-58.3619C2125.15,-50.3496 2133.64,-39.1605 2140.84,-29.6696"/>
<polygon fill="midnightblue" stroke="midnightblue" points="2143.73,-31.653 2146.98,-21.5707 2138.15,-27.4222 2143.73,-31.653"/>
</g>
<!-- Node20&#45;&gt;Node18 -->
<g id="edge40" class="edge"><title>Node20&#45;&gt;Node18</title>
<path fill="none" stroke="midnightblue" d="M1978.04,-116.897C2004.11,-107.508 2043.17,-93.4373 2072.21,-82.9733"/>
<polygon fill="midnightblue" stroke="midnightblue" points="2073.42,-86.257 2081.65,-79.5749 2071.05,-79.6713 2073.42,-86.257"/>
</g>
<!-- Node22&#45;&gt;Node17 -->
<g id="edge50" class="edge"><title>Node22&#45;&gt;Node17</title>
<path fill="none" stroke="midnightblue" d="M2067.21,-291.074C2099.06,-282.125 2140.24,-268.222 2150,-254 2161.54,-237.19 2146.65,-216.724 2132.07,-202.465"/>
<polygon fill="midnightblue" stroke="midnightblue" points="2134.35,-199.805 2124.61,-195.627 2129.62,-204.965 2134.35,-199.805"/>
</g>
<!-- Node22&#45;&gt;Node20 -->
<g id="edge52" class="edge"><title>Node22&#45;&gt;Node20</title>
<path fill="none" stroke="midnightblue" d="M1988.97,-296.027C1959.01,-290.392 1918.29,-278.559 1891,-254 1869.86,-234.979 1870.15,-223.762 1864,-196 1861.89,-186.453 1859.01,-182.41 1864,-174 1874.47,-156.343 1894.18,-144.889 1912.08,-137.714"/>
<polygon fill="midnightblue" stroke="midnightblue" points="1913.6,-140.887 1921.78,-134.156 1911.19,-134.316 1913.6,-140.887"/>
</g>
<!-- Node23 -->
<g id="node47" class="node"><title>Node23</title>
<polygon fill="none" stroke="#bfbfbf" points="1872.5,-174.5 1872.5,-195.5 1947.5,-195.5 1947.5,-174.5 1872.5,-174.5"/>
<text text-anchor="middle" x="1910" y="-182.5" font-family="Helvetica,sans-Serif" font-size="10.00">QPainterPath</text>
</g>
<!-- Node22&#45;&gt;Node23 -->
<g id="edge48" class="edge"><title>Node22&#45;&gt;Node23</title>
<path fill="none" stroke="midnightblue" d="M1988.81,-291.595C1955.77,-282.776 1912.25,-268.767 1902,-254 1892.26,-239.971 1895.74,-220.346 1900.8,-205.611"/>
<polygon fill="midnightblue" stroke="midnightblue" points="1904.22,-206.484 1904.6,-195.896 1897.7,-203.937 1904.22,-206.484"/>
</g>
<!-- Node24 -->
<g id="node51" class="node"><title>Node24</title>
<polygon fill="none" stroke="#bfbfbf" points="2038.5,-232.5 2038.5,-253.5 2141.5,-253.5 2141.5,-232.5 2038.5,-232.5"/>
<text text-anchor="middle" x="2090" y="-240.5" font-family="Helvetica,sans-Serif" font-size="10.00">QGraphicsPathItem</text>
</g>
<!-- Node22&#45;&gt;Node24 -->
<g id="edge54" class="edge"><title>Node22&#45;&gt;Node24</title>
<path fill="none" stroke="midnightblue" d="M2039.37,-290.362C2048.29,-282.023 2060.88,-270.242 2071.28,-260.516"/>
<polygon fill="midnightblue" stroke="midnightblue" points="2073.79,-262.958 2078.7,-253.571 2069.01,-257.846 2073.79,-262.958"/>
</g>
<!-- Node25 -->
<g id="node53" class="node"><title>Node25</title>
<a xlink:href="knot__curve__style_8hpp.html" target="_top" xlink:title="knot_curve_style.hpp">
<polygon fill="none" stroke="black" points="1911,-232.5 1911,-253.5 2021,-253.5 2021,-232.5 1911,-232.5"/>
<text text-anchor="middle" x="1966" y="-240.5" font-family="Helvetica,sans-Serif" font-size="10.00">knot_curve_style.hpp</text>
</a>
</g>
<!-- Node22&#45;&gt;Node25 -->
<g id="edge56" class="edge"><title>Node22&#45;&gt;Node25</title>
<path fill="none" stroke="midnightblue" d="M2016.63,-290.362C2007.71,-282.023 1995.12,-270.242 1984.72,-260.516"/>
<polygon fill="midnightblue" stroke="midnightblue" points="1986.99,-257.846 1977.3,-253.571 1982.21,-262.958 1986.99,-257.846"/>
</g>
<!-- Node25&#45;&gt;Node17 -->
<g id="edge58" class="edge"><title>Node25&#45;&gt;Node17</title>
<path fill="none" stroke="midnightblue" d="M1992.26,-232.497C2015.42,-223.234 2049.38,-209.65 2075.05,-199.379"/>
<polygon fill="midnightblue" stroke="midnightblue" points="2076.46,-202.585 2084.45,-195.621 2073.86,-196.086 2076.46,-202.585"/>
</g>
<!-- Node25&#45;&gt;Node23 -->
<g id="edge60" class="edge"><title>Node25&#45;&gt;Node23</title>
<path fill="none" stroke="midnightblue" d="M1955.73,-232.362C1947.76,-224.104 1936.53,-212.472 1927.19,-202.803"/>
<polygon fill="midnightblue" stroke="midnightblue" points="1929.67,-200.334 1920.21,-195.571 1924.63,-205.196 1929.67,-200.334"/>
</g>
<!-- Node26 -->
<g id="node57" class="node"><title>Node26</title>
<polygon fill="none" stroke="#bfbfbf" points="1964.5,-174.5 1964.5,-195.5 2007.5,-195.5 2007.5,-174.5 1964.5,-174.5"/>
<text text-anchor="middle" x="1986" y="-182.5" font-family="Helvetica,sans-Serif" font-size="10.00">QMap</text>
</g>
<!-- Node25&#45;&gt;Node26 -->
<g id="edge62" class="edge"><title>Node25&#45;&gt;Node26</title>
<path fill="none" stroke="midnightblue" d="M1969.67,-232.362C1972.29,-224.758 1975.9,-214.294 1979.06,-205.135"/>
<polygon fill="midnightblue" stroke="midnightblue" points="1982.4,-206.165 1982.35,-195.571 1975.79,-203.883 1982.4,-206.165"/>
</g>
<!-- Node27&#45;&gt;Node19 -->
<g id="edge66" class="edge"><title>Node27&#45;&gt;Node19</title>
<path fill="none" stroke="midnightblue" d="M2209.46,-116.295C2199.42,-96.8724 2178.05,-55.5561 2165.27,-30.8462"/>
<polygon fill="midnightblue" stroke="midnightblue" points="2168.23,-28.9534 2160.52,-21.6792 2162.01,-32.1694 2168.23,-28.9534"/>
</g>
<!-- Node30 -->
<g id="node67" class="node"><title>Node30</title>
<a xlink:href="ui__style__dialog_8h.html" target="_top" xlink:title="ui_style_dialog.h">
<polygon fill="none" stroke="black" points="972.5,-406.5 972.5,-427.5 1061.5,-427.5 1061.5,-406.5 972.5,-406.5"/>
<text text-anchor="middle" x="1017" y="-414.5" font-family="Helvetica,sans-Serif" font-size="10.00">ui_style_dialog.h</text>
</a>
</g>
<!-- Node29&#45;&gt;Node30 -->
<g id="edge74" class="edge"><title>Node29&#45;&gt;Node30</title>
<path fill="none" stroke="midnightblue" d="M1280.34,-466.752C1225.41,-456.374 1131.08,-438.553 1071.49,-427.294"/>
<polygon fill="midnightblue" stroke="midnightblue" points="1071.98,-423.825 1061.51,-425.408 1070.68,-430.704 1071.98,-423.825"/>
</g>
<!-- Node30&#45;&gt;Node3 -->
<g id="edge76" class="edge"><title>Node30&#45;&gt;Node3</title>
<path fill="none" stroke="midnightblue" d="M1017,-406.362C1017,-398.922 1017,-388.743 1017,-379.728"/>
<polygon fill="midnightblue" stroke="midnightblue" points="1020.5,-379.571 1017,-369.571 1013.5,-379.571 1020.5,-379.571"/>
</g>
<!-- Node30&#45;&gt;Node4 -->
<g id="edge78" class="edge"><title>Node30&#45;&gt;Node4</title>
<path fill="none" stroke="midnightblue" d="M1035.71,-406.362C1051.38,-397.45 1073.96,-384.609 1091.66,-374.545"/>
<polygon fill="midnightblue" stroke="midnightblue" points="1093.45,-377.556 1100.41,-369.571 1089.99,-371.471 1093.45,-377.556"/>
</g>
<!-- Node30&#45;&gt;Node5 -->
<g id="edge80" class="edge"><title>Node30&#45;&gt;Node5</title>
<path fill="none" stroke="midnightblue" d="M1055.03,-406.497C1089.86,-396.877 1141.56,-382.598 1179.17,-372.209"/>
<polygon fill="midnightblue" stroke="midnightblue" points="1180.19,-375.559 1188.9,-369.523 1178.33,-368.812 1180.19,-375.559"/>
</g>
<!-- Node30&#45;&gt;Node6 -->
<g id="edge82" class="edge"><title>Node30&#45;&gt;Node6</title>
<path fill="none" stroke="midnightblue" d="M1061.75,-409.219C1113.1,-400.28 1200.14,-385.105 1284.26,-370.304"/>
<polygon fill="midnightblue" stroke="midnightblue" points="1284.99,-373.729 1294.23,-368.548 1283.78,-366.835 1284.99,-373.729"/>
</g>
<!-- Node30&#45;&gt;Node7 -->
<g id="edge92" class="edge"><title>Node30&#45;&gt;Node7</title>
<path fill="none" stroke="midnightblue" d="M1061.63,-412.622C1132.87,-405.423 1276.91,-390.01 1408.94,-370.089"/>
<polygon fill="midnightblue" stroke="midnightblue" points="1409.47,-373.549 1418.83,-368.585 1408.41,-366.629 1409.47,-373.549"/>
</g>
<!-- Node30&#45;&gt;Node8 -->
<g id="edge96" class="edge"><title>Node30&#45;&gt;Node8</title>
<path fill="none" stroke="midnightblue" d="M1061.57,-414.164C1148.87,-408.335 1348.67,-393.649 1526.86,-370.062"/>
<polygon fill="midnightblue" stroke="midnightblue" points="1527.5,-373.508 1536.95,-368.715 1526.57,-366.57 1527.5,-373.508"/>
</g>
<!-- Node30&#45;&gt;Node15 -->
<g id="edge112" class="edge"><title>Node30&#45;&gt;Node15</title>
<path fill="none" stroke="midnightblue" d="M1061.63,-416.384C1246.08,-413.664 1950.29,-401.487 2194.72,-369.886"/>
<polygon fill="midnightblue" stroke="midnightblue" points="2195.51,-373.31 2204.96,-368.512 2194.58,-366.372 2195.51,-373.31"/>
</g>
<!-- Node31 -->
<g id="node73" class="node"><title>Node31</title>
<polygon fill="none" stroke="#bfbfbf" points="756.5,-348.5 756.5,-369.5 857.5,-369.5 857.5,-348.5 756.5,-348.5"/>
<text text-anchor="middle" x="807" y="-356.5" font-family="Helvetica,sans-Serif" font-size="10.00">QtGui/QComboBox</text>
</g>
<!-- Node30&#45;&gt;Node31 -->
<g id="edge84" class="edge"><title>Node30&#45;&gt;Node31</title>
<path fill="none" stroke="midnightblue" d="M978.971,-406.497C944.142,-396.877 892.441,-382.598 854.826,-372.209"/>
<polygon fill="midnightblue" stroke="midnightblue" points="855.672,-368.812 845.101,-369.523 853.808,-375.559 855.672,-368.812"/>
</g>
<!-- Node32 -->
<g id="node75" class="node"><title>Node32</title>
<polygon fill="none" stroke="#bfbfbf" points="875,-348.5 875,-369.5 955,-369.5 955,-348.5 875,-348.5"/>
<text text-anchor="middle" x="915" y="-356.5" font-family="Helvetica,sans-Serif" font-size="10.00">QtGui/QDialog</text>
</g>
<!-- Node30&#45;&gt;Node32 -->
<g id="edge86" class="edge"><title>Node30&#45;&gt;Node32</title>
<path fill="none" stroke="midnightblue" d="M998.292,-406.362C982.619,-397.45 960.036,-384.609 942.337,-374.545"/>
<polygon fill="midnightblue" stroke="midnightblue" points="944.013,-371.471 933.59,-369.571 940.553,-377.556 944.013,-371.471"/>
</g>
<!-- Node33 -->
<g id="node77" class="node"><title>Node33</title>
<polygon fill="none" stroke="#bfbfbf" points="267,-348.5 267,-369.5 393,-369.5 393,-348.5 267,-348.5"/>
<text text-anchor="middle" x="330" y="-356.5" font-family="Helvetica,sans-Serif" font-size="10.00">QtGui/QDialogButtonBox</text>
</g>
<!-- Node30&#45;&gt;Node33 -->
<g id="edge88" class="edge"><title>Node30&#45;&gt;Node33</title>
<path fill="none" stroke="midnightblue" d="M972.134,-414.732C871.995,-409.421 622.481,-394.801 403.266,-370.075"/>
<polygon fill="midnightblue" stroke="midnightblue" points="403.512,-366.581 393.18,-368.928 402.72,-373.536 403.512,-366.581"/>
</g>
<!-- Node34 -->
<g id="node79" class="node"><title>Node34</title>
<polygon fill="none" stroke="#bfbfbf" points="411,-348.5 411,-369.5 531,-369.5 531,-348.5 411,-348.5"/>
<text text-anchor="middle" x="471" y="-356.5" font-family="Helvetica,sans-Serif" font-size="10.00">QtGui/QDoubleSpinBox</text>
</g>
<!-- Node30&#45;&gt;Node34 -->
<g id="edge90" class="edge"><title>Node30&#45;&gt;Node34</title>
<path fill="none" stroke="midnightblue" d="M972.18,-413.485C889.278,-406.787 706.171,-391.081 541.498,-370.134"/>
<polygon fill="midnightblue" stroke="midnightblue" points="541.544,-366.611 531.18,-368.811 540.654,-373.554 541.544,-366.611"/>
</g>
<!-- Node35 -->
<g id="node82" class="node"><title>Node35</title>
<polygon fill="none" stroke="#bfbfbf" points="549,-348.5 549,-369.5 645,-369.5 645,-348.5 549,-348.5"/>
<text text-anchor="middle" x="597" y="-356.5" font-family="Helvetica,sans-Serif" font-size="10.00">QtGui/QGroupBox</text>
</g>
<!-- Node30&#45;&gt;Node35 -->
<g id="edge94" class="edge"><title>Node30&#45;&gt;Node35</title>
<path fill="none" stroke="midnightblue" d="M972.447,-412.131C905.732,-404.642 775.701,-389.287 655.295,-370.136"/>
<polygon fill="midnightblue" stroke="midnightblue" points="655.593,-366.639 645.165,-368.512 654.485,-373.551 655.593,-366.639"/>
</g>
<!-- Node36 -->
<g id="node85" class="node"><title>Node36</title>
<polygon fill="none" stroke="#bfbfbf" points="663,-348.5 663,-369.5 739,-369.5 739,-348.5 663,-348.5"/>
<text text-anchor="middle" x="701" y="-356.5" font-family="Helvetica,sans-Serif" font-size="10.00">QtGui/QLabel</text>
</g>
<!-- Node30&#45;&gt;Node36 -->
<g id="edge98" class="edge"><title>Node30&#45;&gt;Node36</title>
<path fill="none" stroke="midnightblue" d="M972.112,-409.959C920.626,-401.706 833.459,-387.19 749.175,-370.162"/>
<polygon fill="midnightblue" stroke="midnightblue" points="749.677,-366.692 739.18,-368.127 748.281,-373.551 749.677,-366.692"/>
</g>
<!-- Node37 -->
<g id="node87" class="node"><title>Node37</title>
<a xlink:href="color__widget_8hpp.html" target="_top" xlink:title="color_widget.hpp">
<polygon fill="none" stroke="black" points="159,-348.5 159,-369.5 249,-369.5 249,-348.5 159,-348.5"/>
<text text-anchor="middle" x="204" y="-356.5" font-family="Helvetica,sans-Serif" font-size="10.00">color_widget.hpp</text>
</a>
</g>
<!-- Node30&#45;&gt;Node37 -->
<g id="edge100" class="edge"><title>Node30&#45;&gt;Node37</title>
<path fill="none" stroke="midnightblue" d="M972.305,-416.4C856.225,-414.378 535.58,-405.846 259.227,-369.996"/>
<polygon fill="midnightblue" stroke="midnightblue" points="259.373,-366.485 249.002,-368.655 258.462,-373.426 259.373,-366.485"/>
</g>
<!-- Node38 -->
<g id="node89" class="node"><title>Node38</title>
<polygon fill="none" stroke="#bfbfbf" points="-0.5,-290.5 -0.5,-311.5 58.5,-311.5 58.5,-290.5 -0.5,-290.5"/>
<text text-anchor="middle" x="29" y="-298.5" font-family="Helvetica,sans-Serif" font-size="10.00">QLineEdit</text>
</g>
<!-- Node37&#45;&gt;Node38 -->
<g id="edge102" class="edge"><title>Node37&#45;&gt;Node38</title>
<path fill="none" stroke="midnightblue" d="M172.309,-348.497C143.157,-338.835 99.8206,-324.472 68.4402,-314.072"/>
<polygon fill="midnightblue" stroke="midnightblue" points="69.2983,-310.669 58.7049,-310.845 67.0961,-317.313 69.2983,-310.669"/>
</g>
<!-- Node39 -->
<g id="node91" class="node"><title>Node39</title>
<polygon fill="none" stroke="#bfbfbf" points="75.5,-290.5 75.5,-311.5 150.5,-311.5 150.5,-290.5 75.5,-290.5"/>
<text text-anchor="middle" x="113" y="-298.5" font-family="Helvetica,sans-Serif" font-size="10.00">QColorDialog</text>
</g>
<!-- Node37&#45;&gt;Node39 -->
<g id="edge104" class="edge"><title>Node37&#45;&gt;Node39</title>
<path fill="none" stroke="midnightblue" d="M187.309,-348.362C173.584,-339.614 153.916,-327.079 138.263,-317.101"/>
<polygon fill="midnightblue" stroke="midnightblue" points="139.899,-313.994 129.585,-311.571 136.137,-319.897 139.899,-313.994"/>
</g>
<!-- Node40 -->
<g id="node93" class="node"><title>Node40</title>
<polygon fill="none" stroke="#bfbfbf" points="168,-290.5 168,-311.5 240,-311.5 240,-290.5 168,-290.5"/>
<text text-anchor="middle" x="204" y="-298.5" font-family="Helvetica,sans-Serif" font-size="10.00">QPaintEvent</text>
</g>
<!-- Node37&#45;&gt;Node40 -->
<g id="edge106" class="edge"><title>Node37&#45;&gt;Node40</title>
<path fill="none" stroke="midnightblue" d="M204,-348.362C204,-340.922 204,-330.743 204,-321.728"/>
<polygon fill="midnightblue" stroke="midnightblue" points="207.5,-321.571 204,-311.571 200.5,-321.571 207.5,-321.571"/>
</g>
<!-- Node41 -->
<g id="node95" class="node"><title>Node41</title>
<polygon fill="none" stroke="#bfbfbf" points="257.5,-290.5 257.5,-311.5 312.5,-311.5 312.5,-290.5 257.5,-290.5"/>
<text text-anchor="middle" x="285" y="-298.5" font-family="Helvetica,sans-Serif" font-size="10.00">QPainter</text>
</g>
<!-- Node37&#45;&gt;Node41 -->
<g id="edge108" class="edge"><title>Node37&#45;&gt;Node41</title>
<path fill="none" stroke="midnightblue" d="M218.857,-348.362C230.846,-339.777 247.927,-327.546 261.728,-317.664"/>
<polygon fill="midnightblue" stroke="midnightblue" points="264.145,-320.238 270.238,-311.571 260.069,-314.547 264.145,-320.238"/>
</g>
<!-- Node42 -->
<g id="node97" class="node"><title>Node42</title>
<polygon fill="none" stroke="#bfbfbf" points="329.5,-290.5 329.5,-311.5 444.5,-311.5 444.5,-290.5 329.5,-290.5"/>
<text text-anchor="middle" x="387" y="-298.5" font-family="Helvetica,sans-Serif" font-size="10.00">QStyleOptionFrameV3</text>
</g>
<!-- Node37&#45;&gt;Node42 -->
<g id="edge110" class="edge"><title>Node37&#45;&gt;Node42</title>
<path fill="none" stroke="midnightblue" d="M237.14,-348.497C267.103,-339 311.396,-324.962 344.062,-314.609"/>
<polygon fill="midnightblue" stroke="midnightblue" points="345.323,-317.881 353.798,-311.523 343.208,-311.208 345.323,-317.881"/>
</g>
<!-- Node43&#45;&gt;Node15 -->
<g id="edge116" class="edge"><title>Node43&#45;&gt;Node15</title>
<path fill="none" stroke="midnightblue" d="M2242,-406.362C2242,-398.922 2242,-388.743 2242,-379.728"/>
<polygon fill="midnightblue" stroke="midnightblue" points="2245.5,-379.571 2242,-369.571 2238.5,-379.571 2245.5,-379.571"/>
</g>
</g>
</svg>
