<?xml version="1.0" encoding="UTF-8" standalone="no"?>
<!DOCTYPE svg PUBLIC "-//W3C//DTD SVG 1.1//EN"
 "http://www.w3.org/Graphics/SVG/1.1/DTD/svg11.dtd">
<!-- Generated by graphviz version 2.26.3 (20100126.1600)
 -->
<!-- Title: G Pages: 1 -->
<svg width="786pt" height="378pt"
 viewBox="0.00 0.00 786.00 378.00" xmlns="http://www.w3.org/2000/svg" xmlns:xlink="http://www.w3.org/1999/xlink">
<g id="graph1" class="graph" transform="scale(1 1) rotate(0) translate(4 374)">
<title>G</title>
<!-- Node1 -->
<g id="node1" class="node"><title>Node1</title>
<polygon fill="#bfbfbf" stroke="black" points="612,-348.5 612,-369.5 722,-369.5 722,-348.5 612,-348.5"/>
<text text-anchor="middle" x="667" y="-356.5" font-family="Helvetica,sans-Serif" font-size="10.00">knot_curve_style.hpp</text>
</g>
<!-- Node2 -->
<g id="node3" class="node"><title>Node2</title>
<a xlink:href="knotgraph_8hpp.html" target="_top" xlink:title="knotgraph.hpp">
<polygon fill="none" stroke="black" points="572,-290.5 572,-311.5 650,-311.5 650,-290.5 572,-290.5"/>
<text text-anchor="middle" x="611" y="-298.5" font-family="Helvetica,sans-Serif" font-size="10.00">knotgraph.hpp</text>
</a>
</g>
<!-- Node1&#45;&gt;Node2 -->
<g id="edge2" class="edge"><title>Node1&#45;&gt;Node2</title>
<path fill="none" stroke="midnightblue" d="M649.735,-341.118C640.388,-331.438 629.161,-319.81 621.206,-311.571"/>
<polygon fill="midnightblue" stroke="midnightblue" points="647.265,-343.599 656.729,-348.362 652.301,-338.737 647.265,-343.599"/>
</g>
<!-- Node19 -->
<g id="node42" class="node"><title>Node19</title>
<a xlink:href="knot__curve__style_8cpp.html" target="_top" xlink:title="knot_curve_style.cpp">
<polygon fill="none" stroke="black" points="668,-290.5 668,-311.5 778,-311.5 778,-290.5 668,-290.5"/>
<text text-anchor="middle" x="723" y="-298.5" font-family="Helvetica,sans-Serif" font-size="10.00">knot_curve_style.cpp</text>
</a>
</g>
<!-- Node1&#45;&gt;Node19 -->
<g id="edge46" class="edge"><title>Node1&#45;&gt;Node19</title>
<path fill="none" stroke="midnightblue" d="M684.265,-341.118C693.612,-331.438 704.839,-319.81 712.794,-311.571"/>
<polygon fill="midnightblue" stroke="midnightblue" points="681.699,-338.737 677.271,-348.362 686.735,-343.599 681.699,-338.737"/>
</g>
<!-- Node3 -->
<g id="node5" class="node"><title>Node3</title>
<a xlink:href="knotview_8hpp.html" target="_top" xlink:title="knotview.hpp">
<polygon fill="none" stroke="black" points="351,-232.5 351,-253.5 425,-253.5 425,-232.5 351,-232.5"/>
<text text-anchor="middle" x="388" y="-240.5" font-family="Helvetica,sans-Serif" font-size="10.00">knotview.hpp</text>
</a>
</g>
<!-- Node2&#45;&gt;Node3 -->
<g id="edge4" class="edge"><title>Node2&#45;&gt;Node3</title>
<path fill="none" stroke="midnightblue" d="M562.067,-288.273C520.831,-277.548 462.715,-262.433 425.197,-252.675"/>
<polygon fill="midnightblue" stroke="midnightblue" points="561.342,-291.701 571.901,-290.831 563.104,-284.926 561.342,-291.701"/>
</g>
<!-- Node11 -->
<g id="node22" class="node"><title>Node11</title>
<a xlink:href="knotview_8cpp.html" target="_top" xlink:title="knotview.cpp">
<polygon fill="none" stroke="black" points="436,-116.5 436,-137.5 510,-137.5 510,-116.5 436,-116.5"/>
<text text-anchor="middle" x="473" y="-124.5" font-family="Helvetica,sans-Serif" font-size="10.00">knotview.cpp</text>
</a>
</g>
<!-- Node2&#45;&gt;Node11 -->
<g id="edge44" class="edge"><title>Node2&#45;&gt;Node11</title>
<path fill="none" stroke="midnightblue" d="M613.755,-280.442C616.24,-253.105 616.384,-204.679 592,-174 572.167,-149.047 537.177,-137.3 510.255,-131.795"/>
<polygon fill="midnightblue" stroke="midnightblue" points="610.27,-280.115 612.653,-290.438 617.228,-280.882 610.27,-280.115"/>
</g>
<!-- Node18 -->
<g id="node39" class="node"><title>Node18</title>
<a xlink:href="knotgraph_8cpp.html" target="_top" xlink:title="knotgraph.cpp">
<polygon fill="none" stroke="black" points="639,-232.5 639,-253.5 717,-253.5 717,-232.5 639,-232.5"/>
<text text-anchor="middle" x="678" y="-240.5" font-family="Helvetica,sans-Serif" font-size="10.00">knotgraph.cpp</text>
</a>
</g>
<!-- Node2&#45;&gt;Node18 -->
<g id="edge42" class="edge"><title>Node2&#45;&gt;Node18</title>
<path fill="none" stroke="midnightblue" d="M630.995,-283.691C642.306,-273.9 656.083,-261.973 665.789,-253.571"/>
<polygon fill="midnightblue" stroke="midnightblue" points="628.559,-281.171 623.289,-290.362 633.14,-286.463 628.559,-281.171"/>
</g>
<!-- Node4 -->
<g id="node7" class="node"><title>Node4</title>
<a xlink:href="clipboard_8hpp.html" target="_top" xlink:title="clipboard.hpp">
<polygon fill="none" stroke="black" points="65,-174.5 65,-195.5 139,-195.5 139,-174.5 65,-174.5"/>
<text text-anchor="middle" x="102" y="-182.5" font-family="Helvetica,sans-Serif" font-size="10.00">clipboard.hpp</text>
</a>
</g>
<!-- Node3&#45;&gt;Node4 -->
<g id="edge6" class="edge"><title>Node3&#45;&gt;Node4</title>
<path fill="none" stroke="midnightblue" d="M340.791,-233.426C284.227,-221.955 190.645,-202.977 139.031,-192.51"/>
<polygon fill="midnightblue" stroke="midnightblue" points="340.408,-236.92 350.904,-235.477 341.799,-230.059 340.408,-236.92"/>
</g>
<!-- Node10 -->
<g id="node19" class="node"><title>Node10</title>
<a xlink:href="commands_8hpp.html" target="_top" xlink:title="commands.hpp">
<polygon fill="none" stroke="black" points="346.5,-174.5 346.5,-195.5 429.5,-195.5 429.5,-174.5 346.5,-174.5"/>
<text text-anchor="middle" x="388" y="-182.5" font-family="Helvetica,sans-Serif" font-size="10.00">commands.hpp</text>
</a>
</g>
<!-- Node3&#45;&gt;Node10 -->
<g id="edge18" class="edge"><title>Node3&#45;&gt;Node10</title>
<path fill="none" stroke="midnightblue" d="M388,-222.191C388,-213.168 388,-202.994 388,-195.571"/>
<polygon fill="midnightblue" stroke="midnightblue" points="384.5,-222.362 388,-232.362 391.5,-222.362 384.5,-222.362"/>
</g>
<!-- Node3&#45;&gt;Node11 -->
<g id="edge38" class="edge"><title>Node3&#45;&gt;Node11</title>
<path fill="none" stroke="midnightblue" d="M409.453,-225.796C418.963,-217.466 429.824,-206.915 438,-196 452.011,-177.294 463.145,-152.14 468.84,-137.945"/>
<polygon fill="midnightblue" stroke="midnightblue" points="406.911,-223.363 401.544,-232.498 411.436,-228.703 406.911,-223.363"/>
</g>
<!-- Node12 -->
<g id="node24" class="node"><title>Node12</title>
<a xlink:href="ui__knot__window_8h.html" target="_top" xlink:title="ui_knot_window.h">
<polygon fill="none" stroke="black" points="129.5,-116.5 129.5,-137.5 224.5,-137.5 224.5,-116.5 129.5,-116.5"/>
<text text-anchor="middle" x="177" y="-124.5" font-family="Helvetica,sans-Serif" font-size="10.00">ui_knot_window.h</text>
</a>
</g>
<!-- Node3&#45;&gt;Node12 -->
<g id="edge24" class="edge"><title>Node3&#45;&gt;Node12</title>
<path fill="none" stroke="midnightblue" d="M340.721,-236.392C308.005,-230.078 264.652,-218.111 232,-196 209.168,-180.539 191.252,-152.708 182.627,-137.545"/>
<polygon fill="midnightblue" stroke="midnightblue" points="340.477,-239.905 350.942,-238.249 341.729,-233.018 340.477,-239.905"/>
</g>
<!-- Node13 -->
<g id="node27" class="node"><title>Node13</title>
<a xlink:href="ui__style__dialog_8h.html" target="_top" xlink:title="ui_style_dialog.h">
<polygon fill="none" stroke="black" points="240.5,-174.5 240.5,-195.5 329.5,-195.5 329.5,-174.5 240.5,-174.5"/>
<text text-anchor="middle" x="285" y="-182.5" font-family="Helvetica,sans-Serif" font-size="10.00">ui_style_dialog.h</text>
</a>
</g>
<!-- Node3&#45;&gt;Node13 -->
<g id="edge28" class="edge"><title>Node3&#45;&gt;Node13</title>
<path fill="none" stroke="midnightblue" d="M360.259,-227.379C342.362,-217.301 319.563,-204.462 303.772,-195.571"/>
<polygon fill="midnightblue" stroke="midnightblue" points="358.677,-230.505 369.108,-232.362 362.112,-224.405 358.677,-230.505"/>
</g>
<!-- Node17 -->
<g id="node37" class="node"><title>Node17</title>
<a xlink:href="moc__knotview_8cpp.html" target="_top" xlink:title="moc_knotview.cpp">
<polygon fill="none" stroke="black" points="485,-174.5 485,-195.5 583,-195.5 583,-174.5 485,-174.5"/>
<text text-anchor="middle" x="534" y="-182.5" font-family="Helvetica,sans-Serif" font-size="10.00">moc_knotview.cpp</text>
</a>
</g>
<!-- Node3&#45;&gt;Node17 -->
<g id="edge40" class="edge"><title>Node3&#45;&gt;Node17</title>
<path fill="none" stroke="midnightblue" d="M423.868,-228.751C449.651,-218.509 483.855,-204.921 507.264,-195.621"/>
<polygon fill="midnightblue" stroke="midnightblue" points="422.441,-225.552 414.439,-232.497 425.025,-232.057 422.441,-225.552"/>
</g>
<!-- Node5 -->
<g id="node9" class="node"><title>Node5</title>
<a xlink:href="clipboard_8cpp.html" target="_top" xlink:title="clipboard.cpp">
<polygon fill="none" stroke="black" points="0,-116.5 0,-137.5 74,-137.5 74,-116.5 0,-116.5"/>
<text text-anchor="middle" x="37" y="-124.5" font-family="Helvetica,sans-Serif" font-size="10.00">clipboard.cpp</text>
</a>
</g>
<!-- Node4&#45;&gt;Node5 -->
<g id="edge8" class="edge"><title>Node4&#45;&gt;Node5</title>
<path fill="none" stroke="midnightblue" d="M82.6017,-167.691C71.6289,-157.9 58.2628,-145.973 48.8464,-137.571"/>
<polygon fill="midnightblue" stroke="midnightblue" points="80.2863,-170.315 90.078,-174.362 84.9468,-165.092 80.2863,-170.315"/>
</g>
<!-- Node6 -->
<g id="node11" class="node"><title>Node6</title>
<a xlink:href="knot__window_8hpp.html" target="_top" xlink:title="knot_window.hpp">
<polygon fill="none" stroke="black" points="56,-58.5 56,-79.5 148,-79.5 148,-58.5 56,-58.5"/>
<text text-anchor="middle" x="102" y="-66.5" font-family="Helvetica,sans-Serif" font-size="10.00">knot_window.hpp</text>
</a>
</g>
<!-- Node4&#45;&gt;Node6 -->
<g id="edge10" class="edge"><title>Node4&#45;&gt;Node6</title>
<path fill="none" stroke="midnightblue" d="M102,-164.123C102,-139.298 102,-98.8235 102,-79.6792"/>
<polygon fill="midnightblue" stroke="midnightblue" points="98.5001,-164.295 102,-174.295 105.5,-164.295 98.5001,-164.295"/>
</g>
<!-- Node7 -->
<g id="node13" class="node"><title>Node7</title>
<a xlink:href="knot__window_8cpp.html" target="_top" xlink:title="knot_window.cpp">
<polygon fill="none" stroke="black" points="296,-0.5 296,-21.5 388,-21.5 388,-0.5 296,-0.5"/>
<text text-anchor="middle" x="342" y="-8.5" font-family="Helvetica,sans-Serif" font-size="10.00">knot_window.cpp</text>
</a>
</g>
<!-- Node6&#45;&gt;Node7 -->
<g id="edge12" class="edge"><title>Node6&#45;&gt;Node7</title>
<path fill="none" stroke="midnightblue" d="M155.204,-56.1424C198.278,-45.7328 258.202,-31.2511 298.456,-21.5231"/>
<polygon fill="midnightblue" stroke="midnightblue" points="154.36,-52.7455 145.462,-58.4966 156.005,-59.5496 154.36,-52.7455"/>
</g>
<!-- Node8 -->
<g id="node15" class="node"><title>Node8</title>
<a xlink:href="main_8cpp.html" target="_top" xlink:title="main.cpp">
<polygon fill="none" stroke="black" points="22,-0.5 22,-21.5 78,-21.5 78,-0.5 22,-0.5"/>
<text text-anchor="middle" x="50" y="-8.5" font-family="Helvetica,sans-Serif" font-size="10.00">main.cpp</text>
</a>
</g>
<!-- Node6&#45;&gt;Node8 -->
<g id="edge14" class="edge"><title>Node6&#45;&gt;Node8</title>
<path fill="none" stroke="midnightblue" d="M85.7096,-50.8299C77.0829,-41.2078 66.7908,-29.7282 59.4771,-21.5707"/>
<polygon fill="midnightblue" stroke="midnightblue" points="83.1809,-53.2526 92.4624,-58.3619 88.3929,-48.5798 83.1809,-53.2526"/>
</g>
<!-- Node9 -->
<g id="node17" class="node"><title>Node9</title>
<a xlink:href="moc__knot__window_8cpp.html" target="_top" xlink:title="moc_knot_window.cpp">
<polygon fill="none" stroke="black" points="96,-0.5 96,-21.5 212,-21.5 212,-0.5 96,-0.5"/>
<text text-anchor="middle" x="154" y="-8.5" font-family="Helvetica,sans-Serif" font-size="10.00">moc_knot_window.cpp</text>
</a>
</g>
<!-- Node6&#45;&gt;Node9 -->
<g id="edge16" class="edge"><title>Node6&#45;&gt;Node9</title>
<path fill="none" stroke="midnightblue" d="M118.29,-50.8299C126.917,-41.2078 137.209,-29.7282 144.523,-21.5707"/>
<polygon fill="midnightblue" stroke="midnightblue" points="115.607,-48.5798 111.538,-58.3619 120.819,-53.2526 115.607,-48.5798"/>
</g>
<!-- Node10&#45;&gt;Node7 -->
<g id="edge20" class="edge"><title>Node10&#45;&gt;Node7</title>
<path fill="none" stroke="midnightblue" d="M392.907,-164.439C398.049,-138.521 403.545,-93.1143 389,-58 382.729,-42.8611 368.954,-30.056 357.929,-21.6536"/>
<polygon fill="midnightblue" stroke="midnightblue" points="389.474,-163.753 390.784,-174.267 396.316,-165.231 389.474,-163.753"/>
</g>
<!-- Node10&#45;&gt;Node11 -->
<g id="edge22" class="edge"><title>Node10&#45;&gt;Node11</title>
<path fill="none" stroke="midnightblue" d="M412.121,-168.541C426.694,-158.597 444.836,-146.218 457.509,-137.571"/>
<polygon fill="midnightblue" stroke="midnightblue" points="409.878,-165.834 403.59,-174.362 413.823,-171.617 409.878,-165.834"/>
</g>
<!-- Node12&#45;&gt;Node6 -->
<g id="edge26" class="edge"><title>Node12&#45;&gt;Node6</title>
<path fill="none" stroke="midnightblue" d="M154.985,-109.975C142.256,-100.132 126.639,-88.0545 115.669,-79.5707"/>
<polygon fill="midnightblue" stroke="midnightblue" points="153.192,-113.013 163.244,-116.362 157.474,-107.476 153.192,-113.013"/>
</g>
<!-- Node14 -->
<g id="node29" class="node"><title>Node14</title>
<a xlink:href="style__dialog_8hpp.html" target="_top" xlink:title="style_dialog.hpp">
<polygon fill="none" stroke="black" points="241.5,-116.5 241.5,-137.5 328.5,-137.5 328.5,-116.5 241.5,-116.5"/>
<text text-anchor="middle" x="285" y="-124.5" font-family="Helvetica,sans-Serif" font-size="10.00">style_dialog.hpp</text>
</a>
</g>
<!-- Node13&#45;&gt;Node14 -->
<g id="edge30" class="edge"><title>Node13&#45;&gt;Node14</title>
<path fill="none" stroke="midnightblue" d="M285,-164.191C285,-155.168 285,-144.994 285,-137.571"/>
<polygon fill="midnightblue" stroke="midnightblue" points="281.5,-164.362 285,-174.362 288.5,-164.362 281.5,-164.362"/>
</g>
<!-- Node14&#45;&gt;Node6 -->
<g id="edge32" class="edge"><title>Node14&#45;&gt;Node6</title>
<path fill="none" stroke="midnightblue" d="M242.13,-113.413C209.48,-103.065 165.185,-89.0258 135.202,-79.5231"/>
<polygon fill="midnightblue" stroke="midnightblue" points="241.27,-116.812 251.86,-116.497 243.385,-110.139 241.27,-116.812"/>
</g>
<!-- Node15 -->
<g id="node32" class="node"><title>Node15</title>
<a xlink:href="moc__style__dialog_8cpp.html" target="_top" xlink:title="moc_style_dialog.cpp">
<polygon fill="none" stroke="black" points="165.5,-58.5 165.5,-79.5 276.5,-79.5 276.5,-58.5 165.5,-58.5"/>
<text text-anchor="middle" x="221" y="-66.5" font-family="Helvetica,sans-Serif" font-size="10.00">moc_style_dialog.cpp</text>
</a>
</g>
<!-- Node14&#45;&gt;Node15 -->
<g id="edge34" class="edge"><title>Node14&#45;&gt;Node15</title>
<path fill="none" stroke="midnightblue" d="M265.585,-109.405C254.841,-99.6683 241.846,-87.8914 232.664,-79.5707"/>
<polygon fill="midnightblue" stroke="midnightblue" points="263.501,-112.24 273.261,-116.362 268.202,-107.053 263.501,-112.24"/>
</g>
<!-- Node16 -->
<g id="node34" class="node"><title>Node16</title>
<a xlink:href="style__dialog_8cpp.html" target="_top" xlink:title="style_dialog.cpp">
<polygon fill="none" stroke="black" points="293.5,-58.5 293.5,-79.5 380.5,-79.5 380.5,-58.5 293.5,-58.5"/>
<text text-anchor="middle" x="337" y="-66.5" font-family="Helvetica,sans-Serif" font-size="10.00">style_dialog.cpp</text>
</a>
</g>
<!-- Node14&#45;&gt;Node16 -->
<g id="edge36" class="edge"><title>Node14&#45;&gt;Node16</title>
<path fill="none" stroke="midnightblue" d="M301.29,-108.83C309.917,-99.2078 320.209,-87.7282 327.523,-79.5707"/>
<polygon fill="midnightblue" stroke="midnightblue" points="298.607,-106.58 294.538,-116.362 303.819,-111.253 298.607,-106.58"/>
</g>
</g>
</svg>
