<?xml version="1.0" encoding="UTF-8" standalone="no"?>
<!DOCTYPE svg PUBLIC "-//W3C//DTD SVG 1.1//EN"
 "http://www.w3.org/Graphics/SVG/1.1/DTD/svg11.dtd">
<!-- Generated by graphviz version 2.26.3 (20100126.1600)
 -->
<!-- Title: G Pages: 1 -->
<svg width="2505pt" height="610pt"
 viewBox="0.00 0.00 2504.84 610.00" xmlns="http://www.w3.org/2000/svg" xmlns:xlink="http://www.w3.org/1999/xlink">
<g id="graph1" class="graph" transform="scale(1 1) rotate(0) translate(4 606)">
<title>G</title>
<!-- Node1 -->
<g id="node1" class="node"><title>Node1</title>
<polygon fill="#bfbfbf" stroke="black" points="455,-580.5 455,-601.5 547,-601.5 547,-580.5 455,-580.5"/>
<text text-anchor="middle" x="501" y="-588.5" font-family="Helvetica,sans-Serif" font-size="10.00">knot_window.cpp</text>
</g>
<!-- Node2 -->
<g id="node3" class="node"><title>Node2</title>
<a xlink:href="knot__window_8hpp.html" target="_top" xlink:title="knot_window.hpp">
<polygon fill="none" stroke="black" points="357,-522.5 357,-543.5 449,-543.5 449,-522.5 357,-522.5"/>
<text text-anchor="middle" x="403" y="-530.5" font-family="Helvetica,sans-Serif" font-size="10.00">knot_window.hpp</text>
</a>
</g>
<!-- Node1&#45;&gt;Node2 -->
<g id="edge2" class="edge"><title>Node1&#45;&gt;Node2</title>
<path fill="none" stroke="midnightblue" d="M483.025,-580.362C468.106,-571.532 446.667,-558.844 429.734,-548.822"/>
<polygon fill="midnightblue" stroke="midnightblue" points="431.249,-545.652 420.861,-543.571 427.684,-551.676 431.249,-545.652"/>
</g>
<!-- Node44 -->
<g id="node103" class="node"><title>Node44</title>
<a xlink:href="commands_8hpp.html" target="_top" xlink:title="commands.hpp">
<polygon fill="none" stroke="black" points="143.5,-522.5 143.5,-543.5 226.5,-543.5 226.5,-522.5 143.5,-522.5"/>
<text text-anchor="middle" x="185" y="-530.5" font-family="Helvetica,sans-Serif" font-size="10.00">commands.hpp</text>
</a>
</g>
<!-- Node1&#45;&gt;Node44 -->
<g id="edge118" class="edge"><title>Node1&#45;&gt;Node44</title>
<path fill="none" stroke="midnightblue" d="M454.712,-582.504C396.697,-571.856 297.54,-553.656 236.975,-542.54"/>
<polygon fill="midnightblue" stroke="midnightblue" points="237.334,-539.047 226.867,-540.684 236.071,-545.932 237.334,-539.047"/>
</g>
<!-- Node46 -->
<g id="node108" class="node"><title>Node46</title>
<polygon fill="none" stroke="#bfbfbf" points="467,-522.5 467,-543.5 535,-543.5 535,-522.5 467,-522.5"/>
<text text-anchor="middle" x="501" y="-530.5" font-family="Helvetica,sans-Serif" font-size="10.00">QFileDialog</text>
</g>
<!-- Node1&#45;&gt;Node46 -->
<g id="edge124" class="edge"><title>Node1&#45;&gt;Node46</title>
<path fill="none" stroke="midnightblue" d="M501,-580.362C501,-572.922 501,-562.743 501,-553.728"/>
<polygon fill="midnightblue" stroke="midnightblue" points="504.5,-553.571 501,-543.571 497.5,-553.571 504.5,-553.571"/>
</g>
<!-- Node47 -->
<g id="node110" class="node"><title>Node47</title>
<polygon fill="none" stroke="#bfbfbf" points="552.5,-522.5 552.5,-543.5 633.5,-543.5 633.5,-522.5 552.5,-522.5"/>
<text text-anchor="middle" x="593" y="-530.5" font-family="Helvetica,sans-Serif" font-size="10.00">QMessageBox</text>
</g>
<!-- Node1&#45;&gt;Node47 -->
<g id="edge126" class="edge"><title>Node1&#45;&gt;Node47</title>
<path fill="none" stroke="midnightblue" d="M517.874,-580.362C531.751,-571.614 551.634,-559.079 567.46,-549.101"/>
<polygon fill="midnightblue" stroke="midnightblue" points="569.64,-551.864 576.233,-543.571 565.907,-545.943 569.64,-551.864"/>
</g>
<!-- Node48 -->
<g id="node112" class="node"><title>Node48</title>
<a xlink:href="gridconfig_8hpp.html" target="_top" xlink:title="gridconfig.hpp">
<polygon fill="none" stroke="black" points="1783.5,-464.5 1783.5,-485.5 1860.5,-485.5 1860.5,-464.5 1783.5,-464.5"/>
<text text-anchor="middle" x="1822" y="-472.5" font-family="Helvetica,sans-Serif" font-size="10.00">gridconfig.hpp</text>
</a>
</g>
<!-- Node1&#45;&gt;Node48 -->
<g id="edge128" class="edge"><title>Node1&#45;&gt;Node48</title>
<path fill="none" stroke="midnightblue" d="M547.241,-586.94C750.671,-569.076 1565.14,-497.556 1773.34,-479.273"/>
<polygon fill="midnightblue" stroke="midnightblue" points="1773.7,-482.755 1783.36,-478.393 1773.09,-475.781 1773.7,-482.755"/>
</g>
<!-- Node3 -->
<g id="node5" class="node"><title>Node3</title>
<a xlink:href="ui__knot__window_8h.html" target="_top" xlink:title="ui_knot_window.h">
<polygon fill="none" stroke="black" points="729.5,-406.5 729.5,-427.5 824.5,-427.5 824.5,-406.5 729.5,-406.5"/>
<text text-anchor="middle" x="777" y="-414.5" font-family="Helvetica,sans-Serif" font-size="10.00">ui_knot_window.h</text>
</a>
</g>
<!-- Node2&#45;&gt;Node3 -->
<g id="edge4" class="edge"><title>Node2&#45;&gt;Node3</title>
<path fill="none" stroke="midnightblue" d="M437.181,-522.398C505.349,-501.255 658.104,-453.877 733.378,-430.53"/>
<polygon fill="midnightblue" stroke="midnightblue" points="734.519,-433.841 743.033,-427.535 732.445,-427.155 734.519,-433.841"/>
</g>
<!-- Node22 -->
<g id="node45" class="node"><title>Node22</title>
<polygon fill="none" stroke="#bfbfbf" points="83.5,-290.5 83.5,-311.5 156.5,-311.5 156.5,-290.5 83.5,-290.5"/>
<text text-anchor="middle" x="120" y="-298.5" font-family="Helvetica,sans-Serif" font-size="10.00">QUndoStack</text>
</g>
<!-- Node2&#45;&gt;Node22 -->
<g id="edge68" class="edge"><title>Node2&#45;&gt;Node22</title>
<path fill="none" stroke="midnightblue" d="M369.655,-522.402C312.572,-502.428 196.717,-453.537 139,-370 129.094,-355.663 124.34,-336.325 122.065,-321.769"/>
<polygon fill="midnightblue" stroke="midnightblue" points="125.521,-321.2 120.765,-311.732 118.579,-322.099 125.521,-321.2"/>
</g>
<!-- Node28 -->
<g id="node63" class="node"><title>Node28</title>
<polygon fill="none" stroke="#bfbfbf" points="306.5,-464.5 306.5,-485.5 375.5,-485.5 375.5,-464.5 306.5,-464.5"/>
<text text-anchor="middle" x="341" y="-472.5" font-family="Helvetica,sans-Serif" font-size="10.00">QUndoView</text>
</g>
<!-- Node2&#45;&gt;Node28 -->
<g id="edge70" class="edge"><title>Node2&#45;&gt;Node28</title>
<path fill="none" stroke="midnightblue" d="M391.628,-522.362C382.714,-514.023 370.121,-502.242 359.724,-492.516"/>
<polygon fill="midnightblue" stroke="midnightblue" points="361.993,-489.846 352.3,-485.571 357.211,-494.958 361.993,-489.846"/>
</g>
<!-- Node29 -->
<g id="node65" class="node"><title>Node29</title>
<a xlink:href="style__dialog_8hpp.html" target="_top" xlink:title="style_dialog.hpp">
<polygon fill="none" stroke="black" points="1210.5,-464.5 1210.5,-485.5 1297.5,-485.5 1297.5,-464.5 1210.5,-464.5"/>
<text text-anchor="middle" x="1254" y="-472.5" font-family="Helvetica,sans-Serif" font-size="10.00">style_dialog.hpp</text>
</a>
</g>
<!-- Node2&#45;&gt;Node29 -->
<g id="edge72" class="edge"><title>Node2&#45;&gt;Node29</title>
<path fill="none" stroke="midnightblue" d="M449.137,-523.291C452.129,-522.81 455.103,-522.373 458,-522 735.44,-486.24 1070.84,-477.65 1199.84,-475.618"/>
<polygon fill="midnightblue" stroke="midnightblue" points="1200.28,-479.112 1210.23,-475.461 1200.18,-472.112 1200.28,-479.112"/>
</g>
<!-- Node43 -->
<g id="node100" class="node"><title>Node43</title>
<a xlink:href="clipboard_8hpp.html" target="_top" xlink:title="clipboard.hpp">
<polygon fill="none" stroke="black" points="289,-406.5 289,-427.5 363,-427.5 363,-406.5 289,-406.5"/>
<text text-anchor="middle" x="326" y="-414.5" font-family="Helvetica,sans-Serif" font-size="10.00">clipboard.hpp</text>
</a>
</g>
<!-- Node2&#45;&gt;Node43 -->
<g id="edge114" class="edge"><title>Node2&#45;&gt;Node43</title>
<path fill="none" stroke="midnightblue" d="M402.1,-522.358C400.462,-508.051 395.97,-482.301 384,-464 376.107,-451.933 364.12,-441.477 353.088,-433.511"/>
<polygon fill="midnightblue" stroke="midnightblue" points="354.773,-430.424 344.541,-427.674 350.825,-436.204 354.773,-430.424"/>
</g>
<!-- Node4 -->
<g id="node7" class="node"><title>Node4</title>
<polygon fill="none" stroke="#bfbfbf" points="1715.5,-348.5 1715.5,-369.5 1804.5,-369.5 1804.5,-348.5 1715.5,-348.5"/>
<text text-anchor="middle" x="1760" y="-356.5" font-family="Helvetica,sans-Serif" font-size="10.00">QtCore/QVariant</text>
</g>
<!-- Node3&#45;&gt;Node4 -->
<g id="edge6" class="edge"><title>Node3&#45;&gt;Node4</title>
<path fill="none" stroke="midnightblue" d="M824.763,-415.561C986.567,-410.536 1514.09,-392.892 1705.07,-370.056"/>
<polygon fill="midnightblue" stroke="midnightblue" points="1705.77,-373.496 1715.26,-368.791 1704.91,-366.549 1705.77,-373.496"/>
</g>
<!-- Node5 -->
<g id="node9" class="node"><title>Node5</title>
<polygon fill="none" stroke="#bfbfbf" points="888,-348.5 888,-369.5 968,-369.5 968,-348.5 888,-348.5"/>
<text text-anchor="middle" x="928" y="-356.5" font-family="Helvetica,sans-Serif" font-size="10.00">QtGui/QAction</text>
</g>
<!-- Node3&#45;&gt;Node5 -->
<g id="edge8" class="edge"><title>Node3&#45;&gt;Node5</title>
<path fill="none" stroke="midnightblue" d="M804.345,-406.497C828.642,-397.164 864.36,-383.445 891.168,-373.147"/>
<polygon fill="midnightblue" stroke="midnightblue" points="892.524,-376.376 900.604,-369.523 890.014,-369.842 892.524,-376.376"/>
</g>
<!-- Node6 -->
<g id="node11" class="node"><title>Node6</title>
<polygon fill="none" stroke="#bfbfbf" points="985.5,-348.5 985.5,-369.5 1086.5,-369.5 1086.5,-348.5 985.5,-348.5"/>
<text text-anchor="middle" x="1036" y="-356.5" font-family="Helvetica,sans-Serif" font-size="10.00">QtGui/QApplication</text>
</g>
<!-- Node3&#45;&gt;Node6 -->
<g id="edge10" class="edge"><title>Node3&#45;&gt;Node6</title>
<path fill="none" stroke="midnightblue" d="M823.903,-406.497C867.498,-396.734 932.526,-382.172 979.076,-371.747"/>
<polygon fill="midnightblue" stroke="midnightblue" points="980.016,-375.124 989.009,-369.523 978.486,-368.293 980.016,-375.124"/>
</g>
<!-- Node7 -->
<g id="node13" class="node"><title>Node7</title>
<polygon fill="none" stroke="#bfbfbf" points="1103.5,-348.5 1103.5,-369.5 1210.5,-369.5 1210.5,-348.5 1103.5,-348.5"/>
<text text-anchor="middle" x="1157" y="-356.5" font-family="Helvetica,sans-Serif" font-size="10.00">QtGui/QButtonGroup</text>
</g>
<!-- Node3&#45;&gt;Node7 -->
<g id="edge12" class="edge"><title>Node3&#45;&gt;Node7</title>
<path fill="none" stroke="midnightblue" d="M824.745,-410.381C885.006,-401.93 992.105,-386.589 1093.17,-370.268"/>
<polygon fill="midnightblue" stroke="midnightblue" points="1093.94,-373.69 1103.25,-368.635 1092.82,-366.78 1093.94,-373.69"/>
</g>
<!-- Node8 -->
<g id="node15" class="node"><title>Node8</title>
<polygon fill="none" stroke="#bfbfbf" points="1366,-348.5 1366,-369.5 1466,-369.5 1466,-348.5 1366,-348.5"/>
<text text-anchor="middle" x="1416" y="-356.5" font-family="Helvetica,sans-Serif" font-size="10.00">QtGui/QGridLayout</text>
</g>
<!-- Node3&#45;&gt;Node8 -->
<g id="edge14" class="edge"><title>Node3&#45;&gt;Node8</title>
<path fill="none" stroke="midnightblue" d="M824.542,-414.817C922.211,-409.97 1152.65,-396.682 1355.88,-370.036"/>
<polygon fill="midnightblue" stroke="midnightblue" points="1356.39,-373.499 1365.84,-368.716 1355.47,-366.56 1356.39,-373.499"/>
</g>
<!-- Node9 -->
<g id="node17" class="node"><title>Node9</title>
<polygon fill="none" stroke="#bfbfbf" points="1592,-348.5 1592,-369.5 1698,-369.5 1698,-348.5 1592,-348.5"/>
<text text-anchor="middle" x="1645" y="-356.5" font-family="Helvetica,sans-Serif" font-size="10.00">QtGui/QHeaderView</text>
</g>
<!-- Node3&#45;&gt;Node9 -->
<g id="edge16" class="edge"><title>Node3&#45;&gt;Node9</title>
<path fill="none" stroke="midnightblue" d="M824.865,-416.167C948.514,-413.596 1288.81,-403.864 1581.99,-369.996"/>
<polygon fill="midnightblue" stroke="midnightblue" points="1582.43,-373.468 1591.96,-368.832 1581.62,-366.515 1582.43,-373.468"/>
</g>
<!-- Node10 -->
<g id="node19" class="node"><title>Node10</title>
<polygon fill="none" stroke="#bfbfbf" points="667.5,-348.5 667.5,-369.5 776.5,-369.5 776.5,-348.5 667.5,-348.5"/>
<text text-anchor="middle" x="722" y="-356.5" font-family="Helvetica,sans-Serif" font-size="10.00">QtGui/QMainWindow</text>
</g>
<!-- Node3&#45;&gt;Node10 -->
<g id="edge18" class="edge"><title>Node3&#45;&gt;Node10</title>
<path fill="none" stroke="midnightblue" d="M766.912,-406.362C759.159,-398.186 748.27,-386.702 739.155,-377.091"/>
<polygon fill="midnightblue" stroke="midnightblue" points="741.445,-374.419 732.024,-369.571 736.365,-379.235 741.445,-374.419"/>
</g>
<!-- Node11 -->
<g id="node21" class="node"><title>Node11</title>
<polygon fill="none" stroke="#bfbfbf" points="793.5,-348.5 793.5,-369.5 870.5,-369.5 870.5,-348.5 793.5,-348.5"/>
<text text-anchor="middle" x="832" y="-356.5" font-family="Helvetica,sans-Serif" font-size="10.00">QtGui/QMenu</text>
</g>
<!-- Node3&#45;&gt;Node11 -->
<g id="edge20" class="edge"><title>Node3&#45;&gt;Node11</title>
<path fill="none" stroke="midnightblue" d="M787.088,-406.362C794.841,-398.186 805.73,-386.702 814.845,-377.091"/>
<polygon fill="midnightblue" stroke="midnightblue" points="817.635,-379.235 821.976,-369.571 812.555,-374.419 817.635,-379.235"/>
</g>
<!-- Node12 -->
<g id="node23" class="node"><title>Node12</title>
<polygon fill="none" stroke="#bfbfbf" points="240,-348.5 240,-369.5 332,-369.5 332,-348.5 240,-348.5"/>
<text text-anchor="middle" x="286" y="-356.5" font-family="Helvetica,sans-Serif" font-size="10.00">QtGui/QMenuBar</text>
</g>
<!-- Node3&#45;&gt;Node12 -->
<g id="edge22" class="edge"><title>Node3&#45;&gt;Node12</title>
<path fill="none" stroke="midnightblue" d="M729.398,-413.281C650.855,-406.836 489.012,-392.257 342.251,-370.086"/>
<polygon fill="midnightblue" stroke="midnightblue" points="342.574,-366.594 332.16,-368.545 341.517,-373.514 342.574,-366.594"/>
</g>
<!-- Node13 -->
<g id="node25" class="node"><title>Node13</title>
<polygon fill="none" stroke="#bfbfbf" points="350,-348.5 350,-369.5 446,-369.5 446,-348.5 350,-348.5"/>
<text text-anchor="middle" x="398" y="-356.5" font-family="Helvetica,sans-Serif" font-size="10.00">QtGui/QStatusBar</text>
</g>
<!-- Node3&#45;&gt;Node13 -->
<g id="edge24" class="edge"><title>Node3&#45;&gt;Node13</title>
<path fill="none" stroke="midnightblue" d="M729.427,-410.748C668.467,-402.584 559.293,-387.448 456.136,-370.139"/>
<polygon fill="midnightblue" stroke="midnightblue" points="456.617,-366.671 446.174,-368.457 455.452,-373.573 456.617,-366.671"/>
</g>
<!-- Node14 -->
<g id="node27" class="node"><title>Node14</title>
<polygon fill="none" stroke="#bfbfbf" points="464,-348.5 464,-369.5 550,-369.5 550,-348.5 464,-348.5"/>
<text text-anchor="middle" x="507" y="-356.5" font-family="Helvetica,sans-Serif" font-size="10.00">QtGui/QToolBar</text>
</g>
<!-- Node3&#45;&gt;Node14 -->
<g id="edge26" class="edge"><title>Node3&#45;&gt;Node14</title>
<path fill="none" stroke="midnightblue" d="M729.351,-406.764C681.904,-396.572 609.23,-380.96 559.991,-370.383"/>
<polygon fill="midnightblue" stroke="midnightblue" points="560.676,-366.951 550.164,-368.272 559.206,-373.794 560.676,-366.951"/>
</g>
<!-- Node15 -->
<g id="node29" class="node"><title>Node15</title>
<polygon fill="none" stroke="#bfbfbf" points="567.5,-348.5 567.5,-369.5 650.5,-369.5 650.5,-348.5 567.5,-348.5"/>
<text text-anchor="middle" x="609" y="-356.5" font-family="Helvetica,sans-Serif" font-size="10.00">QtGui/QWidget</text>
</g>
<!-- Node3&#45;&gt;Node15 -->
<g id="edge28" class="edge"><title>Node3&#45;&gt;Node15</title>
<path fill="none" stroke="midnightblue" d="M746.576,-406.497C719.306,-397.082 679.107,-383.204 649.196,-372.877"/>
<polygon fill="midnightblue" stroke="midnightblue" points="650.075,-369.478 639.481,-369.523 647.791,-376.095 650.075,-369.478"/>
</g>
<!-- Node16 -->
<g id="node31" class="node"><title>Node16</title>
<a xlink:href="knotview_8hpp.html" target="_top" xlink:title="knotview.hpp">
<polygon fill="none" stroke="black" points="148,-348.5 148,-369.5 222,-369.5 222,-348.5 148,-348.5"/>
<text text-anchor="middle" x="185" y="-356.5" font-family="Helvetica,sans-Serif" font-size="10.00">knotview.hpp</text>
</a>
</g>
<!-- Node3&#45;&gt;Node16 -->
<g id="edge30" class="edge"><title>Node3&#45;&gt;Node16</title>
<path fill="none" stroke="midnightblue" d="M729.236,-415.28C635.622,-411.391 421.384,-399.948 232.192,-369.989"/>
<polygon fill="midnightblue" stroke="midnightblue" points="232.49,-366.492 222.061,-368.363 231.38,-373.404 232.49,-366.492"/>
</g>
<!-- Node17 -->
<g id="node33" class="node"><title>Node17</title>
<polygon fill="none" stroke="#bfbfbf" points="611.5,-290.5 611.5,-311.5 696.5,-311.5 696.5,-290.5 611.5,-290.5"/>
<text text-anchor="middle" x="654" y="-298.5" font-family="Helvetica,sans-Serif" font-size="10.00">QGraphicsView</text>
</g>
<!-- Node16&#45;&gt;Node17 -->
<g id="edge32" class="edge"><title>Node16&#45;&gt;Node17</title>
<path fill="none" stroke="midnightblue" d="M222.068,-349.675C225.08,-349.058 228.085,-348.489 231,-348 392.634,-320.878 435.847,-335.822 598,-312 599.078,-311.842 600.167,-311.676 601.264,-311.506"/>
<polygon fill="midnightblue" stroke="midnightblue" points="601.982,-314.934 611.268,-309.833 600.828,-308.03 601.982,-314.934"/>
</g>
<!-- Node18 -->
<g id="node35" class="node"><title>Node18</title>
<a xlink:href="node_8hpp.html" target="_top" xlink:title="node.hpp">
<polygon fill="none" stroke="black" points="277,-174.5 277,-195.5 333,-195.5 333,-174.5 277,-174.5"/>
<text text-anchor="middle" x="305" y="-182.5" font-family="Helvetica,sans-Serif" font-size="10.00">node.hpp</text>
</a>
</g>
<!-- Node16&#45;&gt;Node18 -->
<g id="edge34" class="edge"><title>Node16&#45;&gt;Node18</title>
<path fill="none" stroke="midnightblue" d="M186.823,-348.367C191.269,-325.064 204.533,-268.653 234,-232 244.385,-219.082 259.293,-208.464 272.77,-200.609"/>
<polygon fill="midnightblue" stroke="midnightblue" points="274.74,-203.519 281.799,-195.618 271.354,-197.393 274.74,-203.519"/>
</g>
<!-- Node21 -->
<g id="node41" class="node"><title>Node21</title>
<a xlink:href="edge_8hpp.html" target="_top" xlink:title="edge.hpp">
<polygon fill="none" stroke="black" points="360,-116.5 360,-137.5 416,-137.5 416,-116.5 360,-116.5"/>
<text text-anchor="middle" x="388" y="-124.5" font-family="Helvetica,sans-Serif" font-size="10.00">edge.hpp</text>
</a>
</g>
<!-- Node16&#45;&gt;Node21 -->
<g id="edge44" class="edge"><title>Node16&#45;&gt;Node21</title>
<path fill="none" stroke="midnightblue" d="M222.144,-350.059C225.139,-349.356 228.119,-348.663 231,-348 372.554,-315.446 461.876,-373.804 544,-254 555.969,-236.54 546.242,-189.925 532,-174 517.819,-158.143 464.047,-143.556 426.391,-134.968"/>
<polygon fill="midnightblue" stroke="midnightblue" points="426.765,-131.466 416.243,-132.709 425.244,-138.299 426.765,-131.466"/>
</g>
<!-- Node16&#45;&gt;Node22 -->
<g id="edge46" class="edge"><title>Node16&#45;&gt;Node22</title>
<path fill="none" stroke="midnightblue" d="M173.078,-348.362C163.641,-339.941 150.27,-328.011 139.31,-318.231"/>
<polygon fill="midnightblue" stroke="midnightblue" points="141.638,-315.617 131.846,-311.571 136.978,-320.84 141.638,-315.617"/>
</g>
<!-- Node23 -->
<g id="node47" class="node"><title>Node23</title>
<a xlink:href="knotgraph_8hpp.html" target="_top" xlink:title="knotgraph.hpp">
<polygon fill="none" stroke="black" points="307,-290.5 307,-311.5 385,-311.5 385,-290.5 307,-290.5"/>
<text text-anchor="middle" x="346" y="-298.5" font-family="Helvetica,sans-Serif" font-size="10.00">knotgraph.hpp</text>
</a>
</g>
<!-- Node16&#45;&gt;Node23 -->
<g id="edge48" class="edge"><title>Node16&#45;&gt;Node23</title>
<path fill="none" stroke="midnightblue" d="M214.156,-348.497C240.176,-339.123 278.479,-325.324 307.104,-315.012"/>
<polygon fill="midnightblue" stroke="midnightblue" points="308.568,-318.205 316.789,-311.523 306.195,-311.62 308.568,-318.205"/>
</g>
<!-- Node27 -->
<g id="node59" class="node"><title>Node27</title>
<a xlink:href="snapping__grid_8hpp.html" target="_top" xlink:title="snapping_grid.hpp">
<polygon fill="none" stroke="black" points="1610.5,-290.5 1610.5,-311.5 1705.5,-311.5 1705.5,-290.5 1610.5,-290.5"/>
<text text-anchor="middle" x="1658" y="-298.5" font-family="Helvetica,sans-Serif" font-size="10.00">snapping_grid.hpp</text>
</a>
</g>
<!-- Node16&#45;&gt;Node27 -->
<g id="edge64" class="edge"><title>Node16&#45;&gt;Node27</title>
<path fill="none" stroke="midnightblue" d="M222.033,-349.444C225.053,-348.879 228.069,-348.385 231,-348 831.968,-269.133 994.328,-377.746 1600.12,-312.038"/>
<polygon fill="midnightblue" stroke="midnightblue" points="1600.87,-315.478 1610.42,-310.909 1600.1,-308.519 1600.87,-315.478"/>
</g>
<!-- Node19 -->
<g id="node37" class="node"><title>Node19</title>
<a xlink:href="custom__item_8hpp.html" target="_top" xlink:title="custom_item.hpp">
<polygon fill="none" stroke="black" points="342,-58.5 342,-79.5 434,-79.5 434,-58.5 342,-58.5"/>
<text text-anchor="middle" x="388" y="-66.5" font-family="Helvetica,sans-Serif" font-size="10.00">custom_item.hpp</text>
</a>
</g>
<!-- Node18&#45;&gt;Node19 -->
<g id="edge36" class="edge"><title>Node18&#45;&gt;Node19</title>
<path fill="none" stroke="midnightblue" d="M311.912,-174.063C320.694,-160.303 336.462,-136.046 351,-116 357.95,-106.416 366.048,-96.0479 372.892,-87.494"/>
<polygon fill="midnightblue" stroke="midnightblue" points="375.673,-89.6212 379.23,-79.6414 370.226,-85.2247 375.673,-89.6212"/>
</g>
<!-- Node18&#45;&gt;Node21 -->
<g id="edge40" class="edge"><title>Node18&#45;&gt;Node21</title>
<path fill="none" stroke="midnightblue" d="M320.223,-174.362C332.625,-165.696 350.346,-153.313 364.557,-143.382"/>
<polygon fill="midnightblue" stroke="midnightblue" points="366.681,-146.168 372.873,-137.571 362.671,-140.43 366.681,-146.168"/>
</g>
<!-- Node20 -->
<g id="node39" class="node"><title>Node20</title>
<polygon fill="none" stroke="#bfbfbf" points="722.5,-0.5 722.5,-21.5 805.5,-21.5 805.5,-0.5 722.5,-0.5"/>
<text text-anchor="middle" x="764" y="-8.5" font-family="Helvetica,sans-Serif" font-size="10.00">QGraphicsItem</text>
</g>
<!-- Node19&#45;&gt;Node20 -->
<g id="edge38" class="edge"><title>Node19&#45;&gt;Node20</title>
<path fill="none" stroke="midnightblue" d="M434.105,-61.8881C504.62,-51.0108 638.808,-30.3115 712.45,-18.9519"/>
<polygon fill="midnightblue" stroke="midnightblue" points="713.077,-22.3966 722.426,-17.4129 712.01,-15.4785 713.077,-22.3966"/>
</g>
<!-- Node21&#45;&gt;Node19 -->
<g id="edge42" class="edge"><title>Node21&#45;&gt;Node19</title>
<path fill="none" stroke="midnightblue" d="M388,-116.362C388,-108.922 388,-98.7427 388,-89.7276"/>
<polygon fill="midnightblue" stroke="midnightblue" points="391.5,-89.5706 388,-79.5707 384.5,-89.5707 391.5,-89.5706"/>
</g>
<!-- Node23&#45;&gt;Node18 -->
<g id="edge52" class="edge"><title>Node23&#45;&gt;Node18</title>
<path fill="none" stroke="midnightblue" d="M306.842,-294.384C283.431,-288.196 255.499,-276.376 241,-254 227.881,-233.754 251.187,-213.908 273.264,-200.736"/>
<polygon fill="midnightblue" stroke="midnightblue" points="275.227,-203.647 282.22,-195.689 271.79,-197.549 275.227,-203.647"/>
</g>
<!-- Node23&#45;&gt;Node21 -->
<g id="edge54" class="edge"><title>Node23&#45;&gt;Node21</title>
<path fill="none" stroke="midnightblue" d="M352.481,-290.191C357.749,-280.911 364.95,-267.011 369,-254 380.314,-217.657 384.988,-173.301 386.846,-147.786"/>
<polygon fill="midnightblue" stroke="midnightblue" points="390.34,-147.99 387.499,-137.783 383.355,-147.534 390.34,-147.99"/>
</g>
<!-- Node24 -->
<g id="node49" class="node"><title>Node24</title>
<polygon fill="none" stroke="#bfbfbf" points="448.5,-174.5 448.5,-195.5 523.5,-195.5 523.5,-174.5 448.5,-174.5"/>
<text text-anchor="middle" x="486" y="-182.5" font-family="Helvetica,sans-Serif" font-size="10.00">QPainterPath</text>
</g>
<!-- Node23&#45;&gt;Node24 -->
<g id="edge50" class="edge"><title>Node23&#45;&gt;Node24</title>
<path fill="none" stroke="midnightblue" d="M385.323,-296.387C433.199,-289.868 509.818,-276.213 527,-254 539.705,-237.575 523.725,-216.891 508.151,-202.472"/>
<polygon fill="midnightblue" stroke="midnightblue" points="510.041,-199.478 500.197,-195.559 505.449,-204.761 510.041,-199.478"/>
</g>
<!-- Node25 -->
<g id="node53" class="node"><title>Node25</title>
<polygon fill="none" stroke="#bfbfbf" points="415.5,-232.5 415.5,-253.5 518.5,-253.5 518.5,-232.5 415.5,-232.5"/>
<text text-anchor="middle" x="467" y="-240.5" font-family="Helvetica,sans-Serif" font-size="10.00">QGraphicsPathItem</text>
</g>
<!-- Node23&#45;&gt;Node25 -->
<g id="edge56" class="edge"><title>Node23&#45;&gt;Node25</title>
<path fill="none" stroke="midnightblue" d="M367.912,-290.497C386.811,-281.438 414.331,-268.246 435.576,-258.063"/>
<polygon fill="midnightblue" stroke="midnightblue" points="437.337,-261.1 444.842,-253.621 434.311,-254.788 437.337,-261.1"/>
</g>
<!-- Node26 -->
<g id="node55" class="node"><title>Node26</title>
<a xlink:href="knot__curve__style_8hpp.html" target="_top" xlink:title="knot_curve_style.hpp">
<polygon fill="none" stroke="red" points="250,-232.5 250,-253.5 360,-253.5 360,-232.5 250,-232.5"/>
<text text-anchor="middle" x="305" y="-240.5" font-family="Helvetica,sans-Serif" font-size="10.00">knot_curve_style.hpp</text>
</a>
</g>
<!-- Node23&#45;&gt;Node26 -->
<g id="edge58" class="edge"><title>Node23&#45;&gt;Node26</title>
<path fill="none" stroke="midnightblue" d="M338.48,-290.362C332.874,-282.431 325.068,-271.389 318.403,-261.961"/>
<polygon fill="midnightblue" stroke="midnightblue" points="321.103,-259.716 312.472,-253.571 315.387,-263.757 321.103,-259.716"/>
</g>
<!-- Node26&#45;&gt;Node18 -->
<g id="edge60" class="edge"><title>Node26&#45;&gt;Node18</title>
<path fill="none" stroke="midnightblue" d="M305,-232.362C305,-224.922 305,-214.743 305,-205.728"/>
<polygon fill="midnightblue" stroke="midnightblue" points="308.5,-205.571 305,-195.571 301.5,-205.571 308.5,-205.571"/>
</g>
<!-- Node26&#45;&gt;Node24 -->
<g id="edge62" class="edge"><title>Node26&#45;&gt;Node24</title>
<path fill="none" stroke="midnightblue" d="M337.778,-232.497C367.413,-223 411.222,-208.962 443.531,-198.609"/>
<polygon fill="midnightblue" stroke="midnightblue" points="444.706,-201.908 453.161,-195.523 442.57,-195.242 444.706,-201.908"/>
</g>
<!-- Node27&#45;&gt;Node20 -->
<g id="edge66" class="edge"><title>Node27&#45;&gt;Node20</title>
<path fill="none" stroke="midnightblue" d="M1610.2,-291.558C1481.96,-266.071 1140,-196.981 1140,-185 1140,-185 1140,-185 1140,-127 1140,-59.9638 919.011,-27.5354 815.871,-16.051"/>
<polygon fill="midnightblue" stroke="midnightblue" points="815.995,-12.5439 805.675,-14.9413 815.238,-19.5028 815.995,-12.5439"/>
</g>
<!-- Node30 -->
<g id="node67" class="node"><title>Node30</title>
<a xlink:href="ui__style__dialog_8h.html" target="_top" xlink:title="ui_style_dialog.h">
<polygon fill="none" stroke="black" points="1484.5,-406.5 1484.5,-427.5 1573.5,-427.5 1573.5,-406.5 1484.5,-406.5"/>
<text text-anchor="middle" x="1529" y="-414.5" font-family="Helvetica,sans-Serif" font-size="10.00">ui_style_dialog.h</text>
</a>
</g>
<!-- Node29&#45;&gt;Node30 -->
<g id="edge74" class="edge"><title>Node29&#45;&gt;Node30</title>
<path fill="none" stroke="midnightblue" d="M1297.57,-465.81C1345.42,-455.718 1422.34,-439.495 1474.23,-428.551"/>
<polygon fill="midnightblue" stroke="midnightblue" points="1475.2,-431.924 1484.26,-426.436 1473.75,-425.075 1475.2,-431.924"/>
</g>
<!-- Node30&#45;&gt;Node4 -->
<g id="edge76" class="edge"><title>Node30&#45;&gt;Node4</title>
<path fill="none" stroke="midnightblue" d="M1570.83,-406.497C1609.39,-396.816 1666.74,-382.416 1708.18,-372.01"/>
<polygon fill="midnightblue" stroke="midnightblue" points="1709.24,-375.353 1718.09,-369.523 1707.54,-368.564 1709.24,-375.353"/>
</g>
<!-- Node30&#45;&gt;Node5 -->
<g id="edge78" class="edge"><title>Node30&#45;&gt;Node5</title>
<path fill="none" stroke="midnightblue" d="M1484.39,-415.259C1391.81,-411.203 1171.95,-399.272 978.113,-369.994"/>
<polygon fill="midnightblue" stroke="midnightblue" points="978.441,-366.503 968.027,-368.451 977.383,-373.423 978.441,-366.503"/>
</g>
<!-- Node30&#45;&gt;Node6 -->
<g id="edge80" class="edge"><title>Node30&#45;&gt;Node6</title>
<path fill="none" stroke="midnightblue" d="M1484.5,-413.312C1407.5,-406.685 1244.26,-391.553 1096.94,-370.209"/>
<polygon fill="midnightblue" stroke="midnightblue" points="1097.21,-366.711 1086.81,-368.728 1096.2,-373.638 1097.21,-366.711"/>
</g>
<!-- Node30&#45;&gt;Node7 -->
<g id="edge82" class="edge"><title>Node30&#45;&gt;Node7</title>
<path fill="none" stroke="midnightblue" d="M1484.28,-410.58C1425.92,-402.122 1320.35,-386.551 1220.69,-370.253"/>
<polygon fill="midnightblue" stroke="midnightblue" points="1221.19,-366.788 1210.75,-368.622 1220.06,-373.696 1221.19,-366.788"/>
</g>
<!-- Node30&#45;&gt;Node8 -->
<g id="edge92" class="edge"><title>Node30&#45;&gt;Node8</title>
<path fill="none" stroke="midnightblue" d="M1508.54,-406.497C1490.97,-397.479 1465.42,-384.365 1445.61,-374.201"/>
<polygon fill="midnightblue" stroke="midnightblue" points="1447.19,-371.074 1436.69,-369.621 1443.99,-377.301 1447.19,-371.074"/>
</g>
<!-- Node30&#45;&gt;Node9 -->
<g id="edge96" class="edge"><title>Node30&#45;&gt;Node9</title>
<path fill="none" stroke="midnightblue" d="M1550.01,-406.497C1568.04,-397.479 1594.27,-384.365 1614.6,-374.201"/>
<polygon fill="midnightblue" stroke="midnightblue" points="1616.38,-377.224 1623.76,-369.621 1613.25,-370.963 1616.38,-377.224"/>
</g>
<!-- Node30&#45;&gt;Node16 -->
<g id="edge112" class="edge"><title>Node30&#45;&gt;Node16</title>
<path fill="none" stroke="midnightblue" d="M1484.29,-416.572C1288.07,-414.514 501.293,-404.331 232.16,-369.866"/>
<polygon fill="midnightblue" stroke="midnightblue" points="232.411,-366.368 222.037,-368.524 231.491,-373.308 232.411,-366.368"/>
</g>
<!-- Node31 -->
<g id="node73" class="node"><title>Node31</title>
<polygon fill="none" stroke="#bfbfbf" points="2173.5,-348.5 2173.5,-369.5 2274.5,-369.5 2274.5,-348.5 2173.5,-348.5"/>
<text text-anchor="middle" x="2224" y="-356.5" font-family="Helvetica,sans-Serif" font-size="10.00">QtGui/QComboBox</text>
</g>
<!-- Node30&#45;&gt;Node31 -->
<g id="edge84" class="edge"><title>Node30&#45;&gt;Node31</title>
<path fill="none" stroke="midnightblue" d="M1573.51,-415.405C1675.91,-411.371 1936.26,-399.042 2163.11,-370.139"/>
<polygon fill="midnightblue" stroke="midnightblue" points="2163.74,-373.587 2173.21,-368.838 2162.84,-366.645 2163.74,-373.587"/>
</g>
<!-- Node32 -->
<g id="node75" class="node"><title>Node32</title>
<polygon fill="none" stroke="#bfbfbf" points="2292,-348.5 2292,-369.5 2372,-369.5 2372,-348.5 2292,-348.5"/>
<text text-anchor="middle" x="2332" y="-356.5" font-family="Helvetica,sans-Serif" font-size="10.00">QtGui/QDialog</text>
</g>
<!-- Node30&#45;&gt;Node32 -->
<g id="edge86" class="edge"><title>Node30&#45;&gt;Node32</title>
<path fill="none" stroke="midnightblue" d="M1573.97,-415.135C1711.41,-409.291 2125.54,-390.572 2281.64,-369.95"/>
<polygon fill="midnightblue" stroke="midnightblue" points="2282.56,-373.357 2291.98,-368.526 2281.6,-366.423 2282.56,-373.357"/>
</g>
<!-- Node33 -->
<g id="node77" class="node"><title>Node33</title>
<polygon fill="none" stroke="#bfbfbf" points="1822,-348.5 1822,-369.5 1948,-369.5 1948,-348.5 1822,-348.5"/>
<text text-anchor="middle" x="1885" y="-356.5" font-family="Helvetica,sans-Serif" font-size="10.00">QtGui/QDialogButtonBox</text>
</g>
<!-- Node30&#45;&gt;Node33 -->
<g id="edge88" class="edge"><title>Node30&#45;&gt;Node33</title>
<path fill="none" stroke="midnightblue" d="M1573.73,-409.713C1633.44,-399.984 1739.99,-382.626 1811.57,-370.963"/>
<polygon fill="midnightblue" stroke="midnightblue" points="1812.56,-374.348 1821.87,-369.286 1811.44,-367.439 1812.56,-374.348"/>
</g>
<!-- Node34 -->
<g id="node79" class="node"><title>Node34</title>
<polygon fill="none" stroke="#bfbfbf" points="1228,-348.5 1228,-369.5 1348,-369.5 1348,-348.5 1228,-348.5"/>
<text text-anchor="middle" x="1288" y="-356.5" font-family="Helvetica,sans-Serif" font-size="10.00">QtGui/QDoubleSpinBox</text>
</g>
<!-- Node30&#45;&gt;Node34 -->
<g id="edge90" class="edge"><title>Node30&#45;&gt;Node34</title>
<path fill="none" stroke="midnightblue" d="M1485.36,-406.497C1444.96,-396.775 1384.79,-382.294 1341.51,-371.879"/>
<polygon fill="midnightblue" stroke="midnightblue" points="1342.27,-368.46 1331.73,-369.523 1340.63,-375.266 1342.27,-368.46"/>
</g>
<!-- Node35 -->
<g id="node82" class="node"><title>Node35</title>
<polygon fill="none" stroke="#bfbfbf" points="1966,-348.5 1966,-369.5 2062,-369.5 2062,-348.5 1966,-348.5"/>
<text text-anchor="middle" x="2014" y="-356.5" font-family="Helvetica,sans-Serif" font-size="10.00">QtGui/QGroupBox</text>
</g>
<!-- Node30&#45;&gt;Node35 -->
<g id="edge94" class="edge"><title>Node30&#45;&gt;Node35</title>
<path fill="none" stroke="midnightblue" d="M1573.52,-413.312C1649.72,-406.738 1810.25,-391.751 1955.84,-370.082"/>
<polygon fill="midnightblue" stroke="midnightblue" points="1956.48,-373.525 1965.85,-368.578 1955.44,-366.603 1956.48,-373.525"/>
</g>
<!-- Node36 -->
<g id="node85" class="node"><title>Node36</title>
<polygon fill="none" stroke="#bfbfbf" points="2080,-348.5 2080,-369.5 2156,-369.5 2156,-348.5 2080,-348.5"/>
<text text-anchor="middle" x="2118" y="-356.5" font-family="Helvetica,sans-Serif" font-size="10.00">QtGui/QLabel</text>
</g>
<!-- Node30&#45;&gt;Node36 -->
<g id="edge98" class="edge"><title>Node30&#45;&gt;Node36</title>
<path fill="none" stroke="midnightblue" d="M1573.52,-415.302C1664.84,-411.354 1879.98,-399.66 2069.71,-370.015"/>
<polygon fill="midnightblue" stroke="midnightblue" points="2070.54,-373.427 2079.87,-368.406 2069.45,-366.513 2070.54,-373.427"/>
</g>
<!-- Node37 -->
<g id="node87" class="node"><title>Node37</title>
<a xlink:href="color__widget_8hpp.html" target="_top" xlink:title="color_widget.hpp">
<polygon fill="none" stroke="black" points="1484,-348.5 1484,-369.5 1574,-369.5 1574,-348.5 1484,-348.5"/>
<text text-anchor="middle" x="1529" y="-356.5" font-family="Helvetica,sans-Serif" font-size="10.00">color_widget.hpp</text>
</a>
</g>
<!-- Node30&#45;&gt;Node37 -->
<g id="edge100" class="edge"><title>Node30&#45;&gt;Node37</title>
<path fill="none" stroke="midnightblue" d="M1529,-406.362C1529,-398.922 1529,-388.743 1529,-379.728"/>
<polygon fill="midnightblue" stroke="midnightblue" points="1532.5,-379.571 1529,-369.571 1525.5,-379.571 1532.5,-379.571"/>
</g>
<!-- Node38 -->
<g id="node89" class="node"><title>Node38</title>
<polygon fill="none" stroke="#bfbfbf" points="1462.5,-290.5 1462.5,-311.5 1521.5,-311.5 1521.5,-290.5 1462.5,-290.5"/>
<text text-anchor="middle" x="1492" y="-298.5" font-family="Helvetica,sans-Serif" font-size="10.00">QLineEdit</text>
</g>
<!-- Node37&#45;&gt;Node38 -->
<g id="edge102" class="edge"><title>Node37&#45;&gt;Node38</title>
<path fill="none" stroke="midnightblue" d="M1522.21,-348.362C1517.21,-340.513 1510.25,-329.616 1504.28,-320.253"/>
<polygon fill="midnightblue" stroke="midnightblue" points="1507.07,-318.119 1498.74,-311.571 1501.17,-321.884 1507.07,-318.119"/>
</g>
<!-- Node39 -->
<g id="node91" class="node"><title>Node39</title>
<polygon fill="none" stroke="#bfbfbf" points="1280.5,-290.5 1280.5,-311.5 1355.5,-311.5 1355.5,-290.5 1280.5,-290.5"/>
<text text-anchor="middle" x="1318" y="-298.5" font-family="Helvetica,sans-Serif" font-size="10.00">QColorDialog</text>
</g>
<!-- Node37&#45;&gt;Node39 -->
<g id="edge104" class="edge"><title>Node37&#45;&gt;Node39</title>
<path fill="none" stroke="midnightblue" d="M1490.79,-348.497C1455.58,-338.817 1403.2,-324.42 1365.35,-314.015"/>
<polygon fill="midnightblue" stroke="midnightblue" points="1366.14,-310.603 1355.57,-311.328 1364.29,-317.353 1366.14,-310.603"/>
</g>
<!-- Node40 -->
<g id="node93" class="node"><title>Node40</title>
<polygon fill="none" stroke="#bfbfbf" points="1373,-290.5 1373,-311.5 1445,-311.5 1445,-290.5 1373,-290.5"/>
<text text-anchor="middle" x="1409" y="-298.5" font-family="Helvetica,sans-Serif" font-size="10.00">QPaintEvent</text>
</g>
<!-- Node37&#45;&gt;Node40 -->
<g id="edge106" class="edge"><title>Node37&#45;&gt;Node40</title>
<path fill="none" stroke="midnightblue" d="M1507.27,-348.497C1488.53,-339.438 1461.23,-326.246 1440.16,-316.063"/>
<polygon fill="midnightblue" stroke="midnightblue" points="1441.5,-312.822 1430.97,-311.621 1438.46,-319.124 1441.5,-312.822"/>
</g>
<!-- Node41 -->
<g id="node95" class="node"><title>Node41</title>
<polygon fill="none" stroke="#bfbfbf" points="1538.5,-290.5 1538.5,-311.5 1593.5,-311.5 1593.5,-290.5 1538.5,-290.5"/>
<text text-anchor="middle" x="1566" y="-298.5" font-family="Helvetica,sans-Serif" font-size="10.00">QPainter</text>
</g>
<!-- Node37&#45;&gt;Node41 -->
<g id="edge108" class="edge"><title>Node37&#45;&gt;Node41</title>
<path fill="none" stroke="midnightblue" d="M1535.79,-348.362C1540.79,-340.513 1547.75,-329.616 1553.72,-320.253"/>
<polygon fill="midnightblue" stroke="midnightblue" points="1556.83,-321.884 1559.26,-311.571 1550.93,-318.119 1556.83,-321.884"/>
</g>
<!-- Node42 -->
<g id="node97" class="node"><title>Node42</title>
<polygon fill="none" stroke="#bfbfbf" points="1722.5,-290.5 1722.5,-311.5 1837.5,-311.5 1837.5,-290.5 1722.5,-290.5"/>
<text text-anchor="middle" x="1780" y="-298.5" font-family="Helvetica,sans-Serif" font-size="10.00">QStyleOptionFrameV3</text>
</g>
<!-- Node37&#45;&gt;Node42 -->
<g id="edge110" class="edge"><title>Node37&#45;&gt;Node42</title>
<path fill="none" stroke="midnightblue" d="M1574.16,-348.564C1616.28,-338.831 1679.23,-324.285 1724.42,-313.843"/>
<polygon fill="midnightblue" stroke="midnightblue" points="1725.4,-317.21 1734.35,-311.548 1723.82,-310.39 1725.4,-317.21"/>
</g>
<!-- Node43&#45;&gt;Node16 -->
<g id="edge116" class="edge"><title>Node43&#45;&gt;Node16</title>
<path fill="none" stroke="midnightblue" d="M300.466,-406.497C278.047,-397.275 245.215,-383.769 220.287,-373.515"/>
<polygon fill="midnightblue" stroke="midnightblue" points="221.4,-370.189 210.821,-369.621 218.737,-376.662 221.4,-370.189"/>
</g>
<!-- Node44&#45;&gt;Node16 -->
<g id="edge120" class="edge"><title>Node44&#45;&gt;Node16</title>
<path fill="none" stroke="midnightblue" d="M185,-522.377C185,-494.293 185,-417.673 185,-380.203"/>
<polygon fill="midnightblue" stroke="midnightblue" points="188.5,-379.928 185,-369.928 181.5,-379.928 188.5,-379.928"/>
</g>
<!-- Node45 -->
<g id="node106" class="node"><title>Node45</title>
<polygon fill="none" stroke="#bfbfbf" points="0,-464.5 0,-485.5 92,-485.5 92,-464.5 0,-464.5"/>
<text text-anchor="middle" x="46" y="-472.5" font-family="Helvetica,sans-Serif" font-size="10.00">QUndoCommand</text>
</g>
<!-- Node44&#45;&gt;Node45 -->
<g id="edge122" class="edge"><title>Node44&#45;&gt;Node45</title>
<path fill="none" stroke="midnightblue" d="M159.828,-522.497C137.727,-513.275 105.361,-499.769 80.7866,-489.515"/>
<polygon fill="midnightblue" stroke="midnightblue" points="82.0309,-486.242 71.4543,-485.621 79.3353,-492.702 82.0309,-486.242"/>
</g>
<!-- Node48&#45;&gt;Node27 -->
<g id="edge156" class="edge"><title>Node48&#45;&gt;Node27</title>
<path fill="none" stroke="midnightblue" d="M1860.66,-473.805C2015.29,-468.367 2576.73,-442.004 2487,-348 2458.59,-318.238 1815.65,-317.193 1715.66,-311.623"/>
<polygon fill="midnightblue" stroke="midnightblue" points="1715.82,-308.125 1705.58,-310.842 1715.28,-315.104 1715.82,-308.125"/>
</g>
<!-- Node49 -->
<g id="node114" class="node"><title>Node49</title>
<a xlink:href="ui__gridconfig_8h.html" target="_top" xlink:title="ui_gridconfig.h">
<polygon fill="none" stroke="black" points="1782,-406.5 1782,-427.5 1862,-427.5 1862,-406.5 1782,-406.5"/>
<text text-anchor="middle" x="1822" y="-414.5" font-family="Helvetica,sans-Serif" font-size="10.00">ui_gridconfig.h</text>
</a>
</g>
<!-- Node48&#45;&gt;Node49 -->
<g id="edge130" class="edge"><title>Node48&#45;&gt;Node49</title>
<path fill="none" stroke="midnightblue" d="M1822,-464.362C1822,-456.922 1822,-446.743 1822,-437.728"/>
<polygon fill="midnightblue" stroke="midnightblue" points="1825.5,-437.571 1822,-427.571 1818.5,-437.571 1825.5,-437.571"/>
</g>
<!-- Node49&#45;&gt;Node4 -->
<g id="edge132" class="edge"><title>Node49&#45;&gt;Node4</title>
<path fill="none" stroke="midnightblue" d="M1810.63,-406.362C1801.71,-398.023 1789.12,-386.242 1778.72,-376.516"/>
<polygon fill="midnightblue" stroke="midnightblue" points="1780.99,-373.846 1771.3,-369.571 1776.21,-378.958 1780.99,-373.846"/>
</g>
<!-- Node49&#45;&gt;Node5 -->
<g id="edge134" class="edge"><title>Node49&#45;&gt;Node5</title>
<path fill="none" stroke="midnightblue" d="M1781.85,-415.158C1629.91,-408.136 1093.3,-382.849 978.09,-369.809"/>
<polygon fill="midnightblue" stroke="midnightblue" points="978.37,-366.317 968.013,-368.548 977.501,-373.263 978.37,-366.317"/>
</g>
<!-- Node49&#45;&gt;Node6 -->
<g id="edge136" class="edge"><title>Node49&#45;&gt;Node6</title>
<path fill="none" stroke="midnightblue" d="M1781.95,-415.045C1652.98,-408.653 1248.49,-387.821 1096.84,-370.086"/>
<polygon fill="midnightblue" stroke="midnightblue" points="1097.14,-366.597 1086.79,-368.868 1096.29,-373.546 1097.14,-366.597"/>
</g>
<!-- Node49&#45;&gt;Node7 -->
<g id="edge138" class="edge"><title>Node49&#45;&gt;Node7</title>
<path fill="none" stroke="midnightblue" d="M1782,-415.237C1686.56,-410.741 1437.87,-397.315 1220.71,-370.126"/>
<polygon fill="midnightblue" stroke="midnightblue" points="1221.08,-366.645 1210.72,-368.862 1220.2,-373.589 1221.08,-366.645"/>
</g>
<!-- Node49&#45;&gt;Node8 -->
<g id="edge146" class="edge"><title>Node49&#45;&gt;Node8</title>
<path fill="none" stroke="midnightblue" d="M1781.83,-412.217C1718.93,-404.584 1593.13,-388.742 1476.37,-370.163"/>
<polygon fill="midnightblue" stroke="midnightblue" points="1476.61,-366.657 1466.18,-368.532 1475.5,-373.569 1476.61,-366.657"/>
</g>
<!-- Node49&#45;&gt;Node9 -->
<g id="edge150" class="edge"><title>Node49&#45;&gt;Node9</title>
<path fill="none" stroke="midnightblue" d="M1789.95,-406.497C1761.09,-397.041 1718.49,-383.083 1686.94,-372.743"/>
<polygon fill="midnightblue" stroke="midnightblue" points="1687.71,-369.311 1677.11,-369.523 1685.53,-375.963 1687.71,-369.311"/>
</g>
<!-- Node49&#45;&gt;Node31 -->
<g id="edge140" class="edge"><title>Node49&#45;&gt;Node31</title>
<path fill="none" stroke="midnightblue" d="M1862.23,-412.126C1924.58,-404.431 2048.55,-388.578 2163.47,-370.195"/>
<polygon fill="midnightblue" stroke="midnightblue" points="2164.18,-373.626 2173.5,-368.581 2163.07,-366.715 2164.18,-373.626"/>
</g>
<!-- Node49&#45;&gt;Node32 -->
<g id="edge142" class="edge"><title>Node49&#45;&gt;Node32</title>
<path fill="none" stroke="midnightblue" d="M1862.29,-414.514C1941.04,-409.307 2120.98,-395.691 2281.88,-370.024"/>
<polygon fill="midnightblue" stroke="midnightblue" points="2282.65,-373.446 2291.96,-368.396 2281.53,-366.535 2282.65,-373.446"/>
</g>
<!-- Node49&#45;&gt;Node33 -->
<g id="edge144" class="edge"><title>Node49&#45;&gt;Node33</title>
<path fill="none" stroke="midnightblue" d="M1833.56,-406.362C1842.61,-398.023 1855.41,-386.242 1865.97,-376.516"/>
<polygon fill="midnightblue" stroke="midnightblue" points="1868.53,-378.919 1873.52,-369.571 1863.79,-373.769 1868.53,-378.919"/>
</g>
<!-- Node49&#45;&gt;Node35 -->
<g id="edge148" class="edge"><title>Node49&#45;&gt;Node35</title>
<path fill="none" stroke="midnightblue" d="M1856.77,-406.497C1888.34,-396.959 1935.08,-382.841 1969.39,-372.475"/>
<polygon fill="midnightblue" stroke="midnightblue" points="1970.6,-375.765 1979.17,-369.523 1968.58,-369.064 1970.6,-375.765"/>
</g>
<!-- Node49&#45;&gt;Node36 -->
<g id="edge152" class="edge"><title>Node49&#45;&gt;Node36</title>
<path fill="none" stroke="midnightblue" d="M1862.21,-409.963C1909.51,-401.565 1990.61,-386.782 2069.68,-370.218"/>
<polygon fill="midnightblue" stroke="midnightblue" points="2070.75,-373.57 2079.81,-368.084 2069.3,-366.721 2070.75,-373.57"/>
</g>
<!-- Node50 -->
<g id="node127" class="node"><title>Node50</title>
<polygon fill="none" stroke="#bfbfbf" points="2389.5,-348.5 2389.5,-369.5 2478.5,-369.5 2478.5,-348.5 2389.5,-348.5"/>
<text text-anchor="middle" x="2434" y="-356.5" font-family="Helvetica,sans-Serif" font-size="10.00">QtGui/QSpinBox</text>
</g>
<!-- Node49&#45;&gt;Node50 -->
<g id="edge154" class="edge"><title>Node49&#45;&gt;Node50</title>
<path fill="none" stroke="midnightblue" d="M1862.18,-415.289C1952.79,-411.073 2180.05,-398.499 2379.19,-370.134"/>
<polygon fill="midnightblue" stroke="midnightblue" points="2379.85,-373.575 2389.25,-368.684 2378.85,-366.647 2379.85,-373.575"/>
</g>
</g>
</svg>
