<?xml version="1.0" encoding="UTF-8" standalone="no"?>
<!-- Created with Inkscape (http://www.inkscape.org/) -->

<svg
   xmlns:dc="http://purl.org/dc/elements/1.1/"
   xmlns:cc="http://creativecommons.org/ns#"
   xmlns:rdf="http://www.w3.org/1999/02/22-rdf-syntax-ns#"
   xmlns:svg="http://www.w3.org/2000/svg"
   xmlns="http://www.w3.org/2000/svg"
   version="1.2"
   width="247.11"
   height="247.11"
   id="svg2">
  <title
     id="title4">Qt Svg Document</title>
  <desc
     id="desc6">Generated with Qt</desc>
  <metadata
     id="metadata18">
    <rdf:RDF>
      <cc:Work
         rdf:about="">
        <dc:format>image/svg+xml</dc:format>
        <dc:type
           rdf:resource="http://purl.org/dc/dcmitype/StillImage" />
        <dc:title>Qt Svg Document</dc:title>
      </cc:Work>
    </rdf:RDF>
  </metadata>
  <defs
     id="defs8" />
  <g
     transform="translate(0.50195031,30.38595)"
     id="g10"
     style="fill:none;stroke:#000000;stroke-width:1;stroke-linecap:square;stroke-linejoin:bevel">
    <g
       transform="translate(154.067,107.714)"
       id="g12"
       style="font-size:9px;font-style:normal;font-weight:400;fill:#000000;fill-opacity:1;stroke:#a0a0a4;stroke-width:1;stroke-linecap:square;stroke-linejoin:miter;stroke-miterlimit:2;stroke-opacity:1;font-family:Sans Serif">
      <path
         d="M -56.259,6.23104 -79.3429,11.2806 -79.5955,11.6563 -80.1445,12.4311 -80.7376,13.2728 -81.0361,13.6983 -57.7854,8.61224 -57.7466,8.53401 -57.5594,8.64535 -57.2338,8.93362 -56.78,9.38622 -56.208,9.99053 -55.5279,10.7339 -54.7499,11.6038 -53.884,12.5875 -52.9402,13.6725 -51.9288,14.846 -50.8597,16.0956 -49.7431,17.4085 -48.589,18.7722 -47.4076,20.1741 -46.2089,21.6015 -45.0031,23.0418 -43.8001,24.4824 -42.6102,25.9106 -41.4433,27.3139 -40.3096,28.6797 -39.2192,29.9953 -38.1821,31.2481 -37.2085,32.4254 -36.3084,33.5147 -35.4919,34.5034 -34.7692,35.3788 -34.1502,36.1284 -33.6452,36.7394 -33.2641,37.1993 -33.0171,37.4954 -32.9142,37.6152 -16.3511,54.1784 -15.4433,54.1998 -14.7175,54.2145 -13.9489,54.2287 -13.464,54.237 -30.0858,37.6152 -30.0081,37.5114 -29.7934,37.221 -29.4515,36.7577 -28.9923,36.1352 -28.4258,35.3674 -27.7617,34.4681 -27.0099,33.4509 -26.1804,32.3297 -25.283,31.1183 -24.3275,29.8303 -23.3239,28.4796 -22.2821,27.0799 -21.2118,25.6451 -20.123,24.1888 -19.0256,22.7249 -17.9295,21.267 -16.8444,19.8291 -15.7803,18.4248 -14.7471,17.0679 -13.7547,15.7722 -12.8128,14.5515 -11.9315,13.4195 -11.1205,12.39 -10.3898,11.4767 -9.74915,10.6935 -9.20855,10.0541 -8.77782,9.5722 -8.46685,9.26168 -8.28552,9.13626 -8.24369,9.20971 -4.14471,-14.0959 -4.46874,-14.6229 -4.93609,-15.3737 -5.44155,-16.1815 -5.72833,-16.6378 -9.86701,6.89351 -9.93126,6.89244 -10.1169,6.88987 -10.4186,6.88587 -10.8309,6.88049 -11.3483,6.87381 -11.9655,6.86588 -12.6771,6.85676 -13.4775,6.84652 -14.3614,6.83522 -15.3234,6.82292 -16.358,6.80968 -17.4598,6.79557 -18.6235,6.78064 -19.8435,6.76496 -21.1145,6.74859 -22.431,6.73159 -23.7877,6.71402 -25.179,6.69595 -26.5997,6.67744 -28.0442,6.65855 -29.5071,6.63934 -30.9831,6.61987 -32.4666,6.60021 -33.9524,6.58041 -35.4349,6.56055 -36.9087,6.54068 -38.3685,6.52086 -39.8087,6.50115 -41.2241,6.48162 -42.6091,6.46233 -43.9583,6.44335 -45.2663,6.42472 -46.5278,6.40652 -47.7372,6.38881 -48.8892,6.37165 -49.9783,6.35509 -50.9991,6.33921 -51.9462,6.32407 -52.8142,6.30972 -53.5976,6.29623 -54.2911,6.28366 -54.8892,6.27207 -55.3864,6.26153 -55.7775,6.25209 -56.0569,6.24383 -56.2192,6.23679 -56.259,6.23104 M -88.741,-11.231 -63.5397,-16.7438 -63.5355,-16.8993 -63.769,-18.741 -87.2146,-13.6122 -87.4142,-15.0972 -87.401,-16.5776 -87.224,-18.0103 -86.9319,-19.3524 -86.5735,-20.561 -86.1975,-21.5931 -85.8529,-22.4058 -85.5883,-22.956 -84.7325,-24.5708 -83.5824,-26.6673 -83.1474,-27.4485 -82.6771,-28.2886 -82.1716,-29.1873 -81.631,-30.1444 -81.0556,-31.1595 -80.4455,-32.2324 -79.8008,-33.3627 -79.1218,-34.5501 -78.4087,-35.7944 -77.6615,-37.0952 -76.8805,-38.4522 -76.0659,-39.8652 -75.6794,-40.5347 -75.2854,-41.2167 -74.8841,-41.911 -74.4753,-42.6177 -74.059,-43.3368 -73.6353,-44.0683 -73.2042,-44.8122 -72.7657,-45.5684 -72.3197,-46.3371 -71.8663,-47.1181 -71.4055,-47.9115 -70.9372,-48.7173 -70.4615,-49.5354 -69.9784,-50.3659 -69.4878,-51.2088 -68.9899,-52.064 -68.4845,-52.9316 -67.9717,-53.8116 -67.4514,-54.7039 -66.9238,-55.6086 -66.3887,-56.5257 -65.8462,-57.4551 -65.2963,-58.3969 -64.739,-59.351 -64.1742,-60.3174 -63.6021,-61.2962 -63.0225,-62.2874 -62.4356,-63.2909 -61.8412,-64.3068 -61.2394,-65.3349 -60.6302,-66.3755 -60.0136,-67.4283 -59.3896,-68.4935 -58.7582,-69.571 -58.1194,-70.6609 -57.4731,-71.7631 -56.8195,-72.8776 -56.1585,-74.0044 -55.4901,-75.1436 -54.8143,-76.2951 -54.1311,-77.4589 -53.4405,-78.635 -52.7425,-79.8235 -52.0371,-81.0242 -51.3243,-82.2373 -50.6041,-83.4627 -49.8765,-84.7004 -49.1416,-85.9504 -48.3992,-87.2126 -47.6495,-88.4872 -46.8924,-89.7741 -46.1279,-91.0733 -36.3348,-107.714 -25.7497,-91.5655 -24.8997,-90.2686 -24.0579,-88.9841 -23.2244,-87.7118 -22.399,-86.4517 -21.5818,-85.204 -20.7729,-83.9685 -19.9721,-82.7454 -19.1795,-81.5345 -18.3952,-80.3359 -17.6191,-79.1496 -16.8511,-77.9756 -16.0914,-76.8139 -15.3399,-75.6645 -14.5966,-74.5274 -13.8616,-73.4026 -13.1347,-72.2901 -12.4161,-71.1899 -11.7057,-70.102 -11.0035,-69.0264 -10.3095,-67.9632 -9.62375,-66.9122 -8.94622,-65.8736 -8.27691,-64.8473 -7.61583,-63.8333 -6.96298,-62.8316 -6.31836,-61.8422 -5.68196,-60.8652 -5.0538,-59.9004 -4.43386,-58.9481 -3.82216,-58.008 -3.2187,-57.0803 -2.62347,-56.1649 -2.03647,-55.2618 -1.45772,-54.3711 -0.887199,-53.4927 -0.324922,-52.6267 0.229115,-51.7729 0.774909,-50.9316 1.31246,-50.1026 1.84177,-49.2859 2.36283,-48.4816 2.87564,-47.6896 3.38021,-46.91 3.87652,-46.1427 4.36459,-45.3878 4.8444,-44.6452 5.31596,-43.915 5.77927,-43.1972 6.23432,-42.4917 6.68111,-41.7986 7.11965,-41.1179 7.54993,-40.4495 8.45681,-39.0392 9.32628,-37.6848 10.1581,-36.3867 10.9522,-35.145 11.7083,-33.9601 12.4263,-32.8323 13.1059,-31.7618 13.747,-30.749 14.3494,-29.7941 14.9129,-28.8974 15.4373,-28.0593 15.9225,-27.2799 17.2042,-25.1924 18.1587,-23.5873 18.4544,-23.043 18.8441,-22.2372 19.2759,-21.2111 19.6976,-20.0055 20.0572,-18.6615 20.3028,-17.2202 20.3823,-15.7226 20.2437,-14.2097 15.7665,11.2462 17.7097,11.7437 21.867,-11.8935 23.2255,-11.5311 24.5459,-10.9528 25.8201,-10.1966 27.04,-9.30048 28.1974,-8.30254 29.2842,-7.24074 30.2924,-6.1531 31.2137,-5.07764 32.0401,-4.05236 32.7635,-3.11527 33.3233,-2.37675 33.9243,-1.57995 34.5665,-0.725147 35.2495,0.187376 35.9732,1.15735 36.7374,2.18449 37.5418,3.26852 38.3863,4.40917 39.2707,5.60616 40.1947,6.85922 41.1581,8.16806 42.1608,9.53241 42.6453,10.1923 43.1387,10.8649 43.6412,11.5503 44.1527,12.2484 44.6733,12.9592 45.2028,13.6828 45.7414,14.4192 46.289,15.1682 46.8457,15.93 47.4113,16.7045 47.986,17.4918 48.5697,18.2918 49.1624,19.1045 49.7641,19.9299 50.3748,20.7681 50.9946,21.619 51.6233,22.4825 52.2611,23.3589 52.9078,24.2479 53.5636,25.1496 54.2284,26.0641 54.9022,26.9912 55.5849,27.9311 56.2767,28.8836 56.9775,29.8489 57.6873,30.8269 58.406,31.8176 59.1338,32.8209 59.8706,33.837 60.6163,34.8657 61.3711,35.9072 62.1348,36.9613 62.9075,38.0282 63.6892,39.1077 64.4799,40.1999 65.2796,41.3048 66.0883,42.4223 66.9059,43.5526 67.7325,44.6955 68.5681,45.8511 69.4127,47.0194 70.2662,48.2003 71.1288,49.3939 72.0003,50.6002 72.8808,51.8191 73.7702,53.0507 74.6686,54.295 75.576,55.5519 76.4923,56.8215 77.4177,58.1038 78.3519,59.3987 92.0391,78.3707 68.6453,78.4195 67.2292,78.4225 65.8243,78.4253 64.4306,78.4279 63.048,78.4305 61.6765,78.433 60.3162,78.4353 58.967,78.4376 57.629,78.4397 56.3022,78.4417 54.9864,78.4436 53.6819,78.4454 52.3884,78.4471 51.1062,78.4486 49.8351,78.4501 48.5751,78.4514 47.3263,78.4526 46.0887,78.4537 44.8622,78.4547 43.6469,78.4556 42.4427,78.4564 41.2498,78.4571 40.0679,78.4576 38.8973,78.458 37.7378,78.4584 36.5894,78.4586 35.4523,78.4587 34.3263,78.4586 33.2115,78.4585 32.1078,78.4583 31.0153,78.4579 29.934,78.4574 28.8639,78.4569 27.805,78.4562 26.7572,78.4554 25.7206,78.4544 24.6952,78.4534 23.6809,78.4523 22.6779,78.451 21.686,78.4496 20.7053,78.4481 19.7358,78.4466 18.7775,78.4448 17.8304,78.443 16.8945,78.4411 15.9697,78.439 15.0562,78.4369 14.1538,78.4346 13.2626,78.4322 12.3827,78.4297 11.5139,78.4271 10.6563,78.4244 9.80991,78.4215 8.97472,78.4186 8.15074,78.4155 7.33795,78.4123 6.53637,78.4091 5.74599,78.4057 4.96681,78.4021 4.19885,78.3985 3.44208,78.3948 2.69653,78.3909 1.96218,78.3869 1.23905,78.3829 -0.155474,78.3745 -1.50793,78.3656 -2.81819,78.3563 -4.0861,78.3466 -5.31155,78.3364 -6.49439,78.3257 -7.63449,78.3146 -8.73171,78.3031 -9.78593,78.2911 -10.797,78.2786 -11.7648,78.2657 -12.6892,78.2524 -13.57,78.2386 -14.4071,78.2243 -15.2004,78.2096 -15.9498,78.1945 -17.7965,78.1501 -19.3731,78.1007 -20.6404,78.0471 -21.2947,77.9967 -22.2347,77.8786 -23.3927,77.6685 -24.7012,77.342 -26.0924,76.8747 -27.4987,76.2423 -28.8524,75.4205 -30.0858,74.3848 -48.3359,56.1347 -48.3515,56.1439 -49.8848,57.4142 -32.9142,74.3848 -34.1436,75.4176 -35.493,76.238 -36.8949,76.8702 -38.2818,77.3381 -39.5865,77.6659 -40.7413,77.8776 -41.679,77.9972 -42.332,78.0489 -43.5979,78.1052 -45.1727,78.1581 -47.0175,78.2065 -47.766,78.2232 -48.5585,78.2397 -49.3947,78.2558 -50.2746,78.2715 -51.198,78.2869 -52.1647,78.3019 -53.1747,78.3166 -54.2278,78.331 -55.3238,78.345 -56.4627,78.3586 -57.6442,78.3719 -58.8683,78.3848 -60.1349,78.3974 -61.4437,78.4096 -62.7947,78.4214 -64.1877,78.4329 -64.91,78.4386 -65.6436,78.4442 -66.3883,78.4498 -67.1443,78.4552 -67.9114,78.4605 -68.6897,78.4658 -69.4793,78.4709 -70.28,78.476 -71.0919,78.481 -71.915,78.4859 -72.7492,78.4907 -73.5947,78.4955 -74.4513,78.5001 -75.3192,78.5047 -76.1982,78.5091 -77.0884,78.5135 -77.9898,78.5178 -78.9023,78.522 -79.8261,78.5261 -80.761,78.5301 -81.7071,78.5341 -82.6643,78.5379 -83.6328,78.5417 -84.6124,78.5454 -85.6032,78.549 -86.6051,78.5525 -87.6183,78.5559 -88.6426,78.5592 -89.678,78.5625 -90.7246,78.5656 -91.7824,78.5687 -92.8514,78.5717 -93.9315,78.5746 -95.0228,78.5774 -96.1252,78.5801 -97.2388,78.5827 -98.3636,78.5852 -99.4995,78.5877 -100.647,78.5901 -101.805,78.5923 -102.974,78.5945 -104.155,78.5966 -105.346,78.5987 -106.549,78.6006 -107.763,78.6024 -108.988,78.6042 -110.225,78.6058 -111.472,78.6074 -112.731,78.6089 -114,78.6103 -115.281,78.6116 -116.573,78.6129 -117.876,78.614 -119.191,78.6151 -120.516,78.616 -121.853,78.6169 -123.2,78.6177 -124.559,78.6184 -125.929,78.619 -127.31,78.6195 -128.702,78.62 -130.106,78.6203 -131.52,78.6206 -154.067,78.6241 -141.477,59.9198 -140.593,58.6072 -139.718,57.3076 -138.852,56.0211 -137.994,54.7477 -137.145,53.4874 -136.305,52.2402 -135.473,51.006 -134.65,49.785 -133.835,48.577 -133.029,47.3821 -132.232,46.2003 -131.443,45.0316 -130.664,43.876 -129.892,42.7335 -129.13,41.6041 -128.376,40.4878 -127.63,39.3846 -126.894,38.2945 -126.166,37.2175 -125.446,36.1536 -124.735,35.1029 -124.033,34.0652 -123.34,33.0407 -122.655,32.0293 -121.979,31.031 -121.312,30.0459 -120.653,29.0738 -120.003,28.1149 -119.362,27.1692 -118.729,26.2365 -118.105,25.317 -117.49,24.4106 -116.883,23.5174 -116.285,22.6373 -115.696,21.7703 -115.115,20.9165 -114.543,20.0759 -113.98,19.2484 -113.425,18.434 -112.879,17.6328 -112.342,16.8447 -111.813,16.0698 -111.294,15.3081 -110.782,14.5595 -110.28,13.8241 -109.786,13.1018 -109.301,12.3927 -108.825,11.6968 -108.357,11.014 -107.898,10.3445 -106.967,8.98721 -106.072,7.68499 -105.213,6.43811 -104.391,5.24684 -103.606,4.11147 -102.858,3.03231 -102.147,2.00962 -101.473,1.04371 -100.838,0.13486 -100.24,-0.716644 -99.6801,-1.51051 -99.1585,-2.24646 -98.4006,-3.29363 -97.5208,-4.44847 -96.5284,-5.6596 -95.4329,-6.87564 -94.2439,-8.0452 -92.9707,-9.1169 -91.6228,-10.0394 -90.2098,-10.7612 -88.741,-11.231 M -50.1703,54.2659 -50.2454,54.1796 -50.5646,53.8048 -50.9699,53.3233 -51.4562,52.7409 -52.0186,52.0634 -52.6523,51.2967 -53.3521,50.4465 -54.1132,49.5188 -54.9307,48.5193 -55.7996,47.4539 -56.7149,46.3284 -57.6717,45.1486 -58.6651,43.9204 -59.6901,42.6496 -60.7418,41.342 -61.8151,40.0034 -62.9053,38.6397 -64.0072,37.2566 -65.1161,35.8601 -66.2269,34.456 -67.3346,33.05 -68.4344,31.648 -69.5213,30.2559 -70.5903,28.8794 -71.6366,27.5244 -72.6551,26.1967 -73.6409,24.9022 -74.5891,23.6466 -75.4947,22.4359 -76.3527,21.2757 -77.1583,20.1721 -77.9065,19.1307 -78.5923,18.1574 -79.2107,17.258 -79.757,16.4384 -80.226,15.7045 -80.6128,15.0619 -80.9126,14.5166 -81.1203,14.0743 -81.178,13.9007 -81.3751,14.1816 -82.0573,15.1581 -82.7843,16.2025 -83.5566,17.3152 -84.3743,18.4967 -85.2377,19.7472 -86.1471,21.0673 -87.1027,22.4571 -88.1047,23.9172 -88.5613,24.5833 -89.0266,25.2626 -89.5005,25.9549 -89.9831,26.6604 -90.4744,27.379 -90.9743,28.1107 -91.4829,28.8555 -92.0001,29.6134 -92.526,30.3845 -93.0606,31.1687 -93.6038,31.966 -94.1558,32.7764 -94.7163,33.6 -95.2856,34.4367 -95.8635,35.2865 -96.4502,36.1495 -97.0454,37.0256 -97.6494,37.9148 -98.2621,38.8172 -98.8834,39.7328 -99.5134,40.6615 -100.152,41.6033 -100.8,42.5583 -101.456,43.5264 -102.12,44.5077 -102.794,45.5022 -103.476,46.5098 -104.167,47.5305 -104.866,48.5645 -105.575,49.6116 -106.291,50.6718 -107.017,51.7453 -107.751,52.8319 -108.494,53.9316 -108.949,54.6041 -107.807,54.6025 -106.596,54.6007 -105.396,54.5987 -104.207,54.5967 -103.03,54.5946 -101.864,54.5925 -100.708,54.5902 -99.5645,54.5878 -98.4318,54.5854 -97.3102,54.5829 -96.1999,54.5802 -95.1007,54.5775 -94.0128,54.5747 -92.936,54.5719 -91.8704,54.5689 -90.816,54.5658 -89.7727,54.5627 -88.7407,54.5595 -87.7198,54.5562 -86.7102,54.5528 -85.7117,54.5493 -84.7244,54.5457 -83.7482,54.542 -82.7833,54.5383 -81.8295,54.5344 -80.8869,54.5305 -79.9554,54.5265 -79.0352,54.5224 -78.1261,54.5182 -77.2282,54.5139 -76.3414,54.5096 -75.4658,54.5051 -74.6014,54.5006 -73.7482,54.496 -72.9061,54.4913 -72.0752,54.4865 -71.2554,54.4816 -70.4468,54.4766 -69.6494,54.4716 -68.8631,54.4664 -68.088,54.4612 -67.324,54.4559 -66.5712,54.4505 -65.8296,54.445 -65.0991,54.4394 -64.3797,54.4337 -62.9997,54.4223 -61.6643,54.4106 -60.3734,54.3986 -59.1268,54.3863 -57.9244,54.3736 -56.7661,54.3607 -55.6517,54.3474 -54.5811,54.3337 -53.5542,54.3198 -52.5708,54.3055 -51.6309,54.2909 -50.7341,54.276 -50.1703,54.2659 M -61.3684,-17.2175 -61.221,-17.2402 -60.9667,-17.2638 -60.6282,-17.2853 -60.2085,-17.3049 -59.711,-17.3225 -59.1387,-17.3383 -58.495,-17.3523 -57.7829,-17.3644 -57.0057,-17.3749 -56.1666,-17.3836 -55.2687,-17.3907 -54.3153,-17.3962 -53.3095,-17.4001 -52.2546,-17.4025 -51.1537,-17.4035 -50.0101,-17.4031 -48.8268,-17.4012 -47.6072,-17.3981 -46.3544,-17.3937 -45.0716,-17.3881 -43.762,-17.3813 -42.4288,-17.3734 -41.0752,-17.3643 -39.7044,-17.3543 -38.3195,-17.3432 -36.9238,-17.3312 -35.5205,-17.3183 -34.1127,-17.3045 -32.7037,-17.29 -31.2966,-17.2747 -29.8947,-17.2586 -28.5011,-17.2419 -27.119,-17.2246 -25.7516,-17.2067 -24.4021,-17.1883 -23.0738,-17.1693 -21.7697,-17.15 -20.4932,-17.1303 -19.2473,-17.1102 -18.0353,-17.0898 -16.8604,-17.0692 -15.7257,-17.0484 -14.6345,-17.0274 -13.59,-17.0064 -12.5953,-16.9852 -11.6536,-16.9641 -10.7682,-16.9429 -9.94225,-16.9219 -9.17889,-16.901 -8.48135,-16.8802 -7.85282,-16.8597 -7.29649,-16.8394 -6.81557,-16.8195 -6.41323,-16.7999 -6.09268,-16.7807 -5.85711,-16.7619 -5.80203,-16.7551 -5.98528,-17.0467 -6.56749,-17.9696 -7.18834,-18.9503 -7.84803,-19.9893 -8.54674,-21.0867 -9.28465,-22.243 -10.062,-23.4583 -10.8788,-24.733 -11.7354,-26.0673 -12.632,-27.4615 -13.0602,-28.1266 -13.4966,-28.804 -13.9412,-29.4937 -14.394,-30.1957 -14.8551,-30.9101 -15.3244,-31.6367 -15.8019,-32.3757 -16.2876,-33.127 -16.7816,-33.8906 -17.2837,-34.6666 -17.7942,-35.4549 -18.3128,-36.2555 -18.8397,-37.0684 -19.3748,-37.8937 -19.9182,-38.7313 -20.4698,-39.5812 -21.0296,-40.4435 -21.5976,-41.3181 -22.1739,-42.205 -22.7585,-43.1043 -23.3513,-44.0159 -23.9523,-44.9399 -24.5616,-45.8762 -25.1791,-46.8249 -25.8049,-47.7859 -26.4389,-48.7593 -27.0811,-49.745 -27.7316,-50.7431 -28.3904,-51.7536 -29.0574,-52.7764 -29.7327,-53.8115 -30.4162,-54.8591 -31.108,-55.919 -31.808,-56.9912 -32.5163,-58.0759 -33.2329,-59.1729 -33.9577,-60.2822 -34.6908,-61.404 -35.2361,-62.2382 -35.4539,-61.8671 -36.113,-60.7434 -36.7647,-59.6322 -37.4089,-58.5334 -38.0458,-57.4469 -38.6751,-56.3729 -39.2971,-55.3113 -39.9116,-54.262 -40.5186,-53.2251 -41.1183,-52.2006 -41.7105,-51.1885 -42.2952,-50.1888 -42.8726,-49.2015 -43.4425,-48.2265 -44.0049,-47.2639 -44.56,-46.3137 -45.1076,-45.3759 -45.6478,-44.4504 -46.1805,-43.5373 -46.7059,-42.6366 -47.2238,-41.7483 -47.7343,-40.8723 -48.2374,-40.0086 -48.7331,-39.1574 -49.2213,-38.3184 -49.7021,-37.4919 -50.1755,-36.6777 -50.6415,-35.8758 -51.1001,-35.0863 -51.5513,-34.3092 -51.995,-33.5444 -52.4314,-32.7919 -52.8603,-32.0518 -53.2818,-31.324 -53.696,-30.6086 -54.1027,-29.9055 -54.502,-29.2147 -54.8939,-28.5363 -55.2784,-27.8702 -56.0833,-26.4741 -56.8522,-25.1381 -57.5853,-23.862 -58.2827,-22.6454 -58.9445,-21.488 -59.5711,-20.3896 -60.1625,-19.3498 -60.7189,-18.3684 -61.2405,-17.4449 -61.3684,-17.2175 M 15.3232,13.6173 15.3032,13.6886 15.1292,14.1149 14.8755,14.6405 14.5463,15.2598 14.1458,15.9675 13.6781,16.7582 13.1472,17.6263 12.5573,18.5665 11.9126,19.5733 11.2172,20.6413 10.4752,21.7651 9.69072,22.9391 8.86789,24.1581 8.01085,25.4164 7.12373,26.7088 6.21066,28.0297 5.27575,29.3737 4.32316,30.7354 3.35699,32.1094 2.38138,33.4902 1.40045,34.8723 0.418343,36.2504 -0.560823,37.619 -1.53292,38.9727 -2.49381,40.3059 -3.43938,41.6134 -4.36549,42.8896 -5.26802,44.1292 -6.14283,45.3266 -6.9858,46.4764 -7.79281,47.5733 -8.55971,48.6117 -9.2824,49.5862 -9.95672,50.4915 -10.5786,51.322 -11.1438,52.0723 -11.6483,52.7369 -12.0879,53.3106 -12.4586,53.7877 -12.7561,54.1629 -12.8256,54.2474 -12.283,54.2559 -11.3853,54.2688 -10.4443,54.2813 -9.45983,54.2934 -8.43181,54.3051 -7.36008,54.3164 -6.24449,54.3272 -5.08493,54.3376 -3.88124,54.3475 -2.6333,54.3571 -1.34097,54.3662 -0.00411656,54.375 1.37739,54.3833 2.09752,54.3873 2.82881,54.3913 3.57127,54.3951 4.3249,54.3988 5.08969,54.4025 5.86565,54.406 6.65278,54.4093 7.45109,54.4126 8.26057,54.4158 9.08122,54.4188 9.91304,54.4218 10.756,54.4246 11.6102,54.4273 12.4756,54.4299 13.3521,54.4324 14.2398,54.4348 15.1387,54.437 16.0488,54.4392 16.9701,54.4412 17.9025,54.4432 18.8462,54.445 19.801,54.4467 20.767,54.4483 21.7442,54.4497 22.7326,54.4511 23.7322,54.4524 24.743,54.4535 25.7649,54.4545 26.7981,54.4554 27.8425,54.4562 28.898,54.4569 29.9648,54.4575 31.0428,54.458 32.1319,54.4583 33.2323,54.4586 34.3439,54.4587 35.4666,54.4587 36.6006,54.4586 37.7458,54.4584 38.9022,54.4581 40.0698,54.4576 41.2486,54.4571 42.4386,54.4564 43.6398,54.4557 44.8523,54.4548 45.1705,54.4545 45.045,54.2812 44.2566,53.1922 43.4773,52.1159 42.707,51.0524 41.9457,50.0016 41.1934,48.9636 40.4502,47.9383 39.716,46.9257 38.9908,45.9259 38.2746,44.9388 37.5675,43.9645 36.8694,43.0029 36.1803,42.054 35.5002,41.1178 34.8291,40.1944 34.167,39.2836 33.514,38.3857 32.87,37.5004 32.2349,36.6278 31.6089,35.768 30.9919,34.9208 30.3839,34.0864 29.7849,33.2647 29.1949,32.4557 28.6139,31.6594 28.0419,30.8758 27.4789,30.1049 26.9249,29.3467 26.3799,28.6012 25.8439,27.8685 25.3169,27.1484 24.7989,26.441 24.2899,25.7462 23.7898,25.0642 23.2988,24.3949 22.8167,23.7382 21.7374,22.2697 20.7082,20.8718 19.7288,19.5441 18.799,18.2862 17.9185,17.0979 17.087,15.9787 16.3043,14.9282 15.5701,13.9462 15.3232,13.6173"
         id="path14"
         style="fill-rule:evenodd" />
    </g>
  </g>
</svg>
