<?xml version="1.0" encoding="UTF-8" standalone="no"?>
<!DOCTYPE svg PUBLIC "-//W3C//DTD SVG 1.1//EN"
 "http://www.w3.org/Graphics/SVG/1.1/DTD/svg11.dtd">
<!-- Generated by graphviz version 2.26.3 (20100126.1600)
 -->
<!-- Title: G Pages: 1 -->
<svg width="2410pt" height="610pt"
 viewBox="0.00 0.00 2409.78 610.00" xmlns="http://www.w3.org/2000/svg" xmlns:xlink="http://www.w3.org/1999/xlink">
<g id="graph1" class="graph" transform="scale(1 1) rotate(0) translate(4 606)">
<title>G</title>
<!-- Node1 -->
<g id="node1" class="node"><title>Node1</title>
<polygon fill="#bfbfbf" stroke="black" points="2043,-580.5 2043,-601.5 2099,-601.5 2099,-580.5 2043,-580.5"/>
<text text-anchor="middle" x="2071" y="-588.5" font-family="Helvetica,sans-Serif" font-size="10.00">main.cpp</text>
</g>
<!-- Node2 -->
<g id="node3" class="node"><title>Node2</title>
<polygon fill="none" stroke="#bfbfbf" points="2177.5,-348.5 2177.5,-369.5 2278.5,-369.5 2278.5,-348.5 2177.5,-348.5"/>
<text text-anchor="middle" x="2228" y="-356.5" font-family="Helvetica,sans-Serif" font-size="10.00">QtGui/QApplication</text>
</g>
<!-- Node1&#45;&gt;Node2 -->
<g id="edge2" class="edge"><title>Node1&#45;&gt;Node2</title>
<path fill="none" stroke="midnightblue" d="M2078.15,-580.429C2102.67,-544.195 2183.55,-424.688 2215.17,-377.962"/>
<polygon fill="midnightblue" stroke="midnightblue" points="2218.1,-379.877 2220.8,-369.634 2212.3,-375.954 2218.1,-379.877"/>
</g>
<!-- Node3 -->
<g id="node5" class="node"><title>Node3</title>
<a xlink:href="knot__window_8hpp.html" target="_top" xlink:title="knot_window.hpp">
<polygon fill="none" stroke="black" points="1623,-522.5 1623,-543.5 1715,-543.5 1715,-522.5 1623,-522.5"/>
<text text-anchor="middle" x="1669" y="-530.5" font-family="Helvetica,sans-Serif" font-size="10.00">knot_window.hpp</text>
</a>
</g>
<!-- Node1&#45;&gt;Node3 -->
<g id="edge4" class="edge"><title>Node1&#45;&gt;Node3</title>
<path fill="none" stroke="midnightblue" d="M2042.73,-586.922C1976.89,-577.422 1812.3,-553.675 1725.16,-541.103"/>
<polygon fill="midnightblue" stroke="midnightblue" points="1725.58,-537.627 1715.18,-539.663 1724.58,-544.555 1725.58,-537.627"/>
</g>
<!-- Node4 -->
<g id="node7" class="node"><title>Node4</title>
<a xlink:href="ui__knot__window_8h.html" target="_top" xlink:title="ui_knot_window.h">
<polygon fill="none" stroke="black" points="1640.5,-406.5 1640.5,-427.5 1735.5,-427.5 1735.5,-406.5 1640.5,-406.5"/>
<text text-anchor="middle" x="1688" y="-414.5" font-family="Helvetica,sans-Serif" font-size="10.00">ui_knot_window.h</text>
</a>
</g>
<!-- Node3&#45;&gt;Node4 -->
<g id="edge6" class="edge"><title>Node3&#45;&gt;Node4</title>
<path fill="none" stroke="midnightblue" d="M1670.75,-522.295C1673.89,-503.131 1680.52,-462.654 1684.59,-437.843"/>
<polygon fill="midnightblue" stroke="midnightblue" points="1688.09,-438.113 1686.25,-427.679 1681.18,-436.982 1688.09,-438.113"/>
</g>
<!-- Node22 -->
<g id="node46" class="node"><title>Node22</title>
<polygon fill="none" stroke="#bfbfbf" points="1947.5,-290.5 1947.5,-311.5 2020.5,-311.5 2020.5,-290.5 1947.5,-290.5"/>
<text text-anchor="middle" x="1984" y="-298.5" font-family="Helvetica,sans-Serif" font-size="10.00">QUndoStack</text>
</g>
<!-- Node3&#45;&gt;Node22 -->
<g id="edge68" class="edge"><title>Node3&#45;&gt;Node22</title>
<path fill="none" stroke="midnightblue" d="M1715.13,-529.956C1861.43,-519.252 2310.52,-477.981 2397,-370 2403.11,-362.368 2403.51,-355.294 2397,-348 2372.93,-321.033 2133.53,-307.487 2030.62,-302.873"/>
<polygon fill="midnightblue" stroke="midnightblue" points="2030.66,-299.372 2020.52,-302.429 2030.35,-306.365 2030.66,-299.372"/>
</g>
<!-- Node28 -->
<g id="node63" class="node"><title>Node28</title>
<polygon fill="none" stroke="#bfbfbf" points="1553.5,-464.5 1553.5,-485.5 1622.5,-485.5 1622.5,-464.5 1553.5,-464.5"/>
<text text-anchor="middle" x="1588" y="-472.5" font-family="Helvetica,sans-Serif" font-size="10.00">QUndoView</text>
</g>
<!-- Node3&#45;&gt;Node28 -->
<g id="edge70" class="edge"><title>Node3&#45;&gt;Node28</title>
<path fill="none" stroke="midnightblue" d="M1654.14,-522.362C1642.15,-513.777 1625.07,-501.546 1611.27,-491.664"/>
<polygon fill="midnightblue" stroke="midnightblue" points="1612.93,-488.547 1602.76,-485.571 1608.86,-494.238 1612.93,-488.547"/>
</g>
<!-- Node29 -->
<g id="node65" class="node"><title>Node29</title>
<a xlink:href="style__dialog_8hpp.html" target="_top" xlink:title="style_dialog.hpp">
<polygon fill="none" stroke="black" points="1218.5,-464.5 1218.5,-485.5 1305.5,-485.5 1305.5,-464.5 1218.5,-464.5"/>
<text text-anchor="middle" x="1262" y="-472.5" font-family="Helvetica,sans-Serif" font-size="10.00">style_dialog.hpp</text>
</a>
</g>
<!-- Node3&#45;&gt;Node29 -->
<g id="edge72" class="edge"><title>Node3&#45;&gt;Node29</title>
<path fill="none" stroke="midnightblue" d="M1622.71,-526.403C1546.78,-515.583 1396.21,-494.126 1315.71,-482.654"/>
<polygon fill="midnightblue" stroke="midnightblue" points="1316.17,-479.184 1305.78,-481.238 1315.18,-486.114 1316.17,-479.184"/>
</g>
<!-- Node43 -->
<g id="node100" class="node"><title>Node43</title>
<a xlink:href="clipboard_8hpp.html" target="_top" xlink:title="clipboard.hpp">
<polygon fill="none" stroke="black" points="1446,-406.5 1446,-427.5 1520,-427.5 1520,-406.5 1446,-406.5"/>
<text text-anchor="middle" x="1483" y="-414.5" font-family="Helvetica,sans-Serif" font-size="10.00">clipboard.hpp</text>
</a>
</g>
<!-- Node3&#45;&gt;Node43 -->
<g id="edge114" class="edge"><title>Node3&#45;&gt;Node43</title>
<path fill="none" stroke="midnightblue" d="M1665.97,-522.497C1661.08,-507.387 1650.03,-479.621 1631,-464 1602.23,-440.382 1561.45,-428.569 1529.98,-422.697"/>
<polygon fill="midnightblue" stroke="midnightblue" points="1530.56,-419.246 1520.11,-420.992 1529.37,-426.144 1530.56,-419.246"/>
</g>
<!-- Node4&#45;&gt;Node2 -->
<g id="edge12" class="edge"><title>Node4&#45;&gt;Node2</title>
<path fill="none" stroke="midnightblue" d="M1735.61,-413.727C1820.39,-407.598 2003.25,-393.026 2166.94,-370.206"/>
<polygon fill="midnightblue" stroke="midnightblue" points="2167.78,-373.622 2177.2,-368.762 2166.81,-366.69 2167.78,-373.622"/>
</g>
<!-- Node5 -->
<g id="node9" class="node"><title>Node5</title>
<polygon fill="none" stroke="#bfbfbf" points="1435.5,-348.5 1435.5,-369.5 1524.5,-369.5 1524.5,-348.5 1435.5,-348.5"/>
<text text-anchor="middle" x="1480" y="-356.5" font-family="Helvetica,sans-Serif" font-size="10.00">QtCore/QVariant</text>
</g>
<!-- Node4&#45;&gt;Node5 -->
<g id="edge8" class="edge"><title>Node4&#45;&gt;Node5</title>
<path fill="none" stroke="midnightblue" d="M1650.33,-406.497C1615.98,-396.918 1565.06,-382.72 1527.85,-372.342"/>
<polygon fill="midnightblue" stroke="midnightblue" points="1528.31,-368.838 1517.74,-369.523 1526.43,-375.581 1528.31,-368.838"/>
</g>
<!-- Node6 -->
<g id="node11" class="node"><title>Node6</title>
<polygon fill="none" stroke="#bfbfbf" points="1542,-348.5 1542,-369.5 1622,-369.5 1622,-348.5 1542,-348.5"/>
<text text-anchor="middle" x="1582" y="-356.5" font-family="Helvetica,sans-Serif" font-size="10.00">QtGui/QAction</text>
</g>
<!-- Node4&#45;&gt;Node6 -->
<g id="edge10" class="edge"><title>Node4&#45;&gt;Node6</title>
<path fill="none" stroke="midnightblue" d="M1668.56,-406.362C1652.2,-397.409 1628.59,-384.491 1610.16,-374.406"/>
<polygon fill="midnightblue" stroke="midnightblue" points="1611.77,-371.3 1601.32,-369.571 1608.41,-377.441 1611.77,-371.3"/>
</g>
<!-- Node7 -->
<g id="node14" class="node"><title>Node7</title>
<polygon fill="none" stroke="#bfbfbf" points="977.5,-348.5 977.5,-369.5 1084.5,-369.5 1084.5,-348.5 977.5,-348.5"/>
<text text-anchor="middle" x="1031" y="-356.5" font-family="Helvetica,sans-Serif" font-size="10.00">QtGui/QButtonGroup</text>
</g>
<!-- Node4&#45;&gt;Node7 -->
<g id="edge14" class="edge"><title>Node4&#45;&gt;Node7</title>
<path fill="none" stroke="midnightblue" d="M1640.16,-413.489C1514.35,-404.22 1178.68,-379.245 1094.83,-370.048"/>
<polygon fill="midnightblue" stroke="midnightblue" points="1095.06,-366.551 1084.72,-368.859 1094.24,-373.503 1095.06,-366.551"/>
</g>
<!-- Node8 -->
<g id="node16" class="node"><title>Node8</title>
<polygon fill="none" stroke="#bfbfbf" points="1102,-348.5 1102,-369.5 1202,-369.5 1202,-348.5 1102,-348.5"/>
<text text-anchor="middle" x="1152" y="-356.5" font-family="Helvetica,sans-Serif" font-size="10.00">QtGui/QGridLayout</text>
</g>
<!-- Node4&#45;&gt;Node8 -->
<g id="edge16" class="edge"><title>Node4&#45;&gt;Node8</title>
<path fill="none" stroke="midnightblue" d="M1640.45,-413.678C1556.23,-407.498 1375.16,-392.877 1212.36,-370.098"/>
<polygon fill="midnightblue" stroke="midnightblue" points="1212.55,-366.59 1202.16,-368.656 1211.58,-373.521 1212.55,-366.59"/>
</g>
<!-- Node9 -->
<g id="node18" class="node"><title>Node9</title>
<polygon fill="none" stroke="#bfbfbf" points="1220,-348.5 1220,-369.5 1326,-369.5 1326,-348.5 1220,-348.5"/>
<text text-anchor="middle" x="1273" y="-356.5" font-family="Helvetica,sans-Serif" font-size="10.00">QtGui/QHeaderView</text>
</g>
<!-- Node4&#45;&gt;Node9 -->
<g id="edge18" class="edge"><title>Node4&#45;&gt;Node9</title>
<path fill="none" stroke="midnightblue" d="M1640.23,-411.305C1574.21,-403.287 1451.12,-387.811 1336.11,-370.124"/>
<polygon fill="midnightblue" stroke="midnightblue" points="1336.49,-366.642 1326.07,-368.572 1335.42,-373.559 1336.49,-366.642"/>
</g>
<!-- Node10 -->
<g id="node20" class="node"><title>Node10</title>
<polygon fill="none" stroke="#bfbfbf" points="1957.5,-348.5 1957.5,-369.5 2066.5,-369.5 2066.5,-348.5 1957.5,-348.5"/>
<text text-anchor="middle" x="2012" y="-356.5" font-family="Helvetica,sans-Serif" font-size="10.00">QtGui/QMainWindow</text>
</g>
<!-- Node4&#45;&gt;Node10 -->
<g id="edge20" class="edge"><title>Node4&#45;&gt;Node10</title>
<path fill="none" stroke="midnightblue" d="M1735.81,-408.442C1791.83,-398.413 1884.94,-381.746 1947.37,-370.57"/>
<polygon fill="midnightblue" stroke="midnightblue" points="1948.27,-373.964 1957.5,-368.757 1947.04,-367.074 1948.27,-373.964"/>
</g>
<!-- Node11 -->
<g id="node22" class="node"><title>Node11</title>
<polygon fill="none" stroke="#bfbfbf" points="2083.5,-348.5 2083.5,-369.5 2160.5,-369.5 2160.5,-348.5 2083.5,-348.5"/>
<text text-anchor="middle" x="2122" y="-356.5" font-family="Helvetica,sans-Serif" font-size="10.00">QtGui/QMenu</text>
</g>
<!-- Node4&#45;&gt;Node11 -->
<g id="edge22" class="edge"><title>Node4&#45;&gt;Node11</title>
<path fill="none" stroke="midnightblue" d="M1735.61,-412.904C1807.02,-406.391 1946.24,-392.263 2073.43,-370.145"/>
<polygon fill="midnightblue" stroke="midnightblue" points="2074.1,-373.581 2083.34,-368.4 2072.89,-366.687 2074.1,-373.581"/>
</g>
<!-- Node12 -->
<g id="node24" class="node"><title>Node12</title>
<polygon fill="none" stroke="#bfbfbf" points="2296,-348.5 2296,-369.5 2388,-369.5 2388,-348.5 2296,-348.5"/>
<text text-anchor="middle" x="2342" y="-356.5" font-family="Helvetica,sans-Serif" font-size="10.00">QtGui/QMenuBar</text>
</g>
<!-- Node4&#45;&gt;Node12 -->
<g id="edge24" class="edge"><title>Node4&#45;&gt;Node12</title>
<path fill="none" stroke="midnightblue" d="M1735.57,-415.194C1835.63,-410.979 2075.29,-398.701 2285.85,-370.022"/>
<polygon fill="midnightblue" stroke="midnightblue" points="2286.43,-373.476 2295.85,-368.644 2285.47,-366.541 2286.43,-373.476"/>
</g>
<!-- Node13 -->
<g id="node26" class="node"><title>Node13</title>
<polygon fill="none" stroke="#bfbfbf" points="1640,-348.5 1640,-369.5 1736,-369.5 1736,-348.5 1640,-348.5"/>
<text text-anchor="middle" x="1688" y="-356.5" font-family="Helvetica,sans-Serif" font-size="10.00">QtGui/QStatusBar</text>
</g>
<!-- Node4&#45;&gt;Node13 -->
<g id="edge26" class="edge"><title>Node4&#45;&gt;Node13</title>
<path fill="none" stroke="midnightblue" d="M1688,-406.362C1688,-398.922 1688,-388.743 1688,-379.728"/>
<polygon fill="midnightblue" stroke="midnightblue" points="1691.5,-379.571 1688,-369.571 1684.5,-379.571 1691.5,-379.571"/>
</g>
<!-- Node14 -->
<g id="node28" class="node"><title>Node14</title>
<polygon fill="none" stroke="#bfbfbf" points="1754,-348.5 1754,-369.5 1840,-369.5 1840,-348.5 1754,-348.5"/>
<text text-anchor="middle" x="1797" y="-356.5" font-family="Helvetica,sans-Serif" font-size="10.00">QtGui/QToolBar</text>
</g>
<!-- Node4&#45;&gt;Node14 -->
<g id="edge28" class="edge"><title>Node4&#45;&gt;Node14</title>
<path fill="none" stroke="midnightblue" d="M1707.74,-406.497C1724.61,-397.519 1749.11,-384.484 1768.17,-374.339"/>
<polygon fill="midnightblue" stroke="midnightblue" points="1769.86,-377.409 1777.04,-369.621 1766.57,-371.229 1769.86,-377.409"/>
</g>
<!-- Node15 -->
<g id="node30" class="node"><title>Node15</title>
<polygon fill="none" stroke="#bfbfbf" points="1857.5,-348.5 1857.5,-369.5 1940.5,-369.5 1940.5,-348.5 1857.5,-348.5"/>
<text text-anchor="middle" x="1899" y="-356.5" font-family="Helvetica,sans-Serif" font-size="10.00">QtGui/QWidget</text>
</g>
<!-- Node4&#45;&gt;Node15 -->
<g id="edge30" class="edge"><title>Node4&#45;&gt;Node15</title>
<path fill="none" stroke="midnightblue" d="M1726.21,-406.497C1761.2,-396.877 1813.15,-382.598 1850.95,-372.209"/>
<polygon fill="midnightblue" stroke="midnightblue" points="1852,-375.548 1860.72,-369.523 1850.15,-368.799 1852,-375.548"/>
</g>
<!-- Node16 -->
<g id="node32" class="node"><title>Node16</title>
<a xlink:href="knotview_8hpp.html" target="_top" xlink:title="knotview.hpp">
<polygon fill="none" stroke="black" points="1344,-348.5 1344,-369.5 1418,-369.5 1418,-348.5 1344,-348.5"/>
<text text-anchor="middle" x="1381" y="-356.5" font-family="Helvetica,sans-Serif" font-size="10.00">knotview.hpp</text>
</a>
</g>
<!-- Node4&#45;&gt;Node16 -->
<g id="edge32" class="edge"><title>Node4&#45;&gt;Node16</title>
<path fill="none" stroke="midnightblue" d="M1640.22,-409.229C1589.91,-400.862 1508.18,-386.743 1428.35,-370.202"/>
<polygon fill="midnightblue" stroke="midnightblue" points="1428.62,-366.683 1418.12,-368.066 1427.19,-373.536 1428.62,-366.683"/>
</g>
<!-- Node17 -->
<g id="node34" class="node"><title>Node17</title>
<polygon fill="none" stroke="#bfbfbf" points="1303.5,-290.5 1303.5,-311.5 1388.5,-311.5 1388.5,-290.5 1303.5,-290.5"/>
<text text-anchor="middle" x="1346" y="-298.5" font-family="Helvetica,sans-Serif" font-size="10.00">QGraphicsView</text>
</g>
<!-- Node16&#45;&gt;Node17 -->
<g id="edge34" class="edge"><title>Node16&#45;&gt;Node17</title>
<path fill="none" stroke="midnightblue" d="M1374.58,-348.362C1369.84,-340.513 1363.27,-329.616 1357.62,-320.253"/>
<polygon fill="midnightblue" stroke="midnightblue" points="1360.54,-318.324 1352.38,-311.571 1354.55,-321.941 1360.54,-318.324"/>
</g>
<!-- Node18 -->
<g id="node36" class="node"><title>Node18</title>
<a xlink:href="node_8hpp.html" target="_top" xlink:title="node.hpp">
<polygon fill="none" stroke="black" points="1294,-174.5 1294,-195.5 1350,-195.5 1350,-174.5 1294,-174.5"/>
<text text-anchor="middle" x="1322" y="-182.5" font-family="Helvetica,sans-Serif" font-size="10.00">node.hpp</text>
</a>
</g>
<!-- Node16&#45;&gt;Node18 -->
<g id="edge36" class="edge"><title>Node16&#45;&gt;Node18</title>
<path fill="none" stroke="midnightblue" d="M1387.12,-348.094C1394.01,-334.366 1403.45,-310.142 1397,-290 1385.88,-255.313 1358.63,-222.33 1340.23,-202.88"/>
<polygon fill="midnightblue" stroke="midnightblue" points="1342.67,-200.371 1333.19,-195.642 1337.65,-205.252 1342.67,-200.371"/>
</g>
<!-- Node21 -->
<g id="node42" class="node"><title>Node21</title>
<a xlink:href="edge_8hpp.html" target="_top" xlink:title="edge.hpp">
<polygon fill="none" stroke="black" points="1350,-116.5 1350,-137.5 1406,-137.5 1406,-116.5 1350,-116.5"/>
<text text-anchor="middle" x="1378" y="-124.5" font-family="Helvetica,sans-Serif" font-size="10.00">edge.hpp</text>
</a>
</g>
<!-- Node16&#45;&gt;Node21 -->
<g id="edge46" class="edge"><title>Node16&#45;&gt;Node21</title>
<path fill="none" stroke="midnightblue" d="M1390.68,-348.361C1398.13,-339.4 1407.84,-325.856 1412,-312 1429.61,-253.324 1403.15,-181.301 1387.76,-147"/>
<polygon fill="midnightblue" stroke="midnightblue" points="1390.79,-145.214 1383.4,-137.622 1384.44,-148.166 1390.79,-145.214"/>
</g>
<!-- Node16&#45;&gt;Node22 -->
<g id="edge48" class="edge"><title>Node16&#45;&gt;Node22</title>
<path fill="none" stroke="midnightblue" d="M1418.06,-349.631C1421.07,-349.024 1424.08,-348.469 1427,-348 1614.47,-317.851 1840.76,-306.332 1937.01,-302.577"/>
<polygon fill="midnightblue" stroke="midnightblue" points="1937.41,-306.065 1947.27,-302.187 1937.15,-299.07 1937.41,-306.065"/>
</g>
<!-- Node23 -->
<g id="node48" class="node"><title>Node23</title>
<a xlink:href="knotgraph_8hpp.html" target="_top" xlink:title="knotgraph.hpp">
<polygon fill="none" stroke="black" points="1208,-290.5 1208,-311.5 1286,-311.5 1286,-290.5 1208,-290.5"/>
<text text-anchor="middle" x="1247" y="-298.5" font-family="Helvetica,sans-Serif" font-size="10.00">knotgraph.hpp</text>
</a>
</g>
<!-- Node16&#45;&gt;Node23 -->
<g id="edge50" class="edge"><title>Node16&#45;&gt;Node23</title>
<path fill="none" stroke="midnightblue" d="M1356.73,-348.497C1335.52,-339.315 1304.5,-325.889 1280.85,-315.652"/>
<polygon fill="midnightblue" stroke="midnightblue" points="1282.11,-312.381 1271.54,-311.621 1279.33,-318.806 1282.11,-312.381"/>
</g>
<!-- Node19 -->
<g id="node38" class="node"><title>Node19</title>
<a xlink:href="custom__item_8hpp.html" target="_top" xlink:title="custom_item.hpp">
<polygon fill="none" stroke="black" points="1304,-58.5 1304,-79.5 1396,-79.5 1396,-58.5 1304,-58.5"/>
<text text-anchor="middle" x="1350" y="-66.5" font-family="Helvetica,sans-Serif" font-size="10.00">custom_item.hpp</text>
</a>
</g>
<!-- Node18&#45;&gt;Node19 -->
<g id="edge38" class="edge"><title>Node18&#45;&gt;Node19</title>
<path fill="none" stroke="midnightblue" d="M1324.58,-174.295C1329.23,-155.045 1339.07,-114.289 1345.05,-89.5091"/>
<polygon fill="midnightblue" stroke="midnightblue" points="1348.48,-90.2213 1347.42,-79.6792 1341.67,-88.5788 1348.48,-90.2213"/>
</g>
<!-- Node18&#45;&gt;Node21 -->
<g id="edge42" class="edge"><title>Node18&#45;&gt;Node21</title>
<path fill="none" stroke="midnightblue" d="M1332.27,-174.362C1340.24,-166.104 1351.47,-154.472 1360.81,-144.803"/>
<polygon fill="midnightblue" stroke="midnightblue" points="1363.37,-147.196 1367.79,-137.571 1358.33,-142.334 1363.37,-147.196"/>
</g>
<!-- Node20 -->
<g id="node40" class="node"><title>Node20</title>
<polygon fill="none" stroke="#bfbfbf" points="1308.5,-0.5 1308.5,-21.5 1391.5,-21.5 1391.5,-0.5 1308.5,-0.5"/>
<text text-anchor="middle" x="1350" y="-8.5" font-family="Helvetica,sans-Serif" font-size="10.00">QGraphicsItem</text>
</g>
<!-- Node19&#45;&gt;Node20 -->
<g id="edge40" class="edge"><title>Node19&#45;&gt;Node20</title>
<path fill="none" stroke="midnightblue" d="M1350,-58.3619C1350,-50.9219 1350,-40.7427 1350,-31.7276"/>
<polygon fill="midnightblue" stroke="midnightblue" points="1353.5,-31.5706 1350,-21.5707 1346.5,-31.5707 1353.5,-31.5706"/>
</g>
<!-- Node21&#45;&gt;Node19 -->
<g id="edge44" class="edge"><title>Node21&#45;&gt;Node19</title>
<path fill="none" stroke="midnightblue" d="M1372.86,-116.362C1369.15,-108.677 1364.03,-98.0686 1359.58,-88.8399"/>
<polygon fill="midnightblue" stroke="midnightblue" points="1362.6,-87.0545 1355.1,-79.5707 1356.3,-90.0978 1362.6,-87.0545"/>
</g>
<!-- Node23&#45;&gt;Node18 -->
<g id="edge54" class="edge"><title>Node23&#45;&gt;Node18</title>
<path fill="none" stroke="midnightblue" d="M1271.95,-290.432C1287.05,-282.659 1305.22,-270.557 1315,-254 1323.59,-239.46 1324.87,-220.142 1324.27,-205.645"/>
<polygon fill="midnightblue" stroke="midnightblue" points="1327.76,-205.374 1323.53,-195.658 1320.78,-205.888 1327.76,-205.374"/>
</g>
<!-- Node23&#45;&gt;Node21 -->
<g id="edge56" class="edge"><title>Node23&#45;&gt;Node21</title>
<path fill="none" stroke="midnightblue" d="M1276.01,-290.409C1294.02,-282.625 1316.59,-270.523 1332,-254 1360.12,-223.858 1371.31,-175.232 1375.56,-147.717"/>
<polygon fill="midnightblue" stroke="midnightblue" points="1379.05,-148.034 1376.95,-137.65 1372.12,-147.077 1379.05,-148.034"/>
</g>
<!-- Node24 -->
<g id="node50" class="node"><title>Node24</title>
<polygon fill="none" stroke="#bfbfbf" points="1074.5,-174.5 1074.5,-195.5 1149.5,-195.5 1149.5,-174.5 1074.5,-174.5"/>
<text text-anchor="middle" x="1112" y="-182.5" font-family="Helvetica,sans-Serif" font-size="10.00">QPainterPath</text>
</g>
<!-- Node23&#45;&gt;Node24 -->
<g id="edge52" class="edge"><title>Node23&#45;&gt;Node24</title>
<path fill="none" stroke="midnightblue" d="M1207.89,-296.354C1160.28,-289.801 1084.08,-276.11 1067,-254 1053.93,-237.076 1071.48,-216.381 1088.34,-202.095"/>
<polygon fill="midnightblue" stroke="midnightblue" points="1090.79,-204.615 1096.42,-195.641 1086.43,-199.145 1090.79,-204.615"/>
</g>
<!-- Node25 -->
<g id="node54" class="node"><title>Node25</title>
<polygon fill="none" stroke="#bfbfbf" points="1075.5,-232.5 1075.5,-253.5 1178.5,-253.5 1178.5,-232.5 1075.5,-232.5"/>
<text text-anchor="middle" x="1127" y="-240.5" font-family="Helvetica,sans-Serif" font-size="10.00">QGraphicsPathItem</text>
</g>
<!-- Node23&#45;&gt;Node25 -->
<g id="edge58" class="edge"><title>Node23&#45;&gt;Node25</title>
<path fill="none" stroke="midnightblue" d="M1225.27,-290.497C1206.53,-281.438 1179.23,-268.246 1158.16,-258.063"/>
<polygon fill="midnightblue" stroke="midnightblue" points="1159.5,-254.822 1148.97,-253.621 1156.46,-261.124 1159.5,-254.822"/>
</g>
<!-- Node26 -->
<g id="node56" class="node"><title>Node26</title>
<a xlink:href="knot__curve__style_8hpp.html" target="_top" xlink:title="knot_curve_style.hpp">
<polygon fill="none" stroke="black" points="1196,-232.5 1196,-253.5 1306,-253.5 1306,-232.5 1196,-232.5"/>
<text text-anchor="middle" x="1251" y="-240.5" font-family="Helvetica,sans-Serif" font-size="10.00">knot_curve_style.hpp</text>
</a>
</g>
<!-- Node23&#45;&gt;Node26 -->
<g id="edge60" class="edge"><title>Node23&#45;&gt;Node26</title>
<path fill="none" stroke="midnightblue" d="M1247.73,-290.362C1248.25,-282.922 1248.95,-272.743 1249.57,-263.728"/>
<polygon fill="midnightblue" stroke="midnightblue" points="1253.07,-263.788 1250.27,-253.571 1246.09,-263.306 1253.07,-263.788"/>
</g>
<!-- Node26&#45;&gt;Node18 -->
<g id="edge62" class="edge"><title>Node26&#45;&gt;Node18</title>
<path fill="none" stroke="midnightblue" d="M1264.02,-232.362C1274.43,-223.859 1289.22,-211.779 1301.26,-201.947"/>
<polygon fill="midnightblue" stroke="midnightblue" points="1303.53,-204.608 1309.06,-195.571 1299.1,-199.187 1303.53,-204.608"/>
</g>
<!-- Node26&#45;&gt;Node24 -->
<g id="edge64" class="edge"><title>Node26&#45;&gt;Node24</title>
<path fill="none" stroke="midnightblue" d="M1225.83,-232.497C1203.73,-223.275 1171.36,-209.769 1146.79,-199.515"/>
<polygon fill="midnightblue" stroke="midnightblue" points="1148.03,-196.242 1137.45,-195.621 1145.34,-202.702 1148.03,-196.242"/>
</g>
<!-- Node27 -->
<g id="node60" class="node"><title>Node27</title>
<polygon fill="none" stroke="#bfbfbf" points="1229.5,-174.5 1229.5,-195.5 1272.5,-195.5 1272.5,-174.5 1229.5,-174.5"/>
<text text-anchor="middle" x="1251" y="-182.5" font-family="Helvetica,sans-Serif" font-size="10.00">QMap</text>
</g>
<!-- Node26&#45;&gt;Node27 -->
<g id="edge66" class="edge"><title>Node26&#45;&gt;Node27</title>
<path fill="none" stroke="midnightblue" d="M1251,-232.362C1251,-224.922 1251,-214.743 1251,-205.728"/>
<polygon fill="midnightblue" stroke="midnightblue" points="1254.5,-205.571 1251,-195.571 1247.5,-205.571 1254.5,-205.571"/>
</g>
<!-- Node30 -->
<g id="node67" class="node"><title>Node30</title>
<a xlink:href="ui__style__dialog_8h.html" target="_top" xlink:title="ui_style_dialog.h">
<polygon fill="none" stroke="black" points="986.5,-406.5 986.5,-427.5 1075.5,-427.5 1075.5,-406.5 986.5,-406.5"/>
<text text-anchor="middle" x="1031" y="-414.5" font-family="Helvetica,sans-Serif" font-size="10.00">ui_style_dialog.h</text>
</a>
</g>
<!-- Node29&#45;&gt;Node30 -->
<g id="edge74" class="edge"><title>Node29&#45;&gt;Node30</title>
<path fill="none" stroke="midnightblue" d="M1220.17,-464.497C1181.61,-454.816 1124.26,-440.416 1082.82,-430.01"/>
<polygon fill="midnightblue" stroke="midnightblue" points="1083.46,-426.564 1072.91,-427.523 1081.76,-433.353 1083.46,-426.564"/>
</g>
<!-- Node30&#45;&gt;Node2 -->
<g id="edge80" class="edge"><title>Node30&#45;&gt;Node2</title>
<path fill="none" stroke="midnightblue" d="M1075.73,-415.532C1267.85,-409.177 2019.61,-383.78 2166.96,-369.997"/>
<polygon fill="midnightblue" stroke="midnightblue" points="2167.63,-373.446 2177.22,-368.944 2166.92,-366.483 2167.63,-373.446"/>
</g>
<!-- Node30&#45;&gt;Node5 -->
<g id="edge76" class="edge"><title>Node30&#45;&gt;Node5</title>
<path fill="none" stroke="midnightblue" d="M1075.72,-412.965C1147.47,-406.213 1292.92,-391.384 1425.32,-370.179"/>
<polygon fill="midnightblue" stroke="midnightblue" points="1425.92,-373.628 1435.23,-368.576 1424.8,-366.718 1425.92,-373.628"/>
</g>
<!-- Node30&#45;&gt;Node6 -->
<g id="edge78" class="edge"><title>Node30&#45;&gt;Node6</title>
<path fill="none" stroke="midnightblue" d="M1075.56,-414.74C1161.8,-409.952 1357.63,-397.07 1531.85,-370.015"/>
<polygon fill="midnightblue" stroke="midnightblue" points="1532.63,-373.434 1541.97,-368.423 1531.55,-366.519 1532.63,-373.434"/>
</g>
<!-- Node30&#45;&gt;Node7 -->
<g id="edge82" class="edge"><title>Node30&#45;&gt;Node7</title>
<path fill="none" stroke="midnightblue" d="M1031,-406.362C1031,-398.922 1031,-388.743 1031,-379.728"/>
<polygon fill="midnightblue" stroke="midnightblue" points="1034.5,-379.571 1031,-369.571 1027.5,-379.571 1034.5,-379.571"/>
</g>
<!-- Node30&#45;&gt;Node8 -->
<g id="edge92" class="edge"><title>Node30&#45;&gt;Node8</title>
<path fill="none" stroke="midnightblue" d="M1052.91,-406.497C1071.81,-397.438 1099.33,-384.246 1120.58,-374.063"/>
<polygon fill="midnightblue" stroke="midnightblue" points="1122.34,-377.1 1129.84,-369.621 1119.31,-370.788 1122.34,-377.1"/>
</g>
<!-- Node30&#45;&gt;Node9 -->
<g id="edge96" class="edge"><title>Node30&#45;&gt;Node9</title>
<path fill="none" stroke="midnightblue" d="M1074.82,-406.497C1115.39,-396.775 1175.81,-382.294 1219.26,-371.879"/>
<polygon fill="midnightblue" stroke="midnightblue" points="1220.18,-375.257 1229.09,-369.523 1218.55,-368.45 1220.18,-375.257"/>
</g>
<!-- Node30&#45;&gt;Node16 -->
<g id="edge112" class="edge"><title>Node30&#45;&gt;Node16</title>
<path fill="none" stroke="midnightblue" d="M1075.5,-411.275C1132.94,-403.631 1236.15,-389.033 1333.85,-370.11"/>
<polygon fill="midnightblue" stroke="midnightblue" points="1334.76,-373.5 1343.9,-368.146 1333.41,-366.63 1334.76,-373.5"/>
</g>
<!-- Node31 -->
<g id="node73" class="node"><title>Node31</title>
<polygon fill="none" stroke="#bfbfbf" points="271.5,-348.5 271.5,-369.5 372.5,-369.5 372.5,-348.5 271.5,-348.5"/>
<text text-anchor="middle" x="322" y="-356.5" font-family="Helvetica,sans-Serif" font-size="10.00">QtGui/QComboBox</text>
</g>
<!-- Node30&#45;&gt;Node31 -->
<g id="edge84" class="edge"><title>Node30&#45;&gt;Node31</title>
<path fill="none" stroke="midnightblue" d="M986.301,-415.496C882.148,-411.62 615.094,-399.544 382.78,-370.122"/>
<polygon fill="midnightblue" stroke="midnightblue" points="383.155,-366.642 372.792,-368.844 382.266,-373.585 383.155,-366.642"/>
</g>
<!-- Node32 -->
<g id="node75" class="node"><title>Node32</title>
<polygon fill="none" stroke="#bfbfbf" points="390,-348.5 390,-369.5 470,-369.5 470,-348.5 390,-348.5"/>
<text text-anchor="middle" x="430" y="-356.5" font-family="Helvetica,sans-Serif" font-size="10.00">QtGui/QDialog</text>
</g>
<!-- Node30&#45;&gt;Node32 -->
<g id="edge86" class="edge"><title>Node30&#45;&gt;Node32</title>
<path fill="none" stroke="midnightblue" d="M986.395,-415.259C893.81,-411.203 673.949,-399.272 480.113,-369.994"/>
<polygon fill="midnightblue" stroke="midnightblue" points="480.441,-366.503 470.027,-368.451 479.383,-373.423 480.441,-366.503"/>
</g>
<!-- Node33 -->
<g id="node77" class="node"><title>Node33</title>
<polygon fill="none" stroke="#bfbfbf" points="488,-348.5 488,-369.5 614,-369.5 614,-348.5 488,-348.5"/>
<text text-anchor="middle" x="551" y="-356.5" font-family="Helvetica,sans-Serif" font-size="10.00">QtGui/QDialogButtonBox</text>
</g>
<!-- Node30&#45;&gt;Node33 -->
<g id="edge88" class="edge"><title>Node30&#45;&gt;Node33</title>
<path fill="none" stroke="midnightblue" d="M986.257,-412.392C912.938,-404.722 762.384,-388.472 624.522,-370.168"/>
<polygon fill="midnightblue" stroke="midnightblue" points="624.572,-366.644 614.197,-368.79 623.646,-373.582 624.572,-366.644"/>
</g>
<!-- Node34 -->
<g id="node79" class="node"><title>Node34</title>
<polygon fill="none" stroke="#bfbfbf" points="632,-348.5 632,-369.5 752,-369.5 752,-348.5 632,-348.5"/>
<text text-anchor="middle" x="692" y="-356.5" font-family="Helvetica,sans-Serif" font-size="10.00">QtGui/QDoubleSpinBox</text>
</g>
<!-- Node30&#45;&gt;Node34 -->
<g id="edge90" class="edge"><title>Node30&#45;&gt;Node34</title>
<path fill="none" stroke="midnightblue" d="M986.333,-409.358C929.215,-399.585 829.658,-382.552 762.32,-371.031"/>
<polygon fill="midnightblue" stroke="midnightblue" points="762.661,-367.539 752.214,-369.302 761.481,-374.439 762.661,-367.539"/>
</g>
<!-- Node35 -->
<g id="node82" class="node"><title>Node35</title>
<polygon fill="none" stroke="#bfbfbf" points="770,-348.5 770,-369.5 866,-369.5 866,-348.5 770,-348.5"/>
<text text-anchor="middle" x="818" y="-356.5" font-family="Helvetica,sans-Serif" font-size="10.00">QtGui/QGroupBox</text>
</g>
<!-- Node30&#45;&gt;Node35 -->
<g id="edge94" class="edge"><title>Node30&#45;&gt;Node35</title>
<path fill="none" stroke="midnightblue" d="M992.427,-406.497C957.101,-396.877 904.662,-382.598 866.509,-372.209"/>
<polygon fill="midnightblue" stroke="midnightblue" points="867.213,-368.773 856.645,-369.523 865.374,-375.528 867.213,-368.773"/>
</g>
<!-- Node36 -->
<g id="node85" class="node"><title>Node36</title>
<polygon fill="none" stroke="#bfbfbf" points="884,-348.5 884,-369.5 960,-369.5 960,-348.5 884,-348.5"/>
<text text-anchor="middle" x="922" y="-356.5" font-family="Helvetica,sans-Serif" font-size="10.00">QtGui/QLabel</text>
</g>
<!-- Node30&#45;&gt;Node36 -->
<g id="edge98" class="edge"><title>Node30&#45;&gt;Node36</title>
<path fill="none" stroke="midnightblue" d="M1011.26,-406.497C994.39,-397.519 969.891,-384.484 950.826,-374.339"/>
<polygon fill="midnightblue" stroke="midnightblue" points="952.433,-371.229 941.961,-369.621 949.144,-377.409 952.433,-371.229"/>
</g>
<!-- Node37 -->
<g id="node87" class="node"><title>Node37</title>
<a xlink:href="color__widget_8hpp.html" target="_top" xlink:title="color_widget.hpp">
<polygon fill="none" stroke="black" points="164,-348.5 164,-369.5 254,-369.5 254,-348.5 164,-348.5"/>
<text text-anchor="middle" x="209" y="-356.5" font-family="Helvetica,sans-Serif" font-size="10.00">color_widget.hpp</text>
</a>
</g>
<!-- Node30&#45;&gt;Node37 -->
<g id="edge100" class="edge"><title>Node30&#45;&gt;Node37</title>
<path fill="none" stroke="midnightblue" d="M986.207,-416.444C869.06,-414.522 543.893,-406.198 263.941,-369.958"/>
<polygon fill="midnightblue" stroke="midnightblue" points="264.372,-366.485 254.002,-368.657 263.463,-373.425 264.372,-366.485"/>
</g>
<!-- Node38 -->
<g id="node89" class="node"><title>Node38</title>
<polygon fill="none" stroke="#bfbfbf" points="385.5,-290.5 385.5,-311.5 444.5,-311.5 444.5,-290.5 385.5,-290.5"/>
<text text-anchor="middle" x="415" y="-298.5" font-family="Helvetica,sans-Serif" font-size="10.00">QLineEdit</text>
</g>
<!-- Node37&#45;&gt;Node38 -->
<g id="edge102" class="edge"><title>Node37&#45;&gt;Node38</title>
<path fill="none" stroke="midnightblue" d="M247.059,-348.457C278.999,-339.587 326.086,-326.455 375.275,-312.478"/>
<polygon fill="midnightblue" stroke="midnightblue" points="376.476,-315.775 385.137,-309.672 374.56,-309.042 376.476,-315.775"/>
</g>
<!-- Node39 -->
<g id="node91" class="node"><title>Node39</title>
<polygon fill="none" stroke="#bfbfbf" points="-0.5,-290.5 -0.5,-311.5 74.5,-311.5 74.5,-290.5 -0.5,-290.5"/>
<text text-anchor="middle" x="37" y="-298.5" font-family="Helvetica,sans-Serif" font-size="10.00">QColorDialog</text>
</g>
<!-- Node37&#45;&gt;Node39 -->
<g id="edge104" class="edge"><title>Node37&#45;&gt;Node39</title>
<path fill="none" stroke="midnightblue" d="M177.852,-348.497C149.811,-339.041 108.418,-325.083 77.7545,-314.743"/>
<polygon fill="midnightblue" stroke="midnightblue" points="78.8005,-311.402 68.2063,-311.523 76.5637,-318.035 78.8005,-311.402"/>
</g>
<!-- Node40 -->
<g id="node93" class="node"><title>Node40</title>
<polygon fill="none" stroke="#bfbfbf" points="92,-290.5 92,-311.5 164,-311.5 164,-290.5 92,-290.5"/>
<text text-anchor="middle" x="128" y="-298.5" font-family="Helvetica,sans-Serif" font-size="10.00">QPaintEvent</text>
</g>
<!-- Node37&#45;&gt;Node40 -->
<g id="edge106" class="edge"><title>Node37&#45;&gt;Node40</title>
<path fill="none" stroke="midnightblue" d="M194.143,-348.362C182.154,-339.777 165.073,-327.546 151.272,-317.664"/>
<polygon fill="midnightblue" stroke="midnightblue" points="152.931,-314.547 142.762,-311.571 148.855,-320.238 152.931,-314.547"/>
</g>
<!-- Node41 -->
<g id="node95" class="node"><title>Node41</title>
<polygon fill="none" stroke="#bfbfbf" points="181.5,-290.5 181.5,-311.5 236.5,-311.5 236.5,-290.5 181.5,-290.5"/>
<text text-anchor="middle" x="209" y="-298.5" font-family="Helvetica,sans-Serif" font-size="10.00">QPainter</text>
</g>
<!-- Node37&#45;&gt;Node41 -->
<g id="edge108" class="edge"><title>Node37&#45;&gt;Node41</title>
<path fill="none" stroke="midnightblue" d="M209,-348.362C209,-340.922 209,-330.743 209,-321.728"/>
<polygon fill="midnightblue" stroke="midnightblue" points="212.5,-321.571 209,-311.571 205.5,-321.571 212.5,-321.571"/>
</g>
<!-- Node42 -->
<g id="node97" class="node"><title>Node42</title>
<polygon fill="none" stroke="#bfbfbf" points="253.5,-290.5 253.5,-311.5 368.5,-311.5 368.5,-290.5 253.5,-290.5"/>
<text text-anchor="middle" x="311" y="-298.5" font-family="Helvetica,sans-Serif" font-size="10.00">QStyleOptionFrameV3</text>
</g>
<!-- Node37&#45;&gt;Node42 -->
<g id="edge110" class="edge"><title>Node37&#45;&gt;Node42</title>
<path fill="none" stroke="midnightblue" d="M227.708,-348.362C243.381,-339.45 265.964,-326.609 283.663,-316.545"/>
<polygon fill="midnightblue" stroke="midnightblue" points="285.447,-319.556 292.41,-311.571 281.987,-313.471 285.447,-319.556"/>
</g>
<!-- Node43&#45;&gt;Node16 -->
<g id="edge116" class="edge"><title>Node43&#45;&gt;Node16</title>
<path fill="none" stroke="midnightblue" d="M1464.29,-406.362C1448.62,-397.45 1426.04,-384.609 1408.34,-374.545"/>
<polygon fill="midnightblue" stroke="midnightblue" points="1410.01,-371.471 1399.59,-369.571 1406.55,-377.556 1410.01,-371.471"/>
</g>
</g>
</svg>
