<?xml version="1.0" encoding="UTF-8" standalone="no"?>
<!DOCTYPE svg PUBLIC "-//W3C//DTD SVG 1.1//EN"
 "http://www.w3.org/Graphics/SVG/1.1/DTD/svg11.dtd">
<!-- Generated by graphviz version 2.26.3 (20100126.1600)
 -->
<!-- Title: G Pages: 1 -->
<svg width="2333pt" height="610pt"
 viewBox="0.00 0.00 2333.00 610.00" xmlns="http://www.w3.org/2000/svg" xmlns:xlink="http://www.w3.org/1999/xlink">
<g id="graph1" class="graph" transform="scale(1 1) rotate(0) translate(4 606)">
<title>G</title>
<!-- Node1 -->
<g id="node1" class="node"><title>Node1</title>
<polygon fill="#bfbfbf" stroke="black" points="1497,-580.5 1497,-601.5 1553,-601.5 1553,-580.5 1497,-580.5"/>
<text text-anchor="middle" x="1525" y="-588.5" font-family="Helvetica,sans-Serif" font-size="10.00">main.cpp</text>
</g>
<!-- Node2 -->
<g id="node3" class="node"><title>Node2</title>
<polygon fill="none" stroke="#bfbfbf" points="1161.5,-348.5 1161.5,-369.5 1262.5,-369.5 1262.5,-348.5 1161.5,-348.5"/>
<text text-anchor="middle" x="1212" y="-356.5" font-family="Helvetica,sans-Serif" font-size="10.00">QtGui/QApplication</text>
</g>
<!-- Node1&#45;&gt;Node2 -->
<g id="edge2" class="edge"><title>Node1&#45;&gt;Node2</title>
<path fill="none" stroke="midnightblue" d="M1496.9,-584.408C1449.36,-572.071 1352.09,-541.581 1289,-486 1254.69,-455.773 1230.96,-406.478 1219.62,-379.04"/>
<polygon fill="midnightblue" stroke="midnightblue" points="1222.84,-377.669 1215.89,-369.679 1216.34,-380.264 1222.84,-377.669"/>
</g>
<!-- Node3 -->
<g id="node5" class="node"><title>Node3</title>
<a xlink:href="knot__window_8hpp.html" target="_top" xlink:title="knot_window.hpp">
<polygon fill="none" stroke="black" points="1479,-522.5 1479,-543.5 1571,-543.5 1571,-522.5 1479,-522.5"/>
<text text-anchor="middle" x="1525" y="-530.5" font-family="Helvetica,sans-Serif" font-size="10.00">knot_window.hpp</text>
</a>
</g>
<!-- Node1&#45;&gt;Node3 -->
<g id="edge4" class="edge"><title>Node1&#45;&gt;Node3</title>
<path fill="none" stroke="midnightblue" d="M1525,-580.362C1525,-572.922 1525,-562.743 1525,-553.728"/>
<polygon fill="midnightblue" stroke="midnightblue" points="1528.5,-553.571 1525,-543.571 1521.5,-553.571 1528.5,-553.571"/>
</g>
<!-- Node45 -->
<g id="node106" class="node"><title>Node45</title>
<polygon fill="none" stroke="#bfbfbf" points="1589,-522.5 1589,-543.5 1657,-543.5 1657,-522.5 1589,-522.5"/>
<text text-anchor="middle" x="1623" y="-530.5" font-family="Helvetica,sans-Serif" font-size="10.00">QTranslator</text>
</g>
<!-- Node1&#45;&gt;Node45 -->
<g id="edge122" class="edge"><title>Node1&#45;&gt;Node45</title>
<path fill="none" stroke="midnightblue" d="M1542.97,-580.362C1557.89,-571.532 1579.33,-558.844 1596.27,-548.822"/>
<polygon fill="midnightblue" stroke="midnightblue" points="1598.32,-551.676 1605.14,-543.571 1594.75,-545.652 1598.32,-551.676"/>
</g>
<!-- Node4 -->
<g id="node7" class="node"><title>Node4</title>
<a xlink:href="ui__knot__window_8h.html" target="_top" xlink:title="ui_knot_window.h">
<polygon fill="none" stroke="black" points="1508.5,-406.5 1508.5,-427.5 1603.5,-427.5 1603.5,-406.5 1508.5,-406.5"/>
<text text-anchor="middle" x="1556" y="-414.5" font-family="Helvetica,sans-Serif" font-size="10.00">ui_knot_window.h</text>
</a>
</g>
<!-- Node3&#45;&gt;Node4 -->
<g id="edge6" class="edge"><title>Node3&#45;&gt;Node4</title>
<path fill="none" stroke="midnightblue" d="M1527.86,-522.295C1533.01,-503.045 1543.9,-462.289 1550.52,-437.509"/>
<polygon fill="midnightblue" stroke="midnightblue" points="1553.95,-438.244 1553.15,-427.679 1547.18,-436.437 1553.95,-438.244"/>
</g>
<!-- Node22 -->
<g id="node46" class="node"><title>Node22</title>
<polygon fill="none" stroke="#bfbfbf" points="2252.5,-290.5 2252.5,-311.5 2325.5,-311.5 2325.5,-290.5 2252.5,-290.5"/>
<text text-anchor="middle" x="2289" y="-298.5" font-family="Helvetica,sans-Serif" font-size="10.00">QUndoStack</text>
</g>
<!-- Node3&#45;&gt;Node22 -->
<g id="edge72" class="edge"><title>Node3&#45;&gt;Node22</title>
<path fill="none" stroke="midnightblue" d="M1571.16,-522.996C1614.33,-513.597 1680.58,-499.062 1738,-486 1958.33,-435.877 2041.51,-489.952 2233,-370 2252.49,-357.792 2268.27,-336.407 2278.05,-320.671"/>
<polygon fill="midnightblue" stroke="midnightblue" points="2281.26,-322.122 2283.35,-311.735 2275.24,-318.554 2281.26,-322.122"/>
</g>
<!-- Node29 -->
<g id="node66" class="node"><title>Node29</title>
<polygon fill="none" stroke="#bfbfbf" points="1459.5,-464.5 1459.5,-485.5 1528.5,-485.5 1528.5,-464.5 1459.5,-464.5"/>
<text text-anchor="middle" x="1494" y="-472.5" font-family="Helvetica,sans-Serif" font-size="10.00">QUndoView</text>
</g>
<!-- Node3&#45;&gt;Node29 -->
<g id="edge74" class="edge"><title>Node3&#45;&gt;Node29</title>
<path fill="none" stroke="midnightblue" d="M1519.31,-522.362C1515.16,-514.595 1509.42,-503.843 1504.45,-494.546"/>
<polygon fill="midnightblue" stroke="midnightblue" points="1507.45,-492.74 1499.65,-485.571 1501.28,-496.04 1507.45,-492.74"/>
</g>
<!-- Node30 -->
<g id="node68" class="node"><title>Node30</title>
<a xlink:href="style__dialog_8hpp.html" target="_top" xlink:title="style_dialog.hpp">
<polygon fill="none" stroke="black" points="1297.5,-464.5 1297.5,-485.5 1384.5,-485.5 1384.5,-464.5 1297.5,-464.5"/>
<text text-anchor="middle" x="1341" y="-472.5" font-family="Helvetica,sans-Serif" font-size="10.00">style_dialog.hpp</text>
</a>
</g>
<!-- Node3&#45;&gt;Node30 -->
<g id="edge76" class="edge"><title>Node3&#45;&gt;Node30</title>
<path fill="none" stroke="midnightblue" d="M1491.68,-522.497C1461.55,-513 1417.02,-498.962 1384.17,-488.609"/>
<polygon fill="midnightblue" stroke="midnightblue" points="1384.97,-485.191 1374.38,-485.523 1382.87,-491.868 1384.97,-485.191"/>
</g>
<!-- Node44 -->
<g id="node103" class="node"><title>Node44</title>
<a xlink:href="clipboard_8hpp.html" target="_top" xlink:title="clipboard.hpp">
<polygon fill="none" stroke="black" points="1886,-406.5 1886,-427.5 1960,-427.5 1960,-406.5 1886,-406.5"/>
<text text-anchor="middle" x="1923" y="-414.5" font-family="Helvetica,sans-Serif" font-size="10.00">clipboard.hpp</text>
</a>
</g>
<!-- Node3&#45;&gt;Node44 -->
<g id="edge118" class="edge"><title>Node3&#45;&gt;Node44</title>
<path fill="none" stroke="midnightblue" d="M1561.37,-522.398C1634.07,-501.212 1797.14,-453.683 1877.07,-430.387"/>
<polygon fill="midnightblue" stroke="midnightblue" points="1878.23,-433.694 1886.85,-427.535 1876.27,-426.973 1878.23,-433.694"/>
</g>
<!-- Node4&#45;&gt;Node2 -->
<g id="edge12" class="edge"><title>Node4&#45;&gt;Node2</title>
<path fill="none" stroke="midnightblue" d="M1508.29,-409.445C1453.7,-400.729 1361.33,-385.771 1272.49,-370.239"/>
<polygon fill="midnightblue" stroke="midnightblue" points="1272.97,-366.77 1262.52,-368.49 1271.76,-373.665 1272.97,-366.77"/>
</g>
<!-- Node5 -->
<g id="node9" class="node"><title>Node5</title>
<polygon fill="none" stroke="#bfbfbf" points="1055.5,-348.5 1055.5,-369.5 1144.5,-369.5 1144.5,-348.5 1055.5,-348.5"/>
<text text-anchor="middle" x="1100" y="-356.5" font-family="Helvetica,sans-Serif" font-size="10.00">QtCore/QVariant</text>
</g>
<!-- Node4&#45;&gt;Node5 -->
<g id="edge8" class="edge"><title>Node4&#45;&gt;Node5</title>
<path fill="none" stroke="midnightblue" d="M1508.35,-412.821C1434.59,-406.05 1288.15,-391.406 1154.76,-370.187"/>
<polygon fill="midnightblue" stroke="midnightblue" points="1155.2,-366.713 1144.77,-368.582 1154.09,-373.625 1155.2,-366.713"/>
</g>
<!-- Node6 -->
<g id="node11" class="node"><title>Node6</title>
<polygon fill="none" stroke="#bfbfbf" points="1280,-348.5 1280,-369.5 1360,-369.5 1360,-348.5 1280,-348.5"/>
<text text-anchor="middle" x="1320" y="-356.5" font-family="Helvetica,sans-Serif" font-size="10.00">QtGui/QAction</text>
</g>
<!-- Node4&#45;&gt;Node6 -->
<g id="edge10" class="edge"><title>Node4&#45;&gt;Node6</title>
<path fill="none" stroke="midnightblue" d="M1513.26,-406.497C1472.93,-396.584 1412.46,-381.723 1369.92,-371.269"/>
<polygon fill="midnightblue" stroke="midnightblue" points="1370.61,-367.833 1360.06,-368.845 1368.93,-374.631 1370.61,-367.833"/>
</g>
<!-- Node7 -->
<g id="node14" class="node"><title>Node7</title>
<polygon fill="none" stroke="#bfbfbf" points="1377.5,-348.5 1377.5,-369.5 1484.5,-369.5 1484.5,-348.5 1377.5,-348.5"/>
<text text-anchor="middle" x="1431" y="-356.5" font-family="Helvetica,sans-Serif" font-size="10.00">QtGui/QButtonGroup</text>
</g>
<!-- Node4&#45;&gt;Node7 -->
<g id="edge14" class="edge"><title>Node4&#45;&gt;Node7</title>
<path fill="none" stroke="midnightblue" d="M1533.36,-406.497C1513.75,-397.397 1485.15,-384.127 1463.17,-373.925"/>
<polygon fill="midnightblue" stroke="midnightblue" points="1464.43,-370.655 1453.89,-369.621 1461.49,-377.005 1464.43,-370.655"/>
</g>
<!-- Node8 -->
<g id="node16" class="node"><title>Node8</title>
<polygon fill="none" stroke="#bfbfbf" points="814,-348.5 814,-369.5 914,-369.5 914,-348.5 814,-348.5"/>
<text text-anchor="middle" x="864" y="-356.5" font-family="Helvetica,sans-Serif" font-size="10.00">QtGui/QGridLayout</text>
</g>
<!-- Node4&#45;&gt;Node8 -->
<g id="edge16" class="edge"><title>Node4&#45;&gt;Node8</title>
<path fill="none" stroke="midnightblue" d="M1508.17,-415.25C1403.89,-411.047 1148.1,-398.629 924.12,-370.026"/>
<polygon fill="midnightblue" stroke="midnightblue" points="924.518,-366.548 914.152,-368.739 923.622,-373.491 924.518,-366.548"/>
</g>
<!-- Node9 -->
<g id="node18" class="node"><title>Node9</title>
<polygon fill="none" stroke="#bfbfbf" points="932,-348.5 932,-369.5 1038,-369.5 1038,-348.5 932,-348.5"/>
<text text-anchor="middle" x="985" y="-356.5" font-family="Helvetica,sans-Serif" font-size="10.00">QtGui/QHeaderView</text>
</g>
<!-- Node4&#45;&gt;Node9 -->
<g id="edge18" class="edge"><title>Node4&#45;&gt;Node9</title>
<path fill="none" stroke="midnightblue" d="M1508.48,-413.943C1419.94,-407.958 1223.55,-393.322 1047.99,-370.043"/>
<polygon fill="midnightblue" stroke="midnightblue" points="1048.43,-366.571 1038.05,-368.713 1047.5,-373.509 1048.43,-366.571"/>
</g>
<!-- Node10 -->
<g id="node20" class="node"><title>Node10</title>
<polygon fill="none" stroke="#bfbfbf" points="1501.5,-348.5 1501.5,-369.5 1610.5,-369.5 1610.5,-348.5 1501.5,-348.5"/>
<text text-anchor="middle" x="1556" y="-356.5" font-family="Helvetica,sans-Serif" font-size="10.00">QtGui/QMainWindow</text>
</g>
<!-- Node4&#45;&gt;Node10 -->
<g id="edge20" class="edge"><title>Node4&#45;&gt;Node10</title>
<path fill="none" stroke="midnightblue" d="M1556,-406.362C1556,-398.922 1556,-388.743 1556,-379.728"/>
<polygon fill="midnightblue" stroke="midnightblue" points="1559.5,-379.571 1556,-369.571 1552.5,-379.571 1559.5,-379.571"/>
</g>
<!-- Node11 -->
<g id="node22" class="node"><title>Node11</title>
<polygon fill="none" stroke="#bfbfbf" points="1627.5,-348.5 1627.5,-369.5 1704.5,-369.5 1704.5,-348.5 1627.5,-348.5"/>
<text text-anchor="middle" x="1666" y="-356.5" font-family="Helvetica,sans-Serif" font-size="10.00">QtGui/QMenu</text>
</g>
<!-- Node4&#45;&gt;Node11 -->
<g id="edge22" class="edge"><title>Node4&#45;&gt;Node11</title>
<path fill="none" stroke="midnightblue" d="M1575.92,-406.497C1592.95,-397.519 1617.67,-384.484 1636.91,-374.339"/>
<polygon fill="midnightblue" stroke="midnightblue" points="1638.64,-377.381 1645.86,-369.621 1635.38,-371.189 1638.64,-377.381"/>
</g>
<!-- Node12 -->
<g id="node24" class="node"><title>Node12</title>
<polygon fill="none" stroke="#bfbfbf" points="1722,-348.5 1722,-369.5 1814,-369.5 1814,-348.5 1722,-348.5"/>
<text text-anchor="middle" x="1768" y="-356.5" font-family="Helvetica,sans-Serif" font-size="10.00">QtGui/QMenuBar</text>
</g>
<!-- Node4&#45;&gt;Node12 -->
<g id="edge24" class="edge"><title>Node4&#45;&gt;Node12</title>
<path fill="none" stroke="midnightblue" d="M1594.39,-406.497C1629.55,-396.877 1681.74,-382.598 1719.72,-372.209"/>
<polygon fill="midnightblue" stroke="midnightblue" points="1720.81,-375.538 1729.54,-369.523 1718.97,-368.786 1720.81,-375.538"/>
</g>
<!-- Node13 -->
<g id="node26" class="node"><title>Node13</title>
<polygon fill="none" stroke="#bfbfbf" points="1832,-348.5 1832,-369.5 1928,-369.5 1928,-348.5 1832,-348.5"/>
<text text-anchor="middle" x="1880" y="-356.5" font-family="Helvetica,sans-Serif" font-size="10.00">QtGui/QStatusBar</text>
</g>
<!-- Node4&#45;&gt;Node13 -->
<g id="edge26" class="edge"><title>Node4&#45;&gt;Node13</title>
<path fill="none" stroke="midnightblue" d="M1603.79,-408.83C1655.16,-399.995 1739.49,-385.334 1821.78,-370.205"/>
<polygon fill="midnightblue" stroke="midnightblue" points="1822.61,-373.612 1831.81,-368.358 1821.34,-366.728 1822.61,-373.612"/>
</g>
<!-- Node14 -->
<g id="node28" class="node"><title>Node14</title>
<polygon fill="none" stroke="#bfbfbf" points="1946,-348.5 1946,-369.5 2032,-369.5 2032,-348.5 1946,-348.5"/>
<text text-anchor="middle" x="1989" y="-356.5" font-family="Helvetica,sans-Serif" font-size="10.00">QtGui/QToolBar</text>
</g>
<!-- Node4&#45;&gt;Node14 -->
<g id="edge28" class="edge"><title>Node4&#45;&gt;Node14</title>
<path fill="none" stroke="midnightblue" d="M1603.71,-412.442C1674.14,-405.421 1810.27,-390.741 1935.75,-370.099"/>
<polygon fill="midnightblue" stroke="midnightblue" points="1936.63,-373.501 1945.92,-368.409 1935.49,-366.596 1936.63,-373.501"/>
</g>
<!-- Node15 -->
<g id="node30" class="node"><title>Node15</title>
<polygon fill="none" stroke="#bfbfbf" points="2049.5,-348.5 2049.5,-369.5 2132.5,-369.5 2132.5,-348.5 2049.5,-348.5"/>
<text text-anchor="middle" x="2091" y="-356.5" font-family="Helvetica,sans-Serif" font-size="10.00">QtGui/QWidget</text>
</g>
<!-- Node4&#45;&gt;Node15 -->
<g id="edge30" class="edge"><title>Node4&#45;&gt;Node15</title>
<path fill="none" stroke="midnightblue" d="M1603.74,-414.279C1689.19,-408.996 1874.03,-395.691 2038.99,-370.178"/>
<polygon fill="midnightblue" stroke="midnightblue" points="2039.99,-373.565 2049.33,-368.559 2038.91,-366.649 2039.99,-373.565"/>
</g>
<!-- Node16 -->
<g id="node32" class="node"><title>Node16</title>
<a xlink:href="knotview_8hpp.html" target="_top" xlink:title="knotview.hpp">
<polygon fill="none" stroke="black" points="2150,-348.5 2150,-369.5 2224,-369.5 2224,-348.5 2150,-348.5"/>
<text text-anchor="middle" x="2187" y="-356.5" font-family="Helvetica,sans-Serif" font-size="10.00">knotview.hpp</text>
</a>
</g>
<!-- Node4&#45;&gt;Node16 -->
<g id="edge32" class="edge"><title>Node4&#45;&gt;Node16</title>
<path fill="none" stroke="midnightblue" d="M1603.69,-415.664C1702.19,-412.366 1935.34,-401.781 2139.91,-369.962"/>
<polygon fill="midnightblue" stroke="midnightblue" points="2140.61,-373.396 2149.94,-368.382 2139.52,-366.481 2140.61,-373.396"/>
</g>
<!-- Node17 -->
<g id="node34" class="node"><title>Node17</title>
<polygon fill="none" stroke="#bfbfbf" points="2074.5,-290.5 2074.5,-311.5 2159.5,-311.5 2159.5,-290.5 2074.5,-290.5"/>
<text text-anchor="middle" x="2117" y="-298.5" font-family="Helvetica,sans-Serif" font-size="10.00">QGraphicsView</text>
</g>
<!-- Node16&#45;&gt;Node17 -->
<g id="edge34" class="edge"><title>Node16&#45;&gt;Node17</title>
<path fill="none" stroke="midnightblue" d="M2174.16,-348.362C2164,-339.941 2149.6,-328.011 2137.8,-318.231"/>
<polygon fill="midnightblue" stroke="midnightblue" points="2139.69,-315.256 2129.76,-311.571 2135.22,-320.646 2139.69,-315.256"/>
</g>
<!-- Node18 -->
<g id="node36" class="node"><title>Node18</title>
<a xlink:href="node_8hpp.html" target="_top" xlink:title="node.hpp">
<polygon fill="none" stroke="black" points="1926,-174.5 1926,-195.5 1982,-195.5 1982,-174.5 1926,-174.5"/>
<text text-anchor="middle" x="1954" y="-182.5" font-family="Helvetica,sans-Serif" font-size="10.00">node.hpp</text>
</a>
</g>
<!-- Node16&#45;&gt;Node18 -->
<g id="edge36" class="edge"><title>Node16&#45;&gt;Node18</title>
<path fill="none" stroke="midnightblue" d="M2149.83,-349.592C2124.67,-342.065 2091.5,-329.798 2066,-312 2022.68,-281.77 1984.99,-231.408 1966.38,-204.069"/>
<polygon fill="midnightblue" stroke="midnightblue" points="1969.28,-202.112 1960.81,-195.742 1963.46,-206.002 1969.28,-202.112"/>
</g>
<!-- Node21 -->
<g id="node42" class="node"><title>Node21</title>
<a xlink:href="edge_8hpp.html" target="_top" xlink:title="edge.hpp">
<polygon fill="none" stroke="black" points="1982,-116.5 1982,-137.5 2038,-137.5 2038,-116.5 1982,-116.5"/>
<text text-anchor="middle" x="2010" y="-124.5" font-family="Helvetica,sans-Serif" font-size="10.00">edge.hpp</text>
</a>
</g>
<!-- Node16&#45;&gt;Node21 -->
<g id="edge46" class="edge"><title>Node16&#45;&gt;Node21</title>
<path fill="none" stroke="midnightblue" d="M2185.7,-348.074C2183.65,-333.901 2178.73,-308.77 2168,-290 2132.12,-227.229 2066.53,-170.717 2032.23,-143.728"/>
<polygon fill="midnightblue" stroke="midnightblue" points="2034.27,-140.88 2024.22,-137.517 2029.98,-146.412 2034.27,-140.88"/>
</g>
<!-- Node16&#45;&gt;Node22 -->
<g id="edge48" class="edge"><title>Node16&#45;&gt;Node22</title>
<path fill="none" stroke="midnightblue" d="M2205.71,-348.362C2221.38,-339.45 2243.96,-326.609 2261.66,-316.545"/>
<polygon fill="midnightblue" stroke="midnightblue" points="2263.45,-319.556 2270.41,-311.571 2259.99,-313.471 2263.45,-319.556"/>
</g>
<!-- Node23 -->
<g id="node48" class="node"><title>Node23</title>
<a xlink:href="knotgraph_8hpp.html" target="_top" xlink:title="knotgraph.hpp">
<polygon fill="none" stroke="black" points="1891,-290.5 1891,-311.5 1969,-311.5 1969,-290.5 1891,-290.5"/>
<text text-anchor="middle" x="1930" y="-298.5" font-family="Helvetica,sans-Serif" font-size="10.00">knotgraph.hpp</text>
</a>
</g>
<!-- Node16&#45;&gt;Node23 -->
<g id="edge50" class="edge"><title>Node16&#45;&gt;Node23</title>
<path fill="none" stroke="midnightblue" d="M2149.85,-350.065C2146.86,-349.361 2143.88,-348.665 2141,-348 2085.65,-335.218 2021.99,-321.12 1979.19,-311.731"/>
<polygon fill="midnightblue" stroke="midnightblue" points="1979.84,-308.289 1969.32,-309.567 1978.34,-315.126 1979.84,-308.289"/>
</g>
<!-- Node28 -->
<g id="node62" class="node"><title>Node28</title>
<a xlink:href="snapping__grid_8hpp.html" target="_top" xlink:title="snapping_grid.hpp">
<polygon fill="none" stroke="black" points="2116.5,-116.5 2116.5,-137.5 2211.5,-137.5 2211.5,-116.5 2116.5,-116.5"/>
<text text-anchor="middle" x="2164" y="-124.5" font-family="Helvetica,sans-Serif" font-size="10.00">snapping_grid.hpp</text>
</a>
</g>
<!-- Node16&#45;&gt;Node28 -->
<g id="edge68" class="edge"><title>Node16&#45;&gt;Node28</title>
<path fill="none" stroke="midnightblue" d="M2191.13,-348.372C2194.55,-338.974 2199.13,-324.806 2201,-312 2209.85,-251.308 2221.07,-231.955 2201,-174 2197.28,-163.255 2189.97,-153.103 2182.83,-145.003"/>
<polygon fill="midnightblue" stroke="midnightblue" points="2185.28,-142.508 2175.87,-137.64 2180.19,-147.314 2185.28,-142.508"/>
</g>
<!-- Node19 -->
<g id="node38" class="node"><title>Node19</title>
<a xlink:href="custom__item_8hpp.html" target="_top" xlink:title="custom_item.hpp">
<polygon fill="none" stroke="black" points="1964,-58.5 1964,-79.5 2056,-79.5 2056,-58.5 1964,-58.5"/>
<text text-anchor="middle" x="2010" y="-66.5" font-family="Helvetica,sans-Serif" font-size="10.00">custom_item.hpp</text>
</a>
</g>
<!-- Node18&#45;&gt;Node19 -->
<g id="edge38" class="edge"><title>Node18&#45;&gt;Node19</title>
<path fill="none" stroke="midnightblue" d="M1955.6,-174.237C1957.98,-160.238 1963.25,-135.297 1973,-116 1978.2,-105.711 1985.84,-95.5087 1992.84,-87.2518"/>
<polygon fill="midnightblue" stroke="midnightblue" points="1995.5,-89.5235 1999.5,-79.7124 1990.26,-84.8883 1995.5,-89.5235"/>
</g>
<!-- Node18&#45;&gt;Node21 -->
<g id="edge42" class="edge"><title>Node18&#45;&gt;Node21</title>
<path fill="none" stroke="midnightblue" d="M1964.27,-174.362C1972.24,-166.104 1983.47,-154.472 1992.81,-144.803"/>
<polygon fill="midnightblue" stroke="midnightblue" points="1995.37,-147.196 1999.79,-137.571 1990.33,-142.334 1995.37,-147.196"/>
</g>
<!-- Node20 -->
<g id="node40" class="node"><title>Node20</title>
<polygon fill="none" stroke="#bfbfbf" points="2025.5,-0.5 2025.5,-21.5 2108.5,-21.5 2108.5,-0.5 2025.5,-0.5"/>
<text text-anchor="middle" x="2067" y="-8.5" font-family="Helvetica,sans-Serif" font-size="10.00">QGraphicsItem</text>
</g>
<!-- Node19&#45;&gt;Node20 -->
<g id="edge40" class="edge"><title>Node19&#45;&gt;Node20</title>
<path fill="none" stroke="midnightblue" d="M2020.45,-58.3619C2028.57,-50.1043 2040,-38.4725 2049.5,-28.8029"/>
<polygon fill="midnightblue" stroke="midnightblue" points="2052.1,-31.1562 2056.61,-21.5707 2047.11,-26.2497 2052.1,-31.1562"/>
</g>
<!-- Node21&#45;&gt;Node19 -->
<g id="edge44" class="edge"><title>Node21&#45;&gt;Node19</title>
<path fill="none" stroke="midnightblue" d="M2010,-116.362C2010,-108.922 2010,-98.7427 2010,-89.7276"/>
<polygon fill="midnightblue" stroke="midnightblue" points="2013.5,-89.5706 2010,-79.5707 2006.5,-89.5707 2013.5,-89.5706"/>
</g>
<!-- Node23&#45;&gt;Node18 -->
<g id="edge54" class="edge"><title>Node23&#45;&gt;Node18</title>
<path fill="none" stroke="midnightblue" d="M1936.58,-290.261C1941.86,-281.024 1948.87,-267.148 1952,-254 1955.72,-238.333 1956.09,-220.102 1955.6,-206.316"/>
<polygon fill="midnightblue" stroke="midnightblue" points="1959.07,-205.731 1955.04,-195.934 1952.08,-206.109 1959.07,-205.731"/>
</g>
<!-- Node23&#45;&gt;Node21 -->
<g id="edge56" class="edge"><title>Node23&#45;&gt;Node21</title>
<path fill="none" stroke="midnightblue" d="M1939.73,-290.413C1947.78,-281.269 1959.13,-267.443 1967,-254 1987.27,-219.372 1999.74,-173.797 2005.72,-147.716"/>
<polygon fill="midnightblue" stroke="midnightblue" points="2009.17,-148.339 2007.89,-137.822 2002.33,-146.839 2009.17,-148.339"/>
</g>
<!-- Node24 -->
<g id="node50" class="node"><title>Node24</title>
<polygon fill="none" stroke="#bfbfbf" points="1770.5,-174.5 1770.5,-195.5 1845.5,-195.5 1845.5,-174.5 1770.5,-174.5"/>
<text text-anchor="middle" x="1808" y="-182.5" font-family="Helvetica,sans-Serif" font-size="10.00">QPainterPath</text>
</g>
<!-- Node23&#45;&gt;Node24 -->
<g id="edge52" class="edge"><title>Node23&#45;&gt;Node24</title>
<path fill="none" stroke="midnightblue" d="M1890.88,-292.866C1868.16,-286.159 1840.8,-274.328 1824,-254 1812.89,-240.555 1809.18,-220.826 1808.08,-205.904"/>
<polygon fill="midnightblue" stroke="midnightblue" points="1811.56,-205.467 1807.67,-195.614 1804.57,-205.746 1811.56,-205.467"/>
</g>
<!-- Node25 -->
<g id="node54" class="node"><title>Node25</title>
<polygon fill="none" stroke="#bfbfbf" points="1674.5,-232.5 1674.5,-253.5 1777.5,-253.5 1777.5,-232.5 1674.5,-232.5"/>
<text text-anchor="middle" x="1726" y="-240.5" font-family="Helvetica,sans-Serif" font-size="10.00">QGraphicsPathItem</text>
</g>
<!-- Node23&#45;&gt;Node25 -->
<g id="edge58" class="edge"><title>Node23&#45;&gt;Node25</title>
<path fill="none" stroke="midnightblue" d="M1893.06,-290.497C1859.37,-280.918 1809.43,-266.72 1772.93,-256.342"/>
<polygon fill="midnightblue" stroke="midnightblue" points="1773.59,-252.891 1763.01,-253.523 1771.67,-259.624 1773.59,-252.891"/>
</g>
<!-- Node26 -->
<g id="node56" class="node"><title>Node26</title>
<a xlink:href="knot__curve__style_8hpp.html" target="_top" xlink:title="knot_curve_style.hpp">
<polygon fill="none" stroke="black" points="1833,-232.5 1833,-253.5 1943,-253.5 1943,-232.5 1833,-232.5"/>
<text text-anchor="middle" x="1888" y="-240.5" font-family="Helvetica,sans-Serif" font-size="10.00">knot_curve_style.hpp</text>
</a>
</g>
<!-- Node23&#45;&gt;Node26 -->
<g id="edge60" class="edge"><title>Node23&#45;&gt;Node26</title>
<path fill="none" stroke="midnightblue" d="M1922.3,-290.362C1916.55,-282.431 1908.56,-271.389 1901.73,-261.961"/>
<polygon fill="midnightblue" stroke="midnightblue" points="1904.35,-259.617 1895.65,-253.571 1898.68,-263.723 1904.35,-259.617"/>
</g>
<!-- Node26&#45;&gt;Node18 -->
<g id="edge62" class="edge"><title>Node26&#45;&gt;Node18</title>
<path fill="none" stroke="midnightblue" d="M1900.11,-232.362C1909.69,-223.941 1923.26,-212.011 1934.39,-202.231"/>
<polygon fill="midnightblue" stroke="midnightblue" points="1936.77,-204.801 1941.97,-195.571 1932.15,-199.543 1936.77,-204.801"/>
</g>
<!-- Node26&#45;&gt;Node24 -->
<g id="edge64" class="edge"><title>Node26&#45;&gt;Node24</title>
<path fill="none" stroke="midnightblue" d="M1873.33,-232.362C1861.49,-223.777 1844.61,-211.546 1830.98,-201.664"/>
<polygon fill="midnightblue" stroke="midnightblue" points="1832.73,-198.607 1822.58,-195.571 1828.62,-204.274 1832.73,-198.607"/>
</g>
<!-- Node27 -->
<g id="node60" class="node"><title>Node27</title>
<polygon fill="none" stroke="#bfbfbf" points="1865.5,-174.5 1865.5,-195.5 1908.5,-195.5 1908.5,-174.5 1865.5,-174.5"/>
<text text-anchor="middle" x="1887" y="-182.5" font-family="Helvetica,sans-Serif" font-size="10.00">QMap</text>
</g>
<!-- Node26&#45;&gt;Node27 -->
<g id="edge66" class="edge"><title>Node26&#45;&gt;Node27</title>
<path fill="none" stroke="midnightblue" d="M1887.82,-232.362C1887.69,-224.922 1887.51,-214.743 1887.36,-205.728"/>
<polygon fill="midnightblue" stroke="midnightblue" points="1890.85,-205.509 1887.18,-195.571 1883.86,-205.63 1890.85,-205.509"/>
</g>
<!-- Node28&#45;&gt;Node20 -->
<g id="edge70" class="edge"><title>Node28&#45;&gt;Node20</title>
<path fill="none" stroke="midnightblue" d="M2155.05,-116.295C2138.52,-96.5271 2103.02,-54.0801 2082.51,-29.5443"/>
<polygon fill="midnightblue" stroke="midnightblue" points="2085.03,-27.1054 2075.93,-21.6792 2079.66,-31.5958 2085.03,-27.1054"/>
</g>
<!-- Node31 -->
<g id="node70" class="node"><title>Node31</title>
<a xlink:href="ui__style__dialog_8h.html" target="_top" xlink:title="ui_style_dialog.h">
<polygon fill="none" stroke="black" points="819.5,-406.5 819.5,-427.5 908.5,-427.5 908.5,-406.5 819.5,-406.5"/>
<text text-anchor="middle" x="864" y="-414.5" font-family="Helvetica,sans-Serif" font-size="10.00">ui_style_dialog.h</text>
</a>
</g>
<!-- Node30&#45;&gt;Node31 -->
<g id="edge78" class="edge"><title>Node30&#45;&gt;Node31</title>
<path fill="none" stroke="midnightblue" d="M1297.4,-469.699C1210.2,-459.095 1014.45,-435.293 918.758,-423.658"/>
<polygon fill="midnightblue" stroke="midnightblue" points="919.056,-420.169 908.707,-422.436 918.211,-427.118 919.056,-420.169"/>
</g>
<!-- Node31&#45;&gt;Node2 -->
<g id="edge84" class="edge"><title>Node31&#45;&gt;Node2</title>
<path fill="none" stroke="midnightblue" d="M908.612,-410.072C963.433,-401.487 1059.56,-386.198 1151.46,-370.244"/>
<polygon fill="midnightblue" stroke="midnightblue" points="1152.23,-373.662 1161.48,-368.498 1151.03,-366.766 1152.23,-373.662"/>
</g>
<!-- Node31&#45;&gt;Node5 -->
<g id="edge80" class="edge"><title>Node31&#45;&gt;Node5</title>
<path fill="none" stroke="midnightblue" d="M906.738,-406.497C946.212,-396.795 1004.97,-382.355 1047.33,-371.945"/>
<polygon fill="midnightblue" stroke="midnightblue" points="1048.31,-375.309 1057.18,-369.523 1046.64,-368.511 1048.31,-375.309"/>
</g>
<!-- Node31&#45;&gt;Node6 -->
<g id="edge82" class="edge"><title>Node31&#45;&gt;Node6</title>
<path fill="none" stroke="midnightblue" d="M908.785,-413.39C982.14,-407.138 1132.63,-392.887 1269.69,-370.08"/>
<polygon fill="midnightblue" stroke="midnightblue" points="1270.68,-373.464 1279.96,-368.352 1269.51,-366.561 1270.68,-373.464"/>
</g>
<!-- Node31&#45;&gt;Node7 -->
<g id="edge86" class="edge"><title>Node31&#45;&gt;Node7</title>
<path fill="none" stroke="midnightblue" d="M908.726,-414.087C995.31,-408.176 1192.03,-393.431 1367.1,-370.176"/>
<polygon fill="midnightblue" stroke="midnightblue" points="1367.83,-373.611 1377.27,-368.813 1366.9,-366.673 1367.83,-373.611"/>
</g>
<!-- Node31&#45;&gt;Node8 -->
<g id="edge96" class="edge"><title>Node31&#45;&gt;Node8</title>
<path fill="none" stroke="midnightblue" d="M864,-406.362C864,-398.922 864,-388.743 864,-379.728"/>
<polygon fill="midnightblue" stroke="midnightblue" points="867.5,-379.571 864,-369.571 860.5,-379.571 867.5,-379.571"/>
</g>
<!-- Node31&#45;&gt;Node9 -->
<g id="edge100" class="edge"><title>Node31&#45;&gt;Node9</title>
<path fill="none" stroke="midnightblue" d="M885.912,-406.497C904.811,-397.438 932.331,-384.246 953.576,-374.063"/>
<polygon fill="midnightblue" stroke="midnightblue" points="955.337,-377.1 962.842,-369.621 952.311,-370.788 955.337,-377.1"/>
</g>
<!-- Node31&#45;&gt;Node16 -->
<g id="edge116" class="edge"><title>Node31&#45;&gt;Node16</title>
<path fill="none" stroke="midnightblue" d="M908.642,-416.542C1102.79,-414.371 1875.4,-403.826 2140.01,-369.845"/>
<polygon fill="midnightblue" stroke="midnightblue" points="2140.51,-373.309 2149.96,-368.522 2139.59,-366.37 2140.51,-373.309"/>
</g>
<!-- Node32 -->
<g id="node76" class="node"><title>Node32</title>
<polygon fill="none" stroke="#bfbfbf" points="453.5,-348.5 453.5,-369.5 554.5,-369.5 554.5,-348.5 453.5,-348.5"/>
<text text-anchor="middle" x="504" y="-356.5" font-family="Helvetica,sans-Serif" font-size="10.00">QtGui/QComboBox</text>
</g>
<!-- Node31&#45;&gt;Node32 -->
<g id="edge88" class="edge"><title>Node31&#45;&gt;Node32</title>
<path fill="none" stroke="midnightblue" d="M819.31,-410.442C762.424,-402.001 660.867,-386.621 564.429,-370.213"/>
<polygon fill="midnightblue" stroke="midnightblue" points="564.96,-366.753 554.513,-368.519 563.781,-373.653 564.96,-366.753"/>
</g>
<!-- Node33 -->
<g id="node78" class="node"><title>Node33</title>
<polygon fill="none" stroke="#bfbfbf" points="572,-348.5 572,-369.5 652,-369.5 652,-348.5 572,-348.5"/>
<text text-anchor="middle" x="612" y="-356.5" font-family="Helvetica,sans-Serif" font-size="10.00">QtGui/QDialog</text>
</g>
<!-- Node31&#45;&gt;Node33 -->
<g id="edge90" class="edge"><title>Node31&#45;&gt;Node33</title>
<path fill="none" stroke="midnightblue" d="M819.238,-406.698C775.189,-396.559 708.047,-381.106 662.206,-370.555"/>
<polygon fill="midnightblue" stroke="midnightblue" points="662.72,-367.082 652.19,-368.25 661.15,-373.904 662.72,-367.082"/>
</g>
<!-- Node34 -->
<g id="node80" class="node"><title>Node34</title>
<polygon fill="none" stroke="#bfbfbf" points="670,-348.5 670,-369.5 796,-369.5 796,-348.5 670,-348.5"/>
<text text-anchor="middle" x="733" y="-356.5" font-family="Helvetica,sans-Serif" font-size="10.00">QtGui/QDialogButtonBox</text>
</g>
<!-- Node31&#45;&gt;Node34 -->
<g id="edge92" class="edge"><title>Node31&#45;&gt;Node34</title>
<path fill="none" stroke="midnightblue" d="M840.277,-406.497C819.632,-397.356 789.484,-384.008 766.401,-373.788"/>
<polygon fill="midnightblue" stroke="midnightblue" points="767.55,-370.469 756.989,-369.621 764.716,-376.87 767.55,-370.469"/>
</g>
<!-- Node35 -->
<g id="node82" class="node"><title>Node35</title>
<polygon fill="none" stroke="#bfbfbf" points="0,-348.5 0,-369.5 120,-369.5 120,-348.5 0,-348.5"/>
<text text-anchor="middle" x="60" y="-356.5" font-family="Helvetica,sans-Serif" font-size="10.00">QtGui/QDoubleSpinBox</text>
</g>
<!-- Node31&#45;&gt;Node35 -->
<g id="edge94" class="edge"><title>Node31&#45;&gt;Node35</title>
<path fill="none" stroke="midnightblue" d="M819.128,-415.604C705.576,-411.755 397.466,-399.35 130.445,-370.072"/>
<polygon fill="midnightblue" stroke="midnightblue" points="130.49,-366.555 120.165,-368.934 129.72,-373.513 130.49,-366.555"/>
</g>
<!-- Node36 -->
<g id="node85" class="node"><title>Node36</title>
<polygon fill="none" stroke="#bfbfbf" points="232,-348.5 232,-369.5 328,-369.5 328,-348.5 232,-348.5"/>
<text text-anchor="middle" x="280" y="-356.5" font-family="Helvetica,sans-Serif" font-size="10.00">QtGui/QGroupBox</text>
</g>
<!-- Node31&#45;&gt;Node36 -->
<g id="edge98" class="edge"><title>Node31&#45;&gt;Node36</title>
<path fill="none" stroke="midnightblue" d="M819.407,-414.558C730.039,-409.333 522.504,-395.533 338.288,-370.065"/>
<polygon fill="midnightblue" stroke="midnightblue" points="338.533,-366.566 328.144,-368.648 337.564,-373.498 338.533,-366.566"/>
</g>
<!-- Node37 -->
<g id="node88" class="node"><title>Node37</title>
<polygon fill="none" stroke="#bfbfbf" points="138,-348.5 138,-369.5 214,-369.5 214,-348.5 138,-348.5"/>
<text text-anchor="middle" x="176" y="-356.5" font-family="Helvetica,sans-Serif" font-size="10.00">QtGui/QLabel</text>
</g>
<!-- Node31&#45;&gt;Node37 -->
<g id="edge102" class="edge"><title>Node31&#45;&gt;Node37</title>
<path fill="none" stroke="midnightblue" d="M819.435,-416.132C716.295,-413.609 453.124,-404.224 224.304,-369.993"/>
<polygon fill="midnightblue" stroke="midnightblue" points="224.534,-366.488 214.122,-368.449 223.485,-373.409 224.534,-366.488"/>
</g>
<!-- Node38 -->
<g id="node90" class="node"><title>Node38</title>
<a xlink:href="color__widget_8hpp.html" target="_top" xlink:title="color_widget.hpp">
<polygon fill="none" stroke="black" points="346,-348.5 346,-369.5 436,-369.5 436,-348.5 346,-348.5"/>
<text text-anchor="middle" x="391" y="-356.5" font-family="Helvetica,sans-Serif" font-size="10.00">color_widget.hpp</text>
</a>
</g>
<!-- Node31&#45;&gt;Node38 -->
<g id="edge104" class="edge"><title>Node31&#45;&gt;Node38</title>
<path fill="none" stroke="midnightblue" d="M819.483,-413.322C744.553,-406.845 588.303,-392.109 446.23,-370.083"/>
<polygon fill="midnightblue" stroke="midnightblue" points="446.448,-366.575 436.027,-368.485 445.365,-373.491 446.448,-366.575"/>
</g>
<!-- Node39 -->
<g id="node92" class="node"><title>Node39</title>
<polygon fill="none" stroke="#bfbfbf" points="444.5,-290.5 444.5,-311.5 503.5,-311.5 503.5,-290.5 444.5,-290.5"/>
<text text-anchor="middle" x="474" y="-298.5" font-family="Helvetica,sans-Serif" font-size="10.00">QLineEdit</text>
</g>
<!-- Node38&#45;&gt;Node39 -->
<g id="edge106" class="edge"><title>Node38&#45;&gt;Node39</title>
<path fill="none" stroke="midnightblue" d="M406.223,-348.362C418.625,-339.696 436.346,-327.313 450.557,-317.382"/>
<polygon fill="midnightblue" stroke="midnightblue" points="452.681,-320.168 458.873,-311.571 448.671,-314.43 452.681,-320.168"/>
</g>
<!-- Node40 -->
<g id="node94" class="node"><title>Node40</title>
<polygon fill="none" stroke="#bfbfbf" points="520.5,-290.5 520.5,-311.5 595.5,-311.5 595.5,-290.5 520.5,-290.5"/>
<text text-anchor="middle" x="558" y="-298.5" font-family="Helvetica,sans-Serif" font-size="10.00">QColorDialog</text>
</g>
<!-- Node38&#45;&gt;Node40 -->
<g id="edge108" class="edge"><title>Node38&#45;&gt;Node40</title>
<path fill="none" stroke="midnightblue" d="M421.242,-348.497C448.35,-339.082 488.31,-325.204 518.043,-314.877"/>
<polygon fill="midnightblue" stroke="midnightblue" points="519.403,-318.11 527.701,-311.523 517.106,-311.498 519.403,-318.11"/>
</g>
<!-- Node41 -->
<g id="node96" class="node"><title>Node41</title>
<polygon fill="none" stroke="#bfbfbf" points="355,-290.5 355,-311.5 427,-311.5 427,-290.5 355,-290.5"/>
<text text-anchor="middle" x="391" y="-298.5" font-family="Helvetica,sans-Serif" font-size="10.00">QPaintEvent</text>
</g>
<!-- Node38&#45;&gt;Node41 -->
<g id="edge110" class="edge"><title>Node38&#45;&gt;Node41</title>
<path fill="none" stroke="midnightblue" d="M391,-348.362C391,-340.922 391,-330.743 391,-321.728"/>
<polygon fill="midnightblue" stroke="midnightblue" points="394.5,-321.571 391,-311.571 387.5,-321.571 394.5,-321.571"/>
</g>
<!-- Node42 -->
<g id="node98" class="node"><title>Node42</title>
<polygon fill="none" stroke="#bfbfbf" points="150.5,-290.5 150.5,-311.5 205.5,-311.5 205.5,-290.5 150.5,-290.5"/>
<text text-anchor="middle" x="178" y="-298.5" font-family="Helvetica,sans-Serif" font-size="10.00">QPainter</text>
</g>
<!-- Node38&#45;&gt;Node42 -->
<g id="edge112" class="edge"><title>Node38&#45;&gt;Node42</title>
<path fill="none" stroke="midnightblue" d="M349.396,-348.416C315.627,-339.722 266.554,-326.853 215.724,-312.436"/>
<polygon fill="midnightblue" stroke="midnightblue" points="216.454,-309.005 205.878,-309.63 214.536,-315.736 216.454,-309.005"/>
</g>
<!-- Node43 -->
<g id="node100" class="node"><title>Node43</title>
<polygon fill="none" stroke="#bfbfbf" points="222.5,-290.5 222.5,-311.5 337.5,-311.5 337.5,-290.5 222.5,-290.5"/>
<text text-anchor="middle" x="280" y="-298.5" font-family="Helvetica,sans-Serif" font-size="10.00">QStyleOptionFrameV3</text>
</g>
<!-- Node38&#45;&gt;Node43 -->
<g id="edge114" class="edge"><title>Node38&#45;&gt;Node43</title>
<path fill="none" stroke="midnightblue" d="M370.899,-348.497C353.718,-339.519 328.77,-326.484 309.355,-316.339"/>
<polygon fill="midnightblue" stroke="midnightblue" points="310.811,-313.15 300.327,-311.621 307.569,-319.354 310.811,-313.15"/>
</g>
<!-- Node44&#45;&gt;Node16 -->
<g id="edge120" class="edge"><title>Node44&#45;&gt;Node16</title>
<path fill="none" stroke="midnightblue" d="M1960.09,-409.268C2001.47,-400.581 2070.7,-385.879 2139.69,-370.266"/>
<polygon fill="midnightblue" stroke="midnightblue" points="2140.88,-373.584 2149.86,-367.957 2139.33,-366.758 2140.88,-373.584"/>
</g>
</g>
</svg>
