<?xml version="1.0" encoding="UTF-8" standalone="no"?>
<!DOCTYPE svg PUBLIC "-//W3C//DTD SVG 1.1//EN"
 "http://www.w3.org/Graphics/SVG/1.1/DTD/svg11.dtd">
<!-- Generated by graphviz version 2.26.3 (20100126.1600)
 -->
<!-- Title: G Pages: 1 -->
<svg width="1458pt" height="204pt"
 viewBox="0.00 0.00 1458.00 204.00" xmlns="http://www.w3.org/2000/svg" xmlns:xlink="http://www.w3.org/1999/xlink">
<g id="graph1" class="graph" transform="scale(1 1) rotate(0) translate(4 200)">
<title>G</title>
<!-- Node1 -->
<g id="node1" class="node"><title>Node1</title>
<polygon fill="#bfbfbf" stroke="black" points="796,-174.5 796,-195.5 852,-195.5 852,-174.5 796,-174.5"/>
<text text-anchor="middle" x="824" y="-182.5" font-family="Helvetica,sans-Serif" font-size="10.00">main.cpp</text>
</g>
<!-- Node2 -->
<g id="node3" class="node"><title>Node2</title>
<polygon fill="none" stroke="#bfbfbf" points="-0.5,-0.5 -0.5,-21.5 100.5,-21.5 100.5,-0.5 -0.5,-0.5"/>
<text text-anchor="middle" x="50" y="-8.5" font-family="Helvetica,sans-Serif" font-size="10.00">QtGui/QApplication</text>
</g>
<!-- Node1&#45;&gt;Node2 -->
<g id="edge2" class="edge"><title>Node1&#45;&gt;Node2</title>
<path fill="none" stroke="midnightblue" d="M795.996,-178.704C683.267,-153.362 261.359,-58.5148 107.017,-23.8178"/>
<polygon fill="midnightblue" stroke="midnightblue" points="107.333,-20.3015 96.8087,-21.5229 105.798,-27.1311 107.333,-20.3015"/>
</g>
<!-- Node3 -->
<g id="node5" class="node"><title>Node3</title>
<a xlink:href="knot__window_8hpp.html" target="_top" xlink:title="knot_window.hpp">
<polygon fill="none" stroke="black" points="778,-116.5 778,-137.5 870,-137.5 870,-116.5 778,-116.5"/>
<text text-anchor="middle" x="824" y="-124.5" font-family="Helvetica,sans-Serif" font-size="10.00">knot_window.hpp</text>
</a>
</g>
<!-- Node1&#45;&gt;Node3 -->
<g id="edge4" class="edge"><title>Node1&#45;&gt;Node3</title>
<path fill="none" stroke="midnightblue" d="M824,-174.362C824,-166.922 824,-156.743 824,-147.728"/>
<polygon fill="midnightblue" stroke="midnightblue" points="827.5,-147.571 824,-137.571 820.5,-147.571 827.5,-147.571"/>
</g>
<!-- Node21 -->
<g id="node42" class="node"><title>Node21</title>
<polygon fill="none" stroke="#bfbfbf" points="888,-116.5 888,-137.5 956,-137.5 956,-116.5 888,-116.5"/>
<text text-anchor="middle" x="922" y="-124.5" font-family="Helvetica,sans-Serif" font-size="10.00">QTranslator</text>
</g>
<!-- Node1&#45;&gt;Node21 -->
<g id="edge42" class="edge"><title>Node1&#45;&gt;Node21</title>
<path fill="none" stroke="midnightblue" d="M841.975,-174.362C856.894,-165.532 878.333,-152.844 895.266,-142.822"/>
<polygon fill="midnightblue" stroke="midnightblue" points="897.316,-145.676 904.139,-137.571 893.751,-139.652 897.316,-145.676"/>
</g>
<!-- Node4 -->
<g id="node7" class="node"><title>Node4</title>
<a xlink:href="ui__knot__window_8h.html" target="_top" xlink:title="ui_knot_window.h">
<polygon fill="none" stroke="black" points="631.5,-58.5 631.5,-79.5 726.5,-79.5 726.5,-58.5 631.5,-58.5"/>
<text text-anchor="middle" x="679" y="-66.5" font-family="Helvetica,sans-Serif" font-size="10.00">ui_knot_window.h</text>
</a>
</g>
<!-- Node3&#45;&gt;Node4 -->
<g id="edge6" class="edge"><title>Node3&#45;&gt;Node4</title>
<path fill="none" stroke="midnightblue" d="M797.742,-116.497C774.584,-107.234 740.625,-93.6499 714.948,-83.3793"/>
<polygon fill="midnightblue" stroke="midnightblue" points="716.138,-80.0855 705.553,-79.6212 713.538,-86.5849 716.138,-80.0855"/>
</g>
<!-- Node17 -->
<g id="node34" class="node"><title>Node17</title>
<polygon fill="none" stroke="#bfbfbf" points="743.5,-58.5 743.5,-79.5 816.5,-79.5 816.5,-58.5 743.5,-58.5"/>
<text text-anchor="middle" x="780" y="-66.5" font-family="Helvetica,sans-Serif" font-size="10.00">QUndoStack</text>
</g>
<!-- Node3&#45;&gt;Node17 -->
<g id="edge34" class="edge"><title>Node3&#45;&gt;Node17</title>
<path fill="none" stroke="midnightblue" d="M815.93,-116.362C809.851,-108.35 801.363,-97.1605 794.163,-87.6696"/>
<polygon fill="midnightblue" stroke="midnightblue" points="796.851,-85.4222 788.019,-79.5707 791.275,-89.653 796.851,-85.4222"/>
</g>
<!-- Node18 -->
<g id="node36" class="node"><title>Node18</title>
<polygon fill="none" stroke="#bfbfbf" points="833.5,-58.5 833.5,-79.5 902.5,-79.5 902.5,-58.5 833.5,-58.5"/>
<text text-anchor="middle" x="868" y="-66.5" font-family="Helvetica,sans-Serif" font-size="10.00">QUndoView</text>
</g>
<!-- Node3&#45;&gt;Node18 -->
<g id="edge36" class="edge"><title>Node3&#45;&gt;Node18</title>
<path fill="none" stroke="midnightblue" d="M832.07,-116.362C838.149,-108.35 846.637,-97.1605 853.837,-87.6696"/>
<polygon fill="midnightblue" stroke="midnightblue" points="856.725,-89.653 859.981,-79.5707 851.149,-85.4222 856.725,-89.653"/>
</g>
<!-- Node19 -->
<g id="node38" class="node"><title>Node19</title>
<polygon fill="none" stroke="#bfbfbf" points="919.5,-58.5 919.5,-79.5 1040.5,-79.5 1040.5,-58.5 919.5,-58.5"/>
<text text-anchor="middle" x="980" y="-66.5" font-family="Helvetica,sans-Serif" font-size="10.00">dialogs/style_dialog.hpp</text>
</g>
<!-- Node3&#45;&gt;Node19 -->
<g id="edge38" class="edge"><title>Node3&#45;&gt;Node19</title>
<path fill="none" stroke="midnightblue" d="M852.25,-116.497C877.462,-107.123 914.576,-93.3242 942.312,-83.0122"/>
<polygon fill="midnightblue" stroke="midnightblue" points="943.543,-86.2886 951.697,-79.5231 941.104,-79.7274 943.543,-86.2886"/>
</g>
<!-- Node20 -->
<g id="node40" class="node"><title>Node20</title>
<polygon fill="none" stroke="#bfbfbf" points="1058,-58.5 1058,-79.5 1172,-79.5 1172,-58.5 1058,-58.5"/>
<text text-anchor="middle" x="1115" y="-66.5" font-family="Helvetica,sans-Serif" font-size="10.00">graphics/clipboard.hpp</text>
</g>
<!-- Node3&#45;&gt;Node20 -->
<g id="edge40" class="edge"><title>Node3&#45;&gt;Node20</title>
<path fill="none" stroke="midnightblue" d="M870.213,-117.755C873.186,-117.161 876.135,-116.572 879,-116 937.711,-104.283 1004.64,-90.9556 1052.2,-81.4929"/>
<polygon fill="midnightblue" stroke="midnightblue" points="1052.92,-84.9187 1062.04,-79.5343 1051.55,-78.0533 1052.92,-84.9187"/>
</g>
<!-- Node4&#45;&gt;Node2 -->
<g id="edge12" class="edge"><title>Node4&#45;&gt;Node2</title>
<path fill="none" stroke="midnightblue" d="M631.156,-66.7079C534.58,-61.7237 309.288,-48.2881 110.823,-22.1457"/>
<polygon fill="midnightblue" stroke="midnightblue" points="111.17,-18.661 100.796,-20.8108 110.247,-25.5998 111.17,-18.661"/>
</g>
<!-- Node5 -->
<g id="node9" class="node"><title>Node5</title>
<polygon fill="none" stroke="#bfbfbf" points="117.5,-0.5 117.5,-21.5 206.5,-21.5 206.5,-0.5 117.5,-0.5"/>
<text text-anchor="middle" x="162" y="-8.5" font-family="Helvetica,sans-Serif" font-size="10.00">QtCore/QVariant</text>
</g>
<!-- Node4&#45;&gt;Node5 -->
<g id="edge8" class="edge"><title>Node4&#45;&gt;Node5</title>
<path fill="none" stroke="midnightblue" d="M631.368,-65.8132C548.886,-59.9383 373.972,-45.9111 217.068,-22.2056"/>
<polygon fill="midnightblue" stroke="midnightblue" points="217.174,-18.6812 206.76,-20.6301 216.117,-25.6009 217.174,-18.6812"/>
</g>
<!-- Node6 -->
<g id="node11" class="node"><title>Node6</title>
<polygon fill="none" stroke="#bfbfbf" points="224,-0.5 224,-21.5 304,-21.5 304,-0.5 224,-0.5"/>
<text text-anchor="middle" x="264" y="-8.5" font-family="Helvetica,sans-Serif" font-size="10.00">QtGui/QAction</text>
</g>
<!-- Node4&#45;&gt;Node6 -->
<g id="edge10" class="edge"><title>Node4&#45;&gt;Node6</title>
<path fill="none" stroke="midnightblue" d="M631.409,-64.3191C563.291,-57.305 433.891,-42.8151 314.126,-22.0739"/>
<polygon fill="midnightblue" stroke="midnightblue" points="314.504,-18.5869 304.05,-20.3099 313.297,-25.482 314.504,-18.5869"/>
</g>
<!-- Node7 -->
<g id="node14" class="node"><title>Node7</title>
<polygon fill="none" stroke="#bfbfbf" points="321.5,-0.5 321.5,-21.5 428.5,-21.5 428.5,-0.5 321.5,-0.5"/>
<text text-anchor="middle" x="375" y="-8.5" font-family="Helvetica,sans-Serif" font-size="10.00">QtGui/QButtonGroup</text>
</g>
<!-- Node4&#45;&gt;Node7 -->
<g id="edge14" class="edge"><title>Node4&#45;&gt;Node7</title>
<path fill="none" stroke="midnightblue" d="M631.166,-59.8737C579.27,-49.9726 496.161,-34.1162 438.75,-23.1628"/>
<polygon fill="midnightblue" stroke="midnightblue" points="439.178,-19.6814 428.699,-21.2452 437.866,-26.5574 439.178,-19.6814"/>
</g>
<!-- Node8 -->
<g id="node16" class="node"><title>Node8</title>
<polygon fill="none" stroke="#bfbfbf" points="446,-0.5 446,-21.5 546,-21.5 546,-0.5 446,-0.5"/>
<text text-anchor="middle" x="496" y="-8.5" font-family="Helvetica,sans-Serif" font-size="10.00">QtGui/QGridLayout</text>
</g>
<!-- Node4&#45;&gt;Node8 -->
<g id="edge16" class="edge"><title>Node4&#45;&gt;Node8</title>
<path fill="none" stroke="midnightblue" d="M645.86,-58.4966C615.897,-49.0001 571.604,-34.9619 538.938,-24.6087"/>
<polygon fill="midnightblue" stroke="midnightblue" points="539.792,-21.208 529.202,-21.5231 537.677,-27.8809 539.792,-21.208"/>
</g>
<!-- Node9 -->
<g id="node18" class="node"><title>Node9</title>
<polygon fill="none" stroke="#bfbfbf" points="564,-0.5 564,-21.5 670,-21.5 670,-0.5 564,-0.5"/>
<text text-anchor="middle" x="617" y="-8.5" font-family="Helvetica,sans-Serif" font-size="10.00">QtGui/QHeaderView</text>
</g>
<!-- Node4&#45;&gt;Node9 -->
<g id="edge18" class="edge"><title>Node4&#45;&gt;Node9</title>
<path fill="none" stroke="midnightblue" d="M667.628,-58.3619C658.714,-50.0226 646.121,-38.2418 635.724,-28.5162"/>
<polygon fill="midnightblue" stroke="midnightblue" points="637.993,-25.8463 628.3,-21.5707 633.211,-30.9582 637.993,-25.8463"/>
</g>
<!-- Node10 -->
<g id="node20" class="node"><title>Node10</title>
<polygon fill="none" stroke="#bfbfbf" points="687.5,-0.5 687.5,-21.5 796.5,-21.5 796.5,-0.5 687.5,-0.5"/>
<text text-anchor="middle" x="742" y="-8.5" font-family="Helvetica,sans-Serif" font-size="10.00">QtGui/QMainWindow</text>
</g>
<!-- Node4&#45;&gt;Node10 -->
<g id="edge20" class="edge"><title>Node4&#45;&gt;Node10</title>
<path fill="none" stroke="midnightblue" d="M690.555,-58.3619C699.613,-50.0226 712.41,-38.2418 722.974,-28.5162"/>
<polygon fill="midnightblue" stroke="midnightblue" points="725.532,-30.9187 730.518,-21.5707 720.79,-25.7688 725.532,-30.9187"/>
</g>
<!-- Node11 -->
<g id="node22" class="node"><title>Node11</title>
<polygon fill="none" stroke="#bfbfbf" points="813.5,-0.5 813.5,-21.5 890.5,-21.5 890.5,-0.5 813.5,-0.5"/>
<text text-anchor="middle" x="852" y="-8.5" font-family="Helvetica,sans-Serif" font-size="10.00">QtGui/QMenu</text>
</g>
<!-- Node4&#45;&gt;Node11 -->
<g id="edge22" class="edge"><title>Node4&#45;&gt;Node11</title>
<path fill="none" stroke="midnightblue" d="M710.329,-58.4966C738.533,-49.0411 780.167,-35.0829 811.009,-24.7428"/>
<polygon fill="midnightblue" stroke="midnightblue" points="812.243,-28.0203 820.612,-21.5231 810.018,-21.3834 812.243,-28.0203"/>
</g>
<!-- Node12 -->
<g id="node24" class="node"><title>Node12</title>
<polygon fill="none" stroke="#bfbfbf" points="908,-0.5 908,-21.5 1000,-21.5 1000,-0.5 908,-0.5"/>
<text text-anchor="middle" x="954" y="-8.5" font-family="Helvetica,sans-Serif" font-size="10.00">QtGui/QMenuBar</text>
</g>
<!-- Node4&#45;&gt;Node12 -->
<g id="edge24" class="edge"><title>Node4&#45;&gt;Node12</title>
<path fill="none" stroke="midnightblue" d="M726.587,-58.9634C774.192,-48.9232 847.4,-33.4828 897.828,-22.8472"/>
<polygon fill="midnightblue" stroke="midnightblue" points="898.848,-26.2092 907.91,-20.7208 897.403,-19.3599 898.848,-26.2092"/>
</g>
<!-- Node13 -->
<g id="node26" class="node"><title>Node13</title>
<polygon fill="none" stroke="#bfbfbf" points="1018,-0.5 1018,-21.5 1114,-21.5 1114,-0.5 1018,-0.5"/>
<text text-anchor="middle" x="1066" y="-8.5" font-family="Helvetica,sans-Serif" font-size="10.00">QtGui/QStatusBar</text>
</g>
<!-- Node4&#45;&gt;Node13 -->
<g id="edge26" class="edge"><title>Node4&#45;&gt;Node13</title>
<path fill="none" stroke="midnightblue" d="M726.622,-59.4327C729.453,-58.9301 732.262,-58.4483 735,-58 853.014,-38.6764 886.031,-41.4777 1007.75,-22.1275"/>
<polygon fill="midnightblue" stroke="midnightblue" points="1008.52,-25.5488 1017.83,-20.5058 1007.41,-18.6375 1008.52,-25.5488"/>
</g>
<!-- Node14 -->
<g id="node28" class="node"><title>Node14</title>
<polygon fill="none" stroke="#bfbfbf" points="1132,-0.5 1132,-21.5 1218,-21.5 1218,-0.5 1132,-0.5"/>
<text text-anchor="middle" x="1175" y="-8.5" font-family="Helvetica,sans-Serif" font-size="10.00">QtGui/QToolBar</text>
</g>
<!-- Node4&#45;&gt;Node14 -->
<g id="edge28" class="edge"><title>Node4&#45;&gt;Node14</title>
<path fill="none" stroke="midnightblue" d="M726.603,-59.3084C729.439,-58.837 732.254,-58.396 735,-58 903.231,-33.7366 950.046,-47.4332 1122.05,-21.9957"/>
<polygon fill="midnightblue" stroke="midnightblue" points="1122.57,-25.4567 1131.94,-20.5105 1121.53,-18.5343 1122.57,-25.4567"/>
</g>
<!-- Node15 -->
<g id="node30" class="node"><title>Node15</title>
<polygon fill="none" stroke="#bfbfbf" points="1235.5,-0.5 1235.5,-21.5 1318.5,-21.5 1318.5,-0.5 1235.5,-0.5"/>
<text text-anchor="middle" x="1277" y="-8.5" font-family="Helvetica,sans-Serif" font-size="10.00">QtGui/QWidget</text>
</g>
<!-- Node4&#45;&gt;Node15 -->
<g id="edge30" class="edge"><title>Node4&#45;&gt;Node15</title>
<path fill="none" stroke="midnightblue" d="M726.594,-59.2447C729.432,-58.7893 732.25,-58.3693 735,-58 949.011,-29.2586 1008.26,-52.8968 1225.22,-22.0931"/>
<polygon fill="midnightblue" stroke="midnightblue" points="1225.94,-25.5257 1235.34,-20.6338 1224.94,-18.5974 1225.94,-25.5257"/>
</g>
<!-- Node16 -->
<g id="node32" class="node"><title>Node16</title>
<polygon fill="none" stroke="#bfbfbf" points="1336,-0.5 1336,-21.5 1450,-21.5 1450,-0.5 1336,-0.5"/>
<text text-anchor="middle" x="1393" y="-8.5" font-family="Helvetica,sans-Serif" font-size="10.00">graphics/knotview.hpp</text>
</g>
<!-- Node4&#45;&gt;Node16 -->
<g id="edge32" class="edge"><title>Node4&#45;&gt;Node16</title>
<path fill="none" stroke="midnightblue" d="M726.589,-59.2044C729.428,-58.7592 732.248,-58.3523 735,-58 993.143,-24.9472 1063.31,-51.0275 1325.6,-22.0516"/>
<polygon fill="midnightblue" stroke="midnightblue" points="1326.27,-25.4989 1335.81,-20.9063 1325.49,-18.5425 1326.27,-25.4989"/>
</g>
</g>
</svg>
