<?xml version="1.0" encoding="UTF-8" standalone="no"?>
<!DOCTYPE svg PUBLIC "-//W3C//DTD SVG 1.1//EN"
 "http://www.w3.org/Graphics/SVG/1.1/DTD/svg11.dtd">
<!-- Generated by graphviz version 2.26.3 (20100126.1600)
 -->
<!-- Title: G Pages: 1 -->
<svg width="2515pt" height="610pt"
 viewBox="0.00 0.00 2515.00 610.00" xmlns="http://www.w3.org/2000/svg" xmlns:xlink="http://www.w3.org/1999/xlink">
<g id="graph1" class="graph" transform="scale(1 1) rotate(0) translate(4 606)">
<title>G</title>
<!-- Node1 -->
<g id="node1" class="node"><title>Node1</title>
<polygon fill="#bfbfbf" stroke="black" points="2070,-580.5 2070,-601.5 2186,-601.5 2186,-580.5 2070,-580.5"/>
<text text-anchor="middle" x="2128" y="-588.5" font-family="Helvetica,sans-Serif" font-size="10.00">moc_knot_window.cpp</text>
</g>
<!-- Node2 -->
<g id="node3" class="node"><title>Node2</title>
<a xlink:href="knot__window_8hpp.html" target="_top" xlink:title="knot_window.hpp">
<polygon fill="none" stroke="black" points="2082,-522.5 2082,-543.5 2174,-543.5 2174,-522.5 2082,-522.5"/>
<text text-anchor="middle" x="2128" y="-530.5" font-family="Helvetica,sans-Serif" font-size="10.00">knot_window.hpp</text>
</a>
</g>
<!-- Node1&#45;&gt;Node2 -->
<g id="edge2" class="edge"><title>Node1&#45;&gt;Node2</title>
<path fill="none" stroke="midnightblue" d="M2128,-580.362C2128,-572.922 2128,-562.743 2128,-553.728"/>
<polygon fill="midnightblue" stroke="midnightblue" points="2131.5,-553.571 2128,-543.571 2124.5,-553.571 2131.5,-553.571"/>
</g>
<!-- Node3 -->
<g id="node5" class="node"><title>Node3</title>
<a xlink:href="ui__knot__window_8h.html" target="_top" xlink:title="ui_knot_window.h">
<polygon fill="none" stroke="black" points="1710.5,-406.5 1710.5,-427.5 1805.5,-427.5 1805.5,-406.5 1710.5,-406.5"/>
<text text-anchor="middle" x="1758" y="-414.5" font-family="Helvetica,sans-Serif" font-size="10.00">ui_knot_window.h</text>
</a>
</g>
<!-- Node2&#45;&gt;Node3 -->
<g id="edge4" class="edge"><title>Node2&#45;&gt;Node3</title>
<path fill="none" stroke="midnightblue" d="M2094.18,-522.398C2026.75,-501.255 1875.62,-453.877 1801.16,-430.53"/>
<polygon fill="midnightblue" stroke="midnightblue" points="1802.19,-427.187 1791.6,-427.535 1800.1,-433.866 1802.19,-427.187"/>
</g>
<!-- Node22 -->
<g id="node45" class="node"><title>Node22</title>
<polygon fill="none" stroke="#bfbfbf" points="2387.5,-290.5 2387.5,-311.5 2460.5,-311.5 2460.5,-290.5 2387.5,-290.5"/>
<text text-anchor="middle" x="2424" y="-298.5" font-family="Helvetica,sans-Serif" font-size="10.00">QUndoStack</text>
</g>
<!-- Node2&#45;&gt;Node22 -->
<g id="edge66" class="edge"><title>Node2&#45;&gt;Node22</title>
<path fill="none" stroke="midnightblue" d="M2155.56,-522.37C2207.98,-500.912 2322.99,-447.749 2392,-370 2404.41,-356.014 2412.89,-336.385 2417.98,-321.637"/>
<polygon fill="midnightblue" stroke="midnightblue" points="2421.38,-322.503 2421.1,-311.911 2414.71,-320.365 2421.38,-322.503"/>
</g>
<!-- Node28 -->
<g id="node62" class="node"><title>Node28</title>
<polygon fill="none" stroke="#bfbfbf" points="2438.5,-464.5 2438.5,-485.5 2507.5,-485.5 2507.5,-464.5 2438.5,-464.5"/>
<text text-anchor="middle" x="2473" y="-472.5" font-family="Helvetica,sans-Serif" font-size="10.00">QUndoView</text>
</g>
<!-- Node2&#45;&gt;Node28 -->
<g id="edge68" class="edge"><title>Node2&#45;&gt;Node28</title>
<path fill="none" stroke="midnightblue" d="M2174.22,-526.685C2232.78,-518.454 2336.72,-503.081 2425,-486 2426.09,-485.789 2427.2,-485.571 2428.31,-485.347"/>
<polygon fill="midnightblue" stroke="midnightblue" points="2429.39,-488.697 2438.45,-483.214 2427.95,-481.847 2429.39,-488.697"/>
</g>
<!-- Node29 -->
<g id="node64" class="node"><title>Node29</title>
<a xlink:href="style__dialog_8hpp.html" target="_top" xlink:title="style_dialog.hpp">
<polygon fill="none" stroke="black" points="1283.5,-464.5 1283.5,-485.5 1370.5,-485.5 1370.5,-464.5 1283.5,-464.5"/>
<text text-anchor="middle" x="1327" y="-472.5" font-family="Helvetica,sans-Serif" font-size="10.00">style_dialog.hpp</text>
</a>
</g>
<!-- Node2&#45;&gt;Node29 -->
<g id="edge70" class="edge"><title>Node2&#45;&gt;Node29</title>
<path fill="none" stroke="midnightblue" d="M2081.77,-529.652C1942.84,-519.593 1529.56,-489.668 1380.97,-478.908"/>
<polygon fill="midnightblue" stroke="midnightblue" points="1380.96,-475.398 1370.74,-478.167 1380.46,-482.38 1380.96,-475.398"/>
</g>
<!-- Node43 -->
<g id="node99" class="node"><title>Node43</title>
<a xlink:href="clipboard_8hpp.html" target="_top" xlink:title="clipboard.hpp">
<polygon fill="none" stroke="black" points="2091,-406.5 2091,-427.5 2165,-427.5 2165,-406.5 2091,-406.5"/>
<text text-anchor="middle" x="2128" y="-414.5" font-family="Helvetica,sans-Serif" font-size="10.00">clipboard.hpp</text>
</a>
</g>
<!-- Node2&#45;&gt;Node43 -->
<g id="edge112" class="edge"><title>Node2&#45;&gt;Node43</title>
<path fill="none" stroke="midnightblue" d="M2128,-522.295C2128,-503.131 2128,-462.654 2128,-437.843"/>
<polygon fill="midnightblue" stroke="midnightblue" points="2131.5,-437.679 2128,-427.679 2124.5,-437.679 2131.5,-437.679"/>
</g>
<!-- Node4 -->
<g id="node7" class="node"><title>Node4</title>
<polygon fill="none" stroke="#bfbfbf" points="1214.5,-348.5 1214.5,-369.5 1303.5,-369.5 1303.5,-348.5 1214.5,-348.5"/>
<text text-anchor="middle" x="1259" y="-356.5" font-family="Helvetica,sans-Serif" font-size="10.00">QtCore/QVariant</text>
</g>
<!-- Node3&#45;&gt;Node4 -->
<g id="edge6" class="edge"><title>Node3&#45;&gt;Node4</title>
<path fill="none" stroke="midnightblue" d="M1710.27,-413.541C1630.28,-407.401 1463.93,-393.169 1314.07,-370.213"/>
<polygon fill="midnightblue" stroke="midnightblue" points="1314.18,-366.69 1303.76,-368.617 1313.11,-373.607 1314.18,-366.69"/>
</g>
<!-- Node5 -->
<g id="node9" class="node"><title>Node5</title>
<polygon fill="none" stroke="#bfbfbf" points="1321,-348.5 1321,-369.5 1401,-369.5 1401,-348.5 1321,-348.5"/>
<text text-anchor="middle" x="1361" y="-356.5" font-family="Helvetica,sans-Serif" font-size="10.00">QtGui/QAction</text>
</g>
<!-- Node3&#45;&gt;Node5 -->
<g id="edge8" class="edge"><title>Node3&#45;&gt;Node5</title>
<path fill="none" stroke="midnightblue" d="M1710.23,-411.875C1644.88,-404.571 1523.77,-389.994 1410.9,-370.046"/>
<polygon fill="midnightblue" stroke="midnightblue" points="1411.51,-366.6 1401.05,-368.288 1410.28,-373.491 1411.51,-366.6"/>
</g>
<!-- Node6 -->
<g id="node11" class="node"><title>Node6</title>
<polygon fill="none" stroke="#bfbfbf" points="1418.5,-348.5 1418.5,-369.5 1519.5,-369.5 1519.5,-348.5 1418.5,-348.5"/>
<text text-anchor="middle" x="1469" y="-356.5" font-family="Helvetica,sans-Serif" font-size="10.00">QtGui/QApplication</text>
</g>
<!-- Node3&#45;&gt;Node6 -->
<g id="edge10" class="edge"><title>Node3&#45;&gt;Node6</title>
<path fill="none" stroke="midnightblue" d="M1710.28,-407.422C1660.88,-397.508 1583.55,-381.988 1529.8,-371.201"/>
<polygon fill="midnightblue" stroke="midnightblue" points="1530.21,-367.714 1519.71,-369.178 1528.83,-374.577 1530.21,-367.714"/>
</g>
<!-- Node7 -->
<g id="node13" class="node"><title>Node7</title>
<polygon fill="none" stroke="#bfbfbf" points="1536.5,-348.5 1536.5,-369.5 1643.5,-369.5 1643.5,-348.5 1536.5,-348.5"/>
<text text-anchor="middle" x="1590" y="-356.5" font-family="Helvetica,sans-Serif" font-size="10.00">QtGui/QButtonGroup</text>
</g>
<!-- Node3&#45;&gt;Node7 -->
<g id="edge12" class="edge"><title>Node3&#45;&gt;Node7</title>
<path fill="none" stroke="midnightblue" d="M1727.58,-406.497C1700.31,-397.082 1660.11,-383.204 1630.2,-372.877"/>
<polygon fill="midnightblue" stroke="midnightblue" points="1631.08,-369.478 1620.48,-369.523 1628.79,-376.095 1631.08,-369.478"/>
</g>
<!-- Node8 -->
<g id="node15" class="node"><title>Node8</title>
<polygon fill="none" stroke="#bfbfbf" points="973,-348.5 973,-369.5 1073,-369.5 1073,-348.5 973,-348.5"/>
<text text-anchor="middle" x="1023" y="-356.5" font-family="Helvetica,sans-Serif" font-size="10.00">QtGui/QGridLayout</text>
</g>
<!-- Node3&#45;&gt;Node8 -->
<g id="edge14" class="edge"><title>Node3&#45;&gt;Node8</title>
<path fill="none" stroke="midnightblue" d="M1710.28,-415.567C1601.04,-411.881 1324.27,-400.244 1083.16,-370.023"/>
<polygon fill="midnightblue" stroke="midnightblue" points="1083.51,-366.54 1073.15,-368.756 1082.63,-373.485 1083.51,-366.54"/>
</g>
<!-- Node9 -->
<g id="node17" class="node"><title>Node9</title>
<polygon fill="none" stroke="#bfbfbf" points="1091,-348.5 1091,-369.5 1197,-369.5 1197,-348.5 1091,-348.5"/>
<text text-anchor="middle" x="1144" y="-356.5" font-family="Helvetica,sans-Serif" font-size="10.00">QtGui/QHeaderView</text>
</g>
<!-- Node3&#45;&gt;Node9 -->
<g id="edge16" class="edge"><title>Node3&#45;&gt;Node9</title>
<path fill="none" stroke="midnightblue" d="M1710.22,-414.394C1615.97,-408.938 1399.3,-394.825 1207.06,-370.041"/>
<polygon fill="midnightblue" stroke="midnightblue" points="1207.42,-366.559 1197.05,-368.738 1206.52,-373.5 1207.42,-366.559"/>
</g>
<!-- Node10 -->
<g id="node19" class="node"><title>Node10</title>
<polygon fill="none" stroke="#bfbfbf" points="1760.5,-348.5 1760.5,-369.5 1869.5,-369.5 1869.5,-348.5 1760.5,-348.5"/>
<text text-anchor="middle" x="1815" y="-356.5" font-family="Helvetica,sans-Serif" font-size="10.00">QtGui/QMainWindow</text>
</g>
<!-- Node3&#45;&gt;Node10 -->
<g id="edge18" class="edge"><title>Node3&#45;&gt;Node10</title>
<path fill="none" stroke="midnightblue" d="M1768.45,-406.362C1776.57,-398.104 1788,-386.472 1797.5,-376.803"/>
<polygon fill="midnightblue" stroke="midnightblue" points="1800.1,-379.156 1804.61,-369.571 1795.11,-374.25 1800.1,-379.156"/>
</g>
<!-- Node11 -->
<g id="node21" class="node"><title>Node11</title>
<polygon fill="none" stroke="#bfbfbf" points="1886.5,-348.5 1886.5,-369.5 1963.5,-369.5 1963.5,-348.5 1886.5,-348.5"/>
<text text-anchor="middle" x="1925" y="-356.5" font-family="Helvetica,sans-Serif" font-size="10.00">QtGui/QMenu</text>
</g>
<!-- Node3&#45;&gt;Node11 -->
<g id="edge20" class="edge"><title>Node3&#45;&gt;Node11</title>
<path fill="none" stroke="midnightblue" d="M1788.24,-406.497C1815.35,-397.082 1855.31,-383.204 1885.04,-372.877"/>
<polygon fill="midnightblue" stroke="midnightblue" points="1886.4,-376.11 1894.7,-369.523 1884.11,-369.498 1886.4,-376.11"/>
</g>
<!-- Node12 -->
<g id="node23" class="node"><title>Node12</title>
<polygon fill="none" stroke="#bfbfbf" points="1981,-348.5 1981,-369.5 2073,-369.5 2073,-348.5 1981,-348.5"/>
<text text-anchor="middle" x="2027" y="-356.5" font-family="Helvetica,sans-Serif" font-size="10.00">QtGui/QMenuBar</text>
</g>
<!-- Node3&#45;&gt;Node12 -->
<g id="edge22" class="edge"><title>Node3&#45;&gt;Node12</title>
<path fill="none" stroke="midnightblue" d="M1805.78,-406.698C1851.97,-396.739 1921.94,-381.652 1970.78,-371.121"/>
<polygon fill="midnightblue" stroke="midnightblue" points="1971.53,-374.542 1980.56,-369.012 1970.05,-367.699 1971.53,-374.542"/>
</g>
<!-- Node13 -->
<g id="node25" class="node"><title>Node13</title>
<polygon fill="none" stroke="#bfbfbf" points="2183,-348.5 2183,-369.5 2279,-369.5 2279,-348.5 2183,-348.5"/>
<text text-anchor="middle" x="2231" y="-356.5" font-family="Helvetica,sans-Serif" font-size="10.00">QtGui/QStatusBar</text>
</g>
<!-- Node3&#45;&gt;Node13 -->
<g id="edge24" class="edge"><title>Node3&#45;&gt;Node13</title>
<path fill="none" stroke="midnightblue" d="M1805.57,-412.845C1881.21,-405.971 2033.72,-391.025 2172.85,-370.085"/>
<polygon fill="midnightblue" stroke="midnightblue" points="2173.48,-373.53 2182.84,-368.568 2172.43,-366.609 2173.48,-373.53"/>
</g>
<!-- Node14 -->
<g id="node27" class="node"><title>Node14</title>
<polygon fill="none" stroke="#bfbfbf" points="2297,-348.5 2297,-369.5 2383,-369.5 2383,-348.5 2297,-348.5"/>
<text text-anchor="middle" x="2340" y="-356.5" font-family="Helvetica,sans-Serif" font-size="10.00">QtGui/QToolBar</text>
</g>
<!-- Node3&#45;&gt;Node14 -->
<g id="edge26" class="edge"><title>Node3&#45;&gt;Node14</title>
<path fill="none" stroke="midnightblue" d="M1805.74,-414.691C1897.2,-409.851 2103.59,-396.917 2286.85,-370.023"/>
<polygon fill="midnightblue" stroke="midnightblue" points="2287.56,-373.455 2296.94,-368.524 2286.54,-366.531 2287.56,-373.455"/>
</g>
<!-- Node15 -->
<g id="node29" class="node"><title>Node15</title>
<polygon fill="none" stroke="#bfbfbf" points="1660.5,-348.5 1660.5,-369.5 1743.5,-369.5 1743.5,-348.5 1660.5,-348.5"/>
<text text-anchor="middle" x="1702" y="-356.5" font-family="Helvetica,sans-Serif" font-size="10.00">QtGui/QWidget</text>
</g>
<!-- Node3&#45;&gt;Node15 -->
<g id="edge28" class="edge"><title>Node3&#45;&gt;Node15</title>
<path fill="none" stroke="midnightblue" d="M1747.73,-406.362C1739.76,-398.104 1728.53,-386.472 1719.19,-376.803"/>
<polygon fill="midnightblue" stroke="midnightblue" points="1721.67,-374.334 1712.21,-369.571 1716.63,-379.196 1721.67,-374.334"/>
</g>
<!-- Node16 -->
<g id="node31" class="node"><title>Node16</title>
<a xlink:href="knotview_8hpp.html" target="_top" xlink:title="knotview.hpp">
<polygon fill="none" stroke="black" points="2091,-348.5 2091,-369.5 2165,-369.5 2165,-348.5 2091,-348.5"/>
<text text-anchor="middle" x="2128" y="-356.5" font-family="Helvetica,sans-Serif" font-size="10.00">knotview.hpp</text>
</a>
</g>
<!-- Node3&#45;&gt;Node16 -->
<g id="edge30" class="edge"><title>Node3&#45;&gt;Node16</title>
<path fill="none" stroke="midnightblue" d="M1805.72,-411.453C1867.12,-404.01 1977.29,-389.634 2080.9,-370.084"/>
<polygon fill="midnightblue" stroke="midnightblue" points="2081.74,-373.487 2090.91,-368.176 2080.43,-366.611 2081.74,-373.487"/>
</g>
<!-- Node17 -->
<g id="node33" class="node"><title>Node17</title>
<polygon fill="none" stroke="#bfbfbf" points="1847.5,-290.5 1847.5,-311.5 1932.5,-311.5 1932.5,-290.5 1847.5,-290.5"/>
<text text-anchor="middle" x="1890" y="-298.5" font-family="Helvetica,sans-Serif" font-size="10.00">QGraphicsView</text>
</g>
<!-- Node16&#45;&gt;Node17 -->
<g id="edge32" class="edge"><title>Node16&#45;&gt;Node17</title>
<path fill="none" stroke="midnightblue" d="M2090.81,-349.938C2050.95,-340.222 1987.34,-324.72 1942.4,-313.771"/>
<polygon fill="midnightblue" stroke="midnightblue" points="1943.09,-310.337 1932.55,-311.369 1941.44,-317.137 1943.09,-310.337"/>
</g>
<!-- Node18 -->
<g id="node35" class="node"><title>Node18</title>
<a xlink:href="node_8hpp.html" target="_top" xlink:title="node.hpp">
<polygon fill="none" stroke="black" points="2244,-174.5 2244,-195.5 2300,-195.5 2300,-174.5 2244,-174.5"/>
<text text-anchor="middle" x="2272" y="-182.5" font-family="Helvetica,sans-Serif" font-size="10.00">node.hpp</text>
</a>
</g>
<!-- Node16&#45;&gt;Node18 -->
<g id="edge34" class="edge"><title>Node16&#45;&gt;Node18</title>
<path fill="none" stroke="midnightblue" d="M2154.38,-348.456C2202.32,-328.696 2300.51,-285.268 2319,-254 2329.84,-235.667 2312.75,-215.645 2296.22,-201.914"/>
<polygon fill="midnightblue" stroke="midnightblue" points="2298.31,-199.107 2288.28,-195.714 2294.01,-204.625 2298.31,-199.107"/>
</g>
<!-- Node21 -->
<g id="node41" class="node"><title>Node21</title>
<a xlink:href="edge_8hpp.html" target="_top" xlink:title="edge.hpp">
<polygon fill="none" stroke="black" points="2024,-116.5 2024,-137.5 2080,-137.5 2080,-116.5 2024,-116.5"/>
<text text-anchor="middle" x="2052" y="-124.5" font-family="Helvetica,sans-Serif" font-size="10.00">edge.hpp</text>
</a>
</g>
<!-- Node16&#45;&gt;Node21 -->
<g id="edge44" class="edge"><title>Node16&#45;&gt;Node21</title>
<path fill="none" stroke="midnightblue" d="M2112.82,-348.262C2090.42,-331.31 2049.7,-295.929 2036,-254 2024.95,-220.179 2026.21,-208.926 2033,-174 2034.79,-164.787 2038.39,-155.094 2041.97,-146.919"/>
<polygon fill="midnightblue" stroke="midnightblue" points="2045.16,-148.377 2046.22,-137.836 2038.82,-145.412 2045.16,-148.377"/>
</g>
<!-- Node16&#45;&gt;Node22 -->
<g id="edge46" class="edge"><title>Node16&#45;&gt;Node22</title>
<path fill="none" stroke="midnightblue" d="M2165.12,-349.934C2168.12,-349.259 2171.11,-348.606 2174,-348 2262.4,-329.49 2285.44,-329.706 2374,-312 2375.09,-311.782 2376.19,-311.559 2377.3,-311.333"/>
<polygon fill="midnightblue" stroke="midnightblue" points="2378.37,-314.685 2387.44,-309.213 2376.94,-307.833 2378.37,-314.685"/>
</g>
<!-- Node23 -->
<g id="node47" class="node"><title>Node23</title>
<a xlink:href="knotgraph_8hpp.html" target="_top" xlink:title="knotgraph.hpp">
<polygon fill="none" stroke="black" points="2083,-290.5 2083,-311.5 2161,-311.5 2161,-290.5 2083,-290.5"/>
<text text-anchor="middle" x="2122" y="-298.5" font-family="Helvetica,sans-Serif" font-size="10.00">knotgraph.hpp</text>
</a>
</g>
<!-- Node16&#45;&gt;Node23 -->
<g id="edge48" class="edge"><title>Node16&#45;&gt;Node23</title>
<path fill="none" stroke="midnightblue" d="M2126.9,-348.362C2126.13,-340.922 2125.08,-330.743 2124.14,-321.728"/>
<polygon fill="midnightblue" stroke="midnightblue" points="2127.6,-321.157 2123.09,-311.571 2120.64,-321.878 2127.6,-321.157"/>
</g>
<!-- Node19 -->
<g id="node37" class="node"><title>Node19</title>
<a xlink:href="custom__item_8hpp.html" target="_top" xlink:title="custom_item.hpp">
<polygon fill="none" stroke="black" points="2088,-58.5 2088,-79.5 2180,-79.5 2180,-58.5 2088,-58.5"/>
<text text-anchor="middle" x="2134" y="-66.5" font-family="Helvetica,sans-Serif" font-size="10.00">custom_item.hpp</text>
</a>
</g>
<!-- Node18&#45;&gt;Node19 -->
<g id="edge36" class="edge"><title>Node18&#45;&gt;Node19</title>
<path fill="none" stroke="midnightblue" d="M2259.26,-174.295C2235.34,-154.182 2183.48,-110.59 2154.55,-86.2752"/>
<polygon fill="midnightblue" stroke="midnightblue" points="2156.61,-83.4346 2146.7,-79.6792 2152.11,-88.793 2156.61,-83.4346"/>
</g>
<!-- Node18&#45;&gt;Node21 -->
<g id="edge40" class="edge"><title>Node18&#45;&gt;Node21</title>
<path fill="none" stroke="midnightblue" d="M2243.75,-176.482C2240.8,-175.628 2237.84,-174.787 2235,-174 2185.16,-160.195 2127.29,-145.566 2090.19,-136.365"/>
<polygon fill="midnightblue" stroke="midnightblue" points="2090.85,-132.922 2080.3,-133.919 2089.17,-139.717 2090.85,-132.922"/>
</g>
<!-- Node20 -->
<g id="node39" class="node"><title>Node20</title>
<polygon fill="none" stroke="#bfbfbf" points="2092.5,-0.5 2092.5,-21.5 2175.5,-21.5 2175.5,-0.5 2092.5,-0.5"/>
<text text-anchor="middle" x="2134" y="-8.5" font-family="Helvetica,sans-Serif" font-size="10.00">QGraphicsItem</text>
</g>
<!-- Node19&#45;&gt;Node20 -->
<g id="edge38" class="edge"><title>Node19&#45;&gt;Node20</title>
<path fill="none" stroke="midnightblue" d="M2134,-58.3619C2134,-50.9219 2134,-40.7427 2134,-31.7276"/>
<polygon fill="midnightblue" stroke="midnightblue" points="2137.5,-31.5706 2134,-21.5707 2130.5,-31.5707 2137.5,-31.5706"/>
</g>
<!-- Node21&#45;&gt;Node19 -->
<g id="edge42" class="edge"><title>Node21&#45;&gt;Node19</title>
<path fill="none" stroke="midnightblue" d="M2067.04,-116.362C2079.29,-107.696 2096.8,-95.3126 2110.84,-85.3819"/>
<polygon fill="midnightblue" stroke="midnightblue" points="2112.91,-88.2028 2119.06,-79.5707 2108.87,-82.4879 2112.91,-88.2028"/>
</g>
<!-- Node23&#45;&gt;Node18 -->
<g id="edge52" class="edge"><title>Node23&#45;&gt;Node18</title>
<path fill="none" stroke="midnightblue" d="M2161.32,-296.387C2209.2,-289.868 2285.82,-276.213 2303,-254 2314.93,-238.574 2302.59,-217.827 2290.12,-203.122"/>
<polygon fill="midnightblue" stroke="midnightblue" points="2292.65,-200.698 2283.33,-195.647 2287.46,-205.404 2292.65,-200.698"/>
</g>
<!-- Node23&#45;&gt;Node21 -->
<g id="edge54" class="edge"><title>Node23&#45;&gt;Node21</title>
<path fill="none" stroke="midnightblue" d="M2092.41,-290.479C2076.17,-283.006 2057.46,-271.206 2048,-254 2029.51,-220.356 2038.01,-173.766 2045.34,-147.378"/>
<polygon fill="midnightblue" stroke="midnightblue" points="2048.72,-148.292 2048.24,-137.708 2042.02,-146.286 2048.72,-148.292"/>
</g>
<!-- Node24 -->
<g id="node49" class="node"><title>Node24</title>
<polygon fill="none" stroke="#bfbfbf" points="2075.5,-174.5 2075.5,-195.5 2150.5,-195.5 2150.5,-174.5 2075.5,-174.5"/>
<text text-anchor="middle" x="2113" y="-182.5" font-family="Helvetica,sans-Serif" font-size="10.00">QPainterPath</text>
</g>
<!-- Node23&#45;&gt;Node24 -->
<g id="edge50" class="edge"><title>Node23&#45;&gt;Node24</title>
<path fill="none" stroke="midnightblue" d="M2096.5,-290.488C2081.46,-282.797 2063.72,-270.766 2055,-254 2044.43,-233.682 2064.9,-214.045 2084.38,-200.95"/>
<polygon fill="midnightblue" stroke="midnightblue" points="2086.27,-203.891 2092.85,-195.586 2082.53,-197.976 2086.27,-203.891"/>
</g>
<!-- Node25 -->
<g id="node53" class="node"><title>Node25</title>
<polygon fill="none" stroke="#bfbfbf" points="2063.5,-232.5 2063.5,-253.5 2166.5,-253.5 2166.5,-232.5 2063.5,-232.5"/>
<text text-anchor="middle" x="2115" y="-240.5" font-family="Helvetica,sans-Serif" font-size="10.00">QGraphicsPathItem</text>
</g>
<!-- Node23&#45;&gt;Node25 -->
<g id="edge56" class="edge"><title>Node23&#45;&gt;Node25</title>
<path fill="none" stroke="midnightblue" d="M2120.72,-290.362C2119.82,-282.922 2118.59,-272.743 2117.5,-263.728"/>
<polygon fill="midnightblue" stroke="midnightblue" points="2120.95,-263.079 2116.28,-253.571 2114,-263.918 2120.95,-263.079"/>
</g>
<!-- Node26 -->
<g id="node55" class="node"><title>Node26</title>
<a xlink:href="knot__curve__style_8hpp.html" target="_top" xlink:title="knot_curve_style.hpp">
<polygon fill="none" stroke="black" points="2184,-232.5 2184,-253.5 2294,-253.5 2294,-232.5 2184,-232.5"/>
<text text-anchor="middle" x="2239" y="-240.5" font-family="Helvetica,sans-Serif" font-size="10.00">knot_curve_style.hpp</text>
</a>
</g>
<!-- Node23&#45;&gt;Node26 -->
<g id="edge58" class="edge"><title>Node23&#45;&gt;Node26</title>
<path fill="none" stroke="midnightblue" d="M2143.19,-290.497C2161.46,-281.438 2188.07,-268.246 2208.61,-258.063"/>
<polygon fill="midnightblue" stroke="midnightblue" points="2210.17,-261.199 2217.57,-253.621 2207.06,-254.927 2210.17,-261.199"/>
</g>
<!-- Node26&#45;&gt;Node18 -->
<g id="edge60" class="edge"><title>Node26&#45;&gt;Node18</title>
<path fill="none" stroke="midnightblue" d="M2245.05,-232.362C2249.47,-224.595 2255.59,-213.843 2260.88,-204.546"/>
<polygon fill="midnightblue" stroke="midnightblue" points="2264.08,-205.993 2265.99,-195.571 2258,-202.531 2264.08,-205.993"/>
</g>
<!-- Node26&#45;&gt;Node24 -->
<g id="edge62" class="edge"><title>Node26&#45;&gt;Node24</title>
<path fill="none" stroke="midnightblue" d="M2216.18,-232.497C2196.41,-223.397 2167.59,-210.127 2145.42,-199.925"/>
<polygon fill="midnightblue" stroke="midnightblue" points="2146.62,-196.623 2136.07,-195.621 2143.69,-202.982 2146.62,-196.623"/>
</g>
<!-- Node27 -->
<g id="node59" class="node"><title>Node27</title>
<polygon fill="none" stroke="#bfbfbf" points="2183.5,-174.5 2183.5,-195.5 2226.5,-195.5 2226.5,-174.5 2183.5,-174.5"/>
<text text-anchor="middle" x="2205" y="-182.5" font-family="Helvetica,sans-Serif" font-size="10.00">QMap</text>
</g>
<!-- Node26&#45;&gt;Node27 -->
<g id="edge64" class="edge"><title>Node26&#45;&gt;Node27</title>
<path fill="none" stroke="midnightblue" d="M2232.76,-232.362C2228.16,-224.513 2221.77,-213.616 2216.29,-204.253"/>
<polygon fill="midnightblue" stroke="midnightblue" points="2219.27,-202.428 2211.2,-195.571 2213.23,-205.968 2219.27,-202.428"/>
</g>
<!-- Node30 -->
<g id="node66" class="node"><title>Node30</title>
<a xlink:href="ui__style__dialog_8h.html" target="_top" xlink:title="ui_style_dialog.h">
<polygon fill="none" stroke="black" points="978.5,-406.5 978.5,-427.5 1067.5,-427.5 1067.5,-406.5 978.5,-406.5"/>
<text text-anchor="middle" x="1023" y="-414.5" font-family="Helvetica,sans-Serif" font-size="10.00">ui_style_dialog.h</text>
</a>
</g>
<!-- Node29&#45;&gt;Node30 -->
<g id="edge72" class="edge"><title>Node29&#45;&gt;Node30</title>
<path fill="none" stroke="midnightblue" d="M1283.44,-466.69C1229.28,-456.356 1136.78,-438.708 1077.84,-427.463"/>
<polygon fill="midnightblue" stroke="midnightblue" points="1078.44,-424.014 1067.96,-425.578 1077.13,-430.89 1078.44,-424.014"/>
</g>
<!-- Node30&#45;&gt;Node4 -->
<g id="edge74" class="edge"><title>Node30&#45;&gt;Node4</title>
<path fill="none" stroke="midnightblue" d="M1065.74,-406.497C1105.21,-396.795 1163.97,-382.355 1206.33,-371.945"/>
<polygon fill="midnightblue" stroke="midnightblue" points="1207.31,-375.309 1216.18,-369.523 1205.64,-368.511 1207.31,-375.309"/>
</g>
<!-- Node30&#45;&gt;Node5 -->
<g id="edge76" class="edge"><title>Node30&#45;&gt;Node5</title>
<path fill="none" stroke="midnightblue" d="M1067.7,-410.575C1122.62,-402.495 1218.84,-387.733 1310.89,-370.135"/>
<polygon fill="midnightblue" stroke="midnightblue" points="1311.77,-373.528 1320.93,-368.2 1310.45,-366.655 1311.77,-373.528"/>
</g>
<!-- Node30&#45;&gt;Node6 -->
<g id="edge78" class="edge"><title>Node30&#45;&gt;Node6</title>
<path fill="none" stroke="midnightblue" d="M1067.53,-412.521C1137.82,-405.248 1279.01,-389.816 1408.12,-370.225"/>
<polygon fill="midnightblue" stroke="midnightblue" points="1408.83,-373.657 1418.19,-368.686 1407.77,-366.738 1408.83,-373.657"/>
</g>
<!-- Node30&#45;&gt;Node7 -->
<g id="edge80" class="edge"><title>Node30&#45;&gt;Node7</title>
<path fill="none" stroke="midnightblue" d="M1067.73,-414.087C1154.31,-408.176 1351.03,-393.431 1526.1,-370.176"/>
<polygon fill="midnightblue" stroke="midnightblue" points="1526.83,-373.611 1536.27,-368.813 1525.9,-366.673 1526.83,-373.611"/>
</g>
<!-- Node30&#45;&gt;Node8 -->
<g id="edge90" class="edge"><title>Node30&#45;&gt;Node8</title>
<path fill="none" stroke="midnightblue" d="M1023,-406.362C1023,-398.922 1023,-388.743 1023,-379.728"/>
<polygon fill="midnightblue" stroke="midnightblue" points="1026.5,-379.571 1023,-369.571 1019.5,-379.571 1026.5,-379.571"/>
</g>
<!-- Node30&#45;&gt;Node9 -->
<g id="edge94" class="edge"><title>Node30&#45;&gt;Node9</title>
<path fill="none" stroke="midnightblue" d="M1044.91,-406.497C1063.81,-397.438 1091.33,-384.246 1112.58,-374.063"/>
<polygon fill="midnightblue" stroke="midnightblue" points="1114.34,-377.1 1121.84,-369.621 1111.31,-370.788 1114.34,-377.1"/>
</g>
<!-- Node30&#45;&gt;Node16 -->
<g id="edge110" class="edge"><title>Node30&#45;&gt;Node16</title>
<path fill="none" stroke="midnightblue" d="M1067.74,-416.149C1240.06,-412.701 1861.57,-398.622 2080.83,-369.878"/>
<polygon fill="midnightblue" stroke="midnightblue" points="2081.52,-373.315 2090.96,-368.498 2080.58,-366.379 2081.52,-373.315"/>
</g>
<!-- Node31 -->
<g id="node72" class="node"><title>Node31</title>
<polygon fill="none" stroke="#bfbfbf" points="756.5,-348.5 756.5,-369.5 857.5,-369.5 857.5,-348.5 756.5,-348.5"/>
<text text-anchor="middle" x="807" y="-356.5" font-family="Helvetica,sans-Serif" font-size="10.00">QtGui/QComboBox</text>
</g>
<!-- Node30&#45;&gt;Node31 -->
<g id="edge82" class="edge"><title>Node30&#45;&gt;Node31</title>
<path fill="none" stroke="midnightblue" d="M983.884,-406.497C948.06,-396.877 894.883,-382.598 856.192,-372.209"/>
<polygon fill="midnightblue" stroke="midnightblue" points="856.755,-368.736 846.189,-369.523 854.94,-375.497 856.755,-368.736"/>
</g>
<!-- Node32 -->
<g id="node74" class="node"><title>Node32</title>
<polygon fill="none" stroke="#bfbfbf" points="875,-348.5 875,-369.5 955,-369.5 955,-348.5 875,-348.5"/>
<text text-anchor="middle" x="915" y="-356.5" font-family="Helvetica,sans-Serif" font-size="10.00">QtGui/QDialog</text>
</g>
<!-- Node30&#45;&gt;Node32 -->
<g id="edge84" class="edge"><title>Node30&#45;&gt;Node32</title>
<path fill="none" stroke="midnightblue" d="M1003.44,-406.497C986.802,-397.56 962.673,-384.602 943.82,-374.477"/>
<polygon fill="midnightblue" stroke="midnightblue" points="945.243,-371.269 934.777,-369.621 941.931,-377.436 945.243,-371.269"/>
</g>
<!-- Node33 -->
<g id="node76" class="node"><title>Node33</title>
<polygon fill="none" stroke="#bfbfbf" points="267,-348.5 267,-369.5 393,-369.5 393,-348.5 267,-348.5"/>
<text text-anchor="middle" x="330" y="-356.5" font-family="Helvetica,sans-Serif" font-size="10.00">QtGui/QDialogButtonBox</text>
</g>
<!-- Node30&#45;&gt;Node33 -->
<g id="edge86" class="edge"><title>Node30&#45;&gt;Node33</title>
<path fill="none" stroke="midnightblue" d="M978.362,-414.066C858.729,-406.132 531.847,-383.984 403.188,-370.044"/>
<polygon fill="midnightblue" stroke="midnightblue" points="403.506,-366.558 393.18,-368.93 402.731,-373.515 403.506,-366.558"/>
</g>
<!-- Node34 -->
<g id="node78" class="node"><title>Node34</title>
<polygon fill="none" stroke="#bfbfbf" points="411,-348.5 411,-369.5 531,-369.5 531,-348.5 411,-348.5"/>
<text text-anchor="middle" x="471" y="-356.5" font-family="Helvetica,sans-Serif" font-size="10.00">QtGui/QDoubleSpinBox</text>
</g>
<!-- Node30&#45;&gt;Node34 -->
<g id="edge88" class="edge"><title>Node30&#45;&gt;Node34</title>
<path fill="none" stroke="midnightblue" d="M978.282,-413.567C894.576,-406.942 708.325,-391.258 541.147,-370.087"/>
<polygon fill="midnightblue" stroke="midnightblue" points="541.542,-366.61 531.18,-368.816 540.656,-373.553 541.542,-366.61"/>
</g>
<!-- Node35 -->
<g id="node81" class="node"><title>Node35</title>
<polygon fill="none" stroke="#bfbfbf" points="549,-348.5 549,-369.5 645,-369.5 645,-348.5 549,-348.5"/>
<text text-anchor="middle" x="597" y="-356.5" font-family="Helvetica,sans-Serif" font-size="10.00">QtGui/QGroupBox</text>
</g>
<!-- Node30&#45;&gt;Node35 -->
<g id="edge92" class="edge"><title>Node30&#45;&gt;Node35</title>
<path fill="none" stroke="midnightblue" d="M978.28,-412.238C910.569,-404.823 777.778,-389.484 655.106,-370.103"/>
<polygon fill="midnightblue" stroke="midnightblue" points="655.59,-366.636 645.164,-368.519 654.489,-373.548 655.59,-366.636"/>
</g>
<!-- Node36 -->
<g id="node84" class="node"><title>Node36</title>
<polygon fill="none" stroke="#bfbfbf" points="663,-348.5 663,-369.5 739,-369.5 739,-348.5 663,-348.5"/>
<text text-anchor="middle" x="701" y="-356.5" font-family="Helvetica,sans-Serif" font-size="10.00">QtGui/QLabel</text>
</g>
<!-- Node30&#45;&gt;Node36 -->
<g id="edge96" class="edge"><title>Node30&#45;&gt;Node36</title>
<path fill="none" stroke="midnightblue" d="M978.071,-410.178C925.519,-402.009 835.685,-387.456 749.164,-370.152"/>
<polygon fill="midnightblue" stroke="midnightblue" points="749.672,-366.684 739.177,-368.139 748.288,-373.546 749.672,-366.684"/>
</g>
<!-- Node37 -->
<g id="node86" class="node"><title>Node37</title>
<a xlink:href="color__widget_8hpp.html" target="_top" xlink:title="color_widget.hpp">
<polygon fill="none" stroke="black" points="159,-348.5 159,-369.5 249,-369.5 249,-348.5 159,-348.5"/>
<text text-anchor="middle" x="204" y="-356.5" font-family="Helvetica,sans-Serif" font-size="10.00">color_widget.hpp</text>
</a>
</g>
<!-- Node30&#45;&gt;Node37 -->
<g id="edge98" class="edge"><title>Node30&#45;&gt;Node37</title>
<path fill="none" stroke="midnightblue" d="M978.382,-416.431C861.751,-414.482 538.116,-406.1 259.317,-370.007"/>
<polygon fill="midnightblue" stroke="midnightblue" points="259.372,-366.484 249.002,-368.656 258.463,-373.425 259.372,-366.484"/>
</g>
<!-- Node38 -->
<g id="node88" class="node"><title>Node38</title>
<polygon fill="none" stroke="#bfbfbf" points="-0.5,-290.5 -0.5,-311.5 58.5,-311.5 58.5,-290.5 -0.5,-290.5"/>
<text text-anchor="middle" x="29" y="-298.5" font-family="Helvetica,sans-Serif" font-size="10.00">QLineEdit</text>
</g>
<!-- Node37&#45;&gt;Node38 -->
<g id="edge100" class="edge"><title>Node37&#45;&gt;Node38</title>
<path fill="none" stroke="midnightblue" d="M172.309,-348.497C143.157,-338.835 99.8206,-324.472 68.4402,-314.072"/>
<polygon fill="midnightblue" stroke="midnightblue" points="69.2983,-310.669 58.7049,-310.845 67.0961,-317.313 69.2983,-310.669"/>
</g>
<!-- Node39 -->
<g id="node90" class="node"><title>Node39</title>
<polygon fill="none" stroke="#bfbfbf" points="75.5,-290.5 75.5,-311.5 150.5,-311.5 150.5,-290.5 75.5,-290.5"/>
<text text-anchor="middle" x="113" y="-298.5" font-family="Helvetica,sans-Serif" font-size="10.00">QColorDialog</text>
</g>
<!-- Node37&#45;&gt;Node39 -->
<g id="edge102" class="edge"><title>Node37&#45;&gt;Node39</title>
<path fill="none" stroke="midnightblue" d="M187.309,-348.362C173.584,-339.614 153.916,-327.079 138.263,-317.101"/>
<polygon fill="midnightblue" stroke="midnightblue" points="139.899,-313.994 129.585,-311.571 136.137,-319.897 139.899,-313.994"/>
</g>
<!-- Node40 -->
<g id="node92" class="node"><title>Node40</title>
<polygon fill="none" stroke="#bfbfbf" points="168,-290.5 168,-311.5 240,-311.5 240,-290.5 168,-290.5"/>
<text text-anchor="middle" x="204" y="-298.5" font-family="Helvetica,sans-Serif" font-size="10.00">QPaintEvent</text>
</g>
<!-- Node37&#45;&gt;Node40 -->
<g id="edge104" class="edge"><title>Node37&#45;&gt;Node40</title>
<path fill="none" stroke="midnightblue" d="M204,-348.362C204,-340.922 204,-330.743 204,-321.728"/>
<polygon fill="midnightblue" stroke="midnightblue" points="207.5,-321.571 204,-311.571 200.5,-321.571 207.5,-321.571"/>
</g>
<!-- Node41 -->
<g id="node94" class="node"><title>Node41</title>
<polygon fill="none" stroke="#bfbfbf" points="257.5,-290.5 257.5,-311.5 312.5,-311.5 312.5,-290.5 257.5,-290.5"/>
<text text-anchor="middle" x="285" y="-298.5" font-family="Helvetica,sans-Serif" font-size="10.00">QPainter</text>
</g>
<!-- Node37&#45;&gt;Node41 -->
<g id="edge106" class="edge"><title>Node37&#45;&gt;Node41</title>
<path fill="none" stroke="midnightblue" d="M218.857,-348.362C230.846,-339.777 247.927,-327.546 261.728,-317.664"/>
<polygon fill="midnightblue" stroke="midnightblue" points="264.145,-320.238 270.238,-311.571 260.069,-314.547 264.145,-320.238"/>
</g>
<!-- Node42 -->
<g id="node96" class="node"><title>Node42</title>
<polygon fill="none" stroke="#bfbfbf" points="329.5,-290.5 329.5,-311.5 444.5,-311.5 444.5,-290.5 329.5,-290.5"/>
<text text-anchor="middle" x="387" y="-298.5" font-family="Helvetica,sans-Serif" font-size="10.00">QStyleOptionFrameV3</text>
</g>
<!-- Node37&#45;&gt;Node42 -->
<g id="edge108" class="edge"><title>Node37&#45;&gt;Node42</title>
<path fill="none" stroke="midnightblue" d="M237.14,-348.497C267.103,-339 311.396,-324.962 344.062,-314.609"/>
<polygon fill="midnightblue" stroke="midnightblue" points="345.323,-317.881 353.798,-311.523 343.208,-311.208 345.323,-317.881"/>
</g>
<!-- Node43&#45;&gt;Node16 -->
<g id="edge114" class="edge"><title>Node43&#45;&gt;Node16</title>
<path fill="none" stroke="midnightblue" d="M2128,-406.362C2128,-398.922 2128,-388.743 2128,-379.728"/>
<polygon fill="midnightblue" stroke="midnightblue" points="2131.5,-379.571 2128,-369.571 2124.5,-379.571 2131.5,-379.571"/>
</g>
</g>
</svg>
