<?xml version="1.0" encoding="UTF-8" standalone="no"?>
<!DOCTYPE svg PUBLIC "-//W3C//DTD SVG 1.1//EN"
 "http://www.w3.org/Graphics/SVG/1.1/DTD/svg11.dtd">
<!-- Generated by graphviz version 2.26.3 (20100126.1600)
 -->
<!-- Title: G Pages: 1 -->
<svg width="110pt" height="204pt"
 viewBox="0.00 0.00 110.00 204.00" xmlns="http://www.w3.org/2000/svg" xmlns:xlink="http://www.w3.org/1999/xlink">
<g id="graph1" class="graph" transform="scale(1 1) rotate(0) translate(4 200)">
<title>G</title>
<!-- Node1 -->
<g id="node1" class="node"><title>Node1</title>
<polygon fill="#bfbfbf" stroke="black" points="18,-174.5 18,-195.5 74,-195.5 74,-174.5 18,-174.5"/>
<text text-anchor="middle" x="46" y="-182.5" font-family="Helvetica,sans-Serif" font-size="10.00">node.hpp</text>
</g>
<!-- Node2 -->
<g id="node3" class="node"><title>Node2</title>
<a xlink:href="custom__item_8hpp.html" target="_top" xlink:title="custom_item.hpp">
<polygon fill="none" stroke="black" points="0,-58.5 0,-79.5 92,-79.5 92,-58.5 0,-58.5"/>
<text text-anchor="middle" x="46" y="-66.5" font-family="Helvetica,sans-Serif" font-size="10.00">custom_item.hpp</text>
</a>
</g>
<!-- Node1&#45;&gt;Node2 -->
<g id="edge2" class="edge"><title>Node1&#45;&gt;Node2</title>
<path fill="none" stroke="midnightblue" d="M43.3414,-174.256C41.142,-164.784 38.1928,-150.572 37,-138 36.0764,-128.266 36.0764,-125.734 37,-116 37.8294,-107.259 39.5079,-97.7244 41.1931,-89.5417"/>
<polygon fill="midnightblue" stroke="midnightblue" points="44.6184,-90.2612 43.3414,-79.7436 37.7808,-88.762 44.6184,-90.2612"/>
</g>
<!-- Node4 -->
<g id="node7" class="node"><title>Node4</title>
<a xlink:href="edge_8hpp.html" target="_top" xlink:title="edge.hpp">
<polygon fill="none" stroke="black" points="46,-116.5 46,-137.5 102,-137.5 102,-116.5 46,-116.5"/>
<text text-anchor="middle" x="74" y="-124.5" font-family="Helvetica,sans-Serif" font-size="10.00">edge.hpp</text>
</a>
</g>
<!-- Node1&#45;&gt;Node4 -->
<g id="edge6" class="edge"><title>Node1&#45;&gt;Node4</title>
<path fill="none" stroke="midnightblue" d="M51.1356,-174.362C54.8458,-166.677 59.9669,-156.069 64.4221,-146.84"/>
<polygon fill="midnightblue" stroke="midnightblue" points="67.7013,-148.098 68.8969,-137.571 61.3974,-145.055 67.7013,-148.098"/>
</g>
<!-- Node3 -->
<g id="node5" class="node"><title>Node3</title>
<polygon fill="none" stroke="#bfbfbf" points="4.5,-0.5 4.5,-21.5 87.5,-21.5 87.5,-0.5 4.5,-0.5"/>
<text text-anchor="middle" x="46" y="-8.5" font-family="Helvetica,sans-Serif" font-size="10.00">QGraphicsItem</text>
</g>
<!-- Node2&#45;&gt;Node3 -->
<g id="edge4" class="edge"><title>Node2&#45;&gt;Node3</title>
<path fill="none" stroke="midnightblue" d="M46,-58.3619C46,-50.9219 46,-40.7427 46,-31.7276"/>
<polygon fill="midnightblue" stroke="midnightblue" points="49.5001,-31.5706 46,-21.5707 42.5001,-31.5707 49.5001,-31.5706"/>
</g>
<!-- Node4&#45;&gt;Node2 -->
<g id="edge8" class="edge"><title>Node4&#45;&gt;Node2</title>
<path fill="none" stroke="midnightblue" d="M68.8644,-116.362C65.1542,-108.677 60.0331,-98.0686 55.5779,-88.8399"/>
<polygon fill="midnightblue" stroke="midnightblue" points="58.6026,-87.0545 51.1031,-79.5707 52.2987,-90.0978 58.6026,-87.0545"/>
</g>
</g>
</svg>
