<?xml version="1.0" encoding="UTF-8" standalone="no"?>
<!DOCTYPE svg PUBLIC "-//W3C//DTD SVG 1.1//EN"
 "http://www.w3.org/Graphics/SVG/1.1/DTD/svg11.dtd">
<!-- Generated by graphviz version 2.26.3 (20100126.1600)
 -->
<!-- Title: G Pages: 1 -->
<svg width="248pt" height="262pt"
 viewBox="0.00 0.00 248.00 262.00" xmlns="http://www.w3.org/2000/svg" xmlns:xlink="http://www.w3.org/1999/xlink">
<g id="graph1" class="graph" transform="scale(1 1) rotate(0) translate(4 258)">
<title>G</title>
<!-- Node1 -->
<g id="node1" class="node"><title>Node1</title>
<polygon fill="#bfbfbf" stroke="black" points="83,-232.5 83,-253.5 139,-253.5 139,-232.5 83,-232.5"/>
<text text-anchor="middle" x="111" y="-240.5" font-family="Helvetica,sans-Serif" font-size="10.00">node.cpp</text>
</g>
<!-- Node2 -->
<g id="node3" class="node"><title>Node2</title>
<a xlink:href="node_8hpp.html" target="_top" xlink:title="node.hpp">
<polygon fill="none" stroke="black" points="0,-174.5 0,-195.5 56,-195.5 56,-174.5 0,-174.5"/>
<text text-anchor="middle" x="28" y="-182.5" font-family="Helvetica,sans-Serif" font-size="10.00">node.hpp</text>
</a>
</g>
<!-- Node1&#45;&gt;Node2 -->
<g id="edge2" class="edge"><title>Node1&#45;&gt;Node2</title>
<path fill="none" stroke="midnightblue" d="M95.7765,-232.362C83.3746,-223.696 65.6542,-211.313 51.443,-201.382"/>
<polygon fill="midnightblue" stroke="midnightblue" points="53.3288,-198.43 43.127,-195.571 49.3191,-204.168 53.3288,-198.43"/>
</g>
<!-- Node5 -->
<g id="node9" class="node"><title>Node5</title>
<a xlink:href="edge_8hpp.html" target="_top" xlink:title="edge.hpp">
<polygon fill="none" stroke="black" points="56,-116.5 56,-137.5 112,-137.5 112,-116.5 56,-116.5"/>
<text text-anchor="middle" x="84" y="-124.5" font-family="Helvetica,sans-Serif" font-size="10.00">edge.hpp</text>
</a>
</g>
<!-- Node1&#45;&gt;Node5 -->
<g id="edge14" class="edge"><title>Node1&#45;&gt;Node5</title>
<path fill="none" stroke="midnightblue" d="M108.508,-232.295C104.028,-213.045 94.5414,-172.289 88.7737,-147.509"/>
<polygon fill="midnightblue" stroke="midnightblue" points="92.1616,-146.625 86.4857,-137.679 85.3439,-148.212 92.1616,-146.625"/>
</g>
<!-- Node6 -->
<g id="node12" class="node"><title>Node6</title>
<polygon fill="none" stroke="#bfbfbf" points="111.5,-174.5 111.5,-195.5 166.5,-195.5 166.5,-174.5 111.5,-174.5"/>
<text text-anchor="middle" x="139" y="-182.5" font-family="Helvetica,sans-Serif" font-size="10.00">QPainter</text>
</g>
<!-- Node1&#45;&gt;Node6 -->
<g id="edge12" class="edge"><title>Node1&#45;&gt;Node6</title>
<path fill="none" stroke="midnightblue" d="M116.136,-232.362C119.846,-224.677 124.967,-214.069 129.422,-204.84"/>
<polygon fill="midnightblue" stroke="midnightblue" points="132.701,-206.098 133.897,-195.571 126.397,-203.055 132.701,-206.098"/>
</g>
<!-- Node7 -->
<g id="node15" class="node"><title>Node7</title>
<polygon fill="none" stroke="#bfbfbf" points="184,-174.5 184,-195.5 240,-195.5 240,-174.5 184,-174.5"/>
<text text-anchor="middle" x="212" y="-182.5" font-family="Helvetica,sans-Serif" font-size="10.00">algorithm</text>
</g>
<!-- Node1&#45;&gt;Node7 -->
<g id="edge16" class="edge"><title>Node1&#45;&gt;Node7</title>
<path fill="none" stroke="midnightblue" d="M129.525,-232.362C144.901,-223.532 166.996,-210.844 184.447,-200.822"/>
<polygon fill="midnightblue" stroke="midnightblue" points="186.664,-203.586 193.592,-195.571 183.178,-197.515 186.664,-203.586"/>
</g>
<!-- Node3 -->
<g id="node5" class="node"><title>Node3</title>
<a xlink:href="custom__item_8hpp.html" target="_top" xlink:title="custom_item.hpp">
<polygon fill="none" stroke="black" points="10,-58.5 10,-79.5 102,-79.5 102,-58.5 10,-58.5"/>
<text text-anchor="middle" x="56" y="-66.5" font-family="Helvetica,sans-Serif" font-size="10.00">custom_item.hpp</text>
</a>
</g>
<!-- Node2&#45;&gt;Node3 -->
<g id="edge4" class="edge"><title>Node2&#45;&gt;Node3</title>
<path fill="none" stroke="midnightblue" d="M30.584,-174.295C35.2305,-155.045 45.0682,-114.289 51.0495,-89.5091"/>
<polygon fill="midnightblue" stroke="midnightblue" points="54.4781,-90.2213 53.4223,-79.6792 47.6735,-88.5788 54.4781,-90.2213"/>
</g>
<!-- Node2&#45;&gt;Node5 -->
<g id="edge8" class="edge"><title>Node2&#45;&gt;Node5</title>
<path fill="none" stroke="midnightblue" d="M38.2713,-174.362C46.2441,-166.104 57.4748,-154.472 66.811,-144.803"/>
<polygon fill="midnightblue" stroke="midnightblue" points="69.3658,-147.196 73.7939,-137.571 64.33,-142.334 69.3658,-147.196"/>
</g>
<!-- Node4 -->
<g id="node7" class="node"><title>Node4</title>
<polygon fill="none" stroke="#bfbfbf" points="14.5,-0.5 14.5,-21.5 97.5,-21.5 97.5,-0.5 14.5,-0.5"/>
<text text-anchor="middle" x="56" y="-8.5" font-family="Helvetica,sans-Serif" font-size="10.00">QGraphicsItem</text>
</g>
<!-- Node3&#45;&gt;Node4 -->
<g id="edge6" class="edge"><title>Node3&#45;&gt;Node4</title>
<path fill="none" stroke="midnightblue" d="M56,-58.3619C56,-50.9219 56,-40.7427 56,-31.7276"/>
<polygon fill="midnightblue" stroke="midnightblue" points="59.5001,-31.5706 56,-21.5707 52.5001,-31.5707 59.5001,-31.5706"/>
</g>
<!-- Node5&#45;&gt;Node3 -->
<g id="edge10" class="edge"><title>Node5&#45;&gt;Node3</title>
<path fill="none" stroke="midnightblue" d="M78.8644,-116.362C75.1542,-108.677 70.0331,-98.0686 65.5779,-88.8399"/>
<polygon fill="midnightblue" stroke="midnightblue" points="68.6026,-87.0545 61.1031,-79.5707 62.2987,-90.0978 68.6026,-87.0545"/>
</g>
</g>
</svg>
