<?xml version="1.0" encoding="UTF-8" standalone="no"?>
<!DOCTYPE svg PUBLIC "-//W3C//DTD SVG 1.1//EN"
 "http://www.w3.org/Graphics/SVG/1.1/DTD/svg11.dtd">
<!-- Generated by graphviz version 2.26.3 (20100126.1600)
 -->
<!-- Title: G Pages: 1 -->
<svg width="851pt" height="436pt"
 viewBox="0.00 0.00 851.00 436.00" xmlns="http://www.w3.org/2000/svg" xmlns:xlink="http://www.w3.org/1999/xlink">
<g id="graph1" class="graph" transform="scale(1 1) rotate(0) translate(4 432)">
<title>G</title>
<!-- Node1 -->
<g id="node1" class="node"><title>Node1</title>
<polygon fill="#bfbfbf" stroke="black" points="612,-406.5 612,-427.5 668,-427.5 668,-406.5 612,-406.5"/>
<text text-anchor="middle" x="640" y="-414.5" font-family="Helvetica,sans-Serif" font-size="10.00">node.hpp</text>
</g>
<!-- Node2 -->
<g id="node3" class="node"><title>Node2</title>
<a xlink:href="knotview_8hpp.html" target="_top" xlink:title="knotview.hpp">
<polygon fill="none" stroke="black" points="376,-232.5 376,-253.5 450,-253.5 450,-232.5 376,-232.5"/>
<text text-anchor="middle" x="413" y="-240.5" font-family="Helvetica,sans-Serif" font-size="10.00">knotview.hpp</text>
</a>
</g>
<!-- Node1&#45;&gt;Node2 -->
<g id="edge2" class="edge"><title>Node1&#45;&gt;Node2</title>
<path fill="none" stroke="midnightblue" d="M613.502,-400.988C599.422,-392.221 581.978,-380.939 567,-370 511.869,-329.734 450.392,-276.233 424.984,-253.711"/>
<polygon fill="midnightblue" stroke="midnightblue" points="611.86,-404.088 622.209,-406.358 615.534,-398.13 611.86,-404.088"/>
</g>
<!-- Node17 -->
<g id="node37" class="node"><title>Node17</title>
<a xlink:href="knotgraph_8hpp.html" target="_top" xlink:title="knotgraph.hpp">
<polygon fill="none" stroke="black" points="546,-290.5 546,-311.5 624,-311.5 624,-290.5 546,-290.5"/>
<text text-anchor="middle" x="585" y="-298.5" font-family="Helvetica,sans-Serif" font-size="10.00">knotgraph.hpp</text>
</a>
</g>
<!-- Node1&#45;&gt;Node17 -->
<g id="edge40" class="edge"><title>Node1&#45;&gt;Node17</title>
<path fill="none" stroke="midnightblue" d="M607.246,-401.319C595.127,-393.69 582.715,-383.262 576,-370 566.505,-351.246 574.075,-326.11 579.899,-311.931"/>
<polygon fill="midnightblue" stroke="midnightblue" points="605.531,-404.37 615.934,-406.38 609.055,-398.322 605.531,-404.37"/>
</g>
<!-- Node19 -->
<g id="node43" class="node"><title>Node19</title>
<a xlink:href="knot__curve__style_8hpp.html" target="_top" xlink:title="knot_curve_style.hpp">
<polygon fill="none" stroke="black" points="585,-348.5 585,-369.5 695,-369.5 695,-348.5 585,-348.5"/>
<text text-anchor="middle" x="640" y="-356.5" font-family="Helvetica,sans-Serif" font-size="10.00">knot_curve_style.hpp</text>
</a>
</g>
<!-- Node1&#45;&gt;Node19 -->
<g id="edge48" class="edge"><title>Node1&#45;&gt;Node19</title>
<path fill="none" stroke="midnightblue" d="M640,-396.191C640,-387.168 640,-376.994 640,-369.571"/>
<polygon fill="midnightblue" stroke="midnightblue" points="636.5,-396.362 640,-406.362 643.5,-396.362 636.5,-396.362"/>
</g>
<!-- Node21 -->
<g id="node48" class="node"><title>Node21</title>
<a xlink:href="edge_8cpp.html" target="_top" xlink:title="edge.cpp">
<polygon fill="none" stroke="black" points="713,-348.5 713,-369.5 769,-369.5 769,-348.5 713,-348.5"/>
<text text-anchor="middle" x="741" y="-356.5" font-family="Helvetica,sans-Serif" font-size="10.00">edge.cpp</text>
</a>
</g>
<!-- Node1&#45;&gt;Node21 -->
<g id="edge54" class="edge"><title>Node1&#45;&gt;Node21</title>
<path fill="none" stroke="midnightblue" d="M667.202,-401.379C684.752,-391.301 707.109,-378.462 722.592,-369.571"/>
<polygon fill="midnightblue" stroke="midnightblue" points="665.454,-398.347 658.525,-406.362 668.94,-404.417 665.454,-398.347"/>
</g>
<!-- Node22 -->
<g id="node50" class="node"><title>Node22</title>
<a xlink:href="node_8cpp.html" target="_top" xlink:title="node.cpp">
<polygon fill="none" stroke="black" points="787,-348.5 787,-369.5 843,-369.5 843,-348.5 787,-348.5"/>
<text text-anchor="middle" x="815" y="-356.5" font-family="Helvetica,sans-Serif" font-size="10.00">node.cpp</text>
</a>
</g>
<!-- Node1&#45;&gt;Node22 -->
<g id="edge56" class="edge"><title>Node1&#45;&gt;Node22</title>
<path fill="none" stroke="midnightblue" d="M677.818,-404.466C710.631,-393.591 757.385,-378.095 786.953,-368.296"/>
<polygon fill="midnightblue" stroke="midnightblue" points="676.508,-401.213 668.117,-407.681 678.71,-407.858 676.508,-401.213"/>
</g>
<!-- Node3 -->
<g id="node5" class="node"><title>Node3</title>
<a xlink:href="clipboard_8hpp.html" target="_top" xlink:title="clipboard.hpp">
<polygon fill="none" stroke="black" points="65,-174.5 65,-195.5 139,-195.5 139,-174.5 65,-174.5"/>
<text text-anchor="middle" x="102" y="-182.5" font-family="Helvetica,sans-Serif" font-size="10.00">clipboard.hpp</text>
</a>
</g>
<!-- Node2&#45;&gt;Node3 -->
<g id="edge4" class="edge"><title>Node2&#45;&gt;Node3</title>
<path fill="none" stroke="midnightblue" d="M365.873,-234.211C303.81,-222.637 195.935,-202.518 139.248,-191.947"/>
<polygon fill="midnightblue" stroke="midnightblue" points="365.323,-237.669 375.795,-236.061 366.606,-230.787 365.323,-237.669"/>
</g>
<!-- Node9 -->
<g id="node17" class="node"><title>Node9</title>
<a xlink:href="commands_8hpp.html" target="_top" xlink:title="commands.hpp">
<polygon fill="none" stroke="black" points="346.5,-174.5 346.5,-195.5 429.5,-195.5 429.5,-174.5 346.5,-174.5"/>
<text text-anchor="middle" x="388" y="-182.5" font-family="Helvetica,sans-Serif" font-size="10.00">commands.hpp</text>
</a>
</g>
<!-- Node2&#45;&gt;Node9 -->
<g id="edge16" class="edge"><title>Node2&#45;&gt;Node9</title>
<path fill="none" stroke="midnightblue" d="M404.413,-223.079C400.432,-213.842 395.862,-203.239 392.556,-195.571"/>
<polygon fill="midnightblue" stroke="midnightblue" points="401.242,-224.564 408.415,-232.362 407.67,-221.793 401.242,-224.564"/>
</g>
<!-- Node10 -->
<g id="node20" class="node"><title>Node10</title>
<a xlink:href="knotview_8cpp.html" target="_top" xlink:title="knotview.cpp">
<polygon fill="none" stroke="black" points="436,-116.5 436,-137.5 510,-137.5 510,-116.5 436,-116.5"/>
<text text-anchor="middle" x="473" y="-124.5" font-family="Helvetica,sans-Serif" font-size="10.00">knotview.cpp</text>
</a>
</g>
<!-- Node2&#45;&gt;Node10 -->
<g id="edge36" class="edge"><title>Node2&#45;&gt;Node10</title>
<path fill="none" stroke="midnightblue" d="M423.638,-223.206C428.11,-214.832 433.345,-204.96 438,-196 448.651,-175.498 460.789,-151.398 467.608,-137.79"/>
<polygon fill="midnightblue" stroke="midnightblue" points="420.455,-221.736 418.819,-232.204 426.626,-225.041 420.455,-221.736"/>
</g>
<!-- Node11 -->
<g id="node22" class="node"><title>Node11</title>
<a xlink:href="ui__knot__window_8h.html" target="_top" xlink:title="ui_knot_window.h">
<polygon fill="none" stroke="black" points="129.5,-116.5 129.5,-137.5 224.5,-137.5 224.5,-116.5 129.5,-116.5"/>
<text text-anchor="middle" x="177" y="-124.5" font-family="Helvetica,sans-Serif" font-size="10.00">ui_knot_window.h</text>
</a>
</g>
<!-- Node2&#45;&gt;Node11 -->
<g id="edge22" class="edge"><title>Node2&#45;&gt;Node11</title>
<path fill="none" stroke="midnightblue" d="M365.966,-239.056C327.355,-233.971 272.617,-222.376 232,-196 208.874,-180.982 191.078,-152.971 182.549,-137.662"/>
<polygon fill="midnightblue" stroke="midnightblue" points="365.559,-242.533 375.91,-240.269 366.407,-235.584 365.559,-242.533"/>
</g>
<!-- Node12 -->
<g id="node25" class="node"><title>Node12</title>
<a xlink:href="ui__style__dialog_8h.html" target="_top" xlink:title="ui_style_dialog.h">
<polygon fill="none" stroke="black" points="240.5,-174.5 240.5,-195.5 329.5,-195.5 329.5,-174.5 240.5,-174.5"/>
<text text-anchor="middle" x="285" y="-182.5" font-family="Helvetica,sans-Serif" font-size="10.00">ui_style_dialog.h</text>
</a>
</g>
<!-- Node2&#45;&gt;Node12 -->
<g id="edge26" class="edge"><title>Node2&#45;&gt;Node12</title>
<path fill="none" stroke="midnightblue" d="M380.654,-228.343C358.159,-218.15 328.691,-204.798 308.44,-195.621"/>
<polygon fill="midnightblue" stroke="midnightblue" points="379.267,-231.557 389.82,-232.497 382.156,-225.181 379.267,-231.557"/>
</g>
<!-- Node16 -->
<g id="node35" class="node"><title>Node16</title>
<a xlink:href="moc__knotview_8cpp.html" target="_top" xlink:title="moc_knotview.cpp">
<polygon fill="none" stroke="black" points="485,-174.5 485,-195.5 583,-195.5 583,-174.5 485,-174.5"/>
<text text-anchor="middle" x="534" y="-182.5" font-family="Helvetica,sans-Serif" font-size="10.00">moc_knotview.cpp</text>
</a>
</g>
<!-- Node2&#45;&gt;Node16 -->
<g id="edge38" class="edge"><title>Node2&#45;&gt;Node16</title>
<path fill="none" stroke="midnightblue" d="M444.149,-228.069C465.339,-217.912 492.869,-204.716 511.842,-195.621"/>
<polygon fill="midnightblue" stroke="midnightblue" points="442.417,-225.018 434.912,-232.497 445.443,-231.33 442.417,-225.018"/>
</g>
<!-- Node4 -->
<g id="node7" class="node"><title>Node4</title>
<a xlink:href="clipboard_8cpp.html" target="_top" xlink:title="clipboard.cpp">
<polygon fill="none" stroke="black" points="0,-116.5 0,-137.5 74,-137.5 74,-116.5 0,-116.5"/>
<text text-anchor="middle" x="37" y="-124.5" font-family="Helvetica,sans-Serif" font-size="10.00">clipboard.cpp</text>
</a>
</g>
<!-- Node3&#45;&gt;Node4 -->
<g id="edge6" class="edge"><title>Node3&#45;&gt;Node4</title>
<path fill="none" stroke="midnightblue" d="M82.6017,-167.691C71.6289,-157.9 58.2628,-145.973 48.8464,-137.571"/>
<polygon fill="midnightblue" stroke="midnightblue" points="80.2863,-170.315 90.078,-174.362 84.9468,-165.092 80.2863,-170.315"/>
</g>
<!-- Node5 -->
<g id="node9" class="node"><title>Node5</title>
<a xlink:href="knot__window_8hpp.html" target="_top" xlink:title="knot_window.hpp">
<polygon fill="none" stroke="black" points="56,-58.5 56,-79.5 148,-79.5 148,-58.5 56,-58.5"/>
<text text-anchor="middle" x="102" y="-66.5" font-family="Helvetica,sans-Serif" font-size="10.00">knot_window.hpp</text>
</a>
</g>
<!-- Node3&#45;&gt;Node5 -->
<g id="edge8" class="edge"><title>Node3&#45;&gt;Node5</title>
<path fill="none" stroke="midnightblue" d="M102,-164.123C102,-139.298 102,-98.8235 102,-79.6792"/>
<polygon fill="midnightblue" stroke="midnightblue" points="98.5001,-164.295 102,-174.295 105.5,-164.295 98.5001,-164.295"/>
</g>
<!-- Node6 -->
<g id="node11" class="node"><title>Node6</title>
<a xlink:href="knot__window_8cpp.html" target="_top" xlink:title="knot_window.cpp">
<polygon fill="none" stroke="black" points="296,-0.5 296,-21.5 388,-21.5 388,-0.5 296,-0.5"/>
<text text-anchor="middle" x="342" y="-8.5" font-family="Helvetica,sans-Serif" font-size="10.00">knot_window.cpp</text>
</a>
</g>
<!-- Node5&#45;&gt;Node6 -->
<g id="edge10" class="edge"><title>Node5&#45;&gt;Node6</title>
<path fill="none" stroke="midnightblue" d="M155.204,-56.1424C198.278,-45.7328 258.202,-31.2511 298.456,-21.5231"/>
<polygon fill="midnightblue" stroke="midnightblue" points="154.36,-52.7455 145.462,-58.4966 156.005,-59.5496 154.36,-52.7455"/>
</g>
<!-- Node7 -->
<g id="node13" class="node"><title>Node7</title>
<a xlink:href="main_8cpp.html" target="_top" xlink:title="main.cpp">
<polygon fill="none" stroke="black" points="22,-0.5 22,-21.5 78,-21.5 78,-0.5 22,-0.5"/>
<text text-anchor="middle" x="50" y="-8.5" font-family="Helvetica,sans-Serif" font-size="10.00">main.cpp</text>
</a>
</g>
<!-- Node5&#45;&gt;Node7 -->
<g id="edge12" class="edge"><title>Node5&#45;&gt;Node7</title>
<path fill="none" stroke="midnightblue" d="M85.7096,-50.8299C77.0829,-41.2078 66.7908,-29.7282 59.4771,-21.5707"/>
<polygon fill="midnightblue" stroke="midnightblue" points="83.1809,-53.2526 92.4624,-58.3619 88.3929,-48.5798 83.1809,-53.2526"/>
</g>
<!-- Node8 -->
<g id="node15" class="node"><title>Node8</title>
<a xlink:href="moc__knot__window_8cpp.html" target="_top" xlink:title="moc_knot_window.cpp">
<polygon fill="none" stroke="black" points="96,-0.5 96,-21.5 212,-21.5 212,-0.5 96,-0.5"/>
<text text-anchor="middle" x="154" y="-8.5" font-family="Helvetica,sans-Serif" font-size="10.00">moc_knot_window.cpp</text>
</a>
</g>
<!-- Node5&#45;&gt;Node8 -->
<g id="edge14" class="edge"><title>Node5&#45;&gt;Node8</title>
<path fill="none" stroke="midnightblue" d="M118.29,-50.8299C126.917,-41.2078 137.209,-29.7282 144.523,-21.5707"/>
<polygon fill="midnightblue" stroke="midnightblue" points="115.607,-48.5798 111.538,-58.3619 120.819,-53.2526 115.607,-48.5798"/>
</g>
<!-- Node9&#45;&gt;Node6 -->
<g id="edge18" class="edge"><title>Node9&#45;&gt;Node6</title>
<path fill="none" stroke="midnightblue" d="M392.907,-164.439C398.049,-138.521 403.545,-93.1143 389,-58 382.729,-42.8611 368.954,-30.056 357.929,-21.6536"/>
<polygon fill="midnightblue" stroke="midnightblue" points="389.474,-163.753 390.784,-174.267 396.316,-165.231 389.474,-163.753"/>
</g>
<!-- Node9&#45;&gt;Node10 -->
<g id="edge20" class="edge"><title>Node9&#45;&gt;Node10</title>
<path fill="none" stroke="midnightblue" d="M412.121,-168.541C426.694,-158.597 444.836,-146.218 457.509,-137.571"/>
<polygon fill="midnightblue" stroke="midnightblue" points="409.878,-165.834 403.59,-174.362 413.823,-171.617 409.878,-165.834"/>
</g>
<!-- Node11&#45;&gt;Node5 -->
<g id="edge24" class="edge"><title>Node11&#45;&gt;Node5</title>
<path fill="none" stroke="midnightblue" d="M154.985,-109.975C142.256,-100.132 126.639,-88.0545 115.669,-79.5707"/>
<polygon fill="midnightblue" stroke="midnightblue" points="153.192,-113.013 163.244,-116.362 157.474,-107.476 153.192,-113.013"/>
</g>
<!-- Node13 -->
<g id="node27" class="node"><title>Node13</title>
<a xlink:href="style__dialog_8hpp.html" target="_top" xlink:title="style_dialog.hpp">
<polygon fill="none" stroke="black" points="241.5,-116.5 241.5,-137.5 328.5,-137.5 328.5,-116.5 241.5,-116.5"/>
<text text-anchor="middle" x="285" y="-124.5" font-family="Helvetica,sans-Serif" font-size="10.00">style_dialog.hpp</text>
</a>
</g>
<!-- Node12&#45;&gt;Node13 -->
<g id="edge28" class="edge"><title>Node12&#45;&gt;Node13</title>
<path fill="none" stroke="midnightblue" d="M285,-164.191C285,-155.168 285,-144.994 285,-137.571"/>
<polygon fill="midnightblue" stroke="midnightblue" points="281.5,-164.362 285,-174.362 288.5,-164.362 281.5,-164.362"/>
</g>
<!-- Node13&#45;&gt;Node5 -->
<g id="edge30" class="edge"><title>Node13&#45;&gt;Node5</title>
<path fill="none" stroke="midnightblue" d="M242.13,-113.413C209.48,-103.065 165.185,-89.0258 135.202,-79.5231"/>
<polygon fill="midnightblue" stroke="midnightblue" points="241.27,-116.812 251.86,-116.497 243.385,-110.139 241.27,-116.812"/>
</g>
<!-- Node14 -->
<g id="node30" class="node"><title>Node14</title>
<a xlink:href="moc__style__dialog_8cpp.html" target="_top" xlink:title="moc_style_dialog.cpp">
<polygon fill="none" stroke="black" points="165.5,-58.5 165.5,-79.5 276.5,-79.5 276.5,-58.5 165.5,-58.5"/>
<text text-anchor="middle" x="221" y="-66.5" font-family="Helvetica,sans-Serif" font-size="10.00">moc_style_dialog.cpp</text>
</a>
</g>
<!-- Node13&#45;&gt;Node14 -->
<g id="edge32" class="edge"><title>Node13&#45;&gt;Node14</title>
<path fill="none" stroke="midnightblue" d="M265.585,-109.405C254.841,-99.6683 241.846,-87.8914 232.664,-79.5707"/>
<polygon fill="midnightblue" stroke="midnightblue" points="263.501,-112.24 273.261,-116.362 268.202,-107.053 263.501,-112.24"/>
</g>
<!-- Node15 -->
<g id="node32" class="node"><title>Node15</title>
<a xlink:href="style__dialog_8cpp.html" target="_top" xlink:title="style_dialog.cpp">
<polygon fill="none" stroke="black" points="293.5,-58.5 293.5,-79.5 380.5,-79.5 380.5,-58.5 293.5,-58.5"/>
<text text-anchor="middle" x="337" y="-66.5" font-family="Helvetica,sans-Serif" font-size="10.00">style_dialog.cpp</text>
</a>
</g>
<!-- Node13&#45;&gt;Node15 -->
<g id="edge34" class="edge"><title>Node13&#45;&gt;Node15</title>
<path fill="none" stroke="midnightblue" d="M301.29,-108.83C309.917,-99.2078 320.209,-87.7282 327.523,-79.5707"/>
<polygon fill="midnightblue" stroke="midnightblue" points="298.607,-106.58 294.538,-116.362 303.819,-111.253 298.607,-106.58"/>
</g>
<!-- Node17&#45;&gt;Node2 -->
<g id="edge42" class="edge"><title>Node17&#45;&gt;Node2</title>
<path fill="none" stroke="midnightblue" d="M544.309,-287.279C513.661,-276.944 472.265,-262.985 444.206,-253.523"/>
<polygon fill="midnightblue" stroke="midnightblue" points="543.258,-290.618 553.852,-290.497 545.495,-283.985 543.258,-290.618"/>
</g>
<!-- Node17&#45;&gt;Node10 -->
<g id="edge46" class="edge"><title>Node17&#45;&gt;Node10</title>
<path fill="none" stroke="midnightblue" d="M593.078,-280.812C602.395,-253.937 613.819,-206.076 592,-174 582.38,-159.858 541.271,-145.722 510.039,-136.703"/>
<polygon fill="midnightblue" stroke="midnightblue" points="589.748,-279.726 589.562,-290.319 596.314,-282.154 589.748,-279.726"/>
</g>
<!-- Node18 -->
<g id="node40" class="node"><title>Node18</title>
<a xlink:href="knotgraph_8cpp.html" target="_top" xlink:title="knotgraph.cpp">
<polygon fill="none" stroke="black" points="639,-232.5 639,-253.5 717,-253.5 717,-232.5 639,-232.5"/>
<text text-anchor="middle" x="678" y="-240.5" font-family="Helvetica,sans-Serif" font-size="10.00">knotgraph.cpp</text>
</a>
</g>
<!-- Node17&#45;&gt;Node18 -->
<g id="edge44" class="edge"><title>Node17&#45;&gt;Node18</title>
<path fill="none" stroke="midnightblue" d="M610.941,-284.821C626.96,-274.831 647.055,-262.299 661.051,-253.571"/>
<polygon fill="midnightblue" stroke="midnightblue" points="608.691,-282.1 602.058,-290.362 612.395,-288.04 608.691,-282.1"/>
</g>
<!-- Node19&#45;&gt;Node17 -->
<g id="edge50" class="edge"><title>Node19&#45;&gt;Node17</title>
<path fill="none" stroke="midnightblue" d="M622.77,-340.83C613.645,-331.208 602.76,-319.728 595.024,-311.571"/>
<polygon fill="midnightblue" stroke="midnightblue" points="620.492,-343.514 629.912,-348.362 625.571,-338.697 620.492,-343.514"/>
</g>
<!-- Node20 -->
<g id="node46" class="node"><title>Node20</title>
<a xlink:href="knot__curve__style_8cpp.html" target="_top" xlink:title="knot_curve_style.cpp">
<polygon fill="none" stroke="black" points="642,-290.5 642,-311.5 752,-311.5 752,-290.5 642,-290.5"/>
<text text-anchor="middle" x="697" y="-298.5" font-family="Helvetica,sans-Serif" font-size="10.00">knot_curve_style.cpp</text>
</a>
</g>
<!-- Node19&#45;&gt;Node20 -->
<g id="edge52" class="edge"><title>Node19&#45;&gt;Node20</title>
<path fill="none" stroke="midnightblue" d="M657.574,-341.118C667.087,-331.438 678.514,-319.81 686.612,-311.571"/>
<polygon fill="midnightblue" stroke="midnightblue" points="654.968,-338.776 650.455,-348.362 659.96,-343.683 654.968,-338.776"/>
</g>
</g>
</svg>
