<?xml version="1.0" encoding="UTF-8" standalone="no"?>
<!DOCTYPE svg PUBLIC "-//W3C//DTD SVG 1.1//EN"
 "http://www.w3.org/Graphics/SVG/1.1/DTD/svg11.dtd">
<!-- Generated by graphviz version 2.26.3 (20100126.1600)
 -->
<!-- Title: G Pages: 1 -->
<svg width="164pt" height="146pt"
 viewBox="0.00 0.00 164.00 146.00" xmlns="http://www.w3.org/2000/svg" xmlns:xlink="http://www.w3.org/1999/xlink">
<g id="graph1" class="graph" transform="scale(1 1) rotate(0) translate(4 142)">
<title>G</title>
<!-- Node1 -->
<g id="node1" class="node"><title>Node1</title>
<polygon fill="#bfbfbf" stroke="black" points="42.5,-116.5 42.5,-137.5 137.5,-137.5 137.5,-116.5 42.5,-116.5"/>
<text text-anchor="middle" x="90" y="-124.5" font-family="Helvetica,sans-Serif" font-size="10.00">snapping_grid.cpp</text>
</g>
<!-- Node2 -->
<g id="node3" class="node"><title>Node2</title>
<a xlink:href="snapping__grid_8hpp.html" target="_top" xlink:title="snapping_grid.hpp">
<polygon fill="none" stroke="black" points="-0.5,-58.5 -0.5,-79.5 94.5,-79.5 94.5,-58.5 -0.5,-58.5"/>
<text text-anchor="middle" x="47" y="-66.5" font-family="Helvetica,sans-Serif" font-size="10.00">snapping_grid.hpp</text>
</a>
</g>
<!-- Node1&#45;&gt;Node2 -->
<g id="edge2" class="edge"><title>Node1&#45;&gt;Node2</title>
<path fill="none" stroke="midnightblue" d="M82.1131,-116.362C76.173,-108.35 67.8776,-97.1605 60.8412,-87.6696"/>
<polygon fill="midnightblue" stroke="midnightblue" points="63.6041,-85.5193 54.8369,-79.5707 57.9809,-89.6883 63.6041,-85.5193"/>
</g>
<!-- Node4 -->
<g id="node7" class="node"><title>Node4</title>
<polygon fill="none" stroke="#bfbfbf" points="112,-58.5 112,-79.5 156,-79.5 156,-58.5 112,-58.5"/>
<text text-anchor="middle" x="134" y="-66.5" font-family="Helvetica,sans-Serif" font-size="10.00">cmath</text>
</g>
<!-- Node1&#45;&gt;Node4 -->
<g id="edge6" class="edge"><title>Node1&#45;&gt;Node4</title>
<path fill="none" stroke="midnightblue" d="M98.0703,-116.362C104.149,-108.35 112.637,-97.1605 119.837,-87.6696"/>
<polygon fill="midnightblue" stroke="midnightblue" points="122.725,-89.653 125.981,-79.5707 117.149,-85.4222 122.725,-89.653"/>
</g>
<!-- Node3 -->
<g id="node5" class="node"><title>Node3</title>
<polygon fill="none" stroke="#bfbfbf" points="5.5,-0.5 5.5,-21.5 88.5,-21.5 88.5,-0.5 5.5,-0.5"/>
<text text-anchor="middle" x="47" y="-8.5" font-family="Helvetica,sans-Serif" font-size="10.00">QGraphicsItem</text>
</g>
<!-- Node2&#45;&gt;Node3 -->
<g id="edge4" class="edge"><title>Node2&#45;&gt;Node3</title>
<path fill="none" stroke="midnightblue" d="M47,-58.3619C47,-50.9219 47,-40.7427 47,-31.7276"/>
<polygon fill="midnightblue" stroke="midnightblue" points="50.5001,-31.5706 47,-21.5707 43.5001,-31.5707 50.5001,-31.5706"/>
</g>
</g>
</svg>
