<?xml version="1.0" encoding="UTF-8" standalone="no"?>
<!DOCTYPE svg PUBLIC "-//W3C//DTD SVG 1.1//EN"
 "http://www.w3.org/Graphics/SVG/1.1/DTD/svg11.dtd">
<!-- Generated by graphviz version 2.26.3 (20100126.1600)
 -->
<!-- Title: G Pages: 1 -->
<svg width="835pt" height="320pt"
 viewBox="0.00 0.00 835.00 320.00" xmlns="http://www.w3.org/2000/svg" xmlns:xlink="http://www.w3.org/1999/xlink">
<g id="graph1" class="graph" transform="scale(1 1) rotate(0) translate(4 316)">
<title>G</title>
<!-- Node1 -->
<g id="node1" class="node"><title>Node1</title>
<polygon fill="#bfbfbf" stroke="black" points="590.5,-290.5 590.5,-311.5 685.5,-311.5 685.5,-290.5 590.5,-290.5"/>
<text text-anchor="middle" x="638" y="-298.5" font-family="Helvetica,sans-Serif" font-size="10.00">snapping_grid.hpp</text>
</g>
<!-- Node2 -->
<g id="node3" class="node"><title>Node2</title>
<a xlink:href="knotview_8hpp.html" target="_top" xlink:title="knotview.hpp">
<polygon fill="none" stroke="black" points="365,-232.5 365,-253.5 439,-253.5 439,-232.5 365,-232.5"/>
<text text-anchor="middle" x="402" y="-240.5" font-family="Helvetica,sans-Serif" font-size="10.00">knotview.hpp</text>
</a>
</g>
<!-- Node1&#45;&gt;Node2 -->
<g id="edge2" class="edge"><title>Node1&#45;&gt;Node2</title>
<path fill="none" stroke="midnightblue" d="M585.53,-288.105C541.192,-277.208 478.779,-261.869 439.367,-252.184"/>
<polygon fill="midnightblue" stroke="midnightblue" points="584.716,-291.509 595.262,-290.497 586.386,-284.711 584.716,-291.509"/>
</g>
<!-- Node17 -->
<g id="node37" class="node"><title>Node17</title>
<a xlink:href="gridconfig_8hpp.html" target="_top" xlink:title="gridconfig.hpp">
<polygon fill="none" stroke="black" points="599.5,-232.5 599.5,-253.5 676.5,-253.5 676.5,-232.5 599.5,-232.5"/>
<text text-anchor="middle" x="638" y="-240.5" font-family="Helvetica,sans-Serif" font-size="10.00">gridconfig.hpp</text>
</a>
</g>
<!-- Node1&#45;&gt;Node17 -->
<g id="edge40" class="edge"><title>Node1&#45;&gt;Node17</title>
<path fill="none" stroke="midnightblue" d="M638,-280.191C638,-271.168 638,-260.994 638,-253.571"/>
<polygon fill="midnightblue" stroke="midnightblue" points="634.5,-280.362 638,-290.362 641.5,-280.362 634.5,-280.362"/>
</g>
<!-- Node20 -->
<g id="node44" class="node"><title>Node20</title>
<a xlink:href="snapping__grid_8cpp.html" target="_top" xlink:title="snapping_grid.cpp">
<polygon fill="none" stroke="black" points="693.5,-232.5 693.5,-253.5 788.5,-253.5 788.5,-232.5 693.5,-232.5"/>
<text text-anchor="middle" x="741" y="-240.5" font-family="Helvetica,sans-Serif" font-size="10.00">snapping_grid.cpp</text>
</a>
</g>
<!-- Node1&#45;&gt;Node20 -->
<g id="edge48" class="edge"><title>Node1&#45;&gt;Node20</title>
<path fill="none" stroke="midnightblue" d="M665.741,-285.379C683.638,-275.301 706.437,-262.462 722.228,-253.571"/>
<polygon fill="midnightblue" stroke="midnightblue" points="663.888,-282.405 656.892,-290.362 667.323,-288.505 663.888,-282.405"/>
</g>
<!-- Node3 -->
<g id="node5" class="node"><title>Node3</title>
<a xlink:href="clipboard_8hpp.html" target="_top" xlink:title="clipboard.hpp">
<polygon fill="none" stroke="black" points="365,-174.5 365,-195.5 439,-195.5 439,-174.5 365,-174.5"/>
<text text-anchor="middle" x="402" y="-182.5" font-family="Helvetica,sans-Serif" font-size="10.00">clipboard.hpp</text>
</a>
</g>
<!-- Node2&#45;&gt;Node3 -->
<g id="edge4" class="edge"><title>Node2&#45;&gt;Node3</title>
<path fill="none" stroke="midnightblue" d="M402,-222.191C402,-213.168 402,-202.994 402,-195.571"/>
<polygon fill="midnightblue" stroke="midnightblue" points="398.5,-222.362 402,-232.362 405.5,-222.362 398.5,-222.362"/>
</g>
<!-- Node9 -->
<g id="node17" class="node"><title>Node9</title>
<a xlink:href="commands_8hpp.html" target="_top" xlink:title="commands.hpp">
<polygon fill="none" stroke="black" points="456.5,-174.5 456.5,-195.5 539.5,-195.5 539.5,-174.5 456.5,-174.5"/>
<text text-anchor="middle" x="498" y="-182.5" font-family="Helvetica,sans-Serif" font-size="10.00">commands.hpp</text>
</a>
</g>
<!-- Node2&#45;&gt;Node9 -->
<g id="edge16" class="edge"><title>Node2&#45;&gt;Node9</title>
<path fill="none" stroke="midnightblue" d="M428.316,-227.101C444.926,-217.066 465.921,-204.381 480.504,-195.571"/>
<polygon fill="midnightblue" stroke="midnightblue" points="426.357,-224.195 419.608,-232.362 429.977,-230.186 426.357,-224.195"/>
</g>
<!-- Node10 -->
<g id="node20" class="node"><title>Node10</title>
<a xlink:href="knotview_8cpp.html" target="_top" xlink:title="knotview.cpp">
<polygon fill="none" stroke="black" points="503,-116.5 503,-137.5 577,-137.5 577,-116.5 503,-116.5"/>
<text text-anchor="middle" x="540" y="-124.5" font-family="Helvetica,sans-Serif" font-size="10.00">knotview.cpp</text>
</a>
</g>
<!-- Node2&#45;&gt;Node10 -->
<g id="edge36" class="edge"><title>Node2&#45;&gt;Node10</title>
<path fill="none" stroke="midnightblue" d="M449.211,-234.043C487.193,-225.764 536.124,-212.299 548,-196 560.499,-178.846 552.031,-152.665 545.517,-137.978"/>
<polygon fill="midnightblue" stroke="midnightblue" points="448.383,-230.64 439.325,-236.136 449.833,-237.488 448.383,-230.64"/>
</g>
<!-- Node11 -->
<g id="node22" class="node"><title>Node11</title>
<a xlink:href="ui__knot__window_8h.html" target="_top" xlink:title="ui_knot_window.h">
<polygon fill="none" stroke="black" points="212.5,-116.5 212.5,-137.5 307.5,-137.5 307.5,-116.5 212.5,-116.5"/>
<text text-anchor="middle" x="260" y="-124.5" font-family="Helvetica,sans-Serif" font-size="10.00">ui_knot_window.h</text>
</a>
</g>
<!-- Node2&#45;&gt;Node11 -->
<g id="edge22" class="edge"><title>Node2&#45;&gt;Node11</title>
<path fill="none" stroke="midnightblue" d="M354.938,-235.72C312.233,-228.039 253.881,-214.48 240,-196 226.817,-178.448 241.214,-152.417 251.499,-137.861"/>
<polygon fill="midnightblue" stroke="midnightblue" points="354.424,-239.183 364.877,-237.454 355.627,-232.288 354.424,-239.183"/>
</g>
<!-- Node12 -->
<g id="node25" class="node"><title>Node12</title>
<a xlink:href="ui__style__dialog_8h.html" target="_top" xlink:title="ui_style_dialog.h">
<polygon fill="none" stroke="black" points="104.5,-174.5 104.5,-195.5 193.5,-195.5 193.5,-174.5 104.5,-174.5"/>
<text text-anchor="middle" x="149" y="-182.5" font-family="Helvetica,sans-Serif" font-size="10.00">ui_style_dialog.h</text>
</a>
</g>
<!-- Node2&#45;&gt;Node12 -->
<g id="edge26" class="edge"><title>Node2&#45;&gt;Node12</title>
<path fill="none" stroke="midnightblue" d="M354.911,-232.205C308.83,-221.641 239.143,-205.665 193.847,-195.281"/>
<polygon fill="midnightblue" stroke="midnightblue" points="354.411,-235.681 364.941,-234.504 355.976,-228.858 354.411,-235.681"/>
</g>
<!-- Node16 -->
<g id="node35" class="node"><title>Node16</title>
<a xlink:href="moc__knotview_8cpp.html" target="_top" xlink:title="moc_knotview.cpp">
<polygon fill="none" stroke="black" points="249,-174.5 249,-195.5 347,-195.5 347,-174.5 249,-174.5"/>
<text text-anchor="middle" x="298" y="-182.5" font-family="Helvetica,sans-Serif" font-size="10.00">moc_knotview.cpp</text>
</a>
</g>
<!-- Node2&#45;&gt;Node16 -->
<g id="edge38" class="edge"><title>Node2&#45;&gt;Node16</title>
<path fill="none" stroke="midnightblue" d="M373.99,-227.379C355.919,-217.301 332.898,-204.462 316.954,-195.571"/>
<polygon fill="midnightblue" stroke="midnightblue" points="372.486,-230.548 382.925,-232.362 375.896,-224.434 372.486,-230.548"/>
</g>
<!-- Node4 -->
<g id="node7" class="node"><title>Node4</title>
<a xlink:href="clipboard_8cpp.html" target="_top" xlink:title="clipboard.cpp">
<polygon fill="none" stroke="black" points="365,-116.5 365,-137.5 439,-137.5 439,-116.5 365,-116.5"/>
<text text-anchor="middle" x="402" y="-124.5" font-family="Helvetica,sans-Serif" font-size="10.00">clipboard.cpp</text>
</a>
</g>
<!-- Node3&#45;&gt;Node4 -->
<g id="edge6" class="edge"><title>Node3&#45;&gt;Node4</title>
<path fill="none" stroke="midnightblue" d="M402,-164.191C402,-155.168 402,-144.994 402,-137.571"/>
<polygon fill="midnightblue" stroke="midnightblue" points="398.5,-164.362 402,-174.362 405.5,-164.362 398.5,-164.362"/>
</g>
<!-- Node5 -->
<g id="node9" class="node"><title>Node5</title>
<a xlink:href="knot__window_8hpp.html" target="_top" xlink:title="knot_window.hpp">
<polygon fill="none" stroke="black" points="252,-58.5 252,-79.5 344,-79.5 344,-58.5 252,-58.5"/>
<text text-anchor="middle" x="298" y="-66.5" font-family="Helvetica,sans-Serif" font-size="10.00">knot_window.hpp</text>
</a>
</g>
<!-- Node3&#45;&gt;Node5 -->
<g id="edge8" class="edge"><title>Node3&#45;&gt;Node5</title>
<path fill="none" stroke="midnightblue" d="M383.843,-167.089C375.245,-158.447 364.928,-147.841 356,-138 337.914,-118.065 317.949,-93.7703 306.794,-79.9728"/>
<polygon fill="midnightblue" stroke="midnightblue" points="381.615,-169.811 391.167,-174.396 386.559,-164.855 381.615,-169.811"/>
</g>
<!-- Node6 -->
<g id="node11" class="node"><title>Node6</title>
<a xlink:href="knot__window_8cpp.html" target="_top" xlink:title="knot_window.cpp">
<polygon fill="none" stroke="black" points="429,-0.5 429,-21.5 521,-21.5 521,-0.5 429,-0.5"/>
<text text-anchor="middle" x="475" y="-8.5" font-family="Helvetica,sans-Serif" font-size="10.00">knot_window.cpp</text>
</a>
</g>
<!-- Node5&#45;&gt;Node6 -->
<g id="edge10" class="edge"><title>Node5&#45;&gt;Node6</title>
<path fill="none" stroke="midnightblue" d="M339.874,-55.2787C371.413,-44.9437 414.012,-30.9849 442.887,-21.5231"/>
<polygon fill="midnightblue" stroke="midnightblue" points="338.466,-52.0567 330.053,-58.4966 340.646,-58.7086 338.466,-52.0567"/>
</g>
<!-- Node7 -->
<g id="node13" class="node"><title>Node7</title>
<a xlink:href="main_8cpp.html" target="_top" xlink:title="main.cpp">
<polygon fill="none" stroke="black" points="193,-0.5 193,-21.5 249,-21.5 249,-0.5 193,-0.5"/>
<text text-anchor="middle" x="221" y="-8.5" font-family="Helvetica,sans-Serif" font-size="10.00">main.cpp</text>
</a>
</g>
<!-- Node5&#45;&gt;Node7 -->
<g id="edge12" class="edge"><title>Node5&#45;&gt;Node7</title>
<path fill="none" stroke="midnightblue" d="M275.774,-52.2587C262.639,-42.3641 246.405,-30.1361 235.033,-21.5707"/>
<polygon fill="midnightblue" stroke="midnightblue" points="273.784,-55.1409 283.877,-58.3619 277.995,-49.5496 273.784,-55.1409"/>
</g>
<!-- Node8 -->
<g id="node15" class="node"><title>Node8</title>
<a xlink:href="moc__knot__window_8cpp.html" target="_top" xlink:title="moc_knot_window.cpp">
<polygon fill="none" stroke="black" points="267,-0.5 267,-21.5 383,-21.5 383,-0.5 267,-0.5"/>
<text text-anchor="middle" x="325" y="-8.5" font-family="Helvetica,sans-Serif" font-size="10.00">moc_knot_window.cpp</text>
</a>
</g>
<!-- Node5&#45;&gt;Node8 -->
<g id="edge14" class="edge"><title>Node5&#45;&gt;Node8</title>
<path fill="none" stroke="midnightblue" d="M307.274,-49.079C311.573,-39.8422 316.51,-29.2388 320.079,-21.5707"/>
<polygon fill="midnightblue" stroke="midnightblue" points="304,-47.819 302.952,-58.3619 310.346,-50.7732 304,-47.819"/>
</g>
<!-- Node9&#45;&gt;Node6 -->
<g id="edge18" class="edge"><title>Node9&#45;&gt;Node6</title>
<path fill="none" stroke="midnightblue" d="M495.251,-164.2C490.335,-127.013 480.203,-50.3605 476.444,-21.9277"/>
<polygon fill="midnightblue" stroke="midnightblue" points="491.816,-164.922 496.596,-174.377 498.755,-164.005 491.816,-164.922"/>
</g>
<!-- Node9&#45;&gt;Node10 -->
<g id="edge20" class="edge"><title>Node9&#45;&gt;Node10</title>
<path fill="none" stroke="midnightblue" d="M511.577,-166.25C518.457,-156.75 526.556,-145.565 532.345,-137.571"/>
<polygon fill="midnightblue" stroke="midnightblue" points="508.734,-164.21 505.703,-174.362 514.403,-168.315 508.734,-164.21"/>
</g>
<!-- Node11&#45;&gt;Node5 -->
<g id="edge24" class="edge"><title>Node11&#45;&gt;Node5</title>
<path fill="none" stroke="midnightblue" d="M272.475,-107.959C278.658,-98.522 285.89,-87.4835 291.074,-79.5707"/>
<polygon fill="midnightblue" stroke="midnightblue" points="269.522,-106.079 266.97,-116.362 275.378,-109.915 269.522,-106.079"/>
</g>
<!-- Node13 -->
<g id="node27" class="node"><title>Node13</title>
<a xlink:href="style__dialog_8hpp.html" target="_top" xlink:title="style_dialog.hpp">
<polygon fill="none" stroke="black" points="107.5,-116.5 107.5,-137.5 194.5,-137.5 194.5,-116.5 107.5,-116.5"/>
<text text-anchor="middle" x="151" y="-124.5" font-family="Helvetica,sans-Serif" font-size="10.00">style_dialog.hpp</text>
</a>
</g>
<!-- Node12&#45;&gt;Node13 -->
<g id="edge28" class="edge"><title>Node12&#45;&gt;Node13</title>
<path fill="none" stroke="midnightblue" d="M149.718,-164.191C150.029,-155.168 150.38,-144.994 150.635,-137.571"/>
<polygon fill="midnightblue" stroke="midnightblue" points="146.214,-164.247 149.367,-174.362 153.209,-164.488 146.214,-164.247"/>
</g>
<!-- Node13&#45;&gt;Node5 -->
<g id="edge30" class="edge"><title>Node13&#45;&gt;Node5</title>
<path fill="none" stroke="midnightblue" d="M187.114,-112.751C213.073,-102.509 247.512,-88.9206 271.081,-79.6212"/>
<polygon fill="midnightblue" stroke="midnightblue" points="185.638,-109.571 177.621,-116.497 188.207,-116.082 185.638,-109.571"/>
</g>
<!-- Node14 -->
<g id="node30" class="node"><title>Node14</title>
<a xlink:href="moc__style__dialog_8cpp.html" target="_top" xlink:title="moc_style_dialog.cpp">
<polygon fill="none" stroke="black" points="-0.5,-58.5 -0.5,-79.5 110.5,-79.5 110.5,-58.5 -0.5,-58.5"/>
<text text-anchor="middle" x="55" y="-66.5" font-family="Helvetica,sans-Serif" font-size="10.00">moc_style_dialog.cpp</text>
</a>
</g>
<!-- Node13&#45;&gt;Node14 -->
<g id="edge32" class="edge"><title>Node13&#45;&gt;Node14</title>
<path fill="none" stroke="midnightblue" d="M124.684,-111.101C108.074,-101.066 87.0786,-88.3808 72.4963,-79.5707"/>
<polygon fill="midnightblue" stroke="midnightblue" points="123.023,-114.186 133.392,-116.362 126.643,-108.195 123.023,-114.186"/>
</g>
<!-- Node15 -->
<g id="node32" class="node"><title>Node15</title>
<a xlink:href="style__dialog_8cpp.html" target="_top" xlink:title="style_dialog.cpp">
<polygon fill="none" stroke="black" points="127.5,-58.5 127.5,-79.5 214.5,-79.5 214.5,-58.5 127.5,-58.5"/>
<text text-anchor="middle" x="171" y="-66.5" font-family="Helvetica,sans-Serif" font-size="10.00">style_dialog.cpp</text>
</a>
</g>
<!-- Node13&#45;&gt;Node15 -->
<g id="edge34" class="edge"><title>Node13&#45;&gt;Node15</title>
<path fill="none" stroke="midnightblue" d="M157.971,-106.784C161.132,-97.617 164.739,-87.1572 167.355,-79.5707"/>
<polygon fill="midnightblue" stroke="midnightblue" points="154.619,-105.767 154.668,-116.362 161.237,-108.049 154.619,-105.767"/>
</g>
<!-- Node17&#45;&gt;Node6 -->
<g id="edge44" class="edge"><title>Node17&#45;&gt;Node6</title>
<path fill="none" stroke="midnightblue" d="M630.802,-222.488C619.69,-191.389 598.351,-134.019 586,-116 558.404,-75.7408 513.135,-39.111 489.853,-21.6914"/>
<polygon fill="midnightblue" stroke="midnightblue" points="627.635,-224.029 634.275,-232.285 634.233,-221.691 627.635,-224.029"/>
</g>
<!-- Node18 -->
<g id="node39" class="node"><title>Node18</title>
<a xlink:href="gridconfig_8cpp.html" target="_top" xlink:title="gridconfig.cpp">
<polygon fill="none" stroke="black" points="632.5,-174.5 632.5,-195.5 709.5,-195.5 709.5,-174.5 632.5,-174.5"/>
<text text-anchor="middle" x="671" y="-182.5" font-family="Helvetica,sans-Serif" font-size="10.00">gridconfig.cpp</text>
</a>
</g>
<!-- Node17&#45;&gt;Node18 -->
<g id="edge42" class="edge"><title>Node17&#45;&gt;Node18</title>
<path fill="none" stroke="midnightblue" d="M649,-223.667C654.332,-214.295 660.53,-203.402 664.986,-195.571"/>
<polygon fill="midnightblue" stroke="midnightblue" points="645.956,-221.939 644.053,-232.362 652.04,-225.401 645.956,-221.939"/>
</g>
<!-- Node19 -->
<g id="node42" class="node"><title>Node19</title>
<a xlink:href="moc__gridconfig_8cpp.html" target="_top" xlink:title="moc_gridconfig.cpp">
<polygon fill="none" stroke="black" points="726.5,-174.5 726.5,-195.5 827.5,-195.5 827.5,-174.5 726.5,-174.5"/>
<text text-anchor="middle" x="777" y="-182.5" font-family="Helvetica,sans-Serif" font-size="10.00">moc_gridconfig.cpp</text>
</a>
</g>
<!-- Node17&#45;&gt;Node19 -->
<g id="edge46" class="edge"><title>Node17&#45;&gt;Node19</title>
<path fill="none" stroke="midnightblue" d="M672.474,-228.615C696.982,-218.389 729.358,-204.88 751.546,-195.621"/>
<polygon fill="midnightblue" stroke="midnightblue" points="671.053,-225.416 663.172,-232.497 673.748,-231.876 671.053,-225.416"/>
</g>
</g>
</svg>
