<?xml version="1.0" encoding="UTF-8" standalone="no"?>
<!DOCTYPE svg PUBLIC "-//W3C//DTD SVG 1.1//EN"
 "http://www.w3.org/Graphics/SVG/1.1/DTD/svg11.dtd">
<!-- Generated by graphviz version 2.26.3 (20100126.1600)
 -->
<!-- Title: G Pages: 1 -->
<svg width="647pt" height="356pt"
 viewBox="0.00 0.00 647.00 356.00" xmlns="http://www.w3.org/2000/svg" xmlns:xlink="http://www.w3.org/1999/xlink">
<g id="graph1" class="graph" transform="scale(1 1) rotate(0) translate(4 352)">
<title>G</title>
<!-- Node1 -->
<g id="node1" class="node"><title>Node1</title>
<polygon fill="#bfbfbf" stroke="black" points="192,-0.5 192,-21.5 266,-21.5 266,-0.5 192,-0.5"/>
<text text-anchor="middle" x="229" y="-8.5" font-family="Helvetica,sans-Serif" font-size="10.00">TraversalInfo</text>
</g>
<!-- Node2 -->
<g id="node2" class="node"><title>Node2</title>
<polygon fill="none" stroke="#bfbfbf" points="0,-98.5 0,-119.5 80,-119.5 80,-98.5 0,-98.5"/>
<text text-anchor="middle" x="40" y="-106.5" font-family="Helvetica,sans-Serif" font-size="10.00">handside_type</text>
</g>
<!-- Node2&#45;&gt;Node1 -->
<g id="edge2" class="edge"><title>Node2&#45;&gt;Node1</title>
<path fill="none" stroke="#9a32cd" stroke-dasharray="5,2" d="M45.3415,-88.5844C50.5413,-72.851 60.0456,-51.8445 76,-40 93.9628,-26.6645 152.645,-18.4511 191.891,-14.3105"/>
<polygon fill="#9a32cd" stroke="#9a32cd" points="41.9013,-87.8739 42.403,-98.4568 48.6105,-89.8709 41.9013,-87.8739"/>
<text text-anchor="middle" x="96" y="-57.5" font-family="Helvetica,sans-Serif" font-size="10.00">handside</text>
</g>
<!-- Node3 -->
<g id="node4" class="node"><title>Node3</title>
<polygon fill="none" stroke="#bfbfbf" points="97.5,-98.5 97.5,-119.5 142.5,-119.5 142.5,-98.5 97.5,-98.5"/>
<text text-anchor="middle" x="120" y="-106.5" font-family="Helvetica,sans-Serif" font-size="10.00">double</text>
</g>
<!-- Node3&#45;&gt;Node1 -->
<g id="edge4" class="edge"><title>Node3&#45;&gt;Node1</title>
<path fill="none" stroke="#9a32cd" stroke-dasharray="5,2" d="M119.245,-88.4138C119.805,-73.2203 123.057,-53.0062 135,-40 142.855,-31.4459 168.893,-23.796 191.578,-18.5037"/>
<polygon fill="#9a32cd" stroke="#9a32cd" points="115.745,-88.4085 119.227,-98.4148 122.745,-88.4212 115.745,-88.4085"/>
<text text-anchor="middle" x="160" y="-70.5" font-family="Helvetica,sans-Serif" font-size="10.00">angle_delta</text>
<text text-anchor="middle" x="160" y="-57.5" font-family="Helvetica,sans-Serif" font-size="10.00">angle_in</text>
<text text-anchor="middle" x="160" y="-44.5" font-family="Helvetica,sans-Serif" font-size="10.00">angle_out</text>
</g>
<!-- Node4 -->
<g id="node6" class="node"><title>Node4</title>
<polygon fill="none" stroke="#bfbfbf" points="159.5,-98.5 159.5,-119.5 228.5,-119.5 228.5,-98.5 159.5,-98.5"/>
<text text-anchor="middle" x="194" y="-106.5" font-family="Helvetica,sans-Serif" font-size="10.00">handle_type</text>
</g>
<!-- Node4&#45;&gt;Node1 -->
<g id="edge6" class="edge"><title>Node4&#45;&gt;Node1</title>
<path fill="none" stroke="#9a32cd" stroke-dasharray="5,2" d="M189.931,-87.8532C188.221,-73.6509 188.001,-54.8852 195,-40 198.499,-32.5579 204.93,-26.3068 211.265,-21.5364"/>
<polygon fill="#9a32cd" stroke="#9a32cd" points="186.528,-88.7538 191.512,-98.1035 193.447,-87.6869 186.528,-88.7538"/>
<text text-anchor="middle" x="219" y="-64" font-family="Helvetica,sans-Serif" font-size="10.00">handle_in</text>
<text text-anchor="middle" x="219" y="-51" font-family="Helvetica,sans-Serif" font-size="10.00">handle_out</text>
</g>
<!-- Node5 -->
<g id="node8" class="node"><title>Node5</title>
<polygon fill="none" stroke="#bfbfbf" points="246,-98.5 246,-119.5 296,-119.5 296,-98.5 246,-98.5"/>
<text text-anchor="middle" x="271" y="-106.5" font-family="Helvetica,sans-Serif" font-size="10.00">QString</text>
</g>
<!-- Node5&#45;&gt;Node1 -->
<g id="edge8" class="edge"><title>Node5&#45;&gt;Node1</title>
<path fill="none" stroke="#9a32cd" stroke-dasharray="5,2" d="M263.138,-88.6459C257.704,-74.8288 250.187,-56.1964 243,-40 240.279,-33.8677 237.033,-27.1124 234.352,-21.6656"/>
<polygon fill="#9a32cd" stroke="#9a32cd" points="259.952,-90.1093 266.847,-98.1533 266.473,-87.5651 259.952,-90.1093"/>
<text text-anchor="middle" x="291.5" y="-57.5" font-family="Helvetica,sans-Serif" font-size="10.00">error_message</text>
</g>
<!-- Node6 -->
<g id="node10" class="node"><title>Node6</title>
<polygon fill="none" stroke="#bfbfbf" points="331.5,-326.5 331.5,-347.5 366.5,-347.5 366.5,-326.5 331.5,-326.5"/>
<text text-anchor="middle" x="349" y="-334.5" font-family="Helvetica,sans-Serif" font-size="10.00">bool</text>
</g>
<!-- Node6&#45;&gt;Node1 -->
<g id="edge10" class="edge"><title>Node6&#45;&gt;Node1</title>
<path fill="none" stroke="#9a32cd" stroke-dasharray="5,2" d="M347.218,-316.002C346.151,-301.65 345,-282.189 345,-265 345,-265 345,-265 345,-109 345,-77.4163 349.843,-62.8123 328,-40 319.33,-30.9449 290.534,-23.1207 266.219,-17.8893"/>
<polygon fill="#9a32cd" stroke="#9a32cd" points="343.753,-316.584 348.032,-326.276 350.731,-316.031 343.753,-316.584"/>
<text text-anchor="middle" x="363.5" y="-190.5" font-family="Helvetica,sans-Serif" font-size="10.00">success</text>
</g>
<!-- Node8 -->
<g id="node14" class="node"><title>Node8</title>
<a xlink:href="classCustomItem.html" target="_top" xlink:title="CustomItem">
<polygon fill="none" stroke="black" points="373.5,-254.5 373.5,-275.5 444.5,-275.5 444.5,-254.5 373.5,-254.5"/>
<text text-anchor="middle" x="409" y="-262.5" font-family="Helvetica,sans-Serif" font-size="10.00">CustomItem</text>
</a>
</g>
<!-- Node6&#45;&gt;Node8 -->
<g id="edge18" class="edge"><title>Node6&#45;&gt;Node8</title>
<path fill="none" stroke="#9a32cd" stroke-dasharray="5,2" d="M359.625,-317.478C364.204,-309.814 369.906,-301.158 376,-294 381.636,-287.379 388.797,-280.904 395.006,-275.758"/>
<polygon fill="#9a32cd" stroke="#9a32cd" points="356.581,-315.75 354.645,-326.167 362.654,-319.231 356.581,-315.75"/>
<text text-anchor="middle" x="394.5" y="-298.5" font-family="Helvetica,sans-Serif" font-size="10.00">highlight</text>
</g>
<!-- Node7 -->
<g id="node12" class="node"><title>Node7</title>
<a xlink:href="classEdge.html" target="_top" xlink:title="Edge">
<polygon fill="none" stroke="black" points="438.5,-98.5 438.5,-119.5 477.5,-119.5 477.5,-98.5 438.5,-98.5"/>
<text text-anchor="middle" x="458" y="-106.5" font-family="Helvetica,sans-Serif" font-size="10.00">Edge</text>
</a>
</g>
<!-- Node7&#45;&gt;Node1 -->
<g id="edge12" class="edge"><title>Node7&#45;&gt;Node1</title>
<path fill="none" stroke="#9a32cd" stroke-dasharray="5,2" d="M438.47,-91.9003C419.446,-76.1283 389.073,-53.217 359,-40 329.151,-26.8812 292.745,-19.4162 266.061,-15.3566"/>
<polygon fill="#9a32cd" stroke="#9a32cd" points="436.237,-94.5949 446.133,-98.3787 440.756,-89.2494 436.237,-94.5949"/>
<text text-anchor="middle" x="442" y="-64" font-family="Helvetica,sans-Serif" font-size="10.00">edge_in</text>
<text text-anchor="middle" x="442" y="-51" font-family="Helvetica,sans-Serif" font-size="10.00">edge_out</text>
</g>
<!-- Node8&#45;&gt;Node7 -->
<g id="edge14" class="edge"><title>Node8&#45;&gt;Node7</title>
<path fill="none" stroke="midnightblue" d="M413.098,-244.475C416.68,-227.541 422.343,-202.976 429,-182 436.178,-159.383 446.995,-133.787 453.189,-119.71"/>
<polygon fill="midnightblue" stroke="midnightblue" points="409.646,-243.886 411.054,-254.387 416.501,-245.299 409.646,-243.886"/>
</g>
<!-- Node10 -->
<g id="node19" class="node"><title>Node10</title>
<a xlink:href="classNode.html" target="_top" xlink:title="Node">
<polygon fill="none" stroke="black" points="438,-182.5 438,-203.5 478,-203.5 478,-182.5 438,-182.5"/>
<text text-anchor="middle" x="458" y="-190.5" font-family="Helvetica,sans-Serif" font-size="10.00">Node</text>
</a>
</g>
<!-- Node8&#45;&gt;Node10 -->
<g id="edge22" class="edge"><title>Node8&#45;&gt;Node10</title>
<path fill="none" stroke="midnightblue" d="M422.06,-245.81C431.247,-232.311 443.201,-214.745 450.74,-203.667"/>
<polygon fill="midnightblue" stroke="midnightblue" points="418.963,-244.14 416.23,-254.376 424.75,-248.078 418.963,-244.14"/>
</g>
<!-- Node9 -->
<g id="node16" class="node"><title>Node9</title>
<a xlink:href="classQGraphicsItem.html" target="_top" xlink:title="QGraphicsItem">
<polygon fill="none" stroke="black" points="388.5,-326.5 388.5,-347.5 471.5,-347.5 471.5,-326.5 388.5,-326.5"/>
<text text-anchor="middle" x="430" y="-334.5" font-family="Helvetica,sans-Serif" font-size="10.00">QGraphicsItem</text>
</a>
</g>
<!-- Node9&#45;&gt;Node8 -->
<g id="edge16" class="edge"><title>Node9&#45;&gt;Node8</title>
<path fill="none" stroke="midnightblue" d="M424.059,-316.632C420.172,-303.303 415.249,-286.425 412.111,-275.667"/>
<polygon fill="midnightblue" stroke="midnightblue" points="420.741,-317.756 426.901,-326.376 427.461,-315.796 420.741,-317.756"/>
</g>
<!-- Node10&#45;&gt;Node7 -->
<g id="edge20" class="edge"><title>Node10&#45;&gt;Node7</title>
<path fill="none" stroke="#9a32cd" stroke-dasharray="5,2" d="M458,-171.945C458,-155.257 458,-132.639 458,-119.552"/>
<polygon fill="#9a32cd" stroke="#9a32cd" points="454.5,-172.361 458,-182.361 461.5,-172.361 454.5,-172.361"/>
<text text-anchor="middle" x="468" y="-155" font-family="Helvetica,sans-Serif" font-size="10.00">end</text>
<text text-anchor="middle" x="468" y="-142" font-family="Helvetica,sans-Serif" font-size="10.00">start</text>
</g>
<!-- Node11 -->
<g id="node22" class="node"><title>Node11</title>
<polygon fill="none" stroke="#bfbfbf" points="461.5,-254.5 461.5,-275.5 490.5,-275.5 490.5,-254.5 461.5,-254.5"/>
<text text-anchor="middle" x="476" y="-262.5" font-family="Helvetica,sans-Serif" font-size="10.00">int</text>
</g>
<!-- Node11&#45;&gt;Node10 -->
<g id="edge24" class="edge"><title>Node11&#45;&gt;Node10</title>
<path fill="none" stroke="#9a32cd" stroke-dasharray="5,2" d="M470.908,-244.632C467.576,-231.303 463.356,-214.425 460.667,-203.667"/>
<polygon fill="#9a32cd" stroke="#9a32cd" points="467.523,-245.524 473.344,-254.376 474.314,-243.826 467.523,-245.524"/>
<text text-anchor="middle" x="481.5" y="-226.5" font-family="Helvetica,sans-Serif" font-size="10.00">radius</text>
</g>
<!-- Node12 -->
<g id="node24" class="node"><title>Node12</title>
<polygon fill="none" stroke="#bfbfbf" points="507.5,-254.5 507.5,-275.5 594.5,-275.5 594.5,-254.5 507.5,-254.5"/>
<text text-anchor="middle" x="551" y="-262.5" font-family="Helvetica,sans-Serif" font-size="10.00">QList&lt; Edge * &gt;</text>
</g>
<!-- Node12&#45;&gt;Node10 -->
<g id="edge26" class="edge"><title>Node12&#45;&gt;Node10</title>
<path fill="none" stroke="#9a32cd" stroke-dasharray="5,2" d="M531.04,-247.899C521.482,-239.865 509.792,-230.26 499,-222 490.83,-215.747 481.481,-209.097 473.775,-203.745"/>
<polygon fill="#9a32cd" stroke="#9a32cd" points="528.921,-250.691 538.814,-254.482 533.444,-245.348 528.921,-250.691"/>
<text text-anchor="middle" x="529.5" y="-226.5" font-family="Helvetica,sans-Serif" font-size="10.00">edges</text>
</g>
<!-- Node13 -->
<g id="node26" class="node"><title>Node13</title>
<polygon fill="none" stroke="#bfbfbf" points="495.5,-182.5 495.5,-203.5 530.5,-203.5 530.5,-182.5 495.5,-182.5"/>
<text text-anchor="middle" x="513" y="-190.5" font-family="Helvetica,sans-Serif" font-size="10.00">long</text>
</g>
<!-- Node13&#45;&gt;Node7 -->
<g id="edge28" class="edge"><title>Node13&#45;&gt;Node7</title>
<path fill="none" stroke="#9a32cd" stroke-dasharray="5,2" d="M502.92,-173.153C497.218,-162.461 489.702,-149.203 482,-138 477.631,-131.645 472.191,-124.987 467.595,-119.656"/>
<polygon fill="#9a32cd" stroke="#9a32cd" points="499.869,-174.873 507.6,-182.118 506.075,-171.633 499.869,-174.873"/>
<text text-anchor="middle" x="537" y="-148.5" font-family="Helvetica,sans-Serif" font-size="10.00">traversed_handles</text>
</g>
<!-- Node14 -->
<g id="node28" class="node"><title>Node14</title>
<polygon fill="none" stroke="#bfbfbf" points="580.5,-182.5 580.5,-203.5 639.5,-203.5 639.5,-182.5 580.5,-182.5"/>
<text text-anchor="middle" x="610" y="-190.5" font-family="Helvetica,sans-Serif" font-size="10.00">type_type</text>
</g>
<!-- Node14&#45;&gt;Node7 -->
<g id="edge30" class="edge"><title>Node14&#45;&gt;Node7</title>
<path fill="none" stroke="#9a32cd" stroke-dasharray="5,2" d="M604.059,-172.787C599.57,-160.958 592.225,-146.686 581,-138 565.037,-125.648 508.479,-116.07 477.927,-111.66"/>
<polygon fill="#9a32cd" stroke="#9a32cd" points="600.774,-174.001 607.294,-182.352 607.405,-171.757 600.774,-174.001"/>
<text text-anchor="middle" x="608.5" y="-148.5" font-family="Helvetica,sans-Serif" font-size="10.00">type</text>
</g>
</g>
</svg>
