<?xml version="1.0" encoding="UTF-8" standalone="no"?>
<!DOCTYPE svg PUBLIC "-//W3C//DTD SVG 1.1//EN"
 "http://www.w3.org/Graphics/SVG/1.1/DTD/svg11.dtd">
<!-- Generated by graphviz version 2.26.3 (20100126.1600)
 -->
<!-- Title: G Pages: 1 -->
<svg width="394pt" height="102pt"
 viewBox="0.00 0.00 394.00 102.00" xmlns="http://www.w3.org/2000/svg" xmlns:xlink="http://www.w3.org/1999/xlink">
<g id="graph1" class="graph" transform="scale(1 1) rotate(0) translate(4 98)">
<title>G</title>
<!-- Node1 -->
<g id="node1" class="node"><title>Node1</title>
<polygon fill="#bfbfbf" stroke="black" points="158,-0.5 158,-21.5 252,-21.5 252,-0.5 158,-0.5"/>
<text text-anchor="middle" x="205" y="-8.5" font-family="Helvetica,sans-Serif" font-size="10.00">knot_curve_styler</text>
</g>
<!-- Node1&#45;&gt;Node1 -->
<g id="edge4" class="edge"><title>Node1&#45;&gt;Node1</title>
<path fill="none" stroke="#9a32cd" stroke-dasharray="5,2" d="M262.287,-16.2107C267.043,-15.088 270,-13.3511 270,-11 270,-7.23828 262.43,-5.04884 252.035,-4.43169"/>
<polygon fill="#9a32cd" stroke="#9a32cd" points="261.489,-12.7857 252.035,-17.5683 262.408,-19.7251 261.489,-12.7857"/>
<text text-anchor="middle" x="290" y="-8.5" font-family="Helvetica,sans-Serif" font-size="10.00">singleton</text>
</g>
<!-- Node2 -->
<g id="node2" class="node"><title>Node2</title>
<polygon fill="none" stroke="#bfbfbf" points="-0.5,-72.5 -0.5,-93.5 208.5,-93.5 208.5,-72.5 -0.5,-72.5"/>
<text text-anchor="middle" x="104" y="-80.5" font-family="Helvetica,sans-Serif" font-size="10.00">static QMap&lt; style_id, knot_curve_style * &gt;</text>
</g>
<!-- Node2&#45;&gt;Node1 -->
<g id="edge2" class="edge"><title>Node2&#45;&gt;Node1</title>
<path fill="none" stroke="#9a32cd" stroke-dasharray="5,2" d="M127.178,-66.4772C146.498,-52.7046 173.451,-33.4905 190.036,-21.6674"/>
<polygon fill="#9a32cd" stroke="#9a32cd" points="125.014,-63.7214 118.903,-72.3762 129.077,-69.4213 125.014,-63.7214"/>
<text text-anchor="middle" x="177.5" y="-44.5" font-family="Helvetica,sans-Serif" font-size="10.00">styles</text>
</g>
<!-- Node3 -->
<g id="node5" class="node"><title>Node3</title>
<polygon fill="none" stroke="#bfbfbf" points="225.5,-72.5 225.5,-93.5 386.5,-93.5 386.5,-72.5 225.5,-72.5"/>
<text text-anchor="middle" x="306" y="-80.5" font-family="Helvetica,sans-Serif" font-size="10.00">static QMap&lt; QString, style_id &gt;</text>
</g>
<!-- Node3&#45;&gt;Node1 -->
<g id="edge6" class="edge"><title>Node3&#45;&gt;Node1</title>
<path fill="none" stroke="#9a32cd" stroke-dasharray="5,2" d="M282.822,-66.4772C263.502,-52.7046 236.549,-33.4905 219.964,-21.6674"/>
<polygon fill="#9a32cd" stroke="#9a32cd" points="280.923,-69.4213 291.097,-72.3762 284.986,-63.7214 280.923,-69.4213"/>
<text text-anchor="middle" x="279" y="-44.5" font-family="Helvetica,sans-Serif" font-size="10.00">names</text>
</g>
</g>
</svg>
