<?xml version="1.0" encoding="UTF-8" standalone="no"?>
<!DOCTYPE svg PUBLIC "-//W3C//DTD SVG 1.1//EN"
 "http://www.w3.org/Graphics/SVG/1.1/DTD/svg11.dtd">
<!-- Generated by graphviz version 2.26.3 (20100126.1600)
 -->
<!-- Title: G Pages: 1 -->
<svg width="156pt" height="102pt"
 viewBox="0.00 0.00 156.00 102.00" xmlns="http://www.w3.org/2000/svg" xmlns:xlink="http://www.w3.org/1999/xlink">
<g id="graph1" class="graph" transform="scale(1 1) rotate(0) translate(4 98)">
<title>G</title>
<!-- Node1 -->
<g id="node1" class="node"><title>Node1</title>
<polygon fill="#bfbfbf" stroke="black" points="0,-0.5 0,-21.5 148,-21.5 148,-0.5 0,-0.5"/>
<text text-anchor="middle" x="74" y="-8.5" font-family="Helvetica,sans-Serif" font-size="10.00">ClipboardItem::ClipboardNode</text>
</g>
<!-- Node2 -->
<g id="node2" class="node"><title>Node2</title>
<polygon fill="none" stroke="#bfbfbf" points="18.5,-72.5 18.5,-93.5 71.5,-93.5 71.5,-72.5 18.5,-72.5"/>
<text text-anchor="middle" x="45" y="-80.5" font-family="Helvetica,sans-Serif" font-size="10.00">QPointF</text>
</g>
<!-- Node2&#45;&gt;Node1 -->
<g id="edge2" class="edge"><title>Node2&#45;&gt;Node1</title>
<path fill="none" stroke="#9a32cd" stroke-dasharray="5,2" d="M53.0448,-63.0266C58.4377,-49.6374 65.3275,-32.5318 69.7034,-21.6674"/>
<polygon fill="#9a32cd" stroke="#9a32cd" points="49.7687,-61.7926 49.279,-72.3762 56.2618,-64.4079 49.7687,-61.7926"/>
<text text-anchor="middle" x="71" y="-44.5" font-family="Helvetica,sans-Serif" font-size="10.00">pos</text>
</g>
<!-- Node3 -->
<g id="node4" class="node"><title>Node3</title>
<polygon fill="none" stroke="#bfbfbf" points="88.5,-72.5 88.5,-93.5 117.5,-93.5 117.5,-72.5 88.5,-72.5"/>
<text text-anchor="middle" x="103" y="-80.5" font-family="Helvetica,sans-Serif" font-size="10.00">int</text>
</g>
<!-- Node3&#45;&gt;Node1 -->
<g id="edge4" class="edge"><title>Node3&#45;&gt;Node1</title>
<path fill="none" stroke="#9a32cd" stroke-dasharray="5,2" d="M94.9552,-63.0266C89.5623,-49.6374 82.6725,-32.5318 78.2966,-21.6674"/>
<polygon fill="#9a32cd" stroke="#9a32cd" points="91.7382,-64.4079 98.721,-72.3762 98.2313,-61.7926 91.7382,-64.4079"/>
<text text-anchor="middle" x="95" y="-44.5" font-family="Helvetica,sans-Serif" font-size="10.00">id</text>
</g>
</g>
</svg>
