<?xml version="1.0" encoding="UTF-8" standalone="no"?>
<!DOCTYPE svg PUBLIC "-//W3C//DTD SVG 1.1//EN"
 "http://www.w3.org/Graphics/SVG/1.1/DTD/svg11.dtd">
<!-- Generated by graphviz version 2.26.3 (20100126.1600)
 -->
<!-- Title: G Pages: 1 -->
<svg width="2276pt" height="494pt"
 viewBox="0.00 0.00 2276.00 494.00" xmlns="http://www.w3.org/2000/svg" xmlns:xlink="http://www.w3.org/1999/xlink">
<g id="graph1" class="graph" transform="scale(1 1) rotate(0) translate(4 490)">
<title>G</title>
<!-- Node1 -->
<g id="node1" class="node"><title>Node1</title>
<polygon fill="#bfbfbf" stroke="black" points="751.5,-464.5 751.5,-485.5 838.5,-485.5 838.5,-464.5 751.5,-464.5"/>
<text text-anchor="middle" x="795" y="-472.5" font-family="Helvetica,sans-Serif" font-size="10.00">style_dialog.hpp</text>
</g>
<!-- Node2 -->
<g id="node3" class="node"><title>Node2</title>
<a xlink:href="ui__style__dialog_8h.html" target="_top" xlink:title="ui_style_dialog.h">
<polygon fill="none" stroke="black" points="750.5,-406.5 750.5,-427.5 839.5,-427.5 839.5,-406.5 750.5,-406.5"/>
<text text-anchor="middle" x="795" y="-414.5" font-family="Helvetica,sans-Serif" font-size="10.00">ui_style_dialog.h</text>
</a>
</g>
<!-- Node1&#45;&gt;Node2 -->
<g id="edge2" class="edge"><title>Node1&#45;&gt;Node2</title>
<path fill="none" stroke="midnightblue" d="M795,-464.362C795,-456.922 795,-446.743 795,-437.728"/>
<polygon fill="midnightblue" stroke="midnightblue" points="798.5,-437.571 795,-427.571 791.5,-437.571 798.5,-437.571"/>
</g>
<!-- Node3 -->
<g id="node5" class="node"><title>Node3</title>
<polygon fill="none" stroke="#bfbfbf" points="-0.5,-348.5 -0.5,-369.5 88.5,-369.5 88.5,-348.5 -0.5,-348.5"/>
<text text-anchor="middle" x="44" y="-356.5" font-family="Helvetica,sans-Serif" font-size="10.00">QtCore/QVariant</text>
</g>
<!-- Node2&#45;&gt;Node3 -->
<g id="edge4" class="edge"><title>Node2&#45;&gt;Node3</title>
<path fill="none" stroke="midnightblue" d="M750.279,-416.117C640.699,-413.497 349.982,-403.797 98.7905,-370.101"/>
<polygon fill="midnightblue" stroke="midnightblue" points="99.1245,-366.614 88.7446,-368.737 98.183,-373.55 99.1245,-366.614"/>
</g>
<!-- Node4 -->
<g id="node7" class="node"><title>Node4</title>
<polygon fill="none" stroke="#bfbfbf" points="106,-348.5 106,-369.5 186,-369.5 186,-348.5 106,-348.5"/>
<text text-anchor="middle" x="146" y="-356.5" font-family="Helvetica,sans-Serif" font-size="10.00">QtGui/QAction</text>
</g>
<!-- Node2&#45;&gt;Node4 -->
<g id="edge6" class="edge"><title>Node2&#45;&gt;Node4</title>
<path fill="none" stroke="midnightblue" d="M750.344,-415.679C651.929,-412.301 408.876,-401.396 196.131,-369.985"/>
<polygon fill="midnightblue" stroke="midnightblue" points="196.431,-366.491 186.024,-368.473 195.396,-373.414 196.431,-366.491"/>
</g>
<!-- Node5 -->
<g id="node9" class="node"><title>Node5</title>
<polygon fill="none" stroke="#bfbfbf" points="203.5,-348.5 203.5,-369.5 304.5,-369.5 304.5,-348.5 203.5,-348.5"/>
<text text-anchor="middle" x="254" y="-356.5" font-family="Helvetica,sans-Serif" font-size="10.00">QtGui/QApplication</text>
</g>
<!-- Node2&#45;&gt;Node5 -->
<g id="edge8" class="edge"><title>Node2&#45;&gt;Node5</title>
<path fill="none" stroke="midnightblue" d="M750.323,-413.951C666.786,-407.966 481.07,-393.324 315.194,-370.224"/>
<polygon fill="midnightblue" stroke="midnightblue" points="315.193,-366.69 304.803,-368.762 314.217,-373.621 315.193,-366.69"/>
</g>
<!-- Node6 -->
<g id="node11" class="node"><title>Node6</title>
<polygon fill="none" stroke="#bfbfbf" points="321.5,-348.5 321.5,-369.5 428.5,-369.5 428.5,-348.5 321.5,-348.5"/>
<text text-anchor="middle" x="375" y="-356.5" font-family="Helvetica,sans-Serif" font-size="10.00">QtGui/QButtonGroup</text>
</g>
<!-- Node2&#45;&gt;Node6 -->
<g id="edge10" class="edge"><title>Node2&#45;&gt;Node6</title>
<path fill="none" stroke="midnightblue" d="M750.258,-411.783C684.254,-403.942 556.667,-388.236 438.671,-370.213"/>
<polygon fill="midnightblue" stroke="midnightblue" points="439.159,-366.747 428.744,-368.688 438.096,-373.666 439.159,-366.747"/>
</g>
<!-- Node7 -->
<g id="node13" class="node"><title>Node7</title>
<polygon fill="none" stroke="#bfbfbf" points="445.5,-348.5 445.5,-369.5 546.5,-369.5 546.5,-348.5 445.5,-348.5"/>
<text text-anchor="middle" x="496" y="-356.5" font-family="Helvetica,sans-Serif" font-size="10.00">QtGui/QComboBox</text>
</g>
<!-- Node2&#45;&gt;Node7 -->
<g id="edge12" class="edge"><title>Node2&#45;&gt;Node7</title>
<path fill="none" stroke="midnightblue" d="M750.237,-408.317C698.752,-398.33 613.965,-381.883 556.6,-370.755"/>
<polygon fill="midnightblue" stroke="midnightblue" points="557.061,-367.279 546.577,-368.811 555.728,-374.151 557.061,-367.279"/>
</g>
<!-- Node8 -->
<g id="node15" class="node"><title>Node8</title>
<polygon fill="none" stroke="#bfbfbf" points="564,-348.5 564,-369.5 644,-369.5 644,-348.5 564,-348.5"/>
<text text-anchor="middle" x="604" y="-356.5" font-family="Helvetica,sans-Serif" font-size="10.00">QtGui/QDialog</text>
</g>
<!-- Node2&#45;&gt;Node8 -->
<g id="edge14" class="edge"><title>Node2&#45;&gt;Node8</title>
<path fill="none" stroke="midnightblue" d="M760.411,-406.497C729.004,-396.959 682.51,-382.841 648.375,-372.475"/>
<polygon fill="midnightblue" stroke="midnightblue" points="649.239,-369.08 638.654,-369.523 647.205,-375.778 649.239,-369.08"/>
</g>
<!-- Node9 -->
<g id="node17" class="node"><title>Node9</title>
<polygon fill="none" stroke="#bfbfbf" points="662,-348.5 662,-369.5 788,-369.5 788,-348.5 662,-348.5"/>
<text text-anchor="middle" x="725" y="-356.5" font-family="Helvetica,sans-Serif" font-size="10.00">QtGui/QDialogButtonBox</text>
</g>
<!-- Node2&#45;&gt;Node9 -->
<g id="edge16" class="edge"><title>Node2&#45;&gt;Node9</title>
<path fill="none" stroke="midnightblue" d="M782.161,-406.362C771.998,-397.941 757.599,-386.011 745.796,-376.231"/>
<polygon fill="midnightblue" stroke="midnightblue" points="747.691,-373.256 737.758,-369.571 743.225,-378.646 747.691,-373.256"/>
</g>
<!-- Node10 -->
<g id="node19" class="node"><title>Node10</title>
<polygon fill="none" stroke="#bfbfbf" points="806,-348.5 806,-369.5 926,-369.5 926,-348.5 806,-348.5"/>
<text text-anchor="middle" x="866" y="-356.5" font-family="Helvetica,sans-Serif" font-size="10.00">QtGui/QDoubleSpinBox</text>
</g>
<!-- Node2&#45;&gt;Node10 -->
<g id="edge18" class="edge"><title>Node2&#45;&gt;Node10</title>
<path fill="none" stroke="midnightblue" d="M808.022,-406.362C818.431,-397.859 833.219,-385.779 845.255,-375.947"/>
<polygon fill="midnightblue" stroke="midnightblue" points="847.53,-378.608 853.06,-369.571 843.101,-373.187 847.53,-378.608"/>
</g>
<!-- Node11 -->
<g id="node21" class="node"><title>Node11</title>
<polygon fill="none" stroke="#bfbfbf" points="944,-348.5 944,-369.5 1044,-369.5 1044,-348.5 944,-348.5"/>
<text text-anchor="middle" x="994" y="-356.5" font-family="Helvetica,sans-Serif" font-size="10.00">QtGui/QGridLayout</text>
</g>
<!-- Node2&#45;&gt;Node11 -->
<g id="edge20" class="edge"><title>Node2&#45;&gt;Node11</title>
<path fill="none" stroke="midnightblue" d="M831.037,-406.497C863.901,-396.918 912.617,-382.72 948.224,-372.342"/>
<polygon fill="midnightblue" stroke="midnightblue" points="949.274,-375.681 957.895,-369.523 947.315,-368.961 949.274,-375.681"/>
</g>
<!-- Node12 -->
<g id="node23" class="node"><title>Node12</title>
<polygon fill="none" stroke="#bfbfbf" points="1062,-348.5 1062,-369.5 1158,-369.5 1158,-348.5 1062,-348.5"/>
<text text-anchor="middle" x="1110" y="-356.5" font-family="Helvetica,sans-Serif" font-size="10.00">QtGui/QGroupBox</text>
</g>
<!-- Node2&#45;&gt;Node12 -->
<g id="edge22" class="edge"><title>Node2&#45;&gt;Node12</title>
<path fill="none" stroke="midnightblue" d="M839.771,-408.99C889.136,-400.126 971.191,-385.297 1051.51,-370.267"/>
<polygon fill="midnightblue" stroke="midnightblue" points="1052.62,-373.62 1061.8,-368.338 1051.33,-366.74 1052.62,-373.62"/>
</g>
<!-- Node13 -->
<g id="node25" class="node"><title>Node13</title>
<polygon fill="none" stroke="#bfbfbf" points="1176,-348.5 1176,-369.5 1282,-369.5 1282,-348.5 1176,-348.5"/>
<text text-anchor="middle" x="1229" y="-356.5" font-family="Helvetica,sans-Serif" font-size="10.00">QtGui/QHeaderView</text>
</g>
<!-- Node2&#45;&gt;Node13 -->
<g id="edge24" class="edge"><title>Node2&#45;&gt;Node13</title>
<path fill="none" stroke="midnightblue" d="M839.764,-412.075C907.892,-404.42 1041.91,-388.732 1165.88,-370.114"/>
<polygon fill="midnightblue" stroke="midnightblue" points="1166.56,-373.551 1175.93,-368.595 1165.52,-366.63 1166.56,-373.551"/>
</g>
<!-- Node14 -->
<g id="node27" class="node"><title>Node14</title>
<polygon fill="none" stroke="#bfbfbf" points="1300,-348.5 1300,-369.5 1376,-369.5 1376,-348.5 1300,-348.5"/>
<text text-anchor="middle" x="1338" y="-356.5" font-family="Helvetica,sans-Serif" font-size="10.00">QtGui/QLabel</text>
</g>
<!-- Node2&#45;&gt;Node14 -->
<g id="edge26" class="edge"><title>Node2&#45;&gt;Node14</title>
<path fill="none" stroke="midnightblue" d="M839.721,-414.796C925.31,-410.139 1118.29,-397.52 1289.9,-370"/>
<polygon fill="midnightblue" stroke="midnightblue" points="1290.56,-373.439 1299.87,-368.38 1289.44,-366.529 1290.56,-373.439"/>
</g>
<!-- Node15 -->
<g id="node29" class="node"><title>Node15</title>
<a xlink:href="color__widget_8hpp.html" target="_top" xlink:title="color_widget.hpp">
<polygon fill="none" stroke="black" points="1394,-348.5 1394,-369.5 1484,-369.5 1484,-348.5 1394,-348.5"/>
<text text-anchor="middle" x="1439" y="-356.5" font-family="Helvetica,sans-Serif" font-size="10.00">color_widget.hpp</text>
</a>
</g>
<!-- Node2&#45;&gt;Node15 -->
<g id="edge28" class="edge"><title>Node2&#45;&gt;Node15</title>
<path fill="none" stroke="midnightblue" d="M839.61,-415.298C936.777,-411.192 1174.93,-398.969 1384.05,-369.987"/>
<polygon fill="midnightblue" stroke="midnightblue" points="1384.57,-373.449 1393.99,-368.595 1383.6,-366.517 1384.57,-373.449"/>
</g>
<!-- Node21 -->
<g id="node41" class="node"><title>Node21</title>
<a xlink:href="knotview_8hpp.html" target="_top" xlink:title="knotview.hpp">
<polygon fill="none" stroke="black" points="1792,-348.5 1792,-369.5 1866,-369.5 1866,-348.5 1792,-348.5"/>
<text text-anchor="middle" x="1829" y="-356.5" font-family="Helvetica,sans-Serif" font-size="10.00">knotview.hpp</text>
</a>
</g>
<!-- Node2&#45;&gt;Node21 -->
<g id="edge40" class="edge"><title>Node2&#45;&gt;Node21</title>
<path fill="none" stroke="midnightblue" d="M839.762,-414.489C1008.9,-405.002 1608.21,-371.385 1781.65,-361.656"/>
<polygon fill="midnightblue" stroke="midnightblue" points="1781.96,-365.144 1791.74,-361.09 1781.56,-358.155 1781.96,-365.144"/>
</g>
<!-- Node16 -->
<g id="node31" class="node"><title>Node16</title>
<polygon fill="none" stroke="#bfbfbf" points="1193.5,-290.5 1193.5,-311.5 1252.5,-311.5 1252.5,-290.5 1193.5,-290.5"/>
<text text-anchor="middle" x="1223" y="-298.5" font-family="Helvetica,sans-Serif" font-size="10.00">QLineEdit</text>
</g>
<!-- Node15&#45;&gt;Node16 -->
<g id="edge30" class="edge"><title>Node15&#45;&gt;Node16</title>
<path fill="none" stroke="midnightblue" d="M1397.92,-348.447C1363.91,-339.644 1314.09,-326.597 1262.5,-312.381"/>
<polygon fill="midnightblue" stroke="midnightblue" points="1263.42,-309.004 1252.85,-309.713 1261.56,-315.751 1263.42,-309.004"/>
</g>
<!-- Node17 -->
<g id="node33" class="node"><title>Node17</title>
<polygon fill="none" stroke="#bfbfbf" points="1269.5,-290.5 1269.5,-311.5 1344.5,-311.5 1344.5,-290.5 1269.5,-290.5"/>
<text text-anchor="middle" x="1307" y="-298.5" font-family="Helvetica,sans-Serif" font-size="10.00">QColorDialog</text>
</g>
<!-- Node15&#45;&gt;Node17 -->
<g id="edge32" class="edge"><title>Node15&#45;&gt;Node17</title>
<path fill="none" stroke="midnightblue" d="M1415.1,-348.497C1394.2,-339.315 1363.64,-325.889 1340.34,-315.652"/>
<polygon fill="midnightblue" stroke="midnightblue" points="1341.74,-312.44 1331.17,-311.621 1338.92,-318.848 1341.74,-312.44"/>
</g>
<!-- Node18 -->
<g id="node35" class="node"><title>Node18</title>
<polygon fill="none" stroke="#bfbfbf" points="1362,-290.5 1362,-311.5 1434,-311.5 1434,-290.5 1362,-290.5"/>
<text text-anchor="middle" x="1398" y="-298.5" font-family="Helvetica,sans-Serif" font-size="10.00">QPaintEvent</text>
</g>
<!-- Node15&#45;&gt;Node18 -->
<g id="edge34" class="edge"><title>Node15&#45;&gt;Node18</title>
<path fill="none" stroke="midnightblue" d="M1431.48,-348.362C1425.87,-340.431 1418.07,-329.389 1411.4,-319.961"/>
<polygon fill="midnightblue" stroke="midnightblue" points="1414.1,-317.716 1405.47,-311.571 1408.39,-321.757 1414.1,-317.716"/>
</g>
<!-- Node19 -->
<g id="node37" class="node"><title>Node19</title>
<polygon fill="none" stroke="#bfbfbf" points="1451.5,-290.5 1451.5,-311.5 1506.5,-311.5 1506.5,-290.5 1451.5,-290.5"/>
<text text-anchor="middle" x="1479" y="-298.5" font-family="Helvetica,sans-Serif" font-size="10.00">QPainter</text>
</g>
<!-- Node15&#45;&gt;Node19 -->
<g id="edge36" class="edge"><title>Node15&#45;&gt;Node19</title>
<path fill="none" stroke="midnightblue" d="M1446.34,-348.362C1451.81,-340.431 1459.42,-329.389 1465.92,-319.961"/>
<polygon fill="midnightblue" stroke="midnightblue" points="1468.91,-321.79 1471.71,-311.571 1463.15,-317.816 1468.91,-321.79"/>
</g>
<!-- Node20 -->
<g id="node39" class="node"><title>Node20</title>
<polygon fill="none" stroke="#bfbfbf" points="1523.5,-290.5 1523.5,-311.5 1638.5,-311.5 1638.5,-290.5 1523.5,-290.5"/>
<text text-anchor="middle" x="1581" y="-298.5" font-family="Helvetica,sans-Serif" font-size="10.00">QStyleOptionFrameV3</text>
</g>
<!-- Node15&#45;&gt;Node20 -->
<g id="edge38" class="edge"><title>Node15&#45;&gt;Node20</title>
<path fill="none" stroke="midnightblue" d="M1464.72,-348.497C1487.29,-339.275 1520.36,-325.769 1545.46,-315.515"/>
<polygon fill="midnightblue" stroke="midnightblue" points="1547.06,-318.643 1555,-311.621 1544.42,-312.162 1547.06,-318.643"/>
</g>
<!-- Node22 -->
<g id="node43" class="node"><title>Node22</title>
<polygon fill="none" stroke="#bfbfbf" points="1655.5,-290.5 1655.5,-311.5 1740.5,-311.5 1740.5,-290.5 1655.5,-290.5"/>
<text text-anchor="middle" x="1698" y="-298.5" font-family="Helvetica,sans-Serif" font-size="10.00">QGraphicsView</text>
</g>
<!-- Node21&#45;&gt;Node22 -->
<g id="edge42" class="edge"><title>Node21&#45;&gt;Node22</title>
<path fill="none" stroke="midnightblue" d="M1805.28,-348.497C1784.63,-339.356 1754.48,-326.008 1731.4,-315.788"/>
<polygon fill="midnightblue" stroke="midnightblue" points="1732.55,-312.469 1721.99,-311.621 1729.72,-318.87 1732.55,-312.469"/>
</g>
<!-- Node23 -->
<g id="node45" class="node"><title>Node23</title>
<a xlink:href="node_8hpp.html" target="_top" xlink:title="node.hpp">
<polygon fill="none" stroke="black" points="1894,-174.5 1894,-195.5 1950,-195.5 1950,-174.5 1894,-174.5"/>
<text text-anchor="middle" x="1922" y="-182.5" font-family="Helvetica,sans-Serif" font-size="10.00">node.hpp</text>
</a>
</g>
<!-- Node21&#45;&gt;Node23 -->
<g id="edge44" class="edge"><title>Node21&#45;&gt;Node23</title>
<path fill="none" stroke="midnightblue" d="M1823.78,-348.414C1813.15,-325.206 1791.95,-268.972 1816,-232 1830.98,-208.966 1860.12,-197.133 1884.07,-191.105"/>
<polygon fill="midnightblue" stroke="midnightblue" points="1884.97,-194.488 1893.95,-188.862 1883.43,-187.662 1884.97,-194.488"/>
</g>
<!-- Node26 -->
<g id="node51" class="node"><title>Node26</title>
<a xlink:href="edge_8hpp.html" target="_top" xlink:title="edge.hpp">
<polygon fill="none" stroke="black" points="2064,-116.5 2064,-137.5 2120,-137.5 2120,-116.5 2064,-116.5"/>
<text text-anchor="middle" x="2092" y="-124.5" font-family="Helvetica,sans-Serif" font-size="10.00">edge.hpp</text>
</a>
</g>
<!-- Node21&#45;&gt;Node26 -->
<g id="edge54" class="edge"><title>Node21&#45;&gt;Node26</title>
<path fill="none" stroke="midnightblue" d="M1866,-350.319C1935.31,-333.287 2080.55,-293.681 2112,-254 2134.42,-225.713 2137.12,-208.341 2126,-174 2122.64,-163.618 2116.03,-153.604 2109.53,-145.507"/>
<polygon fill="midnightblue" stroke="midnightblue" points="2112.1,-143.131 2102.93,-137.827 2106.79,-147.693 2112.1,-143.131"/>
</g>
<!-- Node27 -->
<g id="node55" class="node"><title>Node27</title>
<polygon fill="none" stroke="#bfbfbf" points="2195.5,-290.5 2195.5,-311.5 2268.5,-311.5 2268.5,-290.5 2195.5,-290.5"/>
<text text-anchor="middle" x="2232" y="-298.5" font-family="Helvetica,sans-Serif" font-size="10.00">QUndoStack</text>
</g>
<!-- Node21&#45;&gt;Node27 -->
<g id="edge56" class="edge"><title>Node21&#45;&gt;Node27</title>
<path fill="none" stroke="midnightblue" d="M1866,-355.112C1930.45,-348.108 2067.38,-332.202 2182,-312 2183.09,-311.807 2184.2,-311.607 2185.32,-311.4"/>
<polygon fill="midnightblue" stroke="midnightblue" points="2186.34,-314.766 2195.48,-309.407 2184.99,-307.897 2186.34,-314.766"/>
</g>
<!-- Node28 -->
<g id="node57" class="node"><title>Node28</title>
<a xlink:href="knotgraph_8hpp.html" target="_top" xlink:title="knotgraph.hpp">
<polygon fill="none" stroke="black" points="1910,-290.5 1910,-311.5 1988,-311.5 1988,-290.5 1910,-290.5"/>
<text text-anchor="middle" x="1949" y="-298.5" font-family="Helvetica,sans-Serif" font-size="10.00">knotgraph.hpp</text>
</a>
</g>
<!-- Node21&#45;&gt;Node28 -->
<g id="edge58" class="edge"><title>Node21&#45;&gt;Node28</title>
<path fill="none" stroke="midnightblue" d="M1850.73,-348.497C1869.47,-339.438 1896.77,-326.246 1917.84,-316.063"/>
<polygon fill="midnightblue" stroke="midnightblue" points="1919.54,-319.124 1927.03,-311.621 1916.5,-312.822 1919.54,-319.124"/>
</g>
<!-- Node24 -->
<g id="node47" class="node"><title>Node24</title>
<a xlink:href="custom__item_8hpp.html" target="_top" xlink:title="custom_item.hpp">
<polygon fill="none" stroke="black" points="1999,-58.5 1999,-79.5 2091,-79.5 2091,-58.5 1999,-58.5"/>
<text text-anchor="middle" x="2045" y="-66.5" font-family="Helvetica,sans-Serif" font-size="10.00">custom_item.hpp</text>
</a>
</g>
<!-- Node23&#45;&gt;Node24 -->
<g id="edge46" class="edge"><title>Node23&#45;&gt;Node24</title>
<path fill="none" stroke="midnightblue" d="M1933.35,-174.295C1954.59,-154.268 2000.5,-110.964 2026.35,-86.5893"/>
<polygon fill="midnightblue" stroke="midnightblue" points="2028.8,-89.0865 2033.68,-79.6792 2024,-83.994 2028.8,-89.0865"/>
</g>
<!-- Node23&#45;&gt;Node26 -->
<g id="edge50" class="edge"><title>Node23&#45;&gt;Node26</title>
<path fill="none" stroke="midnightblue" d="M1950.07,-175.422C1978.49,-165.725 2022.63,-150.666 2054.14,-139.918"/>
<polygon fill="midnightblue" stroke="midnightblue" points="2055.55,-143.133 2063.89,-136.592 2053.29,-136.508 2055.55,-143.133"/>
</g>
<!-- Node25 -->
<g id="node49" class="node"><title>Node25</title>
<polygon fill="none" stroke="#bfbfbf" points="2003.5,-0.5 2003.5,-21.5 2086.5,-21.5 2086.5,-0.5 2003.5,-0.5"/>
<text text-anchor="middle" x="2045" y="-8.5" font-family="Helvetica,sans-Serif" font-size="10.00">QGraphicsItem</text>
</g>
<!-- Node24&#45;&gt;Node25 -->
<g id="edge48" class="edge"><title>Node24&#45;&gt;Node25</title>
<path fill="none" stroke="midnightblue" d="M2045,-58.3619C2045,-50.9219 2045,-40.7427 2045,-31.7276"/>
<polygon fill="midnightblue" stroke="midnightblue" points="2048.5,-31.5706 2045,-21.5707 2041.5,-31.5707 2048.5,-31.5706"/>
</g>
<!-- Node26&#45;&gt;Node24 -->
<g id="edge52" class="edge"><title>Node26&#45;&gt;Node24</title>
<path fill="none" stroke="midnightblue" d="M2083.38,-116.362C2076.82,-108.268 2067.63,-96.9318 2059.89,-87.3796"/>
<polygon fill="midnightblue" stroke="midnightblue" points="2062.58,-85.1364 2053.57,-79.5707 2057.14,-89.5436 2062.58,-85.1364"/>
</g>
<!-- Node28&#45;&gt;Node23 -->
<g id="edge62" class="edge"><title>Node28&#45;&gt;Node23</title>
<path fill="none" stroke="midnightblue" d="M1909.79,-291.336C1877.34,-282.451 1835.01,-268.493 1825,-254 1806.14,-226.68 1849.14,-206.477 1883.8,-195.217"/>
<polygon fill="midnightblue" stroke="midnightblue" points="1885.23,-198.439 1893.75,-192.145 1883.16,-191.75 1885.23,-198.439"/>
</g>
<!-- Node28&#45;&gt;Node26 -->
<g id="edge64" class="edge"><title>Node28&#45;&gt;Node26</title>
<path fill="none" stroke="midnightblue" d="M1988.19,-297.246C2019.51,-292.277 2062.56,-280.745 2090,-254 2116.32,-228.342 2118.02,-210.084 2111,-174 2109.21,-164.787 2105.61,-155.094 2102.03,-146.919"/>
<polygon fill="midnightblue" stroke="midnightblue" points="2105.18,-145.412 2097.78,-137.836 2098.84,-148.377 2105.18,-145.412"/>
</g>
<!-- Node29 -->
<g id="node59" class="node"><title>Node29</title>
<polygon fill="none" stroke="#bfbfbf" points="2027.5,-174.5 2027.5,-195.5 2102.5,-195.5 2102.5,-174.5 2027.5,-174.5"/>
<text text-anchor="middle" x="2065" y="-182.5" font-family="Helvetica,sans-Serif" font-size="10.00">QPainterPath</text>
</g>
<!-- Node28&#45;&gt;Node29 -->
<g id="edge60" class="edge"><title>Node28&#45;&gt;Node29</title>
<path fill="none" stroke="midnightblue" d="M1988.21,-291.336C2020.66,-282.451 2062.99,-268.493 2073,-254 2082.7,-239.945 2079.22,-220.323 2074.17,-205.596"/>
<polygon fill="midnightblue" stroke="midnightblue" points="2077.28,-203.931 2070.39,-195.886 2070.76,-206.475 2077.28,-203.931"/>
</g>
<!-- Node30 -->
<g id="node63" class="node"><title>Node30</title>
<polygon fill="none" stroke="#bfbfbf" points="1833.5,-232.5 1833.5,-253.5 1936.5,-253.5 1936.5,-232.5 1833.5,-232.5"/>
<text text-anchor="middle" x="1885" y="-240.5" font-family="Helvetica,sans-Serif" font-size="10.00">QGraphicsPathItem</text>
</g>
<!-- Node28&#45;&gt;Node30 -->
<g id="edge66" class="edge"><title>Node28&#45;&gt;Node30</title>
<path fill="none" stroke="midnightblue" d="M1937.26,-290.362C1928.06,-282.023 1915.06,-270.242 1904.33,-260.516"/>
<polygon fill="midnightblue" stroke="midnightblue" points="1906.42,-257.692 1896.66,-253.571 1901.72,-262.879 1906.42,-257.692"/>
</g>
<!-- Node31 -->
<g id="node65" class="node"><title>Node31</title>
<a xlink:href="knot__curve__style_8hpp.html" target="_top" xlink:title="knot_curve_style.hpp">
<polygon fill="none" stroke="black" points="1954,-232.5 1954,-253.5 2064,-253.5 2064,-232.5 1954,-232.5"/>
<text text-anchor="middle" x="2009" y="-240.5" font-family="Helvetica,sans-Serif" font-size="10.00">knot_curve_style.hpp</text>
</a>
</g>
<!-- Node28&#45;&gt;Node31 -->
<g id="edge68" class="edge"><title>Node28&#45;&gt;Node31</title>
<path fill="none" stroke="midnightblue" d="M1960,-290.362C1968.55,-282.104 1980.58,-270.472 1990.58,-260.803"/>
<polygon fill="midnightblue" stroke="midnightblue" points="1993.31,-263.037 1998.06,-253.571 1988.44,-258.004 1993.31,-263.037"/>
</g>
<!-- Node31&#45;&gt;Node23 -->
<g id="edge70" class="edge"><title>Node31&#45;&gt;Node23</title>
<path fill="none" stroke="midnightblue" d="M1993.04,-232.362C1980.04,-223.696 1961.47,-211.313 1946.57,-201.382"/>
<polygon fill="midnightblue" stroke="midnightblue" points="1948.12,-198.206 1937.86,-195.571 1944.24,-204.03 1948.12,-198.206"/>
</g>
<!-- Node31&#45;&gt;Node29 -->
<g id="edge72" class="edge"><title>Node31&#45;&gt;Node29</title>
<path fill="none" stroke="midnightblue" d="M2019.27,-232.362C2027.24,-224.104 2038.47,-212.472 2047.81,-202.803"/>
<polygon fill="midnightblue" stroke="midnightblue" points="2050.37,-205.196 2054.79,-195.571 2045.33,-200.334 2050.37,-205.196"/>
</g>
<!-- Node32 -->
<g id="node69" class="node"><title>Node32</title>
<polygon fill="none" stroke="#bfbfbf" points="1967.5,-174.5 1967.5,-195.5 2010.5,-195.5 2010.5,-174.5 1967.5,-174.5"/>
<text text-anchor="middle" x="1989" y="-182.5" font-family="Helvetica,sans-Serif" font-size="10.00">QMap</text>
</g>
<!-- Node31&#45;&gt;Node32 -->
<g id="edge74" class="edge"><title>Node31&#45;&gt;Node32</title>
<path fill="none" stroke="midnightblue" d="M2005.33,-232.362C2002.71,-224.758 1999.1,-214.294 1995.94,-205.135"/>
<polygon fill="midnightblue" stroke="midnightblue" points="1999.21,-203.883 1992.65,-195.571 1992.6,-206.165 1999.21,-203.883"/>
</g>
</g>
</svg>
