<?xml version="1.0" encoding="UTF-8" standalone="no"?>
<!DOCTYPE svg PUBLIC "-//W3C//DTD SVG 1.1//EN"
 "http://www.w3.org/Graphics/SVG/1.1/DTD/svg11.dtd">
<!-- Generated by graphviz version 2.26.3 (20100126.1600)
 -->
<!-- Title: G Pages: 1 -->
<svg width="2306pt" height="552pt"
 viewBox="0.00 0.00 2306.00 552.00" xmlns="http://www.w3.org/2000/svg" xmlns:xlink="http://www.w3.org/1999/xlink">
<g id="graph1" class="graph" transform="scale(1 1) rotate(0) translate(4 548)">
<title>G</title>
<!-- Node1 -->
<g id="node1" class="node"><title>Node1</title>
<polygon fill="#bfbfbf" stroke="black" points="751.5,-522.5 751.5,-543.5 838.5,-543.5 838.5,-522.5 751.5,-522.5"/>
<text text-anchor="middle" x="795" y="-530.5" font-family="Helvetica,sans-Serif" font-size="10.00">style_dialog.cpp</text>
</g>
<!-- Node2 -->
<g id="node3" class="node"><title>Node2</title>
<a xlink:href="style__dialog_8hpp.html" target="_top" xlink:title="style_dialog.hpp">
<polygon fill="none" stroke="black" points="751.5,-464.5 751.5,-485.5 838.5,-485.5 838.5,-464.5 751.5,-464.5"/>
<text text-anchor="middle" x="795" y="-472.5" font-family="Helvetica,sans-Serif" font-size="10.00">style_dialog.hpp</text>
</a>
</g>
<!-- Node1&#45;&gt;Node2 -->
<g id="edge2" class="edge"><title>Node1&#45;&gt;Node2</title>
<path fill="none" stroke="midnightblue" d="M795,-522.362C795,-514.922 795,-504.743 795,-495.728"/>
<polygon fill="midnightblue" stroke="midnightblue" points="798.5,-495.571 795,-485.571 791.5,-495.571 798.5,-495.571"/>
</g>
<!-- Node3 -->
<g id="node5" class="node"><title>Node3</title>
<a xlink:href="ui__style__dialog_8h.html" target="_top" xlink:title="ui_style_dialog.h">
<polygon fill="none" stroke="black" points="750.5,-406.5 750.5,-427.5 839.5,-427.5 839.5,-406.5 750.5,-406.5"/>
<text text-anchor="middle" x="795" y="-414.5" font-family="Helvetica,sans-Serif" font-size="10.00">ui_style_dialog.h</text>
</a>
</g>
<!-- Node2&#45;&gt;Node3 -->
<g id="edge4" class="edge"><title>Node2&#45;&gt;Node3</title>
<path fill="none" stroke="midnightblue" d="M795,-464.362C795,-456.922 795,-446.743 795,-437.728"/>
<polygon fill="midnightblue" stroke="midnightblue" points="798.5,-437.571 795,-427.571 791.5,-437.571 798.5,-437.571"/>
</g>
<!-- Node4 -->
<g id="node7" class="node"><title>Node4</title>
<polygon fill="none" stroke="#bfbfbf" points="-0.5,-348.5 -0.5,-369.5 88.5,-369.5 88.5,-348.5 -0.5,-348.5"/>
<text text-anchor="middle" x="44" y="-356.5" font-family="Helvetica,sans-Serif" font-size="10.00">QtCore/QVariant</text>
</g>
<!-- Node3&#45;&gt;Node4 -->
<g id="edge6" class="edge"><title>Node3&#45;&gt;Node4</title>
<path fill="none" stroke="midnightblue" d="M750.279,-416.117C640.699,-413.497 349.982,-403.797 98.7905,-370.101"/>
<polygon fill="midnightblue" stroke="midnightblue" points="99.1245,-366.614 88.7446,-368.737 98.183,-373.55 99.1245,-366.614"/>
</g>
<!-- Node5 -->
<g id="node9" class="node"><title>Node5</title>
<polygon fill="none" stroke="#bfbfbf" points="106,-348.5 106,-369.5 186,-369.5 186,-348.5 106,-348.5"/>
<text text-anchor="middle" x="146" y="-356.5" font-family="Helvetica,sans-Serif" font-size="10.00">QtGui/QAction</text>
</g>
<!-- Node3&#45;&gt;Node5 -->
<g id="edge8" class="edge"><title>Node3&#45;&gt;Node5</title>
<path fill="none" stroke="midnightblue" d="M750.344,-415.679C651.929,-412.301 408.876,-401.396 196.131,-369.985"/>
<polygon fill="midnightblue" stroke="midnightblue" points="196.431,-366.491 186.024,-368.473 195.396,-373.414 196.431,-366.491"/>
</g>
<!-- Node6 -->
<g id="node11" class="node"><title>Node6</title>
<polygon fill="none" stroke="#bfbfbf" points="203.5,-348.5 203.5,-369.5 304.5,-369.5 304.5,-348.5 203.5,-348.5"/>
<text text-anchor="middle" x="254" y="-356.5" font-family="Helvetica,sans-Serif" font-size="10.00">QtGui/QApplication</text>
</g>
<!-- Node3&#45;&gt;Node6 -->
<g id="edge10" class="edge"><title>Node3&#45;&gt;Node6</title>
<path fill="none" stroke="midnightblue" d="M750.323,-413.951C666.786,-407.966 481.07,-393.324 315.194,-370.224"/>
<polygon fill="midnightblue" stroke="midnightblue" points="315.193,-366.69 304.803,-368.762 314.217,-373.621 315.193,-366.69"/>
</g>
<!-- Node7 -->
<g id="node13" class="node"><title>Node7</title>
<polygon fill="none" stroke="#bfbfbf" points="321.5,-348.5 321.5,-369.5 428.5,-369.5 428.5,-348.5 321.5,-348.5"/>
<text text-anchor="middle" x="375" y="-356.5" font-family="Helvetica,sans-Serif" font-size="10.00">QtGui/QButtonGroup</text>
</g>
<!-- Node3&#45;&gt;Node7 -->
<g id="edge12" class="edge"><title>Node3&#45;&gt;Node7</title>
<path fill="none" stroke="midnightblue" d="M750.258,-411.783C684.254,-403.942 556.667,-388.236 438.671,-370.213"/>
<polygon fill="midnightblue" stroke="midnightblue" points="439.159,-366.747 428.744,-368.688 438.096,-373.666 439.159,-366.747"/>
</g>
<!-- Node8 -->
<g id="node15" class="node"><title>Node8</title>
<polygon fill="none" stroke="#bfbfbf" points="445.5,-348.5 445.5,-369.5 546.5,-369.5 546.5,-348.5 445.5,-348.5"/>
<text text-anchor="middle" x="496" y="-356.5" font-family="Helvetica,sans-Serif" font-size="10.00">QtGui/QComboBox</text>
</g>
<!-- Node3&#45;&gt;Node8 -->
<g id="edge14" class="edge"><title>Node3&#45;&gt;Node8</title>
<path fill="none" stroke="midnightblue" d="M750.237,-408.317C698.752,-398.33 613.965,-381.883 556.6,-370.755"/>
<polygon fill="midnightblue" stroke="midnightblue" points="557.061,-367.279 546.577,-368.811 555.728,-374.151 557.061,-367.279"/>
</g>
<!-- Node9 -->
<g id="node17" class="node"><title>Node9</title>
<polygon fill="none" stroke="#bfbfbf" points="564,-348.5 564,-369.5 644,-369.5 644,-348.5 564,-348.5"/>
<text text-anchor="middle" x="604" y="-356.5" font-family="Helvetica,sans-Serif" font-size="10.00">QtGui/QDialog</text>
</g>
<!-- Node3&#45;&gt;Node9 -->
<g id="edge16" class="edge"><title>Node3&#45;&gt;Node9</title>
<path fill="none" stroke="midnightblue" d="M760.411,-406.497C729.004,-396.959 682.51,-382.841 648.375,-372.475"/>
<polygon fill="midnightblue" stroke="midnightblue" points="649.239,-369.08 638.654,-369.523 647.205,-375.778 649.239,-369.08"/>
</g>
<!-- Node10 -->
<g id="node19" class="node"><title>Node10</title>
<polygon fill="none" stroke="#bfbfbf" points="662,-348.5 662,-369.5 788,-369.5 788,-348.5 662,-348.5"/>
<text text-anchor="middle" x="725" y="-356.5" font-family="Helvetica,sans-Serif" font-size="10.00">QtGui/QDialogButtonBox</text>
</g>
<!-- Node3&#45;&gt;Node10 -->
<g id="edge18" class="edge"><title>Node3&#45;&gt;Node10</title>
<path fill="none" stroke="midnightblue" d="M782.161,-406.362C771.998,-397.941 757.599,-386.011 745.796,-376.231"/>
<polygon fill="midnightblue" stroke="midnightblue" points="747.691,-373.256 737.758,-369.571 743.225,-378.646 747.691,-373.256"/>
</g>
<!-- Node11 -->
<g id="node21" class="node"><title>Node11</title>
<polygon fill="none" stroke="#bfbfbf" points="806,-348.5 806,-369.5 926,-369.5 926,-348.5 806,-348.5"/>
<text text-anchor="middle" x="866" y="-356.5" font-family="Helvetica,sans-Serif" font-size="10.00">QtGui/QDoubleSpinBox</text>
</g>
<!-- Node3&#45;&gt;Node11 -->
<g id="edge20" class="edge"><title>Node3&#45;&gt;Node11</title>
<path fill="none" stroke="midnightblue" d="M808.022,-406.362C818.431,-397.859 833.219,-385.779 845.255,-375.947"/>
<polygon fill="midnightblue" stroke="midnightblue" points="847.53,-378.608 853.06,-369.571 843.101,-373.187 847.53,-378.608"/>
</g>
<!-- Node12 -->
<g id="node23" class="node"><title>Node12</title>
<polygon fill="none" stroke="#bfbfbf" points="944,-348.5 944,-369.5 1044,-369.5 1044,-348.5 944,-348.5"/>
<text text-anchor="middle" x="994" y="-356.5" font-family="Helvetica,sans-Serif" font-size="10.00">QtGui/QGridLayout</text>
</g>
<!-- Node3&#45;&gt;Node12 -->
<g id="edge22" class="edge"><title>Node3&#45;&gt;Node12</title>
<path fill="none" stroke="midnightblue" d="M831.037,-406.497C863.901,-396.918 912.617,-382.72 948.224,-372.342"/>
<polygon fill="midnightblue" stroke="midnightblue" points="949.274,-375.681 957.895,-369.523 947.315,-368.961 949.274,-375.681"/>
</g>
<!-- Node13 -->
<g id="node25" class="node"><title>Node13</title>
<polygon fill="none" stroke="#bfbfbf" points="1062,-348.5 1062,-369.5 1158,-369.5 1158,-348.5 1062,-348.5"/>
<text text-anchor="middle" x="1110" y="-356.5" font-family="Helvetica,sans-Serif" font-size="10.00">QtGui/QGroupBox</text>
</g>
<!-- Node3&#45;&gt;Node13 -->
<g id="edge24" class="edge"><title>Node3&#45;&gt;Node13</title>
<path fill="none" stroke="midnightblue" d="M839.771,-408.99C889.136,-400.126 971.191,-385.297 1051.51,-370.267"/>
<polygon fill="midnightblue" stroke="midnightblue" points="1052.62,-373.62 1061.8,-368.338 1051.33,-366.74 1052.62,-373.62"/>
</g>
<!-- Node14 -->
<g id="node27" class="node"><title>Node14</title>
<polygon fill="none" stroke="#bfbfbf" points="1176,-348.5 1176,-369.5 1282,-369.5 1282,-348.5 1176,-348.5"/>
<text text-anchor="middle" x="1229" y="-356.5" font-family="Helvetica,sans-Serif" font-size="10.00">QtGui/QHeaderView</text>
</g>
<!-- Node3&#45;&gt;Node14 -->
<g id="edge26" class="edge"><title>Node3&#45;&gt;Node14</title>
<path fill="none" stroke="midnightblue" d="M839.764,-412.075C907.892,-404.42 1041.91,-388.732 1165.88,-370.114"/>
<polygon fill="midnightblue" stroke="midnightblue" points="1166.56,-373.551 1175.93,-368.595 1165.52,-366.63 1166.56,-373.551"/>
</g>
<!-- Node15 -->
<g id="node29" class="node"><title>Node15</title>
<polygon fill="none" stroke="#bfbfbf" points="1300,-348.5 1300,-369.5 1376,-369.5 1376,-348.5 1300,-348.5"/>
<text text-anchor="middle" x="1338" y="-356.5" font-family="Helvetica,sans-Serif" font-size="10.00">QtGui/QLabel</text>
</g>
<!-- Node3&#45;&gt;Node15 -->
<g id="edge28" class="edge"><title>Node3&#45;&gt;Node15</title>
<path fill="none" stroke="midnightblue" d="M839.721,-414.796C925.31,-410.139 1118.29,-397.52 1289.9,-370"/>
<polygon fill="midnightblue" stroke="midnightblue" points="1290.56,-373.439 1299.87,-368.38 1289.44,-366.529 1290.56,-373.439"/>
</g>
<!-- Node16 -->
<g id="node31" class="node"><title>Node16</title>
<a xlink:href="color__widget_8hpp.html" target="_top" xlink:title="color_widget.hpp">
<polygon fill="none" stroke="black" points="1394,-348.5 1394,-369.5 1484,-369.5 1484,-348.5 1394,-348.5"/>
<text text-anchor="middle" x="1439" y="-356.5" font-family="Helvetica,sans-Serif" font-size="10.00">color_widget.hpp</text>
</a>
</g>
<!-- Node3&#45;&gt;Node16 -->
<g id="edge30" class="edge"><title>Node3&#45;&gt;Node16</title>
<path fill="none" stroke="midnightblue" d="M839.61,-415.298C936.777,-411.192 1174.93,-398.969 1384.05,-369.987"/>
<polygon fill="midnightblue" stroke="midnightblue" points="1384.57,-373.449 1393.99,-368.595 1383.6,-366.517 1384.57,-373.449"/>
</g>
<!-- Node22 -->
<g id="node43" class="node"><title>Node22</title>
<a xlink:href="knotview_8hpp.html" target="_top" xlink:title="knotview.hpp">
<polygon fill="none" stroke="black" points="1806,-348.5 1806,-369.5 1880,-369.5 1880,-348.5 1806,-348.5"/>
<text text-anchor="middle" x="1843" y="-356.5" font-family="Helvetica,sans-Serif" font-size="10.00">knotview.hpp</text>
</a>
</g>
<!-- Node3&#45;&gt;Node22 -->
<g id="edge42" class="edge"><title>Node3&#45;&gt;Node22</title>
<path fill="none" stroke="midnightblue" d="M839.696,-414.526C1010.46,-405.076 1620.81,-371.297 1795.8,-361.612"/>
<polygon fill="midnightblue" stroke="midnightblue" points="1796.18,-365.097 1805.97,-361.049 1795.79,-358.107 1796.18,-365.097"/>
</g>
<!-- Node17 -->
<g id="node33" class="node"><title>Node17</title>
<polygon fill="none" stroke="#bfbfbf" points="1564.5,-290.5 1564.5,-311.5 1623.5,-311.5 1623.5,-290.5 1564.5,-290.5"/>
<text text-anchor="middle" x="1594" y="-298.5" font-family="Helvetica,sans-Serif" font-size="10.00">QLineEdit</text>
</g>
<!-- Node16&#45;&gt;Node17 -->
<g id="edge32" class="edge"><title>Node16&#45;&gt;Node17</title>
<path fill="none" stroke="midnightblue" d="M1467.07,-348.497C1492.01,-339.164 1528.67,-325.445 1556.19,-315.147"/>
<polygon fill="midnightblue" stroke="midnightblue" points="1557.74,-318.306 1565.88,-311.523 1555.29,-311.75 1557.74,-318.306"/>
</g>
<!-- Node18 -->
<g id="node35" class="node"><title>Node18</title>
<polygon fill="none" stroke="#bfbfbf" points="1178.5,-290.5 1178.5,-311.5 1253.5,-311.5 1253.5,-290.5 1178.5,-290.5"/>
<text text-anchor="middle" x="1216" y="-298.5" font-family="Helvetica,sans-Serif" font-size="10.00">QColorDialog</text>
</g>
<!-- Node16&#45;&gt;Node18 -->
<g id="edge34" class="edge"><title>Node16&#45;&gt;Node18</title>
<path fill="none" stroke="midnightblue" d="M1398.62,-348.497C1360.66,-338.626 1303.85,-323.848 1263.68,-313.402"/>
<polygon fill="midnightblue" stroke="midnightblue" points="1264.41,-309.975 1253.85,-310.845 1262.65,-316.75 1264.41,-309.975"/>
</g>
<!-- Node19 -->
<g id="node37" class="node"><title>Node19</title>
<polygon fill="none" stroke="#bfbfbf" points="1271,-290.5 1271,-311.5 1343,-311.5 1343,-290.5 1271,-290.5"/>
<text text-anchor="middle" x="1307" y="-298.5" font-family="Helvetica,sans-Serif" font-size="10.00">QPaintEvent</text>
</g>
<!-- Node16&#45;&gt;Node19 -->
<g id="edge36" class="edge"><title>Node16&#45;&gt;Node19</title>
<path fill="none" stroke="midnightblue" d="M1415.1,-348.497C1394.2,-339.315 1363.64,-325.889 1340.34,-315.652"/>
<polygon fill="midnightblue" stroke="midnightblue" points="1341.74,-312.44 1331.17,-311.621 1338.92,-318.848 1341.74,-312.44"/>
</g>
<!-- Node20 -->
<g id="node39" class="node"><title>Node20</title>
<polygon fill="none" stroke="#bfbfbf" points="1360.5,-290.5 1360.5,-311.5 1415.5,-311.5 1415.5,-290.5 1360.5,-290.5"/>
<text text-anchor="middle" x="1388" y="-298.5" font-family="Helvetica,sans-Serif" font-size="10.00">QPainter</text>
</g>
<!-- Node16&#45;&gt;Node20 -->
<g id="edge38" class="edge"><title>Node16&#45;&gt;Node20</title>
<path fill="none" stroke="midnightblue" d="M1429.65,-348.362C1422.46,-340.186 1412.36,-328.702 1403.91,-319.091"/>
<polygon fill="midnightblue" stroke="midnightblue" points="1406.53,-316.769 1397.29,-311.571 1401.27,-321.392 1406.53,-316.769"/>
</g>
<!-- Node21 -->
<g id="node41" class="node"><title>Node21</title>
<polygon fill="none" stroke="#bfbfbf" points="1432.5,-290.5 1432.5,-311.5 1547.5,-311.5 1547.5,-290.5 1432.5,-290.5"/>
<text text-anchor="middle" x="1490" y="-298.5" font-family="Helvetica,sans-Serif" font-size="10.00">QStyleOptionFrameV3</text>
</g>
<!-- Node16&#45;&gt;Node21 -->
<g id="edge40" class="edge"><title>Node16&#45;&gt;Node21</title>
<path fill="none" stroke="midnightblue" d="M1448.35,-348.362C1455.54,-340.186 1465.64,-328.702 1474.09,-319.091"/>
<polygon fill="midnightblue" stroke="midnightblue" points="1476.73,-321.392 1480.71,-311.571 1471.47,-316.769 1476.73,-321.392"/>
</g>
<!-- Node23 -->
<g id="node45" class="node"><title>Node23</title>
<polygon fill="none" stroke="#bfbfbf" points="1730.5,-290.5 1730.5,-311.5 1815.5,-311.5 1815.5,-290.5 1730.5,-290.5"/>
<text text-anchor="middle" x="1773" y="-298.5" font-family="Helvetica,sans-Serif" font-size="10.00">QGraphicsView</text>
</g>
<!-- Node22&#45;&gt;Node23 -->
<g id="edge44" class="edge"><title>Node22&#45;&gt;Node23</title>
<path fill="none" stroke="midnightblue" d="M1830.16,-348.362C1820,-339.941 1805.6,-328.011 1793.8,-318.231"/>
<polygon fill="midnightblue" stroke="midnightblue" points="1795.69,-315.256 1785.76,-311.571 1791.22,-320.646 1795.69,-315.256"/>
</g>
<!-- Node24 -->
<g id="node47" class="node"><title>Node24</title>
<a xlink:href="node_8hpp.html" target="_top" xlink:title="node.hpp">
<polygon fill="none" stroke="black" points="2119,-174.5 2119,-195.5 2175,-195.5 2175,-174.5 2119,-174.5"/>
<text text-anchor="middle" x="2147" y="-182.5" font-family="Helvetica,sans-Serif" font-size="10.00">node.hpp</text>
</a>
</g>
<!-- Node22&#45;&gt;Node24 -->
<g id="edge46" class="edge"><title>Node22&#45;&gt;Node24</title>
<path fill="none" stroke="midnightblue" d="M1880.2,-353.794C1963.95,-341.232 2163.06,-306.369 2202,-254 2215.76,-235.5 2194.33,-214.904 2174.33,-201.071"/>
<polygon fill="midnightblue" stroke="midnightblue" points="2176.24,-198.136 2165.96,-195.582 2172.4,-203.991 2176.24,-198.136"/>
</g>
<!-- Node27 -->
<g id="node53" class="node"><title>Node27</title>
<a xlink:href="edge_8hpp.html" target="_top" xlink:title="edge.hpp">
<polygon fill="none" stroke="black" points="1958,-116.5 1958,-137.5 2014,-137.5 2014,-116.5 1958,-116.5"/>
<text text-anchor="middle" x="1986" y="-124.5" font-family="Helvetica,sans-Serif" font-size="10.00">edge.hpp</text>
</a>
</g>
<!-- Node22&#45;&gt;Node27 -->
<g id="edge56" class="edge"><title>Node22&#45;&gt;Node27</title>
<path fill="none" stroke="midnightblue" d="M1842.68,-348.455C1842.31,-317.884 1845.21,-227.97 1889,-174 1903.89,-155.643 1927.71,-143.958 1948.01,-136.831"/>
<polygon fill="midnightblue" stroke="midnightblue" points="1949.22,-140.117 1957.65,-133.688 1947.05,-133.463 1949.22,-140.117"/>
</g>
<!-- Node28 -->
<g id="node57" class="node"><title>Node28</title>
<polygon fill="none" stroke="#bfbfbf" points="1640.5,-290.5 1640.5,-311.5 1713.5,-311.5 1713.5,-290.5 1640.5,-290.5"/>
<text text-anchor="middle" x="1677" y="-298.5" font-family="Helvetica,sans-Serif" font-size="10.00">QUndoStack</text>
</g>
<!-- Node22&#45;&gt;Node28 -->
<g id="edge58" class="edge"><title>Node22&#45;&gt;Node28</title>
<path fill="none" stroke="midnightblue" d="M1812.94,-348.497C1785.99,-339.082 1746.27,-325.204 1716.72,-314.877"/>
<polygon fill="midnightblue" stroke="midnightblue" points="1717.71,-311.517 1707.12,-311.523 1715.4,-318.126 1717.71,-311.517"/>
</g>
<!-- Node29 -->
<g id="node59" class="node"><title>Node29</title>
<a xlink:href="knotgraph_8hpp.html" target="_top" xlink:title="knotgraph.hpp">
<polygon fill="none" stroke="black" points="1922,-290.5 1922,-311.5 2000,-311.5 2000,-290.5 1922,-290.5"/>
<text text-anchor="middle" x="1961" y="-298.5" font-family="Helvetica,sans-Serif" font-size="10.00">knotgraph.hpp</text>
</a>
</g>
<!-- Node22&#45;&gt;Node29 -->
<g id="edge60" class="edge"><title>Node22&#45;&gt;Node29</title>
<path fill="none" stroke="midnightblue" d="M1864.37,-348.497C1882.8,-339.438 1909.64,-326.246 1930.36,-316.063"/>
<polygon fill="midnightblue" stroke="midnightblue" points="1931.96,-319.174 1939.39,-311.621 1928.87,-312.891 1931.96,-319.174"/>
</g>
<!-- Node34 -->
<g id="node73" class="node"><title>Node34</title>
<a xlink:href="snapping__grid_8hpp.html" target="_top" xlink:title="snapping_grid.hpp">
<polygon fill="none" stroke="black" points="2203.5,-116.5 2203.5,-137.5 2298.5,-137.5 2298.5,-116.5 2203.5,-116.5"/>
<text text-anchor="middle" x="2251" y="-124.5" font-family="Helvetica,sans-Serif" font-size="10.00">snapping_grid.hpp</text>
</a>
</g>
<!-- Node22&#45;&gt;Node34 -->
<g id="edge78" class="edge"><title>Node22&#45;&gt;Node34</title>
<path fill="none" stroke="midnightblue" d="M1880.04,-354.935C1947.1,-347.25 2085.86,-329.762 2131,-312 2174.24,-294.984 2191.05,-291.862 2218,-254 2241,-221.681 2247.98,-174.572 2250.09,-147.745"/>
<polygon fill="midnightblue" stroke="midnightblue" points="2253.59,-147.792 2250.73,-137.591 2246.61,-147.352 2253.59,-147.792"/>
</g>
<!-- Node25 -->
<g id="node49" class="node"><title>Node25</title>
<a xlink:href="custom__item_8hpp.html" target="_top" xlink:title="custom_item.hpp">
<polygon fill="none" stroke="black" points="2101,-58.5 2101,-79.5 2193,-79.5 2193,-58.5 2101,-58.5"/>
<text text-anchor="middle" x="2147" y="-66.5" font-family="Helvetica,sans-Serif" font-size="10.00">custom_item.hpp</text>
</a>
</g>
<!-- Node24&#45;&gt;Node25 -->
<g id="edge48" class="edge"><title>Node24&#45;&gt;Node25</title>
<path fill="none" stroke="midnightblue" d="M2147,-174.295C2147,-155.131 2147,-114.654 2147,-89.8434"/>
<polygon fill="midnightblue" stroke="midnightblue" points="2150.5,-89.6792 2147,-79.6792 2143.5,-89.6792 2150.5,-89.6792"/>
</g>
<!-- Node24&#45;&gt;Node27 -->
<g id="edge52" class="edge"><title>Node24&#45;&gt;Node27</title>
<path fill="none" stroke="midnightblue" d="M2118.96,-174.897C2092.57,-165.391 2052.86,-151.087 2023.71,-140.585"/>
<polygon fill="midnightblue" stroke="midnightblue" points="2024.86,-137.278 2014.26,-137.182 2022.48,-143.864 2024.86,-137.278"/>
</g>
<!-- Node26 -->
<g id="node51" class="node"><title>Node26</title>
<polygon fill="none" stroke="#bfbfbf" points="2149.5,-0.5 2149.5,-21.5 2232.5,-21.5 2232.5,-0.5 2149.5,-0.5"/>
<text text-anchor="middle" x="2191" y="-8.5" font-family="Helvetica,sans-Serif" font-size="10.00">QGraphicsItem</text>
</g>
<!-- Node25&#45;&gt;Node26 -->
<g id="edge50" class="edge"><title>Node25&#45;&gt;Node26</title>
<path fill="none" stroke="midnightblue" d="M2155.07,-58.3619C2161.15,-50.3496 2169.64,-39.1605 2176.84,-29.6696"/>
<polygon fill="midnightblue" stroke="midnightblue" points="2179.73,-31.653 2182.98,-21.5707 2174.15,-27.4222 2179.73,-31.653"/>
</g>
<!-- Node27&#45;&gt;Node25 -->
<g id="edge54" class="edge"><title>Node27&#45;&gt;Node25</title>
<path fill="none" stroke="midnightblue" d="M2014.04,-116.897C2040.11,-107.508 2079.17,-93.4373 2108.21,-82.9733"/>
<polygon fill="midnightblue" stroke="midnightblue" points="2109.42,-86.257 2117.65,-79.5749 2107.05,-79.6713 2109.42,-86.257"/>
</g>
<!-- Node29&#45;&gt;Node24 -->
<g id="edge64" class="edge"><title>Node29&#45;&gt;Node24</title>
<path fill="none" stroke="midnightblue" d="M2000.31,-298.59C2058.46,-294.113 2163.03,-282.259 2186,-254 2198.93,-238.087 2183.59,-217.318 2168.51,-202.74"/>
<polygon fill="midnightblue" stroke="midnightblue" points="2170.56,-199.87 2160.8,-195.739 2165.85,-205.053 2170.56,-199.87"/>
</g>
<!-- Node29&#45;&gt;Node27 -->
<g id="edge66" class="edge"><title>Node29&#45;&gt;Node27</title>
<path fill="none" stroke="midnightblue" d="M1948.86,-290.476C1924.79,-268.31 1875.42,-215.445 1900,-174 1910.47,-156.343 1930.18,-144.889 1948.08,-137.714"/>
<polygon fill="midnightblue" stroke="midnightblue" points="1949.6,-140.887 1957.78,-134.156 1947.19,-134.316 1949.6,-140.887"/>
</g>
<!-- Node30 -->
<g id="node61" class="node"><title>Node30</title>
<polygon fill="none" stroke="#bfbfbf" points="1908.5,-174.5 1908.5,-195.5 1983.5,-195.5 1983.5,-174.5 1908.5,-174.5"/>
<text text-anchor="middle" x="1946" y="-182.5" font-family="Helvetica,sans-Serif" font-size="10.00">QPainterPath</text>
</g>
<!-- Node29&#45;&gt;Node30 -->
<g id="edge62" class="edge"><title>Node29&#45;&gt;Node30</title>
<path fill="none" stroke="midnightblue" d="M1954.02,-290.327C1948.44,-281.13 1941.07,-267.275 1938,-254 1934.31,-238.055 1936.78,-219.623 1939.92,-205.823"/>
<polygon fill="midnightblue" stroke="midnightblue" points="1943.37,-206.441 1942.47,-195.885 1936.59,-204.699 1943.37,-206.441"/>
</g>
<!-- Node31 -->
<g id="node65" class="node"><title>Node31</title>
<polygon fill="none" stroke="#bfbfbf" points="2074.5,-232.5 2074.5,-253.5 2177.5,-253.5 2177.5,-232.5 2074.5,-232.5"/>
<text text-anchor="middle" x="2126" y="-240.5" font-family="Helvetica,sans-Serif" font-size="10.00">QGraphicsPathItem</text>
</g>
<!-- Node29&#45;&gt;Node31 -->
<g id="edge68" class="edge"><title>Node29&#45;&gt;Node31</title>
<path fill="none" stroke="midnightblue" d="M1990.88,-290.497C2017.66,-281.082 2057.14,-267.204 2086.52,-256.877"/>
<polygon fill="midnightblue" stroke="midnightblue" points="2087.79,-260.141 2096.06,-253.523 2085.47,-253.537 2087.79,-260.141"/>
</g>
<!-- Node32 -->
<g id="node67" class="node"><title>Node32</title>
<a xlink:href="knot__curve__style_8hpp.html" target="_top" xlink:title="knot_curve_style.hpp">
<polygon fill="none" stroke="black" points="1947,-232.5 1947,-253.5 2057,-253.5 2057,-232.5 1947,-232.5"/>
<text text-anchor="middle" x="2002" y="-240.5" font-family="Helvetica,sans-Serif" font-size="10.00">knot_curve_style.hpp</text>
</a>
</g>
<!-- Node29&#45;&gt;Node32 -->
<g id="edge70" class="edge"><title>Node29&#45;&gt;Node32</title>
<path fill="none" stroke="midnightblue" d="M1968.52,-290.362C1974.13,-282.431 1981.93,-271.389 1988.6,-261.961"/>
<polygon fill="midnightblue" stroke="midnightblue" points="1991.61,-263.757 1994.53,-253.571 1985.9,-259.716 1991.61,-263.757"/>
</g>
<!-- Node32&#45;&gt;Node24 -->
<g id="edge72" class="edge"><title>Node32&#45;&gt;Node24</title>
<path fill="none" stroke="midnightblue" d="M2028.26,-232.497C2051.42,-223.234 2085.38,-209.65 2111.05,-199.379"/>
<polygon fill="midnightblue" stroke="midnightblue" points="2112.46,-202.585 2120.45,-195.621 2109.86,-196.086 2112.46,-202.585"/>
</g>
<!-- Node32&#45;&gt;Node30 -->
<g id="edge74" class="edge"><title>Node32&#45;&gt;Node30</title>
<path fill="none" stroke="midnightblue" d="M1991.73,-232.362C1983.76,-224.104 1972.53,-212.472 1963.19,-202.803"/>
<polygon fill="midnightblue" stroke="midnightblue" points="1965.67,-200.334 1956.21,-195.571 1960.63,-205.196 1965.67,-200.334"/>
</g>
<!-- Node33 -->
<g id="node71" class="node"><title>Node33</title>
<polygon fill="none" stroke="#bfbfbf" points="2000.5,-174.5 2000.5,-195.5 2043.5,-195.5 2043.5,-174.5 2000.5,-174.5"/>
<text text-anchor="middle" x="2022" y="-182.5" font-family="Helvetica,sans-Serif" font-size="10.00">QMap</text>
</g>
<!-- Node32&#45;&gt;Node33 -->
<g id="edge76" class="edge"><title>Node32&#45;&gt;Node33</title>
<path fill="none" stroke="midnightblue" d="M2005.67,-232.362C2008.29,-224.758 2011.9,-214.294 2015.06,-205.135"/>
<polygon fill="midnightblue" stroke="midnightblue" points="2018.4,-206.165 2018.35,-195.571 2011.79,-203.883 2018.4,-206.165"/>
</g>
<!-- Node34&#45;&gt;Node26 -->
<g id="edge80" class="edge"><title>Node34&#45;&gt;Node26</title>
<path fill="none" stroke="midnightblue" d="M2245.46,-116.295C2235.42,-96.8724 2214.05,-55.5561 2201.27,-30.8462"/>
<polygon fill="midnightblue" stroke="midnightblue" points="2204.23,-28.9534 2196.52,-21.6792 2198.01,-32.1694 2204.23,-28.9534"/>
</g>
</g>
</svg>
