<?xml version="1.0" encoding="UTF-8" standalone="no"?>
<!DOCTYPE svg PUBLIC "-//W3C//DTD SVG 1.1//EN"
 "http://www.w3.org/Graphics/SVG/1.1/DTD/svg11.dtd">
<!-- Generated by graphviz version 2.26.3 (20100126.1600)
 -->
<!-- Title: G Pages: 1 -->
<svg width="1608pt" height="436pt"
 viewBox="0.00 0.00 1608.00 436.00" xmlns="http://www.w3.org/2000/svg" xmlns:xlink="http://www.w3.org/1999/xlink">
<g id="graph1" class="graph" transform="scale(1 1) rotate(0) translate(4 432)">
<title>G</title>
<!-- Node1 -->
<g id="node1" class="node"><title>Node1</title>
<polygon fill="#bfbfbf" stroke="black" points="694.5,-406.5 694.5,-427.5 789.5,-427.5 789.5,-406.5 694.5,-406.5"/>
<text text-anchor="middle" x="742" y="-414.5" font-family="Helvetica,sans-Serif" font-size="10.00">ui_knot_window.h</text>
</g>
<!-- Node2 -->
<g id="node3" class="node"><title>Node2</title>
<polygon fill="none" stroke="#bfbfbf" points="-0.5,-348.5 -0.5,-369.5 88.5,-369.5 88.5,-348.5 -0.5,-348.5"/>
<text text-anchor="middle" x="44" y="-356.5" font-family="Helvetica,sans-Serif" font-size="10.00">QtCore/QVariant</text>
</g>
<!-- Node1&#45;&gt;Node2 -->
<g id="edge2" class="edge"><title>Node1&#45;&gt;Node2</title>
<path fill="none" stroke="midnightblue" d="M694.435,-415.68C588.873,-412.29 326.94,-401.332 98.8945,-370.125"/>
<polygon fill="midnightblue" stroke="midnightblue" points="99.1326,-366.625 88.747,-368.72 98.1724,-373.559 99.1326,-366.625"/>
</g>
<!-- Node3 -->
<g id="node5" class="node"><title>Node3</title>
<polygon fill="none" stroke="#bfbfbf" points="106,-348.5 106,-369.5 186,-369.5 186,-348.5 106,-348.5"/>
<text text-anchor="middle" x="146" y="-356.5" font-family="Helvetica,sans-Serif" font-size="10.00">QtGui/QAction</text>
</g>
<!-- Node1&#45;&gt;Node3 -->
<g id="edge4" class="edge"><title>Node1&#45;&gt;Node3</title>
<path fill="none" stroke="midnightblue" d="M694.183,-415.066C600.458,-410.806 385.93,-398.738 196.188,-370.007"/>
<polygon fill="midnightblue" stroke="midnightblue" points="196.442,-366.505 186.027,-368.448 195.381,-373.424 196.442,-366.505"/>
</g>
<!-- Node4 -->
<g id="node7" class="node"><title>Node4</title>
<polygon fill="none" stroke="#bfbfbf" points="203.5,-348.5 203.5,-369.5 304.5,-369.5 304.5,-348.5 203.5,-348.5"/>
<text text-anchor="middle" x="254" y="-356.5" font-family="Helvetica,sans-Serif" font-size="10.00">QtGui/QApplication</text>
</g>
<!-- Node1&#45;&gt;Node4 -->
<g id="edge6" class="edge"><title>Node1&#45;&gt;Node4</title>
<path fill="none" stroke="midnightblue" d="M694.238,-412.949C616.72,-406.117 458.504,-391.1 315.106,-370.236"/>
<polygon fill="midnightblue" stroke="midnightblue" points="315.211,-366.714 304.808,-368.724 314.193,-373.639 315.211,-366.714"/>
</g>
<!-- Node5 -->
<g id="node9" class="node"><title>Node5</title>
<polygon fill="none" stroke="#bfbfbf" points="321.5,-348.5 321.5,-369.5 428.5,-369.5 428.5,-348.5 321.5,-348.5"/>
<text text-anchor="middle" x="375" y="-356.5" font-family="Helvetica,sans-Serif" font-size="10.00">QtGui/QButtonGroup</text>
</g>
<!-- Node1&#45;&gt;Node5 -->
<g id="edge8" class="edge"><title>Node1&#45;&gt;Node5</title>
<path fill="none" stroke="midnightblue" d="M694.4,-410.007C636.336,-401.4 534.928,-386.124 438.655,-370.252"/>
<polygon fill="midnightblue" stroke="midnightblue" points="439.193,-366.793 428.756,-368.614 438.05,-373.699 439.193,-366.793"/>
</g>
<!-- Node6 -->
<g id="node11" class="node"><title>Node6</title>
<polygon fill="none" stroke="#bfbfbf" points="446,-348.5 446,-369.5 546,-369.5 546,-348.5 446,-348.5"/>
<text text-anchor="middle" x="496" y="-356.5" font-family="Helvetica,sans-Serif" font-size="10.00">QtGui/QGridLayout</text>
</g>
<!-- Node1&#45;&gt;Node6 -->
<g id="edge10" class="edge"><title>Node1&#45;&gt;Node6</title>
<path fill="none" stroke="midnightblue" d="M697.451,-406.497C656.218,-396.775 594.798,-382.294 550.624,-371.879"/>
<polygon fill="midnightblue" stroke="midnightblue" points="551.169,-368.411 540.632,-369.523 549.562,-375.225 551.169,-368.411"/>
</g>
<!-- Node7 -->
<g id="node13" class="node"><title>Node7</title>
<polygon fill="none" stroke="#bfbfbf" points="564,-348.5 564,-369.5 670,-369.5 670,-348.5 564,-348.5"/>
<text text-anchor="middle" x="617" y="-356.5" font-family="Helvetica,sans-Serif" font-size="10.00">QtGui/QHeaderView</text>
</g>
<!-- Node1&#45;&gt;Node7 -->
<g id="edge12" class="edge"><title>Node1&#45;&gt;Node7</title>
<path fill="none" stroke="midnightblue" d="M719.363,-406.497C699.752,-397.397 671.154,-384.127 649.167,-373.925"/>
<polygon fill="midnightblue" stroke="midnightblue" points="650.435,-370.655 639.891,-369.621 647.488,-377.005 650.435,-370.655"/>
</g>
<!-- Node8 -->
<g id="node15" class="node"><title>Node8</title>
<polygon fill="none" stroke="#bfbfbf" points="687.5,-348.5 687.5,-369.5 796.5,-369.5 796.5,-348.5 687.5,-348.5"/>
<text text-anchor="middle" x="742" y="-356.5" font-family="Helvetica,sans-Serif" font-size="10.00">QtGui/QMainWindow</text>
</g>
<!-- Node1&#45;&gt;Node8 -->
<g id="edge14" class="edge"><title>Node1&#45;&gt;Node8</title>
<path fill="none" stroke="midnightblue" d="M742,-406.362C742,-398.922 742,-388.743 742,-379.728"/>
<polygon fill="midnightblue" stroke="midnightblue" points="745.5,-379.571 742,-369.571 738.5,-379.571 745.5,-379.571"/>
</g>
<!-- Node9 -->
<g id="node17" class="node"><title>Node9</title>
<polygon fill="none" stroke="#bfbfbf" points="813.5,-348.5 813.5,-369.5 890.5,-369.5 890.5,-348.5 813.5,-348.5"/>
<text text-anchor="middle" x="852" y="-356.5" font-family="Helvetica,sans-Serif" font-size="10.00">QtGui/QMenu</text>
</g>
<!-- Node1&#45;&gt;Node9 -->
<g id="edge16" class="edge"><title>Node1&#45;&gt;Node9</title>
<path fill="none" stroke="midnightblue" d="M761.92,-406.497C778.946,-397.519 803.669,-384.484 822.909,-374.339"/>
<polygon fill="midnightblue" stroke="midnightblue" points="824.643,-377.381 831.856,-369.621 821.378,-371.189 824.643,-377.381"/>
</g>
<!-- Node10 -->
<g id="node19" class="node"><title>Node10</title>
<polygon fill="none" stroke="#bfbfbf" points="908,-348.5 908,-369.5 1000,-369.5 1000,-348.5 908,-348.5"/>
<text text-anchor="middle" x="954" y="-356.5" font-family="Helvetica,sans-Serif" font-size="10.00">QtGui/QMenuBar</text>
</g>
<!-- Node1&#45;&gt;Node10 -->
<g id="edge18" class="edge"><title>Node1&#45;&gt;Node10</title>
<path fill="none" stroke="midnightblue" d="M780.392,-406.497C815.552,-396.877 867.745,-382.598 905.719,-372.209"/>
<polygon fill="midnightblue" stroke="midnightblue" points="906.814,-375.538 915.536,-369.523 904.967,-368.786 906.814,-375.538"/>
</g>
<!-- Node11 -->
<g id="node21" class="node"><title>Node11</title>
<polygon fill="none" stroke="#bfbfbf" points="1018,-348.5 1018,-369.5 1114,-369.5 1114,-348.5 1018,-348.5"/>
<text text-anchor="middle" x="1066" y="-356.5" font-family="Helvetica,sans-Serif" font-size="10.00">QtGui/QStatusBar</text>
</g>
<!-- Node1&#45;&gt;Node11 -->
<g id="edge20" class="edge"><title>Node1&#45;&gt;Node11</title>
<path fill="none" stroke="midnightblue" d="M789.792,-408.83C841.161,-399.995 925.487,-385.334 1007.78,-370.205"/>
<polygon fill="midnightblue" stroke="midnightblue" points="1008.61,-373.612 1017.81,-368.358 1007.34,-366.728 1008.61,-373.612"/>
</g>
<!-- Node12 -->
<g id="node23" class="node"><title>Node12</title>
<polygon fill="none" stroke="#bfbfbf" points="1132,-348.5 1132,-369.5 1218,-369.5 1218,-348.5 1132,-348.5"/>
<text text-anchor="middle" x="1175" y="-356.5" font-family="Helvetica,sans-Serif" font-size="10.00">QtGui/QToolBar</text>
</g>
<!-- Node1&#45;&gt;Node12 -->
<g id="edge22" class="edge"><title>Node1&#45;&gt;Node12</title>
<path fill="none" stroke="midnightblue" d="M789.707,-412.442C860.138,-405.421 996.269,-390.741 1121.75,-370.099"/>
<polygon fill="midnightblue" stroke="midnightblue" points="1122.63,-373.501 1131.92,-368.409 1121.49,-366.596 1122.63,-373.501"/>
</g>
<!-- Node13 -->
<g id="node25" class="node"><title>Node13</title>
<polygon fill="none" stroke="#bfbfbf" points="1235.5,-348.5 1235.5,-369.5 1318.5,-369.5 1318.5,-348.5 1235.5,-348.5"/>
<text text-anchor="middle" x="1277" y="-356.5" font-family="Helvetica,sans-Serif" font-size="10.00">QtGui/QWidget</text>
</g>
<!-- Node1&#45;&gt;Node13 -->
<g id="edge24" class="edge"><title>Node1&#45;&gt;Node13</title>
<path fill="none" stroke="midnightblue" d="M789.741,-414.279C875.187,-408.996 1060.03,-395.691 1224.99,-370.178"/>
<polygon fill="midnightblue" stroke="midnightblue" points="1225.99,-373.565 1235.33,-368.559 1224.91,-366.649 1225.99,-373.565"/>
</g>
<!-- Node14 -->
<g id="node27" class="node"><title>Node14</title>
<a xlink:href="knotview_8hpp.html" target="_top" xlink:title="knotview.hpp">
<polygon fill="none" stroke="black" points="1336,-348.5 1336,-369.5 1410,-369.5 1410,-348.5 1336,-348.5"/>
<text text-anchor="middle" x="1373" y="-356.5" font-family="Helvetica,sans-Serif" font-size="10.00">knotview.hpp</text>
</a>
</g>
<!-- Node1&#45;&gt;Node14 -->
<g id="edge26" class="edge"><title>Node1&#45;&gt;Node14</title>
<path fill="none" stroke="midnightblue" d="M789.688,-415.664C888.194,-412.366 1121.34,-401.781 1325.91,-369.962"/>
<polygon fill="midnightblue" stroke="midnightblue" points="1326.61,-373.396 1335.94,-368.382 1325.52,-366.481 1326.61,-373.396"/>
</g>
<!-- Node15 -->
<g id="node29" class="node"><title>Node15</title>
<polygon fill="none" stroke="#bfbfbf" points="949.5,-290.5 949.5,-311.5 1034.5,-311.5 1034.5,-290.5 949.5,-290.5"/>
<text text-anchor="middle" x="992" y="-298.5" font-family="Helvetica,sans-Serif" font-size="10.00">QGraphicsView</text>
</g>
<!-- Node14&#45;&gt;Node15 -->
<g id="edge28" class="edge"><title>Node14&#45;&gt;Node15</title>
<path fill="none" stroke="midnightblue" d="M1335.91,-349.774C1332.91,-349.135 1329.91,-348.534 1327,-348 1204.03,-325.429 1171.41,-332.06 1048,-312 1046.92,-311.825 1045.84,-311.645 1044.74,-311.46"/>
<polygon fill="midnightblue" stroke="midnightblue" points="1045.21,-307.989 1034.75,-309.698 1043.99,-314.882 1045.21,-307.989"/>
</g>
<!-- Node16 -->
<g id="node31" class="node"><title>Node16</title>
<a xlink:href="node_8hpp.html" target="_top" xlink:title="node.hpp">
<polygon fill="none" stroke="black" points="1338,-174.5 1338,-195.5 1394,-195.5 1394,-174.5 1338,-174.5"/>
<text text-anchor="middle" x="1366" y="-182.5" font-family="Helvetica,sans-Serif" font-size="10.00">node.hpp</text>
</a>
</g>
<!-- Node14&#45;&gt;Node16 -->
<g id="edge30" class="edge"><title>Node14&#45;&gt;Node16</title>
<path fill="none" stroke="midnightblue" d="M1382.86,-348.256C1401.93,-326.113 1440.34,-273.958 1421,-232 1415.23,-219.489 1404.31,-209.071 1393.71,-201.249"/>
<polygon fill="midnightblue" stroke="midnightblue" points="1395.61,-198.308 1385.38,-195.542 1391.66,-204.082 1395.61,-198.308"/>
</g>
<!-- Node19 -->
<g id="node37" class="node"><title>Node19</title>
<a xlink:href="edge_8hpp.html" target="_top" xlink:title="edge.hpp">
<polygon fill="none" stroke="black" points="1177,-116.5 1177,-137.5 1233,-137.5 1233,-116.5 1177,-116.5"/>
<text text-anchor="middle" x="1205" y="-124.5" font-family="Helvetica,sans-Serif" font-size="10.00">edge.hpp</text>
</a>
</g>
<!-- Node14&#45;&gt;Node19 -->
<g id="edge40" class="edge"><title>Node14&#45;&gt;Node19</title>
<path fill="none" stroke="midnightblue" d="M1336.25,-348.459C1273.7,-329.753 1150.71,-289.384 1124,-254 1102.34,-225.306 1093.16,-204.624 1112,-174 1124.05,-154.402 1147.09,-142.676 1167.21,-135.838"/>
<polygon fill="midnightblue" stroke="midnightblue" points="1168.29,-139.169 1176.8,-132.86 1166.21,-132.484 1168.29,-139.169"/>
</g>
<!-- Node20 -->
<g id="node41" class="node"><title>Node20</title>
<polygon fill="none" stroke="#bfbfbf" points="1527.5,-290.5 1527.5,-311.5 1600.5,-311.5 1600.5,-290.5 1527.5,-290.5"/>
<text text-anchor="middle" x="1564" y="-298.5" font-family="Helvetica,sans-Serif" font-size="10.00">QUndoStack</text>
</g>
<!-- Node14&#45;&gt;Node20 -->
<g id="edge42" class="edge"><title>Node14&#45;&gt;Node20</title>
<path fill="none" stroke="midnightblue" d="M1407.59,-348.497C1439,-338.959 1485.49,-324.841 1519.63,-314.475"/>
<polygon fill="midnightblue" stroke="midnightblue" points="1520.79,-317.778 1529.35,-311.523 1518.76,-311.08 1520.79,-317.778"/>
</g>
<!-- Node21 -->
<g id="node43" class="node"><title>Node21</title>
<a xlink:href="knotgraph_8hpp.html" target="_top" xlink:title="knotgraph.hpp">
<polygon fill="none" stroke="black" points="1244,-290.5 1244,-311.5 1322,-311.5 1322,-290.5 1244,-290.5"/>
<text text-anchor="middle" x="1283" y="-298.5" font-family="Helvetica,sans-Serif" font-size="10.00">knotgraph.hpp</text>
</a>
</g>
<!-- Node14&#45;&gt;Node21 -->
<g id="edge44" class="edge"><title>Node14&#45;&gt;Node21</title>
<path fill="none" stroke="midnightblue" d="M1356.49,-348.362C1342.92,-339.614 1323.47,-327.079 1307.99,-317.101"/>
<polygon fill="midnightblue" stroke="midnightblue" points="1309.7,-314.046 1299.4,-311.571 1305.91,-319.93 1309.7,-314.046"/>
</g>
<!-- Node26 -->
<g id="node57" class="node"><title>Node26</title>
<a xlink:href="snapping__grid_8hpp.html" target="_top" xlink:title="snapping_grid.hpp">
<polygon fill="none" stroke="black" points="1422.5,-116.5 1422.5,-137.5 1517.5,-137.5 1517.5,-116.5 1422.5,-116.5"/>
<text text-anchor="middle" x="1470" y="-124.5" font-family="Helvetica,sans-Serif" font-size="10.00">snapping_grid.hpp</text>
</a>
</g>
<!-- Node14&#45;&gt;Node26 -->
<g id="edge62" class="edge"><title>Node14&#45;&gt;Node26</title>
<path fill="none" stroke="midnightblue" d="M1390.52,-348.422C1402.86,-340.057 1418.78,-327.266 1428,-312 1459.96,-259.09 1467.63,-184.322 1469.45,-148.187"/>
<polygon fill="midnightblue" stroke="midnightblue" points="1472.96,-148.019 1469.86,-137.889 1465.97,-147.742 1472.96,-148.019"/>
</g>
<!-- Node17 -->
<g id="node33" class="node"><title>Node17</title>
<a xlink:href="custom__item_8hpp.html" target="_top" xlink:title="custom_item.hpp">
<polygon fill="none" stroke="black" points="1320,-58.5 1320,-79.5 1412,-79.5 1412,-58.5 1320,-58.5"/>
<text text-anchor="middle" x="1366" y="-66.5" font-family="Helvetica,sans-Serif" font-size="10.00">custom_item.hpp</text>
</a>
</g>
<!-- Node16&#45;&gt;Node17 -->
<g id="edge32" class="edge"><title>Node16&#45;&gt;Node17</title>
<path fill="none" stroke="midnightblue" d="M1366,-174.295C1366,-155.131 1366,-114.654 1366,-89.8434"/>
<polygon fill="midnightblue" stroke="midnightblue" points="1369.5,-89.6792 1366,-79.6792 1362.5,-89.6792 1369.5,-89.6792"/>
</g>
<!-- Node16&#45;&gt;Node19 -->
<g id="edge36" class="edge"><title>Node16&#45;&gt;Node19</title>
<path fill="none" stroke="midnightblue" d="M1337.96,-174.897C1311.57,-165.391 1271.86,-151.087 1242.71,-140.585"/>
<polygon fill="midnightblue" stroke="midnightblue" points="1243.86,-137.278 1233.26,-137.182 1241.48,-143.864 1243.86,-137.278"/>
</g>
<!-- Node18 -->
<g id="node35" class="node"><title>Node18</title>
<polygon fill="none" stroke="#bfbfbf" points="1368.5,-0.5 1368.5,-21.5 1451.5,-21.5 1451.5,-0.5 1368.5,-0.5"/>
<text text-anchor="middle" x="1410" y="-8.5" font-family="Helvetica,sans-Serif" font-size="10.00">QGraphicsItem</text>
</g>
<!-- Node17&#45;&gt;Node18 -->
<g id="edge34" class="edge"><title>Node17&#45;&gt;Node18</title>
<path fill="none" stroke="midnightblue" d="M1374.07,-58.3619C1380.15,-50.3496 1388.64,-39.1605 1395.84,-29.6696"/>
<polygon fill="midnightblue" stroke="midnightblue" points="1398.73,-31.653 1401.98,-21.5707 1393.15,-27.4222 1398.73,-31.653"/>
</g>
<!-- Node19&#45;&gt;Node17 -->
<g id="edge38" class="edge"><title>Node19&#45;&gt;Node17</title>
<path fill="none" stroke="midnightblue" d="M1233.04,-116.897C1259.11,-107.508 1298.17,-93.4373 1327.21,-82.9733"/>
<polygon fill="midnightblue" stroke="midnightblue" points="1328.42,-86.257 1336.65,-79.5749 1326.05,-79.6713 1328.42,-86.257"/>
</g>
<!-- Node21&#45;&gt;Node16 -->
<g id="edge48" class="edge"><title>Node21&#45;&gt;Node16</title>
<path fill="none" stroke="midnightblue" d="M1322.21,-291.074C1354.06,-282.125 1395.24,-268.222 1405,-254 1416.54,-237.19 1401.65,-216.724 1387.07,-202.465"/>
<polygon fill="midnightblue" stroke="midnightblue" points="1389.35,-199.805 1379.61,-195.627 1384.62,-204.965 1389.35,-199.805"/>
</g>
<!-- Node21&#45;&gt;Node19 -->
<g id="edge50" class="edge"><title>Node21&#45;&gt;Node19</title>
<path fill="none" stroke="midnightblue" d="M1243.97,-296.027C1214.01,-290.392 1173.29,-278.559 1146,-254 1124.86,-234.979 1125.15,-223.762 1119,-196 1116.89,-186.453 1114.01,-182.41 1119,-174 1129.47,-156.343 1149.18,-144.889 1167.08,-137.714"/>
<polygon fill="midnightblue" stroke="midnightblue" points="1168.6,-140.887 1176.78,-134.156 1166.19,-134.316 1168.6,-140.887"/>
</g>
<!-- Node22 -->
<g id="node45" class="node"><title>Node22</title>
<polygon fill="none" stroke="#bfbfbf" points="1127.5,-174.5 1127.5,-195.5 1202.5,-195.5 1202.5,-174.5 1127.5,-174.5"/>
<text text-anchor="middle" x="1165" y="-182.5" font-family="Helvetica,sans-Serif" font-size="10.00">QPainterPath</text>
</g>
<!-- Node21&#45;&gt;Node22 -->
<g id="edge46" class="edge"><title>Node21&#45;&gt;Node22</title>
<path fill="none" stroke="midnightblue" d="M1243.81,-291.595C1210.77,-282.776 1167.25,-268.767 1157,-254 1147.26,-239.971 1150.74,-220.346 1155.8,-205.611"/>
<polygon fill="midnightblue" stroke="midnightblue" points="1159.22,-206.484 1159.6,-195.896 1152.7,-203.937 1159.22,-206.484"/>
</g>
<!-- Node23 -->
<g id="node49" class="node"><title>Node23</title>
<polygon fill="none" stroke="#bfbfbf" points="1293.5,-232.5 1293.5,-253.5 1396.5,-253.5 1396.5,-232.5 1293.5,-232.5"/>
<text text-anchor="middle" x="1345" y="-240.5" font-family="Helvetica,sans-Serif" font-size="10.00">QGraphicsPathItem</text>
</g>
<!-- Node21&#45;&gt;Node23 -->
<g id="edge52" class="edge"><title>Node21&#45;&gt;Node23</title>
<path fill="none" stroke="midnightblue" d="M1294.37,-290.362C1303.29,-282.023 1315.88,-270.242 1326.28,-260.516"/>
<polygon fill="midnightblue" stroke="midnightblue" points="1328.79,-262.958 1333.7,-253.571 1324.01,-257.846 1328.79,-262.958"/>
</g>
<!-- Node24 -->
<g id="node51" class="node"><title>Node24</title>
<a xlink:href="knot__curve__style_8hpp.html" target="_top" xlink:title="knot_curve_style.hpp">
<polygon fill="none" stroke="black" points="1166,-232.5 1166,-253.5 1276,-253.5 1276,-232.5 1166,-232.5"/>
<text text-anchor="middle" x="1221" y="-240.5" font-family="Helvetica,sans-Serif" font-size="10.00">knot_curve_style.hpp</text>
</a>
</g>
<!-- Node21&#45;&gt;Node24 -->
<g id="edge54" class="edge"><title>Node21&#45;&gt;Node24</title>
<path fill="none" stroke="midnightblue" d="M1271.63,-290.362C1262.71,-282.023 1250.12,-270.242 1239.72,-260.516"/>
<polygon fill="midnightblue" stroke="midnightblue" points="1241.99,-257.846 1232.3,-253.571 1237.21,-262.958 1241.99,-257.846"/>
</g>
<!-- Node24&#45;&gt;Node16 -->
<g id="edge56" class="edge"><title>Node24&#45;&gt;Node16</title>
<path fill="none" stroke="midnightblue" d="M1247.26,-232.497C1270.42,-223.234 1304.38,-209.65 1330.05,-199.379"/>
<polygon fill="midnightblue" stroke="midnightblue" points="1331.46,-202.585 1339.45,-195.621 1328.86,-196.086 1331.46,-202.585"/>
</g>
<!-- Node24&#45;&gt;Node22 -->
<g id="edge58" class="edge"><title>Node24&#45;&gt;Node22</title>
<path fill="none" stroke="midnightblue" d="M1210.73,-232.362C1202.76,-224.104 1191.53,-212.472 1182.19,-202.803"/>
<polygon fill="midnightblue" stroke="midnightblue" points="1184.67,-200.334 1175.21,-195.571 1179.63,-205.196 1184.67,-200.334"/>
</g>
<!-- Node25 -->
<g id="node55" class="node"><title>Node25</title>
<polygon fill="none" stroke="#bfbfbf" points="1219.5,-174.5 1219.5,-195.5 1262.5,-195.5 1262.5,-174.5 1219.5,-174.5"/>
<text text-anchor="middle" x="1241" y="-182.5" font-family="Helvetica,sans-Serif" font-size="10.00">QMap</text>
</g>
<!-- Node24&#45;&gt;Node25 -->
<g id="edge60" class="edge"><title>Node24&#45;&gt;Node25</title>
<path fill="none" stroke="midnightblue" d="M1224.67,-232.362C1227.29,-224.758 1230.9,-214.294 1234.06,-205.135"/>
<polygon fill="midnightblue" stroke="midnightblue" points="1237.4,-206.165 1237.35,-195.571 1230.79,-203.883 1237.4,-206.165"/>
</g>
<!-- Node26&#45;&gt;Node18 -->
<g id="edge64" class="edge"><title>Node26&#45;&gt;Node18</title>
<path fill="none" stroke="midnightblue" d="M1464.46,-116.295C1454.42,-96.8724 1433.05,-55.5561 1420.27,-30.8462"/>
<polygon fill="midnightblue" stroke="midnightblue" points="1423.23,-28.9534 1415.52,-21.6792 1417.01,-32.1694 1423.23,-28.9534"/>
</g>
</g>
</svg>
