<?xml version="1.0" encoding="UTF-8" standalone="no"?>
<!DOCTYPE svg PUBLIC "-//W3C//DTD SVG 1.1//EN"
 "http://www.w3.org/Graphics/SVG/1.1/DTD/svg11.dtd">
<!-- Generated by graphviz version 2.26.3 (20100126.1600)
 -->
<!-- Title: G Pages: 1 -->
<svg width="1905pt" height="146pt"
 viewBox="0.00 0.00 1905.00 146.00" xmlns="http://www.w3.org/2000/svg" xmlns:xlink="http://www.w3.org/1999/xlink">
<g id="graph1" class="graph" transform="scale(1 1) rotate(0) translate(4 142)">
<title>G</title>
<!-- Node1 -->
<g id="node1" class="node"><title>Node1</title>
<polygon fill="#bfbfbf" stroke="black" points="885.5,-116.5 885.5,-137.5 974.5,-137.5 974.5,-116.5 885.5,-116.5"/>
<text text-anchor="middle" x="930" y="-124.5" font-family="Helvetica,sans-Serif" font-size="10.00">ui_style_dialog.h</text>
</g>
<!-- Node2 -->
<g id="node3" class="node"><title>Node2</title>
<polygon fill="none" stroke="#bfbfbf" points="-0.5,-58.5 -0.5,-79.5 88.5,-79.5 88.5,-58.5 -0.5,-58.5"/>
<text text-anchor="middle" x="44" y="-66.5" font-family="Helvetica,sans-Serif" font-size="10.00">QtCore/QVariant</text>
</g>
<!-- Node1&#45;&gt;Node2 -->
<g id="edge2" class="edge"><title>Node1&#45;&gt;Node2</title>
<path fill="none" stroke="midnightblue" d="M885.41,-125.358C738.68,-119.822 270.903,-101.07 98.9054,-80.0622"/>
<polygon fill="midnightblue" stroke="midnightblue" points="99.1011,-76.559 88.74,-78.772 98.2197,-83.5033 99.1011,-76.559"/>
</g>
<!-- Node3 -->
<g id="node5" class="node"><title>Node3</title>
<polygon fill="none" stroke="#bfbfbf" points="106,-58.5 106,-79.5 186,-79.5 186,-58.5 106,-58.5"/>
<text text-anchor="middle" x="146" y="-66.5" font-family="Helvetica,sans-Serif" font-size="10.00">QtGui/QAction</text>
</g>
<!-- Node1&#45;&gt;Node3 -->
<g id="edge4" class="edge"><title>Node1&#45;&gt;Node3</title>
<path fill="none" stroke="midnightblue" d="M885.425,-126.581C771.931,-124.994 462.771,-117.427 196.275,-79.9801"/>
<polygon fill="midnightblue" stroke="midnightblue" points="196.41,-76.4641 186.017,-78.5207 195.424,-83.3943 196.41,-76.4641"/>
</g>
<!-- Node4 -->
<g id="node7" class="node"><title>Node4</title>
<polygon fill="none" stroke="#bfbfbf" points="203.5,-58.5 203.5,-79.5 304.5,-79.5 304.5,-58.5 203.5,-58.5"/>
<text text-anchor="middle" x="254" y="-66.5" font-family="Helvetica,sans-Serif" font-size="10.00">QtGui/QApplication</text>
</g>
<!-- Node1&#45;&gt;Node4 -->
<g id="edge6" class="edge"><title>Node1&#45;&gt;Node4</title>
<path fill="none" stroke="midnightblue" d="M885.309,-125.257C784.975,-120.987 534.054,-108.317 314.876,-80.1412"/>
<polygon fill="midnightblue" stroke="midnightblue" points="315.161,-76.6489 304.793,-78.8311 314.259,-83.5905 315.161,-76.6489"/>
</g>
<!-- Node5 -->
<g id="node9" class="node"><title>Node5</title>
<polygon fill="none" stroke="#bfbfbf" points="321.5,-58.5 321.5,-79.5 428.5,-79.5 428.5,-58.5 321.5,-58.5"/>
<text text-anchor="middle" x="375" y="-66.5" font-family="Helvetica,sans-Serif" font-size="10.00">QtGui/QButtonGroup</text>
</g>
<!-- Node1&#45;&gt;Node5 -->
<g id="edge8" class="edge"><title>Node1&#45;&gt;Node5</title>
<path fill="none" stroke="midnightblue" d="M885.334,-123.953C800.338,-117.892 609.288,-103.012 438.885,-80.1791"/>
<polygon fill="midnightblue" stroke="midnightblue" points="439.106,-76.6772 428.727,-78.8052 438.167,-83.6141 439.106,-76.6772"/>
</g>
<!-- Node6 -->
<g id="node11" class="node"><title>Node6</title>
<polygon fill="none" stroke="#bfbfbf" points="445.5,-58.5 445.5,-79.5 546.5,-79.5 546.5,-58.5 445.5,-58.5"/>
<text text-anchor="middle" x="496" y="-66.5" font-family="Helvetica,sans-Serif" font-size="10.00">QtGui/QComboBox</text>
</g>
<!-- Node1&#45;&gt;Node6 -->
<g id="edge10" class="edge"><title>Node1&#45;&gt;Node6</title>
<path fill="none" stroke="midnightblue" d="M885.431,-122.285C816.913,-114.845 681.358,-99.3724 556.901,-80.2358"/>
<polygon fill="midnightblue" stroke="midnightblue" points="557.234,-76.7457 546.816,-78.6731 556.162,-83.6631 557.234,-76.7457"/>
</g>
<!-- Node7 -->
<g id="node13" class="node"><title>Node7</title>
<polygon fill="none" stroke="#bfbfbf" points="564,-58.5 564,-79.5 644,-79.5 644,-58.5 564,-58.5"/>
<text text-anchor="middle" x="604" y="-66.5" font-family="Helvetica,sans-Serif" font-size="10.00">QtGui/QDialog</text>
</g>
<!-- Node1&#45;&gt;Node7 -->
<g id="edge12" class="edge"><title>Node1&#45;&gt;Node7</title>
<path fill="none" stroke="midnightblue" d="M885.25,-120.152C832.359,-111.892 741.466,-97.182 653.906,-80.1072"/>
<polygon fill="midnightblue" stroke="midnightblue" points="654.562,-76.6693 644.075,-78.1772 653.213,-83.5381 654.562,-76.6693"/>
</g>
<!-- Node8 -->
<g id="node15" class="node"><title>Node8</title>
<polygon fill="none" stroke="#bfbfbf" points="662,-58.5 662,-79.5 788,-79.5 788,-58.5 662,-58.5"/>
<text text-anchor="middle" x="725" y="-66.5" font-family="Helvetica,sans-Serif" font-size="10.00">QtGui/QDialogButtonBox</text>
</g>
<!-- Node1&#45;&gt;Node8 -->
<g id="edge14" class="edge"><title>Node1&#45;&gt;Node8</title>
<path fill="none" stroke="midnightblue" d="M892.876,-116.497C859.021,-106.918 808.836,-92.7196 772.156,-82.3418"/>
<polygon fill="midnightblue" stroke="midnightblue" points="772.769,-78.8777 762.194,-79.5231 770.863,-85.6133 772.769,-78.8777"/>
</g>
<!-- Node9 -->
<g id="node17" class="node"><title>Node9</title>
<polygon fill="none" stroke="#bfbfbf" points="806,-58.5 806,-79.5 926,-79.5 926,-58.5 806,-58.5"/>
<text text-anchor="middle" x="866" y="-66.5" font-family="Helvetica,sans-Serif" font-size="10.00">QtGui/QDoubleSpinBox</text>
</g>
<!-- Node1&#45;&gt;Node9 -->
<g id="edge16" class="edge"><title>Node1&#45;&gt;Node9</title>
<path fill="none" stroke="midnightblue" d="M918.261,-116.362C909.059,-108.023 896.06,-96.2418 885.328,-86.5162"/>
<polygon fill="midnightblue" stroke="midnightblue" points="887.424,-83.6924 877.664,-79.5707 882.724,-88.8793 887.424,-83.6924"/>
</g>
<!-- Node10 -->
<g id="node19" class="node"><title>Node10</title>
<polygon fill="none" stroke="#bfbfbf" points="944,-58.5 944,-79.5 1044,-79.5 1044,-58.5 944,-58.5"/>
<text text-anchor="middle" x="994" y="-66.5" font-family="Helvetica,sans-Serif" font-size="10.00">QtGui/QGridLayout</text>
</g>
<!-- Node1&#45;&gt;Node10 -->
<g id="edge18" class="edge"><title>Node1&#45;&gt;Node10</title>
<path fill="none" stroke="midnightblue" d="M941.739,-116.362C950.941,-108.023 963.94,-96.2418 974.672,-86.5162"/>
<polygon fill="midnightblue" stroke="midnightblue" points="977.276,-88.8793 982.336,-79.5707 972.576,-83.6924 977.276,-88.8793"/>
</g>
<!-- Node11 -->
<g id="node21" class="node"><title>Node11</title>
<polygon fill="none" stroke="#bfbfbf" points="1062,-58.5 1062,-79.5 1158,-79.5 1158,-58.5 1062,-58.5"/>
<text text-anchor="middle" x="1110" y="-66.5" font-family="Helvetica,sans-Serif" font-size="10.00">QtGui/QGroupBox</text>
</g>
<!-- Node1&#45;&gt;Node11 -->
<g id="edge20" class="edge"><title>Node1&#45;&gt;Node11</title>
<path fill="none" stroke="midnightblue" d="M962.597,-116.497C992.069,-107 1035.64,-92.9619 1067.77,-82.6087"/>
<polygon fill="midnightblue" stroke="midnightblue" points="1068.9,-85.9214 1077.34,-79.5231 1066.75,-79.2587 1068.9,-85.9214"/>
</g>
<!-- Node12 -->
<g id="node23" class="node"><title>Node12</title>
<polygon fill="none" stroke="#bfbfbf" points="1176,-58.5 1176,-79.5 1282,-79.5 1282,-58.5 1176,-58.5"/>
<text text-anchor="middle" x="1229" y="-66.5" font-family="Helvetica,sans-Serif" font-size="10.00">QtGui/QHeaderView</text>
</g>
<!-- Node1&#45;&gt;Node12 -->
<g id="edge22" class="edge"><title>Node1&#45;&gt;Node12</title>
<path fill="none" stroke="midnightblue" d="M974.763,-118.317C1025.48,-108.479 1108.51,-92.3723 1165.81,-81.257"/>
<polygon fill="midnightblue" stroke="midnightblue" points="1166.69,-84.6516 1175.84,-79.3113 1165.36,-77.7797 1166.69,-84.6516"/>
</g>
<!-- Node13 -->
<g id="node25" class="node"><title>Node13</title>
<polygon fill="none" stroke="#bfbfbf" points="1300,-58.5 1300,-79.5 1376,-79.5 1376,-58.5 1300,-58.5"/>
<text text-anchor="middle" x="1338" y="-66.5" font-family="Helvetica,sans-Serif" font-size="10.00">QtGui/QLabel</text>
</g>
<!-- Node1&#45;&gt;Node13 -->
<g id="edge24" class="edge"><title>Node1&#45;&gt;Node13</title>
<path fill="none" stroke="midnightblue" d="M974.684,-122.642C1041.24,-115.832 1170.51,-101.377 1289.81,-80.0797"/>
<polygon fill="midnightblue" stroke="midnightblue" points="1290.63,-83.4888 1299.85,-78.2674 1289.38,-76.6002 1290.63,-83.4888"/>
</g>
<!-- Node14 -->
<g id="node27" class="node"><title>Node14</title>
<polygon fill="none" stroke="#bfbfbf" points="1394,-58.5 1394,-79.5 1494,-79.5 1494,-58.5 1394,-58.5"/>
<text text-anchor="middle" x="1444" y="-66.5" font-family="Helvetica,sans-Serif" font-size="10.00">QtGui/QTabWidget</text>
</g>
<!-- Node1&#45;&gt;Node14 -->
<g id="edge26" class="edge"><title>Node1&#45;&gt;Node14</title>
<path fill="none" stroke="midnightblue" d="M974.712,-123.597C1054.67,-117.246 1227.64,-102.314 1383.59,-80.1131"/>
<polygon fill="midnightblue" stroke="midnightblue" points="1384.43,-83.5275 1393.83,-78.6403 1383.44,-76.5987 1384.43,-83.5275"/>
</g>
<!-- Node15 -->
<g id="node29" class="node"><title>Node15</title>
<polygon fill="none" stroke="#bfbfbf" points="1511.5,-58.5 1511.5,-79.5 1594.5,-79.5 1594.5,-58.5 1511.5,-58.5"/>
<text text-anchor="middle" x="1553" y="-66.5" font-family="Helvetica,sans-Serif" font-size="10.00">QtGui/QWidget</text>
</g>
<!-- Node1&#45;&gt;Node15 -->
<g id="edge28" class="edge"><title>Node1&#45;&gt;Node15</title>
<path fill="none" stroke="midnightblue" d="M974.814,-125.379C1070.06,-121.492 1299.77,-109.774 1501.16,-80.1231"/>
<polygon fill="midnightblue" stroke="midnightblue" points="1501.96,-83.5426 1511.34,-78.606 1500.93,-76.6191 1501.96,-83.5426"/>
</g>
<!-- Node16 -->
<g id="node31" class="node"><title>Node16</title>
<a xlink:href="color__widget_8hpp.html" target="_top" xlink:title="color_widget.hpp">
<polygon fill="none" stroke="black" points="1612,-58.5 1612,-79.5 1702,-79.5 1702,-58.5 1612,-58.5"/>
<text text-anchor="middle" x="1657" y="-66.5" font-family="Helvetica,sans-Serif" font-size="10.00">color_widget.hpp</text>
</a>
</g>
<!-- Node1&#45;&gt;Node16 -->
<g id="edge30" class="edge"><title>Node1&#45;&gt;Node16</title>
<path fill="none" stroke="midnightblue" d="M974.7,-125.904C1081.49,-122.853 1359.95,-112.334 1601.95,-79.9856"/>
<polygon fill="midnightblue" stroke="midnightblue" points="1602.55,-83.4362 1611.99,-78.6278 1601.62,-76.4994 1602.55,-83.4362"/>
</g>
<!-- Node22 -->
<g id="node43" class="node"><title>Node22</title>
<polygon fill="none" stroke="#bfbfbf" points="1720,-58.5 1720,-79.5 1834,-79.5 1834,-58.5 1720,-58.5"/>
<text text-anchor="middle" x="1777" y="-66.5" font-family="Helvetica,sans-Serif" font-size="10.00">graphics/knotview.hpp</text>
</g>
<!-- Node1&#45;&gt;Node22 -->
<g id="edge42" class="edge"><title>Node1&#45;&gt;Node22</title>
<path fill="none" stroke="midnightblue" d="M974.61,-125.955C1092.82,-122.837 1424.05,-111.826 1709.67,-80.0477"/>
<polygon fill="midnightblue" stroke="midnightblue" points="1710.27,-83.5031 1719.81,-78.9085 1709.49,-76.5469 1710.27,-83.5031"/>
</g>
<!-- Node17 -->
<g id="node33" class="node"><title>Node17</title>
<polygon fill="none" stroke="#bfbfbf" points="1452.5,-0.5 1452.5,-21.5 1511.5,-21.5 1511.5,-0.5 1452.5,-0.5"/>
<text text-anchor="middle" x="1482" y="-8.5" font-family="Helvetica,sans-Serif" font-size="10.00">QLineEdit</text>
</g>
<!-- Node16&#45;&gt;Node17 -->
<g id="edge32" class="edge"><title>Node16&#45;&gt;Node17</title>
<path fill="none" stroke="midnightblue" d="M1625.31,-58.4966C1596.16,-48.8349 1552.82,-34.472 1521.44,-24.0716"/>
<polygon fill="midnightblue" stroke="midnightblue" points="1522.3,-20.6688 1511.7,-20.8451 1520.1,-27.3134 1522.3,-20.6688"/>
</g>
<!-- Node18 -->
<g id="node35" class="node"><title>Node18</title>
<polygon fill="none" stroke="#bfbfbf" points="1528.5,-0.5 1528.5,-21.5 1603.5,-21.5 1603.5,-0.5 1528.5,-0.5"/>
<text text-anchor="middle" x="1566" y="-8.5" font-family="Helvetica,sans-Serif" font-size="10.00">QColorDialog</text>
</g>
<!-- Node16&#45;&gt;Node18 -->
<g id="edge34" class="edge"><title>Node16&#45;&gt;Node18</title>
<path fill="none" stroke="midnightblue" d="M1640.31,-58.3619C1626.58,-49.6138 1606.92,-37.0786 1591.26,-27.1015"/>
<polygon fill="midnightblue" stroke="midnightblue" points="1592.9,-23.994 1582.58,-21.5707 1589.14,-29.8969 1592.9,-23.994"/>
</g>
<!-- Node19 -->
<g id="node37" class="node"><title>Node19</title>
<polygon fill="none" stroke="#bfbfbf" points="1621,-0.5 1621,-21.5 1693,-21.5 1693,-0.5 1621,-0.5"/>
<text text-anchor="middle" x="1657" y="-8.5" font-family="Helvetica,sans-Serif" font-size="10.00">QPaintEvent</text>
</g>
<!-- Node16&#45;&gt;Node19 -->
<g id="edge36" class="edge"><title>Node16&#45;&gt;Node19</title>
<path fill="none" stroke="midnightblue" d="M1657,-58.3619C1657,-50.9219 1657,-40.7427 1657,-31.7276"/>
<polygon fill="midnightblue" stroke="midnightblue" points="1660.5,-31.5706 1657,-21.5707 1653.5,-31.5707 1660.5,-31.5706"/>
</g>
<!-- Node20 -->
<g id="node39" class="node"><title>Node20</title>
<polygon fill="none" stroke="#bfbfbf" points="1710.5,-0.5 1710.5,-21.5 1765.5,-21.5 1765.5,-0.5 1710.5,-0.5"/>
<text text-anchor="middle" x="1738" y="-8.5" font-family="Helvetica,sans-Serif" font-size="10.00">QPainter</text>
</g>
<!-- Node16&#45;&gt;Node20 -->
<g id="edge38" class="edge"><title>Node16&#45;&gt;Node20</title>
<path fill="none" stroke="midnightblue" d="M1671.86,-58.3619C1683.85,-49.7773 1700.93,-37.5459 1714.73,-27.6636"/>
<polygon fill="midnightblue" stroke="midnightblue" points="1717.14,-30.2383 1723.24,-21.5707 1713.07,-24.5469 1717.14,-30.2383"/>
</g>
<!-- Node21 -->
<g id="node41" class="node"><title>Node21</title>
<polygon fill="none" stroke="#bfbfbf" points="1782.5,-0.5 1782.5,-21.5 1897.5,-21.5 1897.5,-0.5 1782.5,-0.5"/>
<text text-anchor="middle" x="1840" y="-8.5" font-family="Helvetica,sans-Serif" font-size="10.00">QStyleOptionFrameV3</text>
</g>
<!-- Node16&#45;&gt;Node21 -->
<g id="edge40" class="edge"><title>Node16&#45;&gt;Node21</title>
<path fill="none" stroke="midnightblue" d="M1690.14,-58.4966C1720.1,-49.0001 1764.4,-34.9619 1797.06,-24.6087"/>
<polygon fill="midnightblue" stroke="midnightblue" points="1798.32,-27.8809 1806.8,-21.5231 1796.21,-21.208 1798.32,-27.8809"/>
</g>
</g>
</svg>
