<?xml version="1.0" encoding="UTF-8" standalone="no"?>
<!DOCTYPE svg PUBLIC "-//W3C//DTD SVG 1.1//EN"
 "http://www.w3.org/Graphics/SVG/1.1/DTD/svg11.dtd">
<!-- Generated by graphviz version 2.26.3 (20100126.1600)
 -->
<!-- Title: G Pages: 1 -->
<svg width="308pt" height="146pt"
 viewBox="0.00 0.00 308.00 146.00" xmlns="http://www.w3.org/2000/svg" xmlns:xlink="http://www.w3.org/1999/xlink">
<g id="graph1" class="graph" transform="scale(1 1) rotate(0) translate(4 142)">
<title>G</title>
<!-- Node1 -->
<g id="node1" class="node"><title>Node1</title>
<polygon fill="#bfbfbf" stroke="black" points="90.5,-116.5 90.5,-137.5 185.5,-137.5 185.5,-116.5 90.5,-116.5"/>
<text text-anchor="middle" x="138" y="-124.5" font-family="Helvetica,sans-Serif" font-size="10.00">ui_knot_window.h</text>
</g>
<!-- Node2 -->
<g id="node3" class="node"><title>Node2</title>
<a xlink:href="knot__window_8hpp.html" target="_top" xlink:title="knot_window.hpp">
<polygon fill="none" stroke="black" points="92,-58.5 92,-79.5 184,-79.5 184,-58.5 92,-58.5"/>
<text text-anchor="middle" x="138" y="-66.5" font-family="Helvetica,sans-Serif" font-size="10.00">knot_window.hpp</text>
</a>
</g>
<!-- Node1&#45;&gt;Node2 -->
<g id="edge2" class="edge"><title>Node1&#45;&gt;Node2</title>
<path fill="none" stroke="midnightblue" d="M138,-106.191C138,-97.1684 138,-86.9941 138,-79.5707"/>
<polygon fill="midnightblue" stroke="midnightblue" points="134.5,-106.362 138,-116.362 141.5,-106.362 134.5,-106.362"/>
</g>
<!-- Node3 -->
<g id="node5" class="node"><title>Node3</title>
<a xlink:href="knot__window_8cpp.html" target="_top" xlink:title="knot_window.cpp">
<polygon fill="none" stroke="black" points="0,-0.5 0,-21.5 92,-21.5 92,-0.5 0,-0.5"/>
<text text-anchor="middle" x="46" y="-8.5" font-family="Helvetica,sans-Serif" font-size="10.00">knot_window.cpp</text>
</a>
</g>
<!-- Node2&#45;&gt;Node3 -->
<g id="edge4" class="edge"><title>Node2&#45;&gt;Node3</title>
<path fill="none" stroke="midnightblue" d="M112.338,-52.8215C96.4909,-42.8312 76.6126,-30.2993 62.7672,-21.5707"/>
<polygon fill="midnightblue" stroke="midnightblue" points="110.8,-55.9896 121.126,-58.3619 114.533,-50.0681 110.8,-55.9896"/>
</g>
<!-- Node4 -->
<g id="node7" class="node"><title>Node4</title>
<a xlink:href="main_8cpp.html" target="_top" xlink:title="main.cpp">
<polygon fill="none" stroke="black" points="110,-0.5 110,-21.5 166,-21.5 166,-0.5 110,-0.5"/>
<text text-anchor="middle" x="138" y="-8.5" font-family="Helvetica,sans-Serif" font-size="10.00">main.cpp</text>
</a>
</g>
<!-- Node2&#45;&gt;Node4 -->
<g id="edge6" class="edge"><title>Node2&#45;&gt;Node4</title>
<path fill="none" stroke="midnightblue" d="M138,-48.1906C138,-39.1684 138,-28.9941 138,-21.5707"/>
<polygon fill="midnightblue" stroke="midnightblue" points="134.5,-48.3619 138,-58.3619 141.5,-48.3619 134.5,-48.3619"/>
</g>
<!-- Node5 -->
<g id="node9" class="node"><title>Node5</title>
<a xlink:href="moc__knot__window_8cpp.html" target="_top" xlink:title="moc_knot_window.cpp">
<polygon fill="none" stroke="black" points="184,-0.5 184,-21.5 300,-21.5 300,-0.5 184,-0.5"/>
<text text-anchor="middle" x="242" y="-8.5" font-family="Helvetica,sans-Serif" font-size="10.00">moc_knot_window.cpp</text>
</a>
</g>
<!-- Node2&#45;&gt;Node5 -->
<g id="edge8" class="edge"><title>Node2&#45;&gt;Node5</title>
<path fill="none" stroke="midnightblue" d="M166.01,-53.379C184.081,-43.3011 207.102,-30.4624 223.046,-21.5707"/>
<polygon fill="midnightblue" stroke="midnightblue" points="164.104,-50.4344 157.075,-58.3619 167.514,-56.548 164.104,-50.4344"/>
</g>
</g>
</svg>
