<?xml version="1.0" encoding="UTF-8" standalone="no"?>
<!DOCTYPE svg PUBLIC "-//W3C//DTD SVG 1.1//EN"
 "http://www.w3.org/Graphics/SVG/1.1/DTD/svg11.dtd">
<!-- Generated by graphviz version 2.26.3 (20100126.1600)
 -->
<!-- Title: G Pages: 1 -->
<svg width="234pt" height="146pt"
 viewBox="0.00 0.00 234.00 146.00" xmlns="http://www.w3.org/2000/svg" xmlns:xlink="http://www.w3.org/1999/xlink">
<g id="graph1" class="graph" transform="scale(1 1) rotate(0) translate(4 142)">
<title>G</title>
<!-- Node1 -->
<g id="node1" class="node"><title>Node1</title>
<polygon fill="#bfbfbf" stroke="black" points="59.5,-116.5 59.5,-137.5 154.5,-137.5 154.5,-116.5 59.5,-116.5"/>
<text text-anchor="middle" x="107" y="-124.5" font-family="Helvetica,sans-Serif" font-size="10.00">ui_config_dialog.h</text>
</g>
<!-- Node2 -->
<g id="node3" class="node"><title>Node2</title>
<a xlink:href="config__dialog_8hpp.html" target="_top" xlink:title="config_dialog.hpp">
<polygon fill="none" stroke="black" points="61,-58.5 61,-79.5 153,-79.5 153,-58.5 61,-58.5"/>
<text text-anchor="middle" x="107" y="-66.5" font-family="Helvetica,sans-Serif" font-size="10.00">config_dialog.hpp</text>
</a>
</g>
<!-- Node1&#45;&gt;Node2 -->
<g id="edge2" class="edge"><title>Node1&#45;&gt;Node2</title>
<path fill="none" stroke="midnightblue" d="M107,-106.191C107,-97.1684 107,-86.9941 107,-79.5707"/>
<polygon fill="midnightblue" stroke="midnightblue" points="103.5,-106.362 107,-116.362 110.5,-106.362 103.5,-106.362"/>
</g>
<!-- Node3 -->
<g id="node5" class="node"><title>Node3</title>
<a xlink:href="config__dialog_8cpp.html" target="_top" xlink:title="config_dialog.cpp">
<polygon fill="none" stroke="black" points="0,-0.5 0,-21.5 92,-21.5 92,-0.5 0,-0.5"/>
<text text-anchor="middle" x="46" y="-8.5" font-family="Helvetica,sans-Serif" font-size="10.00">config_dialog.cpp</text>
</a>
</g>
<!-- Node2&#45;&gt;Node3 -->
<g id="edge4" class="edge"><title>Node2&#45;&gt;Node3</title>
<path fill="none" stroke="midnightblue" d="M88.4949,-51.405C78.2546,-41.6683 65.8685,-29.8914 57.1174,-21.5707"/>
<polygon fill="midnightblue" stroke="midnightblue" points="86.1529,-54.0077 95.8117,-58.3619 90.9763,-48.9348 86.1529,-54.0077"/>
</g>
<!-- Node4 -->
<g id="node7" class="node"><title>Node4</title>
<a xlink:href="moc__config__dialog_8cpp.html" target="_top" xlink:title="moc_config_dialog.cpp">
<polygon fill="none" stroke="black" points="110,-0.5 110,-21.5 226,-21.5 226,-0.5 110,-0.5"/>
<text text-anchor="middle" x="168" y="-8.5" font-family="Helvetica,sans-Serif" font-size="10.00">moc_config_dialog.cpp</text>
</a>
</g>
<!-- Node2&#45;&gt;Node4 -->
<g id="edge6" class="edge"><title>Node2&#45;&gt;Node4</title>
<path fill="none" stroke="midnightblue" d="M125.505,-51.405C135.745,-41.6683 148.131,-29.8914 156.883,-21.5707"/>
<polygon fill="midnightblue" stroke="midnightblue" points="123.024,-48.9348 118.188,-58.3619 127.847,-54.0077 123.024,-48.9348"/>
</g>
</g>
</svg>
