<?xml version="1.0" encoding="UTF-8" standalone="no"?>
<!DOCTYPE svg PUBLIC "-//W3C//DTD SVG 1.1//EN"
 "http://www.w3.org/Graphics/SVG/1.1/DTD/svg11.dtd">
<!-- Generated by graphviz version 2.26.3 (20100126.1600)
 -->
<!-- Title: G Pages: 1 -->
<svg width="1640pt" height="436pt"
 viewBox="0.00 0.00 1640.00 436.00" xmlns="http://www.w3.org/2000/svg" xmlns:xlink="http://www.w3.org/1999/xlink">
<g id="graph1" class="graph" transform="scale(1 1) rotate(0) translate(4 432)">
<title>G</title>
<!-- Node1 -->
<g id="node1" class="node"><title>Node1</title>
<polygon fill="#bfbfbf" stroke="black" points="694.5,-406.5 694.5,-427.5 789.5,-427.5 789.5,-406.5 694.5,-406.5"/>
<text text-anchor="middle" x="742" y="-414.5" font-family="Helvetica,sans-Serif" font-size="10.00">ui_knot_window.h</text>
</g>
<!-- Node2 -->
<g id="node3" class="node"><title>Node2</title>
<polygon fill="none" stroke="#bfbfbf" points="-0.5,-348.5 -0.5,-369.5 88.5,-369.5 88.5,-348.5 -0.5,-348.5"/>
<text text-anchor="middle" x="44" y="-356.5" font-family="Helvetica,sans-Serif" font-size="10.00">QtCore/QVariant</text>
</g>
<!-- Node1&#45;&gt;Node2 -->
<g id="edge2" class="edge"><title>Node1&#45;&gt;Node2</title>
<path fill="none" stroke="midnightblue" d="M694.435,-415.68C588.873,-412.29 326.94,-401.332 98.8945,-370.125"/>
<polygon fill="midnightblue" stroke="midnightblue" points="99.1326,-366.625 88.747,-368.72 98.1724,-373.559 99.1326,-366.625"/>
</g>
<!-- Node3 -->
<g id="node5" class="node"><title>Node3</title>
<polygon fill="none" stroke="#bfbfbf" points="106,-348.5 106,-369.5 186,-369.5 186,-348.5 106,-348.5"/>
<text text-anchor="middle" x="146" y="-356.5" font-family="Helvetica,sans-Serif" font-size="10.00">QtGui/QAction</text>
</g>
<!-- Node1&#45;&gt;Node3 -->
<g id="edge4" class="edge"><title>Node1&#45;&gt;Node3</title>
<path fill="none" stroke="midnightblue" d="M694.183,-415.066C600.458,-410.806 385.93,-398.738 196.188,-370.007"/>
<polygon fill="midnightblue" stroke="midnightblue" points="196.442,-366.505 186.027,-368.448 195.381,-373.424 196.442,-366.505"/>
</g>
<!-- Node4 -->
<g id="node7" class="node"><title>Node4</title>
<polygon fill="none" stroke="#bfbfbf" points="203.5,-348.5 203.5,-369.5 304.5,-369.5 304.5,-348.5 203.5,-348.5"/>
<text text-anchor="middle" x="254" y="-356.5" font-family="Helvetica,sans-Serif" font-size="10.00">QtGui/QApplication</text>
</g>
<!-- Node1&#45;&gt;Node4 -->
<g id="edge6" class="edge"><title>Node1&#45;&gt;Node4</title>
<path fill="none" stroke="midnightblue" d="M694.238,-412.949C616.72,-406.117 458.504,-391.1 315.106,-370.236"/>
<polygon fill="midnightblue" stroke="midnightblue" points="315.211,-366.714 304.808,-368.724 314.193,-373.639 315.211,-366.714"/>
</g>
<!-- Node5 -->
<g id="node9" class="node"><title>Node5</title>
<polygon fill="none" stroke="#bfbfbf" points="321.5,-348.5 321.5,-369.5 428.5,-369.5 428.5,-348.5 321.5,-348.5"/>
<text text-anchor="middle" x="375" y="-356.5" font-family="Helvetica,sans-Serif" font-size="10.00">QtGui/QButtonGroup</text>
</g>
<!-- Node1&#45;&gt;Node5 -->
<g id="edge8" class="edge"><title>Node1&#45;&gt;Node5</title>
<path fill="none" stroke="midnightblue" d="M694.4,-410.007C636.336,-401.4 534.928,-386.124 438.655,-370.252"/>
<polygon fill="midnightblue" stroke="midnightblue" points="439.193,-366.793 428.756,-368.614 438.05,-373.699 439.193,-366.793"/>
</g>
<!-- Node6 -->
<g id="node11" class="node"><title>Node6</title>
<polygon fill="none" stroke="#bfbfbf" points="446,-348.5 446,-369.5 546,-369.5 546,-348.5 446,-348.5"/>
<text text-anchor="middle" x="496" y="-356.5" font-family="Helvetica,sans-Serif" font-size="10.00">QtGui/QGridLayout</text>
</g>
<!-- Node1&#45;&gt;Node6 -->
<g id="edge10" class="edge"><title>Node1&#45;&gt;Node6</title>
<path fill="none" stroke="midnightblue" d="M697.451,-406.497C656.218,-396.775 594.798,-382.294 550.624,-371.879"/>
<polygon fill="midnightblue" stroke="midnightblue" points="551.169,-368.411 540.632,-369.523 549.562,-375.225 551.169,-368.411"/>
</g>
<!-- Node7 -->
<g id="node13" class="node"><title>Node7</title>
<polygon fill="none" stroke="#bfbfbf" points="564,-348.5 564,-369.5 670,-369.5 670,-348.5 564,-348.5"/>
<text text-anchor="middle" x="617" y="-356.5" font-family="Helvetica,sans-Serif" font-size="10.00">QtGui/QHeaderView</text>
</g>
<!-- Node1&#45;&gt;Node7 -->
<g id="edge12" class="edge"><title>Node1&#45;&gt;Node7</title>
<path fill="none" stroke="midnightblue" d="M719.363,-406.497C699.752,-397.397 671.154,-384.127 649.167,-373.925"/>
<polygon fill="midnightblue" stroke="midnightblue" points="650.435,-370.655 639.891,-369.621 647.488,-377.005 650.435,-370.655"/>
</g>
<!-- Node8 -->
<g id="node15" class="node"><title>Node8</title>
<polygon fill="none" stroke="#bfbfbf" points="687.5,-348.5 687.5,-369.5 796.5,-369.5 796.5,-348.5 687.5,-348.5"/>
<text text-anchor="middle" x="742" y="-356.5" font-family="Helvetica,sans-Serif" font-size="10.00">QtGui/QMainWindow</text>
</g>
<!-- Node1&#45;&gt;Node8 -->
<g id="edge14" class="edge"><title>Node1&#45;&gt;Node8</title>
<path fill="none" stroke="midnightblue" d="M742,-406.362C742,-398.922 742,-388.743 742,-379.728"/>
<polygon fill="midnightblue" stroke="midnightblue" points="745.5,-379.571 742,-369.571 738.5,-379.571 745.5,-379.571"/>
</g>
<!-- Node9 -->
<g id="node17" class="node"><title>Node9</title>
<polygon fill="none" stroke="#bfbfbf" points="813.5,-348.5 813.5,-369.5 890.5,-369.5 890.5,-348.5 813.5,-348.5"/>
<text text-anchor="middle" x="852" y="-356.5" font-family="Helvetica,sans-Serif" font-size="10.00">QtGui/QMenu</text>
</g>
<!-- Node1&#45;&gt;Node9 -->
<g id="edge16" class="edge"><title>Node1&#45;&gt;Node9</title>
<path fill="none" stroke="midnightblue" d="M761.92,-406.497C778.946,-397.519 803.669,-384.484 822.909,-374.339"/>
<polygon fill="midnightblue" stroke="midnightblue" points="824.643,-377.381 831.856,-369.621 821.378,-371.189 824.643,-377.381"/>
</g>
<!-- Node10 -->
<g id="node19" class="node"><title>Node10</title>
<polygon fill="none" stroke="#bfbfbf" points="908,-348.5 908,-369.5 1000,-369.5 1000,-348.5 908,-348.5"/>
<text text-anchor="middle" x="954" y="-356.5" font-family="Helvetica,sans-Serif" font-size="10.00">QtGui/QMenuBar</text>
</g>
<!-- Node1&#45;&gt;Node10 -->
<g id="edge18" class="edge"><title>Node1&#45;&gt;Node10</title>
<path fill="none" stroke="midnightblue" d="M780.392,-406.497C815.552,-396.877 867.745,-382.598 905.719,-372.209"/>
<polygon fill="midnightblue" stroke="midnightblue" points="906.814,-375.538 915.536,-369.523 904.967,-368.786 906.814,-375.538"/>
</g>
<!-- Node11 -->
<g id="node21" class="node"><title>Node11</title>
<polygon fill="none" stroke="#bfbfbf" points="1018,-348.5 1018,-369.5 1114,-369.5 1114,-348.5 1018,-348.5"/>
<text text-anchor="middle" x="1066" y="-356.5" font-family="Helvetica,sans-Serif" font-size="10.00">QtGui/QStatusBar</text>
</g>
<!-- Node1&#45;&gt;Node11 -->
<g id="edge20" class="edge"><title>Node1&#45;&gt;Node11</title>
<path fill="none" stroke="midnightblue" d="M789.792,-408.83C841.161,-399.995 925.487,-385.334 1007.78,-370.205"/>
<polygon fill="midnightblue" stroke="midnightblue" points="1008.61,-373.612 1017.81,-368.358 1007.34,-366.728 1008.61,-373.612"/>
</g>
<!-- Node12 -->
<g id="node23" class="node"><title>Node12</title>
<polygon fill="none" stroke="#bfbfbf" points="1132,-348.5 1132,-369.5 1218,-369.5 1218,-348.5 1132,-348.5"/>
<text text-anchor="middle" x="1175" y="-356.5" font-family="Helvetica,sans-Serif" font-size="10.00">QtGui/QToolBar</text>
</g>
<!-- Node1&#45;&gt;Node12 -->
<g id="edge22" class="edge"><title>Node1&#45;&gt;Node12</title>
<path fill="none" stroke="midnightblue" d="M789.707,-412.442C860.138,-405.421 996.269,-390.741 1121.75,-370.099"/>
<polygon fill="midnightblue" stroke="midnightblue" points="1122.63,-373.501 1131.92,-368.409 1121.49,-366.596 1122.63,-373.501"/>
</g>
<!-- Node13 -->
<g id="node25" class="node"><title>Node13</title>
<polygon fill="none" stroke="#bfbfbf" points="1235.5,-348.5 1235.5,-369.5 1318.5,-369.5 1318.5,-348.5 1235.5,-348.5"/>
<text text-anchor="middle" x="1277" y="-356.5" font-family="Helvetica,sans-Serif" font-size="10.00">QtGui/QWidget</text>
</g>
<!-- Node1&#45;&gt;Node13 -->
<g id="edge24" class="edge"><title>Node1&#45;&gt;Node13</title>
<path fill="none" stroke="midnightblue" d="M789.741,-414.279C875.187,-408.996 1060.03,-395.691 1224.99,-370.178"/>
<polygon fill="midnightblue" stroke="midnightblue" points="1225.99,-373.565 1235.33,-368.559 1224.91,-366.649 1225.99,-373.565"/>
</g>
<!-- Node14 -->
<g id="node27" class="node"><title>Node14</title>
<a xlink:href="knotview_8hpp.html" target="_top" xlink:title="knotview.hpp">
<polygon fill="none" stroke="black" points="1336,-348.5 1336,-369.5 1410,-369.5 1410,-348.5 1336,-348.5"/>
<text text-anchor="middle" x="1373" y="-356.5" font-family="Helvetica,sans-Serif" font-size="10.00">knotview.hpp</text>
</a>
</g>
<!-- Node1&#45;&gt;Node14 -->
<g id="edge26" class="edge"><title>Node1&#45;&gt;Node14</title>
<path fill="none" stroke="midnightblue" d="M789.688,-415.664C888.194,-412.366 1121.34,-401.781 1325.91,-369.962"/>
<polygon fill="midnightblue" stroke="midnightblue" points="1326.61,-373.396 1335.94,-368.382 1325.52,-366.481 1326.61,-373.396"/>
</g>
<!-- Node15 -->
<g id="node29" class="node"><title>Node15</title>
<polygon fill="none" stroke="#bfbfbf" points="1019.5,-290.5 1019.5,-311.5 1104.5,-311.5 1104.5,-290.5 1019.5,-290.5"/>
<text text-anchor="middle" x="1062" y="-298.5" font-family="Helvetica,sans-Serif" font-size="10.00">QGraphicsView</text>
</g>
<!-- Node14&#45;&gt;Node15 -->
<g id="edge28" class="edge"><title>Node14&#45;&gt;Node15</title>
<path fill="none" stroke="midnightblue" d="M1335.89,-349.91C1332.89,-349.24 1329.9,-348.595 1327,-348 1234.67,-329.029 1210.7,-329.085 1118,-312 1116.93,-311.802 1115.85,-311.602 1114.75,-311.398"/>
<polygon fill="midnightblue" stroke="midnightblue" points="1115.26,-307.932 1104.79,-309.511 1113.96,-314.81 1115.26,-307.932"/>
</g>
<!-- Node16 -->
<g id="node31" class="node"><title>Node16</title>
<a xlink:href="node_8hpp.html" target="_top" xlink:title="node.hpp">
<polygon fill="none" stroke="black" points="1258,-174.5 1258,-195.5 1314,-195.5 1314,-174.5 1258,-174.5"/>
<text text-anchor="middle" x="1286" y="-182.5" font-family="Helvetica,sans-Serif" font-size="10.00">node.hpp</text>
</a>
</g>
<!-- Node14&#45;&gt;Node16 -->
<g id="edge30" class="edge"><title>Node14&#45;&gt;Node16</title>
<path fill="none" stroke="midnightblue" d="M1345.83,-348.362C1297.02,-328.629 1197.77,-285.502 1179,-254 1160.31,-222.624 1210.32,-203.006 1248.14,-193.038"/>
<polygon fill="midnightblue" stroke="midnightblue" points="1249.07,-196.413 1257.92,-190.596 1247.37,-189.621 1249.07,-196.413"/>
</g>
<!-- Node19 -->
<g id="node37" class="node"><title>Node19</title>
<a xlink:href="edge_8hpp.html" target="_top" xlink:title="edge.hpp">
<polygon fill="none" stroke="black" points="1428,-116.5 1428,-137.5 1484,-137.5 1484,-116.5 1428,-116.5"/>
<text text-anchor="middle" x="1456" y="-124.5" font-family="Helvetica,sans-Serif" font-size="10.00">edge.hpp</text>
</a>
</g>
<!-- Node14&#45;&gt;Node19 -->
<g id="edge40" class="edge"><title>Node14&#45;&gt;Node19</title>
<path fill="none" stroke="midnightblue" d="M1387.13,-348.422C1409.16,-331.157 1451.49,-294.736 1474,-254 1491.54,-222.263 1501.17,-208.497 1490,-174 1486.64,-163.618 1480.03,-153.604 1473.53,-145.507"/>
<polygon fill="midnightblue" stroke="midnightblue" points="1476.1,-143.131 1466.93,-137.827 1470.79,-147.693 1476.1,-143.131"/>
</g>
<!-- Node20 -->
<g id="node41" class="node"><title>Node20</title>
<polygon fill="none" stroke="#bfbfbf" points="1559.5,-290.5 1559.5,-311.5 1632.5,-311.5 1632.5,-290.5 1559.5,-290.5"/>
<text text-anchor="middle" x="1596" y="-298.5" font-family="Helvetica,sans-Serif" font-size="10.00">QUndoStack</text>
</g>
<!-- Node14&#45;&gt;Node20 -->
<g id="edge42" class="edge"><title>Node14&#45;&gt;Node20</title>
<path fill="none" stroke="midnightblue" d="M1410.07,-349.357C1448.29,-339.418 1507.97,-323.896 1549.36,-313.129"/>
<polygon fill="midnightblue" stroke="midnightblue" points="1550.41,-316.474 1559.21,-310.569 1548.65,-309.699 1550.41,-316.474"/>
</g>
<!-- Node21 -->
<g id="node43" class="node"><title>Node21</title>
<a xlink:href="knotgraph_8hpp.html" target="_top" xlink:title="knotgraph.hpp">
<polygon fill="none" stroke="black" points="1334,-290.5 1334,-311.5 1412,-311.5 1412,-290.5 1334,-290.5"/>
<text text-anchor="middle" x="1373" y="-298.5" font-family="Helvetica,sans-Serif" font-size="10.00">knotgraph.hpp</text>
</a>
</g>
<!-- Node14&#45;&gt;Node21 -->
<g id="edge44" class="edge"><title>Node14&#45;&gt;Node21</title>
<path fill="none" stroke="midnightblue" d="M1373,-348.362C1373,-340.922 1373,-330.743 1373,-321.728"/>
<polygon fill="midnightblue" stroke="midnightblue" points="1376.5,-321.571 1373,-311.571 1369.5,-321.571 1376.5,-321.571"/>
</g>
<!-- Node17 -->
<g id="node33" class="node"><title>Node17</title>
<a xlink:href="custom__item_8hpp.html" target="_top" xlink:title="custom_item.hpp">
<polygon fill="none" stroke="black" points="1363,-58.5 1363,-79.5 1455,-79.5 1455,-58.5 1363,-58.5"/>
<text text-anchor="middle" x="1409" y="-66.5" font-family="Helvetica,sans-Serif" font-size="10.00">custom_item.hpp</text>
</a>
</g>
<!-- Node16&#45;&gt;Node17 -->
<g id="edge32" class="edge"><title>Node16&#45;&gt;Node17</title>
<path fill="none" stroke="midnightblue" d="M1297.35,-174.295C1318.59,-154.268 1364.5,-110.964 1390.35,-86.5893"/>
<polygon fill="midnightblue" stroke="midnightblue" points="1392.8,-89.0865 1397.68,-79.6792 1388,-83.994 1392.8,-89.0865"/>
</g>
<!-- Node16&#45;&gt;Node19 -->
<g id="edge36" class="edge"><title>Node16&#45;&gt;Node19</title>
<path fill="none" stroke="midnightblue" d="M1314.07,-175.422C1342.49,-165.725 1386.63,-150.666 1418.14,-139.918"/>
<polygon fill="midnightblue" stroke="midnightblue" points="1419.55,-143.133 1427.89,-136.592 1417.29,-136.508 1419.55,-143.133"/>
</g>
<!-- Node18 -->
<g id="node35" class="node"><title>Node18</title>
<polygon fill="none" stroke="#bfbfbf" points="1367.5,-0.5 1367.5,-21.5 1450.5,-21.5 1450.5,-0.5 1367.5,-0.5"/>
<text text-anchor="middle" x="1409" y="-8.5" font-family="Helvetica,sans-Serif" font-size="10.00">QGraphicsItem</text>
</g>
<!-- Node17&#45;&gt;Node18 -->
<g id="edge34" class="edge"><title>Node17&#45;&gt;Node18</title>
<path fill="none" stroke="midnightblue" d="M1409,-58.3619C1409,-50.9219 1409,-40.7427 1409,-31.7276"/>
<polygon fill="midnightblue" stroke="midnightblue" points="1412.5,-31.5706 1409,-21.5707 1405.5,-31.5707 1412.5,-31.5706"/>
</g>
<!-- Node19&#45;&gt;Node17 -->
<g id="edge38" class="edge"><title>Node19&#45;&gt;Node17</title>
<path fill="none" stroke="midnightblue" d="M1447.38,-116.362C1440.82,-108.268 1431.63,-96.9318 1423.89,-87.3796"/>
<polygon fill="midnightblue" stroke="midnightblue" points="1426.58,-85.1364 1417.57,-79.5707 1421.14,-89.5436 1426.58,-85.1364"/>
</g>
<!-- Node21&#45;&gt;Node16 -->
<g id="edge48" class="edge"><title>Node21&#45;&gt;Node16</title>
<path fill="none" stroke="midnightblue" d="M1333.87,-296.595C1285.28,-290.225 1206.59,-276.654 1189,-254 1168.43,-227.519 1212.9,-206.889 1248.22,-195.33"/>
<polygon fill="midnightblue" stroke="midnightblue" points="1249.38,-198.635 1257.88,-192.313 1247.3,-191.953 1249.38,-198.635"/>
</g>
<!-- Node21&#45;&gt;Node19 -->
<g id="edge50" class="edge"><title>Node21&#45;&gt;Node19</title>
<path fill="none" stroke="midnightblue" d="M1400.7,-290.389C1417.81,-282.599 1439.08,-270.494 1453,-254 1476.79,-225.822 1482.04,-210.197 1475,-174 1473.21,-164.787 1469.61,-155.094 1466.03,-146.919"/>
<polygon fill="midnightblue" stroke="midnightblue" points="1469.18,-145.412 1461.78,-137.836 1462.84,-148.377 1469.18,-145.412"/>
</g>
<!-- Node22 -->
<g id="node45" class="node"><title>Node22</title>
<polygon fill="none" stroke="#bfbfbf" points="1391.5,-174.5 1391.5,-195.5 1466.5,-195.5 1466.5,-174.5 1391.5,-174.5"/>
<text text-anchor="middle" x="1429" y="-182.5" font-family="Helvetica,sans-Serif" font-size="10.00">QPainterPath</text>
</g>
<!-- Node21&#45;&gt;Node22 -->
<g id="edge46" class="edge"><title>Node21&#45;&gt;Node22</title>
<path fill="none" stroke="midnightblue" d="M1397.07,-290.38C1411.51,-282.585 1428.66,-270.48 1437,-254 1444.55,-239.082 1441.58,-220.082 1437.26,-205.799"/>
<polygon fill="midnightblue" stroke="midnightblue" points="1440.43,-204.248 1433.85,-195.941 1433.81,-206.536 1440.43,-204.248"/>
</g>
<!-- Node23 -->
<g id="node49" class="node"><title>Node23</title>
<polygon fill="none" stroke="#bfbfbf" points="1197.5,-232.5 1197.5,-253.5 1300.5,-253.5 1300.5,-232.5 1197.5,-232.5"/>
<text text-anchor="middle" x="1249" y="-240.5" font-family="Helvetica,sans-Serif" font-size="10.00">QGraphicsPathItem</text>
</g>
<!-- Node21&#45;&gt;Node23 -->
<g id="edge52" class="edge"><title>Node21&#45;&gt;Node23</title>
<path fill="none" stroke="midnightblue" d="M1350.54,-290.497C1331.09,-281.397 1302.72,-268.127 1280.91,-257.925"/>
<polygon fill="midnightblue" stroke="midnightblue" points="1282.25,-254.688 1271.71,-253.621 1279.28,-261.028 1282.25,-254.688"/>
</g>
<!-- Node24 -->
<g id="node51" class="node"><title>Node24</title>
<a xlink:href="knot__curve__style_8hpp.html" target="_top" xlink:title="knot_curve_style.hpp">
<polygon fill="none" stroke="black" points="1318,-232.5 1318,-253.5 1428,-253.5 1428,-232.5 1318,-232.5"/>
<text text-anchor="middle" x="1373" y="-240.5" font-family="Helvetica,sans-Serif" font-size="10.00">knot_curve_style.hpp</text>
</a>
</g>
<!-- Node21&#45;&gt;Node24 -->
<g id="edge54" class="edge"><title>Node21&#45;&gt;Node24</title>
<path fill="none" stroke="midnightblue" d="M1373,-290.362C1373,-282.922 1373,-272.743 1373,-263.728"/>
<polygon fill="midnightblue" stroke="midnightblue" points="1376.5,-263.571 1373,-253.571 1369.5,-263.571 1376.5,-263.571"/>
</g>
<!-- Node24&#45;&gt;Node16 -->
<g id="edge56" class="edge"><title>Node24&#45;&gt;Node16</title>
<path fill="none" stroke="midnightblue" d="M1357.04,-232.362C1344.04,-223.696 1325.47,-211.313 1310.57,-201.382"/>
<polygon fill="midnightblue" stroke="midnightblue" points="1312.12,-198.206 1301.86,-195.571 1308.24,-204.03 1312.12,-198.206"/>
</g>
<!-- Node24&#45;&gt;Node22 -->
<g id="edge58" class="edge"><title>Node24&#45;&gt;Node22</title>
<path fill="none" stroke="midnightblue" d="M1383.27,-232.362C1391.24,-224.104 1402.47,-212.472 1411.81,-202.803"/>
<polygon fill="midnightblue" stroke="midnightblue" points="1414.37,-205.196 1418.79,-195.571 1409.33,-200.334 1414.37,-205.196"/>
</g>
<!-- Node25 -->
<g id="node55" class="node"><title>Node25</title>
<polygon fill="none" stroke="#bfbfbf" points="1331.5,-174.5 1331.5,-195.5 1374.5,-195.5 1374.5,-174.5 1331.5,-174.5"/>
<text text-anchor="middle" x="1353" y="-182.5" font-family="Helvetica,sans-Serif" font-size="10.00">QMap</text>
</g>
<!-- Node24&#45;&gt;Node25 -->
<g id="edge60" class="edge"><title>Node24&#45;&gt;Node25</title>
<path fill="none" stroke="midnightblue" d="M1369.33,-232.362C1366.71,-224.758 1363.1,-214.294 1359.94,-205.135"/>
<polygon fill="midnightblue" stroke="midnightblue" points="1363.21,-203.883 1356.65,-195.571 1356.6,-206.165 1363.21,-203.883"/>
</g>
</g>
</svg>
