<?xml version="1.0" encoding="UTF-8" standalone="no"?>
<!DOCTYPE svg PUBLIC "-//W3C//DTD SVG 1.1//EN"
 "http://www.w3.org/Graphics/SVG/1.1/DTD/svg11.dtd">
<!-- Generated by graphviz version 2.26.3 (20100126.1600)
 -->
<!-- Title: G Pages: 1 -->
<svg width="1352pt" height="88pt"
 viewBox="0.00 0.00 1352.00 88.00" xmlns="http://www.w3.org/2000/svg" xmlns:xlink="http://www.w3.org/1999/xlink">
<g id="graph1" class="graph" transform="scale(1 1) rotate(0) translate(4 84)">
<title>G</title>
<!-- Node1 -->
<g id="node1" class="node"><title>Node1</title>
<polygon fill="#bfbfbf" stroke="black" points="624,-58.5 624,-79.5 704,-79.5 704,-58.5 624,-58.5"/>
<text text-anchor="middle" x="664" y="-66.5" font-family="Helvetica,sans-Serif" font-size="10.00">ui_gridconfig.h</text>
</g>
<!-- Node2 -->
<g id="node3" class="node"><title>Node2</title>
<polygon fill="none" stroke="#bfbfbf" points="-0.5,-0.5 -0.5,-21.5 88.5,-21.5 88.5,-0.5 -0.5,-0.5"/>
<text text-anchor="middle" x="44" y="-8.5" font-family="Helvetica,sans-Serif" font-size="10.00">QtCore/QVariant</text>
</g>
<!-- Node1&#45;&gt;Node2 -->
<g id="edge2" class="edge"><title>Node1&#45;&gt;Node2</title>
<path fill="none" stroke="midnightblue" d="M623.94,-67.3602C532.467,-63.2558 301.108,-50.8355 98.6734,-22.1125"/>
<polygon fill="midnightblue" stroke="midnightblue" points="99.1474,-18.6447 88.7515,-20.6881 98.1527,-25.5737 99.1474,-18.6447"/>
</g>
<!-- Node3 -->
<g id="node5" class="node"><title>Node3</title>
<polygon fill="none" stroke="#bfbfbf" points="106,-0.5 106,-21.5 186,-21.5 186,-0.5 106,-0.5"/>
<text text-anchor="middle" x="146" y="-8.5" font-family="Helvetica,sans-Serif" font-size="10.00">QtGui/QAction</text>
</g>
<!-- Node1&#45;&gt;Node3 -->
<g id="edge4" class="edge"><title>Node1&#45;&gt;Node3</title>
<path fill="none" stroke="midnightblue" d="M623.948,-66.6258C544.344,-61.5541 360.471,-48.079 196.318,-22.0529"/>
<polygon fill="midnightblue" stroke="midnightblue" points="196.463,-18.5314 186.035,-20.4016 195.353,-25.4429 196.463,-18.5314"/>
</g>
<!-- Node4 -->
<g id="node7" class="node"><title>Node4</title>
<polygon fill="none" stroke="#bfbfbf" points="203.5,-0.5 203.5,-21.5 304.5,-21.5 304.5,-0.5 203.5,-0.5"/>
<text text-anchor="middle" x="254" y="-8.5" font-family="Helvetica,sans-Serif" font-size="10.00">QtGui/QApplication</text>
</g>
<!-- Node1&#45;&gt;Node4 -->
<g id="edge6" class="edge"><title>Node1&#45;&gt;Node4</title>
<path fill="none" stroke="midnightblue" d="M623.896,-64.308C560.386,-56.7295 432.549,-40.8749 314.438,-22.1751"/>
<polygon fill="midnightblue" stroke="midnightblue" points="314.927,-18.709 304.501,-20.5913 313.825,-25.6218 314.927,-18.709"/>
</g>
<!-- Node5 -->
<g id="node9" class="node"><title>Node5</title>
<polygon fill="none" stroke="#bfbfbf" points="321.5,-0.5 321.5,-21.5 428.5,-21.5 428.5,-0.5 321.5,-0.5"/>
<text text-anchor="middle" x="375" y="-8.5" font-family="Helvetica,sans-Serif" font-size="10.00">QtGui/QButtonGroup</text>
</g>
<!-- Node1&#45;&gt;Node5 -->
<g id="edge8" class="edge"><title>Node1&#45;&gt;Node5</title>
<path fill="none" stroke="midnightblue" d="M623.816,-60.9353C575.533,-51.2454 493.979,-34.8781 437.463,-23.5358"/>
<polygon fill="midnightblue" stroke="midnightblue" points="438.059,-20.0858 427.566,-21.5496 436.682,-26.9489 438.059,-20.0858"/>
</g>
<!-- Node6 -->
<g id="node11" class="node"><title>Node6</title>
<polygon fill="none" stroke="#bfbfbf" points="445.5,-0.5 445.5,-21.5 546.5,-21.5 546.5,-0.5 445.5,-0.5"/>
<text text-anchor="middle" x="496" y="-8.5" font-family="Helvetica,sans-Serif" font-size="10.00">QtGui/QComboBox</text>
</g>
<!-- Node1&#45;&gt;Node6 -->
<g id="edge10" class="edge"><title>Node1&#45;&gt;Node6</title>
<path fill="none" stroke="midnightblue" d="M633.576,-58.4966C606.306,-49.082 566.107,-35.2036 536.196,-24.8773"/>
<polygon fill="midnightblue" stroke="midnightblue" points="537.075,-21.4781 526.481,-21.5231 534.791,-28.0949 537.075,-21.4781"/>
</g>
<!-- Node7 -->
<g id="node13" class="node"><title>Node7</title>
<polygon fill="none" stroke="#bfbfbf" points="564,-0.5 564,-21.5 644,-21.5 644,-0.5 564,-0.5"/>
<text text-anchor="middle" x="604" y="-8.5" font-family="Helvetica,sans-Serif" font-size="10.00">QtGui/QDialog</text>
</g>
<!-- Node1&#45;&gt;Node7 -->
<g id="edge12" class="edge"><title>Node1&#45;&gt;Node7</title>
<path fill="none" stroke="midnightblue" d="M652.995,-58.3619C644.453,-50.1043 632.42,-38.4725 622.417,-28.8029"/>
<polygon fill="midnightblue" stroke="midnightblue" points="624.558,-26.0044 614.935,-21.5707 619.692,-31.0374 624.558,-26.0044"/>
</g>
<!-- Node8 -->
<g id="node15" class="node"><title>Node8</title>
<polygon fill="none" stroke="#bfbfbf" points="662,-0.5 662,-21.5 788,-21.5 788,-0.5 662,-0.5"/>
<text text-anchor="middle" x="725" y="-8.5" font-family="Helvetica,sans-Serif" font-size="10.00">QtGui/QDialogButtonBox</text>
</g>
<!-- Node1&#45;&gt;Node8 -->
<g id="edge14" class="edge"><title>Node1&#45;&gt;Node8</title>
<path fill="none" stroke="midnightblue" d="M675.188,-58.3619C683.959,-50.0226 696.349,-38.2418 706.578,-28.5162"/>
<polygon fill="midnightblue" stroke="midnightblue" points="709.047,-30.9978 713.883,-21.5707 704.224,-25.9248 709.047,-30.9978"/>
</g>
<!-- Node9 -->
<g id="node17" class="node"><title>Node9</title>
<polygon fill="none" stroke="#bfbfbf" points="806,-0.5 806,-21.5 906,-21.5 906,-0.5 806,-0.5"/>
<text text-anchor="middle" x="856" y="-8.5" font-family="Helvetica,sans-Serif" font-size="10.00">QtGui/QGridLayout</text>
</g>
<!-- Node1&#45;&gt;Node9 -->
<g id="edge16" class="edge"><title>Node1&#45;&gt;Node9</title>
<path fill="none" stroke="midnightblue" d="M698.77,-58.4966C730.342,-48.9592 777.079,-34.8408 811.393,-24.475"/>
<polygon fill="midnightblue" stroke="midnightblue" points="812.604,-27.7654 821.165,-21.5231 810.58,-21.0644 812.604,-27.7654"/>
</g>
<!-- Node10 -->
<g id="node19" class="node"><title>Node10</title>
<polygon fill="none" stroke="#bfbfbf" points="924,-0.5 924,-21.5 1020,-21.5 1020,-0.5 924,-0.5"/>
<text text-anchor="middle" x="972" y="-8.5" font-family="Helvetica,sans-Serif" font-size="10.00">QtGui/QGroupBox</text>
</g>
<!-- Node1&#45;&gt;Node10 -->
<g id="edge18" class="edge"><title>Node1&#45;&gt;Node10</title>
<path fill="none" stroke="midnightblue" d="M704.007,-61.5793C751.519,-52.7507 833.452,-37.4774 913.539,-22.2711"/>
<polygon fill="midnightblue" stroke="midnightblue" points="914.631,-25.6263 923.802,-20.3209 913.324,-18.7494 914.631,-25.6263"/>
</g>
<!-- Node11 -->
<g id="node21" class="node"><title>Node11</title>
<polygon fill="none" stroke="#bfbfbf" points="1038,-0.5 1038,-21.5 1144,-21.5 1144,-0.5 1038,-0.5"/>
<text text-anchor="middle" x="1091" y="-8.5" font-family="Helvetica,sans-Serif" font-size="10.00">QtGui/QHeaderView</text>
</g>
<!-- Node1&#45;&gt;Node11 -->
<g id="edge20" class="edge"><title>Node1&#45;&gt;Node11</title>
<path fill="none" stroke="midnightblue" d="M704.055,-64.4735C769.554,-56.934 903.887,-40.8967 1027.88,-22.1186"/>
<polygon fill="midnightblue" stroke="midnightblue" points="1028.57,-25.5538 1037.93,-20.5871 1027.51,-18.6337 1028.57,-25.5538"/>
</g>
<!-- Node12 -->
<g id="node23" class="node"><title>Node12</title>
<polygon fill="none" stroke="#bfbfbf" points="1162,-0.5 1162,-21.5 1238,-21.5 1238,-0.5 1162,-0.5"/>
<text text-anchor="middle" x="1200" y="-8.5" font-family="Helvetica,sans-Serif" font-size="10.00">QtGui/QLabel</text>
</g>
<!-- Node1&#45;&gt;Node12 -->
<g id="edge22" class="edge"><title>Node1&#45;&gt;Node12</title>
<path fill="none" stroke="midnightblue" d="M704.168,-66.9671C786.424,-62.4111 980.068,-49.6712 1151.89,-22.0043"/>
<polygon fill="midnightblue" stroke="midnightblue" points="1152.56,-25.4406 1161.87,-20.3761 1151.43,-18.5319 1152.56,-25.4406"/>
</g>
<!-- Node13 -->
<g id="node25" class="node"><title>Node13</title>
<polygon fill="none" stroke="#bfbfbf" points="1255.5,-0.5 1255.5,-21.5 1344.5,-21.5 1344.5,-0.5 1255.5,-0.5"/>
<text text-anchor="middle" x="1300" y="-8.5" font-family="Helvetica,sans-Serif" font-size="10.00">QtGui/QSpinBox</text>
</g>
<!-- Node1&#45;&gt;Node13 -->
<g id="edge24" class="edge"><title>Node1&#45;&gt;Node13</title>
<path fill="none" stroke="midnightblue" d="M704.127,-67.4834C797.482,-63.5873 1036.59,-51.4892 1245.33,-22.1075"/>
<polygon fill="midnightblue" stroke="midnightblue" points="1245.84,-25.5703 1255.25,-20.6953 1244.86,-18.6402 1245.84,-25.5703"/>
</g>
</g>
</svg>
