<?xml version="1.0" encoding="UTF-8" standalone="no"?>
<!DOCTYPE svg PUBLIC "-//W3C//DTD SVG 1.1//EN"
 "http://www.w3.org/Graphics/SVG/1.1/DTD/svg11.dtd">
<!-- Generated by graphviz version 2.26.3 (20100126.1600)
 -->
<!-- Title: G Pages: 1 -->
<svg width="1612pt" height="88pt"
 viewBox="0.00 0.00 1612.00 88.00" xmlns="http://www.w3.org/2000/svg" xmlns:xlink="http://www.w3.org/1999/xlink">
<g id="graph1" class="graph" transform="scale(1 1) rotate(0) translate(4 84)">
<title>G</title>
<!-- Node1 -->
<g id="node1" class="node"><title>Node1</title>
<polygon fill="#bfbfbf" stroke="black" points="755,-58.5 755,-79.5 835,-79.5 835,-58.5 755,-58.5"/>
<text text-anchor="middle" x="795" y="-66.5" font-family="Helvetica,sans-Serif" font-size="10.00">ui_gridconfig.h</text>
</g>
<!-- Node2 -->
<g id="node3" class="node"><title>Node2</title>
<polygon fill="none" stroke="#bfbfbf" points="-0.5,-0.5 -0.5,-21.5 88.5,-21.5 88.5,-0.5 -0.5,-0.5"/>
<text text-anchor="middle" x="44" y="-8.5" font-family="Helvetica,sans-Serif" font-size="10.00">QtCore/QVariant</text>
</g>
<!-- Node1&#45;&gt;Node2 -->
<g id="edge2" class="edge"><title>Node1&#45;&gt;Node2</title>
<path fill="none" stroke="midnightblue" d="M754.674,-68.2202C648.679,-65.7585 353.414,-56.2444 98.9221,-22.1183"/>
<polygon fill="midnightblue" stroke="midnightblue" points="99.1244,-18.6138 88.7446,-20.7373 98.1832,-25.5502 99.1244,-18.6138"/>
</g>
<!-- Node3 -->
<g id="node5" class="node"><title>Node3</title>
<polygon fill="none" stroke="#bfbfbf" points="106,-0.5 106,-21.5 186,-21.5 186,-0.5 106,-0.5"/>
<text text-anchor="middle" x="146" y="-8.5" font-family="Helvetica,sans-Serif" font-size="10.00">QtGui/QAction</text>
</g>
<!-- Node1&#45;&gt;Node3 -->
<g id="edge4" class="edge"><title>Node1&#45;&gt;Node3</title>
<path fill="none" stroke="midnightblue" d="M754.752,-67.829C659.339,-64.6293 411.866,-53.8475 195.956,-21.9587"/>
<polygon fill="midnightblue" stroke="midnightblue" points="196.431,-18.491 186.024,-20.4733 195.396,-25.414 196.431,-18.491"/>
</g>
<!-- Node4 -->
<g id="node7" class="node"><title>Node4</title>
<polygon fill="none" stroke="#bfbfbf" points="203.5,-0.5 203.5,-21.5 304.5,-21.5 304.5,-0.5 203.5,-0.5"/>
<text text-anchor="middle" x="254" y="-8.5" font-family="Helvetica,sans-Serif" font-size="10.00">QtGui/QApplication</text>
</g>
<!-- Node1&#45;&gt;Node4 -->
<g id="edge6" class="edge"><title>Node1&#45;&gt;Node4</title>
<path fill="none" stroke="midnightblue" d="M754.868,-66.2749C673.64,-60.5031 483.77,-45.713 314.87,-22.1791"/>
<polygon fill="midnightblue" stroke="midnightblue" points="315.193,-18.6901 304.803,-20.7623 314.217,-25.6218 315.193,-18.6901"/>
</g>
<!-- Node5 -->
<g id="node9" class="node"><title>Node5</title>
<polygon fill="none" stroke="#bfbfbf" points="321.5,-0.5 321.5,-21.5 428.5,-21.5 428.5,-0.5 321.5,-0.5"/>
<text text-anchor="middle" x="375" y="-8.5" font-family="Helvetica,sans-Serif" font-size="10.00">QtGui/QButtonGroup</text>
</g>
<!-- Node1&#45;&gt;Node5 -->
<g id="edge8" class="edge"><title>Node1&#45;&gt;Node5</title>
<path fill="none" stroke="midnightblue" d="M754.917,-64.3353C690.449,-56.7024 559.494,-40.6618 438.889,-22.2465"/>
<polygon fill="midnightblue" stroke="midnightblue" points="439.159,-18.7471 428.744,-20.6879 438.096,-25.6659 439.159,-18.7471"/>
</g>
<!-- Node6 -->
<g id="node11" class="node"><title>Node6</title>
<polygon fill="none" stroke="#bfbfbf" points="445.5,-0.5 445.5,-21.5 546.5,-21.5 546.5,-0.5 445.5,-0.5"/>
<text text-anchor="middle" x="496" y="-8.5" font-family="Helvetica,sans-Serif" font-size="10.00">QtGui/QComboBox</text>
</g>
<!-- Node1&#45;&gt;Node6 -->
<g id="edge10" class="edge"><title>Node1&#45;&gt;Node6</title>
<path fill="none" stroke="midnightblue" d="M754.986,-61.238C704.066,-51.3606 615.635,-34.2067 556.469,-22.7297"/>
<polygon fill="midnightblue" stroke="midnightblue" points="556.99,-19.2658 546.507,-20.7973 555.657,-26.1377 556.99,-19.2658"/>
</g>
<!-- Node7 -->
<g id="node13" class="node"><title>Node7</title>
<polygon fill="none" stroke="#bfbfbf" points="564,-0.5 564,-21.5 644,-21.5 644,-0.5 564,-0.5"/>
<text text-anchor="middle" x="604" y="-8.5" font-family="Helvetica,sans-Serif" font-size="10.00">QtGui/QDialog</text>
</g>
<!-- Node1&#45;&gt;Node7 -->
<g id="edge12" class="edge"><title>Node1&#45;&gt;Node7</title>
<path fill="none" stroke="midnightblue" d="M760.411,-58.4966C729.004,-48.9592 682.51,-34.8408 648.375,-24.475"/>
<polygon fill="midnightblue" stroke="midnightblue" points="649.239,-21.0798 638.654,-21.5231 647.205,-27.7778 649.239,-21.0798"/>
</g>
<!-- Node8 -->
<g id="node15" class="node"><title>Node8</title>
<polygon fill="none" stroke="#bfbfbf" points="662,-0.5 662,-21.5 788,-21.5 788,-0.5 662,-0.5"/>
<text text-anchor="middle" x="725" y="-8.5" font-family="Helvetica,sans-Serif" font-size="10.00">QtGui/QDialogButtonBox</text>
</g>
<!-- Node1&#45;&gt;Node8 -->
<g id="edge14" class="edge"><title>Node1&#45;&gt;Node8</title>
<path fill="none" stroke="midnightblue" d="M782.161,-58.3619C771.998,-49.9408 757.599,-38.0105 745.796,-28.2308"/>
<polygon fill="midnightblue" stroke="midnightblue" points="747.691,-25.2558 737.758,-21.5707 743.225,-30.6459 747.691,-25.2558"/>
</g>
<!-- Node9 -->
<g id="node17" class="node"><title>Node9</title>
<polygon fill="none" stroke="#bfbfbf" points="806,-0.5 806,-21.5 926,-21.5 926,-0.5 806,-0.5"/>
<text text-anchor="middle" x="866" y="-8.5" font-family="Helvetica,sans-Serif" font-size="10.00">QtGui/QDoubleSpinBox</text>
</g>
<!-- Node1&#45;&gt;Node9 -->
<g id="edge16" class="edge"><title>Node1&#45;&gt;Node9</title>
<path fill="none" stroke="midnightblue" d="M808.022,-58.3619C818.431,-49.859 833.219,-37.7785 845.255,-27.9466"/>
<polygon fill="midnightblue" stroke="midnightblue" points="847.53,-30.6077 853.06,-21.5707 843.101,-25.1866 847.53,-30.6077"/>
</g>
<!-- Node10 -->
<g id="node19" class="node"><title>Node10</title>
<polygon fill="none" stroke="#bfbfbf" points="944,-0.5 944,-21.5 1044,-21.5 1044,-0.5 944,-0.5"/>
<text text-anchor="middle" x="994" y="-8.5" font-family="Helvetica,sans-Serif" font-size="10.00">QtGui/QGridLayout</text>
</g>
<!-- Node1&#45;&gt;Node10 -->
<g id="edge18" class="edge"><title>Node1&#45;&gt;Node10</title>
<path fill="none" stroke="midnightblue" d="M831.037,-58.4966C863.901,-48.9183 912.617,-34.7196 948.224,-24.3418"/>
<polygon fill="midnightblue" stroke="midnightblue" points="949.274,-27.6815 957.895,-21.5231 947.315,-20.9611 949.274,-27.6815"/>
</g>
<!-- Node11 -->
<g id="node21" class="node"><title>Node11</title>
<polygon fill="none" stroke="#bfbfbf" points="1062,-0.5 1062,-21.5 1158,-21.5 1158,-0.5 1062,-0.5"/>
<text text-anchor="middle" x="1110" y="-8.5" font-family="Helvetica,sans-Serif" font-size="10.00">QtGui/QGroupBox</text>
</g>
<!-- Node1&#45;&gt;Node11 -->
<g id="edge20" class="edge"><title>Node1&#45;&gt;Node11</title>
<path fill="none" stroke="midnightblue" d="M835.244,-61.803C884.041,-53.0467 969.061,-37.6958 1051.74,-22.2244"/>
<polygon fill="midnightblue" stroke="midnightblue" points="1052.62,-25.6198 1061.8,-20.3375 1051.33,-18.7395 1052.62,-25.6198"/>
</g>
<!-- Node12 -->
<g id="node23" class="node"><title>Node12</title>
<polygon fill="none" stroke="#bfbfbf" points="1176,-0.5 1176,-21.5 1282,-21.5 1282,-0.5 1176,-0.5"/>
<text text-anchor="middle" x="1229" y="-8.5" font-family="Helvetica,sans-Serif" font-size="10.00">QtGui/QHeaderView</text>
</g>
<!-- Node1&#45;&gt;Node12 -->
<g id="edge22" class="edge"><title>Node1&#45;&gt;Node12</title>
<path fill="none" stroke="midnightblue" d="M835.003,-64.6093C901.447,-57.1719 1038.99,-41.1654 1165.66,-22.1471"/>
<polygon fill="midnightblue" stroke="midnightblue" points="1166.56,-25.5506 1175.93,-20.5954 1165.52,-18.6292 1166.56,-25.5506"/>
</g>
<!-- Node13 -->
<g id="node25" class="node"><title>Node13</title>
<polygon fill="none" stroke="#bfbfbf" points="1300,-0.5 1300,-21.5 1376,-21.5 1376,-0.5 1300,-0.5"/>
<text text-anchor="middle" x="1338" y="-8.5" font-family="Helvetica,sans-Serif" font-size="10.00">QtGui/QLabel</text>
</g>
<!-- Node1&#45;&gt;Node13 -->
<g id="edge24" class="edge"><title>Node1&#45;&gt;Node13</title>
<path fill="none" stroke="midnightblue" d="M835.096,-67.046C918.196,-62.5996 1115.34,-49.9955 1289.99,-21.9856"/>
<polygon fill="midnightblue" stroke="midnightblue" points="1290.56,-25.4389 1299.87,-20.3805 1289.44,-18.5295 1290.56,-25.4389"/>
</g>
<!-- Node14 -->
<g id="node27" class="node"><title>Node14</title>
<polygon fill="none" stroke="#bfbfbf" points="1394,-0.5 1394,-21.5 1498,-21.5 1498,-0.5 1394,-0.5"/>
<text text-anchor="middle" x="1446" y="-8.5" font-family="Helvetica,sans-Serif" font-size="10.00">QtGui/QPushButton</text>
</g>
<!-- Node1&#45;&gt;Node14 -->
<g id="edge26" class="edge"><title>Node1&#45;&gt;Node14</title>
<path fill="none" stroke="midnightblue" d="M835.204,-67.1714C929.321,-62.5963 1171.43,-49.1218 1383.72,-22.0607"/>
<polygon fill="midnightblue" stroke="midnightblue" points="1384.34,-25.5105 1393.81,-20.7618 1383.44,-18.5679 1384.34,-25.5105"/>
</g>
<!-- Node15 -->
<g id="node29" class="node"><title>Node15</title>
<polygon fill="none" stroke="#bfbfbf" points="1515.5,-0.5 1515.5,-21.5 1604.5,-21.5 1604.5,-0.5 1515.5,-0.5"/>
<text text-anchor="middle" x="1560" y="-8.5" font-family="Helvetica,sans-Serif" font-size="10.00">QtGui/QSpinBox</text>
</g>
<!-- Node1&#45;&gt;Node15 -->
<g id="edge28" class="edge"><title>Node1&#45;&gt;Node15</title>
<path fill="none" stroke="midnightblue" d="M835.343,-68.2945C942.827,-65.9985 1245.11,-56.8212 1505.24,-22.0939"/>
<polygon fill="midnightblue" stroke="midnightblue" points="1505.81,-25.5485 1515.26,-20.7415 1504.88,-18.6115 1505.81,-25.5485"/>
</g>
</g>
</svg>
