<?xml version="1.0" encoding="UTF-8" standalone="no"?>
<!DOCTYPE svg PUBLIC "-//W3C//DTD SVG 1.1//EN"
 "http://www.w3.org/Graphics/SVG/1.1/DTD/svg11.dtd">
<!-- Generated by graphviz version 2.26.3 (20100126.1600)
 -->
<!-- Title: G Pages: 1 -->
<svg width="1458pt" height="88pt"
 viewBox="0.00 0.00 1458.00 88.00" xmlns="http://www.w3.org/2000/svg" xmlns:xlink="http://www.w3.org/1999/xlink">
<g id="graph1" class="graph" transform="scale(1 1) rotate(0) translate(4 84)">
<title>G</title>
<!-- Node1 -->
<g id="node1" class="node"><title>Node1</title>
<polygon fill="#bfbfbf" stroke="black" points="694.5,-58.5 694.5,-79.5 789.5,-79.5 789.5,-58.5 694.5,-58.5"/>
<text text-anchor="middle" x="742" y="-66.5" font-family="Helvetica,sans-Serif" font-size="10.00">ui_knot_window.h</text>
</g>
<!-- Node2 -->
<g id="node3" class="node"><title>Node2</title>
<polygon fill="none" stroke="#bfbfbf" points="-0.5,-0.5 -0.5,-21.5 88.5,-21.5 88.5,-0.5 -0.5,-0.5"/>
<text text-anchor="middle" x="44" y="-8.5" font-family="Helvetica,sans-Serif" font-size="10.00">QtCore/QVariant</text>
</g>
<!-- Node1&#45;&gt;Node2 -->
<g id="edge2" class="edge"><title>Node1&#45;&gt;Node2</title>
<path fill="none" stroke="midnightblue" d="M694.435,-67.6804C588.873,-64.2904 326.94,-53.3322 98.8945,-22.1251"/>
<polygon fill="midnightblue" stroke="midnightblue" points="99.1326,-18.6247 88.747,-20.7198 98.1724,-25.5586 99.1326,-18.6247"/>
</g>
<!-- Node3 -->
<g id="node5" class="node"><title>Node3</title>
<polygon fill="none" stroke="#bfbfbf" points="106,-0.5 106,-21.5 186,-21.5 186,-0.5 106,-0.5"/>
<text text-anchor="middle" x="146" y="-8.5" font-family="Helvetica,sans-Serif" font-size="10.00">QtGui/QAction</text>
</g>
<!-- Node1&#45;&gt;Node3 -->
<g id="edge4" class="edge"><title>Node1&#45;&gt;Node3</title>
<path fill="none" stroke="midnightblue" d="M694.183,-67.0662C600.458,-62.8056 385.93,-50.7378 196.188,-22.0067"/>
<polygon fill="midnightblue" stroke="midnightblue" points="196.442,-18.5049 186.027,-20.4484 195.381,-25.424 196.442,-18.5049"/>
</g>
<!-- Node4 -->
<g id="node7" class="node"><title>Node4</title>
<polygon fill="none" stroke="#bfbfbf" points="203.5,-0.5 203.5,-21.5 304.5,-21.5 304.5,-0.5 203.5,-0.5"/>
<text text-anchor="middle" x="254" y="-8.5" font-family="Helvetica,sans-Serif" font-size="10.00">QtGui/QApplication</text>
</g>
<!-- Node1&#45;&gt;Node4 -->
<g id="edge6" class="edge"><title>Node1&#45;&gt;Node4</title>
<path fill="none" stroke="midnightblue" d="M694.238,-64.9495C616.72,-58.117 458.504,-43.0996 315.106,-22.2358"/>
<polygon fill="midnightblue" stroke="midnightblue" points="315.211,-18.7137 304.808,-20.7236 314.193,-25.6395 315.211,-18.7137"/>
</g>
<!-- Node5 -->
<g id="node9" class="node"><title>Node5</title>
<polygon fill="none" stroke="#bfbfbf" points="321.5,-0.5 321.5,-21.5 428.5,-21.5 428.5,-0.5 321.5,-0.5"/>
<text text-anchor="middle" x="375" y="-8.5" font-family="Helvetica,sans-Serif" font-size="10.00">QtGui/QButtonGroup</text>
</g>
<!-- Node1&#45;&gt;Node5 -->
<g id="edge8" class="edge"><title>Node1&#45;&gt;Node5</title>
<path fill="none" stroke="midnightblue" d="M694.4,-62.0066C636.336,-53.4001 534.928,-38.1245 438.655,-22.2515"/>
<polygon fill="midnightblue" stroke="midnightblue" points="439.193,-18.793 428.756,-20.6142 438.05,-25.6992 439.193,-18.793"/>
</g>
<!-- Node6 -->
<g id="node11" class="node"><title>Node6</title>
<polygon fill="none" stroke="#bfbfbf" points="446,-0.5 446,-21.5 546,-21.5 546,-0.5 446,-0.5"/>
<text text-anchor="middle" x="496" y="-8.5" font-family="Helvetica,sans-Serif" font-size="10.00">QtGui/QGridLayout</text>
</g>
<!-- Node1&#45;&gt;Node6 -->
<g id="edge10" class="edge"><title>Node1&#45;&gt;Node6</title>
<path fill="none" stroke="midnightblue" d="M697.451,-58.4966C656.218,-48.775 594.798,-34.2938 550.624,-23.8787"/>
<polygon fill="midnightblue" stroke="midnightblue" points="551.169,-20.4113 540.632,-21.5231 549.562,-27.2245 551.169,-20.4113"/>
</g>
<!-- Node7 -->
<g id="node13" class="node"><title>Node7</title>
<polygon fill="none" stroke="#bfbfbf" points="564,-0.5 564,-21.5 670,-21.5 670,-0.5 564,-0.5"/>
<text text-anchor="middle" x="617" y="-8.5" font-family="Helvetica,sans-Serif" font-size="10.00">QtGui/QHeaderView</text>
</g>
<!-- Node1&#45;&gt;Node7 -->
<g id="edge12" class="edge"><title>Node1&#45;&gt;Node7</title>
<path fill="none" stroke="midnightblue" d="M719.363,-58.4966C699.752,-49.397 671.154,-36.1273 649.167,-25.9253"/>
<polygon fill="midnightblue" stroke="midnightblue" points="650.435,-22.6554 639.891,-21.6212 647.488,-29.0051 650.435,-22.6554"/>
</g>
<!-- Node8 -->
<g id="node15" class="node"><title>Node8</title>
<polygon fill="none" stroke="#bfbfbf" points="687.5,-0.5 687.5,-21.5 796.5,-21.5 796.5,-0.5 687.5,-0.5"/>
<text text-anchor="middle" x="742" y="-8.5" font-family="Helvetica,sans-Serif" font-size="10.00">QtGui/QMainWindow</text>
</g>
<!-- Node1&#45;&gt;Node8 -->
<g id="edge14" class="edge"><title>Node1&#45;&gt;Node8</title>
<path fill="none" stroke="midnightblue" d="M742,-58.3619C742,-50.9219 742,-40.7427 742,-31.7276"/>
<polygon fill="midnightblue" stroke="midnightblue" points="745.5,-31.5706 742,-21.5707 738.5,-31.5707 745.5,-31.5706"/>
</g>
<!-- Node9 -->
<g id="node17" class="node"><title>Node9</title>
<polygon fill="none" stroke="#bfbfbf" points="813.5,-0.5 813.5,-21.5 890.5,-21.5 890.5,-0.5 813.5,-0.5"/>
<text text-anchor="middle" x="852" y="-8.5" font-family="Helvetica,sans-Serif" font-size="10.00">QtGui/QMenu</text>
</g>
<!-- Node1&#45;&gt;Node9 -->
<g id="edge16" class="edge"><title>Node1&#45;&gt;Node9</title>
<path fill="none" stroke="midnightblue" d="M761.92,-58.4966C778.946,-49.5194 803.669,-36.4835 822.909,-26.3387"/>
<polygon fill="midnightblue" stroke="midnightblue" points="824.643,-29.3814 831.856,-21.6212 821.378,-23.1894 824.643,-29.3814"/>
</g>
<!-- Node10 -->
<g id="node19" class="node"><title>Node10</title>
<polygon fill="none" stroke="#bfbfbf" points="908,-0.5 908,-21.5 1000,-21.5 1000,-0.5 908,-0.5"/>
<text text-anchor="middle" x="954" y="-8.5" font-family="Helvetica,sans-Serif" font-size="10.00">QtGui/QMenuBar</text>
</g>
<!-- Node1&#45;&gt;Node10 -->
<g id="edge18" class="edge"><title>Node1&#45;&gt;Node10</title>
<path fill="none" stroke="midnightblue" d="M780.392,-58.4966C815.552,-48.8773 867.745,-34.5981 905.719,-24.209"/>
<polygon fill="midnightblue" stroke="midnightblue" points="906.814,-27.5379 915.536,-21.5231 904.967,-20.7861 906.814,-27.5379"/>
</g>
<!-- Node11 -->
<g id="node21" class="node"><title>Node11</title>
<polygon fill="none" stroke="#bfbfbf" points="1018,-0.5 1018,-21.5 1114,-21.5 1114,-0.5 1018,-0.5"/>
<text text-anchor="middle" x="1066" y="-8.5" font-family="Helvetica,sans-Serif" font-size="10.00">QtGui/QStatusBar</text>
</g>
<!-- Node1&#45;&gt;Node11 -->
<g id="edge20" class="edge"><title>Node1&#45;&gt;Node11</title>
<path fill="none" stroke="midnightblue" d="M789.792,-60.8303C841.161,-51.9947 925.487,-37.3343 1007.78,-22.2047"/>
<polygon fill="midnightblue" stroke="midnightblue" points="1008.61,-25.6119 1017.81,-20.3577 1007.34,-18.7278 1008.61,-25.6119"/>
</g>
<!-- Node12 -->
<g id="node23" class="node"><title>Node12</title>
<polygon fill="none" stroke="#bfbfbf" points="1132,-0.5 1132,-21.5 1218,-21.5 1218,-0.5 1132,-0.5"/>
<text text-anchor="middle" x="1175" y="-8.5" font-family="Helvetica,sans-Serif" font-size="10.00">QtGui/QToolBar</text>
</g>
<!-- Node1&#45;&gt;Node12 -->
<g id="edge22" class="edge"><title>Node1&#45;&gt;Node12</title>
<path fill="none" stroke="midnightblue" d="M789.707,-64.4417C860.138,-57.4211 996.269,-42.7413 1121.75,-22.0994"/>
<polygon fill="midnightblue" stroke="midnightblue" points="1122.63,-25.5014 1131.92,-20.4093 1121.49,-18.5961 1122.63,-25.5014"/>
</g>
<!-- Node13 -->
<g id="node25" class="node"><title>Node13</title>
<polygon fill="none" stroke="#bfbfbf" points="1235.5,-0.5 1235.5,-21.5 1318.5,-21.5 1318.5,-0.5 1235.5,-0.5"/>
<text text-anchor="middle" x="1277" y="-8.5" font-family="Helvetica,sans-Serif" font-size="10.00">QtGui/QWidget</text>
</g>
<!-- Node1&#45;&gt;Node13 -->
<g id="edge24" class="edge"><title>Node1&#45;&gt;Node13</title>
<path fill="none" stroke="midnightblue" d="M789.741,-66.2794C875.187,-60.9963 1060.03,-47.691 1224.99,-22.1781"/>
<polygon fill="midnightblue" stroke="midnightblue" points="1225.99,-25.5648 1235.33,-20.5595 1224.91,-18.6491 1225.99,-25.5648"/>
</g>
<!-- Node14 -->
<g id="node27" class="node"><title>Node14</title>
<polygon fill="none" stroke="#bfbfbf" points="1336,-0.5 1336,-21.5 1450,-21.5 1450,-0.5 1336,-0.5"/>
<text text-anchor="middle" x="1393" y="-8.5" font-family="Helvetica,sans-Serif" font-size="10.00">graphics/knotview.hpp</text>
</g>
<!-- Node1&#45;&gt;Node14 -->
<g id="edge26" class="edge"><title>Node1&#45;&gt;Node14</title>
<path fill="none" stroke="midnightblue" d="M789.531,-66.5541C887.748,-61.203 1120.38,-46.9954 1325.74,-22.071"/>
<polygon fill="midnightblue" stroke="midnightblue" points="1326.31,-25.5279 1335.81,-20.8378 1325.45,-18.5798 1326.31,-25.5279"/>
</g>
</g>
</svg>
