<?xml version="1.0" encoding="UTF-8" standalone="no"?>
<!DOCTYPE svg PUBLIC "-//W3C//DTD SVG 1.1//EN"
 "http://www.w3.org/Graphics/SVG/1.1/DTD/svg11.dtd">
<!-- Generated by graphviz version 2.26.3 (20100126.1600)
 -->
<!-- Title: G Pages: 1 -->
<svg width="1362pt" height="88pt"
 viewBox="0.00 0.00 1362.00 88.00" xmlns="http://www.w3.org/2000/svg" xmlns:xlink="http://www.w3.org/1999/xlink">
<g id="graph1" class="graph" transform="scale(1 1) rotate(0) translate(4 84)">
<title>G</title>
<!-- Node1 -->
<g id="node1" class="node"><title>Node1</title>
<polygon fill="#bfbfbf" stroke="black" points="618.5,-58.5 618.5,-79.5 713.5,-79.5 713.5,-58.5 618.5,-58.5"/>
<text text-anchor="middle" x="666" y="-66.5" font-family="Helvetica,sans-Serif" font-size="10.00">ui_config_dialog.h</text>
</g>
<!-- Node2 -->
<g id="node3" class="node"><title>Node2</title>
<polygon fill="none" stroke="#bfbfbf" points="-0.5,-0.5 -0.5,-21.5 88.5,-21.5 88.5,-0.5 -0.5,-0.5"/>
<text text-anchor="middle" x="44" y="-8.5" font-family="Helvetica,sans-Serif" font-size="10.00">QtCore/QVariant</text>
</g>
<!-- Node1&#45;&gt;Node2 -->
<g id="edge2" class="edge"><title>Node1&#45;&gt;Node2</title>
<path fill="none" stroke="midnightblue" d="M618.194,-67.0271C521.707,-62.6182 296.669,-50.1755 98.7511,-22.1231"/>
<polygon fill="midnightblue" stroke="midnightblue" points="99.147,-18.6442 88.7514,-20.689 98.1532,-25.5733 99.147,-18.6442"/>
</g>
<!-- Node3 -->
<g id="node5" class="node"><title>Node3</title>
<polygon fill="none" stroke="#bfbfbf" points="106,-0.5 106,-21.5 186,-21.5 186,-0.5 106,-0.5"/>
<text text-anchor="middle" x="146" y="-8.5" font-family="Helvetica,sans-Serif" font-size="10.00">QtGui/QAction</text>
</g>
<!-- Node1&#45;&gt;Node3 -->
<g id="edge4" class="edge"><title>Node1&#45;&gt;Node3</title>
<path fill="none" stroke="midnightblue" d="M618.286,-66.1601C534.702,-60.7674 356.247,-47.3954 196.07,-22.0132"/>
<polygon fill="midnightblue" stroke="midnightblue" points="196.463,-18.5314 186.035,-20.403 195.354,-25.443 196.463,-18.5314"/>
</g>
<!-- Node4 -->
<g id="node7" class="node"><title>Node4</title>
<polygon fill="none" stroke="#bfbfbf" points="203.5,-0.5 203.5,-21.5 304.5,-21.5 304.5,-0.5 203.5,-0.5"/>
<text text-anchor="middle" x="254" y="-8.5" font-family="Helvetica,sans-Serif" font-size="10.00">QtGui/QApplication</text>
</g>
<!-- Node1&#45;&gt;Node4 -->
<g id="edge6" class="edge"><title>Node1&#45;&gt;Node4</title>
<path fill="none" stroke="midnightblue" d="M618.496,-63.4702C552.527,-55.6156 429.215,-40.3009 314.507,-22.1849"/>
<polygon fill="midnightblue" stroke="midnightblue" points="314.926,-18.7077 304.501,-20.5938 313.827,-25.6208 314.926,-18.7077"/>
</g>
<!-- Node5 -->
<g id="node9" class="node"><title>Node5</title>
<polygon fill="none" stroke="#bfbfbf" points="321.5,-0.5 321.5,-21.5 428.5,-21.5 428.5,-0.5 321.5,-0.5"/>
<text text-anchor="middle" x="375" y="-8.5" font-family="Helvetica,sans-Serif" font-size="10.00">QtGui/QButtonGroup</text>
</g>
<!-- Node1&#45;&gt;Node5 -->
<g id="edge8" class="edge"><title>Node1&#45;&gt;Node5</title>
<path fill="none" stroke="midnightblue" d="M618.273,-59.4874C569.016,-49.6698 491.934,-34.3064 437.765,-23.51"/>
<polygon fill="midnightblue" stroke="midnightblue" points="438.421,-20.0718 427.93,-21.5495 437.053,-26.9368 438.421,-20.0718"/>
</g>
<!-- Node6 -->
<g id="node11" class="node"><title>Node6</title>
<polygon fill="none" stroke="#bfbfbf" points="446,-0.5 446,-21.5 544,-21.5 544,-0.5 446,-0.5"/>
<text text-anchor="middle" x="495" y="-8.5" font-family="Helvetica,sans-Serif" font-size="10.00">QtGui/QCheckBox</text>
</g>
<!-- Node1&#45;&gt;Node6 -->
<g id="edge10" class="edge"><title>Node1&#45;&gt;Node6</title>
<path fill="none" stroke="midnightblue" d="M635.033,-58.4966C607.156,-49.0411 566.003,-35.0829 535.518,-24.7428"/>
<polygon fill="midnightblue" stroke="midnightblue" points="536.619,-21.4207 526.025,-21.5231 534.371,-28.0497 536.619,-21.4207"/>
</g>
<!-- Node7 -->
<g id="node13" class="node"><title>Node7</title>
<polygon fill="none" stroke="#bfbfbf" points="561.5,-0.5 561.5,-21.5 662.5,-21.5 662.5,-0.5 561.5,-0.5"/>
<text text-anchor="middle" x="612" y="-8.5" font-family="Helvetica,sans-Serif" font-size="10.00">QtGui/QComboBox</text>
</g>
<!-- Node1&#45;&gt;Node7 -->
<g id="edge12" class="edge"><title>Node1&#45;&gt;Node7</title>
<path fill="none" stroke="midnightblue" d="M656.096,-58.3619C648.484,-50.1861 637.792,-38.7025 628.843,-29.0907"/>
<polygon fill="midnightblue" stroke="midnightblue" points="631.217,-26.5046 621.842,-21.5707 626.094,-31.2746 631.217,-26.5046"/>
</g>
<!-- Node8 -->
<g id="node15" class="node"><title>Node8</title>
<polygon fill="none" stroke="#bfbfbf" points="680,-0.5 680,-21.5 760,-21.5 760,-0.5 680,-0.5"/>
<text text-anchor="middle" x="720" y="-8.5" font-family="Helvetica,sans-Serif" font-size="10.00">QtGui/QDialog</text>
</g>
<!-- Node1&#45;&gt;Node8 -->
<g id="edge14" class="edge"><title>Node1&#45;&gt;Node8</title>
<path fill="none" stroke="midnightblue" d="M675.904,-58.3619C683.516,-50.1861 694.208,-38.7025 703.157,-29.0907"/>
<polygon fill="midnightblue" stroke="midnightblue" points="705.906,-31.2746 710.158,-21.5707 700.783,-26.5046 705.906,-31.2746"/>
</g>
<!-- Node9 -->
<g id="node17" class="node"><title>Node9</title>
<polygon fill="none" stroke="#bfbfbf" points="778,-0.5 778,-21.5 904,-21.5 904,-0.5 778,-0.5"/>
<text text-anchor="middle" x="841" y="-8.5" font-family="Helvetica,sans-Serif" font-size="10.00">QtGui/QDialogButtonBox</text>
</g>
<!-- Node1&#45;&gt;Node9 -->
<g id="edge16" class="edge"><title>Node1&#45;&gt;Node9</title>
<path fill="none" stroke="midnightblue" d="M697.691,-58.4966C726.221,-49.0411 768.336,-35.0829 799.535,-24.7428"/>
<polygon fill="midnightblue" stroke="midnightblue" points="800.858,-27.9914 809.249,-21.5231 798.656,-21.3468 800.858,-27.9914"/>
</g>
<!-- Node10 -->
<g id="node19" class="node"><title>Node10</title>
<polygon fill="none" stroke="#bfbfbf" points="922,-0.5 922,-21.5 1022,-21.5 1022,-0.5 922,-0.5"/>
<text text-anchor="middle" x="972" y="-8.5" font-family="Helvetica,sans-Serif" font-size="10.00">QtGui/QGridLayout</text>
</g>
<!-- Node1&#45;&gt;Node10 -->
<g id="edge18" class="edge"><title>Node1&#45;&gt;Node10</title>
<path fill="none" stroke="midnightblue" d="M713.812,-59.9375C767.251,-49.8087 853.87,-33.3907 911.861,-22.3988"/>
<polygon fill="midnightblue" stroke="midnightblue" points="912.811,-25.7813 921.984,-20.4802 911.507,-18.9037 912.811,-25.7813"/>
</g>
<!-- Node11 -->
<g id="node21" class="node"><title>Node11</title>
<polygon fill="none" stroke="#bfbfbf" points="1040,-0.5 1040,-21.5 1136,-21.5 1136,-0.5 1040,-0.5"/>
<text text-anchor="middle" x="1088" y="-8.5" font-family="Helvetica,sans-Serif" font-size="10.00">QtGui/QGroupBox</text>
</g>
<!-- Node1&#45;&gt;Node11 -->
<g id="edge20" class="edge"><title>Node1&#45;&gt;Node11</title>
<path fill="none" stroke="midnightblue" d="M713.676,-63.825C781.595,-56.2404 910.325,-41.0815 1029.78,-22.1224"/>
<polygon fill="midnightblue" stroke="midnightblue" points="1030.51,-25.5503 1039.84,-20.5146 1029.41,-18.6382 1030.51,-25.5503"/>
</g>
<!-- Node12 -->
<g id="node23" class="node"><title>Node12</title>
<polygon fill="none" stroke="#bfbfbf" points="1154,-0.5 1154,-21.5 1260,-21.5 1260,-0.5 1154,-0.5"/>
<text text-anchor="middle" x="1207" y="-8.5" font-family="Helvetica,sans-Serif" font-size="10.00">QtGui/QHeaderView</text>
</g>
<!-- Node1&#45;&gt;Node12 -->
<g id="edge22" class="edge"><title>Node1&#45;&gt;Node12</title>
<path fill="none" stroke="midnightblue" d="M713.735,-65.553C798.278,-59.1787 980.064,-44.2636 1143.69,-22.0951"/>
<polygon fill="midnightblue" stroke="midnightblue" points="1144.51,-25.5158 1153.94,-20.6931 1143.56,-18.5803 1144.51,-25.5158"/>
</g>
<!-- Node13 -->
<g id="node25" class="node"><title>Node13</title>
<polygon fill="none" stroke="#bfbfbf" points="1278,-0.5 1278,-21.5 1354,-21.5 1354,-0.5 1278,-0.5"/>
<text text-anchor="middle" x="1316" y="-8.5" font-family="Helvetica,sans-Serif" font-size="10.00">QtGui/QLabel</text>
</g>
<!-- Node1&#45;&gt;Node13 -->
<g id="edge24" class="edge"><title>Node1&#45;&gt;Node13</title>
<path fill="none" stroke="midnightblue" d="M713.58,-67.7495C814.215,-64.5756 1056.09,-54.1524 1267.82,-21.9829"/>
<polygon fill="midnightblue" stroke="midnightblue" points="1268.52,-25.4153 1277.88,-20.4345 1267.46,-18.4967 1268.52,-25.4153"/>
</g>
</g>
</svg>
