<?xml version="1.0" encoding="UTF-8" standalone="no"?>
<!-- Created with Inkscape (http://www.inkscape.org/) -->

<svg
   xmlns:dc="http://purl.org/dc/elements/1.1/"
   xmlns:cc="http://creativecommons.org/ns#"
   xmlns:rdf="http://www.w3.org/1999/02/22-rdf-syntax-ns#"
   xmlns:svg="http://www.w3.org/2000/svg"
   xmlns="http://www.w3.org/2000/svg"
   xmlns:sodipodi="http://sodipodi.sourceforge.net/DTD/sodipodi-0.dtd"
   xmlns:inkscape="http://www.inkscape.org/namespaces/inkscape"
   width="64px"
   height="64px"
   id="svg4436"
   version="1.1"
   inkscape:version="0.48.2 r9819"
   sodipodi:docname="New document 11">
  <defs
     id="defs4438" />
  <sodipodi:namedview
     id="base"
     pagecolor="#ffffff"
     bordercolor="#666666"
     borderopacity="1.0"
     inkscape:pageopacity="0.0"
     inkscape:pageshadow="2"
     inkscape:zoom="5.5"
     inkscape:cx="32"
     inkscape:cy="32"
     inkscape:current-layer="layer1"
     showgrid="true"
     inkscape:document-units="px"
     inkscape:grid-bbox="true"
     inkscape:window-width="1226"
     inkscape:window-height="749"
     inkscape:window-x="41"
     inkscape:window-y="-4"
     inkscape:window-maximized="1" />
  <metadata
     id="metadata4441">
    <rdf:RDF>
      <cc:Work
         rdf:about="">
        <dc:format>image/svg+xml</dc:format>
        <dc:type
           rdf:resource="http://purl.org/dc/dcmitype/StillImage" />
        <dc:title></dc:title>
      </cc:Work>
    </rdf:RDF>
  </metadata>
  <g
     id="layer1"
     inkscape:label="Layer 1"
     inkscape:groupmode="layer">
    <path
       inkscape:connector-curvature="0"
       style="font-size:medium;font-style:normal;font-variant:normal;font-weight:normal;font-stretch:normal;text-indent:0;text-align:start;text-decoration:none;line-height:normal;letter-spacing:normal;word-spacing:normal;text-transform:none;direction:ltr;block-progression:tb;writing-mode:lr-tb;text-anchor:start;baseline-shift:baseline;color:#000000;fill:#000000;fill-opacity:1;stroke:#808080;stroke-width:0.52553248;stroke-linejoin:miter;stroke-miterlimit:4;stroke-dasharray:none;marker:none;visibility:visible;display:inline;overflow:visible;enable-background:accumulate;font-family:Sans Serif;-inkscape-font-specification:Sans"
       d="M 31.999991,0.26276611 27.976384,13.417501 C 25.944722,20.066524 19.755574,26.773216 14.049774,33.946112 11.196873,37.53256 8.4784988,41.276589 6.708742,45.524249 4.9389851,49.77191 4.2113119,54.650494 5.5591397,59.68078 L 6.6430504,63.737234 14.77238,61.569412 13.672047,57.496536 C 12.843645,54.404823 13.225912,51.761784 14.476769,48.759559 15.727625,45.757334 17.946712,42.5279 20.618929,39.168591 24.235192,34.622504 28.606098,29.820582 31.999991,24.305876 35.393906,29.820585 39.764767,34.622505 43.381054,39.168591 46.053292,42.5279 48.272357,45.75734 49.523214,48.759559 50.774072,51.761777 51.156356,54.404828 50.327936,57.496536 L 49.227602,61.569412 57.356931,63.737234 58.440841,59.68078 C 59.788706,54.650488 59.061006,49.771916 57.291239,45.524249 55.521475,41.276583 52.803131,37.532561 49.95021,33.946112 44.244366,26.773215 38.055255,20.066507 36.023599,13.417501 L 31.999991,0.26276611 z"
       id="path14" />
  </g>
</svg>
