<?xml version="1.0" encoding="UTF-8" standalone="no"?>
<svg
   xmlns:dc="http://purl.org/dc/elements/1.1/"
   xmlns:cc="http://creativecommons.org/ns#"
   xmlns:rdf="http://www.w3.org/1999/02/22-rdf-syntax-ns#"
   xmlns:svg="http://www.w3.org/2000/svg"
   xmlns="http://www.w3.org/2000/svg"
   xmlns:sodipodi="http://sodipodi.sourceforge.net/DTD/sodipodi-0.dtd"
   xmlns:inkscape="http://www.inkscape.org/namespaces/inkscape"
   version="1.2"
   id="svg2"
   inkscape:version="0.48.2 r9819"
   width="64"
   height="64"
   sodipodi:docname="highlight-loops.svg">
  <metadata
     id="metadata22">
    <rdf:RDF>
      <cc:Work
         rdf:about="">
        <dc:format>image/svg+xml</dc:format>
        <dc:type
           rdf:resource="http://purl.org/dc/dcmitype/StillImage" />
      </cc:Work>
    </rdf:RDF>
  </metadata>
  <sodipodi:namedview
     pagecolor="#ffffff"
     bordercolor="#666666"
     borderopacity="1"
     objecttolerance="10"
     gridtolerance="10"
     guidetolerance="10"
     inkscape:pageopacity="0"
     inkscape:pageshadow="2"
     inkscape:window-width="1226"
     inkscape:window-height="749"
     id="namedview20"
     showgrid="false"
     inkscape:zoom="5.0743655"
     inkscape:cx="31.693051"
     inkscape:cy="34.079041"
     inkscape:window-x="41"
     inkscape:window-y="-4"
     inkscape:window-maximized="1"
     inkscape:current-layer="svg2" />
  <title
     id="title4">Qt Svg Document</title>
  <desc
     id="desc6">Generated with Qt</desc>
  <defs
     id="defs8" />
  <path
     style="font-size:medium;font-style:normal;font-variant:normal;font-weight:normal;font-stretch:normal;text-indent:0;text-align:start;text-decoration:none;line-height:normal;letter-spacing:normal;word-spacing:normal;text-transform:none;direction:ltr;block-progression:tb;writing-mode:lr-tb;text-anchor:start;baseline-shift:baseline;color:#000000;fill:#ffffff;fill-opacity:1;stroke:#ffffff;stroke-width:2.90846204999999980;stroke-linecap:square;stroke-linejoin:bevel;stroke-miterlimit:4;stroke-opacity:1;stroke-dasharray:none;marker:none;visibility:visible;display:inline;overflow:visible;enable-background:accumulate;font-family:Sans Serif;-inkscape-font-specification:Sans"
     d="M 11.03125 1.46875 C 10.48324 1.491687 9.9579558 1.5276642 9.4375 1.59375 C 7.3556723 1.8580932 5.4251549 2.3872559 3.90625 3.90625 C 2.3872341 5.4251795 1.8581141 7.3555935 1.59375 9.4375 C 1.3293859 11.519407 1.4156376 13.836893 1.8125 16.25 C 2.6062211 21.076213 4.6068455 26.294122 8.34375 30.03125 L 10.3125 32 L 8.34375 33.96875 C 4.6068455 37.705879 2.6062211 42.923787 1.8125 47.75 C 1.4156376 50.163107 1.3293859 52.480593 1.59375 54.5625 C 1.8581141 56.644406 2.3872341 58.57482 3.90625 60.09375 C 5.4251549 61.612744 7.3556723 62.141907 9.4375 62.40625 C 11.519328 62.670593 13.836962 62.584379 16.25 62.1875 C 21.076077 61.393744 26.294243 59.393393 30.03125 55.65625 L 32 53.6875 L 33.96875 55.65625 C 37.705788 59.39338 42.923908 61.393745 47.75 62.1875 C 50.163046 62.584379 52.480663 62.670592 54.5625 62.40625 C 56.644338 62.141908 58.57483 61.612703 60.09375 60.09375 C 61.612666 58.574792 62.141917 56.644388 62.40625 54.5625 C 62.670583 52.480612 62.58437 50.163104 62.1875 47.75 C 61.393761 42.923791 59.393279 37.705881 55.65625 33.96875 L 53.6875 32 L 55.65625 30.03125 C 59.393279 26.29412 61.393761 21.076209 62.1875 16.25 C 62.58437 13.836896 62.670583 11.519388 62.40625 9.4375 C 62.141917 7.355612 61.612666 5.425208 60.09375 3.90625 C 58.57483 2.3872966 56.644338 1.8580921 54.5625 1.59375 C 53.521581 1.4615788 52.422907 1.4305534 51.28125 1.46875 C 50.139594 1.5069467 48.956523 1.6140609 47.75 1.8125 C 42.923908 2.6062558 37.705788 4.6066196 33.96875 8.34375 L 32 10.3125 L 30.03125 8.34375 C 26.294243 4.6066063 21.076077 2.6062566 16.25 1.8125 C 15.043479 1.6140609 13.860404 1.5069467 12.71875 1.46875 C 12.147923 1.4496517 11.57926 1.445813 11.03125 1.46875 z M 11.25 7.03125 C 12.452991 6.9860289 13.873024 7.0706062 15.34375 7.3125 C 19.26569 7.9575504 23.583774 9.7399297 26.125 12.28125 L 28.09375 14.25 L 26.125 16.21875 C 19.846777 22.497202 22.496844 19.84653 16.21875 26.125 L 14.25 28.09375 L 12.28125 26.125 C 9.7400676 23.583665 7.9575226 19.265797 7.3125 15.34375 C 6.9899906 13.382727 6.9166244 11.519893 7.09375 10.125 C 7.2708757 8.7301074 7.7930592 7.8944365 7.84375 7.84375 C 7.8943669 7.7931282 8.7301405 7.2708645 10.125 7.09375 C 10.473715 7.0494714 10.849003 7.0463237 11.25 7.03125 z M 51.46875 7.03125 C 52.352771 7.0002908 53.177561 7.0051924 53.875 7.09375 C 55.269878 7.2708653 56.105588 7.7930875 56.15625 7.84375 C 56.206906 7.894408 56.697891 8.7300886 56.875 10.125 C 57.052109 11.519912 57.010018 13.382725 56.6875 15.34375 C 56.042462 19.265802 54.260015 23.583666 51.71875 26.125 L 49.75 28.09375 L 47.78125 26.125 L 37.875 16.21875 L 35.90625 14.25 L 37.875 12.28125 C 40.416271 9.7399164 44.734296 7.9575511 48.65625 7.3125 C 49.636738 7.1512372 50.584729 7.0622092 51.46875 7.03125 z M 32 18.15625 L 33.96875 20.125 L 43.875 30.03125 L 45.84375 32 L 43.875 33.96875 C 37.596689 40.247216 40.247058 37.596552 33.96875 43.875 L 32 45.84375 L 30.03125 43.875 C 23.753004 37.59654 26.403083 40.24721 20.125 33.96875 L 18.15625 32 L 20.125 30.03125 C 26.403081 23.752792 23.753004 26.403476 30.03125 20.125 L 32 18.15625 z M 14.25 35.90625 L 16.21875 37.875 C 22.496841 44.153468 19.846777 41.502812 26.125 47.78125 L 28.09375 49.75 L 26.125 51.71875 C 23.583774 54.26007 19.26569 56.04245 15.34375 56.6875 C 13.382782 57.010025 11.51986 57.083364 10.125 56.90625 C 8.7301405 56.729135 7.8943669 56.206871 7.84375 56.15625 C 7.7930592 56.105563 7.2708757 55.269893 7.09375 53.875 C 6.9166244 52.480107 6.9899906 50.617273 7.3125 48.65625 C 7.9575226 44.734203 9.7400676 40.416335 12.28125 37.875 L 14.25 35.90625 z M 49.75 35.90625 L 51.71875 37.875 C 54.260015 40.416334 56.042462 44.734198 56.6875 48.65625 C 57.010018 50.617275 57.052109 52.480088 56.875 53.875 C 56.697891 55.269911 56.206906 56.105592 56.15625 56.15625 C 56.105588 56.206912 55.269878 56.729135 53.875 56.90625 C 52.480122 57.083365 50.617227 57.010025 48.65625 56.6875 C 44.734296 56.042449 40.416271 54.260084 37.875 51.71875 L 35.90625 49.75 L 37.875 47.78125 C 44.15331 41.5028 41.502942 44.153463 47.78125 37.875 L 49.75 35.90625 z "
     id="path3779" />
  <path
     style="font-size:medium;font-style:normal;font-variant:normal;font-weight:normal;font-stretch:normal;text-indent:0;text-align:start;text-decoration:none;line-height:normal;letter-spacing:normal;word-spacing:normal;text-transform:none;direction:ltr;block-progression:tb;writing-mode:lr-tb;text-anchor:start;baseline-shift:baseline;color:#000000;fill:#800000;fill-opacity:1;stroke:none;stroke-width:2.58312583000000018;marker:none;visibility:visible;display:inline;overflow:visible;enable-background:accumulate;font-family:Sans Serif;-inkscape-font-specification:Sans"
     d="M 12.715744,1.4668595 C 11.57409,1.4286629 10.473331,1.4734234 9.4324193,1.605595 7.3505916,1.8699382 5.4251649,2.3872972 3.90626,3.9062913 2.3872441,5.4252208 1.8699845,7.3506806 1.6056204,9.4325871 1.3412563,11.514494 1.4284171,13.829079 1.8252795,16.242186 2.6190006,21.068399 4.6203415,26.297674 8.357246,30.034802 L 10.322617,32.000221 14.241796,28.080945 12.276426,26.115526 C 9.7352436,23.574191 7.9502174,19.262452 7.3051948,15.340405 6.9826854,13.379382 6.9315321,11.521157 7.1086577,10.126264 7.2857834,8.7313714 7.7863101,7.8878158 7.8370009,7.8371293 7.8876178,7.7865075 8.7312195,7.2858826 10.126079,7.1087681 11.520939,6.9316537 13.379124,6.9827849 15.340092,7.30531 19.262032,7.9503604 23.57372,9.7353437 26.114946,12.276664 L 33.964867,20.126779 43.872647,30.034802 45.838017,32.000221 49.757197,28.080945 47.791827,26.115526 37.884047,16.207502 30.034126,8.3573873 C 26.297119,4.6202436 21.067927,2.6190161 16.24185,1.8252595 15.035329,1.6268204 13.857398,1.5050562 12.715744,1.4668595 z M 18.160976,32.000221 14.241796,35.919498 16.207167,37.884917 C 22.485258,44.163385 19.836723,41.514503 26.114946,47.792941 L 33.964867,55.643056 C 37.701905,59.380186 42.931052,61.381428 47.757144,62.175183 50.17019,62.572062 52.484737,62.65919 54.566574,62.394848 56.648412,62.130506 58.573814,61.613105 60.092734,60.094152 61.61165,58.575194 62.12904,56.649744 62.393373,54.567856 62.657706,52.485968 62.570584,50.171361 62.173714,47.758257 61.379975,42.932048 59.378777,37.702771 55.641748,33.96564 L 53.676377,32.000221 49.757197,35.919498 51.722568,37.884917 C 54.263833,40.426251 56.048761,44.737986 56.693799,48.660038 57.016317,50.621063 57.067445,52.479267 56.890336,53.874179 56.713227,55.26909 56.212649,56.112656 56.161993,56.163314 56.111331,56.213976 55.267792,56.71456 53.872914,56.891675 52.478036,57.06879 50.619879,57.017658 48.658902,56.695133 44.736948,56.050082 40.425318,54.265113 37.884047,51.723779 L 30.034126,43.873664 C 23.75588,37.595204 26.40443,40.2441 20.126347,33.96564 L 18.160976,32.000221 z"
     id="path14"
     inkscape:connector-curvature="0" />
  <path
     style="font-size:medium;font-style:normal;font-variant:normal;font-weight:normal;font-stretch:normal;text-indent:0;text-align:start;text-decoration:none;line-height:normal;letter-spacing:normal;word-spacing:normal;text-transform:none;direction:ltr;block-progression:tb;writing-mode:lr-tb;text-anchor:start;baseline-shift:baseline;color:#000000;fill:#2aaaaa;fill-opacity:1;stroke:none;stroke-width:2.58312583;marker:none;visibility:visible;display:inline;overflow:visible;enable-background:accumulate;font-family:Sans Serif;-inkscape-font-specification:Sans"
     d="M 51.283249,1.4668595 C 50.141593,1.5050562 48.963667,1.6268204 47.757144,1.8252595 42.931052,2.6190153 37.701905,4.6202569 33.964867,8.3573873 L 31.999497,10.322806 35.918677,14.242083 37.884047,12.276664 C 40.425318,9.7353304 44.736948,7.9503611 48.658902,7.30531 50.619879,6.9827845 52.478036,6.9316529 53.872914,7.1087681 55.267792,7.2858834 56.111331,7.7864668 56.161993,7.8371293 56.212649,7.8877873 56.713227,8.7313526 56.890336,10.126264 57.067445,11.521176 57.016317,13.37938 56.693799,15.340405 56.048761,19.262457 54.263833,23.574192 51.722568,26.115526 L 43.872647,33.96564 C 37.594336,40.244106 40.243175,37.595216 33.964867,43.873664 L 31.999497,45.839083 35.918677,49.75836 37.884047,47.792941 C 44.162357,41.514491 41.513519,44.16338 47.791827,37.884917 L 55.641748,30.034802 C 59.378777,26.297672 61.379975,21.068395 62.173714,16.242186 62.570584,13.829082 62.657706,11.514475 62.393373,9.4325871 62.12904,7.3506991 61.61165,5.4252493 60.092734,3.9062913 58.573814,2.3873379 56.648412,1.8699371 54.566574,1.605595 53.525655,1.4734238 52.424906,1.4286629 51.283249,1.4668595 z M 28.080317,14.242083 26.114946,16.207502 C 19.836723,22.485954 22.485261,19.837056 16.207167,26.115526 L 8.357246,33.96564 C 4.6203415,37.702769 2.6190006,42.932044 1.8252795,47.758257 1.4284171,50.171364 1.3412563,52.485949 1.6056204,54.567856 1.8699845,56.649762 2.3872441,58.575222 3.90626,60.094152 5.4251649,61.613146 7.3505916,62.130505 9.4324193,62.394848 11.514247,62.659191 13.828812,62.572062 16.24185,62.175183 21.067927,61.381427 26.297119,59.380199 30.034126,55.643056 L 31.999497,53.677637 28.080317,49.75836 26.114946,51.723779 C 23.57372,54.265099 19.262032,56.050083 15.340092,56.695133 13.379124,57.017658 11.520939,57.068789 10.126079,56.891675 8.7312195,56.71456 7.8876178,56.213935 7.8370009,56.163314 7.7863101,56.112627 7.2857834,55.269072 7.1086577,53.874179 6.9315321,52.479286 6.9826854,50.621061 7.3051948,48.660038 7.9502174,44.737991 9.7352436,40.426252 12.276426,37.884917 L 20.126347,30.034802 C 26.404428,23.756344 23.75588,26.405255 30.034126,20.126779 L 31.999497,18.16136 28.080317,14.242083 z"
     id="path18"
     inkscape:connector-curvature="0" />
</svg>
