/* XPM */
static char * application_x_knotter_xpm[] = {
"32 32 310 2",
"  	c None",
". 	c #6437B4",
"+ 	c #603ABD",
"@ 	c #851A56",
"# 	c #5438CD",
"$ 	c #4046FF",
"% 	c #513AD3",
"& 	c #5A31B8",
"* 	c #3F45FF",
"= 	c #5534C2",
"- 	c #692E9C",
"; 	c #464CFF",
"> 	c #474DFF",
", 	c #484EFF",
"' 	c #484DFF",
") 	c #474CFF",
"! 	c #6630A4",
"~ 	c #752881",
"{ 	c #4C52FF",
"] 	c #4E54FF",
"^ 	c #5055FF",
"/ 	c #76308D",
"( 	c #782D85",
"_ 	c #4F54FF",
": 	c #4D53FF",
"< 	c #742A87",
"[ 	c #832063",
"} 	c #5455F9",
"| 	c #545AFF",
"1 	c #575CFF",
"2 	c #743AA0",
"3 	c #783898",
"4 	c #555AFF",
"5 	c #5457FC",
"6 	c #822165",
"7 	c #5F51E0",
"8 	c #5A5FFF",
"9 	c #5D62FF",
"0 	c #7148BB",
"a 	c #7447B5",
"b 	c #5B60FF",
"c 	c #5F54E6",
"d 	c #733DA6",
"e 	c #5E63FF",
"f 	c #6166FF",
"g 	c #6E58D7",
"h 	c #7056D0",
"i 	c #6267FF",
"j 	c #5F63FF",
"k 	c #7242AF",
"l 	c #862767",
"m 	c #6065FF",
"n 	c #6569FF",
"o 	c #6C66EF",
"p 	c #922453",
"q 	c #912552",
"r 	c #6F65EA",
"s 	c #666BFF",
"t 	c #872A6B",
"u 	c #7647B2",
"v 	c #676BFF",
"w 	c #6D6CF6",
"x 	c #8F3068",
"y 	c #912E64",
"z 	c #6D71FD",
"A 	c #686DFF",
"B 	c #744DBD",
"C 	c #86357E",
"D 	c #8C306D",
"E 	c #952953",
"F 	c #7477FD",
"G 	c #6E72FF",
"H 	c #6B68F4",
"I 	c #9A2D54",
"J 	c #97447D",
"K 	c #945497",
"L 	c #9264B2",
"M 	c #9363B2",
"N 	c #955396",
"O 	c #933F7C",
"P 	c #7A7EFF",
"Q 	c #7478FF",
"R 	c #7C56BF",
"S 	c #94224A",
"T 	c #8E3C7A",
"U 	c #8B55A9",
"V 	c #8679E7",
"W 	c #898CFF",
"X 	c #8E91FF",
"Y 	c #9295FF",
"Z 	c #9497FF",
"` 	c #9489EB",
" .	c #91539B",
"..	c #7F83FF",
"+.	c #797DFF",
"@.	c #8A408A",
"#.	c #833685",
"$.	c #7A54BE",
"%.	c #7475FA",
"&.	c #8285FF",
"*.	c #888CFF",
"=.	c #8F92FF",
"-.	c #9598FF",
";.	c #999CFF",
">.	c #9C9FFF",
",.	c #9D9FFF",
"'.	c #9E67A8",
").	c #8F7BDF",
"!.	c #8487FF",
"~.	c #7D80FF",
"{.	c #91326A",
"].	c #902455",
"^.	c #7841A7",
"/.	c #767AFF",
"(.	c #7E81FF",
"_.	c #8589FF",
":.	c #8C8FFF",
"<.	c #9593F8",
"[.	c #9D73BA",
"}.	c #A15583",
"|.	c #A54C73",
"1.	c #A54A71",
"2.	c #A33756",
"3.	c #9F385D",
"4.	c #8E92FF",
"5.	c #878BFF",
"6.	c #827CF0",
"7.	c #7F419B",
"8.	c #7746B0",
"9.	c #83276D",
"0.	c #6064FF",
"a.	c #686CFF",
"b.	c #7074FF",
"c.	c #787AFC",
"d.	c #8667C9",
"e.	c #944E90",
"f.	c #9B4172",
"g.	c #9E4E80",
"h.	c #9194FF",
"i.	c #898DFF",
"j.	c #8D58AA",
"k.	c #7261DF",
"l.	c #842B72",
"m.	c #664BCF",
"n.	c #8B387B",
"o.	c #962954",
"p.	c #9D67A8",
"q.	c #8A8DFF",
"r.	c #924381",
"s.	c #95234B",
"t.	c #6B6FFE",
"u.	c #6652D8",
"v.	c #7F2671",
"w.	c #585DFF",
"x.	c #5F64FF",
"y.	c #7553C4",
"z.	c #9B4477",
"A.	c #9C5791",
"B.	c #9890EF",
"C.	c #9093FF",
"D.	c #97315C",
"E.	c #7B50B9",
"F.	c #7F2976",
"G.	c #693BB2",
"H.	c #565BFF",
"I.	c #86347D",
"J.	c #8A69C6",
"K.	c #8A8EFF",
"L.	c #9E4E81",
"M.	c #9F4D7D",
"N.	c #9396FF",
"O.	c #8D90FF",
"P.	c #8A74D8",
"Q.	c #883378",
"R.	c #6165FF",
"S.	c #595EFF",
"T.	c #673FBD",
"U.	c #831A59",
"V.	c #4C51FD",
"W.	c #5F5EF6",
"X.	c #933F7B",
"Y.	c #868AFF",
"Z.	c #928EF4",
"`.	c #9F3153",
" +	c #9F2D4C",
".+	c #948DEF",
"++	c #888BFF",
"@+	c #934380",
"#+	c #625DF0",
"$+	c #5055FE",
"%+	c #811E5E",
"&+	c #702687",
"*+	c #4A50FF",
"=+	c #5257FF",
"-+	c #743DA4",
";+	c #876ACC",
">+	c #8689FF",
",+	c #9084E8",
"'+	c #9E2F53",
")+	c #93589D",
"!+	c #8770D4",
"~+	c #773B9C",
"{+	c #5459FF",
"]+	c #702A8D",
"^+	c #513BD4",
"/+	c #4E53FF",
"(+	c #802974",
"_+	c #952B55",
":+	c #8379EE",
"<+	c #8386FF",
"[+	c #8A7EE8",
"}+	c #9B2C52",
"|+	c #8F4D96",
"1+	c #972B57",
"2+	c #82286F",
"3+	c #494FFF",
"4+	c #4F3FDE",
"5+	c #7D1C66",
"6+	c #3C42FF",
"7+	c #4349FF",
"8+	c #4F4BEF",
"9+	c #952B58",
"0+	c #7D77EF",
"a+	c #7D81FF",
"b+	c #7F82FF",
"c+	c #8377E8",
"d+	c #982B52",
"e+	c #544BE8",
"f+	c #454BFF",
"g+	c #3E44FF",
"h+	c #7A1D6C",
"i+	c #6F2A8E",
"j+	c #6235B4",
"k+	c #942A59",
"l+	c #7871EF",
"m+	c #777BFF",
"n+	c #7A70E9",
"o+	c #962650",
"p+	c #6733AA",
"q+	c #4147FF",
"r+	c #6C2A95",
"s+	c #5942D4",
"t+	c #3D43FF",
"u+	c #4146FF",
"v+	c #494BFB",
"w+	c #5E43D0",
"x+	c #72369C",
"y+	c #7A348D",
"z+	c #822F7A",
"A+	c #892964",
"B+	c #8F2456",
"C+	c #91275B",
"D+	c #726BF0",
"E+	c #6D72FF",
"F+	c #7167E9",
"G+	c #922350",
"H+	c #902354",
"I+	c #832F78",
"J+	c #7B358E",
"K+	c #743699",
"L+	c #6044CE",
"M+	c #4B4DFB",
"N+	c #4348FF",
"O+	c #5344E0",
"P+	c #6241C3",
"Q+	c #4247FF",
"R+	c #4C51FF",
"S+	c #5156FF",
"T+	c #7E3990",
"U+	c #8E265C",
"V+	c #6964F1",
"W+	c #6368FF",
"X+	c #6165FD",
"Y+	c #5258FF",
"Z+	c #494EFF",
"`+	c #464BFF",
" @	c #5D43CE",
".@	c #782A80",
"+@	c #6A30A1",
"@@	c #4E3EDD",
"#@	c #3D41FD",
"$@	c #4B50FF",
"%@	c #7B3793",
"&@	c #89245E",
"*@	c #605CF1",
"=@	c #5359FF",
"-@	c #4248FF",
";@	c #3E43FE",
">@	c #4D3CDC",
",@	c #6830A3",
"'@	c #762881",
")@	c #7A1C6B",
"!@	c #6F2383",
"~@	c #6D2B92",
"{@	c #6832A5",
"]@	c #5D3FCA",
"^@	c #5A48DD",
"/@	c #5F48D5",
"(@	c #6E3AA7",
"_@	c #8C1A49",
":@	c #86205C",
"<@	c #6F39A4",
"[@	c #5F47D4",
"}@	c #5A49DD",
"|@	c #5D41CC",
"1@	c #6634AA",
"2@	c #6F2B91",
"3@	c #6F2483",
"4@	c #771B6B",
"5@	c #891446",
"                                                                ",
"                                                                ",
"                              . + @                             ",
"                            # $ $ %                             ",
"                          & * $ $ * =                           ",
"                        - ; > , , ' ) !                         ",
"                      ~ { ] ^ / ( ^ _ : <                       ",
"                    [ } | 1 2     3 1 4 5 6                     ",
"                    7 8 9 0         a 9 b c                     ",
"                  d e f g             h i j k                   ",
"                l m n o p             q r s f t                 ",
"                u v w x                 y z A B                 ",
"                C D                     E F G H                 ",
"                        I J K L M N     O P Q R                 ",
"                S T U V W X Y Z Z `      ...+.@.                ",
"            #.$.%.P &.*.=.-.;.>.,.'.    ).!.~.{.  ].            ",
"          ^.v G /.(._.:.<.[.}.|.1.2.  3.4.5.6.    7.8.          ",
"        9.0.a.b.c.d.e.f.              g.h.i.j.    k.i l.        ",
"        m.m A n.o.                    p.Y q.r.  s.t.i u.        ",
"      v.w.x.y.        z.A.            B.C.*.D.    E.i 8 F.      ",
"      G.H.e I.      J.K.h.L.        M.N.O.P.      Q.R.S.T.      ",
"    U.V.| W.        X.Y.:.Z.`.     +.+X ++@+        #+1 $+%+    ",
"    &+*+=+-+          ;+>+K.,+'+    )+5.!+          ~+{+{ ]+    ",
"    ^+) /+(+          _+:+<+>+[+}+    |+1+          2+^ 3+4+    ",
"  5+6+7+8+              9+0+a+b+c+d+                  e+f+g+h+  ",
"  i+* * j+                k+l+/.m+n+o+                p+q+6+r+  ",
"  s+7+t+u+v+w+x+y+z+A+B+    C+D+G E+F+G+H+A+I+J+K+L+M+N+6+q+O+  ",
"  P+, Q+6+q+) R+S+H.8 9 T+    U+V+n W+X+j b 1 Y+/+Z+7+t+$ `+ @  ",
"    .@+@@@#@u+`+$@_ Y+H.S.%@    &@*@b 8 1 =@^ R+> -@;@>@,@'@    ",
"            )@!@~@{@]@^@/@(@_@    :@<@[@}@|@1@2@3@4@5@          ",
"                                                                ",
"                                                                "};
