<?xml version="1.0" encoding="UTF-8" standalone="no"?>
<!-- Created with Inkscape (http://www.inkscape.org/) -->

<svg
   xmlns:dc="http://purl.org/dc/elements/1.1/"
   xmlns:cc="http://creativecommons.org/ns#"
   xmlns:rdf="http://www.w3.org/1999/02/22-rdf-syntax-ns#"
   xmlns:svg="http://www.w3.org/2000/svg"
   xmlns="http://www.w3.org/2000/svg"
   version="1.1"
   width="96"
   height="4"
   id="svg2">
  <defs
     id="defs4" />
  <metadata
     id="metadata7">
    <rdf:RDF>
      <cc:Work
         rdf:about="">
        <dc:format>image/svg+xml</dc:format>
        <dc:type
           rdf:resource="http://purl.org/dc/dcmitype/StillImage" />
        <dc:title></dc:title>
      </cc:Work>
    </rdf:RDF>
  </metadata>
  <g
     transform="translate(0,-1048.3622)"
     id="layer1">
    <path
       d="M 2.5,1049.0497 2.03125,1050.6435 2.90625,1052.0185 4,1052.3622 12,1052.3622 13.5,1051.6747 13.96875,1050.081 13.09375,1048.706 12,1048.3622 4,1048.3622 z M 18.5,1049.0497 18.03125,1050.6435 18.90625,1052.0185 20,1052.3622 28,1052.3622 29.5,1051.6747 29.96875,1050.081 29.09375,1048.706 28,1048.3622 20,1048.3622 z M 34.5,1049.0497 34.03125,1050.6435 34.90625,1052.0185 36,1052.3622 44,1052.3622 45.5,1051.6747 45.96875,1050.081 45.09375,1048.706 44,1048.3622 36,1048.3622 z M 50.5,1049.0497 50.03125,1050.6435 50.90625,1052.0185 52,1052.3622 60,1052.3622 61.5,1051.6747 61.96875,1050.081 61.09375,1048.706 60,1048.3622 52,1048.3622 z M 66.5,1049.0497 66.03125,1050.6435 66.90625,1052.0185 68,1052.3622 76,1052.3622 77.5,1051.6747 77.96875,1050.081 77.09375,1048.706 76,1048.3622 68,1048.3622 z M 82.5,1049.0497 82.03125,1050.6435 82.90625,1052.0185 84,1052.3622 92,1052.3622 93.5,1051.6747 93.96875,1050.081 93.09375,1048.706 92,1048.3622 84,1048.3622 z"
       id="path2987"
       style="font-size:medium;font-style:normal;font-variant:normal;font-weight:normal;font-stretch:normal;text-indent:0;text-align:start;text-decoration:none;line-height:normal;letter-spacing:normal;word-spacing:normal;text-transform:none;direction:ltr;block-progression:tb;writing-mode:lr-tb;text-anchor:start;baseline-shift:baseline;color:#000000;fill:#000000;fill-opacity:1;fill-rule:nonzero;stroke:none;stroke-width:4;marker:none;visibility:visible;display:inline;overflow:visible;enable-background:accumulate;font-family:Sans;-inkscape-font-specification:Sans" />
  </g>
</svg>
