<?xml version="1.0" encoding="UTF-8" standalone="no"?>
<!-- Created with Inkscape (http://www.inkscape.org/) -->

<svg
   xmlns:dc="http://purl.org/dc/elements/1.1/"
   xmlns:cc="http://creativecommons.org/ns#"
   xmlns:rdf="http://www.w3.org/1999/02/22-rdf-syntax-ns#"
   xmlns:svg="http://www.w3.org/2000/svg"
   xmlns="http://www.w3.org/2000/svg"
   version="1.1"
   width="96"
   height="4"
   id="svg2">
  <defs
     id="defs4" />
  <metadata
     id="metadata7">
    <rdf:RDF>
      <cc:Work
         rdf:about="">
        <dc:format>image/svg+xml</dc:format>
        <dc:type
           rdf:resource="http://purl.org/dc/dcmitype/StillImage" />
        <dc:title></dc:title>
      </cc:Work>
    </rdf:RDF>
  </metadata>
  <g
     transform="translate(0,-1048.3622)"
     id="layer1">
    <path
       d="M 2.5,1049.0497 2.03125,1050.6435 2.90625,1052.0185 4,1052.3622 8,1052.3622 9.5,1051.6747 9.96875,1050.081 9.09375,1048.706 8,1048.3622 4,1048.3622 z M 14.5,1049.0497 14.03125,1050.6435 14.90625,1052.0185 16,1052.3622 20,1052.3622 21.5,1051.6747 21.96875,1050.081 21.09375,1048.706 20,1048.3622 16,1048.3622 z M 26.5,1049.0497 26.03125,1050.6435 26.90625,1052.0185 28,1052.3622 32,1052.3622 33.5,1051.6747 33.96875,1050.081 33.09375,1048.706 32,1048.3622 28,1048.3622 z M 38.5,1049.0497 38.03125,1050.6435 38.90625,1052.0185 40,1052.3622 44,1052.3622 45.5,1051.6747 45.96875,1050.081 45.09375,1048.706 44,1048.3622 40,1048.3622 z M 50.5,1049.0497 50.03125,1050.6435 50.90625,1052.0185 52,1052.3622 56,1052.3622 57.5,1051.6747 57.96875,1050.081 57.09375,1048.706 56,1048.3622 52,1048.3622 z M 62.5,1049.0497 62.03125,1050.6435 62.90625,1052.0185 64,1052.3622 68,1052.3622 69.5,1051.6747 69.96875,1050.081 69.09375,1048.706 68,1048.3622 64,1048.3622 z M 74.5,1049.0497 74.03125,1050.6435 74.90625,1052.0185 76,1052.3622 80,1052.3622 81.5,1051.6747 81.96875,1050.081 81.09375,1048.706 80,1048.3622 76,1048.3622 z M 86.5,1049.0497 86.03125,1050.6435 86.90625,1052.0185 88,1052.3622 92,1052.3622 93.5,1051.6747 93.96875,1050.081 93.09375,1048.706 92,1048.3622 88,1048.3622 z"
       style="font-size:medium;font-style:normal;font-variant:normal;font-weight:normal;font-stretch:normal;text-indent:0;text-align:start;text-decoration:none;line-height:normal;letter-spacing:normal;word-spacing:normal;text-transform:none;direction:ltr;block-progression:tb;writing-mode:lr-tb;text-anchor:start;baseline-shift:baseline;color:#000000;fill:#000000;fill-opacity:1;fill-rule:nonzero;stroke:none;stroke-width:4;marker:none;visibility:visible;display:inline;overflow:visible;enable-background:accumulate;font-family:Sans;-inkscape-font-specification:Sans" />
  </g>
</svg>
