<?xml version="1.0" encoding="UTF-8" standalone="no"?>
<!-- Created with Inkscape (http://www.inkscape.org/) -->

<svg
   xmlns:dc="http://purl.org/dc/elements/1.1/"
   xmlns:cc="http://creativecommons.org/ns#"
   xmlns:rdf="http://www.w3.org/1999/02/22-rdf-syntax-ns#"
   xmlns:svg="http://www.w3.org/2000/svg"
   xmlns="http://www.w3.org/2000/svg"
   version="1.1"
   width="96"
   height="4"
   id="svg2">
  <defs
     id="defs4" />
  <metadata
     id="metadata7">
    <rdf:RDF>
      <cc:Work
         rdf:about="">
        <dc:format>image/svg+xml</dc:format>
        <dc:type
           rdf:resource="http://purl.org/dc/dcmitype/StillImage" />
        <dc:title></dc:title>
      </cc:Work>
    </rdf:RDF>
  </metadata>
  <g
     transform="translate(0,-1048.3622)"
     id="layer1">
    <path
       d="M 0.5,1049.0497 0.03125,1050.6435 0.90625,1052.0185 2,1052.3622 18,1052.3622 19.5,1051.6747 19.96875,1050.081 19.09375,1048.706 18,1048.3622 2,1048.3622 z M 24.5,1049.0497 24.03125,1050.6435 24.90625,1052.0185 26,1052.3622 30,1052.3622 31.5,1051.6747 31.96875,1050.081 31.09375,1048.706 30,1048.3622 26,1048.3622 z M 36.5,1049.0497 36.03125,1050.6435 36.90625,1052.0185 38,1052.3622 54,1052.3622 55.5,1051.6747 55.96875,1050.081 55.09375,1048.706 54,1048.3622 38,1048.3622 z M 60.5,1049.0497 60.03125,1050.6435 60.90625,1052.0185 62,1052.3622 66,1052.3622 67.5,1051.6747 67.96875,1050.081 67.09375,1048.706 66,1048.3622 62,1048.3622 z M 72.5,1049.0497 72.03125,1050.6435 72.90625,1052.0185 74,1052.3622 90,1052.3622 91.5,1051.6747 91.96875,1050.081 91.09375,1048.706 90,1048.3622 74,1048.3622 z"
       id="path2987"
       style="font-size:medium;font-style:normal;font-variant:normal;font-weight:normal;font-stretch:normal;text-indent:0;text-align:start;text-decoration:none;line-height:normal;letter-spacing:normal;word-spacing:normal;text-transform:none;direction:ltr;block-progression:tb;writing-mode:lr-tb;text-anchor:start;baseline-shift:baseline;color:#000000;fill:#000000;fill-opacity:1;fill-rule:nonzero;stroke:none;stroke-width:4;marker:none;visibility:visible;display:inline;overflow:visible;enable-background:accumulate;font-family:Sans;-inkscape-font-specification:Sans" />
  </g>
</svg>
