<?xml version="1.0" encoding="UTF-8" standalone="no"?>
<svg
   xmlns:dc="http://purl.org/dc/elements/1.1/"
   xmlns:cc="http://creativecommons.org/ns#"
   xmlns:rdf="http://www.w3.org/1999/02/22-rdf-syntax-ns#"
   xmlns:svg="http://www.w3.org/2000/svg"
   xmlns="http://www.w3.org/2000/svg"
   xmlns:xlink="http://www.w3.org/1999/xlink"
   xmlns:sodipodi="http://sodipodi.sourceforge.net/DTD/sodipodi-0.dtd"
   xmlns:inkscape="http://www.inkscape.org/namespaces/inkscape"
   version="1.2"
   id="svg2"
   inkscape:version="0.48.2 r9819"
   width="227.22"
   height="227.22"
   sodipodi:docname="logo.svg">
  <metadata
     id="metadata18">
    <rdf:RDF>
      <cc:Work
         rdf:about="">
        <dc:format>image/svg+xml</dc:format>
        <dc:type
           rdf:resource="http://purl.org/dc/dcmitype/StillImage" />
      </cc:Work>
    </rdf:RDF>
  </metadata>
  <sodipodi:namedview
     pagecolor="#ffffff"
     bordercolor="#666666"
     borderopacity="1"
     objecttolerance="10"
     gridtolerance="10"
     guidetolerance="10"
     inkscape:pageopacity="0"
     inkscape:pageshadow="2"
     inkscape:window-width="1226"
     inkscape:window-height="749"
     id="namedview16"
     showgrid="false"
     fit-margin-top="0"
     fit-margin-left="0"
     fit-margin-right="0"
     fit-margin-bottom="0"
     inkscape:zoom="0.89702957"
     inkscape:cx="-57.235578"
     inkscape:cy="88.038895"
     inkscape:window-x="41"
     inkscape:window-y="-4"
     inkscape:window-maximized="1"
     inkscape:current-layer="svg2" />
  <title
     id="title4">Qt Svg Document</title>
  <desc
     id="desc6">Generated with Qt</desc>
  <defs
     id="defs8">
    <linearGradient
       id="linearGradient3763">
      <stop
         style="stop-color:#b4b6ff;stop-opacity:1;"
         offset="0"
         id="stop3765" />
      <stop
         style="stop-color:#3c42ff;stop-opacity:1;"
         offset="1"
         id="stop3767" />
    </linearGradient>
    <radialGradient
       inkscape:collect="always"
       xlink:href="#linearGradient3763"
       id="radialGradient3769"
       cx="-34.245228"
       cy="20.796322"
       fx="-34.245228"
       fy="20.796322"
       r="113.60975"
       gradientTransform="matrix(1,0,0,0.80663631,0,-1.3234101)"
       gradientUnits="userSpaceOnUse" />
  </defs>
  <g
     id="g10"
     style="fill:none;stroke:#000000;stroke-width:1;stroke-linecap:square;stroke-linejoin:bevel"
     transform="translate(0.00325061,21.970351)">
    <g
       transform="translate(145.065,98.4838)"
       font-size="9"
       font-weight="400"
       font-style="normal"
       id="g12"
       style="font-size:9px;font-style:normal;font-weight:400;fill:#3c42ff;fill-opacity:1;stroke:#1500a4;stroke-width:3;stroke-linecap:square;stroke-linejoin:bevel;stroke-opacity:1;font-family:Sans Serif">
      <path
         vector-effect="none"
         d="M 21.1098,-19.1341 14.5274,18.2914 14.3155,19.2768 14.0231,20.2949 13.6551,21.3428 13.216,22.4173 12.7105,23.5152 12.1431,24.6335 11.5186,25.7689 10.8416,26.9183 10.1167,28.0787 9.34854,29.2468 8.5418,30.4196 7.70111,31.5939 6.8311,32.7665 5.93641,33.9344 5.02169,35.0944 4.09157,36.2434 3.1507,37.3782 2.20371,38.4957 1.25524,39.5927 0.30994,40.6662 -0.627556,41.713 -1.55261,42.7299 -2.46057,43.7139 -3.34681,44.6617 -4.20669,45.5703 -5.03556,46.4365 -5.82878,47.2573 -6.58171,48.0293 -7.28972,48.7496 -7.94817,49.415 -8.5524,50.0223 -9.09779,50.5684 -9.57969,51.0503 -26.5503,34.0797 -25.7112,33.2409 -24.7725,32.3015 -23.7502,31.2751 -22.6604,30.1753 -21.5191,29.0158 -20.3423,27.8101 -19.146,26.5718 -17.9463,25.3147 -16.7592,24.0523 -15.6008,22.7982 -14.4871,21.5661 -13.4341,20.3695 -12.4578,19.2222 -11.5743,18.1377 -10.7996,17.1296 -10.1498,16.2116 -9.64088,15.3973 -9.28886,14.7002 -9.10979,14.1341 -2.5274,-23.2914 -2.54237,-23.2905 -2.58109,-23.3238 -2.64383,-23.3913 -2.73082,-23.4934 -2.84232,-23.63 -2.97857,-23.8013 -3.13983,-24.0075 -3.32633,-24.2486 -3.53832,-24.5248 -3.77606,-24.8362 -4.03978,-25.183 -4.32975,-25.5653 -4.64619,-25.9832 -4.98937,-26.4368 -5.35952,-26.9263 -5.7569,-27.4518 -6.18175,-28.0135 -6.63432,-28.6114 -7.11486,-29.2457 -7.62361,-29.9165 -8.16083,-30.6239 -8.72675,-31.3682 -9.32163,-32.1493 -9.94571,-32.9675 -10.5992,-33.8228 -11.2825,-34.7155 -11.9956,-35.6456 -12.739,-36.6132 -13.5128,-37.6185 -14.3173,-38.6616 -15.1527,-39.7427 -16.0194,-40.8618 -16.9174,-42.0192 -17.8471,-43.2148 -18.8087,-44.449 -19.8026,-45.7217 -20.8288,-47.0332 -21.8877,-48.3834 -22.9795,-49.7727 -24.1044,-51.2011 -25.2628,-52.6687 -26.4548,-54.1757 -27.6807,-55.7222 -28.9408,-57.3083 -30.2353,-58.9342 -31.5644,-60.5999 -32.9284,-62.3057 -34.3275,-64.0516 -35.3626,-65.3404 -35.8462,-64.6772 -37.1006,-62.9531 -38.3238,-61.2681 -39.5161,-59.6219 -40.6778,-58.0145 -41.809,-56.4457 -42.9099,-54.9153 -43.9809,-53.4233 -45.022,-51.9695 -46.0336,-50.5538 -47.0159,-49.176 -47.969,-47.8361 -48.8933,-46.5338 -49.7889,-45.269 -50.656,-44.0417 -51.495,-42.8517 -52.3059,-41.6988 -53.0891,-40.5829 -53.8448,-39.5039 -54.5731,-38.4617 -55.2743,-37.4561 -55.9487,-36.4869 -56.5965,-35.5541 -57.2178,-34.6576 -57.8129,-33.7971 -58.3821,-32.9726 -58.9255,-32.1839 -59.4434,-31.4309 -59.9361,-30.7134 -60.4036,-30.0314 -60.8464,-29.3846 -61.2645,-28.773 -61.6582,-28.1965 -62.0277,-27.6548 -62.3733,-27.1479 -62.6952,-26.6757 -62.9936,-26.2379 -63.2688,-25.8345 -63.5209,-25.4653 -63.7501,-25.1302 -63.9568,-24.8291 -64.1411,-24.5618 -64.3033,-24.3282 -64.4436,-24.1281 -64.5621,-23.9616 -64.6592,-23.8283 -64.7351,-23.7281 -64.7899,-23.6611 -64.824,-23.6269 -64.8374,-23.6255 -88.283,-18.4967 -88.3669,-18.9566 -88.423,-19.4412 -88.4514,-19.9505 -88.4523,-20.4844 -88.4258,-21.0427 -88.372,-21.6254 -88.2913,-22.2324 -88.1836,-22.8637 -88.0492,-23.519 -87.8882,-24.1983 -87.7009,-24.9016 -87.4872,-25.6287 -87.2475,-26.3795 -86.9818,-27.154 -86.6903,-27.952 -86.3732,-28.7734 -86.0306,-29.6183 -85.6627,-30.4864 -85.2696,-31.3776 -84.8516,-32.292 -84.4087,-33.2293 -83.9411,-34.1896 -83.449,-35.1726 -82.9325,-36.1784 -82.3919,-37.2067 -81.8271,-38.2576 -81.2385,-39.331 -80.6262,-40.4266 -79.9903,-41.5445 -79.3309,-42.6846 -78.6483,-43.8467 -77.9426,-45.0308 -77.214,-46.2367 -76.4625,-47.4644 -75.6884,-48.7139 -74.8919,-49.9849 -74.0731,-51.2774 -73.2321,-52.5913 -72.3691,-53.9265 -71.4842,-55.2829 -70.5777,-56.6605 -69.6496,-58.0591 -68.7002,-59.4786 -67.7296,-60.919 -66.7379,-62.3801 -65.7254,-63.8619 -64.6921,-65.3643 -63.6382,-66.8871 -62.5639,-68.4303 -61.4694,-69.9938 -60.3547,-71.5775 -59.2202,-73.1813 -58.0658,-74.8051 -56.8918,-76.4488 -55.6983,-78.1123 -54.4855,-79.7956 -53.2536,-81.4985 -52.0026,-83.2209 -50.7328,-84.9628 -49.4444,-86.7241 -48.1374,-88.5046 -46.812,-90.3043 -45.4685,-92.123 -44.6921,-93.0669 -43.8251,-93.9267 -42.8746,-94.6952 -41.8478,-95.3652 -40.7519,-95.9295 -39.5942,-96.3809 -38.3817,-96.7122 -37.1218,-96.9163 -35.8216,-96.9859 -34.0483,-96.8558 -32.3559,-96.4779 -30.7627,-95.8706 -29.2875,-95.0527 -27.9487,-94.0425 -26.765,-92.8588 -26.5297,-92.547 -26.5172,-92.564 -25.0441,-90.7528 -23.5908,-88.9607 -22.1575,-87.1877 -20.7443,-85.434 -19.3514,-83.6996 -17.9789,-81.9846 -16.6271,-80.2892 -15.296,-78.6133 -13.9858,-76.9571 -12.6968,-75.3207 -11.429,-73.7042 -10.1826,-72.1075 -8.95788,-70.5309 -7.75488,-68.9744 -6.5738,-67.4381 -5.41482,-65.9221 -4.27809,-64.4265 -3.16377,-62.9513 -2.07204,-61.4966 -1.00306,-60.0626 0.0430099,-58.6493 1.066,-57.2568 2.06576,-55.8851 3.04211,-54.5345 3.99489,-53.2049 4.92393,-51.8964 5.82907,-50.6092 6.71016,-49.3432 7.56701,-48.0987 8.39947,-46.8757 9.20738,-45.6743 9.99056,-44.4945 10.7489,-43.3364 11.4821,-42.2002 12.1901,-41.0859 12.8728,-39.9936 13.5299,-38.9234 14.1613,-37.8754 14.7668,-36.8496 15.3463,-35.8462 15.8996,-34.8652 16.4265,-33.9068 16.9269,-32.9709 17.4006,-32.0578 17.8474,-31.1674 18.2672,-30.2999 18.6599,-29.4553 19.0251,-28.6338 19.3629,-27.8354 19.6729,-27.0602 19.9552,-26.3083 20.2094,-25.5798 20.4354,-24.8748 20.6331,-24.1933 20.8023,-23.5355 20.9428,-22.9013 21.0544,-22.291 21.1371,-21.7046 21.1906,-21.1422 21.2148,-20.6039 21.2095,-20.0897 21.1746,-19.5997 21.1098,-19.1341 M -51.3745,5.16256 -88.4967,13.283 -88.4867,13.2931 -88.4951,13.3319 -88.5218,13.3996 -88.5668,13.4965 -88.6302,13.6227 -88.7121,13.7785 -88.8123,13.9641 -88.931,14.1796 -89.0682,14.4255 -89.2238,14.7017 -89.3979,15.0087 -89.5906,15.3465 -89.8017,15.7154 -90.0315,16.1156 -90.2798,16.5474 -90.5466,17.0109 -90.8321,17.5064 -91.1362,18.0341 -91.4589,18.5942 -91.8004,19.1869 -92.1604,19.8125 -92.5392,20.4711 -92.9367,21.163 -93.3529,21.8884 -93.7879,22.6475 -94.2416,23.4406 -94.7141,24.2678 -95.2055,25.1294 -95.7156,26.0255 -96.2446,26.9565 -96.7925,27.9225 -97.3592,28.9237 -97.9449,29.9604 -98.5494,31.0328 -99.1729,32.141 -99.8153,33.2854 -100.477,34.4661 -101.157,35.6834 -101.857,36.9374 -102.575,38.2284 -103.312,39.5566 -104.069,40.9223 -104.845,42.3255 -105.639,43.7667 -106.453,45.2459 -107.286,46.7634 -108.138,48.3194 -109.009,49.9141 -109.9,51.5478 -110.81,53.2206 -111.738,54.9328 -112.445,56.2385 -112.186,56.2612 -111.05,56.36 -109.924,56.4573 -108.808,56.5529 -107.702,56.6469 -106.605,56.7392 -105.519,56.83 -104.442,56.9191 -103.375,57.0066 -102.318,57.0925 -101.271,57.1768 -100.234,57.2595 -99.206,57.3405 -98.1882,57.4199 -97.1802,57.4978 -96.1819,57.574 -95.1934,57.6486 -94.2147,57.7215 -93.2457,57.7929 -92.2865,57.8627 -91.337,57.9309 -90.3972,57.9974 -89.4671,58.0624 -88.5467,58.1257 -87.6361,58.1874 -86.7351,58.2476 -85.8438,58.3061 -84.9622,58.363 -84.0902,58.4183 -83.2279,58.4721 -82.3752,58.5242 -81.5321,58.5747 -80.6987,58.6236 -79.8749,58.671 -79.0607,58.7167 -78.2561,58.7608 -77.4611,58.8034 -76.6757,58.8443 -75.8998,58.8837 -75.1335,58.9215 -74.3767,58.9576 -73.6295,58.9922 -72.8919,59.0252 -72.1637,59.0566 -71.4451,59.0864 -70.736,59.1147 -70.0364,59.1413 -69.3462,59.1664 -68.6656,59.1899 -66.2031,59.2694 -63.9855,59.3365 -62.0035,59.3948 -60.2478,59.4478 -58.709,59.499 -57.3777,59.552 -56.2445,59.6101 -55.3002,59.6771 -54.5354,59.7562 -53.9406,59.8512 -53.5066,59.9655 -53.224,60.1026 -53.0834,60.2661 -53.0755,60.4594 -53.1909,60.6861 -53.4203,60.9497 -36.4497,77.9203 -36.9098,78.3471 -37.4147,78.7529 -37.9633,79.1384 -38.5546,79.5037 -39.1875,79.8494 -39.8609,80.1759 -40.5738,80.4835 -41.3251,80.7726 -42.1138,81.0437 -42.9387,81.2972 -43.7988,81.5333 -44.6931,81.7527 -45.6204,81.9556 -46.5798,82.1424 -47.5701,82.3136 -48.5903,82.4695 -49.6393,82.6106 -50.716,82.7373 -51.8194,82.8499 -52.9484,82.9489 -54.1019,83.0346 -55.2789,83.1075 -56.4784,83.1679 -57.6992,83.2163 -58.9402,83.2531 -60.2005,83.2786 -61.4789,83.2933 -62.7743,83.2976 -64.0858,83.2918 -65.4123,83.2764 -66.7526,83.2517 -68.1057,83.2183 -69.4705,83.1763 -70.1747,83.1521 -70.8887,83.1261 -71.6125,83.0986 -72.3462,83.0694 -73.0897,83.0385 -73.843,83.006 -74.6061,82.9719 -75.379,82.9361 -76.1617,82.8987 -76.9542,82.8597 -77.7565,82.819 -78.5685,82.7767 -79.3903,82.7328 -80.2218,82.6872 -81.063,82.64 -81.914,82.5912 -82.7747,82.5407 -83.6451,82.4887 -84.5252,82.4349 -85.415,82.3796 -86.3145,82.3226 -87.2236,82.264 -88.1424,82.2038 -89.0709,82.142 -90.009,82.0785 -90.9568,82.0134 -91.9142,81.9467 -92.8812,81.8784 -93.8578,81.8084 -94.844,81.7369 -95.8398,81.6637 -96.8452,81.5889 -97.8601,81.5125 -98.8847,81.4344 -99.9187,81.3548 -100.962,81.2735 -102.016,81.1907 -103.078,81.1062 -104.15,81.0201 -105.232,80.9324 -106.323,80.8431 -107.424,80.7521 -108.534,80.6596 -109.654,80.5655 -110.783,80.4697 -111.922,80.3724 -113.07,80.2734 -114.227,80.1729 -115.394,80.0707 -116.571,79.967 -117.756,79.8616 -118.952,79.7546 -120.156,79.6461 -121.37,79.5359 -122.593,79.4242 -123.826,79.3108 -125.068,79.1959 -126.32,79.0793 -127.58,78.9612 -128.85,78.8414 -130.13,78.7201 -131.419,78.5972 -132.717,78.4727 -134.342,78.2044 -135.886,77.7261 -137.334,77.0533 -138.668,76.2015 -139.875,75.1863 -140.939,74.0229 -141.844,72.7271 -142.575,71.3142 -143.116,69.7996 -143.452,68.199 -143.568,66.5278 -143.475,65.0271 -143.203,63.5819 -142.765,62.2034 -142.17,60.9028 -142.169,60.9046 -141.095,58.8844 -140.031,56.8892 -138.977,54.9191 -137.932,52.9743 -136.896,51.0551 -135.87,49.1615 -134.853,47.2938 -133.846,45.4523 -132.849,43.6369 -131.861,41.8481 -130.883,40.0859 -129.914,38.3505 -128.955,36.6422 -128.006,34.961 -127.066,33.3073 -126.136,31.6811 -125.216,30.0827 -124.305,28.5123 -123.404,26.97 -122.513,25.4561 -121.632,23.9707 -120.76,22.514 -119.898,21.0862 -119.046,19.6875 -118.204,18.3181 -117.371,16.9782 -116.549,15.6679 -115.736,14.3874 -114.933,13.137 -114.14,11.9169 -113.357,10.7271 -112.584,9.56791 -111.821,8.43952 -111.067,7.3421 -110.324,6.27585 -109.591,5.24096 -108.868,4.2376 -108.154,3.26596 -107.451,2.32625 -106.758,1.41864 -106.075,0.543322 -105.402,-0.299515 -104.739,-1.10968 -104.086,-1.88699 -103.443,-2.63126 -102.811,-3.34229 -102.188,-4.01989 -101.576,-4.66389 -100.974,-5.27409 -100.383,-5.8503 -99.801,-6.39233 -99.2296,-6.90001 -98.6686,-7.37313 -98.1178,-7.81151 -97.5773,-8.21496 -97.0471,-8.58329 -96.5272,-8.91632 -96.0176,-9.21386 -95.5184,-9.47572 -95.0296,-9.7017 -94.5511,-9.89163 -94.0831,-10.0453 -93.6255,-10.1626 -56.5033,-18.283 -55.9426,-18.3954 -55.326,-18.4998 -54.6561,-18.5966 -53.9353,-18.6857 -53.1662,-18.7674 -52.3513,-18.8419 -51.4932,-18.9093 -50.5942,-18.9697 -49.6571,-19.0234 -48.6842,-19.0704 -47.6781,-19.111 -46.6414,-19.1452 -45.5765,-19.1733 -44.486,-19.1955 -43.3725,-19.2118 -42.2383,-19.2224 -41.0861,-19.2276 -39.9183,-19.2274 -38.7375,-19.222 -37.5463,-19.2115 -36.347,-19.1962 -35.1424,-19.1762 -33.9348,-19.1516 -32.7268,-19.1227 -31.5209,-19.0895 -30.3197,-19.0522 -29.1256,-19.011 -27.9413,-18.9661 -26.7691,-18.9175 -25.6117,-18.8655 -24.4716,-18.8103 -23.3512,-18.7519 -22.2531,-18.6905 -21.1798,-18.6264 -20.1339,-18.5596 -19.1179,-18.4903 -18.1342,-18.4187 -17.1855,-18.345 -16.2742,-18.2692 -15.4029,-18.1916 -14.574,-18.1122 -13.7901,-18.0314 -13.0538,-17.9492 -12.3675,-17.8657 -11.7338,-17.7813 -11.1551,-17.6959 -10.6341,-17.6098 -14.7914,6.0274 -15.3262,5.94083 -15.94,5.85498 -16.628,5.77007 -17.3858,5.68637 -18.2087,5.60409 -19.0921,5.52349 -20.0314,5.44481 -21.022,5.36827 -22.0593,5.29413 -23.1387,5.22263 -24.2556,5.15399 -25.4054,5.08846 -26.5835,5.02629 -27.7853,4.96771 -29.0061,4.91296 -30.2415,4.86227 -31.4867,4.8159 -32.7371,4.77408 -33.9883,4.73705 -35.2355,4.70504 -36.4741,4.6783 -37.6997,4.65708 -38.9074,4.64159 -40.0928,4.6321 -41.2513,4.62883 -42.3782,4.63203 -43.4689,4.64194 -44.5189,4.65879 -45.5235,4.68283 -46.4781,4.71429 -47.3782,4.75342 -48.219,4.80045 -48.9961,4.85562 -49.7048,4.91918 -50.3405,4.99137 -50.8986,5.07241 -51.3745,5.16256 M -36.4497,34.0797 -9.57969,60.9497 -9.81071,60.6845 -9.92769,60.4562 -9.92126,60.2612 -9.78203,60.0961 -9.50062,59.9573 -9.06764,59.8411 -8.47371,59.7441 -7.70944,59.6628 -6.76545,59.5935 -5.63235,59.5327 -4.30076,59.4768 -2.7613,59.4223 -1.00458,59.3657 0.978782,59.3033 3.19817,59.2317 5.66298,59.1473 6.34429,59.1224 7.03509,59.096 7.73539,59.0679 8.4452,59.0383 9.16453,59.007 9.89339,58.9741 10.6318,58.9396 11.3797,58.9035 12.1372,58.8658 12.9043,58.8265 13.6809,58.7856 14.4671,58.743 15.2629,58.6988 16.0683,58.6531 16.8833,58.6057 17.708,58.5566 18.5422,58.506 19.3861,58.4537 20.2397,58.3999 21.1028,58.3444 21.9757,58.2872 22.8582,58.2285 23.7504,58.1681 24.6523,58.1061 25.5639,58.0425 26.4852,57.9773 27.4162,57.9104 28.3569,57.8419 29.3074,57.7717 30.2676,57.7 31.2376,57.6266 32.2173,57.5516 33.2068,57.4749 34.206,57.3966 35.2151,57.3167 36.2339,57.2351 37.2626,57.1519 38.3011,57.0671 39.3494,56.9806 40.4075,56.8925 41.4755,56.8028 42.5533,56.7114 43.641,56.6183 44.7385,56.5237 45.8459,56.4273 46.9632,56.3294 48.0904,56.2298 48.854,56.1618 48.2518,55.1348 47.2441,53.4202 46.257,51.7442 45.2905,50.1068 44.3446,48.5075 43.4191,46.9463 42.5142,45.4229 41.6298,43.9372 40.7658,42.4888 39.9222,41.0777 39.099,39.7035 38.2963,38.3661 37.5138,37.0653 36.7517,35.8009 36.01,34.5726 35.2885,33.3802 34.5872,32.2236 33.9062,31.1024 33.2455,30.0166 32.6049,28.9659 31.9844,27.9501 31.3842,26.969 30.804,26.0223 30.2439,25.1099 29.7039,24.2316 29.1839,23.387 28.684,22.5762 28.2041,21.7987 27.7441,21.0544 27.3041,20.3432 26.884,19.6647 26.4838,19.0188 26.1034,18.4053 25.743,17.824 25.4023,17.2746 25.0815,16.7569 24.7804,16.2708 24.4991,15.816 24.2376,15.3923 23.9957,14.9995 23.7736,14.6374 23.571,14.3058 23.3882,14.0045 23.2249,13.7332 23.0812,13.4918 22.9571,13.28 22.8525,13.0976 22.7675,12.9445 22.7019,12.8204 22.6558,12.725 22.6292,12.6583 22.622,12.62 22.6341,12.6098 26.7914,-11.0274 27.2564,-10.928 27.7336,-10.7914 28.223,-10.6178 28.7245,-10.4073 29.2382,-10.1601 29.764,-9.87653 30.3019,-9.55665 30.8519,-9.20069 31.4139,-8.80884 31.9879,-8.38129 32.5739,-7.91823 33.172,-7.41985 33.7819,-6.88634 34.4039,-6.31789 35.0377,-5.71469 35.6835,-5.07694 36.3411,-4.40482 37.0106,-3.69852 37.6919,-2.95824 38.385,-2.18417 39.0899,-1.37648 39.8065,-0.535388 40.535,0.338931 41.2751,1.24628 42.0269,2.18648 42.7904,3.15932 43.5656,4.16463 44.3524,5.20221 45.1508,6.27187 45.9609,7.37341 46.7824,8.50666 47.6156,9.67142 48.4602,10.8675 49.3164,12.0947 50.184,13.3528 51.0631,14.6417 51.9537,15.9612 52.8556,17.311 53.769,18.6909 54.6937,20.1009 55.6298,21.5407 56.5772,23.01 57.5359,24.5088 58.5059,26.0368 59.4872,27.5938 60.4797,29.1797 61.4835,30.7942 62.4984,32.4372 63.5245,34.1084 64.5618,35.8077 65.6102,37.5349 66.6697,39.2899 67.7403,41.0723 68.8219,42.882 69.9146,44.7189 71.0184,46.5826 72.1331,48.4732 73.2589,50.3903 74.3955,52.3337 75.5432,54.3034 76.7017,56.299 77.8711,58.3204 79.0514,60.3674 79.6089,61.4568 80.0546,62.6074 80.3816,63.8119 80.5829,65.0632 80.6515,66.3543 80.5364,68.0236 80.2011,69.6226 79.6612,71.1357 78.9321,72.5474 78.0293,73.8425 76.9682,75.0053 75.7643,76.0206 74.4329,76.8729 72.9896,77.5467 71.4498,78.0266 69.8289,78.2972 69.8245,78.2968 68.5251,78.4241 67.235,78.5497 65.9543,78.6738 64.6829,78.7962 63.4209,78.917 62.1682,79.0362 60.9249,79.1538 59.6909,79.2697 58.4664,79.3841 57.2512,79.4968 56.0454,79.6079 54.849,79.7174 53.662,79.8253 52.4845,79.9315 51.3163,80.0361 50.1577,80.1391 49.0085,80.2405 47.8687,80.3402 46.7384,80.4383 45.6176,80.5348 44.5062,80.6297 43.4044,80.7229 42.3121,80.8145 41.2293,80.9045 40.156,80.9928 39.0922,81.0795 38.038,81.1646 36.9933,81.2481 35.9582,81.3299 34.9326,81.41 33.9167,81.4886 32.9103,81.5655 31.9135,81.6407 30.9263,81.7143 29.9487,81.7863 28.9807,81.8566 28.0224,81.9253 27.0737,81.9924 26.1347,82.0578 25.2053,82.1215 24.2855,82.1837 23.3755,82.2441 22.4751,82.3029 21.5845,82.3601 20.7035,82.4156 19.8322,82.4695 18.9707,82.5217 18.1189,82.5723 17.2768,82.6212 16.4445,82.6685 15.6219,82.7141 14.8091,82.7581 14.006,82.8004 13.2128,82.841 12.4293,82.88 11.6556,82.9173 10.8918,82.953 10.1377,82.987 9.39351,83.0194 8.65913,83.0501 7.93459,83.0791 7.21991,83.1064 6.51509,83.1321 5.14888,83.1768 3.79438,83.2129 2.45267,83.2402 1.12481,83.2582 -0.188138,83.2665 -1.48509,83.2647 -2.76498,83.2524 -4.02675,83.2292 -5.26932,83.1947 -6.49161,83.1485 -7.69257,83.0901 -8.87112,83.0193 -10.0262,82.9355 -11.1567,82.8383 -12.2616,82.7275 -13.3399,82.6024 -14.3903,82.4629 -15.412,82.3083 -16.4037,82.1384 -17.3645,81.9528 -18.2933,81.751 -19.1889,81.5326 -20.0504,81.2972 -20.8766,81.0444 -21.6665,80.7739 -22.4191,80.4851 -23.1331,80.1777 -23.8077,79.8514 -24.4417,79.5056 -25.034,79.14 -25.5836,78.7542 -26.0893,78.3478 -26.5503,77.9203 -53.4203,51.0503 -53.8984,50.5797 -54.459,50.04 -55.0963,49.4344 -55.8044,48.7664 -56.5772,48.0394 -57.4088,47.2569 -58.2932,46.4222 -59.2246,45.5388 -60.1968,44.6101 -61.2041,43.6396 -62.2404,42.6306 -63.2997,41.5866 -64.3762,40.511 -65.4639,39.4073 -66.5567,38.2788 -67.6488,37.129 -68.7343,35.9612 -69.807,34.779 -70.8612,33.5858 -71.8908,32.3849 -72.8898,31.1798 -73.8524,29.9739 -74.7726,28.7707 -75.6444,27.5736 -76.4619,26.3859 -77.2191,25.2111 -77.91,24.0527 -78.5287,22.914 -79.0693,21.7986 -79.5258,20.7097 -79.8922,19.6509 -80.1626,18.6255 -56.717,13.4967 -56.5208,14.0051 -56.1358,14.6429 -55.5793,15.3978 -54.8682,16.2572 -54.0198,17.2088 -53.0512,18.2401 -51.9794,19.3387 -50.8216,20.4921 -49.5948,21.6878 -48.3164,22.9135 -47.0032,24.1567 -45.6725,25.405 -44.3414,26.6458 -43.027,27.8669 -41.7464,29.0556 -40.5167,30.1996 -39.3551,31.2865 -38.2786,32.3038 -37.3045,33.239 -36.4497,34.0797"
         id="path14"
         inkscape:connector-curvature="0"
         style="fill-rule:evenodd;fill-opacity:1;fill:url(#radialGradient3769)" />
    </g>
  </g>
</svg>
