<?xml version="1.0" encoding="UTF-8" standalone="no"?>
<svg
   xmlns:dc="http://purl.org/dc/elements/1.1/"
   xmlns:cc="http://creativecommons.org/ns#"
   xmlns:rdf="http://www.w3.org/1999/02/22-rdf-syntax-ns#"
   xmlns:svg="http://www.w3.org/2000/svg"
   xmlns="http://www.w3.org/2000/svg"
   xmlns:xlink="http://www.w3.org/1999/xlink"
   xmlns:sodipodi="http://sodipodi.sourceforge.net/DTD/sodipodi-0.dtd"
   xmlns:inkscape="http://www.inkscape.org/namespaces/inkscape"
   version="1.2"
   id="svg2"
   inkscape:version="0.48.2 r9819"
   width="278.38"
   height="278.38"
   sodipodi:docname="logo_big.svg"
   inkscape:export-filename="/home/bazzy/Documents/C++/Knotter/img/icon.png"
   inkscape:export-xdpi="25.34988"
   inkscape:export-ydpi="25.34988">
  <metadata
     id="metadata18">
    <rdf:RDF>
      <cc:Work
         rdf:about="">
        <dc:format>image/svg+xml</dc:format>
        <dc:type
           rdf:resource="http://purl.org/dc/dcmitype/StillImage" />
        <dc:title>Qt Svg Document</dc:title>
      </cc:Work>
    </rdf:RDF>
  </metadata>
  <sodipodi:namedview
     pagecolor="#ffffff"
     bordercolor="#666666"
     borderopacity="1"
     objecttolerance="10"
     gridtolerance="10"
     guidetolerance="10"
     inkscape:pageopacity="0"
     inkscape:pageshadow="2"
     inkscape:window-width="1226"
     inkscape:window-height="749"
     id="namedview16"
     showgrid="false"
     fit-margin-top="0"
     fit-margin-left="0"
     fit-margin-right="0"
     fit-margin-bottom="0"
     inkscape:zoom="0.44851479"
     inkscape:cx="208.04939"
     inkscape:cy="44.847659"
     inkscape:window-x="41"
     inkscape:window-y="-4"
     inkscape:window-maximized="1"
     inkscape:current-layer="svg2" />
  <title
     id="title4">Qt Svg Document</title>
  <desc
     id="desc6">Generated with Qt</desc>
  <defs
     id="defs8">
    <linearGradient
       id="linearGradient3763">
      <stop
         style="stop-color:#b4b6ff;stop-opacity:1;"
         offset="0"
         id="stop3765" />
      <stop
         style="stop-color:#3c42ff;stop-opacity:1;"
         offset="1"
         id="stop3767" />
    </linearGradient>
    <radialGradient
       inkscape:collect="always"
       xlink:href="#linearGradient3763"
       id="radialGradient3802"
       cx="-3.1531036"
       cy="-1.4769078"
       fx="-3.1531036"
       fy="-1.4769078"
       r="132.785"
       gradientTransform="matrix(1,0,0,0.9179945,0,-2.3744774)"
       gradientUnits="userSpaceOnUse" />
    <radialGradient
       inkscape:collect="always"
       xlink:href="#linearGradient3763"
       id="radialGradient3804"
       gradientUnits="userSpaceOnUse"
       gradientTransform="matrix(1,0,0,0.9179945,0,-2.3744774)"
       cx="-3.1531036"
       cy="-1.4769078"
       fx="-3.1531036"
       fy="-1.4769078"
       r="132.785" />
    <radialGradient
       inkscape:collect="always"
       xlink:href="#linearGradient3763"
       id="radialGradient3833"
       cx="1.2377257"
       cy="-17.978075"
       fx="1.2377257"
       fy="-17.978075"
       r="132.785"
       gradientTransform="matrix(1,0,0,0.9299277,0,8.6524887)"
       gradientUnits="userSpaceOnUse"
       spreadMethod="reflect" />
    <radialGradient
       inkscape:collect="always"
       xlink:href="#linearGradient3763"
       id="radialGradient3837"
       gradientUnits="userSpaceOnUse"
       gradientTransform="matrix(1,0,0,0.9299277,0,8.6524887)"
       spreadMethod="reflect"
       cx="1.2377257"
       cy="-17.978075"
       fx="1.2377257"
       fy="-17.978075"
       r="132.785" />
    <radialGradient
       inkscape:collect="always"
       xlink:href="#linearGradient3763-5"
       id="radialGradient3837-3"
       gradientUnits="userSpaceOnUse"
       gradientTransform="matrix(1,0,0,0.9299277,0,8.6524887)"
       spreadMethod="reflect"
       cx="1.2377257"
       cy="-17.978075"
       fx="1.2377257"
       fy="-17.978075"
       r="132.785" />
    <linearGradient
       id="linearGradient3763-5">
      <stop
         style="stop-color:#b4b6ff;stop-opacity:1;"
         offset="0"
         id="stop3765-3" />
      <stop
         style="stop-color:#3c42ff;stop-opacity:1;"
         offset="1"
         id="stop3767-9" />
    </linearGradient>
    <radialGradient
       inkscape:collect="always"
       xlink:href="#linearGradient3763-5"
       id="radialGradient3835-8"
       gradientUnits="userSpaceOnUse"
       gradientTransform="matrix(1,0,0,0.9299277,0,8.6524887)"
       spreadMethod="reflect"
       cx="1.2377257"
       cy="-17.978075"
       fx="1.2377257"
       fy="-17.978075"
       r="132.785" />
    <linearGradient
       id="linearGradient3856">
      <stop
         style="stop-color:#b4b6ff;stop-opacity:1;"
         offset="0"
         id="stop3858" />
      <stop
         style="stop-color:#3c42ff;stop-opacity:1;"
         offset="1"
         id="stop3860" />
    </linearGradient>
    <radialGradient
       r="132.785"
       fy="-17.978075"
       fx="1.2377257"
       cy="-17.978075"
       cx="1.2377257"
       spreadMethod="reflect"
       gradientTransform="matrix(1,0,0,0.9299277,0,8.6524887)"
       gradientUnits="userSpaceOnUse"
       id="radialGradient3864"
       xlink:href="#linearGradient3763-5"
       inkscape:collect="always" />
  </defs>
  <g
     id="g3058"
     font-style="normal"
     font-weight="400"
     font-size="9"
     transform="translate(139.19,166.56055)"
     style="font-size:9px;font-style:normal;font-weight:400;fill:url(#radialGradient3837-3);fill-opacity:1;stroke:#a40000;stroke-width:3;stroke-linecap:square;stroke-linejoin:bevel;stroke-opacity:1;font-family:Sans Serif">
    <path
       id="path3060"
       d="M 70.2881,-54.8696 53.7237,6.94969 53.4337,7.99333 53.121,9.04545 52.7861,10.1051 52.4295,11.1713 52.0518,12.2431 51.6536,13.3195 51.2353,14.3997 50.7976,15.4826 50.3411,16.5673 49.8661,17.6529 49.3734,18.7383 48.8634,19.8227 48.3368,20.9051 47.7939,21.9845 47.2355,23.06 46.6621,24.1306 46.0741,25.1954 45.4722,26.2534 44.8569,27.3036 44.2287,28.3452 43.5883,29.3772 42.9361,30.3985 42.2727,31.4083 41.5987,32.4056 40.9146,33.3895 40.2209,34.3589 39.5183,35.313 38.8072,36.2507 38.0882,37.1712 37.3618,38.0735 36.6287,38.9566 35.8893,39.8196 35.1443,40.6615 34.3941,41.4814 33.6393,42.2783 32.8805,43.0513 12.3744,22.5452 13.2022,21.6984 14.0086,20.8354 14.7935,19.9563 15.5567,19.0615 16.2979,18.1512 17.0172,17.2257 17.7142,16.2854 18.3888,15.3304 19.0409,14.3611 19.6702,13.3777 20.2768,12.3805 20.8602,11.3699 21.4205,10.3461 21.9575,9.30935 22.4709,8.25996 22.9606,7.19823 23.4265,6.12442 23.8684,5.03883 24.2861,3.94173 24.6794,2.83341 25.0483,1.71414 25.3925,0.584228 25.7119,-0.556063 42.2763,-62.3753 42.2697,-62.4057 42.2414,-62.4647 42.1909,-62.5525 42.1181,-62.6692 42.0227,-62.8149 41.9044,-62.9898 41.763,-63.194 41.5983,-63.4276 41.41,-63.6908 41.1979,-63.9835 40.9616,-64.3061 40.701,-64.6585 40.4158,-65.041 40.1057,-65.4536 39.7705,-65.8965 39.41,-66.3697 39.0238,-66.8735 38.6118,-67.4079 38.1737,-67.973 37.7092,-68.569 37.2181,-69.196 36.7001,-69.8542 36.155,-70.5436 35.5825,-71.2643 34.9824,-72.0165 34.3545,-72.8004 33.6984,-73.6159 33.0139,-74.4634 32.3008,-75.3428 31.5589,-76.2543 30.7878,-77.198 29.9873,-78.1741 29.1572,-79.1826 28.2972,-80.2237 27.4071,-81.2976 26.4866,-82.4042 25.5355,-83.5439 24.5534,-84.7166 23.5403,-85.9225 22.4957,-87.1617 21.4195,-88.4344 20.3114,-89.7407 19.1712,-91.0806 17.9985,-92.4544 16.7933,-93.8621 15.5551,-95.3038 14.2838,-96.7798 12.979,-98.29 11.6407,-99.8347 10.2684,-101.414 8.86196,-103.028 7.42112,-104.676 5.94562,-106.36 4.43522,-108.079 2.88966,-109.833 1.30868,-111.622 0,-113.099 -1.30868,-111.622 -2.88966,-109.833 -4.43522,-108.079 -5.94562,-106.36 -7.42112,-104.676 -8.86196,-103.028 -10.2684,-101.414 -11.6407,-99.8347 -12.979,-98.29 -14.2838,-96.7798 -15.5551,-95.3038 -16.7933,-93.8621 -17.9985,-92.4544 -19.1712,-91.0806 -20.3114,-89.7407 -21.4195,-88.4344 -22.4957,-87.1617 -23.5403,-85.9225 -24.5534,-84.7166 -25.5355,-83.5439 -26.4866,-82.4042 -27.4071,-81.2976 -28.2972,-80.2237 -29.1572,-79.1826 -29.9873,-78.1741 -30.7878,-77.198 -31.5589,-76.2543 -32.3008,-75.3428 -33.0139,-74.4634 -33.6984,-73.6159 -34.3545,-72.8004 -34.9824,-72.0165 -35.5825,-71.2643 -36.155,-70.5436 -36.7001,-69.8542 -37.2181,-69.196 -37.7092,-68.569 -38.1737,-67.973 -38.6118,-67.4079 -39.0238,-66.8735 -39.41,-66.3697 -39.7705,-65.8965 -40.1057,-65.4536 -40.4158,-65.041 -40.701,-64.6585 -40.9616,-64.3061 -41.1979,-63.9835 -41.41,-63.6908 -41.5983,-63.4276 -41.763,-63.194 -41.9044,-62.9898 -42.0227,-62.8149 -42.1181,-62.6692 -42.1909,-62.5525 -42.2414,-62.4647 -42.2697,-62.4057 -42.2763,-62.3753 -70.2881,-54.8696 -70.4442,-55.5415 -70.5597,-56.2403 -70.6347,-56.9656 -70.6697,-57.7174 -70.6648,-58.4956 -70.6203,-59.3001 -70.5364,-60.1306 -70.4134,-60.9872 -70.2516,-61.8697 -70.0512,-62.7779 -69.8123,-63.7117 -69.5354,-64.6711 -69.2207,-65.6558 -68.8683,-66.6658 -68.4786,-67.701 -68.0517,-68.7612 -67.5881,-69.8463 -67.0878,-70.9561 -66.5512,-72.0907 -65.9784,-73.2497 -65.3699,-74.4332 -64.7257,-75.6409 -64.0462,-76.8728 -63.3316,-78.1288 -62.5822,-79.4087 -61.7982,-80.7124 -60.9799,-82.0397 -60.1274,-83.3906 -59.2411,-84.765 -58.3213,-86.1626 -57.3681,-87.5834 -56.3818,-89.0273 -55.3627,-90.4942 -54.3111,-91.9838 -53.2271,-93.4962 -52.111,-95.0311 -50.9631,-96.5884 -49.7836,-98.1681 -48.5728,-99.77 -47.331,-101.394 -46.0583,-103.04 -44.755,-104.708 -43.4215,-106.397 -42.0579,-108.108 -40.6644,-109.841 -39.2414,-111.595 -37.7891,-113.37 -36.3077,-115.166 -34.7975,-116.983 -33.2588,-118.822 -31.6917,-120.68 -30.0966,-122.56 -28.4737,-124.46 -26.8233,-126.38 -25.1455,-128.321 -23.4407,-130.281 -21.7091,-132.262 -19.9509,-134.262 -18.1665,-136.283 -16.356,-138.323 -14.5197,-140.382 -12.6579,-142.461 -10.7707,-144.559 -9.93971,-145.408 -9.0419,-146.187 -8.08184,-146.892 -7.06407,-147.517 -5.99315,-148.059 -4.8736,-148.512 -3.70997,-148.872 -2.5068,-149.135 -1.26863,-149.297 0,-149.351 1.69101,-149.254 3.32472,-148.968 4.89025,-148.506 6.37673,-147.877 7.77328,-147.094 9.06901,-146.166 10.253,-145.104 10.7563,-144.543 10.7707,-144.559 12.6579,-142.461 14.5197,-140.382 16.356,-138.323 18.1665,-136.283 19.9509,-134.262 21.7091,-132.262 23.4407,-130.281 25.1455,-128.321 26.8233,-126.38 28.4737,-124.46 30.0966,-122.56 31.6917,-120.68 33.2588,-118.822 34.7975,-116.983 36.3077,-115.166 37.7891,-113.37 39.2414,-111.595 40.6644,-109.841 42.0579,-108.108 43.4215,-106.397 44.755,-104.708 46.0583,-103.04 47.331,-101.394 48.5728,-99.77 49.7836,-98.1681 50.9631,-96.5884 52.111,-95.0311 53.2271,-93.4962 54.3111,-91.9838 55.3627,-90.4942 56.3818,-89.0273 57.3681,-87.5834 58.3213,-86.1626 59.2411,-84.765 60.1274,-83.3906 60.9799,-82.0397 61.7982,-80.7124 62.5822,-79.4087 63.3316,-78.1288 64.0462,-76.8728 64.7257,-75.6409 65.3699,-74.4332 65.9784,-73.2497 66.5512,-72.0907 67.0878,-70.9561 67.5881,-69.8463 68.0517,-68.7612 68.4786,-67.701 68.8683,-66.6658 69.2207,-65.6558 69.5354,-64.6711 69.8123,-63.7117 70.0512,-62.7779 70.2516,-61.8697 70.4134,-60.9872 70.5364,-60.1306 70.6203,-59.3001 70.6648,-58.4956 70.6697,-57.7174 70.6347,-56.9656 70.5597,-56.2403 70.4442,-55.5415 70.2881,-54.8696 M -13.3375,-21.9891 -75.1568,-5.42468 -75.1798,-5.40385 -75.2167,-5.34977 -75.2675,-5.26216 -75.3321,-5.14074 -75.4107,-4.98523 -75.503,-4.79536 -75.6092,-4.57084 -75.7291,-4.3114 -75.8628,-4.01676 -76.0103,-3.68664 -76.1715,-3.32075 -76.3464,-2.91883 -76.5351,-2.48059 -76.7373,-2.00575 -76.9533,-1.49404 -77.1829,-0.945172 -77.426,-0.358871 -77.6828,0.265142 -77.9532,0.927146 -78.2371,1.62742 -78.5346,2.36624 -78.8455,3.14389 -79.17,3.96065 -79.5079,4.81679 -79.8593,5.7126 -80.2242,6.64835 -80.6025,7.62432 -80.9941,8.64079 -81.3992,9.69804 -81.8176,10.7963 -82.2493,11.936 -82.6944,13.1173 -83.1527,14.3404 -83.6244,15.6058 -84.1093,16.9135 -84.6075,18.2641 -85.1188,19.6576 -85.6434,21.0944 -86.1812,22.5748 -86.7321,24.099 -87.2962,25.6674 -87.8734,27.2801 -88.4637,28.9376 -89.0671,30.64 -89.6836,32.3876 -90.3131,34.1808 -90.9556,36.0198 -91.6112,37.9048 -92.2797,39.8362 -92.9612,41.8143 -93.6557,43.8392 -94.363,45.9114 -95.0833,48.031 -95.8165,50.1983 -96.5626,52.4137 -97.3215,54.6775 -97.9396,56.5295 -96.9768,56.7234 -95.7586,56.9674 -94.5508,57.2081 -93.3533,57.4454 -92.1662,57.6793 -90.9894,57.9099 -89.8228,58.1372 -88.6666,58.3611 -87.5206,58.5817 -86.3848,58.7989 -85.2593,59.0128 -84.1439,59.2234 -83.0388,59.4306 -81.9438,59.6345 -80.859,59.8352 -79.7843,60.0325 -78.7197,60.2264 -77.6653,60.4171 -76.6209,60.6045 -75.5867,60.7886 -74.5624,60.9693 -73.5483,61.1468 -72.5441,61.321 -71.5499,61.4919 -70.5658,61.6596 -69.5916,61.8239 -68.6273,61.985 -67.673,62.1428 -66.7287,62.2973 -65.7942,62.4485 -64.8696,62.5965 -63.9549,62.7413 -63.0501,62.8828 -62.1551,63.021 -61.2699,63.156 -60.3946,63.2877 -59.529,63.4162 -58.6732,63.5415 -57.8271,63.6635 -56.9908,63.7823 -56.1642,63.8979 -55.3473,64.0102 -54.5402,64.1193 -53.7426,64.2252 -52.9548,64.3279 -52.1766,64.4274 -51.408,64.5237 -50.649,64.6167 -49.8996,64.7066 -49.1598,64.7933 -48.4295,64.8768 -45.8407,65.1651 -43.525,65.4172 -41.47,65.6378 -39.6635,65.8316 -38.0932,66.0035 -36.7467,66.158 -35.6117,66.3001 -34.6758,66.4344 -33.9269,66.5657 -33.3524,66.6988 -32.9401,66.8383 -32.6777,66.9891 -32.5529,67.156 -32.5533,67.3436 -32.6666,67.5566 -32.8805,67.8 -12.3744,88.3061 -12.8847,88.7881 -13.4292,89.2484 -14.0071,89.6874 -14.6177,90.1053 -15.2602,90.5025 -15.9337,90.8792 -16.6374,91.2358 -17.3707,91.5726 -18.1326,91.8898 -18.9225,92.1878 -19.7394,92.4668 -20.5827,92.7273 -21.4516,92.9694 -22.3452,93.1935 -23.2627,93.3999 -24.2034,93.5889 -25.1665,93.7608 -26.1512,93.9159 -27.1567,94.0545 -28.1823,94.1769 -29.227,94.2834 -30.2902,94.3744 -31.3711,94.45 -32.4688,94.5107 -33.5826,94.5568 -34.7116,94.5884 -35.8552,94.606 -37.0125,94.6099 -38.1827,94.6003 -39.365,94.5775 -40.5587,94.5419 -41.7629,94.4938 -42.9769,94.4334 -44.1999,94.3611 -45.4311,94.2772 -46.6696,94.1819 -47.9148,94.0757 -49.1658,93.9587 -50.4218,93.8313 -51.6821,93.6938 -52.4563,93.6053 -53.2407,93.5134 -54.0354,93.4181 -54.8403,93.3193 -55.6554,93.2172 -56.4806,93.1118 -57.3161,93.0029 -58.1616,92.8906 -59.0173,92.775 -59.8832,92.6559 -60.7591,92.5336 -61.6451,92.4078 -62.5411,92.2787 -63.4472,92.1462 -64.3633,92.0103 -65.2895,91.8711 -66.2256,91.7286 -67.1718,91.5827 -68.1278,91.4334 -69.0939,91.2808 -70.0698,91.1249 -71.0557,90.9656 -72.0515,90.803 -73.0571,90.6371 -74.0726,90.4678 -75.098,90.2953 -76.1332,90.1194 -77.1782,89.9402 -78.233,89.7577 -79.2976,89.5719 -80.3719,89.3827 -81.456,89.1903 -82.5498,88.9946 -83.6534,88.7956 -84.7666,88.5933 -85.8895,88.3877 -87.0221,88.1788 -88.1643,87.9667 -89.3162,87.7512 -90.4776,87.5325 -91.6487,87.3106 -92.8294,87.0853 -94.0196,86.8568 -95.2193,86.6251 -96.4286,86.3901 -97.6474,86.1518 -98.8757,85.9103 -100.113,85.6656 -101.361,85.4176 -102.617,85.1663 -103.884,84.9119 -105.159,84.6542 -106.444,84.3932 -107.738,84.1291 -109.042,83.8617 -110.355,83.5911 -111.677,83.3173 -113.009,83.0403 -114.35,82.7601 -115.7,82.4767 -117.06,82.1901 -118.428,81.9003 -119.806,81.6073 -121.29,81.209 -122.706,80.6625 -124.046,79.9766 -125.301,79.1604 -126.461,78.2227 -127.519,77.1726 -128.464,76.019 -129.289,74.7708 -129.983,73.4371 -130.539,72.0267 -130.947,70.5487 -131.199,69.0121 -131.285,67.4256 -131.204,65.8828 -130.966,64.3874 -130.58,62.9483 -130.577,62.9518 -129.704,60.2684 -128.834,57.6166 -127.969,54.9966 -127.108,52.4087 -126.25,49.8532 -125.397,47.3303 -124.547,44.8404 -123.702,42.3836 -122.86,39.9604 -122.022,37.5709 -121.188,35.2155 -120.358,32.8943 -119.532,30.6078 -118.709,28.3562 -117.891,26.1397 -117.076,23.9587 -116.265,21.8134 -115.457,19.7041 -114.654,17.631 -113.853,15.5945 -113.057,13.5949 -112.264,11.6323 -111.475,9.70719 -110.69,7.81971 -109.908,5.97018 -109.13,4.15888 -108.355,2.38608 -107.584,0.652076 -106.816,-1.04287 -106.052,-2.69847 -105.291,-4.31445 -104.534,-5.89053 -103.78,-7.42642 -103.029,-8.92186 -102.282,-10.3766 -101.538,-11.7902 -100.798,-13.1626 -100.061,-14.4935 -99.3274,-15.7824 -98.597,-17.0292 -97.8698,-18.2337 -97.146,-19.3954 -96.4253,-20.5142 -95.7079,-21.5897 -94.9937,-22.6217 -94.2827,-23.6098 -93.5748,-24.5539 -92.8701,-25.4537 -92.1685,-26.3088 -91.4699,-27.1189 -90.7745,-27.8839 -90.0821,-28.6034 -89.3928,-29.2771 -88.7065,-29.9048 -88.0232,-30.4862 -87.3429,-31.021 -86.6655,-31.5089 -85.9911,-31.9497 -85.3196,-32.3431 -84.651,-32.6887 -83.9853,-32.9863 -83.3225,-33.2357 -82.6625,-33.4365 -20.8432,-50.0009 -19.9454,-50.2339 -19.0338,-50.4555 -18.1089,-50.6658 -17.1716,-50.8646 -16.2225,-51.0521 -15.2623,-51.2283 -14.2917,-51.3931 -13.3114,-51.5465 -12.3221,-51.6885 -11.3245,-51.8192 -10.3193,-51.9385 -9.3071,-52.0465 -8.28868,-52.1431 -7.26473,-52.2283 -6.23592,-52.3022 -5.20295,-52.3647 -4.16652,-52.4158 -3.12732,-52.4556 -2.08603,-52.484 -1.04336,-52.5011 0,-52.5068 1.04336,-52.5011 2.08603,-52.484 3.12732,-52.4556 4.16652,-52.4158 5.20295,-52.3647 6.23592,-52.3022 7.26473,-52.2283 8.28868,-52.1431 9.3071,-52.0465 10.3193,-51.9385 11.3245,-51.8192 12.3221,-51.6885 13.3114,-51.5465 14.2917,-51.3931 15.2623,-51.2283 16.2225,-51.0521 17.1716,-50.8646 18.1089,-50.6658 19.0338,-50.4555 19.9454,-50.2339 20.8432,-50.0009 13.3375,-21.9891 12.3228,-22.2501 11.3055,-22.4903 10.2856,-22.7096 9.2635,-22.908 8.23935,-23.0855 7.21339,-23.2421 6.18584,-23.3779 5.15694,-23.4927 4.12691,-23.5867 3.09597,-23.6598 2.06436,-23.712 1.03229,-23.7434 0,-23.7538 -1.03229,-23.7434 -2.06436,-23.712 -3.09597,-23.6598 -4.12691,-23.5867 -5.15694,-23.4927 -6.18584,-23.3779 -7.21339,-23.2421 -8.23935,-23.0855 -9.2635,-22.908 -10.2856,-22.7096 -11.3055,-22.4903 -12.3228,-22.2501 -13.3375,-21.9891 M -12.3744,22.5452 32.8805,67.8 32.6666,67.5566 32.5533,67.3436 32.5529,67.156 32.6777,66.9891 32.9401,66.8383 33.3524,66.6988 33.9269,66.5657 34.6758,66.4344 35.6117,66.3001 36.7467,66.158 38.0932,66.0035 39.6635,65.8316 41.47,65.6378 43.525,65.4172 45.8407,65.1651 48.4295,64.8768 49.1598,64.7933 49.8996,64.7066 50.649,64.6167 51.408,64.5237 52.1766,64.4274 52.9548,64.3279 53.7426,64.2252 54.5402,64.1193 55.3473,64.0102 56.1642,63.8979 56.9908,63.7823 57.8271,63.6635 58.6732,63.5415 59.529,63.4162 60.3946,63.2877 61.2699,63.156 62.1551,63.021 63.0501,62.8828 63.9549,62.7413 64.8696,62.5965 65.7942,62.4485 66.7287,62.2973 67.673,62.1428 68.6273,61.985 69.5916,61.8239 70.5658,61.6596 71.5499,61.4919 72.5441,61.321 73.5483,61.1468 74.5624,60.9693 75.5867,60.7886 76.6209,60.6045 77.6653,60.4171 78.7197,60.2264 79.7843,60.0325 80.859,59.8352 81.9438,59.6345 83.0388,59.4306 84.1439,59.2234 85.2593,59.0128 86.3848,58.7989 87.5206,58.5817 88.6666,58.3611 89.8228,58.1372 90.9894,57.9099 92.1662,57.6793 93.3533,57.4454 94.5508,57.2081 95.7586,56.9674 96.9768,56.7234 97.9396,56.5295 97.3215,54.6775 96.5626,52.4137 95.8165,50.1983 95.0833,48.031 94.363,45.9114 93.6557,43.8392 92.9612,41.8143 92.2797,39.8362 91.6112,37.9048 90.9556,36.0198 90.3131,34.1808 89.6836,32.3876 89.0671,30.64 88.4637,28.9376 87.8734,27.2801 87.2962,25.6674 86.7321,24.099 86.1812,22.5748 85.6434,21.0944 85.1188,19.6576 84.6075,18.2641 84.1093,16.9135 83.6244,15.6058 83.1527,14.3404 82.6944,13.1173 82.2493,11.936 81.8176,10.7963 81.3992,9.69804 80.9941,8.64079 80.6025,7.62432 80.2242,6.64835 79.8593,5.7126 79.5079,4.81679 79.17,3.96065 78.8455,3.14389 78.5346,2.36624 78.2371,1.62742 77.9532,0.927146 77.6828,0.265142 77.426,-0.358871 77.1829,-0.945172 76.9533,-1.49404 76.7373,-2.00575 76.5351,-2.48059 76.3464,-2.91883 76.1715,-3.32075 76.0103,-3.68664 75.8628,-4.01676 75.7291,-4.3114 75.6092,-4.57084 75.503,-4.79536 75.4107,-4.98523 75.3321,-5.14074 75.2675,-5.26216 75.2167,-5.34977 75.1798,-5.40385 75.1568,-5.42468 82.6625,-33.4365 83.3225,-33.2357 83.9853,-32.9863 84.651,-32.6887 85.3196,-32.3431 85.9911,-31.9497 86.6655,-31.5089 87.3429,-31.021 88.0232,-30.4862 88.7065,-29.9048 89.3928,-29.2771 90.0821,-28.6034 90.7745,-27.8839 91.4699,-27.1189 92.1685,-26.3088 92.8701,-25.4537 93.5748,-24.5539 94.2827,-23.6098 94.9937,-22.6217 95.7079,-21.5897 96.4253,-20.5142 97.146,-19.3954 97.8698,-18.2337 98.597,-17.0292 99.3274,-15.7824 100.061,-14.4935 100.798,-13.1626 101.538,-11.7902 102.282,-10.3766 103.029,-8.92186 103.78,-7.42642 104.534,-5.89053 105.291,-4.31445 106.052,-2.69847 106.816,-1.04287 107.584,0.652076 108.355,2.38608 109.13,4.15888 109.908,5.97018 110.69,7.81971 111.475,9.70719 112.264,11.6323 113.057,13.5949 113.853,15.5945 114.654,17.631 115.457,19.7041 116.265,21.8134 117.076,23.9587 117.891,26.1397 118.709,28.3562 119.532,30.6078 120.358,32.8943 121.188,35.2155 122.022,37.5709 122.86,39.9604 123.702,42.3836 124.547,44.8404 125.397,47.3303 126.25,49.8532 127.108,52.4087 127.969,54.9966 128.834,57.6166 129.704,60.2684 130.577,62.9518 130.965,64.3896 131.203,65.8839 131.285,67.4256 131.199,69.0124 130.947,70.5494 130.539,72.0277 129.983,73.4383 129.289,74.7723 128.464,76.0206 127.519,77.1744 126.462,78.2246 125.302,79.1623 124.048,79.9785 122.71,80.6643 121.295,81.2107 119.814,81.6088 119.806,81.6073 118.428,81.9003 117.06,82.1901 115.7,82.4767 114.35,82.7601 113.009,83.0403 111.677,83.3173 110.355,83.5911 109.042,83.8617 107.738,84.1291 106.444,84.3932 105.159,84.6542 103.884,84.9119 102.617,85.1663 101.361,85.4176 100.113,85.6656 98.8757,85.9103 97.6474,86.1518 96.4286,86.3901 95.2193,86.6251 94.0196,86.8568 92.8294,87.0853 91.6487,87.3106 90.4776,87.5325 89.3162,87.7512 88.1643,87.9667 87.0221,88.1788 85.8895,88.3877 84.7666,88.5933 83.6534,88.7956 82.5498,88.9946 81.456,89.1903 80.3719,89.3827 79.2976,89.5719 78.233,89.7577 77.1782,89.9402 76.1332,90.1194 75.098,90.2953 74.0726,90.4678 73.0571,90.6371 72.0515,90.803 71.0557,90.9656 70.0698,91.1249 69.0939,91.2808 68.1278,91.4334 67.1718,91.5827 66.2256,91.7286 65.2895,91.8711 64.3633,92.0103 63.4472,92.1462 62.5411,92.2787 61.6451,92.4078 60.7591,92.5336 59.8832,92.6559 59.0173,92.775 58.1616,92.8906 57.3161,93.0029 56.4806,93.1118 55.6554,93.2172 54.8403,93.3193 54.0354,93.4181 53.2407,93.5134 52.4563,93.6053 51.6821,93.6938 50.4218,93.8313 49.1658,93.9587 47.9148,94.0757 46.6696,94.1819 45.4311,94.2772 44.1999,94.3611 42.9769,94.4334 41.7629,94.4938 40.5587,94.5419 39.365,94.5775 38.1827,94.6003 37.0125,94.6099 35.8552,94.606 34.7116,94.5884 33.5826,94.5568 32.4688,94.5107 31.3711,94.45 30.2902,94.3744 29.227,94.2834 28.1823,94.1769 27.1567,94.0545 26.1512,93.9159 25.1665,93.7608 24.2034,93.5889 23.2627,93.3999 22.3452,93.1935 21.4516,92.9694 20.5827,92.7273 19.7394,92.4668 18.9225,92.1878 18.1326,91.8898 17.3707,91.5726 16.6374,91.2358 15.9337,90.8792 15.2602,90.5025 14.6177,90.1053 14.0071,89.6874 13.4292,89.2484 12.8847,88.7881 12.3744,88.3061 -32.8805,43.0513 -33.6393,42.2783 -34.3941,41.4814 -35.1443,40.6615 -35.8893,39.8196 -36.6287,38.9566 -37.3618,38.0735 -38.0882,37.1712 -38.8072,36.2507 -39.5183,35.313 -40.2209,34.3589 -40.9146,33.3895 -41.5987,32.4056 -42.2727,31.4083 -42.9361,30.3985 -43.5883,29.3772 -44.2287,28.3452 -44.8569,27.3036 -45.4722,26.2534 -46.0741,25.1954 -46.6621,24.1306 -47.2355,23.06 -47.7939,21.9845 -48.3368,20.9051 -48.8634,19.8227 -49.3734,18.7383 -49.8661,17.6529 -50.3411,16.5673 -50.7976,15.4826 -51.2353,14.3997 -51.6536,13.3195 -52.0518,12.2431 -52.4295,11.1713 -52.7861,10.1051 -53.121,9.04545 -53.4337,7.99333 -53.7237,6.94969 -25.7119,-0.556063 -25.3925,0.584228 -25.0483,1.71414 -24.6794,2.83341 -24.2861,3.94173 -23.8684,5.03883 -23.4265,6.12442 -22.9606,7.19823 -22.4709,8.25996 -21.9575,9.30935 -21.4205,10.3461 -20.8602,11.3699 -20.2768,12.3805 -19.6702,13.3777 -19.0409,14.3611 -18.3888,15.3304 -17.7142,16.2854 -17.0172,17.2257 -16.2979,18.1512 -15.5567,19.0615 -14.7935,19.9563 -14.0086,20.8354 -13.2022,21.6984 -12.3744,22.5452"
       vector-effect="none"
       inkscape:connector-curvature="0"
       style="fill:url(#radialGradient3864);fill-opacity:1;fill-rule:evenodd" />
  </g>
</svg>
