<?xml version="1.0" encoding="UTF-8" standalone="no"?>
<svg
   xmlns:dc="http://purl.org/dc/elements/1.1/"
   xmlns:cc="http://creativecommons.org/ns#"
   xmlns:rdf="http://www.w3.org/1999/02/22-rdf-syntax-ns#"
   xmlns:svg="http://www.w3.org/2000/svg"
   xmlns="http://www.w3.org/2000/svg"
   xmlns:sodipodi="http://sodipodi.sourceforge.net/DTD/sodipodi-0.dtd"
   xmlns:inkscape="http://www.inkscape.org/namespaces/inkscape"
   version="1.2"
   id="svg2"
   inkscape:version="0.48.2 r9819"
   width="100"
   height="100"
   sodipodi:docname="ogee.svg">
  <metadata
     id="metadata18">
    <rdf:RDF>
      <cc:Work
         rdf:about="">
        <dc:format>image/svg+xml</dc:format>
        <dc:type
           rdf:resource="http://purl.org/dc/dcmitype/StillImage" />
      </cc:Work>
    </rdf:RDF>
  </metadata>
  <sodipodi:namedview
     pagecolor="#ffffff"
     bordercolor="#666666"
     borderopacity="1"
     objecttolerance="10"
     gridtolerance="10"
     guidetolerance="10"
     inkscape:pageopacity="0"
     inkscape:pageshadow="2"
     inkscape:window-width="1226"
     inkscape:window-height="749"
     id="namedview16"
     showgrid="false"
     fit-margin-top="0"
     fit-margin-left="0"
     fit-margin-right="0"
     fit-margin-bottom="0"
     inkscape:zoom="2.5371828"
     inkscape:cx="130.64923"
     inkscape:cy="21.830604"
     inkscape:window-x="41"
     inkscape:window-y="-4"
     inkscape:window-maximized="1"
     inkscape:current-layer="svg2" />
  <title
     id="title4">Qt Svg Document</title>
  <desc
     id="desc6">Generated with Qt</desc>
  <defs
     id="defs8" />
  <g
     id="g10"
     transform="translate(-43.3871,0.17855)"
     style="fill:none;stroke:#000000;stroke-width:1;stroke-linecap:square;stroke-linejoin:bevel">
    <g
       transform="translate(93.3871,42.5537)"
       font-size="9"
       font-weight="400"
       font-style="normal"
       id="g12"
       style="font-size:9px;font-style:normal;font-weight:400;fill:#000000;fill-opacity:1;stroke:#a0a0a4;stroke-width:1;stroke-linecap:square;stroke-linejoin:bevel;stroke-opacity:1;font-family:Sans Serif">
      <path
         vector-effect="none"
         d="M 28.0472,52.1415 28.4097,50.9756 28.7172,49.8206 28.9709,48.6759 29.1721,47.541 29.3221,46.4153 29.422,45.2984 29.4731,44.1897 29.4767,43.0887 29.434,41.9949 29.3464,40.9077 29.215,39.8266 29.041,38.7512 28.8258,37.6808 28.5706,36.615 28.2767,35.5532 27.9453,34.4949 27.5776,33.4396 27.1749,32.3868 26.7385,31.3358 26.2696,30.2863 25.7695,29.2377 25.2394,28.1895 24.6806,27.1411 24.0943,26.092 23.4818,25.0417 22.8443,23.9897 22.1831,22.9354 21.4994,21.8784 20.7946,20.8181 20.0697,19.7539 19.3262,18.6854 18.5652,17.612 17.7881,16.5332 16.9959,15.4485 16.1901,14.3574 15.3719,13.2593 14.5425,12.1537 13.7031,11.0401 12.855,9.918 11.9996,8.78681 11.1379,7.64605 10.2713,6.49518 9.40109,5.33368 8.52843,4.16102 7.65461,2.9767 6.78088,1.78017 5.90848,0.57092 5.03869,-0.651575 4.17274,-1.88784 3.3119,-3.1384 2.4574,-4.40377 1.61052,-5.68448 0.772488,-6.98106 0,-8.20612 -0.772488,-6.98106 -1.61052,-5.68448 -2.4574,-4.40377 -3.3119,-3.1384 -4.17274,-1.88784 -5.03869,-0.651575 -5.90848,0.57092 -6.78088,1.78017 -7.65461,2.9767 -8.52843,4.16102 -9.40109,5.33368 -10.2713,6.49518 -11.1379,7.64605 -11.9996,8.78681 -12.855,9.918 -13.7031,11.0401 -14.5425,12.1537 -15.3719,13.2593 -16.1901,14.3574 -16.9959,15.4485 -17.7881,16.5332 -18.5652,17.612 -19.3262,18.6854 -20.0697,19.7539 -20.7946,20.8181 -21.4994,21.8784 -22.1831,22.9354 -22.8443,23.9897 -23.4818,25.0417 -24.0943,26.092 -24.6806,27.1411 -25.2394,28.1895 -25.7695,29.2377 -26.2696,30.2863 -26.7385,31.3358 -27.1749,32.3868 -27.5776,33.4396 -27.9453,34.4949 -28.2767,35.5532 -28.5706,36.615 -28.8258,37.6808 -29.041,38.7512 -29.215,39.8266 -29.3464,40.9077 -29.434,41.9949 -29.4767,43.0887 -29.4731,44.1897 -29.422,45.2984 -29.3221,46.4153 -29.1721,47.541 -28.9709,48.6759 -28.7172,49.8206 -28.4097,50.9756 -28.0472,52.1415 -42.2774,56.8849 -42.8151,55.1766 -43.2828,53.4909 -43.6823,51.8273 -44.0152,50.1853 -44.2832,48.5644 -44.488,46.964 -44.6313,45.3836 -44.7148,43.8228 -44.7402,42.281 -44.7093,40.7576 -44.6236,39.2522 -44.4849,37.7643 -44.2948,36.2933 -44.0552,34.8388 -43.7676,33.4001 -43.4338,31.9768 -43.0555,30.5684 -42.6343,29.1744 -42.172,27.7942 -41.6703,26.4273 -41.1308,25.0733 -40.5552,23.7315 -39.9453,22.4015 -39.3027,21.0828 -38.6292,19.7748 -37.9264,18.477 -37.196,17.189 -36.4397,15.9101 -35.6593,14.64 -34.8564,13.378 -34.0326,12.1236 -33.1898,10.8764 -32.3296,9.63577 -31.4537,8.40126 -30.5638,7.17234 -29.6616,5.94849 -28.7487,4.72919 -27.8269,3.51392 -26.898,2.30217 -25.9634,1.09343 -25.0251,-0.112821 -24.0846,-1.3171 -23.1437,-2.51993 -22.204,-3.72182 -21.2673,-4.92328 -20.3353,-6.12483 -19.4096,-7.327 -18.4919,-8.53029 -17.584,-9.73522 -16.6875,-10.9423 -15.8041,-12.1521 -14.9355,-13.365 -14.0835,-14.5817 -13.2497,-15.8025 -12.4358,-17.0281 -11.6435,-18.259 -10.8745,-19.4956 -10.1305,-20.7386 -9.41321,-21.9883 -8.7243,-23.2453 -8.06549,-24.5102 -7.43845,-25.7834 -6.8449,-27.0655 0,-42.3494 6.8449,-27.0655 7.43845,-25.7834 8.06549,-24.5102 8.7243,-23.2453 9.41321,-21.9883 10.1305,-20.7386 10.8745,-19.4956 11.6435,-18.259 12.4358,-17.0281 13.2497,-15.8025 14.0835,-14.5817 14.9355,-13.365 15.8041,-12.1521 16.6875,-10.9423 17.584,-9.73522 18.4919,-8.53029 19.4096,-7.327 20.3353,-6.12483 21.2673,-4.92328 22.204,-3.72182 23.1437,-2.51993 24.0846,-1.3171 25.0251,-0.112821 25.9634,1.09343 26.898,2.30217 27.8269,3.51392 28.7487,4.72919 29.6616,5.94849 30.5638,7.17234 31.4537,8.40126 32.3296,9.63577 33.1898,10.8764 34.0326,12.1236 34.8564,13.378 35.6593,14.64 36.4397,15.9101 37.196,17.189 37.9264,18.477 38.6292,19.7748 39.3027,21.0828 39.9453,22.4015 40.5552,23.7315 41.1308,25.0733 41.6703,26.4273 42.172,27.7942 42.6343,29.1744 43.0555,30.5684 43.4338,31.9768 43.7676,33.4001 44.0552,34.8388 44.2948,36.2933 44.4849,37.7643 44.6236,39.2522 44.7093,40.7576 44.7402,42.281 44.7148,43.8228 44.6313,45.3836 44.488,46.964 44.2832,48.5644 44.0152,50.1853 43.6823,51.8273 43.2828,53.4909 42.8151,55.1766 42.2774,56.8849 z"
         id="path14"
         inkscape:connector-curvature="0"
         style="fill-rule:evenodd"
         sodipodi:nodetypes="ccccccccccccccccccccccccccccccccccccccccccccccccccccccccccccccccccccccccccccccccccccccccccccccccccccccccccccccccccccccccccccccccccccccccccccccccccccccccccccccccccccccccccccccccccccccccccccccccccccccccccccccccccccccccccccccccccccccccccccccc" />
    </g>
  </g>
</svg>
