<?xml version="1.0" encoding="UTF-8" standalone="no"?>
<svg
   xmlns:dc="http://purl.org/dc/elements/1.1/"
   xmlns:cc="http://creativecommons.org/ns#"
   xmlns:rdf="http://www.w3.org/1999/02/22-rdf-syntax-ns#"
   xmlns:svg="http://www.w3.org/2000/svg"
   xmlns="http://www.w3.org/2000/svg"
   xmlns:sodipodi="http://sodipodi.sourceforge.net/DTD/sodipodi-0.dtd"
   xmlns:inkscape="http://www.inkscape.org/namespaces/inkscape"
   version="1.2"
   id="svg2"
   inkscape:version="0.48.2 r9819"
   width="100"
   height="100"
   sodipodi:docname="pointcurve.svg">
  <metadata
     id="metadata18">
    <rdf:RDF>
      <cc:Work
         rdf:about="">
        <dc:format>image/svg+xml</dc:format>
        <dc:type
           rdf:resource="http://purl.org/dc/dcmitype/StillImage" />
      </cc:Work>
    </rdf:RDF>
  </metadata>
  <sodipodi:namedview
     pagecolor="#ffffff"
     bordercolor="#666666"
     borderopacity="1"
     objecttolerance="10"
     gridtolerance="10"
     guidetolerance="10"
     inkscape:pageopacity="0"
     inkscape:pageshadow="2"
     inkscape:window-width="1226"
     inkscape:window-height="749"
     id="namedview16"
     showgrid="false"
     fit-margin-top="0"
     fit-margin-left="0"
     fit-margin-right="0"
     fit-margin-bottom="0"
     inkscape:zoom="1.7940591"
     inkscape:cx="53.834245"
     inkscape:cy="64.882813"
     inkscape:window-x="41"
     inkscape:window-y="-4"
     inkscape:window-maximized="1"
     inkscape:current-layer="svg2" />
  <title
     id="title4">Qt Svg Document</title>
  <desc
     id="desc6">Generated with Qt</desc>
  <defs
     id="defs8" />
  <g
     id="g10"
     style="fill:none;stroke:#000000;stroke-width:1;stroke-linecap:square;stroke-linejoin:bevel"
     transform="translate(-38.5167,7.36535)">
    <g
       transform="translate(83.3917,35.2909)"
       font-size="9"
       font-weight="400"
       font-style="normal"
       id="g12"
       style="font-size:9px;font-style:normal;font-weight:400;fill:#000000;fill-opacity:1;stroke:#a0a0a4;stroke-width:1;stroke-linecap:square;stroke-linejoin:bevel;stroke-opacity:1;font-family:Sans Serif">
      <path
         vector-effect="none"
         d="M 33.1722,48.51695 33.4374,47.68145 33.6787,46.83845 33.8958,45.98795 34.0888,45.12975 34.2575,44.26375 34.4019,43.38985 34.5218,42.50815 34.6172,41.61825 34.688,40.72025 34.7341,39.81405 34.7554,38.89955 34.7519,37.97655 34.7234,37.04505 34.67,36.10495 34.5914,35.15615 34.4876,34.19855 34.3586,33.23195 34.2042,32.25645 34.0243,31.27185 33.819,30.27805 33.588,29.27495 33.3314,28.26255 33.049,27.24065 32.7407,26.20915 32.4065,25.16805 32.0463,24.11715 31.6599,23.05635 31.2474,21.98575 30.8086,20.90495 30.3434,19.81415 29.8518,18.71305 29.3337,17.60165 28.789,16.47985 28.2176,15.34755 27.6194,14.20465 26.9944,13.05105 26.3424,11.88665 25.6634,10.71135 24.9572,9.52505 24.2239,8.32765 23.4633,7.11915 22.6754,5.89935 21.86,4.66819 21.0171,3.42557 20.1466,2.1714 19.2484,0.90559 18.3224,-0.37196 17.3686,-1.66135 16.3868,-2.962672 15.377,-4.276016 14.33907,-5.60148 13.27296,-6.93916 12.17858,-8.28914 11.05583,-9.65153 9.90465,-11.02641 8.72493,-12.41389 7.51661,-13.81405 6.27959,-15.22705 5.125,-16.52755 3.97041,-15.22705 2.73339,-13.81405 1.52507,-12.41389 0.34535,-11.02641 -0.80583,-9.65153 -1.92858,-8.28914 -3.02296,-6.93916 -4.08907,-5.60148 -5.127,-4.276016 -6.1368,-2.962672 -7.1186,-1.66135 -8.0724,-0.37196 -8.9984,0.90559 -9.8966,2.1714 -10.7671,3.42557 -11.61,4.66819 -12.4254,5.89935 -13.2133,7.11915 -13.9739,8.32765 -14.7072,9.52505 -15.4134,10.71135 -16.0924,11.88665 -16.7444,13.05105 -17.3694,14.20465 -17.9676,15.34755 -18.539,16.47985 -19.0837,17.60165 -19.6018,18.71305 -20.0934,19.81415 -20.5586,20.90495 -20.9974,21.98575 -21.4099,23.05635 -21.7963,24.11715 -22.1565,25.16805 -22.4907,26.20915 -22.799,27.24065 -23.0814,28.26255 -23.338,29.27495 -23.569,30.27805 -23.7743,31.27185 -23.9542,32.25645 -24.1086,33.23195 -24.2376,34.19855 -24.3414,35.15615 -24.42,36.10495 -24.4734,37.04505 -24.5019,37.97655 -24.5054,38.89955 -24.4841,39.81405 -24.438,40.72025 -24.3672,41.61825 -24.2718,42.50815 -24.1519,43.38985 -24.0075,44.26375 -23.8388,45.12975 -23.6458,45.98795 -23.4287,46.83845 -23.1874,47.68145 -22.9222,48.51695 -37.1524,53.26035 -37.5017,52.15935 -37.8192,51.04795 -38.1049,49.92615 -38.359,48.79415 -38.5816,47.65185 -38.7726,46.49955 -38.9323,45.33725 -39.0607,44.16515 -39.1578,42.98315 -39.2237,41.79145 -39.2587,40.59025 -39.2626,39.37945 -39.2356,38.15925 -39.1778,36.92975 -39.0893,35.69095 -38.9702,34.44315 -38.8204,33.18625 -38.6402,31.92035 -38.4296,30.64565 -38.1887,29.36225 -37.9176,28.07015 -37.6163,26.76945 -37.285,25.46035 -36.9237,24.14275 -36.5324,22.81705 -36.1114,21.48305 -35.6606,20.14095 -35.1802,18.79095 -34.6703,17.43295 -34.1308,16.06715 -33.562,14.69375 -32.9639,13.31265 -32.3365,11.92405 -31.68,10.52795 -30.9944,9.12455 -30.2799,7.71395 -29.5364,6.29622 -28.7642,4.87142 -27.9632,3.43967 -27.1336,2.00106 -26.2754,0.55568 -25.3887,-0.89637 -24.4737,-2.35499 -23.5303,-3.820091 -22.5587,-5.29158 -21.559,-6.76936 -20.5312,-8.25333 -19.4754,-9.7434 -18.3918,-11.23949 -17.2803,-12.74148 -16.1412,-14.24925 -14.9743,-15.76285 -13.7799,-17.28195 -12.5581,-18.80665 -11.3088,-20.33685 -10.0323,-21.87225 -8.7285,-23.41305 -7.3976,-24.95895 -6.0396,-26.50985 -4.65467,-28.06575 -3.24283,-29.62655 -1.80419,-31.19205 -0.33883,-32.76235 5.125,-38.57285 10.58883,-32.76235 12.05419,-31.19205 13.49283,-29.62655 14.90467,-28.06575 16.2896,-26.50985 17.6476,-24.95895 18.9785,-23.41305 20.2823,-21.87225 21.5588,-20.33685 22.8081,-18.80665 24.0299,-17.28195 25.2243,-15.76285 26.3912,-14.24925 27.5303,-12.74148 28.6418,-11.23949 29.7254,-9.7434 30.7812,-8.25333 31.809,-6.76936 32.8087,-5.29158 33.7803,-3.820091 34.7237,-2.35499 35.6387,-0.89637 36.5254,0.55568 37.3836,2.00106 38.2132,3.43967 39.0142,4.87142 39.7864,6.29622 40.5299,7.71395 41.2444,9.12455 41.93,10.52795 42.5865,11.92405 43.2139,13.31265 43.812,14.69375 44.3808,16.06715 44.9203,17.43295 45.4302,18.79095 45.9106,20.14095 46.3614,21.48305 46.7824,22.81705 47.1737,24.14275 47.535,25.46035 47.8663,26.76945 48.1676,28.07015 48.4387,29.36225 48.6796,30.64565 48.8902,31.92035 49.0704,33.18625 49.2202,34.44315 49.3393,35.69095 49.4278,36.92975 49.4856,38.15925 49.5126,39.37945 49.5087,40.59025 49.4737,41.79145 49.4078,42.98315 49.3107,44.16515 49.1823,45.33725 49.0226,46.49955 48.8316,47.65185 48.609,48.79415 48.3549,49.92615 48.0692,51.04795 47.7517,52.15935 47.4024,53.26035 z"
         id="path14"
         inkscape:connector-curvature="0"
         style="fill-rule:evenodd"
         sodipodi:nodetypes="ccccccccccccccccccccccccccccccccccccccccccccccccccccccccccccccccccccccccccccccccccccccccccccccccccccccccccccccccccccccccccccccccccccccccccccccccccccccccccccccccccccccccccccccccccccccccccccccccccccccccccccccccccccccccccccccccccccccccccccccccccccccccc" />
    </g>
  </g>
</svg>
