<?xml version="1.0" encoding="UTF-8" standalone="no"?>
<!-- Created with Inkscape (http://www.inkscape.org/) -->

<svg
   xmlns:dc="http://purl.org/dc/elements/1.1/"
   xmlns:cc="http://creativecommons.org/ns#"
   xmlns:rdf="http://www.w3.org/1999/02/22-rdf-syntax-ns#"
   xmlns:svg="http://www.w3.org/2000/svg"
   xmlns="http://www.w3.org/2000/svg"
   xmlns:sodipodi="http://sodipodi.sourceforge.net/DTD/sodipodi-0.dtd"
   xmlns:inkscape="http://www.inkscape.org/namespaces/inkscape"
   width="64px"
   height="64px"
   id="svg2985"
   version="1.1"
   inkscape:version="0.48.2 r9819"
   sodipodi:docname="square_grid.svg">
  <defs
     id="defs2987" />
  <sodipodi:namedview
     id="base"
     pagecolor="#ffffff"
     bordercolor="#666666"
     borderopacity="1.0"
     inkscape:pageopacity="0.0"
     inkscape:pageshadow="2"
     inkscape:zoom="3.8890873"
     inkscape:cx="19.180822"
     inkscape:cy="27.45283"
     inkscape:current-layer="layer1"
     showgrid="true"
     inkscape:document-units="px"
     inkscape:grid-bbox="true"
     inkscape:window-width="1226"
     inkscape:window-height="749"
     inkscape:window-x="41"
     inkscape:window-y="-4"
     inkscape:window-maximized="1">
    <inkscape:grid
       type="xygrid"
       id="grid2999"
       empspacing="8"
       visible="true"
       enabled="true"
       snapvisiblegridlinesonly="true" />
  </sodipodi:namedview>
  <metadata
     id="metadata2990">
    <rdf:RDF>
      <cc:Work
         rdf:about="">
        <dc:format>image/svg+xml</dc:format>
        <dc:type
           rdf:resource="http://purl.org/dc/dcmitype/StillImage" />
        <dc:title></dc:title>
      </cc:Work>
    </rdf:RDF>
  </metadata>
  <g
     id="layer1"
     inkscape:label="Layer 1"
     inkscape:groupmode="layer">
    <path
       style="font-size:medium;font-style:normal;font-variant:normal;font-weight:normal;font-stretch:normal;text-indent:0;text-align:start;text-decoration:none;line-height:normal;letter-spacing:normal;word-spacing:normal;text-transform:none;direction:ltr;block-progression:tb;writing-mode:lr-tb;text-anchor:start;baseline-shift:baseline;color:#000000;fill:#aeaeae;fill-opacity:1;stroke:none;stroke-width:1;marker:none;visibility:visible;display:inline;overflow:visible;enable-background:accumulate;font-family:Sans;-inkscape-font-specification:Sans;stroke-miterlimit:4;stroke-dasharray:none;stroke-opacity:1"
       d="M 14.5 6.5 L 14.5 8 L 14.5 14.5 L 8 14.5 L 6.5 14.5 L 6.5 17.5 L 8 17.5 L 14.5 17.5 L 14.5 30.5 L 8 30.5 L 6.5 30.5 L 6.5 33.5 L 8 33.5 L 14.5 33.5 L 14.5 46.5 L 8 46.5 L 6.5 46.5 L 6.5 49.5 L 8 49.5 L 14.5 49.5 L 14.5 56 L 14.5 57.5 L 17.5 57.5 L 17.5 56 L 17.5 49.5 L 30.5 49.5 L 30.5 56 L 30.5 57.5 L 33.5 57.5 L 33.5 56 L 33.5 49.5 L 46.5 49.5 L 46.5 56 L 46.5 57.5 L 49.5 57.5 L 49.5 56 L 49.5 49.5 L 56 49.5 L 57.5 49.5 L 57.5 46.5 L 56 46.5 L 49.5 46.5 L 49.5 33.5 L 56 33.5 L 57.5 33.5 L 57.5 30.5 L 56 30.5 L 49.5 30.5 L 49.5 17.5 L 56 17.5 L 57.5 17.5 L 57.5 14.5 L 56 14.5 L 49.5 14.5 L 49.5 8 L 49.5 6.5 L 46.5 6.5 L 46.5 8 L 46.5 14.5 L 33.5 14.5 L 33.5 8 L 33.5 6.5 L 30.5 6.5 L 30.5 8 L 30.5 14.5 L 17.5 14.5 L 17.5 8 L 17.5 6.5 L 14.5 6.5 z M 17.5 17.5 L 30.5 17.5 L 30.5 30.5 L 17.5 30.5 L 17.5 17.5 z M 33.5 17.5 L 46.5 17.5 L 46.5 30.5 L 33.5 30.5 L 33.5 17.5 z M 17.5 33.5 L 30.5 33.5 L 30.5 46.5 L 17.5 46.5 L 17.5 33.5 z M 33.5 33.5 L 46.5 33.5 L 46.5 46.5 L 33.5 46.5 L 33.5 33.5 z "
       id="path3011" />
    <path
       style="font-size:medium;font-style:normal;font-variant:normal;font-weight:normal;font-stretch:normal;text-indent:0;text-align:start;text-decoration:none;line-height:normal;letter-spacing:normal;word-spacing:normal;text-transform:none;direction:ltr;block-progression:tb;writing-mode:lr-tb;text-anchor:start;baseline-shift:baseline;color:#000000;fill:#7b7b7b;fill-opacity:1;fill-rule:nonzero;stroke:none;stroke-width:1;marker:none;visibility:visible;display:inline;overflow:visible;enable-background:accumulate;font-family:Sans;-inkscape-font-specification:Sans"
       d="M 31,6 30,6 30,6.5 30,8 30,14 18,14 18,8 18,6.5 18,6 17,6 17,7 17,8 17,14.5 17,15 17.5,15 30.5,15 31,15 31,14.5 31,8 31,7 z M 33,7 33,8 33,14.5 33,15 33.5,15 46.5,15 47,15 47,14.5 47,8 47,7 47,6 46,6 46,6.5 46,8 46,14 34,14 34,8 34,6.5 34,6 33,6 z M 49,7 49,8 49,14.5 49,15 49.5,15 56,15 57,15 58,15 58,14 57.5,14 56,14 50,14 50,8 50,6.5 50,6 49,6 z M 57,17 56,17 49.5,17 49,17 49,17.5 49,30.5 49,31 49.5,31 56,31 57,31 58,31 58,30 57.5,30 56,30 50,30 50,18 56,18 57.5,18 58,18 58,17 z M 57,33 56,33 49.5,33 49,33 49,33.5 49,46.5 49,47 49.5,47 56,47 57,47 58,47 58,46 57.5,46 56,46 50,46 50,34 56,34 57.5,34 58,34 58,33 z M 57,49 56,49 49.5,49 49,49 49,49.5 49,56 49,57 49,58 50,58 50,57.5 50,56 50,50 56,50 57.5,50 58,50 58,49 z M 47,57 47,56 47,49.5 47,49 46.5,49 33.5,49 33,49 33,49.5 33,56 33,57 33,58 34,58 34,57.5 34,56 34,50 46,50 46,56 46,57.5 46,58 47,58 z M 31,57 31,56 31,49.5 31,49 30.5,49 17.5,49 17,49 17,49.5 17,56 17,57 17,58 18,58 18,57.5 18,56 18,50 30,50 30,56 30,57.5 30,58 31,58 z M 15,57 15,56 15,49.5 15,49 14.5,49 8,49 7,49 6,49 6,50 6.5,50 8,50 14,50 14,56 14,57.5 14,58 15,58 z M 7,47 8,47 14.5,47 15,47 15,46.5 15,33.5 15,33 14.5,33 8,33 7,33 6,33 6,34 6.5,34 8,34 14,34 14,46 8,46 6.5,46 6,46 6,47 z M 7,31 8,31 14.5,31 15,31 15,30.5 15,17.5 15,17 14.5,17 8,17 7,17 6,17 6,18 6.5,18 8,18 14,18 14,30 8,30 6.5,30 6,30 6,31 z M 7,15 8,15 14.5,15 15,15 15,14.5 15,8 15,7 15,6 14,6 14,6.5 14,8 14,14 8,14 6.5,14 6,14 6,15 z M 17,17 17,17.5 17,30.5 17,31 17.5,31 30.5,31 31,31 31,30.5 31,17.5 31,17 30.5,17 17.5,17 z M 33,17 33,17.5 33,30.5 33,31 33.5,31 46.5,31 47,31 47,30.5 47,17.5 47,17 46.5,17 33.5,17 z M 18,18 30,18 30,30 18,30 z M 34,18 46,18 46,30 34,30 z M 17,33 17,33.5 17,46.5 17,47 17.5,47 30.5,47 31,47 31,46.5 31,33.5 31,33 30.5,33 17.5,33 z M 33,33 33,33.5 33,46.5 33,47 33.5,47 46.5,47 47,47 47,46.5 47,33.5 47,33 46.5,33 33.5,33 z M 18,34 30,34 30,46 18,46 z M 34,34 46,34 46,46 34,46 z"
       id="path3011"
       inkscape:connector-curvature="0"
       sodipodi:nodetypes="cccccccccccccccccccccccccccccccccccccccccccccccccccccccccccccccccccccccccccccccccccccccccccccccccccccccccccccccccccccccccccccccccccccccccccccccccccccccccccccccccccccccccccccccccccccccccccccccccccccccccccccccccccccccccccccccccccccccccccccccccccccccccccccccccccccccccccccccccccccccccccccccccccccccccccccccccccc" />
  </g>
</svg>
