<?xml version="1.0" encoding="UTF-8" standalone="no"?>
<!-- Created with Inkscape (http://www.inkscape.org/) -->

<svg
   xmlns:dc="http://purl.org/dc/elements/1.1/"
   xmlns:cc="http://creativecommons.org/ns#"
   xmlns:rdf="http://www.w3.org/1999/02/22-rdf-syntax-ns#"
   xmlns:svg="http://www.w3.org/2000/svg"
   xmlns="http://www.w3.org/2000/svg"
   xmlns:xlink="http://www.w3.org/1999/xlink"
   version="1.1"
   width="180.7"
   height="180.7"
   id="svg4762">
  <defs
     id="defs4764">
    <radialGradient
       cx="0.42879423"
       cy="0.98920417"
       r="6.7435427"
       fx="0.42879423"
       fy="0.98920417"
       id="radialGradient4675"
       xlink:href="#linearGradient4285"
       gradientUnits="userSpaceOnUse" />
    <linearGradient
       id="linearGradient4285">
      <stop
         id="stop4287"
         style="stop-color:#ff7a7a;stop-opacity:1"
         offset="0" />
      <stop
         id="stop4293"
         style="stop-color:#ff0000;stop-opacity:1"
         offset="0.5" />
      <stop
         id="stop4289"
         style="stop-color:#920000;stop-opacity:1"
         offset="1" />
    </linearGradient>
    <radialGradient
       cx="0.42879423"
       cy="0.98920417"
       r="6.7435427"
       fx="0.42879423"
       fy="0.98920417"
       id="radialGradient4547"
       xlink:href="#linearGradient4285"
       gradientUnits="userSpaceOnUse" />
    <radialGradient
       cx="0.42879423"
       cy="0.98920417"
       r="6.7435427"
       fx="0.42879423"
       fy="0.98920417"
       id="radialGradient4551"
       xlink:href="#linearGradient4285"
       gradientUnits="userSpaceOnUse" />
    <radialGradient
       cx="0.42879423"
       cy="0.98920417"
       r="6.7435427"
       fx="0.42879423"
       fy="0.98920417"
       id="radialGradient4555"
       xlink:href="#linearGradient4285"
       gradientUnits="userSpaceOnUse" />
    <radialGradient
       cx="0.42879423"
       cy="0.98920417"
       r="6.7435427"
       fx="0.42879423"
       fy="0.98920417"
       id="radialGradient4559"
       xlink:href="#linearGradient4285"
       gradientUnits="userSpaceOnUse" />
    <radialGradient
       cx="0.42879423"
       cy="0.98920417"
       r="6.7435427"
       fx="0.42879423"
       fy="0.98920417"
       id="radialGradient4571"
       xlink:href="#linearGradient4285"
       gradientUnits="userSpaceOnUse" />
    <radialGradient
       cx="0.42879423"
       cy="0.98920417"
       r="6.7435427"
       fx="0.42879423"
       fy="0.98920417"
       id="radialGradient4563"
       xlink:href="#linearGradient4285"
       gradientUnits="userSpaceOnUse" />
    <radialGradient
       cx="0.42879423"
       cy="0.98920417"
       r="6.7435427"
       fx="0.42879423"
       fy="0.98920417"
       id="radialGradient4567"
       xlink:href="#linearGradient4285"
       gradientUnits="userSpaceOnUse" />
    <linearGradient
       x1="31.263058"
       y1="-43.40625"
       x2="31.11516"
       y2="-34.40625"
       id="linearGradient4612"
       xlink:href="#linearGradient5380"
       gradientUnits="userSpaceOnUse"
       gradientTransform="matrix(0,-1,1,0,181.88736,99.600572)" />
    <linearGradient
       x1="31.263058"
       y1="-43.40625"
       x2="31.11516"
       y2="-34.40625"
       id="linearGradient4616"
       xlink:href="#linearGradient5380"
       gradientUnits="userSpaceOnUse"
       gradientTransform="matrix(0,-1,1,0,226.64838,144.36159)" />
    <linearGradient
       x1="31.263058"
       y1="-43.40625"
       x2="31.11516"
       y2="-34.40625"
       id="linearGradient4620"
       xlink:href="#linearGradient5380"
       gradientUnits="userSpaceOnUse"
       gradientTransform="matrix(0,-1,1,0,181.88736,189.12261)" />
    <linearGradient
       x1="31.263058"
       y1="-43.40625"
       x2="31.11516"
       y2="-34.40625"
       id="linearGradient4575"
       xlink:href="#linearGradient5380"
       gradientUnits="userSpaceOnUse"
       gradientTransform="translate(90.965428,173.64836)" />
    <linearGradient
       id="linearGradient5380">
      <stop
         id="stop5382"
         style="stop-color:#7a86ff;stop-opacity:1"
         offset="0" />
      <stop
         id="stop5384"
         style="stop-color:#1200ff;stop-opacity:1"
         offset="0.5" />
      <stop
         id="stop5386"
         style="stop-color:#030092;stop-opacity:1"
         offset="1" />
    </linearGradient>
    <linearGradient
       x1="31.263058"
       y1="-43.40625"
       x2="31.11516"
       y2="-34.40625"
       id="linearGradient4494-8"
       xlink:href="#linearGradient5380"
       gradientUnits="userSpaceOnUse"
       gradientTransform="matrix(0,-1,1,0,137.12634,144.36159)" />
    <linearGradient
       x1="31.263058"
       y1="-43.40625"
       x2="31.11516"
       y2="-34.40625"
       id="linearGradient4494"
       xlink:href="#linearGradient5380"
       gradientUnits="userSpaceOnUse"
       gradientTransform="translate(88.600598,128.88734)" />
    <linearGradient
       x1="50.40625"
       y1="-16"
       x2="59.40625"
       y2="-16"
       id="linearGradient4027"
       xlink:href="#linearGradient5380-5"
       gradientUnits="userSpaceOnUse"
       gradientTransform="translate(0,48)" />
    <linearGradient
       id="linearGradient5380-5">
      <stop
         id="stop5382-1"
         style="stop-color:#f4f4f4;stop-opacity:1"
         offset="0" />
      <stop
         id="stop5384-1"
         style="stop-color:#c5c5c5;stop-opacity:1"
         offset="0.5" />
      <stop
         id="stop5386-3"
         style="stop-color:#909090;stop-opacity:1"
         offset="1" />
    </linearGradient>
    <linearGradient
       x1="31.263058"
       y1="-43.40625"
       x2="31.11516"
       y2="-34.40625"
       id="linearGradient6147"
       xlink:href="#linearGradient5380-5"
       gradientUnits="userSpaceOnUse"
       gradientTransform="translate(262.76235,128.88807)" />
    <linearGradient
       x1="31.263058"
       y1="-43.40625"
       x2="31.11516"
       y2="-34.40625"
       id="linearGradient6149"
       xlink:href="#linearGradient5380-5"
       gradientUnits="userSpaceOnUse"
       gradientTransform="matrix(0,-1,1,0,311.28809,144.36232)" />
    <linearGradient
       x1="31.263058"
       y1="-43.40625"
       x2="31.11516"
       y2="-34.40625"
       id="linearGradient6151"
       xlink:href="#linearGradient5380-5"
       gradientUnits="userSpaceOnUse"
       gradientTransform="translate(265.12718,173.64909)" />
    <linearGradient
       x1="31.263058"
       y1="-43.40625"
       x2="31.11516"
       y2="-34.40625"
       id="linearGradient6153"
       xlink:href="#linearGradient5380-5"
       gradientUnits="userSpaceOnUse"
       gradientTransform="matrix(0,-1,1,0,356.04911,189.12334)" />
    <linearGradient
       x1="31.263058"
       y1="-43.40625"
       x2="31.11516"
       y2="-34.40625"
       id="linearGradient6155"
       xlink:href="#linearGradient5380-5"
       gradientUnits="userSpaceOnUse"
       gradientTransform="matrix(0,-1,1,0,400.81013,144.36232)" />
    <linearGradient
       x1="31.263058"
       y1="-43.40625"
       x2="31.11516"
       y2="-34.40625"
       id="linearGradient6157"
       xlink:href="#linearGradient5380-5"
       gradientUnits="userSpaceOnUse"
       gradientTransform="matrix(0,-1,1,0,356.04911,99.601304)" />
    <radialGradient
       cx="0.42879423"
       cy="0.98920417"
       r="6.7435427"
       fx="0.42879423"
       fy="0.98920417"
       id="radialGradient6159"
       xlink:href="#linearGradient5380-5"
       gradientUnits="userSpaceOnUse" />
    <radialGradient
       cx="0.42879423"
       cy="0.98920417"
       r="6.7435427"
       fx="0.42879423"
       fy="0.98920417"
       id="radialGradient6161"
       xlink:href="#linearGradient5380-5"
       gradientUnits="userSpaceOnUse" />
    <radialGradient
       cx="0.42879423"
       cy="0.98920417"
       r="6.7435427"
       fx="0.42879423"
       fy="0.98920417"
       id="radialGradient6163"
       xlink:href="#linearGradient5380-5"
       gradientUnits="userSpaceOnUse" />
    <radialGradient
       cx="0.42879423"
       cy="0.98920417"
       r="6.7435427"
       fx="0.42879423"
       fy="0.98920417"
       id="radialGradient6165"
       xlink:href="#linearGradient5380-5"
       gradientUnits="userSpaceOnUse" />
    <radialGradient
       cx="0.42879423"
       cy="0.98920417"
       r="6.7435427"
       fx="0.42879423"
       fy="0.98920417"
       id="radialGradient6167"
       xlink:href="#linearGradient5380-5"
       gradientUnits="userSpaceOnUse" />
    <radialGradient
       cx="0.42879423"
       cy="0.98920417"
       r="6.7435427"
       fx="0.42879423"
       fy="0.98920417"
       id="radialGradient6169"
       xlink:href="#linearGradient5380-5"
       gradientUnits="userSpaceOnUse" />
    <radialGradient
       cx="0.42879423"
       cy="0.98920417"
       r="6.7435427"
       fx="0.42879423"
       fy="0.98920417"
       id="radialGradient6171"
       xlink:href="#linearGradient5380-5"
       gradientUnits="userSpaceOnUse" />
    <radialGradient
       cx="0.42879423"
       cy="0.98920417"
       r="6.7435427"
       fx="0.42879423"
       fy="0.98920417"
       id="radialGradient6173"
       xlink:href="#linearGradient5380-5"
       gradientUnits="userSpaceOnUse" />
    <linearGradient
       x1="31.263058"
       y1="-43.40625"
       x2="31.11516"
       y2="-34.40625"
       id="linearGradient6207"
       xlink:href="#linearGradient5380"
       gradientUnits="userSpaceOnUse"
       gradientTransform="translate(113.26997,318.79675)" />
    <linearGradient
       x1="31.263058"
       y1="-43.40625"
       x2="31.11516"
       y2="-34.40625"
       id="linearGradient6209"
       xlink:href="#linearGradient5380"
       gradientUnits="userSpaceOnUse"
       gradientTransform="matrix(0,-1,1,0,161.79572,334.271)" />
    <linearGradient
       x1="31.263058"
       y1="-43.40625"
       x2="31.11516"
       y2="-34.40625"
       id="linearGradient6211"
       xlink:href="#linearGradient5380"
       gradientUnits="userSpaceOnUse"
       gradientTransform="translate(115.6348,363.55777)" />
    <linearGradient
       x1="31.263058"
       y1="-43.40625"
       x2="31.11516"
       y2="-34.40625"
       id="linearGradient6213"
       xlink:href="#linearGradient5380"
       gradientUnits="userSpaceOnUse"
       gradientTransform="matrix(0,-1,1,0,206.55674,379.03202)" />
    <linearGradient
       x1="31.263058"
       y1="-43.40625"
       x2="31.11516"
       y2="-34.40625"
       id="linearGradient6215"
       xlink:href="#linearGradient5380"
       gradientUnits="userSpaceOnUse"
       gradientTransform="matrix(0,-1,1,0,251.31776,334.271)" />
    <linearGradient
       x1="31.263058"
       y1="-43.40625"
       x2="31.11516"
       y2="-34.40625"
       id="linearGradient6217"
       xlink:href="#linearGradient5380"
       gradientUnits="userSpaceOnUse"
       gradientTransform="matrix(0,-1,1,0,206.55674,289.50998)" />
    <radialGradient
       cx="0.42879423"
       cy="0.98920417"
       r="6.7435427"
       fx="0.42879423"
       fy="0.98920417"
       id="radialGradient6219"
       xlink:href="#linearGradient4285"
       gradientUnits="userSpaceOnUse" />
    <radialGradient
       cx="0.42879423"
       cy="0.98920417"
       r="6.7435427"
       fx="0.42879423"
       fy="0.98920417"
       id="radialGradient6221"
       xlink:href="#linearGradient4285"
       gradientUnits="userSpaceOnUse" />
    <radialGradient
       cx="0.42879423"
       cy="0.98920417"
       r="6.7435427"
       fx="0.42879423"
       fy="0.98920417"
       id="radialGradient6223"
       xlink:href="#linearGradient4285"
       gradientUnits="userSpaceOnUse" />
    <radialGradient
       cx="0.42879423"
       cy="0.98920417"
       r="6.7435427"
       fx="0.42879423"
       fy="0.98920417"
       id="radialGradient6225"
       xlink:href="#linearGradient4285"
       gradientUnits="userSpaceOnUse" />
    <radialGradient
       cx="0.42879423"
       cy="0.98920417"
       r="6.7435427"
       fx="0.42879423"
       fy="0.98920417"
       id="radialGradient6227"
       xlink:href="#linearGradient4285"
       gradientUnits="userSpaceOnUse" />
    <radialGradient
       cx="0.42879423"
       cy="0.98920417"
       r="6.7435427"
       fx="0.42879423"
       fy="0.98920417"
       id="radialGradient6229"
       xlink:href="#linearGradient4285"
       gradientUnits="userSpaceOnUse" />
    <radialGradient
       cx="0.42879423"
       cy="0.98920417"
       r="6.7435427"
       fx="0.42879423"
       fy="0.98920417"
       id="radialGradient6231"
       xlink:href="#linearGradient4285"
       gradientUnits="userSpaceOnUse" />
    <radialGradient
       cx="0.42879423"
       cy="0.98920417"
       r="6.7435427"
       fx="0.42879423"
       fy="0.98920417"
       id="radialGradient6233"
       xlink:href="#linearGradient4285"
       gradientUnits="userSpaceOnUse" />
  </defs>
  <metadata
     id="metadata4767">
    <rdf:RDF>
      <cc:Work
         rdf:about="">
        <dc:format>image/svg+xml</dc:format>
        <dc:type
           rdf:resource="http://purl.org/dc/dcmitype/StillImage" />
        <dc:title></dc:title>
      </cc:Work>
    </rdf:RDF>
  </metadata>
  <g
     transform="translate(-52.631113,-22.011451)"
     id="layer1">
    <g
       transform="matrix(0.6993909,0,0,0.6993909,142.98111,134.7421)"
       id="g3439"
       style="font-size:9px;font-style:normal;font-weight:400;fill:#000000;fill-opacity:1;fill-rule:evenodd;stroke:#a0a0a4;stroke-width:1;stroke-linecap:square;stroke-linejoin:bevel;stroke-opacity:1;font-family:Sans Serif">
      <path
         d="M 11.6673,-98.4749 -10.5863,-76.2213 -20.3327,-66.4749 -29.5251,-75.6673 -21.4137,-83.7787 -11.6673,-93.5251 2.47487,-107.667 3.40663,-108.622 4.28444,-109.57 5.1081,-110.512 5.87741,-111.448 6.59218,-112.379 7.25219,-113.305 7.85727,-114.228 8.40719,-115.148 8.90176,-116.066 9.34079,-116.983 9.72408,-117.898 10.0514,-118.813 10.3226,-119.729 10.5374,-120.646 10.6957,-121.565 10.7973,-122.486 10.8419,-123.411 10.8293,-124.339 10.7594,-125.272 10.632,-126.211 10.4468,-127.155 10.2037,-128.106 9.9024,-129.064 9.54278,-130.03 9.12461,-131.005 8.64769,-131.989 8.11183,-132.984 7.51682,-133.989 6.86246,-135.005 6.14856,-136.034 5.37491,-137.075 4.54132,-138.13 3.64758,-139.199 2.6935,-140.282 1.67887,-141.381 0.60349,-142.497 0,-143.098 -0.60349,-142.497 -1.67887,-141.381 -2.6935,-140.282 -3.64758,-139.199 -4.54132,-138.13 -5.37491,-137.075 -6.14856,-136.034 -6.86246,-135.005 -7.51682,-133.989 -8.11183,-132.984 -8.64769,-131.989 -9.12461,-131.005 -9.54278,-130.03 -9.9024,-129.064 -10.2037,-128.106 -10.4468,-127.155 -10.632,-126.211 -10.7594,-125.272 -10.8293,-124.339 -10.8419,-123.411 -10.7973,-122.486 -10.6957,-121.565 -10.5374,-120.646 -10.3226,-119.729 -10.0514,-118.813 -9.72408,-117.898 -9.34079,-116.983 -8.90176,-116.066 -8.40719,-115.148 -7.85727,-114.228 -7.25219,-113.305 -6.59218,-112.379 -5.87741,-111.448 -5.1081,-110.512 -4.28444,-109.57 -3.40663,-108.622 -2.47487,-107.667 -11.6673,-98.4749 -12.5195,-99.348 -13.3376,-100.228 -14.1216,-101.116 -14.8714,-102.01 -15.5873,-102.911 -16.2692,-103.819 -16.9172,-104.733 -17.5313,-105.653 -18.1117,-106.579 -18.6584,-107.51 -19.1714,-108.447 -19.6508,-109.39 -20.0967,-110.337 -20.5091,-111.289 -20.888,-112.246 -21.2336,-113.208 -21.5459,-114.173 -21.825,-115.143 -22.0708,-116.117 -22.2836,-117.094 -22.4632,-118.074 -22.6099,-119.058 -22.7236,-120.046 -22.8044,-121.035 -22.8524,-122.028 -22.8677,-123.023 -22.8502,-124.02 -22.8,-125.019 -22.7173,-126.021 -22.602,-127.023 -22.4543,-128.028 -22.2741,-129.033 -22.0616,-130.039 -21.8168,-131.047 -21.5397,-132.055 -21.2305,-133.063 -20.8892,-134.072 -20.5158,-135.08 -20.1103,-136.089 -19.673,-137.097 -19.2038,-138.104 -18.7027,-139.111 -18.1699,-140.117 -17.6054,-141.121 -17.0092,-142.124 -16.3814,-143.126 -15.7221,-144.125 -15.0314,-145.123 -14.3092,-146.119 -13.5557,-147.112 -12.7709,-148.102 -11.9549,-149.09 -11.1077,-150.075 -10.2294,-151.056 -9.32002,-152.034 -8.37966,-153.009 -7.40837,-153.979 -6.4062,-154.946 -5.37321,-155.908 -4.30947,-156.866 0,-160.683 4.30947,-156.866 5.37321,-155.908 6.4062,-154.946 7.40837,-153.979 8.37966,-153.009 9.32002,-152.034 10.2294,-151.056 11.1077,-150.075 11.9549,-149.09 12.7709,-148.102 13.5557,-147.112 14.3092,-146.119 15.0314,-145.123 15.7221,-144.125 16.3814,-143.126 17.0092,-142.124 17.6054,-141.121 18.1699,-140.117 18.7027,-139.111 19.2038,-138.104 19.673,-137.097 20.1103,-136.089 20.5158,-135.08 20.8892,-134.072 21.2305,-133.063 21.5397,-132.055 21.8168,-131.047 22.0616,-130.039 22.2741,-129.033 22.4543,-128.028 22.602,-127.023 22.7173,-126.021 22.8,-125.019 22.8502,-124.02 22.8677,-123.023 22.8524,-122.028 22.8044,-121.035 22.7236,-120.046 22.6099,-119.058 22.4632,-118.074 22.2836,-117.094 22.0708,-116.117 21.825,-115.143 21.5459,-114.173 21.2336,-113.208 20.888,-112.246 20.5091,-111.289 20.0967,-110.337 19.6508,-109.39 19.1714,-108.447 18.6584,-107.51 18.1117,-106.579 17.5313,-105.653 16.9172,-104.733 16.2692,-103.819 15.5873,-102.911 14.8714,-102.01 14.1216,-101.116 13.3376,-100.228 12.5195,-99.348 11.6673,-98.4749 M -29.5251,-52.3327 -43.6673,-66.4749 -44.872,-67.6608 -46.055,-68.7872 -47.2171,-69.8543 -48.3592,-70.8626 -49.482,-71.8124 -50.5864,-72.704 -51.6732,-73.5379 -52.7433,-74.3144 -53.7974,-75.0339 -54.8365,-75.6967 -55.8612,-76.3031 -56.8725,-76.8536 -57.8712,-77.3486 -58.858,-77.7883 -59.8339,-78.1732 -60.7996,-78.5035 -61.756,-78.7798 -62.704,-79.0022 -63.6442,-79.1713 -64.5776,-79.2873 -65.5049,-79.3507 -66.4271,-79.3618 -67.3449,-79.3209 -68.2591,-79.2284 -69.1707,-79.0847 -70.0803,-78.8902 -70.9889,-78.6451 -71.8972,-78.35 -72.8061,-78.005 -73.7165,-77.6107 -74.6291,-77.1673 -75.5447,-76.6753 -76.2568,-76.2568 -76.6753,-75.5447 -77.1673,-74.6291 -77.6107,-73.7165 -78.005,-72.8061 -78.35,-71.8972 -78.6451,-70.9889 -78.8902,-70.0803 -79.0847,-69.1707 -79.2284,-68.2591 -79.3209,-67.3449 -79.3618,-66.4271 -79.3507,-65.5049 -79.2873,-64.5776 -79.1713,-63.6442 -79.0022,-62.704 -78.7798,-61.756 -78.5035,-60.7996 -78.1732,-59.8339 -77.7883,-58.858 -77.3486,-57.8712 -76.8536,-56.8725 -76.3031,-55.8612 -75.6967,-54.8365 -75.0339,-53.7974 -74.3144,-52.7433 -73.5379,-51.6732 -72.704,-50.5864 -71.8124,-49.482 -70.8626,-48.3592 -69.8543,-47.2171 -68.7872,-46.055 -67.6608,-44.872 -66.4749,-43.6673 -75.6673,-34.4749 -76.6175,-35.4414 -77.5399,-36.4125 -78.4344,-37.388 -79.3008,-38.3676 -80.139,-39.3511 -80.949,-40.3383 -81.7307,-41.3288 -82.4838,-42.3225 -83.2083,-43.319 -83.9042,-44.3183 -84.5712,-45.3199 -85.2093,-46.3237 -85.8184,-47.3294 -86.3984,-48.3368 -86.9491,-49.3456 -87.4705,-50.3557 -87.9625,-51.3666 -88.4248,-52.3783 -88.8575,-53.3904 -89.2605,-54.4027 -89.6335,-55.415 -89.9766,-56.427 -90.2895,-57.4385 -90.5723,-58.4492 -90.8247,-59.4589 -91.0467,-60.4673 -91.2382,-61.4742 -91.3991,-62.4794 -91.5292,-63.4826 -91.6284,-64.4835 -91.6967,-65.482 -91.7339,-66.4777 -91.7399,-67.4705 -91.7147,-68.46 -91.6581,-69.4461 -91.5699,-70.4284 -91.4502,-71.4069 -91.2987,-72.3811 -91.1154,-73.3509 -90.9002,-74.3159 -90.6529,-75.2761 -90.3735,-76.2311 -90.0619,-77.1807 -89.7178,-78.1246 -89.3413,-79.0625 -88.9323,-79.9944 -88.4905,-80.9198 -88.0159,-81.8386 -87.5085,-82.7505 -86.968,-83.6553 -86.3944,-84.5527 -85.6619,-85.6619 -84.5527,-86.3944 -83.6553,-86.968 -82.7505,-87.5085 -81.8386,-88.0159 -80.9198,-88.4905 -79.9944,-88.9323 -79.0625,-89.3413 -78.1246,-89.7178 -77.1807,-90.0619 -76.2311,-90.3735 -75.2761,-90.6529 -74.3159,-90.9002 -73.3509,-91.1154 -72.3811,-91.2987 -71.4069,-91.4502 -70.4284,-91.5699 -69.4461,-91.6581 -68.46,-91.7147 -67.4705,-91.7399 -66.4777,-91.7339 -65.482,-91.6967 -64.4835,-91.6284 -63.4826,-91.5292 -62.4794,-91.3991 -61.4742,-91.2382 -60.4673,-91.0467 -59.4589,-90.8247 -58.4492,-90.5723 -57.4385,-90.2895 -56.427,-89.9766 -55.415,-89.6335 -54.4027,-89.2605 -53.3904,-88.8575 -52.3783,-88.4248 -51.3666,-87.9625 -50.3557,-87.4705 -49.3456,-86.9491 -48.3368,-86.3984 -47.3294,-85.8184 -46.3237,-85.2093 -45.3199,-84.5712 -44.3183,-83.9042 -43.319,-83.2083 -42.3225,-82.4838 -41.3288,-81.7307 -40.3383,-80.949 -39.3511,-80.139 -38.3676,-79.3008 -37.388,-78.4344 -36.4125,-77.5399 -35.4414,-76.6175 -34.4749,-75.6673 -20.3327,-61.5251 -18.8541,-60.0457 -17.4485,-58.6403 -16.1122,-57.3089 -14.8414,-56.0514 -13.6324,-54.8679 -12.4814,-53.7584 -11.3848,-52.7228 -10.3386,-51.7612 -9.33929,-50.8736 -8.38302,-50.06 -7.46607,-49.3203 -6.58468,-48.6545 -5.73513,-48.0628 -4.91365,-47.545 -4.11652,-47.1012 -3.33998,-46.7314 -2.58029,-46.4355 -1.8337,-46.2136 -1.09648,-46.0656 -0.364868,-45.9917 0.364868,-45.9917 1.09648,-46.0656 1.8337,-46.2136 2.58029,-46.4355 3.33998,-46.7314 4.11652,-47.1012 4.91365,-47.545 5.73513,-48.0628 6.58468,-48.6545 7.46607,-49.3203 8.38302,-50.06 9.33929,-50.8736 10.3386,-51.7612 11.3848,-52.7228 12.4814,-53.7584 13.6324,-54.8679 14.8414,-56.0514 16.1122,-57.3089 17.4485,-58.6403 18.8541,-60.0457 20.3327,-61.5251 29.5251,-52.3327 28.3105,-51.1266 27.1194,-49.9614 25.9509,-48.837 24.8042,-47.7536 23.6785,-46.711 22.573,-45.7093 21.4869,-44.7485 20.4193,-43.8286 19.3696,-42.9495 18.3368,-42.1114 17.3202,-41.3141 16.3189,-40.5578 15.3322,-39.8423 14.3592,-39.1676 13.3991,-38.5339 12.4512,-37.9411 11.5145,-37.3891 10.5884,-36.8781 9.67197,-36.4079 8.76442,-35.9786 7.86495,-35.5902 6.97275,-35.2427 6.08702,-34.936 5.20694,-34.6703 4.33171,-34.4454 3.46052,-34.2614 2.59256,-34.1183 1.72703,-34.0161 0.86311,-33.9548 0,-33.9343 -0.86311,-33.9548 -1.72703,-34.0161 -2.59256,-34.1183 -3.46052,-34.2614 -4.33171,-34.4454 -5.20694,-34.6703 -6.08702,-34.936 -6.97275,-35.2427 -7.86495,-35.5902 -8.76442,-35.9786 -9.67197,-36.4079 -10.5884,-36.8781 -11.5145,-37.3891 -12.4512,-37.9411 -13.3991,-38.5339 -14.3592,-39.1676 -15.3322,-39.8423 -16.3189,-40.5578 -17.3202,-41.3141 -18.3368,-42.1114 -19.3696,-42.9495 -20.4193,-43.8286 -21.4869,-44.7485 -22.573,-45.7093 -23.6785,-46.711 -24.8042,-47.7536 -25.9509,-48.837 -27.1194,-49.9614 -28.3105,-51.1266 -29.5251,-52.3327 M -52.3327,-34.4749 -66.4749,-20.3327 -67.6608,-19.128 -68.7872,-17.945 -69.8543,-16.7829 -70.8626,-15.6408 -71.8124,-14.518 -72.704,-13.4136 -73.5379,-12.3268 -74.3144,-11.2567 -75.0339,-10.2026 -75.6967,-9.16353 -76.3031,-8.13878 -76.8536,-7.12749 -77.3486,-6.12883 -77.7883,-5.14197 -78.1732,-4.16609 -78.5035,-3.20036 -78.7798,-2.24395 -79.0022,-1.29605 -79.1713,-0.355816 -79.2873,0.577567 -79.3507,1.50493 -79.3618,2.42709 -79.3209,3.34489 -79.2284,4.25914 -79.0847,5.17068 -78.8902,6.08032 -78.6451,6.98889 -78.35,7.89723 -78.005,8.80615 -77.6107,9.71648 -77.1673,10.6291 -76.6753,11.5447 -76.2568,12.2568 -75.5447,12.6753 -74.6291,13.1673 -73.7165,13.6107 -72.8061,14.005 -71.8972,14.35 -70.9889,14.6451 -70.0803,14.8902 -69.1707,15.0847 -68.2591,15.2284 -67.3449,15.3209 -66.4271,15.3618 -65.5049,15.3507 -64.5776,15.2873 -63.6442,15.1713 -62.704,15.0022 -61.756,14.7798 -60.7996,14.5035 -59.8339,14.1732 -58.858,13.7883 -57.8712,13.3486 -56.8725,12.8536 -55.8612,12.3031 -54.8365,11.6967 -53.7974,11.0339 -52.7433,10.3144 -51.6732,9.53794 -50.5864,8.70405 -49.482,7.81239 -48.3592,6.8626 -47.2171,5.85432 -46.055,4.78718 -44.872,3.66082 -43.6673,2.47487 -34.4749,11.6673 -35.4414,12.6175 -36.4125,13.5399 -37.388,14.4344 -38.3676,15.3008 -39.3511,16.139 -40.3383,16.949 -41.3288,17.7307 -42.3225,18.4838 -43.319,19.2083 -44.3183,19.9042 -45.3199,20.5712 -46.3237,21.2093 -47.3294,21.8184 -48.3368,22.3984 -49.3456,22.9491 -50.3557,23.4705 -51.3666,23.9625 -52.3783,24.4248 -53.3904,24.8575 -54.4027,25.2605 -55.415,25.6335 -56.427,25.9766 -57.4385,26.2895 -58.4492,26.5723 -59.4589,26.8247 -60.4673,27.0467 -61.4742,27.2382 -62.4794,27.3991 -63.4826,27.5292 -64.4835,27.6284 -65.482,27.6967 -66.4777,27.7339 -67.4705,27.7399 -68.46,27.7147 -69.4461,27.6581 -70.4284,27.5699 -71.4069,27.4502 -72.3811,27.2987 -73.3509,27.1154 -74.3159,26.9002 -75.2761,26.6529 -76.2311,26.3735 -77.1807,26.0619 -78.1246,25.7178 -79.0625,25.3413 -79.9944,24.9323 -80.9198,24.4905 -81.8386,24.0159 -82.7505,23.5085 -83.6553,22.968 -84.5527,22.3944 -85.6619,21.6619 -86.3944,20.5527 -86.968,19.6553 -87.5085,18.7505 -88.0159,17.8386 -88.4905,16.9198 -88.9323,15.9944 -89.3413,15.0625 -89.7178,14.1246 -90.0619,13.1807 -90.3735,12.2311 -90.6529,11.2761 -90.9002,10.3159 -91.1154,9.35086 -91.2987,8.38108 -91.4502,7.40686 -91.5699,6.42844 -91.6581,5.44607 -91.7147,4.46 -91.7399,3.47046 -91.7339,2.4777 -91.6967,1.48197 -91.6284,0.483516 -91.5292,-0.517426 -91.3991,-1.52061 -91.2382,-2.52578 -91.0467,-3.53271 -90.8247,-4.54114 -90.5723,-5.55082 -90.2895,-6.56153 -89.9766,-7.57301 -89.6335,-8.58501 -89.2605,-9.59729 -88.8575,-10.6096 -88.4248,-11.6217 -87.9625,-12.6334 -87.4705,-13.6443 -86.9491,-14.6544 -86.3984,-15.6632 -85.8184,-16.6706 -85.2093,-17.6763 -84.5712,-18.6801 -83.9042,-19.6817 -83.2083,-20.681 -82.4838,-21.6775 -81.7307,-22.6712 -80.949,-23.6617 -80.139,-24.6489 -79.3008,-25.6324 -78.4344,-26.612 -77.5399,-27.5875 -76.6175,-28.5586 -75.6673,-29.5251 -43.6673,-61.5251 -34.4749,-52.3327 -52.3327,-34.4749 M -34.4749,-11.6673 -2.47487,20.3327 -11.6673,29.5251 -52.3709,-11.1785 -61.5251,-20.3327 -52.3327,-29.5251 -34.4749,-11.6673 M 11.6673,29.5251 -2.47487,43.6673 -3.40663,44.6222 -4.28444,45.5701 -5.1081,46.5117 -5.87741,47.4476 -6.59218,48.3786 -7.25219,49.3052 -7.85727,50.2283 -8.40719,51.1484 -8.90176,52.0664 -9.34079,52.9827 -9.72408,53.8982 -10.0514,54.8135 -10.3226,55.7292 -10.5374,56.6462 -10.6957,57.565 -10.7973,58.4863 -10.8419,59.4109 -10.8293,60.3393 -10.7594,61.2724 -10.632,62.2107 -10.4468,63.155 -10.2037,64.1059 -9.9024,65.0641 -9.54278,66.0303 -9.12461,67.0052 -8.64769,67.9894 -8.11183,68.9837 -7.51682,69.9887 -6.86246,71.0051 -6.14856,72.0336 -5.37491,73.0749 -4.54132,74.1297 -3.64758,75.1986 -2.6935,76.2823 -1.67887,77.3815 -0.60349,78.4969 0,79.0982 0.60349,78.4969 1.67887,77.3815 2.6935,76.2823 3.64758,75.1986 4.54132,74.1297 5.37491,73.0749 6.14856,72.0336 6.86246,71.0051 7.51682,69.9887 8.11183,68.9837 8.64769,67.9894 9.12461,67.0052 9.54278,66.0303 9.9024,65.0641 10.2037,64.1059 10.4468,63.155 10.632,62.2107 10.7594,61.2724 10.8293,60.3393 10.8419,59.4109 10.7973,58.4863 10.6957,57.565 10.5374,56.6462 10.3226,55.7292 10.0514,54.8135 9.72408,53.8982 9.34079,52.9827 8.90176,52.0664 8.40719,51.1484 7.85727,50.2283 7.25219,49.3052 6.59218,48.3786 5.87741,47.4476 5.1081,46.5117 4.28444,45.5701 3.40663,44.6222 2.47487,43.6673 11.6673,34.4749 12.5195,35.348 13.3376,36.2284 14.1216,37.1159 14.8714,38.0103 15.5873,38.9114 16.2692,39.819 16.9172,40.7329 17.5313,41.6528 18.1117,42.5787 18.6584,43.5102 19.1714,44.4472 19.6508,45.3895 20.0967,46.3369 20.5091,47.2892 20.888,48.2461 21.2336,49.2075 21.5459,50.1732 21.825,51.1429 22.0708,52.1165 22.2836,53.0938 22.4632,54.0745 22.6099,55.0585 22.7236,56.0455 22.8044,57.0354 22.8524,58.0279 22.8677,59.0229 22.8502,60.0202 22.8,61.0194 22.7173,62.0206 22.602,63.0233 22.4543,64.0275 22.2741,65.033 22.0616,66.0394 21.8168,67.0467 21.5397,68.0547 21.2305,69.063 20.8892,70.0716 20.5158,71.0802 20.1103,72.0886 19.673,73.0967 19.2038,74.1041 18.7027,75.1108 18.1699,76.1165 17.6054,77.121 17.0092,78.1241 16.3814,79.1256 15.7221,80.1253 15.0314,81.123 14.3092,82.1185 13.5557,83.1117 12.7709,84.1022 11.9549,85.0899 11.1077,86.0745 10.2294,87.056 9.32002,88.0341 8.37966,89.0085 7.40837,89.9791 6.4062,90.9457 5.37321,91.9081 4.30947,92.8661 0,96.6826 -4.30947,92.8661 -5.37321,91.9081 -6.4062,90.9457 -7.40837,89.9791 -8.37966,89.0085 -9.32002,88.0341 -10.2294,87.056 -11.1077,86.0745 -11.9549,85.0899 -12.7709,84.1022 -13.5557,83.1117 -14.3092,82.1185 -15.0314,81.123 -15.7221,80.1253 -16.3814,79.1256 -17.0092,78.1241 -17.6054,77.121 -18.1699,76.1165 -18.7027,75.1108 -19.2038,74.1041 -19.673,73.0967 -20.1103,72.0886 -20.5158,71.0802 -20.8892,70.0716 -21.2305,69.063 -21.5397,68.0547 -21.8168,67.0467 -22.0616,66.0394 -22.2741,65.033 -22.4543,64.0275 -22.602,63.0233 -22.7173,62.0206 -22.8,61.0194 -22.8502,60.0202 -22.8677,59.0229 -22.8524,58.0279 -22.8044,57.0354 -22.7236,56.0455 -22.6099,55.0585 -22.4632,54.0745 -22.2836,53.0938 -22.0708,52.1165 -21.825,51.1429 -21.5459,50.1732 -21.2336,49.2075 -20.888,48.2461 -20.5091,47.2892 -20.0967,46.3369 -19.6508,45.3895 -19.1714,44.4472 -18.6584,43.5102 -18.1117,42.5787 -17.5313,41.6528 -16.9172,40.7329 -16.2692,39.819 -15.5873,38.9114 -14.8714,38.0103 -14.1216,37.1159 -13.3376,36.2284 -12.5195,35.348 -11.6673,34.4749 20.3327,2.47487 29.5251,11.6673 11.6673,29.5251 M 29.5251,-11.6673 43.6673,2.47487 44.872,3.66082 46.055,4.78718 47.2171,5.85432 48.3592,6.8626 49.482,7.81239 50.5864,8.70405 51.6732,9.53794 52.7433,10.3144 53.7974,11.0339 54.8365,11.6967 55.8612,12.3031 56.8725,12.8536 57.8712,13.3486 58.858,13.7883 59.8339,14.1732 60.7996,14.5035 61.756,14.7798 62.704,15.0022 63.6442,15.1713 64.5776,15.2873 65.5049,15.3507 66.4271,15.3618 67.3449,15.3209 68.2591,15.2284 69.1707,15.0847 70.0803,14.8902 70.9889,14.6451 71.8972,14.35 72.8061,14.005 73.7165,13.6107 74.6291,13.1673 75.5447,12.6753 76.2568,12.2568 76.6753,11.5447 77.1673,10.6291 77.6107,9.71648 78.005,8.80615 78.35,7.89723 78.6451,6.98889 78.8902,6.08032 79.0847,5.17068 79.2284,4.25914 79.3209,3.34489 79.3618,2.42709 79.3507,1.50493 79.2873,0.577567 79.1713,-0.355816 79.0022,-1.29605 78.7798,-2.24395 78.5035,-3.20036 78.1732,-4.16609 77.7883,-5.14197 77.3486,-6.12883 76.8536,-7.12749 76.3031,-8.13878 75.6967,-9.16353 75.0339,-10.2026 74.3144,-11.2567 73.5379,-12.3268 72.704,-13.4136 71.8124,-14.518 70.8626,-15.6408 69.8543,-16.7829 68.7872,-17.945 67.6608,-19.128 66.4749,-20.3327 75.6673,-29.5251 76.6175,-28.5586 77.5399,-27.5875 78.4344,-26.612 79.3008,-25.6324 80.139,-24.6489 80.949,-23.6617 81.7307,-22.6712 82.4838,-21.6775 83.2083,-20.681 83.9042,-19.6817 84.5712,-18.6801 85.2093,-17.6763 85.8184,-16.6706 86.3984,-15.6632 86.9491,-14.6544 87.4705,-13.6443 87.9625,-12.6334 88.4248,-11.6217 88.8575,-10.6096 89.2605,-9.59729 89.6335,-8.58501 89.9766,-7.57301 90.2895,-6.56153 90.5723,-5.55082 90.8247,-4.54114 91.0467,-3.53271 91.2382,-2.52578 91.3991,-1.52061 91.5292,-0.517426 91.6284,0.483516 91.6967,1.48197 91.7339,2.4777 91.7399,3.47046 91.7147,4.46 91.6581,5.44607 91.5699,6.42844 91.4502,7.40686 91.2987,8.38108 91.1154,9.35086 90.9002,10.3159 90.6529,11.2761 90.3735,12.2311 90.0619,13.1807 89.7178,14.1246 89.3413,15.0625 88.9323,15.9944 88.4905,16.9198 88.0159,17.8386 87.5085,18.7505 86.968,19.6553 86.3944,20.5527 85.6619,21.6619 84.5527,22.3944 83.6553,22.968 82.7505,23.5085 81.8386,24.0159 80.9198,24.4905 79.9944,24.9323 79.0625,25.3413 78.1246,25.7178 77.1807,26.0619 76.2311,26.3735 75.2761,26.6529 74.3159,26.9002 73.3509,27.1154 72.3811,27.2987 71.4069,27.4502 70.4284,27.5699 69.4461,27.6581 68.46,27.7147 67.4705,27.7399 66.4777,27.7339 65.482,27.6967 64.4835,27.6284 63.4826,27.5292 62.4794,27.3991 61.4742,27.2382 60.4673,27.0467 59.4589,26.8247 58.4492,26.5723 57.4385,26.2895 56.427,25.9766 55.415,25.6335 54.4027,25.2605 53.3904,24.8575 52.3783,24.4248 51.3666,23.9625 50.3557,23.4705 49.3456,22.9491 48.3368,22.3984 47.3294,21.8184 46.3237,21.2093 45.3199,20.5712 44.3183,19.9042 43.319,19.2083 42.3225,18.4838 41.3288,17.7307 40.3383,16.949 39.3511,16.139 38.3676,15.3008 37.388,14.4344 36.4125,13.5399 35.4414,12.6175 34.4749,11.6673 20.3327,-2.47487 18.8541,-3.95425 17.4485,-5.35966 16.1122,-6.6911 14.8414,-7.94857 13.6324,-9.13207 12.4814,-10.2416 11.3848,-11.2772 10.3386,-12.2388 9.33929,-13.1264 8.38302,-13.94 7.46607,-14.6797 6.58468,-15.3455 5.73513,-15.9372 4.91365,-16.455 4.11652,-16.8988 3.33998,-17.2686 2.58029,-17.5645 1.8337,-17.7864 1.09648,-17.9344 0.364868,-18.0083 -0.364868,-18.0083 -1.09648,-17.9344 -1.8337,-17.7864 -2.58029,-17.5645 -3.33998,-17.2686 -4.11652,-16.8988 -4.91365,-16.455 -5.73513,-15.9372 -6.58468,-15.3455 -7.46607,-14.6797 -8.38302,-13.94 -9.33929,-13.1264 -10.3386,-12.2388 -11.3848,-11.2772 -12.4814,-10.2416 -13.6324,-9.13207 -14.8414,-7.94857 -16.1122,-6.6911 -17.4485,-5.35966 -18.8541,-3.95425 -20.3327,-2.47487 -29.5251,-11.6673 -28.3105,-12.8734 -27.1194,-14.0386 -25.9509,-15.163 -24.8042,-16.2464 -23.6785,-17.289 -22.573,-18.2907 -21.4869,-19.2515 -20.4193,-20.1714 -19.3696,-21.0505 -18.3368,-21.8886 -17.3202,-22.6859 -16.3189,-23.4422 -15.3322,-24.1577 -14.3592,-24.8324 -13.3991,-25.4661 -12.4512,-26.0589 -11.5145,-26.6109 -10.5884,-27.1219 -9.67197,-27.5921 -8.76442,-28.0214 -7.86495,-28.4098 -6.97275,-28.7573 -6.08702,-29.064 -5.20694,-29.3297 -4.33171,-29.5546 -3.46052,-29.7386 -2.59256,-29.8817 -1.72703,-29.9839 -0.86311,-30.0452 0,-30.0657 0.86311,-30.0452 1.72703,-29.9839 2.59256,-29.8817 3.46052,-29.7386 4.33171,-29.5546 5.20694,-29.3297 6.08702,-29.064 6.97275,-28.7573 7.86495,-28.4098 8.76442,-28.0214 9.67197,-27.5921 10.5884,-27.1219 11.5145,-26.6109 12.4512,-26.0589 13.3991,-25.4661 14.3592,-24.8324 15.3322,-24.1577 16.3189,-23.4422 17.3202,-22.6859 18.3368,-21.8886 19.3696,-21.0505 20.4193,-20.1714 21.4869,-19.2515 22.573,-18.2907 23.6785,-17.289 24.8042,-16.2464 25.9509,-15.163 27.1194,-14.0386 28.3105,-12.8734 29.5251,-11.6673 M 52.3327,-29.5251 66.4749,-43.6673 67.6608,-44.872 68.7872,-46.055 69.8543,-47.2171 70.8626,-48.3592 71.8124,-49.482 72.704,-50.5864 73.5379,-51.6732 74.3144,-52.7433 75.0339,-53.7974 75.6967,-54.8365 76.3031,-55.8612 76.8536,-56.8725 77.3486,-57.8712 77.7883,-58.858 78.1732,-59.8339 78.5035,-60.7996 78.7798,-61.756 79.0022,-62.704 79.1713,-63.6442 79.2873,-64.5776 79.3507,-65.5049 79.3618,-66.4271 79.3209,-67.3449 79.2284,-68.2591 79.0847,-69.1707 78.8902,-70.0803 78.6451,-70.9889 78.35,-71.8972 78.005,-72.8061 77.6107,-73.7165 77.1673,-74.6291 76.6753,-75.5447 76.2568,-76.2568 75.5447,-76.6753 74.6291,-77.1673 73.7165,-77.6107 72.8061,-78.005 71.8972,-78.35 70.9889,-78.6451 70.0803,-78.8902 69.1707,-79.0847 68.2591,-79.2284 67.3449,-79.3209 66.4271,-79.3618 65.5049,-79.3507 64.5776,-79.2873 63.6442,-79.1713 62.704,-79.0022 61.756,-78.7798 60.7996,-78.5035 59.8339,-78.1732 58.858,-77.7883 57.8712,-77.3486 56.8725,-76.8536 55.8612,-76.3031 54.8365,-75.6967 53.7974,-75.0339 52.7433,-74.3144 51.6732,-73.5379 50.5864,-72.704 49.482,-71.8124 48.3592,-70.8626 47.2171,-69.8543 46.055,-68.7872 44.872,-67.6608 43.6673,-66.4749 34.4749,-75.6673 35.4414,-76.6175 36.4125,-77.5399 37.388,-78.4344 38.3676,-79.3008 39.3511,-80.139 40.3383,-80.949 41.3288,-81.7307 42.3225,-82.4838 43.319,-83.2083 44.3183,-83.9042 45.3199,-84.5712 46.3237,-85.2093 47.3294,-85.8184 48.3368,-86.3984 49.3456,-86.9491 50.3557,-87.4705 51.3666,-87.9625 52.3783,-88.4248 53.3904,-88.8575 54.4027,-89.2605 55.415,-89.6335 56.427,-89.9766 57.4385,-90.2895 58.4492,-90.5723 59.4589,-90.8247 60.4673,-91.0467 61.4742,-91.2382 62.4794,-91.3991 63.4826,-91.5292 64.4835,-91.6284 65.482,-91.6967 66.4777,-91.7339 67.4705,-91.7399 68.46,-91.7147 69.4461,-91.6581 70.4284,-91.5699 71.4069,-91.4502 72.3811,-91.2987 73.3509,-91.1154 74.3159,-90.9002 75.2761,-90.6529 76.2311,-90.3735 77.1807,-90.0619 78.1246,-89.7178 79.0625,-89.3413 79.9944,-88.9323 80.9198,-88.4905 81.8386,-88.0159 82.7505,-87.5085 83.6553,-86.968 84.5527,-86.3944 85.6619,-85.6619 86.3944,-84.5527 86.968,-83.6553 87.5085,-82.7505 88.0159,-81.8386 88.4905,-80.9198 88.9323,-79.9944 89.3413,-79.0625 89.7178,-78.1246 90.0619,-77.1807 90.3735,-76.2311 90.6529,-75.2761 90.9002,-74.3159 91.1154,-73.3509 91.2987,-72.3811 91.4502,-71.4069 91.5699,-70.4284 91.6581,-69.4461 91.7147,-68.46 91.7399,-67.4705 91.7339,-66.4777 91.6967,-65.482 91.6284,-64.4835 91.5292,-63.4826 91.3991,-62.4794 91.2382,-61.4742 91.0467,-60.4673 90.8247,-59.4589 90.5723,-58.4492 90.2895,-57.4385 89.9766,-56.427 89.6335,-55.415 89.2605,-54.4027 88.8575,-53.3904 88.4248,-52.3783 87.9625,-51.3666 87.4705,-50.3557 86.9491,-49.3456 86.3984,-48.3368 85.8184,-47.3294 85.2093,-46.3237 84.5712,-45.3199 83.9042,-44.3183 83.2083,-43.319 82.4838,-42.3225 81.7307,-41.3288 80.949,-40.3383 80.139,-39.3511 79.3008,-38.3676 78.4344,-37.388 77.5399,-36.4125 76.6175,-35.4414 75.6673,-34.4749 43.6673,-2.47487 34.4749,-11.6673 52.3327,-29.5251 M 34.4749,-52.3327 12.2213,-74.5863 2.47487,-84.3327 11.6673,-93.5251 19.7787,-85.4137 29.5251,-75.6673 61.5251,-43.6673 52.3327,-34.4749 34.4749,-52.3327"
         id="path3441"
         style="fill-rule:nonzero" />
    </g>
    <path
       d="M 93.694348,85.981082 93.694348,93.981082 97.694348,93.981082 186.66495,93.981082 190.66495,93.981082 190.66495,85.981082 186.66495,85.981082 97.694348,85.981082 z"
       id="path3042"
       style="font-size:medium;font-style:normal;font-variant:normal;font-weight:normal;font-stretch:normal;text-indent:0;text-align:start;text-decoration:none;line-height:normal;letter-spacing:normal;word-spacing:normal;text-transform:none;direction:ltr;block-progression:tb;writing-mode:lr-tb;text-anchor:start;baseline-shift:baseline;color:#000000;fill:url(#linearGradient4494);fill-opacity:1;fill-rule:nonzero;stroke:#171827;stroke-width:1;stroke-miterlimit:4;stroke-opacity:1;stroke-dasharray:none;marker:none;visibility:visible;display:inline;overflow:visible;enable-background:accumulate;font-family:Sans;-inkscape-font-specification:Sans" />
    <path
       d="M 94.220088,139.26784 102.22009,139.26784 102.22009,135.26784 102.22009,89.455342 102.22009,85.455342 94.220088,85.455342 94.220088,89.455342 94.220088,135.26784 94.220088,139.26784 z"
       id="path3042-0"
       style="font-size:medium;font-style:normal;font-variant:normal;font-weight:normal;font-stretch:normal;text-indent:0;text-align:start;text-decoration:none;line-height:normal;letter-spacing:normal;word-spacing:normal;text-transform:none;direction:ltr;block-progression:tb;writing-mode:lr-tb;text-anchor:start;baseline-shift:baseline;color:#000000;fill:url(#linearGradient4494-8);fill-opacity:1;fill-rule:nonzero;stroke:#171827;stroke-width:1;stroke-miterlimit:4;stroke-opacity:1;stroke-dasharray:none;marker:none;visibility:visible;display:inline;overflow:visible;enable-background:accumulate;font-family:Sans;-inkscape-font-specification:Sans" />
    <path
       d="M 96.059178,130.7421 96.059178,138.7421 100.05918,138.7421 189.02978,138.7421 193.02978,138.7421 193.02978,130.7421 189.02978,130.7421 100.05918,130.7421 z"
       id="path4573"
       style="font-size:medium;font-style:normal;font-variant:normal;font-weight:normal;font-stretch:normal;text-indent:0;text-align:start;text-decoration:none;line-height:normal;letter-spacing:normal;word-spacing:normal;text-transform:none;direction:ltr;block-progression:tb;writing-mode:lr-tb;text-anchor:start;baseline-shift:baseline;color:#000000;fill:url(#linearGradient4575);fill-opacity:1;fill-rule:nonzero;stroke:#171827;stroke-width:1;stroke-miterlimit:4;stroke-opacity:1;stroke-dasharray:none;marker:none;visibility:visible;display:inline;overflow:visible;enable-background:accumulate;font-family:Sans;-inkscape-font-specification:Sans" />
    <path
       d="M 138.98111,184.02886 146.98111,184.02886 146.98111,180.02886 146.98111,134.21636 146.98111,130.21636 138.98111,130.21636 138.98111,134.21636 138.98111,180.02886 138.98111,184.02886 z"
       id="path4618"
       style="font-size:medium;font-style:normal;font-variant:normal;font-weight:normal;font-stretch:normal;text-indent:0;text-align:start;text-decoration:none;line-height:normal;letter-spacing:normal;word-spacing:normal;text-transform:none;direction:ltr;block-progression:tb;writing-mode:lr-tb;text-anchor:start;baseline-shift:baseline;color:#000000;fill:url(#linearGradient4620);fill-opacity:1;fill-rule:nonzero;stroke:#171827;stroke-width:1;stroke-miterlimit:4;stroke-opacity:1;stroke-dasharray:none;marker:none;visibility:visible;display:inline;overflow:visible;enable-background:accumulate;font-family:Sans;-inkscape-font-specification:Sans" />
    <path
       d="M 183.74213,139.26784 191.74213,139.26784 191.74213,135.26784 191.74213,89.455342 191.74213,85.455342 183.74213,85.455342 183.74213,89.455342 183.74213,135.26784 183.74213,139.26784 z"
       id="path4614"
       style="font-size:medium;font-style:normal;font-variant:normal;font-weight:normal;font-stretch:normal;text-indent:0;text-align:start;text-decoration:none;line-height:normal;letter-spacing:normal;word-spacing:normal;text-transform:none;direction:ltr;block-progression:tb;writing-mode:lr-tb;text-anchor:start;baseline-shift:baseline;color:#000000;fill:url(#linearGradient4616);fill-opacity:1;fill-rule:nonzero;stroke:#171827;stroke-width:1;stroke-miterlimit:4;stroke-opacity:1;stroke-dasharray:none;marker:none;visibility:visible;display:inline;overflow:visible;enable-background:accumulate;font-family:Sans;-inkscape-font-specification:Sans" />
    <path
       d="M 138.98111,94.506822 146.98111,94.506822 146.98111,90.506822 146.98111,44.694326 146.98111,40.694326 138.98111,40.694326 138.98111,44.694326 138.98111,90.506822 138.98111,94.506822 z"
       id="path4610"
       style="font-size:medium;font-style:normal;font-variant:normal;font-weight:normal;font-stretch:normal;text-indent:0;text-align:start;text-decoration:none;line-height:normal;letter-spacing:normal;word-spacing:normal;text-transform:none;direction:ltr;block-progression:tb;writing-mode:lr-tb;text-anchor:start;baseline-shift:baseline;color:#000000;fill:url(#linearGradient4612);fill-opacity:1;fill-rule:nonzero;stroke:#171827;stroke-width:1;stroke-miterlimit:4;stroke-opacity:1;stroke-dasharray:none;marker:none;visibility:visible;display:inline;overflow:visible;enable-background:accumulate;font-family:Sans;-inkscape-font-specification:Sans" />
    <path
       d="M 9.0149112,2.9713824 A 6.2435427,6.2435427 0 1 1 -3.4721742,2.9713824 6.2435427,6.2435427 0 1 1 9.0149112,2.9713824 z"
       transform="matrix(1.3473804,0,0,1.3473804,184.00788,85.977222)"
       id="path4565"
       style="color:#000000;fill:url(#radialGradient4567);fill-opacity:1;stroke:#271717;stroke-width:1;stroke-linecap:square;stroke-linejoin:round;stroke-miterlimit:4;stroke-opacity:1;stroke-dasharray:none;stroke-dashoffset:0;marker:none;visibility:visible;display:inline;overflow:visible;enable-background:accumulate" />
    <path
       d="M 9.0149112,2.9713824 A 6.2435427,6.2435427 0 1 1 -3.4721742,2.9713824 6.2435427,6.2435427 0 1 1 9.0149112,2.9713824 z"
       transform="matrix(1.3473804,0,0,1.3473804,184.00788,130.73852)"
       id="path4561"
       style="color:#000000;fill:url(#radialGradient4563);fill-opacity:1;stroke:#271717;stroke-width:1;stroke-linecap:square;stroke-linejoin:round;stroke-miterlimit:4;stroke-opacity:1;stroke-dasharray:none;stroke-dashoffset:0;marker:none;visibility:visible;display:inline;overflow:visible;enable-background:accumulate" />
    <path
       d="M 9.0149112,2.9713824 A 6.2435427,6.2435427 0 1 1 -3.4721742,2.9713824 6.2435427,6.2435427 0 1 1 9.0149112,2.9713824 z"
       transform="matrix(1.3473804,0,0,1.3473804,139.24702,175.49938)"
       id="path4569"
       style="color:#000000;fill:url(#radialGradient4571);fill-opacity:1;stroke:#271717;stroke-width:1;stroke-linecap:square;stroke-linejoin:round;stroke-miterlimit:4;stroke-opacity:1;stroke-dasharray:none;stroke-dashoffset:0;marker:none;visibility:visible;display:inline;overflow:visible;enable-background:accumulate" />
    <path
       d="M 9.0149112,2.9713824 A 6.2435427,6.2435427 0 1 1 -3.4721742,2.9713824 6.2435427,6.2435427 0 1 1 9.0149112,2.9713824 z"
       transform="matrix(1.3473804,0,0,1.3473804,139.24702,130.73852)"
       id="path4557"
       style="color:#000000;fill:url(#radialGradient4559);fill-opacity:1;stroke:#271717;stroke-width:1;stroke-linecap:square;stroke-linejoin:round;stroke-miterlimit:4;stroke-opacity:1;stroke-dasharray:none;stroke-dashoffset:0;marker:none;visibility:visible;display:inline;overflow:visible;enable-background:accumulate" />
    <path
       d="M 9.0149112,2.9713824 A 6.2435427,6.2435427 0 1 1 -3.4721742,2.9713824 6.2435427,6.2435427 0 1 1 9.0149112,2.9713824 z"
       transform="matrix(1.3473804,0,0,1.3473804,94.486158,130.73852)"
       id="path4553"
       style="color:#000000;fill:url(#radialGradient4555);fill-opacity:1;stroke:#271717;stroke-width:1;stroke-linecap:square;stroke-linejoin:round;stroke-miterlimit:4;stroke-opacity:1;stroke-dasharray:none;stroke-dashoffset:0;marker:none;visibility:visible;display:inline;overflow:visible;enable-background:accumulate" />
    <path
       d="M 9.0149112,2.9713824 A 6.2435427,6.2435427 0 1 1 -3.4721742,2.9713824 6.2435427,6.2435427 0 1 1 9.0149112,2.9713824 z"
       transform="matrix(1.3473804,0,0,1.3473804,94.486158,85.977222)"
       id="path4549"
       style="color:#000000;fill:url(#radialGradient4551);fill-opacity:1;stroke:#271717;stroke-width:1;stroke-linecap:square;stroke-linejoin:round;stroke-miterlimit:4;stroke-opacity:1;stroke-dasharray:none;stroke-dashoffset:0;marker:none;visibility:visible;display:inline;overflow:visible;enable-background:accumulate" />
    <path
       d="M 9.0149112,2.9713824 A 6.2435427,6.2435427 0 1 1 -3.4721742,2.9713824 6.2435427,6.2435427 0 1 1 9.0149112,2.9713824 z"
       transform="matrix(1.3473804,0,0,1.3473804,139.24702,85.977222)"
       id="path4545"
       style="color:#000000;fill:url(#radialGradient4547);fill-opacity:1;stroke:#271717;stroke-width:1;stroke-linecap:square;stroke-linejoin:round;stroke-miterlimit:4;stroke-opacity:1;stroke-dasharray:none;stroke-dashoffset:0;marker:none;visibility:visible;display:inline;overflow:visible;enable-background:accumulate" />
    <path
       d="M 9.0149112,2.9713824 A 6.2435427,6.2435427 0 1 1 -3.4721742,2.9713824 6.2435427,6.2435427 0 1 1 9.0149112,2.9713824 z"
       transform="matrix(1.3473804,0,0,1.3473804,139.24702,41.216353)"
       id="path4355"
       style="color:#000000;fill:url(#radialGradient4675);fill-opacity:1;stroke:#271717;stroke-width:1;stroke-linecap:square;stroke-linejoin:round;stroke-miterlimit:4;stroke-opacity:1;stroke-dasharray:none;stroke-dashoffset:0;marker:none;visibility:visible;display:inline;overflow:visible;enable-background:accumulate" />
  </g>
</svg>
