<?xml version="1.0" encoding="UTF-8" standalone="no"?>
<!-- Created with Inkscape (http://www.inkscape.org/) -->

<svg
   xmlns:dc="http://purl.org/dc/elements/1.1/"
   xmlns:cc="http://creativecommons.org/ns#"
   xmlns:rdf="http://www.w3.org/1999/02/22-rdf-syntax-ns#"
   xmlns:svg="http://www.w3.org/2000/svg"
   xmlns="http://www.w3.org/2000/svg"
   version="1.1"
   width="64"
   height="64"
   id="svg2985">
  <defs
     id="defs2987" />
  <metadata
     id="metadata2990">
    <rdf:RDF>
      <cc:Work
         rdf:about="">
        <dc:format>image/svg+xml</dc:format>
        <dc:type
           rdf:resource="http://purl.org/dc/dcmitype/StillImage" />
        <dc:title></dc:title>
      </cc:Work>
    </rdf:RDF>
  </metadata>
  <g
     id="layer1">
    <g
       transform="matrix(0,-1,1,0,0.16595988,64.16596)"
       id="g3794">
      <path
         d="M 40,44 -12.5,74.310889 -12.5,13.689111 z"
         transform="matrix(0.94158208,0,0,0.94158208,24.783101,-9.4296114)"
         id="path3765"
         style="color:#000000;fill:#ffa65d;fill-opacity:1;fill-rule:nonzero;stroke:#0000f6;stroke-width:2.12408471;stroke-linecap:square;stroke-linejoin:round;stroke-miterlimit:4;stroke-opacity:1;stroke-dasharray:none;stroke-dashoffset:0;marker:none;visibility:visible;display:inline;overflow:visible;enable-background:accumulate" />
      <path
         d="M 40,44 -12.5,74.310889 -12.5,13.689111 z"
         transform="matrix(-0.94158208,0,0,0.94158208,39.548819,-9.4296114)"
         id="path3767"
         style="color:#000000;fill:#9f5dff;fill-opacity:1;fill-rule:nonzero;stroke:#0000f6;stroke-width:2.12408471;stroke-linecap:square;stroke-linejoin:round;stroke-miterlimit:4;stroke-opacity:1;stroke-dasharray:none;stroke-dashoffset:0;marker:none;visibility:visible;display:inline;overflow:visible;enable-background:accumulate" />
      <path
         d="M 32.065948,15.673879 C 25.939553,18.946439 19.973018,22.536357 13.930267,25.971122 13.644389,27.135615 13.881265,28.439879 13.800905,29.659323 13.796389,32.364541 13.795863,35.069763 13.793666,37.774984 14.656997,38.605823 15.907596,39.050617 16.92318,39.729684 21.95761,42.635825 26.983482,45.558275 32.025772,48.449886 32.975632,48.252652 33.777408,47.485479 34.672215,47.078907 39.925906,44.056099 45.174545,41.024517 50.422601,37.991937 50.707089,36.827443 50.466632,35.523178 50.544742,34.303734 50.543628,31.598511 50.538527,28.893294 50.535095,26.188075 49.70798,25.380001 48.493427,24.958863 47.513752,24.303151 42.431679,21.416187 37.41514,18.391484 32.25076,15.665844 32.194863,15.703686 32.122963,15.642921 32.065948,15.673879 z"
         id="path3773"
         style="color:#000000;fill:#d78585;fill-opacity:1;fill-rule:nonzero;stroke:none;stroke-width:0.25712973;marker:none;visibility:visible;display:inline;overflow:visible;enable-background:accumulate" />
      <path
         d="M 32.16596,4 32.16596,59"
         id="path3771"
         style="color:#000000;fill:#ffa65d;fill-opacity:1;fill-rule:nonzero;stroke:#0000f6;stroke-width:2;stroke-linecap:round;stroke-linejoin:round;stroke-miterlimit:4;stroke-opacity:1;stroke-dasharray:2, 4;stroke-dashoffset:0;marker:none;visibility:visible;display:inline;overflow:visible;enable-background:accumulate" />
    </g>
  </g>
</svg>
